G04 #@! TF.FileFunction,Glue,Bot*
%FSLAX46Y46*%
G04 Gerber Fmt 4.6, Leading zero omitted, Abs format (unit mm)*
G04 Created by KiCad (PCBNEW 4.0.7) date 09/09/17 19:38:47*
%MOMM*%
%LPD*%
G01*
G04 APERTURE LIST*
%ADD10C,0.100000*%
G04 APERTURE END LIST*
D10*
X137927358Y-135315553D02*
X137927358Y-135715553D01*
X126777358Y-135715553D02*
X126777358Y-135315553D01*
X127777358Y-136715553D02*
X126777358Y-135715553D01*
X136927358Y-136715553D02*
X127777358Y-136715553D01*
X137927358Y-135715553D02*
X136927358Y-136715553D01*
X161427358Y-135315553D02*
X161427358Y-135715553D01*
X139927358Y-135715553D02*
X139927358Y-135315553D01*
X140927358Y-136715553D02*
X139927358Y-135715553D01*
X160427358Y-136715553D02*
X140927358Y-136715553D01*
X161427358Y-135715553D02*
X160427358Y-136715553D01*
X124427358Y-91915553D02*
X174427358Y-91915553D01*
X174427358Y-128315553D02*
X174427358Y-91915553D01*
X174427358Y-128315553D02*
X162427358Y-128315553D01*
X124427358Y-128315553D02*
X124427358Y-91915553D01*
X125777358Y-128315553D02*
X124427358Y-128315553D01*
X125777358Y-128315553D02*
G75*
G02X126777358Y-129315553I0J-1000000D01*
G01*
X126777358Y-135315553D02*
X126777358Y-129315553D01*
X137927358Y-129315553D02*
X137927358Y-135315553D01*
X137927358Y-129315553D02*
G75*
G02X139927358Y-129315553I1000000J0D01*
G01*
X139927358Y-135315553D02*
X139927358Y-129315553D01*
X161427358Y-129315553D02*
X161427358Y-135315553D01*
X161427358Y-129315553D02*
G75*
G02X162427358Y-128315553I1000000J0D01*
G01*
M02*
