G04 #@! TF.FileFunction,Soldermask,Bot*
%FSLAX46Y46*%
G04 Gerber Fmt 4.6, Leading zero omitted, Abs format (unit mm)*
G04 Created by KiCad (PCBNEW 4.0.7) date 09/09/17 19:38:47*
%MOMM*%
%LPD*%
G01*
G04 APERTURE LIST*
%ADD10C,0.100000*%
%ADD11R,1.400000X1.800000*%
%ADD12R,1.300000X1.300000*%
%ADD13R,1.300000X1.500000*%
%ADD14R,1.000000X0.900000*%
%ADD15R,2.432000X2.127200*%
%ADD16O,2.432000X2.127200*%
%ADD17R,1.000000X0.800000*%
%ADD18R,0.900000X1.000000*%
%ADD19R,1.150000X1.200000*%
%ADD20R,2.127200X2.127200*%
%ADD21O,2.127200X2.127200*%
%ADD22C,3.900000*%
%ADD23R,1.100000X1.700000*%
%ADD24R,0.900000X1.300000*%
%ADD25R,0.800000X1.000000*%
%ADD26R,1.300000X0.900000*%
%ADD27C,2.400000*%
%ADD28R,1.050000X1.460000*%
%ADD29O,2.300000X1.400000*%
%ADD30C,1.850000*%
%ADD31R,1.100000X4.250000*%
%ADD32C,0.250000*%
G04 APERTURE END LIST*
D10*
X137927358Y-135315553D02*
X137927358Y-135715553D01*
X126777358Y-135715553D02*
X126777358Y-135315553D01*
X127777358Y-136715553D02*
X126777358Y-135715553D01*
X136927358Y-136715553D02*
X127777358Y-136715553D01*
X137927358Y-135715553D02*
X136927358Y-136715553D01*
X161427358Y-135315553D02*
X161427358Y-135715553D01*
X139927358Y-135715553D02*
X139927358Y-135315553D01*
X140927358Y-136715553D02*
X139927358Y-135715553D01*
X160427358Y-136715553D02*
X140927358Y-136715553D01*
X161427358Y-135715553D02*
X160427358Y-136715553D01*
X124427358Y-91915553D02*
X174427358Y-91915553D01*
X174427358Y-128315553D02*
X174427358Y-91915553D01*
X174427358Y-128315553D02*
X162427358Y-128315553D01*
X124427358Y-128315553D02*
X124427358Y-91915553D01*
X125777358Y-128315553D02*
X124427358Y-128315553D01*
X125777358Y-128315553D02*
G75*
G02X126777358Y-129315553I0J-1000000D01*
G01*
X126777358Y-135315553D02*
X126777358Y-129315553D01*
X137927358Y-129315553D02*
X137927358Y-135315553D01*
X137927358Y-129315553D02*
G75*
G02X139927358Y-129315553I1000000J0D01*
G01*
X139927358Y-135315553D02*
X139927358Y-129315553D01*
X161427358Y-129315553D02*
X161427358Y-135315553D01*
X161427358Y-129315553D02*
G75*
G02X162427358Y-128315553I1000000J0D01*
G01*
D11*
X161681200Y-111386800D03*
X159781200Y-111386800D03*
X160731200Y-109186800D03*
D12*
X164217500Y-111188500D03*
D13*
X166617500Y-111188500D03*
D14*
X160359000Y-100330000D03*
X161459000Y-100330000D03*
D15*
X135331200Y-101854000D03*
D16*
X135331200Y-104394000D03*
X135331200Y-106934000D03*
X135331200Y-109474000D03*
D17*
X155702000Y-102177000D03*
X155702000Y-101277000D03*
D18*
X166243000Y-115485000D03*
X166243000Y-114385000D03*
D19*
X167106600Y-102221600D03*
X167106600Y-103721600D03*
D18*
X170434000Y-118322000D03*
X170434000Y-119422000D03*
X165100000Y-115485000D03*
X165100000Y-114385000D03*
D14*
X166640600Y-112598200D03*
X165540600Y-112598200D03*
D12*
X168535500Y-109029500D03*
D13*
X170935500Y-109029500D03*
D20*
X156428440Y-97363280D03*
D21*
X156428440Y-94823280D03*
X153888440Y-97363280D03*
X153888440Y-94823280D03*
X151348440Y-97363280D03*
X151348440Y-94823280D03*
X148808440Y-97363280D03*
X148808440Y-94823280D03*
X146268440Y-97363280D03*
X146268440Y-94823280D03*
X143728440Y-97363280D03*
X143728440Y-94823280D03*
X141188440Y-97363280D03*
X141188440Y-94823280D03*
X138648440Y-97363280D03*
X138648440Y-94823280D03*
X136108440Y-97363280D03*
X136108440Y-94823280D03*
X133568440Y-97363280D03*
X133568440Y-94823280D03*
X131028440Y-97363280D03*
X131028440Y-94823280D03*
X128488440Y-97363280D03*
X128488440Y-94823280D03*
X125948440Y-97363280D03*
X125948440Y-94823280D03*
D22*
X160998440Y-96293280D03*
D23*
X167193000Y-100584000D03*
X165293000Y-100584000D03*
D24*
X132473000Y-111760000D03*
X133973000Y-111760000D03*
D17*
X165684200Y-106331600D03*
X165684200Y-107231600D03*
X166776400Y-109822400D03*
X166776400Y-108922400D03*
X162941000Y-113276800D03*
X162941000Y-112376800D03*
D25*
X130614000Y-99822000D03*
X131514000Y-99822000D03*
X170579200Y-111988600D03*
X169679200Y-111988600D03*
D26*
X167513000Y-118987000D03*
X167513000Y-117487000D03*
X169037000Y-117487000D03*
X169037000Y-118987000D03*
D27*
X171074080Y-93411040D03*
X171074080Y-98411040D03*
D18*
X165354000Y-104182000D03*
X165354000Y-103082000D03*
D17*
X157226000Y-105860000D03*
X157226000Y-104960000D03*
X158877000Y-107754000D03*
X158877000Y-108654000D03*
D28*
X159065000Y-103462000D03*
X158115000Y-103462000D03*
X157165000Y-103462000D03*
X157165000Y-101262000D03*
X159065000Y-101262000D03*
X167706000Y-113581000D03*
X168656000Y-113581000D03*
X169606000Y-113581000D03*
X169606000Y-115781000D03*
X167706000Y-115781000D03*
D29*
X125984000Y-109164000D03*
D30*
X128684000Y-108164000D03*
X128684000Y-103164000D03*
D29*
X125984000Y-102164000D03*
X172874940Y-100157400D03*
D30*
X170174940Y-101157400D03*
X170174940Y-106157400D03*
D29*
X172874940Y-107157400D03*
D31*
X127431800Y-133360400D03*
X128431800Y-133360400D03*
X129431800Y-133360400D03*
X130431800Y-133360400D03*
X131431800Y-133360400D03*
X132431800Y-133360400D03*
X133431800Y-133360400D03*
X134431800Y-133360400D03*
X135431800Y-133360400D03*
X136431800Y-133360400D03*
X137431800Y-133360400D03*
X140431800Y-133360400D03*
X141431800Y-133360400D03*
X142431800Y-133360400D03*
X143431800Y-133360400D03*
X144431800Y-133360400D03*
X145431800Y-133360400D03*
X146431800Y-133360400D03*
X147431800Y-133360400D03*
X148431800Y-133360400D03*
X149431800Y-133360400D03*
X150431800Y-133360400D03*
X151431800Y-133360400D03*
X152431800Y-133360400D03*
X153431800Y-133360400D03*
X154431800Y-133360400D03*
X155431800Y-133360400D03*
X156431800Y-133360400D03*
X157431800Y-133360400D03*
X158431800Y-133360400D03*
X159431800Y-133360400D03*
X160431800Y-133360400D03*
D32*
G36*
X161546000Y-136908000D02*
X126617000Y-136908000D01*
X126617000Y-131443000D01*
X161546000Y-131443000D01*
X161546000Y-136908000D01*
X161546000Y-136908000D01*
G37*
X161546000Y-136908000D02*
X126617000Y-136908000D01*
X126617000Y-131443000D01*
X161546000Y-131443000D01*
X161546000Y-136908000D01*
M02*
