G04 #@! TF.FileFunction,Paste,Top*
%FSLAX46Y46*%
G04 Gerber Fmt 4.6, Leading zero omitted, Abs format (unit mm)*
G04 Created by KiCad (PCBNEW 4.0.7) date 09/09/17 19:38:47*
%MOMM*%
%LPD*%
G01*
G04 APERTURE LIST*
%ADD10C,0.100000*%
%ADD11R,1.400000X1.000000*%
%ADD12R,0.400000X0.600000*%
%ADD13R,1.000000X0.500000*%
%ADD14R,2.390000X1.050000*%
%ADD15R,1.200000X1.050000*%
%ADD16R,1.080000X1.050000*%
%ADD17R,0.780000X0.720000*%
%ADD18R,0.550000X2.910000*%
%ADD19R,0.600000X0.400000*%
%ADD20R,0.600000X0.500000*%
%ADD21R,0.800000X0.750000*%
%ADD22R,0.500000X0.600000*%
%ADD23R,0.500000X0.900000*%
%ADD24R,1.300000X0.700000*%
%ADD25R,1.200000X1.200000*%
%ADD26O,1.500000X0.250000*%
%ADD27O,0.250000X1.500000*%
%ADD28R,1.400000X1.150000*%
%ADD29R,1.900000X1.500000*%
%ADD30R,1.900000X0.900000*%
%ADD31R,1.350000X0.400000*%
%ADD32R,0.650000X1.060000*%
%ADD33R,1.060000X0.650000*%
G04 APERTURE END LIST*
D10*
X137927358Y-135315553D02*
X137927358Y-135715553D01*
X126777358Y-135715553D02*
X126777358Y-135315553D01*
X127777358Y-136715553D02*
X126777358Y-135715553D01*
X136927358Y-136715553D02*
X127777358Y-136715553D01*
X137927358Y-135715553D02*
X136927358Y-136715553D01*
X161427358Y-135315553D02*
X161427358Y-135715553D01*
X139927358Y-135715553D02*
X139927358Y-135315553D01*
X140927358Y-136715553D02*
X139927358Y-135715553D01*
X160427358Y-136715553D02*
X140927358Y-136715553D01*
X161427358Y-135715553D02*
X160427358Y-136715553D01*
X124427358Y-91915553D02*
X174427358Y-91915553D01*
X174427358Y-128315553D02*
X174427358Y-91915553D01*
X174427358Y-128315553D02*
X162427358Y-128315553D01*
X124427358Y-128315553D02*
X124427358Y-91915553D01*
X125777358Y-128315553D02*
X124427358Y-128315553D01*
X125777358Y-128315553D02*
G75*
G02X126777358Y-129315553I0J-1000000D01*
G01*
X126777358Y-135315553D02*
X126777358Y-129315553D01*
X137927358Y-129315553D02*
X137927358Y-135315553D01*
X137927358Y-129315553D02*
G75*
G02X139927358Y-129315553I1000000J0D01*
G01*
X139927358Y-135315553D02*
X139927358Y-129315553D01*
X161427358Y-129315553D02*
X161427358Y-135315553D01*
X161427358Y-129315553D02*
G75*
G02X162427358Y-128315553I1000000J0D01*
G01*
D11*
X129070000Y-117830000D03*
X129070000Y-115930000D03*
X126870000Y-116880000D03*
D12*
X137991000Y-104521000D03*
X137091000Y-104521000D03*
D13*
X172127800Y-121602800D03*
X172127800Y-120502800D03*
X172127800Y-119402800D03*
X172127800Y-118302800D03*
X172127800Y-117202800D03*
X172127800Y-116102800D03*
X172127800Y-115002800D03*
X172127800Y-113902800D03*
D14*
X168822800Y-122652800D03*
D15*
X165637800Y-122652800D03*
X165067800Y-112327800D03*
D16*
X167677800Y-112327800D03*
D17*
X168947800Y-112542800D03*
D18*
X164392800Y-119747800D03*
X164392800Y-115557800D03*
D19*
X143687800Y-99422800D03*
X143687800Y-100322800D03*
X162280000Y-116230000D03*
X162280000Y-117130000D03*
D20*
X133773000Y-115570000D03*
X132673000Y-115570000D03*
D21*
X147332000Y-105029000D03*
X148832000Y-105029000D03*
D22*
X158877000Y-104055000D03*
X158877000Y-102955000D03*
D20*
X155914000Y-107315000D03*
X157014000Y-107315000D03*
X144949000Y-110871000D03*
X143849000Y-110871000D03*
X161078000Y-102362000D03*
X159978000Y-102362000D03*
D21*
X132854000Y-111760000D03*
X134354000Y-111760000D03*
D20*
X139380000Y-127360000D03*
X138280000Y-127360000D03*
X149140000Y-115062000D03*
X148040000Y-115062000D03*
D22*
X167005000Y-105579000D03*
X167005000Y-104479000D03*
D23*
X168580000Y-98620000D03*
X167080000Y-98620000D03*
D24*
X132842000Y-110170000D03*
X132842000Y-108270000D03*
D12*
X168217000Y-108077000D03*
X167317000Y-108077000D03*
X167698000Y-106934000D03*
X168598000Y-106934000D03*
D19*
X148666200Y-100297400D03*
X148666200Y-99397400D03*
X146253200Y-100272000D03*
X146253200Y-99372000D03*
D12*
X137091000Y-106934000D03*
X137991000Y-106934000D03*
X137991000Y-109474000D03*
X137091000Y-109474000D03*
X137991000Y-108204000D03*
X137091000Y-108204000D03*
X161613000Y-101219000D03*
X160713000Y-101219000D03*
D19*
X153949400Y-99397400D03*
X153949400Y-100297400D03*
X151333200Y-99422800D03*
X151333200Y-100322800D03*
D12*
X130614000Y-99822000D03*
X131514000Y-99822000D03*
X133027000Y-99695000D03*
X133927000Y-99695000D03*
D19*
X139446000Y-99372000D03*
X139446000Y-100272000D03*
X154406600Y-102888200D03*
X154406600Y-101988200D03*
D12*
X148125600Y-123545600D03*
X147225600Y-123545600D03*
D19*
X158877000Y-110421000D03*
X158877000Y-111321000D03*
X160147000Y-111310000D03*
X160147000Y-112210000D03*
D12*
X149410000Y-121666000D03*
X150310000Y-121666000D03*
D19*
X161417000Y-111564000D03*
X161417000Y-112464000D03*
X161890000Y-113790000D03*
X161890000Y-114690000D03*
X158242000Y-108541400D03*
X158242000Y-109441400D03*
D12*
X149410000Y-120142000D03*
X150310000Y-120142000D03*
X140774000Y-127381000D03*
X141674000Y-127381000D03*
X153276720Y-102275640D03*
X152376720Y-102275640D03*
D25*
X161937000Y-107684000D03*
X161937000Y-106184000D03*
X163437000Y-106184000D03*
D26*
X165437000Y-108684000D03*
X165437000Y-108184000D03*
X165437000Y-107684000D03*
X165437000Y-107184000D03*
X165437000Y-106684000D03*
X165437000Y-106184000D03*
X165437000Y-105684000D03*
X165437000Y-105184000D03*
D27*
X164437000Y-104184000D03*
X163937000Y-104184000D03*
X163437000Y-104184000D03*
X162937000Y-104184000D03*
X162437000Y-104184000D03*
X161937000Y-104184000D03*
X161437000Y-104184000D03*
X160937000Y-104184000D03*
D26*
X159937000Y-105184000D03*
X159937000Y-105684000D03*
X159937000Y-106184000D03*
X159937000Y-106684000D03*
X159937000Y-107184000D03*
X159937000Y-107684000D03*
X159937000Y-108184000D03*
X159937000Y-108684000D03*
D27*
X160937000Y-109684000D03*
X161437000Y-109684000D03*
X161937000Y-109684000D03*
X162437000Y-109684000D03*
X162937000Y-109684000D03*
X163437000Y-109684000D03*
X163937000Y-109684000D03*
X164437000Y-109684000D03*
D25*
X163437000Y-107684000D03*
D28*
X154983000Y-105829000D03*
X154983000Y-104229000D03*
X157183000Y-104229000D03*
X157183000Y-105829000D03*
D22*
X168148000Y-105579000D03*
X168148000Y-104479000D03*
D20*
X147616000Y-110769400D03*
X146516000Y-110769400D03*
D19*
X141046200Y-99346600D03*
X141046200Y-100246600D03*
D12*
X129990000Y-125730000D03*
X129090000Y-125730000D03*
D19*
X130810000Y-111956000D03*
X130810000Y-111056000D03*
X129413000Y-111956000D03*
X129413000Y-111056000D03*
D12*
X126611800Y-113106200D03*
X125711800Y-113106200D03*
X166810000Y-110440000D03*
X167710000Y-110440000D03*
X167310000Y-109260000D03*
X168210000Y-109260000D03*
X130625000Y-113157000D03*
X129725000Y-113157000D03*
D10*
G36*
X147114053Y-117840329D02*
X148147278Y-116807104D01*
X148338197Y-116998023D01*
X147304972Y-118031248D01*
X147114053Y-117840329D01*
X147114053Y-117840329D01*
G37*
G36*
X146760500Y-117486777D02*
X147793725Y-116453552D01*
X147984644Y-116644471D01*
X146951419Y-117677696D01*
X146760500Y-117486777D01*
X146760500Y-117486777D01*
G37*
G36*
X146406946Y-117133222D02*
X147440171Y-116099997D01*
X147631090Y-116290916D01*
X146597865Y-117324141D01*
X146406946Y-117133222D01*
X146406946Y-117133222D01*
G37*
G36*
X146053393Y-116779670D02*
X147086618Y-115746445D01*
X147277537Y-115937364D01*
X146244312Y-116970589D01*
X146053393Y-116779670D01*
X146053393Y-116779670D01*
G37*
G36*
X145699838Y-116426115D02*
X146733063Y-115392890D01*
X146923982Y-115583809D01*
X145890757Y-116617034D01*
X145699838Y-116426115D01*
X145699838Y-116426115D01*
G37*
G36*
X145346286Y-116072562D02*
X146379511Y-115039337D01*
X146570430Y-115230256D01*
X145537205Y-116263481D01*
X145346286Y-116072562D01*
X145346286Y-116072562D01*
G37*
G36*
X144992733Y-115719010D02*
X146025958Y-114685785D01*
X146216877Y-114876704D01*
X145183652Y-115909929D01*
X144992733Y-115719010D01*
X144992733Y-115719010D01*
G37*
G36*
X144639179Y-115365455D02*
X145672404Y-114332230D01*
X145863323Y-114523149D01*
X144830098Y-115556374D01*
X144639179Y-115365455D01*
X144639179Y-115365455D01*
G37*
G36*
X144285626Y-115011902D02*
X145318851Y-113978677D01*
X145509770Y-114169596D01*
X144476545Y-115202821D01*
X144285626Y-115011902D01*
X144285626Y-115011902D01*
G37*
G36*
X143932071Y-114658348D02*
X144965296Y-113625123D01*
X145156215Y-113816042D01*
X144122990Y-114849267D01*
X143932071Y-114658348D01*
X143932071Y-114658348D01*
G37*
G36*
X143578519Y-114304795D02*
X144611744Y-113271570D01*
X144802663Y-113462489D01*
X143769438Y-114495714D01*
X143578519Y-114304795D01*
X143578519Y-114304795D01*
G37*
G36*
X143224966Y-113951243D02*
X144258191Y-112918018D01*
X144449110Y-113108937D01*
X143415885Y-114142162D01*
X143224966Y-113951243D01*
X143224966Y-113951243D01*
G37*
G36*
X142871411Y-113597688D02*
X143904636Y-112564463D01*
X144095555Y-112755382D01*
X143062330Y-113788607D01*
X142871411Y-113597688D01*
X142871411Y-113597688D01*
G37*
G36*
X142517859Y-113244135D02*
X143551084Y-112210910D01*
X143742003Y-112401829D01*
X142708778Y-113435054D01*
X142517859Y-113244135D01*
X142517859Y-113244135D01*
G37*
G36*
X142164304Y-112890581D02*
X143197529Y-111857356D01*
X143388448Y-112048275D01*
X142355223Y-113081500D01*
X142164304Y-112890581D01*
X142164304Y-112890581D01*
G37*
G36*
X141810752Y-112537028D02*
X142843977Y-111503803D01*
X143034896Y-111694722D01*
X142001671Y-112727947D01*
X141810752Y-112537028D01*
X141810752Y-112537028D01*
G37*
G36*
X139350023Y-111503803D02*
X140383248Y-112537028D01*
X140192329Y-112727947D01*
X139159104Y-111694722D01*
X139350023Y-111503803D01*
X139350023Y-111503803D01*
G37*
G36*
X138996471Y-111857356D02*
X140029696Y-112890581D01*
X139838777Y-113081500D01*
X138805552Y-112048275D01*
X138996471Y-111857356D01*
X138996471Y-111857356D01*
G37*
G36*
X138642916Y-112210910D02*
X139676141Y-113244135D01*
X139485222Y-113435054D01*
X138451997Y-112401829D01*
X138642916Y-112210910D01*
X138642916Y-112210910D01*
G37*
G36*
X138289364Y-112564463D02*
X139322589Y-113597688D01*
X139131670Y-113788607D01*
X138098445Y-112755382D01*
X138289364Y-112564463D01*
X138289364Y-112564463D01*
G37*
G36*
X137935809Y-112918018D02*
X138969034Y-113951243D01*
X138778115Y-114142162D01*
X137744890Y-113108937D01*
X137935809Y-112918018D01*
X137935809Y-112918018D01*
G37*
G36*
X137582256Y-113271570D02*
X138615481Y-114304795D01*
X138424562Y-114495714D01*
X137391337Y-113462489D01*
X137582256Y-113271570D01*
X137582256Y-113271570D01*
G37*
G36*
X137228704Y-113625123D02*
X138261929Y-114658348D01*
X138071010Y-114849267D01*
X137037785Y-113816042D01*
X137228704Y-113625123D01*
X137228704Y-113625123D01*
G37*
G36*
X136875149Y-113978677D02*
X137908374Y-115011902D01*
X137717455Y-115202821D01*
X136684230Y-114169596D01*
X136875149Y-113978677D01*
X136875149Y-113978677D01*
G37*
G36*
X136521596Y-114332230D02*
X137554821Y-115365455D01*
X137363902Y-115556374D01*
X136330677Y-114523149D01*
X136521596Y-114332230D01*
X136521596Y-114332230D01*
G37*
G36*
X136168042Y-114685785D02*
X137201267Y-115719010D01*
X137010348Y-115909929D01*
X135977123Y-114876704D01*
X136168042Y-114685785D01*
X136168042Y-114685785D01*
G37*
G36*
X135814489Y-115039337D02*
X136847714Y-116072562D01*
X136656795Y-116263481D01*
X135623570Y-115230256D01*
X135814489Y-115039337D01*
X135814489Y-115039337D01*
G37*
G36*
X135460937Y-115392890D02*
X136494162Y-116426115D01*
X136303243Y-116617034D01*
X135270018Y-115583809D01*
X135460937Y-115392890D01*
X135460937Y-115392890D01*
G37*
G36*
X135107382Y-115746445D02*
X136140607Y-116779670D01*
X135949688Y-116970589D01*
X134916463Y-115937364D01*
X135107382Y-115746445D01*
X135107382Y-115746445D01*
G37*
G36*
X134753829Y-116099997D02*
X135787054Y-117133222D01*
X135596135Y-117324141D01*
X134562910Y-116290916D01*
X134753829Y-116099997D01*
X134753829Y-116099997D01*
G37*
G36*
X134400275Y-116453552D02*
X135433500Y-117486777D01*
X135242581Y-117677696D01*
X134209356Y-116644471D01*
X134400275Y-116453552D01*
X134400275Y-116453552D01*
G37*
G36*
X134046722Y-116807104D02*
X135079947Y-117840329D01*
X134889028Y-118031248D01*
X133855803Y-116998023D01*
X134046722Y-116807104D01*
X134046722Y-116807104D01*
G37*
G36*
X133855803Y-120491977D02*
X134889028Y-119458752D01*
X135079947Y-119649671D01*
X134046722Y-120682896D01*
X133855803Y-120491977D01*
X133855803Y-120491977D01*
G37*
G36*
X134209356Y-120845529D02*
X135242581Y-119812304D01*
X135433500Y-120003223D01*
X134400275Y-121036448D01*
X134209356Y-120845529D01*
X134209356Y-120845529D01*
G37*
G36*
X134562910Y-121199084D02*
X135596135Y-120165859D01*
X135787054Y-120356778D01*
X134753829Y-121390003D01*
X134562910Y-121199084D01*
X134562910Y-121199084D01*
G37*
G36*
X134916463Y-121552636D02*
X135949688Y-120519411D01*
X136140607Y-120710330D01*
X135107382Y-121743555D01*
X134916463Y-121552636D01*
X134916463Y-121552636D01*
G37*
G36*
X135270018Y-121906191D02*
X136303243Y-120872966D01*
X136494162Y-121063885D01*
X135460937Y-122097110D01*
X135270018Y-121906191D01*
X135270018Y-121906191D01*
G37*
G36*
X135623570Y-122259744D02*
X136656795Y-121226519D01*
X136847714Y-121417438D01*
X135814489Y-122450663D01*
X135623570Y-122259744D01*
X135623570Y-122259744D01*
G37*
G36*
X135977123Y-122613296D02*
X137010348Y-121580071D01*
X137201267Y-121770990D01*
X136168042Y-122804215D01*
X135977123Y-122613296D01*
X135977123Y-122613296D01*
G37*
G36*
X136330677Y-122966851D02*
X137363902Y-121933626D01*
X137554821Y-122124545D01*
X136521596Y-123157770D01*
X136330677Y-122966851D01*
X136330677Y-122966851D01*
G37*
G36*
X136684230Y-123320404D02*
X137717455Y-122287179D01*
X137908374Y-122478098D01*
X136875149Y-123511323D01*
X136684230Y-123320404D01*
X136684230Y-123320404D01*
G37*
G36*
X137037785Y-123673958D02*
X138071010Y-122640733D01*
X138261929Y-122831652D01*
X137228704Y-123864877D01*
X137037785Y-123673958D01*
X137037785Y-123673958D01*
G37*
G36*
X137391337Y-124027511D02*
X138424562Y-122994286D01*
X138615481Y-123185205D01*
X137582256Y-124218430D01*
X137391337Y-124027511D01*
X137391337Y-124027511D01*
G37*
G36*
X137744890Y-124381063D02*
X138778115Y-123347838D01*
X138969034Y-123538757D01*
X137935809Y-124571982D01*
X137744890Y-124381063D01*
X137744890Y-124381063D01*
G37*
G36*
X138098445Y-124734618D02*
X139131670Y-123701393D01*
X139322589Y-123892312D01*
X138289364Y-124925537D01*
X138098445Y-124734618D01*
X138098445Y-124734618D01*
G37*
G36*
X138451997Y-125088171D02*
X139485222Y-124054946D01*
X139676141Y-124245865D01*
X138642916Y-125279090D01*
X138451997Y-125088171D01*
X138451997Y-125088171D01*
G37*
G36*
X138805552Y-125441725D02*
X139838777Y-124408500D01*
X140029696Y-124599419D01*
X138996471Y-125632644D01*
X138805552Y-125441725D01*
X138805552Y-125441725D01*
G37*
G36*
X139159104Y-125795278D02*
X140192329Y-124762053D01*
X140383248Y-124952972D01*
X139350023Y-125986197D01*
X139159104Y-125795278D01*
X139159104Y-125795278D01*
G37*
G36*
X142001671Y-124762053D02*
X143034896Y-125795278D01*
X142843977Y-125986197D01*
X141810752Y-124952972D01*
X142001671Y-124762053D01*
X142001671Y-124762053D01*
G37*
G36*
X142355223Y-124408500D02*
X143388448Y-125441725D01*
X143197529Y-125632644D01*
X142164304Y-124599419D01*
X142355223Y-124408500D01*
X142355223Y-124408500D01*
G37*
G36*
X142708778Y-124054946D02*
X143742003Y-125088171D01*
X143551084Y-125279090D01*
X142517859Y-124245865D01*
X142708778Y-124054946D01*
X142708778Y-124054946D01*
G37*
G36*
X143062330Y-123701393D02*
X144095555Y-124734618D01*
X143904636Y-124925537D01*
X142871411Y-123892312D01*
X143062330Y-123701393D01*
X143062330Y-123701393D01*
G37*
G36*
X143415885Y-123347838D02*
X144449110Y-124381063D01*
X144258191Y-124571982D01*
X143224966Y-123538757D01*
X143415885Y-123347838D01*
X143415885Y-123347838D01*
G37*
G36*
X143769438Y-122994286D02*
X144802663Y-124027511D01*
X144611744Y-124218430D01*
X143578519Y-123185205D01*
X143769438Y-122994286D01*
X143769438Y-122994286D01*
G37*
G36*
X144122990Y-122640733D02*
X145156215Y-123673958D01*
X144965296Y-123864877D01*
X143932071Y-122831652D01*
X144122990Y-122640733D01*
X144122990Y-122640733D01*
G37*
G36*
X144476545Y-122287179D02*
X145509770Y-123320404D01*
X145318851Y-123511323D01*
X144285626Y-122478098D01*
X144476545Y-122287179D01*
X144476545Y-122287179D01*
G37*
G36*
X144830098Y-121933626D02*
X145863323Y-122966851D01*
X145672404Y-123157770D01*
X144639179Y-122124545D01*
X144830098Y-121933626D01*
X144830098Y-121933626D01*
G37*
G36*
X145183652Y-121580071D02*
X146216877Y-122613296D01*
X146025958Y-122804215D01*
X144992733Y-121770990D01*
X145183652Y-121580071D01*
X145183652Y-121580071D01*
G37*
G36*
X145537205Y-121226519D02*
X146570430Y-122259744D01*
X146379511Y-122450663D01*
X145346286Y-121417438D01*
X145537205Y-121226519D01*
X145537205Y-121226519D01*
G37*
G36*
X145890757Y-120872966D02*
X146923982Y-121906191D01*
X146733063Y-122097110D01*
X145699838Y-121063885D01*
X145890757Y-120872966D01*
X145890757Y-120872966D01*
G37*
G36*
X146244312Y-120519411D02*
X147277537Y-121552636D01*
X147086618Y-121743555D01*
X146053393Y-120710330D01*
X146244312Y-120519411D01*
X146244312Y-120519411D01*
G37*
G36*
X146597865Y-120165859D02*
X147631090Y-121199084D01*
X147440171Y-121390003D01*
X146406946Y-120356778D01*
X146597865Y-120165859D01*
X146597865Y-120165859D01*
G37*
G36*
X146951419Y-119812304D02*
X147984644Y-120845529D01*
X147793725Y-121036448D01*
X146760500Y-120003223D01*
X146951419Y-119812304D01*
X146951419Y-119812304D01*
G37*
G36*
X147304972Y-119458752D02*
X148338197Y-120491977D01*
X148147278Y-120682896D01*
X147114053Y-119649671D01*
X147304972Y-119458752D01*
X147304972Y-119458752D01*
G37*
D12*
X151520000Y-103840000D03*
X152420000Y-103840000D03*
X167720000Y-93660000D03*
X168620000Y-93660000D03*
X168650000Y-97100000D03*
X167750000Y-97100000D03*
X165290000Y-94820000D03*
X166190000Y-94820000D03*
X165290000Y-93460000D03*
X166190000Y-93460000D03*
X168650000Y-95400000D03*
X167750000Y-95400000D03*
X165450000Y-96310000D03*
X166350000Y-96310000D03*
D29*
X125984000Y-106664000D03*
D30*
X125984000Y-108414000D03*
D31*
X128684000Y-104364000D03*
X128684000Y-105014000D03*
X128684000Y-105664000D03*
X128684000Y-106314000D03*
X128684000Y-106964000D03*
D29*
X125984000Y-104664000D03*
D30*
X125984000Y-102914000D03*
D29*
X172874940Y-102657400D03*
D30*
X172874940Y-100907400D03*
D31*
X170174940Y-104957400D03*
X170174940Y-104307400D03*
X170174940Y-103657400D03*
X170174940Y-103007400D03*
X170174940Y-102357400D03*
D29*
X172874940Y-104657400D03*
D30*
X172874940Y-106407400D03*
D32*
X131230000Y-105840000D03*
X132180000Y-105840000D03*
X133130000Y-105840000D03*
X133130000Y-103640000D03*
X131230000Y-103640000D03*
X132180000Y-103640000D03*
D33*
X167720000Y-102330000D03*
X167720000Y-101380000D03*
X167720000Y-100430000D03*
X165520000Y-100430000D03*
X165520000Y-102330000D03*
X165520000Y-101380000D03*
D12*
X127210400Y-125704600D03*
X128110400Y-125704600D03*
D19*
X126873000Y-111956000D03*
X126873000Y-111056000D03*
X128016000Y-111956000D03*
X128016000Y-111056000D03*
X125730000Y-111956000D03*
X125730000Y-111056000D03*
X169940000Y-109330000D03*
X169940000Y-110230000D03*
X171160000Y-109350000D03*
X171160000Y-110250000D03*
X172390000Y-109350000D03*
X172390000Y-110250000D03*
D32*
X127870000Y-122220000D03*
X128820000Y-122220000D03*
X129770000Y-122220000D03*
X129770000Y-120020000D03*
X127870000Y-120020000D03*
X128820000Y-120020000D03*
D19*
X126420000Y-122220000D03*
X126420000Y-123120000D03*
X131060000Y-120060000D03*
X131060000Y-120960000D03*
M02*
