M48
;DRILL file {KiCad 4.0.7} date 09/09/17 19:39:01
;FORMAT={-:-/ absolute / metric / decimal}
FMAT,2
METRIC,TZ
T1C0.200
T2C0.600
T3C0.850
T4C1.000
T5C1.016
%
G90
G05
M71
T1
X125.349Y-127.508
X125.4Y-112.19
X126.87Y-118.29
X126.87Y-119.
X128.168Y-128.499
X128.194Y-129.311
X128.219Y-113.157
X128.219Y-114.3
X128.219Y-129.946
X129.464Y-129.057
X130.3Y-114.89
X130.78Y-115.37
X130.937Y-128.778
X131.039Y-129.311
X131.394Y-113.157
X132.27Y-106.78
X132.27Y-107.51
X132.461Y-126.365
X132.461Y-127.508
X132.461Y-128.397
X133.426Y-130.658
X133.477Y-128.676
X133.502Y-116.307
X133.702Y-115.438
X134.24Y-113.795
X134.493Y-129.591
X134.645Y-128.727
X135.103Y-126.111
X135.53Y-119.05
X135.88Y-118.28
X136.601Y-126.67
X136.692Y-117.014
X137.135Y-129.464
X137.18Y-119.24
X137.236Y-130.226
X137.37Y-116.66
X137.389Y-112.547
X137.88Y-116.06
X138.15Y-125.81
X138.303Y-105.207
X138.36Y-121.28
X138.582Y-108.28
X138.835Y-115.735
X138.938Y-107.62
X139.26Y-114.755
X139.39Y-126.59
X139.776Y-101.321
X139.954Y-103.632
X140.09Y-122.67
X140.64Y-130.302
X140.712Y-118.865
X140.72Y-123.64
X140.99Y-122.6
X141.22Y-113.25
X141.224Y-129.565
X141.4Y-101.2
X141.48Y-114.052
X141.55Y-123.63
X141.884Y-130.658
X142.026Y-112.6
X142.189Y-127.356
X142.72Y-100.86
X142.799Y-128.067
X142.951Y-101.956
X143.383Y-126.416
X143.408Y-122.53
X143.866Y-110.084
X143.97Y-121.15
X144.424Y-126.111
X144.69Y-119.215
X145.212Y-101.295
X145.44Y-130.658
X145.5Y-119.9
X145.694Y-110.82
X145.821Y-112.243
X146.253Y-111.608
X146.304Y-105.029
X146.456Y-110.084
X147.041Y-108.179
X147.066Y-129.87
X147.422Y-130.658
X147.574Y-108.179
X148.057Y-109.398
X148.539Y-108.839
X148.692Y-121.158
X148.971Y-130.378
X149.334Y-113.196
X149.631Y-130.861
X149.733Y-105.283
X150.165Y-124.435
X150.419Y-126.111
X150.68Y-113.42
X150.99Y-117.38
X151.003Y-130.048
X151.384Y-101.092
X151.5Y-102.85
X151.53Y-121.64
X151.689Y-126.34
X152.451Y-126.111
X152.51Y-93.82
X152.59Y-98.21
X153.33Y-107.74
X153.436Y-117.915
X153.52Y-112.16
X153.975Y-101.244
X154.026Y-130.302
X154.813Y-127.356
X155.321Y-102.87
X155.321Y-108.712
X155.499Y-130.302
X155.55Y-123.29
X155.6Y-117.577
X155.804Y-108.737
X156.43Y-117.41
X156.61Y-112.47
X157.455Y-109.499
X158.Y-122.2
X158.08Y-120.26
X158.22Y-115.325
X158.242Y-105.308
X158.628Y-116.291
X158.852Y-106.248
X158.902Y-113.03
X159.08Y-93.84
X159.1Y-122.33
X159.63Y-122.93
X160.02Y-104.013
X160.045Y-101.219
X160.066Y-114.252
X160.249Y-130.277
X160.807Y-103.149
X161.072Y-114.62
X161.38Y-99.55
X161.937Y-106.184
X161.937Y-107.684
X163.437Y-106.184
X163.437Y-107.684
X163.551Y-115.24
X163.551Y-115.824
X163.754Y-113.538
X163.932Y-112.293
X164.059Y-122.631
X164.52Y-101.37
X164.52Y-101.94
X165.04Y-96.83
X165.913Y-109.677
X166.345Y-104.724
X166.497Y-106.223
X166.548Y-108.204
X166.99Y-93.73
X167.462Y-105.613
X168.68Y-94.47
X168.74Y-96.15
X168.834Y-103.226
X168.85Y-111.49
X168.885Y-101.371
X168.885Y-101.778
X169.189Y-105.359
X169.24Y-104.978
X169.977Y-107.671
X170.88Y-117.18
X171.1Y-118.32
X171.145Y-111.531
X171.221Y-115.037
X171.247Y-116.078
X171.247Y-119.355
X171.272Y-120.447
X172.085Y-112.293
X172.212Y-110.693
X173.355Y-127.254
T3
X128.684Y-103.164
X128.684Y-108.164
X170.175Y-101.157
X170.175Y-106.157
T4
X171.074Y-93.411
X171.074Y-98.411
T5
X125.948Y-94.823
X125.948Y-97.363
X128.488Y-94.823
X128.488Y-97.363
X131.028Y-94.823
X131.028Y-97.363
X133.568Y-94.823
X133.568Y-97.363
X135.331Y-101.854
X135.331Y-104.394
X135.331Y-106.934
X135.331Y-109.474
X136.108Y-94.823
X136.108Y-97.363
X138.648Y-94.823
X138.648Y-97.363
X141.188Y-94.823
X141.188Y-97.363
X143.728Y-94.823
X143.728Y-97.363
X146.268Y-94.823
X146.268Y-97.363
X148.808Y-94.823
X148.808Y-97.363
X151.348Y-94.823
X151.348Y-97.363
X153.888Y-94.823
X153.888Y-97.363
X156.428Y-94.823
X156.428Y-97.363
T2
X126.334Y-102.164G85X125.634Y-102.164
G05
X126.334Y-109.164G85X125.634Y-109.164
G05
X172.525Y-100.157G85X173.225Y-100.157
G05
X172.525Y-107.157G85X173.225Y-107.157
G05
T0
M30
