G04 #@! TF.FileFunction,Copper,L2,Inr,Signal*
%FSLAX46Y46*%
G04 Gerber Fmt 4.6, Leading zero omitted, Abs format (unit mm)*
G04 Created by KiCad (PCBNEW 4.0.7) date 09/09/17 19:38:47*
%MOMM*%
%LPD*%
G01*
G04 APERTURE LIST*
%ADD10C,0.100000*%
%ADD11R,2.032000X1.727200*%
%ADD12O,2.032000X1.727200*%
%ADD13R,1.727200X1.727200*%
%ADD14O,1.727200X1.727200*%
%ADD15C,3.500000*%
%ADD16C,2.000000*%
%ADD17O,1.900000X1.000000*%
%ADD18C,1.450000*%
%ADD19C,0.400000*%
%ADD20C,0.250000*%
G04 APERTURE END LIST*
D10*
X137927358Y-135315553D02*
X137927358Y-135715553D01*
X126777358Y-135715553D02*
X126777358Y-135315553D01*
X127777358Y-136715553D02*
X126777358Y-135715553D01*
X136927358Y-136715553D02*
X127777358Y-136715553D01*
X137927358Y-135715553D02*
X136927358Y-136715553D01*
X161427358Y-135315553D02*
X161427358Y-135715553D01*
X139927358Y-135715553D02*
X139927358Y-135315553D01*
X140927358Y-136715553D02*
X139927358Y-135715553D01*
X160427358Y-136715553D02*
X140927358Y-136715553D01*
X161427358Y-135715553D02*
X160427358Y-136715553D01*
X124427358Y-91915553D02*
X174427358Y-91915553D01*
X174427358Y-128315553D02*
X174427358Y-91915553D01*
X174427358Y-128315553D02*
X162427358Y-128315553D01*
X124427358Y-128315553D02*
X124427358Y-91915553D01*
X125777358Y-128315553D02*
X124427358Y-128315553D01*
X125777358Y-128315553D02*
G75*
G02X126777358Y-129315553I0J-1000000D01*
G01*
X126777358Y-135315553D02*
X126777358Y-129315553D01*
X137927358Y-129315553D02*
X137927358Y-135315553D01*
X137927358Y-129315553D02*
G75*
G02X139927358Y-129315553I1000000J0D01*
G01*
X139927358Y-135315553D02*
X139927358Y-129315553D01*
X161427358Y-129315553D02*
X161427358Y-135315553D01*
X161427358Y-129315553D02*
G75*
G02X162427358Y-128315553I1000000J0D01*
G01*
D11*
X135331200Y-101854000D03*
D12*
X135331200Y-104394000D03*
X135331200Y-106934000D03*
X135331200Y-109474000D03*
D13*
X156428440Y-97363280D03*
D14*
X156428440Y-94823280D03*
X153888440Y-97363280D03*
X153888440Y-94823280D03*
X151348440Y-97363280D03*
X151348440Y-94823280D03*
X148808440Y-97363280D03*
X148808440Y-94823280D03*
X146268440Y-97363280D03*
X146268440Y-94823280D03*
X143728440Y-97363280D03*
X143728440Y-94823280D03*
X141188440Y-97363280D03*
X141188440Y-94823280D03*
X138648440Y-97363280D03*
X138648440Y-94823280D03*
X136108440Y-97363280D03*
X136108440Y-94823280D03*
X133568440Y-97363280D03*
X133568440Y-94823280D03*
X131028440Y-97363280D03*
X131028440Y-94823280D03*
X128488440Y-97363280D03*
X128488440Y-94823280D03*
X125948440Y-97363280D03*
X125948440Y-94823280D03*
D15*
X160998440Y-96293280D03*
D16*
X171074080Y-93411040D03*
X171074080Y-98411040D03*
D17*
X125984000Y-109164000D03*
D18*
X128684000Y-108164000D03*
X128684000Y-103164000D03*
D17*
X125984000Y-102164000D03*
X172874940Y-100157400D03*
D18*
X170174940Y-101157400D03*
X170174940Y-106157400D03*
D17*
X172874940Y-107157400D03*
D19*
X126870000Y-118290000D03*
X126870000Y-119000000D03*
X128219200Y-129946400D03*
X128193800Y-129311400D03*
X128168400Y-128498600D03*
X139260000Y-114754990D03*
X161072233Y-114619534D03*
X141400000Y-101200000D03*
X143408400Y-122529600D03*
X128219200Y-113157000D03*
X128219200Y-114300000D03*
X138938000Y-107619800D03*
X138303000Y-105206800D03*
X138360000Y-121280000D03*
X138582400Y-108280200D03*
X158220000Y-115325001D03*
X158902400Y-113030000D03*
X166497000Y-106222800D03*
X143970000Y-121150000D03*
X142951200Y-101955600D03*
X169976800Y-107670600D03*
X168833800Y-103225600D03*
X155600400Y-117576600D03*
X147574000Y-108178600D03*
X147040600Y-108178600D03*
X155803600Y-108737400D03*
X155321000Y-108712000D03*
X140712148Y-118865010D03*
X149334489Y-113196225D03*
X142025914Y-112599639D03*
X161380000Y-99550000D03*
X168850000Y-111490000D03*
X149631400Y-130860800D03*
X125400000Y-112190000D03*
X138150000Y-125810000D03*
X125349000Y-127508000D03*
X173355000Y-127254000D03*
X131038600Y-129311400D03*
X130937000Y-128778000D03*
X149733000Y-105283000D03*
X146456400Y-110083600D03*
X129463800Y-129057400D03*
X143865600Y-110083600D03*
X160248600Y-130276600D03*
X155498800Y-130302000D03*
X154025600Y-130302000D03*
X141884400Y-130657600D03*
X147421600Y-130657600D03*
X145440400Y-130657600D03*
X133502400Y-116306600D03*
X133426200Y-130657600D03*
X137236200Y-130225800D03*
X160020000Y-104013000D03*
X158242000Y-105308400D03*
X163753800Y-113538000D03*
X164058600Y-122631200D03*
X163931600Y-112293400D03*
X160807400Y-103149400D03*
X166547800Y-108204000D03*
X163437000Y-107684000D03*
X161937000Y-107684000D03*
X163437000Y-106184000D03*
X161937000Y-106184000D03*
X166344600Y-104724200D03*
X171246800Y-119354600D03*
X132270000Y-106780000D03*
X168884600Y-101777800D03*
X168884600Y-101371400D03*
X152450800Y-126111000D03*
X153974800Y-101244400D03*
X151384000Y-101092000D03*
X151688800Y-126339600D03*
X141220000Y-113250000D03*
X153520000Y-112160000D03*
X153330000Y-107740000D03*
X138834833Y-115735167D03*
X139954000Y-103632000D03*
X152510000Y-93820000D03*
X152590000Y-98210000D03*
X135102600Y-126111000D03*
X141550000Y-123630002D03*
X141224000Y-129565400D03*
X140720000Y-123640000D03*
X140639800Y-130302000D03*
X136601200Y-126669800D03*
X140990000Y-122600000D03*
X142798800Y-128066800D03*
X143383000Y-126415800D03*
X144424400Y-126111000D03*
X145821400Y-112242600D03*
X146253200Y-111607600D03*
X147066000Y-129870200D03*
X148056600Y-109397800D03*
X148539200Y-108839000D03*
X148971000Y-130378200D03*
X150418800Y-126111000D03*
X150990000Y-117380000D03*
X136691997Y-117013501D03*
X151003000Y-130048000D03*
X153436417Y-117914990D03*
X135880000Y-118280000D03*
X154813000Y-127355600D03*
X142189200Y-127355600D03*
X137370000Y-116660000D03*
X156430000Y-117410000D03*
X171145200Y-111531400D03*
X159100000Y-122330000D03*
X151530000Y-121640000D03*
X158000000Y-122200000D03*
X158080000Y-120260000D03*
X159630000Y-122930000D03*
X148691600Y-121158000D03*
X158627634Y-116291074D03*
X137880000Y-116060000D03*
X156610000Y-112470000D03*
X166990000Y-93730000D03*
X165912800Y-109677200D03*
X158851600Y-106248200D03*
X141480000Y-114051785D03*
X160066450Y-114251784D03*
X134240000Y-113795010D03*
X142720000Y-100860000D03*
X150164800Y-124434600D03*
X144690000Y-119215021D03*
X139776200Y-101320600D03*
X171246800Y-116078000D03*
X145500000Y-119900000D03*
X145211800Y-101295200D03*
X171272200Y-120446800D03*
X135530000Y-119050000D03*
X172085000Y-112293400D03*
X140090000Y-122670000D03*
X171221400Y-115036600D03*
X150680000Y-113420000D03*
X137180000Y-119240000D03*
X133702104Y-115437894D03*
X172212000Y-110693200D03*
X170880000Y-117180000D03*
X139390000Y-126590000D03*
X132461000Y-127508000D03*
X132461000Y-128397000D03*
X155321000Y-102870000D03*
X132461000Y-126365000D03*
X146304000Y-105029000D03*
X131394200Y-113157000D03*
X163550600Y-115239800D03*
X163550600Y-115824000D03*
X145694400Y-110820200D03*
X137388600Y-112547400D03*
X160045400Y-101219000D03*
X167462200Y-105613200D03*
X168680000Y-94470000D03*
X157454600Y-109499400D03*
X133477000Y-128676400D03*
X137134600Y-129463800D03*
X134493000Y-129590800D03*
X134645400Y-128727200D03*
X155550000Y-123290000D03*
X171100000Y-118320000D03*
X151500000Y-102850000D03*
X168740000Y-96150000D03*
X165040000Y-96830000D03*
X159080000Y-93840000D03*
X132270000Y-107510000D03*
X164520000Y-101940000D03*
X164520000Y-101370000D03*
X169189400Y-105359200D03*
X169240200Y-104978200D03*
X130780000Y-115370000D03*
X130300000Y-114890000D03*
D20*
G36*
X169909091Y-92631148D02*
X169699319Y-93136336D01*
X169698842Y-93683345D01*
X169907732Y-94188897D01*
X170294188Y-94576029D01*
X170799376Y-94785801D01*
X171346385Y-94786278D01*
X171851937Y-94577388D01*
X172239069Y-94190932D01*
X172448841Y-93685744D01*
X172449318Y-93138735D01*
X172240428Y-92633183D01*
X171948309Y-92340553D01*
X174002358Y-92340553D01*
X174002358Y-99587684D01*
X173969616Y-99538682D01*
X173685746Y-99349005D01*
X173350898Y-99282400D01*
X172398982Y-99282400D01*
X172064134Y-99349005D01*
X171831140Y-99504688D01*
X171917298Y-99360324D01*
X171074080Y-98517106D01*
X170230862Y-99360324D01*
X170341907Y-99546387D01*
X170832119Y-99740154D01*
X171359167Y-99731576D01*
X171763200Y-99564220D01*
X171590587Y-99822552D01*
X171523982Y-100157400D01*
X171590587Y-100492248D01*
X171780264Y-100776118D01*
X172064134Y-100965795D01*
X172398982Y-101032400D01*
X173350898Y-101032400D01*
X173685746Y-100965795D01*
X173969616Y-100776118D01*
X174002358Y-100727116D01*
X174002358Y-106587684D01*
X173969616Y-106538682D01*
X173685746Y-106349005D01*
X173350898Y-106282400D01*
X172398982Y-106282400D01*
X172064134Y-106349005D01*
X171780264Y-106538682D01*
X171590587Y-106822552D01*
X171523982Y-107157400D01*
X171590587Y-107492248D01*
X171780264Y-107776118D01*
X172064134Y-107965795D01*
X172398982Y-108032400D01*
X173350898Y-108032400D01*
X173685746Y-107965795D01*
X173969616Y-107776118D01*
X174002358Y-107727116D01*
X174002358Y-127890553D01*
X162427358Y-127890553D01*
X162386305Y-127898719D01*
X162344445Y-127898719D01*
X161961762Y-127974839D01*
X161916889Y-127993426D01*
X161808558Y-128038298D01*
X161808555Y-128038301D01*
X161484134Y-128255071D01*
X161366876Y-128372329D01*
X161150103Y-128696753D01*
X161089908Y-128842076D01*
X161086644Y-128849957D01*
X161010524Y-129232640D01*
X161010524Y-129274500D01*
X161002358Y-129315553D01*
X161002358Y-135539512D01*
X160251318Y-136290553D01*
X141103399Y-136290553D01*
X140352358Y-135539513D01*
X140352358Y-130805245D01*
X140524924Y-130876900D01*
X140753673Y-130877100D01*
X140965086Y-130789746D01*
X141126977Y-130628137D01*
X141183475Y-130492073D01*
X148395900Y-130492073D01*
X148483254Y-130703486D01*
X148644863Y-130865377D01*
X148856124Y-130953100D01*
X149084873Y-130953300D01*
X149296286Y-130865946D01*
X149458177Y-130704337D01*
X149545900Y-130493076D01*
X149546100Y-130264327D01*
X149503767Y-130161873D01*
X150427900Y-130161873D01*
X150515254Y-130373286D01*
X150676863Y-130535177D01*
X150888124Y-130622900D01*
X151116873Y-130623100D01*
X151328286Y-130535746D01*
X151490177Y-130374137D01*
X151577900Y-130162876D01*
X151578100Y-129934127D01*
X151490746Y-129722714D01*
X151329137Y-129560823D01*
X151117876Y-129473100D01*
X150889127Y-129472900D01*
X150677714Y-129560254D01*
X150515823Y-129721863D01*
X150428100Y-129933124D01*
X150427900Y-130161873D01*
X149503767Y-130161873D01*
X149458746Y-130052914D01*
X149297137Y-129891023D01*
X149085876Y-129803300D01*
X148857127Y-129803100D01*
X148645714Y-129890454D01*
X148483823Y-130052063D01*
X148396100Y-130263324D01*
X148395900Y-130492073D01*
X141183475Y-130492073D01*
X141214700Y-130416876D01*
X141214900Y-130188127D01*
X141195169Y-130140375D01*
X141337873Y-130140500D01*
X141549286Y-130053146D01*
X141618479Y-129984073D01*
X146490900Y-129984073D01*
X146578254Y-130195486D01*
X146739863Y-130357377D01*
X146951124Y-130445100D01*
X147179873Y-130445300D01*
X147391286Y-130357946D01*
X147553177Y-130196337D01*
X147640900Y-129985076D01*
X147641100Y-129756327D01*
X147553746Y-129544914D01*
X147392137Y-129383023D01*
X147180876Y-129295300D01*
X146952127Y-129295100D01*
X146740714Y-129382454D01*
X146578823Y-129544063D01*
X146491100Y-129755324D01*
X146490900Y-129984073D01*
X141618479Y-129984073D01*
X141711177Y-129891537D01*
X141798900Y-129680276D01*
X141799100Y-129451527D01*
X141711746Y-129240114D01*
X141550137Y-129078223D01*
X141338876Y-128990500D01*
X141110127Y-128990300D01*
X140898714Y-129077654D01*
X140736823Y-129239263D01*
X140649100Y-129450524D01*
X140648900Y-129679273D01*
X140668631Y-129727025D01*
X140525927Y-129726900D01*
X140352358Y-129798617D01*
X140352358Y-129315553D01*
X140344192Y-129274500D01*
X140344192Y-129232640D01*
X140268072Y-128849957D01*
X140204613Y-128696753D01*
X140204610Y-128696750D01*
X139987840Y-128372329D01*
X139870582Y-128255071D01*
X139546158Y-128038298D01*
X139392955Y-127974839D01*
X139392954Y-127974839D01*
X139010271Y-127898719D01*
X138844445Y-127898719D01*
X138461762Y-127974839D01*
X138416889Y-127993426D01*
X138308558Y-128038298D01*
X138308555Y-128038301D01*
X137984134Y-128255071D01*
X137866876Y-128372329D01*
X137650103Y-128696753D01*
X137589908Y-128842076D01*
X137586644Y-128849957D01*
X137544715Y-129060748D01*
X137460737Y-128976623D01*
X137249476Y-128888900D01*
X137020727Y-128888700D01*
X136809314Y-128976054D01*
X136647423Y-129137663D01*
X136559700Y-129348924D01*
X136559500Y-129577673D01*
X136646854Y-129789086D01*
X136808463Y-129950977D01*
X137019724Y-130038700D01*
X137248473Y-130038900D01*
X137459886Y-129951546D01*
X137502358Y-129909148D01*
X137502358Y-135539512D01*
X136751318Y-136290553D01*
X127953399Y-136290553D01*
X127202358Y-135539513D01*
X127202358Y-129315553D01*
X127194192Y-129274500D01*
X127194192Y-129232640D01*
X127118072Y-128849957D01*
X127054613Y-128696753D01*
X127054610Y-128696750D01*
X127011531Y-128632277D01*
X127493283Y-128632277D01*
X127595829Y-128880457D01*
X127632884Y-128917576D01*
X127621897Y-128928544D01*
X127518917Y-129176545D01*
X127518683Y-129445077D01*
X127607366Y-129659707D01*
X127544317Y-129811545D01*
X127544083Y-130080077D01*
X127646629Y-130328257D01*
X127836344Y-130518303D01*
X128084345Y-130621283D01*
X128352877Y-130621517D01*
X128601057Y-130518971D01*
X128791103Y-130329256D01*
X128894083Y-130081255D01*
X128894317Y-129812723D01*
X128849672Y-129704673D01*
X133917900Y-129704673D01*
X134005254Y-129916086D01*
X134166863Y-130077977D01*
X134378124Y-130165700D01*
X134606873Y-130165900D01*
X134818286Y-130078546D01*
X134980177Y-129916937D01*
X135067900Y-129705676D01*
X135068100Y-129476927D01*
X134980746Y-129265514D01*
X134942070Y-129226770D01*
X134970686Y-129214946D01*
X135132577Y-129053337D01*
X135220300Y-128842076D01*
X135220500Y-128613327D01*
X135133146Y-128401914D01*
X134971537Y-128240023D01*
X134760276Y-128152300D01*
X134531527Y-128152100D01*
X134320114Y-128239454D01*
X134158223Y-128401063D01*
X134070500Y-128612324D01*
X134070300Y-128841073D01*
X134157654Y-129052486D01*
X134196330Y-129091230D01*
X134167714Y-129103054D01*
X134005823Y-129264663D01*
X133918100Y-129475924D01*
X133917900Y-129704673D01*
X128849672Y-129704673D01*
X128805634Y-129598093D01*
X128868683Y-129446255D01*
X128868917Y-129177723D01*
X128766371Y-128929543D01*
X128729316Y-128892424D01*
X128740303Y-128881456D01*
X128843283Y-128633455D01*
X128843517Y-128364923D01*
X128740971Y-128116743D01*
X128551256Y-127926697D01*
X128303255Y-127823717D01*
X128034723Y-127823483D01*
X127786543Y-127926029D01*
X127596497Y-128115744D01*
X127493517Y-128363745D01*
X127493283Y-128632277D01*
X127011531Y-128632277D01*
X126837840Y-128372329D01*
X126720582Y-128255071D01*
X126396158Y-128038298D01*
X126242955Y-127974839D01*
X126242954Y-127974839D01*
X125860271Y-127898719D01*
X125818411Y-127898719D01*
X125777358Y-127890553D01*
X124852358Y-127890553D01*
X124852358Y-126478873D01*
X131885900Y-126478873D01*
X131973254Y-126690286D01*
X132134863Y-126852177D01*
X132338175Y-126936599D01*
X132135714Y-127020254D01*
X131973823Y-127181863D01*
X131886100Y-127393124D01*
X131885900Y-127621873D01*
X131973254Y-127833286D01*
X132092326Y-127952566D01*
X131973823Y-128070863D01*
X131886100Y-128282124D01*
X131885900Y-128510873D01*
X131973254Y-128722286D01*
X132134863Y-128884177D01*
X132346124Y-128971900D01*
X132574873Y-128972100D01*
X132786286Y-128884746D01*
X132901918Y-128769315D01*
X132901900Y-128790273D01*
X132989254Y-129001686D01*
X133150863Y-129163577D01*
X133362124Y-129251300D01*
X133590873Y-129251500D01*
X133802286Y-129164146D01*
X133964177Y-129002537D01*
X134051900Y-128791276D01*
X134052100Y-128562527D01*
X133964746Y-128351114D01*
X133803137Y-128189223D01*
X133591876Y-128101500D01*
X133363127Y-128101300D01*
X133151714Y-128188654D01*
X133036082Y-128304085D01*
X133036100Y-128283127D01*
X132948746Y-128071714D01*
X132829674Y-127952434D01*
X132948177Y-127834137D01*
X133035900Y-127622876D01*
X133036034Y-127469473D01*
X141614100Y-127469473D01*
X141701454Y-127680886D01*
X141863063Y-127842777D01*
X142074324Y-127930500D01*
X142232738Y-127930639D01*
X142223900Y-127951924D01*
X142223700Y-128180673D01*
X142311054Y-128392086D01*
X142472663Y-128553977D01*
X142683924Y-128641700D01*
X142912673Y-128641900D01*
X143124086Y-128554546D01*
X143285977Y-128392937D01*
X143373700Y-128181676D01*
X143373900Y-127952927D01*
X143286546Y-127741514D01*
X143124937Y-127579623D01*
X142913676Y-127491900D01*
X142755262Y-127491761D01*
X142764100Y-127470476D01*
X142764100Y-127469473D01*
X154237900Y-127469473D01*
X154325254Y-127680886D01*
X154486863Y-127842777D01*
X154698124Y-127930500D01*
X154926873Y-127930700D01*
X155138286Y-127843346D01*
X155300177Y-127681737D01*
X155387900Y-127470476D01*
X155388100Y-127241727D01*
X155300746Y-127030314D01*
X155139137Y-126868423D01*
X154927876Y-126780700D01*
X154699127Y-126780500D01*
X154487714Y-126867854D01*
X154325823Y-127029463D01*
X154238100Y-127240724D01*
X154237900Y-127469473D01*
X142764100Y-127469473D01*
X142764300Y-127241727D01*
X142676946Y-127030314D01*
X142515337Y-126868423D01*
X142304076Y-126780700D01*
X142075327Y-126780500D01*
X141863914Y-126867854D01*
X141702023Y-127029463D01*
X141614300Y-127240724D01*
X141614100Y-127469473D01*
X133036034Y-127469473D01*
X133036100Y-127394127D01*
X132948746Y-127182714D01*
X132787137Y-127020823D01*
X132583825Y-126936401D01*
X132786286Y-126852746D01*
X132855479Y-126783673D01*
X136026100Y-126783673D01*
X136113454Y-126995086D01*
X136275063Y-127156977D01*
X136486324Y-127244700D01*
X136715073Y-127244900D01*
X136926486Y-127157546D01*
X137088377Y-126995937D01*
X137176100Y-126784676D01*
X137176170Y-126703873D01*
X138814900Y-126703873D01*
X138902254Y-126915286D01*
X139063863Y-127077177D01*
X139275124Y-127164900D01*
X139503873Y-127165100D01*
X139715286Y-127077746D01*
X139877177Y-126916137D01*
X139964900Y-126704876D01*
X139965053Y-126529673D01*
X142807900Y-126529673D01*
X142895254Y-126741086D01*
X143056863Y-126902977D01*
X143268124Y-126990700D01*
X143496873Y-126990900D01*
X143708286Y-126903546D01*
X143870177Y-126741937D01*
X143957900Y-126530676D01*
X143957964Y-126457633D01*
X144098263Y-126598177D01*
X144309524Y-126685900D01*
X144538273Y-126686100D01*
X144749686Y-126598746D01*
X144911577Y-126437137D01*
X144999300Y-126225876D01*
X144999300Y-126224873D01*
X149843700Y-126224873D01*
X149931054Y-126436286D01*
X150092663Y-126598177D01*
X150303924Y-126685900D01*
X150532673Y-126686100D01*
X150744086Y-126598746D01*
X150889612Y-126453473D01*
X151113700Y-126453473D01*
X151201054Y-126664886D01*
X151362663Y-126826777D01*
X151573924Y-126914500D01*
X151802673Y-126914700D01*
X152014086Y-126827346D01*
X152175977Y-126665737D01*
X152192358Y-126626286D01*
X152335924Y-126685900D01*
X152564673Y-126686100D01*
X152776086Y-126598746D01*
X152937977Y-126437137D01*
X153025700Y-126225876D01*
X153025900Y-125997127D01*
X152938546Y-125785714D01*
X152776937Y-125623823D01*
X152565676Y-125536100D01*
X152336927Y-125535900D01*
X152125514Y-125623254D01*
X151963623Y-125784863D01*
X151947242Y-125824314D01*
X151803676Y-125764700D01*
X151574927Y-125764500D01*
X151363514Y-125851854D01*
X151201623Y-126013463D01*
X151113900Y-126224724D01*
X151113700Y-126453473D01*
X150889612Y-126453473D01*
X150905977Y-126437137D01*
X150993700Y-126225876D01*
X150993900Y-125997127D01*
X150906546Y-125785714D01*
X150744937Y-125623823D01*
X150533676Y-125536100D01*
X150304927Y-125535900D01*
X150093514Y-125623254D01*
X149931623Y-125784863D01*
X149843900Y-125996124D01*
X149843700Y-126224873D01*
X144999300Y-126224873D01*
X144999500Y-125997127D01*
X144912146Y-125785714D01*
X144750537Y-125623823D01*
X144539276Y-125536100D01*
X144310527Y-125535900D01*
X144099114Y-125623254D01*
X143937223Y-125784863D01*
X143849500Y-125996124D01*
X143849436Y-126069167D01*
X143709137Y-125928623D01*
X143497876Y-125840900D01*
X143269127Y-125840700D01*
X143057714Y-125928054D01*
X142895823Y-126089663D01*
X142808100Y-126300924D01*
X142807900Y-126529673D01*
X139965053Y-126529673D01*
X139965100Y-126476127D01*
X139877746Y-126264714D01*
X139716137Y-126102823D01*
X139504876Y-126015100D01*
X139276127Y-126014900D01*
X139064714Y-126102254D01*
X138902823Y-126263863D01*
X138815100Y-126475124D01*
X138814900Y-126703873D01*
X137176170Y-126703873D01*
X137176300Y-126555927D01*
X137088946Y-126344514D01*
X136927337Y-126182623D01*
X136716076Y-126094900D01*
X136487327Y-126094700D01*
X136275914Y-126182054D01*
X136114023Y-126343663D01*
X136026300Y-126554924D01*
X136026100Y-126783673D01*
X132855479Y-126783673D01*
X132948177Y-126691137D01*
X133035900Y-126479876D01*
X133036100Y-126251127D01*
X133025253Y-126224873D01*
X134527500Y-126224873D01*
X134614854Y-126436286D01*
X134776463Y-126598177D01*
X134987724Y-126685900D01*
X135216473Y-126686100D01*
X135427886Y-126598746D01*
X135589777Y-126437137D01*
X135677500Y-126225876D01*
X135677700Y-125997127D01*
X135590346Y-125785714D01*
X135428737Y-125623823D01*
X135217476Y-125536100D01*
X134988727Y-125535900D01*
X134777314Y-125623254D01*
X134615423Y-125784863D01*
X134527700Y-125996124D01*
X134527500Y-126224873D01*
X133025253Y-126224873D01*
X132948746Y-126039714D01*
X132787137Y-125877823D01*
X132575876Y-125790100D01*
X132347127Y-125789900D01*
X132135714Y-125877254D01*
X131973823Y-126038863D01*
X131886100Y-126250124D01*
X131885900Y-126478873D01*
X124852358Y-126478873D01*
X124852358Y-124548473D01*
X149589700Y-124548473D01*
X149677054Y-124759886D01*
X149838663Y-124921777D01*
X150049924Y-125009500D01*
X150278673Y-125009700D01*
X150490086Y-124922346D01*
X150651977Y-124760737D01*
X150739700Y-124549476D01*
X150739900Y-124320727D01*
X150652546Y-124109314D01*
X150490937Y-123947423D01*
X150279676Y-123859700D01*
X150050927Y-123859500D01*
X149839514Y-123946854D01*
X149677623Y-124108463D01*
X149589900Y-124319724D01*
X149589700Y-124548473D01*
X124852358Y-124548473D01*
X124852358Y-122783873D01*
X139514900Y-122783873D01*
X139602254Y-122995286D01*
X139763863Y-123157177D01*
X139975124Y-123244900D01*
X140203873Y-123245100D01*
X140370798Y-123176128D01*
X140232823Y-123313863D01*
X140145100Y-123525124D01*
X140144900Y-123753873D01*
X140232254Y-123965286D01*
X140393863Y-124127177D01*
X140605124Y-124214900D01*
X140833873Y-124215100D01*
X141045286Y-124127746D01*
X141140014Y-124033183D01*
X141223863Y-124117179D01*
X141435124Y-124204902D01*
X141663873Y-124205102D01*
X141875286Y-124117748D01*
X142037177Y-123956139D01*
X142124900Y-123744878D01*
X142125100Y-123516129D01*
X142078717Y-123403873D01*
X154974900Y-123403873D01*
X155062254Y-123615286D01*
X155223863Y-123777177D01*
X155435124Y-123864900D01*
X155663873Y-123865100D01*
X155875286Y-123777746D01*
X156037177Y-123616137D01*
X156124900Y-123404876D01*
X156125100Y-123176127D01*
X156037746Y-122964714D01*
X155876137Y-122802823D01*
X155664876Y-122715100D01*
X155436127Y-122714900D01*
X155224714Y-122802254D01*
X155062823Y-122963863D01*
X154975100Y-123175124D01*
X154974900Y-123403873D01*
X142078717Y-123403873D01*
X142037746Y-123304716D01*
X141876137Y-123142825D01*
X141664876Y-123055102D01*
X141436127Y-123054902D01*
X141224714Y-123142256D01*
X141129986Y-123236819D01*
X141068344Y-123175069D01*
X141103873Y-123175100D01*
X141315286Y-123087746D01*
X141477177Y-122926137D01*
X141564900Y-122714876D01*
X141564962Y-122643473D01*
X142833300Y-122643473D01*
X142920654Y-122854886D01*
X143082263Y-123016777D01*
X143293524Y-123104500D01*
X143522273Y-123104700D01*
X143733686Y-123017346D01*
X143895577Y-122855737D01*
X143983300Y-122644476D01*
X143983500Y-122415727D01*
X143941415Y-122313873D01*
X157424900Y-122313873D01*
X157512254Y-122525286D01*
X157673863Y-122687177D01*
X157885124Y-122774900D01*
X158113873Y-122775100D01*
X158325286Y-122687746D01*
X158487177Y-122526137D01*
X158524908Y-122435272D01*
X158524900Y-122443873D01*
X158612254Y-122655286D01*
X158773863Y-122817177D01*
X158985124Y-122904900D01*
X159055021Y-122904961D01*
X159054900Y-123043873D01*
X159142254Y-123255286D01*
X159303863Y-123417177D01*
X159515124Y-123504900D01*
X159743873Y-123505100D01*
X159955286Y-123417746D01*
X160117177Y-123256137D01*
X160204900Y-123044876D01*
X160205100Y-122816127D01*
X160117746Y-122604714D01*
X159956137Y-122442823D01*
X159744876Y-122355100D01*
X159674979Y-122355039D01*
X159675100Y-122216127D01*
X159587746Y-122004714D01*
X159426137Y-121842823D01*
X159214876Y-121755100D01*
X158986127Y-121754900D01*
X158774714Y-121842254D01*
X158612823Y-122003863D01*
X158575092Y-122094728D01*
X158575100Y-122086127D01*
X158487746Y-121874714D01*
X158326137Y-121712823D01*
X158114876Y-121625100D01*
X157886127Y-121624900D01*
X157674714Y-121712254D01*
X157512823Y-121873863D01*
X157425100Y-122085124D01*
X157424900Y-122313873D01*
X143941415Y-122313873D01*
X143896146Y-122204314D01*
X143734537Y-122042423D01*
X143523276Y-121954700D01*
X143294527Y-121954500D01*
X143083114Y-122041854D01*
X142921223Y-122203463D01*
X142833500Y-122414724D01*
X142833300Y-122643473D01*
X141564962Y-122643473D01*
X141565100Y-122486127D01*
X141477746Y-122274714D01*
X141316137Y-122112823D01*
X141104876Y-122025100D01*
X140876127Y-122024900D01*
X140664714Y-122112254D01*
X140504924Y-122271765D01*
X140416137Y-122182823D01*
X140204876Y-122095100D01*
X139976127Y-122094900D01*
X139764714Y-122182254D01*
X139602823Y-122343863D01*
X139515100Y-122555124D01*
X139514900Y-122783873D01*
X124852358Y-122783873D01*
X124852358Y-121393873D01*
X137784900Y-121393873D01*
X137872254Y-121605286D01*
X138033863Y-121767177D01*
X138245124Y-121854900D01*
X138473873Y-121855100D01*
X138685286Y-121767746D01*
X138699183Y-121753873D01*
X150954900Y-121753873D01*
X151042254Y-121965286D01*
X151203863Y-122127177D01*
X151415124Y-122214900D01*
X151643873Y-122215100D01*
X151855286Y-122127746D01*
X152017177Y-121966137D01*
X152104900Y-121754876D01*
X152105100Y-121526127D01*
X152017746Y-121314714D01*
X151856137Y-121152823D01*
X151644876Y-121065100D01*
X151416127Y-121064900D01*
X151204714Y-121152254D01*
X151042823Y-121313863D01*
X150955100Y-121525124D01*
X150954900Y-121753873D01*
X138699183Y-121753873D01*
X138847177Y-121606137D01*
X138934900Y-121394876D01*
X138935014Y-121263873D01*
X143394900Y-121263873D01*
X143482254Y-121475286D01*
X143643863Y-121637177D01*
X143855124Y-121724900D01*
X144083873Y-121725100D01*
X144295286Y-121637746D01*
X144457177Y-121476137D01*
X144541994Y-121271873D01*
X148116500Y-121271873D01*
X148203854Y-121483286D01*
X148365463Y-121645177D01*
X148576724Y-121732900D01*
X148805473Y-121733100D01*
X149016886Y-121645746D01*
X149178777Y-121484137D01*
X149266500Y-121272876D01*
X149266700Y-121044127D01*
X149179346Y-120832714D01*
X149017737Y-120670823D01*
X148806476Y-120583100D01*
X148577727Y-120582900D01*
X148366314Y-120670254D01*
X148204423Y-120831863D01*
X148116700Y-121043124D01*
X148116500Y-121271873D01*
X144541994Y-121271873D01*
X144544900Y-121264876D01*
X144545100Y-121036127D01*
X144457746Y-120824714D01*
X144296137Y-120662823D01*
X144084876Y-120575100D01*
X143856127Y-120574900D01*
X143644714Y-120662254D01*
X143482823Y-120823863D01*
X143395100Y-121035124D01*
X143394900Y-121263873D01*
X138935014Y-121263873D01*
X138935100Y-121166127D01*
X138847746Y-120954714D01*
X138686137Y-120792823D01*
X138474876Y-120705100D01*
X138246127Y-120704900D01*
X138034714Y-120792254D01*
X137872823Y-120953863D01*
X137785100Y-121165124D01*
X137784900Y-121393873D01*
X124852358Y-121393873D01*
X124852358Y-118423677D01*
X126194883Y-118423677D01*
X126286431Y-118645239D01*
X126195117Y-118865145D01*
X126194883Y-119133677D01*
X126297429Y-119381857D01*
X126487144Y-119571903D01*
X126735145Y-119674883D01*
X127003677Y-119675117D01*
X127251857Y-119572571D01*
X127441903Y-119382856D01*
X127532833Y-119163873D01*
X134954900Y-119163873D01*
X135042254Y-119375286D01*
X135203863Y-119537177D01*
X135415124Y-119624900D01*
X135643873Y-119625100D01*
X135855286Y-119537746D01*
X136017177Y-119376137D01*
X136026421Y-119353873D01*
X136604900Y-119353873D01*
X136692254Y-119565286D01*
X136853863Y-119727177D01*
X137065124Y-119814900D01*
X137293873Y-119815100D01*
X137505286Y-119727746D01*
X137667177Y-119566137D01*
X137754900Y-119354876D01*
X137754922Y-119328894D01*
X144114900Y-119328894D01*
X144202254Y-119540307D01*
X144363863Y-119702198D01*
X144575124Y-119789921D01*
X144803873Y-119790121D01*
X144947702Y-119730692D01*
X144925100Y-119785124D01*
X144924900Y-120013873D01*
X145012254Y-120225286D01*
X145173863Y-120387177D01*
X145385124Y-120474900D01*
X145613873Y-120475100D01*
X145825286Y-120387746D01*
X145839183Y-120373873D01*
X157504900Y-120373873D01*
X157592254Y-120585286D01*
X157753863Y-120747177D01*
X157965124Y-120834900D01*
X158193873Y-120835100D01*
X158405286Y-120747746D01*
X158567177Y-120586137D01*
X158577750Y-120560673D01*
X170697100Y-120560673D01*
X170784454Y-120772086D01*
X170946063Y-120933977D01*
X171157324Y-121021700D01*
X171386073Y-121021900D01*
X171597486Y-120934546D01*
X171759377Y-120772937D01*
X171847100Y-120561676D01*
X171847300Y-120332927D01*
X171759946Y-120121514D01*
X171598337Y-119959623D01*
X171387076Y-119871900D01*
X171158327Y-119871700D01*
X170946914Y-119959054D01*
X170785023Y-120120663D01*
X170697300Y-120331924D01*
X170697100Y-120560673D01*
X158577750Y-120560673D01*
X158654900Y-120374876D01*
X158655100Y-120146127D01*
X158567746Y-119934714D01*
X158406137Y-119772823D01*
X158194876Y-119685100D01*
X157966127Y-119684900D01*
X157754714Y-119772254D01*
X157592823Y-119933863D01*
X157505100Y-120145124D01*
X157504900Y-120373873D01*
X145839183Y-120373873D01*
X145987177Y-120226137D01*
X146074900Y-120014876D01*
X146075100Y-119786127D01*
X145987746Y-119574714D01*
X145826137Y-119412823D01*
X145614876Y-119325100D01*
X145386127Y-119324900D01*
X145242298Y-119384329D01*
X145264900Y-119329897D01*
X145265100Y-119101148D01*
X145177746Y-118889735D01*
X145016137Y-118727844D01*
X144804876Y-118640121D01*
X144576127Y-118639921D01*
X144364714Y-118727275D01*
X144202823Y-118888884D01*
X144115100Y-119100145D01*
X144114900Y-119328894D01*
X137754922Y-119328894D01*
X137755100Y-119126127D01*
X137667746Y-118914714D01*
X137506137Y-118752823D01*
X137294876Y-118665100D01*
X137066127Y-118664900D01*
X136854714Y-118752254D01*
X136692823Y-118913863D01*
X136605100Y-119125124D01*
X136604900Y-119353873D01*
X136026421Y-119353873D01*
X136104900Y-119164876D01*
X136105100Y-118936127D01*
X136060282Y-118827660D01*
X136205286Y-118767746D01*
X136367177Y-118606137D01*
X136454900Y-118394876D01*
X136455100Y-118166127D01*
X136398384Y-118028863D01*
X152861317Y-118028863D01*
X152948671Y-118240276D01*
X153110280Y-118402167D01*
X153321541Y-118489890D01*
X153550290Y-118490090D01*
X153761703Y-118402736D01*
X153923594Y-118241127D01*
X154011317Y-118029866D01*
X154011517Y-117801117D01*
X153965800Y-117690473D01*
X155025300Y-117690473D01*
X155112654Y-117901886D01*
X155274263Y-118063777D01*
X155485524Y-118151500D01*
X155714273Y-118151700D01*
X155925686Y-118064346D01*
X156087577Y-117902737D01*
X156093992Y-117887289D01*
X156103863Y-117897177D01*
X156315124Y-117984900D01*
X156543873Y-117985100D01*
X156755286Y-117897746D01*
X156917177Y-117736137D01*
X157004900Y-117524876D01*
X157005100Y-117296127D01*
X157004169Y-117293873D01*
X170304900Y-117293873D01*
X170392254Y-117505286D01*
X170553863Y-117667177D01*
X170765124Y-117754900D01*
X170961510Y-117755072D01*
X170774714Y-117832254D01*
X170612823Y-117993863D01*
X170525100Y-118205124D01*
X170524900Y-118433873D01*
X170612254Y-118645286D01*
X170773863Y-118807177D01*
X170985124Y-118894900D01*
X171213873Y-118895100D01*
X171425286Y-118807746D01*
X171587177Y-118646137D01*
X171674900Y-118434876D01*
X171675100Y-118206127D01*
X171587746Y-117994714D01*
X171426137Y-117832823D01*
X171214876Y-117745100D01*
X171018490Y-117744928D01*
X171205286Y-117667746D01*
X171367177Y-117506137D01*
X171454900Y-117294876D01*
X171455100Y-117066127D01*
X171367746Y-116854714D01*
X171206137Y-116692823D01*
X170994876Y-116605100D01*
X170766127Y-116604900D01*
X170554714Y-116692254D01*
X170392823Y-116853863D01*
X170305100Y-117065124D01*
X170304900Y-117293873D01*
X157004169Y-117293873D01*
X156917746Y-117084714D01*
X156756137Y-116922823D01*
X156544876Y-116835100D01*
X156316127Y-116834900D01*
X156104714Y-116922254D01*
X155942823Y-117083863D01*
X155936408Y-117099311D01*
X155926537Y-117089423D01*
X155715276Y-117001700D01*
X155486527Y-117001500D01*
X155275114Y-117088854D01*
X155113223Y-117250463D01*
X155025500Y-117461724D01*
X155025300Y-117690473D01*
X153965800Y-117690473D01*
X153924163Y-117589704D01*
X153762554Y-117427813D01*
X153551293Y-117340090D01*
X153322544Y-117339890D01*
X153111131Y-117427244D01*
X152949240Y-117588853D01*
X152861517Y-117800114D01*
X152861317Y-118028863D01*
X136398384Y-118028863D01*
X136367746Y-117954714D01*
X136206137Y-117792823D01*
X135994876Y-117705100D01*
X135766127Y-117704900D01*
X135554714Y-117792254D01*
X135392823Y-117953863D01*
X135305100Y-118165124D01*
X135304900Y-118393873D01*
X135349718Y-118502340D01*
X135204714Y-118562254D01*
X135042823Y-118723863D01*
X134955100Y-118935124D01*
X134954900Y-119163873D01*
X127532833Y-119163873D01*
X127544883Y-119134855D01*
X127545117Y-118866323D01*
X127453569Y-118644761D01*
X127544883Y-118424855D01*
X127545117Y-118156323D01*
X127442571Y-117908143D01*
X127252856Y-117718097D01*
X127004855Y-117615117D01*
X126736323Y-117614883D01*
X126488143Y-117717429D01*
X126298097Y-117907144D01*
X126195117Y-118155145D01*
X126194883Y-118423677D01*
X124852358Y-118423677D01*
X124852358Y-117127374D01*
X136116897Y-117127374D01*
X136204251Y-117338787D01*
X136365860Y-117500678D01*
X136577121Y-117588401D01*
X136805870Y-117588601D01*
X137017283Y-117501247D01*
X137024669Y-117493873D01*
X150414900Y-117493873D01*
X150502254Y-117705286D01*
X150663863Y-117867177D01*
X150875124Y-117954900D01*
X151103873Y-117955100D01*
X151315286Y-117867746D01*
X151477177Y-117706137D01*
X151564900Y-117494876D01*
X151565100Y-117266127D01*
X151477746Y-117054714D01*
X151316137Y-116892823D01*
X151104876Y-116805100D01*
X150876127Y-116804900D01*
X150664714Y-116892254D01*
X150502823Y-117053863D01*
X150415100Y-117265124D01*
X150414900Y-117493873D01*
X137024669Y-117493873D01*
X137179174Y-117339638D01*
X137227438Y-117223404D01*
X137255124Y-117234900D01*
X137483873Y-117235100D01*
X137695286Y-117147746D01*
X137857177Y-116986137D01*
X137944900Y-116774876D01*
X137945022Y-116635057D01*
X137993873Y-116635100D01*
X138205286Y-116547746D01*
X138367177Y-116386137D01*
X138454900Y-116174876D01*
X138454906Y-116168460D01*
X138508696Y-116222344D01*
X138719957Y-116310067D01*
X138948706Y-116310267D01*
X139160119Y-116222913D01*
X139322010Y-116061304D01*
X139409733Y-115850043D01*
X139409933Y-115621294D01*
X139334559Y-115438874D01*
X157644900Y-115438874D01*
X157732254Y-115650287D01*
X157893863Y-115812178D01*
X158105124Y-115899901D01*
X158205519Y-115899989D01*
X158140457Y-115964937D01*
X158052734Y-116176198D01*
X158052534Y-116404947D01*
X158139888Y-116616360D01*
X158301497Y-116778251D01*
X158512758Y-116865974D01*
X158741507Y-116866174D01*
X158952920Y-116778820D01*
X159114811Y-116617211D01*
X159202534Y-116405950D01*
X159202734Y-116177201D01*
X159115380Y-115965788D01*
X158953771Y-115803897D01*
X158742510Y-115716174D01*
X158642115Y-115716086D01*
X158707177Y-115651138D01*
X158794900Y-115439877D01*
X158794975Y-115353673D01*
X162975500Y-115353673D01*
X163049216Y-115532078D01*
X162975700Y-115709124D01*
X162975500Y-115937873D01*
X163062854Y-116149286D01*
X163224463Y-116311177D01*
X163435724Y-116398900D01*
X163664473Y-116399100D01*
X163875886Y-116311746D01*
X164037777Y-116150137D01*
X164125500Y-115938876D01*
X164125700Y-115710127D01*
X164051984Y-115531722D01*
X164125500Y-115354676D01*
X164125678Y-115150473D01*
X170646300Y-115150473D01*
X170733654Y-115361886D01*
X170895263Y-115523777D01*
X170988601Y-115562534D01*
X170921514Y-115590254D01*
X170759623Y-115751863D01*
X170671900Y-115963124D01*
X170671700Y-116191873D01*
X170759054Y-116403286D01*
X170920663Y-116565177D01*
X171131924Y-116652900D01*
X171360673Y-116653100D01*
X171572086Y-116565746D01*
X171733977Y-116404137D01*
X171821700Y-116192876D01*
X171821900Y-115964127D01*
X171734546Y-115752714D01*
X171572937Y-115590823D01*
X171479599Y-115552066D01*
X171546686Y-115524346D01*
X171708577Y-115362737D01*
X171796300Y-115151476D01*
X171796500Y-114922727D01*
X171709146Y-114711314D01*
X171547537Y-114549423D01*
X171336276Y-114461700D01*
X171107527Y-114461500D01*
X170896114Y-114548854D01*
X170734223Y-114710463D01*
X170646500Y-114921724D01*
X170646300Y-115150473D01*
X164125678Y-115150473D01*
X164125700Y-115125927D01*
X164038346Y-114914514D01*
X163876737Y-114752623D01*
X163665476Y-114664900D01*
X163436727Y-114664700D01*
X163225314Y-114752054D01*
X163063423Y-114913663D01*
X162975700Y-115124924D01*
X162975500Y-115353673D01*
X158794975Y-115353673D01*
X158795100Y-115211128D01*
X158707746Y-114999715D01*
X158546137Y-114837824D01*
X158334876Y-114750101D01*
X158106127Y-114749901D01*
X157894714Y-114837255D01*
X157732823Y-114998864D01*
X157645100Y-115210125D01*
X157644900Y-115438874D01*
X139334559Y-115438874D01*
X139322579Y-115409881D01*
X139242813Y-115329975D01*
X139373873Y-115330090D01*
X139585286Y-115242736D01*
X139747177Y-115081127D01*
X139834900Y-114869866D01*
X139835100Y-114641117D01*
X139747746Y-114429704D01*
X139586137Y-114267813D01*
X139374876Y-114180090D01*
X139146127Y-114179890D01*
X138934714Y-114267244D01*
X138772823Y-114428853D01*
X138685100Y-114640114D01*
X138684900Y-114868863D01*
X138772254Y-115080276D01*
X138852020Y-115160182D01*
X138720960Y-115160067D01*
X138509547Y-115247421D01*
X138347656Y-115409030D01*
X138259933Y-115620291D01*
X138259927Y-115626707D01*
X138206137Y-115572823D01*
X137994876Y-115485100D01*
X137766127Y-115484900D01*
X137554714Y-115572254D01*
X137392823Y-115733863D01*
X137305100Y-115945124D01*
X137304978Y-116084943D01*
X137256127Y-116084900D01*
X137044714Y-116172254D01*
X136882823Y-116333863D01*
X136834559Y-116450097D01*
X136806873Y-116438601D01*
X136578124Y-116438401D01*
X136366711Y-116525755D01*
X136204820Y-116687364D01*
X136117097Y-116898625D01*
X136116897Y-117127374D01*
X124852358Y-117127374D01*
X124852358Y-115003873D01*
X129724900Y-115003873D01*
X129812254Y-115215286D01*
X129973863Y-115377177D01*
X130185124Y-115464900D01*
X130204917Y-115464917D01*
X130204900Y-115483873D01*
X130292254Y-115695286D01*
X130453863Y-115857177D01*
X130665124Y-115944900D01*
X130893873Y-115945100D01*
X131105286Y-115857746D01*
X131267177Y-115696137D01*
X131327124Y-115551767D01*
X133127004Y-115551767D01*
X133214358Y-115763180D01*
X133375967Y-115925071D01*
X133587228Y-116012794D01*
X133815977Y-116012994D01*
X134027390Y-115925640D01*
X134189281Y-115764031D01*
X134277004Y-115552770D01*
X134277204Y-115324021D01*
X134189850Y-115112608D01*
X134028241Y-114950717D01*
X133816980Y-114862994D01*
X133588231Y-114862794D01*
X133376818Y-114950148D01*
X133214927Y-115111757D01*
X133127204Y-115323018D01*
X133127004Y-115551767D01*
X131327124Y-115551767D01*
X131354900Y-115484876D01*
X131355100Y-115256127D01*
X131267746Y-115044714D01*
X131106137Y-114882823D01*
X130894876Y-114795100D01*
X130875083Y-114795083D01*
X130875100Y-114776127D01*
X130787746Y-114564714D01*
X130626137Y-114402823D01*
X130414876Y-114315100D01*
X130186127Y-114314900D01*
X129974714Y-114402254D01*
X129812823Y-114563863D01*
X129725100Y-114775124D01*
X129724900Y-115003873D01*
X124852358Y-115003873D01*
X124852358Y-113270873D01*
X127644100Y-113270873D01*
X127731454Y-113482286D01*
X127893063Y-113644177D01*
X128096375Y-113728599D01*
X127893914Y-113812254D01*
X127732023Y-113973863D01*
X127644300Y-114185124D01*
X127644100Y-114413873D01*
X127731454Y-114625286D01*
X127893063Y-114787177D01*
X128104324Y-114874900D01*
X128333073Y-114875100D01*
X128544486Y-114787746D01*
X128706377Y-114626137D01*
X128794100Y-114414876D01*
X128794300Y-114186127D01*
X128706946Y-113974714D01*
X128641230Y-113908883D01*
X133664900Y-113908883D01*
X133752254Y-114120296D01*
X133913863Y-114282187D01*
X134125124Y-114369910D01*
X134353873Y-114370110D01*
X134565286Y-114282756D01*
X134727177Y-114121147D01*
X134814900Y-113909886D01*
X134815100Y-113681137D01*
X134727746Y-113469724D01*
X134622080Y-113363873D01*
X140644900Y-113363873D01*
X140732254Y-113575286D01*
X140893863Y-113737177D01*
X140974186Y-113770530D01*
X140905100Y-113936909D01*
X140904900Y-114165658D01*
X140992254Y-114377071D01*
X141153863Y-114538962D01*
X141365124Y-114626685D01*
X141593873Y-114626885D01*
X141805286Y-114539531D01*
X141967177Y-114377922D01*
X141972269Y-114365657D01*
X159491350Y-114365657D01*
X159578704Y-114577070D01*
X159740313Y-114738961D01*
X159951574Y-114826684D01*
X160180323Y-114826884D01*
X160391736Y-114739530D01*
X160497220Y-114634230D01*
X160497133Y-114733407D01*
X160584487Y-114944820D01*
X160746096Y-115106711D01*
X160957357Y-115194434D01*
X161186106Y-115194634D01*
X161397519Y-115107280D01*
X161559410Y-114945671D01*
X161647133Y-114734410D01*
X161647333Y-114505661D01*
X161559979Y-114294248D01*
X161398370Y-114132357D01*
X161187109Y-114044634D01*
X160958360Y-114044434D01*
X160746947Y-114131788D01*
X160641463Y-114237088D01*
X160641550Y-114137911D01*
X160554196Y-113926498D01*
X160392587Y-113764607D01*
X160181326Y-113676884D01*
X159952577Y-113676684D01*
X159741164Y-113764038D01*
X159579273Y-113925647D01*
X159491550Y-114136908D01*
X159491350Y-114365657D01*
X141972269Y-114365657D01*
X142054900Y-114166661D01*
X142055100Y-113937912D01*
X141967746Y-113726499D01*
X141806137Y-113564608D01*
X141732119Y-113533873D01*
X150104900Y-113533873D01*
X150192254Y-113745286D01*
X150353863Y-113907177D01*
X150565124Y-113994900D01*
X150793873Y-113995100D01*
X151005286Y-113907746D01*
X151167177Y-113746137D01*
X151254900Y-113534876D01*
X151255100Y-113306127D01*
X151188059Y-113143873D01*
X158327300Y-113143873D01*
X158414654Y-113355286D01*
X158576263Y-113517177D01*
X158787524Y-113604900D01*
X159016273Y-113605100D01*
X159227686Y-113517746D01*
X159389577Y-113356137D01*
X159477300Y-113144876D01*
X159477500Y-112916127D01*
X159390146Y-112704714D01*
X159228537Y-112542823D01*
X159017276Y-112455100D01*
X158788527Y-112454900D01*
X158577114Y-112542254D01*
X158415223Y-112703863D01*
X158327500Y-112915124D01*
X158327300Y-113143873D01*
X151188059Y-113143873D01*
X151167746Y-113094714D01*
X151006137Y-112932823D01*
X150794876Y-112845100D01*
X150566127Y-112844900D01*
X150354714Y-112932254D01*
X150192823Y-113093863D01*
X150105100Y-113305124D01*
X150104900Y-113533873D01*
X141732119Y-113533873D01*
X141725814Y-113531255D01*
X141794900Y-113364876D01*
X141795100Y-113136127D01*
X141707746Y-112924714D01*
X141546137Y-112762823D01*
X141334876Y-112675100D01*
X141106127Y-112674900D01*
X140894714Y-112762254D01*
X140732823Y-112923863D01*
X140645100Y-113135124D01*
X140644900Y-113363873D01*
X134622080Y-113363873D01*
X134566137Y-113307833D01*
X134354876Y-113220110D01*
X134126127Y-113219910D01*
X133914714Y-113307264D01*
X133752823Y-113468873D01*
X133665100Y-113680134D01*
X133664900Y-113908883D01*
X128641230Y-113908883D01*
X128545337Y-113812823D01*
X128342025Y-113728401D01*
X128544486Y-113644746D01*
X128706377Y-113483137D01*
X128794100Y-113271876D01*
X128794100Y-113270873D01*
X130819100Y-113270873D01*
X130906454Y-113482286D01*
X131068063Y-113644177D01*
X131279324Y-113731900D01*
X131508073Y-113732100D01*
X131719486Y-113644746D01*
X131881377Y-113483137D01*
X131969100Y-113271876D01*
X131969300Y-113043127D01*
X131881946Y-112831714D01*
X131720337Y-112669823D01*
X131699747Y-112661273D01*
X136813500Y-112661273D01*
X136900854Y-112872686D01*
X137062463Y-113034577D01*
X137273724Y-113122300D01*
X137502473Y-113122500D01*
X137713886Y-113035146D01*
X137875777Y-112873537D01*
X137963500Y-112662276D01*
X137963700Y-112433527D01*
X137876346Y-112222114D01*
X137714737Y-112060223D01*
X137503476Y-111972500D01*
X137274727Y-111972300D01*
X137063314Y-112059654D01*
X136901423Y-112221263D01*
X136813700Y-112432524D01*
X136813500Y-112661273D01*
X131699747Y-112661273D01*
X131509076Y-112582100D01*
X131280327Y-112581900D01*
X131068914Y-112669254D01*
X130907023Y-112830863D01*
X130819300Y-113042124D01*
X130819100Y-113270873D01*
X128794100Y-113270873D01*
X128794300Y-113043127D01*
X128706946Y-112831714D01*
X128545337Y-112669823D01*
X128334076Y-112582100D01*
X128105327Y-112581900D01*
X127893914Y-112669254D01*
X127732023Y-112830863D01*
X127644300Y-113042124D01*
X127644100Y-113270873D01*
X124852358Y-113270873D01*
X124852358Y-110934073D01*
X145119300Y-110934073D01*
X145206654Y-111145486D01*
X145368263Y-111307377D01*
X145579524Y-111395100D01*
X145718786Y-111395222D01*
X145678300Y-111492724D01*
X145678137Y-111679644D01*
X145496114Y-111754854D01*
X145334223Y-111916463D01*
X145246500Y-112127724D01*
X145246300Y-112356473D01*
X145333654Y-112567886D01*
X145495263Y-112729777D01*
X145706524Y-112817500D01*
X145935273Y-112817700D01*
X146146686Y-112730346D01*
X146308577Y-112568737D01*
X146396300Y-112357476D01*
X146396372Y-112273873D01*
X152944900Y-112273873D01*
X153032254Y-112485286D01*
X153193863Y-112647177D01*
X153405124Y-112734900D01*
X153633873Y-112735100D01*
X153845286Y-112647746D01*
X153909270Y-112583873D01*
X156034900Y-112583873D01*
X156122254Y-112795286D01*
X156283863Y-112957177D01*
X156495124Y-113044900D01*
X156723873Y-113045100D01*
X156935286Y-112957746D01*
X157097177Y-112796137D01*
X157184900Y-112584876D01*
X157185055Y-112407273D01*
X171509900Y-112407273D01*
X171597254Y-112618686D01*
X171758863Y-112780577D01*
X171970124Y-112868300D01*
X172198873Y-112868500D01*
X172410286Y-112781146D01*
X172572177Y-112619537D01*
X172659900Y-112408276D01*
X172660100Y-112179527D01*
X172572746Y-111968114D01*
X172411137Y-111806223D01*
X172199876Y-111718500D01*
X171971127Y-111718300D01*
X171759714Y-111805654D01*
X171597823Y-111967263D01*
X171510100Y-112178524D01*
X171509900Y-112407273D01*
X157185055Y-112407273D01*
X157185100Y-112356127D01*
X157097746Y-112144714D01*
X156936137Y-111982823D01*
X156724876Y-111895100D01*
X156496127Y-111894900D01*
X156284714Y-111982254D01*
X156122823Y-112143863D01*
X156035100Y-112355124D01*
X156034900Y-112583873D01*
X153909270Y-112583873D01*
X154007177Y-112486137D01*
X154094900Y-112274876D01*
X154095100Y-112046127D01*
X154007746Y-111834714D01*
X153846137Y-111672823D01*
X153779790Y-111645273D01*
X170570100Y-111645273D01*
X170657454Y-111856686D01*
X170819063Y-112018577D01*
X171030324Y-112106300D01*
X171259073Y-112106500D01*
X171470486Y-112019146D01*
X171632377Y-111857537D01*
X171720100Y-111646276D01*
X171720300Y-111417527D01*
X171632946Y-111206114D01*
X171471337Y-111044223D01*
X171260076Y-110956500D01*
X171031327Y-110956300D01*
X170819914Y-111043654D01*
X170658023Y-111205263D01*
X170570300Y-111416524D01*
X170570100Y-111645273D01*
X153779790Y-111645273D01*
X153634876Y-111585100D01*
X153406127Y-111584900D01*
X153194714Y-111672254D01*
X153032823Y-111833863D01*
X152945100Y-112045124D01*
X152944900Y-112273873D01*
X146396372Y-112273873D01*
X146396463Y-112170556D01*
X146578486Y-112095346D01*
X146740377Y-111933737D01*
X146828100Y-111722476D01*
X146828300Y-111493727D01*
X146740946Y-111282314D01*
X146579337Y-111120423D01*
X146368076Y-111032700D01*
X146228814Y-111032578D01*
X146269300Y-110935076D01*
X146269411Y-110807073D01*
X171636900Y-110807073D01*
X171724254Y-111018486D01*
X171885863Y-111180377D01*
X172097124Y-111268100D01*
X172325873Y-111268300D01*
X172537286Y-111180946D01*
X172699177Y-111019337D01*
X172786900Y-110808076D01*
X172787100Y-110579327D01*
X172699746Y-110367914D01*
X172538137Y-110206023D01*
X172326876Y-110118300D01*
X172098127Y-110118100D01*
X171886714Y-110205454D01*
X171724823Y-110367063D01*
X171637100Y-110578324D01*
X171636900Y-110807073D01*
X146269411Y-110807073D01*
X146269500Y-110706327D01*
X146182146Y-110494914D01*
X146020537Y-110333023D01*
X145809276Y-110245300D01*
X145580527Y-110245100D01*
X145369114Y-110332454D01*
X145207223Y-110494063D01*
X145119500Y-110705324D01*
X145119300Y-110934073D01*
X124852358Y-110934073D01*
X124852358Y-109727395D01*
X124889324Y-109782718D01*
X125173194Y-109972395D01*
X125508042Y-110039000D01*
X126459958Y-110039000D01*
X126794806Y-109972395D01*
X127078676Y-109782718D01*
X127111466Y-109733644D01*
X134018906Y-109733644D01*
X134051976Y-109859567D01*
X134285300Y-110261434D01*
X134654652Y-110543422D01*
X135103800Y-110662600D01*
X135256200Y-110662600D01*
X135256200Y-109549000D01*
X135406200Y-109549000D01*
X135406200Y-110662600D01*
X135558600Y-110662600D01*
X136007748Y-110543422D01*
X136377100Y-110261434D01*
X136610424Y-109859567D01*
X136643494Y-109733644D01*
X136588407Y-109549000D01*
X135406200Y-109549000D01*
X135256200Y-109549000D01*
X134073993Y-109549000D01*
X134018906Y-109733644D01*
X127111466Y-109733644D01*
X127268353Y-109498848D01*
X127334958Y-109164000D01*
X127268353Y-108829152D01*
X127078676Y-108545282D01*
X126834076Y-108381844D01*
X127583810Y-108381844D01*
X127750922Y-108786286D01*
X128060087Y-109095991D01*
X128464237Y-109263808D01*
X128901844Y-109264190D01*
X129022451Y-109214356D01*
X134018906Y-109214356D01*
X134073993Y-109399000D01*
X135256200Y-109399000D01*
X135256200Y-108285400D01*
X135406200Y-108285400D01*
X135406200Y-109399000D01*
X136588407Y-109399000D01*
X136643494Y-109214356D01*
X136610424Y-109088433D01*
X136377100Y-108686566D01*
X136007748Y-108404578D01*
X135968158Y-108394073D01*
X138007300Y-108394073D01*
X138094654Y-108605486D01*
X138256263Y-108767377D01*
X138467524Y-108855100D01*
X138696273Y-108855300D01*
X138907686Y-108767946D01*
X139069577Y-108606337D01*
X139157300Y-108395076D01*
X139157389Y-108292473D01*
X146465500Y-108292473D01*
X146552854Y-108503886D01*
X146714463Y-108665777D01*
X146925724Y-108753500D01*
X147154473Y-108753700D01*
X147307416Y-108690505D01*
X147459124Y-108753500D01*
X147687873Y-108753700D01*
X147899286Y-108666346D01*
X148051305Y-108514592D01*
X147964300Y-108724124D01*
X147964214Y-108822719D01*
X147942727Y-108822700D01*
X147731314Y-108910054D01*
X147569423Y-109071663D01*
X147481700Y-109282924D01*
X147481500Y-109511673D01*
X147568854Y-109723086D01*
X147730463Y-109884977D01*
X147941724Y-109972700D01*
X148170473Y-109972900D01*
X148381886Y-109885546D01*
X148543777Y-109723937D01*
X148589728Y-109613273D01*
X156879500Y-109613273D01*
X156966854Y-109824686D01*
X157128463Y-109986577D01*
X157339724Y-110074300D01*
X157568473Y-110074500D01*
X157779886Y-109987146D01*
X157941777Y-109825537D01*
X157956087Y-109791073D01*
X165337700Y-109791073D01*
X165425054Y-110002486D01*
X165586663Y-110164377D01*
X165797924Y-110252100D01*
X166026673Y-110252300D01*
X166238086Y-110164946D01*
X166399977Y-110003337D01*
X166487700Y-109792076D01*
X166487900Y-109563327D01*
X166400546Y-109351914D01*
X166238937Y-109190023D01*
X166027676Y-109102300D01*
X165798927Y-109102100D01*
X165587514Y-109189454D01*
X165425623Y-109351063D01*
X165337900Y-109562324D01*
X165337700Y-109791073D01*
X157956087Y-109791073D01*
X158029500Y-109614276D01*
X158029700Y-109385527D01*
X157942346Y-109174114D01*
X157780737Y-109012223D01*
X157569476Y-108924500D01*
X157340727Y-108924300D01*
X157129314Y-109011654D01*
X156967423Y-109173263D01*
X156879700Y-109384524D01*
X156879500Y-109613273D01*
X148589728Y-109613273D01*
X148631500Y-109512676D01*
X148631586Y-109414081D01*
X148653073Y-109414100D01*
X148864486Y-109326746D01*
X149026377Y-109165137D01*
X149114100Y-108953876D01*
X149114211Y-108825873D01*
X154745900Y-108825873D01*
X154833254Y-109037286D01*
X154994863Y-109199177D01*
X155206124Y-109286900D01*
X155434873Y-109287100D01*
X155531693Y-109247095D01*
X155688724Y-109312300D01*
X155917473Y-109312500D01*
X156128886Y-109225146D01*
X156290777Y-109063537D01*
X156378500Y-108852276D01*
X156378700Y-108623527D01*
X156291346Y-108412114D01*
X156129737Y-108250223D01*
X155918476Y-108162500D01*
X155689727Y-108162300D01*
X155592907Y-108202305D01*
X155435876Y-108137100D01*
X155207127Y-108136900D01*
X154995714Y-108224254D01*
X154833823Y-108385863D01*
X154746100Y-108597124D01*
X154745900Y-108825873D01*
X149114211Y-108825873D01*
X149114300Y-108725127D01*
X149026946Y-108513714D01*
X148865337Y-108351823D01*
X148654076Y-108264100D01*
X148425327Y-108263900D01*
X148213914Y-108351254D01*
X148061895Y-108503008D01*
X148148900Y-108293476D01*
X148149100Y-108064727D01*
X148061977Y-107853873D01*
X152754900Y-107853873D01*
X152842254Y-108065286D01*
X153003863Y-108227177D01*
X153215124Y-108314900D01*
X153443873Y-108315100D01*
X153655286Y-108227746D01*
X153817177Y-108066137D01*
X153904900Y-107854876D01*
X153905100Y-107626127D01*
X153817746Y-107414714D01*
X153656137Y-107252823D01*
X153444876Y-107165100D01*
X153216127Y-107164900D01*
X153004714Y-107252254D01*
X152842823Y-107413863D01*
X152755100Y-107625124D01*
X152754900Y-107853873D01*
X148061977Y-107853873D01*
X148061746Y-107853314D01*
X147900137Y-107691423D01*
X147688876Y-107603700D01*
X147460127Y-107603500D01*
X147307184Y-107666695D01*
X147155476Y-107603700D01*
X146926727Y-107603500D01*
X146715314Y-107690854D01*
X146553423Y-107852463D01*
X146465700Y-108063724D01*
X146465500Y-108292473D01*
X139157389Y-108292473D01*
X139157500Y-108166327D01*
X139152181Y-108153454D01*
X139263286Y-108107546D01*
X139425177Y-107945937D01*
X139512900Y-107734676D01*
X139513100Y-107505927D01*
X139425746Y-107294514D01*
X139264137Y-107132623D01*
X139052876Y-107044900D01*
X138824127Y-107044700D01*
X138612714Y-107132054D01*
X138450823Y-107293663D01*
X138363100Y-107504924D01*
X138362900Y-107733673D01*
X138368219Y-107746546D01*
X138257114Y-107792454D01*
X138095223Y-107954063D01*
X138007500Y-108165324D01*
X138007300Y-108394073D01*
X135968158Y-108394073D01*
X135558600Y-108285400D01*
X135406200Y-108285400D01*
X135256200Y-108285400D01*
X135103800Y-108285400D01*
X134654652Y-108404578D01*
X134285300Y-108686566D01*
X134051976Y-109088433D01*
X134018906Y-109214356D01*
X129022451Y-109214356D01*
X129306286Y-109097078D01*
X129615991Y-108787913D01*
X129783808Y-108383763D01*
X129784190Y-107946156D01*
X129651026Y-107623873D01*
X131694900Y-107623873D01*
X131782254Y-107835286D01*
X131943863Y-107997177D01*
X132155124Y-108084900D01*
X132383873Y-108085100D01*
X132595286Y-107997746D01*
X132757177Y-107836137D01*
X132844900Y-107624876D01*
X132845100Y-107396127D01*
X132757746Y-107184714D01*
X132596137Y-107022823D01*
X132384876Y-106935100D01*
X132156127Y-106934900D01*
X131944714Y-107022254D01*
X131782823Y-107183863D01*
X131695100Y-107395124D01*
X131694900Y-107623873D01*
X129651026Y-107623873D01*
X129617078Y-107541714D01*
X129307913Y-107232009D01*
X128903763Y-107064192D01*
X128466156Y-107063810D01*
X128061714Y-107230922D01*
X127752009Y-107540087D01*
X127584192Y-107944237D01*
X127583810Y-108381844D01*
X126834076Y-108381844D01*
X126794806Y-108355605D01*
X126459958Y-108289000D01*
X125508042Y-108289000D01*
X125173194Y-108355605D01*
X124889324Y-108545282D01*
X124852358Y-108600605D01*
X124852358Y-106934000D01*
X133912949Y-106934000D01*
X134007232Y-107407992D01*
X134275727Y-107809822D01*
X134677557Y-108078317D01*
X135151549Y-108172600D01*
X135510851Y-108172600D01*
X135984843Y-108078317D01*
X136386673Y-107809822D01*
X136655168Y-107407992D01*
X136749451Y-106934000D01*
X136655168Y-106460008D01*
X136589730Y-106362073D01*
X158276500Y-106362073D01*
X158363854Y-106573486D01*
X158525463Y-106735377D01*
X158736724Y-106823100D01*
X158965473Y-106823300D01*
X159176886Y-106735946D01*
X159338777Y-106574337D01*
X159426500Y-106363076D01*
X159426523Y-106336673D01*
X165921900Y-106336673D01*
X166009254Y-106548086D01*
X166170863Y-106709977D01*
X166382124Y-106797700D01*
X166610873Y-106797900D01*
X166822286Y-106710546D01*
X166984177Y-106548937D01*
X167071900Y-106337676D01*
X167072100Y-106108927D01*
X167020900Y-105985013D01*
X167136063Y-106100377D01*
X167347324Y-106188100D01*
X167576073Y-106188300D01*
X167787486Y-106100946D01*
X167949377Y-105939337D01*
X168037100Y-105728076D01*
X168037300Y-105499327D01*
X168026453Y-105473073D01*
X168614300Y-105473073D01*
X168701654Y-105684486D01*
X168863263Y-105846377D01*
X169074524Y-105934100D01*
X169076600Y-105934102D01*
X169075132Y-105937637D01*
X169074750Y-106375244D01*
X169241862Y-106779686D01*
X169551027Y-107089391D01*
X169713967Y-107157049D01*
X169651514Y-107182854D01*
X169489623Y-107344463D01*
X169401900Y-107555724D01*
X169401700Y-107784473D01*
X169489054Y-107995886D01*
X169650663Y-108157777D01*
X169861924Y-108245500D01*
X170090673Y-108245700D01*
X170302086Y-108158346D01*
X170463977Y-107996737D01*
X170551700Y-107785476D01*
X170551900Y-107556727D01*
X170464546Y-107345314D01*
X170376961Y-107257576D01*
X170392784Y-107257590D01*
X170797226Y-107090478D01*
X171106931Y-106781313D01*
X171274748Y-106377163D01*
X171275130Y-105939556D01*
X171108018Y-105535114D01*
X170798853Y-105225409D01*
X170394703Y-105057592D01*
X169957096Y-105057210D01*
X169803669Y-105120605D01*
X169815100Y-105093076D01*
X169815300Y-104864327D01*
X169727946Y-104652914D01*
X169566337Y-104491023D01*
X169355076Y-104403300D01*
X169126327Y-104403100D01*
X168914914Y-104490454D01*
X168753023Y-104652063D01*
X168665300Y-104863324D01*
X168665100Y-105092073D01*
X168671394Y-105107307D01*
X168614500Y-105244324D01*
X168614300Y-105473073D01*
X168026453Y-105473073D01*
X167949946Y-105287914D01*
X167788337Y-105126023D01*
X167577076Y-105038300D01*
X167348327Y-105038100D01*
X167136914Y-105125454D01*
X166975023Y-105287063D01*
X166887300Y-105498324D01*
X166887100Y-105727073D01*
X166938300Y-105850987D01*
X166823137Y-105735623D01*
X166611876Y-105647900D01*
X166383127Y-105647700D01*
X166171714Y-105735054D01*
X166009823Y-105896663D01*
X165922100Y-106107924D01*
X165921900Y-106336673D01*
X159426523Y-106336673D01*
X159426700Y-106134327D01*
X159339346Y-105922914D01*
X159177737Y-105761023D01*
X158966476Y-105673300D01*
X158737727Y-105673100D01*
X158526314Y-105760454D01*
X158364423Y-105922063D01*
X158276700Y-106133324D01*
X158276500Y-106362073D01*
X136589730Y-106362073D01*
X136386673Y-106058178D01*
X135984843Y-105789683D01*
X135510851Y-105695400D01*
X135151549Y-105695400D01*
X134677557Y-105789683D01*
X134275727Y-106058178D01*
X134007232Y-106460008D01*
X133912949Y-106934000D01*
X124852358Y-106934000D01*
X124852358Y-104394000D01*
X133912949Y-104394000D01*
X134007232Y-104867992D01*
X134275727Y-105269822D01*
X134677557Y-105538317D01*
X135151549Y-105632600D01*
X135510851Y-105632600D01*
X135984843Y-105538317D01*
X136310569Y-105320673D01*
X137727900Y-105320673D01*
X137815254Y-105532086D01*
X137976863Y-105693977D01*
X138188124Y-105781700D01*
X138416873Y-105781900D01*
X138628286Y-105694546D01*
X138790177Y-105532937D01*
X138877900Y-105321676D01*
X138878056Y-105142873D01*
X145728900Y-105142873D01*
X145816254Y-105354286D01*
X145977863Y-105516177D01*
X146189124Y-105603900D01*
X146417873Y-105604100D01*
X146629286Y-105516746D01*
X146791177Y-105355137D01*
X146878900Y-105143876D01*
X146879100Y-104915127D01*
X146791746Y-104703714D01*
X146630137Y-104541823D01*
X146418876Y-104454100D01*
X146190127Y-104453900D01*
X145978714Y-104541254D01*
X145816823Y-104702863D01*
X145729100Y-104914124D01*
X145728900Y-105142873D01*
X138878056Y-105142873D01*
X138878100Y-105092927D01*
X138790746Y-104881514D01*
X138629137Y-104719623D01*
X138417876Y-104631900D01*
X138189127Y-104631700D01*
X137977714Y-104719054D01*
X137815823Y-104880663D01*
X137728100Y-105091924D01*
X137727900Y-105320673D01*
X136310569Y-105320673D01*
X136386673Y-105269822D01*
X136655168Y-104867992D01*
X136749451Y-104394000D01*
X136655168Y-103920008D01*
X136538815Y-103745873D01*
X139378900Y-103745873D01*
X139466254Y-103957286D01*
X139627863Y-104119177D01*
X139839124Y-104206900D01*
X140067873Y-104207100D01*
X140279286Y-104119746D01*
X140441177Y-103958137D01*
X140528900Y-103746876D01*
X140529100Y-103518127D01*
X140441746Y-103306714D01*
X140280137Y-103144823D01*
X140068876Y-103057100D01*
X139840127Y-103056900D01*
X139628714Y-103144254D01*
X139466823Y-103305863D01*
X139379100Y-103517124D01*
X139378900Y-103745873D01*
X136538815Y-103745873D01*
X136386673Y-103518178D01*
X135984843Y-103249683D01*
X135510851Y-103155400D01*
X135151549Y-103155400D01*
X134677557Y-103249683D01*
X134275727Y-103518178D01*
X134007232Y-103920008D01*
X133912949Y-104394000D01*
X124852358Y-104394000D01*
X124852358Y-103381844D01*
X127583810Y-103381844D01*
X127750922Y-103786286D01*
X128060087Y-104095991D01*
X128464237Y-104263808D01*
X128901844Y-104264190D01*
X129306286Y-104097078D01*
X129615991Y-103787913D01*
X129783808Y-103383763D01*
X129784190Y-102946156D01*
X129617078Y-102541714D01*
X129307913Y-102232009D01*
X128903763Y-102064192D01*
X128466156Y-102063810D01*
X128061714Y-102230922D01*
X127752009Y-102540087D01*
X127584192Y-102944237D01*
X127583810Y-103381844D01*
X124852358Y-103381844D01*
X124852358Y-102727395D01*
X124889324Y-102782718D01*
X125173194Y-102972395D01*
X125508042Y-103039000D01*
X126459958Y-103039000D01*
X126794806Y-102972395D01*
X127078676Y-102782718D01*
X127268353Y-102498848D01*
X127334958Y-102164000D01*
X127268353Y-101829152D01*
X127078676Y-101545282D01*
X126794806Y-101355605D01*
X126459958Y-101289000D01*
X125508042Y-101289000D01*
X125173194Y-101355605D01*
X124889324Y-101545282D01*
X124852358Y-101600605D01*
X124852358Y-100990400D01*
X133932854Y-100990400D01*
X133932854Y-102717600D01*
X133959002Y-102856566D01*
X134041131Y-102984199D01*
X134166446Y-103069823D01*
X134315200Y-103099946D01*
X136347200Y-103099946D01*
X136486166Y-103073798D01*
X136613799Y-102991669D01*
X136632791Y-102963873D01*
X150924900Y-102963873D01*
X151012254Y-103175286D01*
X151173863Y-103337177D01*
X151385124Y-103424900D01*
X151613873Y-103425100D01*
X151825286Y-103337746D01*
X151987177Y-103176137D01*
X152067011Y-102983873D01*
X154745900Y-102983873D01*
X154833254Y-103195286D01*
X154994863Y-103357177D01*
X155206124Y-103444900D01*
X155434873Y-103445100D01*
X155646286Y-103357746D01*
X155664590Y-103339473D01*
X168258700Y-103339473D01*
X168346054Y-103550886D01*
X168507663Y-103712777D01*
X168718924Y-103800500D01*
X168947673Y-103800700D01*
X169159086Y-103713346D01*
X169320977Y-103551737D01*
X169408700Y-103340476D01*
X169408900Y-103111727D01*
X169321546Y-102900314D01*
X169159937Y-102738423D01*
X168948676Y-102650700D01*
X168719927Y-102650500D01*
X168508514Y-102737854D01*
X168346623Y-102899463D01*
X168258900Y-103110724D01*
X168258700Y-103339473D01*
X155664590Y-103339473D01*
X155808177Y-103196137D01*
X155895900Y-102984876D01*
X155896100Y-102756127D01*
X155808746Y-102544714D01*
X155647137Y-102382823D01*
X155435876Y-102295100D01*
X155207127Y-102294900D01*
X154995714Y-102382254D01*
X154833823Y-102543863D01*
X154746100Y-102755124D01*
X154745900Y-102983873D01*
X152067011Y-102983873D01*
X152074900Y-102964876D01*
X152075100Y-102736127D01*
X151987746Y-102524714D01*
X151826137Y-102362823D01*
X151614876Y-102275100D01*
X151386127Y-102274900D01*
X151174714Y-102362254D01*
X151012823Y-102523863D01*
X150925100Y-102735124D01*
X150924900Y-102963873D01*
X136632791Y-102963873D01*
X136699423Y-102866354D01*
X136729546Y-102717600D01*
X136729546Y-101434473D01*
X139201100Y-101434473D01*
X139288454Y-101645886D01*
X139450063Y-101807777D01*
X139661324Y-101895500D01*
X139890073Y-101895700D01*
X140101486Y-101808346D01*
X140263377Y-101646737D01*
X140351100Y-101435476D01*
X140351206Y-101313873D01*
X140824900Y-101313873D01*
X140912254Y-101525286D01*
X141073863Y-101687177D01*
X141285124Y-101774900D01*
X141513873Y-101775100D01*
X141725286Y-101687746D01*
X141887177Y-101526137D01*
X141974900Y-101314876D01*
X141975100Y-101086127D01*
X141928718Y-100973873D01*
X142144900Y-100973873D01*
X142232254Y-101185286D01*
X142393863Y-101347177D01*
X142605124Y-101434900D01*
X142705457Y-101434988D01*
X142625914Y-101467854D01*
X142464023Y-101629463D01*
X142376300Y-101840724D01*
X142376100Y-102069473D01*
X142463454Y-102280886D01*
X142625063Y-102442777D01*
X142836324Y-102530500D01*
X143065073Y-102530700D01*
X143276486Y-102443346D01*
X143438377Y-102281737D01*
X143526100Y-102070476D01*
X143526300Y-101841727D01*
X143438946Y-101630314D01*
X143277337Y-101468423D01*
X143134406Y-101409073D01*
X144636700Y-101409073D01*
X144724054Y-101620486D01*
X144885663Y-101782377D01*
X145096924Y-101870100D01*
X145325673Y-101870300D01*
X145537086Y-101782946D01*
X145698977Y-101621337D01*
X145786700Y-101410076D01*
X145786878Y-101205873D01*
X150808900Y-101205873D01*
X150896254Y-101417286D01*
X151057863Y-101579177D01*
X151269124Y-101666900D01*
X151497873Y-101667100D01*
X151709286Y-101579746D01*
X151871177Y-101418137D01*
X151896034Y-101358273D01*
X153399700Y-101358273D01*
X153487054Y-101569686D01*
X153648663Y-101731577D01*
X153859924Y-101819300D01*
X154088673Y-101819500D01*
X154300086Y-101732146D01*
X154461977Y-101570537D01*
X154549700Y-101359276D01*
X154549723Y-101332873D01*
X159470300Y-101332873D01*
X159557654Y-101544286D01*
X159719263Y-101706177D01*
X159930524Y-101793900D01*
X160159273Y-101794100D01*
X160370686Y-101706746D01*
X160532577Y-101545137D01*
X160558015Y-101483873D01*
X163944900Y-101483873D01*
X164015675Y-101655161D01*
X163945100Y-101825124D01*
X163944900Y-102053873D01*
X164032254Y-102265286D01*
X164193863Y-102427177D01*
X164405124Y-102514900D01*
X164633873Y-102515100D01*
X164845286Y-102427746D01*
X165007177Y-102266137D01*
X165094900Y-102054876D01*
X165095100Y-101826127D01*
X165024325Y-101654839D01*
X165094900Y-101484876D01*
X165094995Y-101375244D01*
X169074750Y-101375244D01*
X169241862Y-101779686D01*
X169551027Y-102089391D01*
X169955177Y-102257208D01*
X170392784Y-102257590D01*
X170797226Y-102090478D01*
X171106931Y-101781313D01*
X171274748Y-101377163D01*
X171275130Y-100939556D01*
X171108018Y-100535114D01*
X170798853Y-100225409D01*
X170394703Y-100057592D01*
X169957096Y-100057210D01*
X169552654Y-100224322D01*
X169242949Y-100533487D01*
X169075132Y-100937637D01*
X169074750Y-101375244D01*
X165094995Y-101375244D01*
X165095100Y-101256127D01*
X165007746Y-101044714D01*
X164846137Y-100882823D01*
X164634876Y-100795100D01*
X164406127Y-100794900D01*
X164194714Y-100882254D01*
X164032823Y-101043863D01*
X163945100Y-101255124D01*
X163944900Y-101483873D01*
X160558015Y-101483873D01*
X160620300Y-101333876D01*
X160620500Y-101105127D01*
X160533146Y-100893714D01*
X160371537Y-100731823D01*
X160160276Y-100644100D01*
X159931527Y-100643900D01*
X159720114Y-100731254D01*
X159558223Y-100892863D01*
X159470500Y-101104124D01*
X159470300Y-101332873D01*
X154549723Y-101332873D01*
X154549900Y-101130527D01*
X154462546Y-100919114D01*
X154300937Y-100757223D01*
X154089676Y-100669500D01*
X153860927Y-100669300D01*
X153649514Y-100756654D01*
X153487623Y-100918263D01*
X153399900Y-101129524D01*
X153399700Y-101358273D01*
X151896034Y-101358273D01*
X151958900Y-101206876D01*
X151959100Y-100978127D01*
X151871746Y-100766714D01*
X151710137Y-100604823D01*
X151498876Y-100517100D01*
X151270127Y-100516900D01*
X151058714Y-100604254D01*
X150896823Y-100765863D01*
X150809100Y-100977124D01*
X150808900Y-101205873D01*
X145786878Y-101205873D01*
X145786900Y-101181327D01*
X145699546Y-100969914D01*
X145537937Y-100808023D01*
X145326676Y-100720300D01*
X145097927Y-100720100D01*
X144886514Y-100807454D01*
X144724623Y-100969063D01*
X144636900Y-101180324D01*
X144636700Y-101409073D01*
X143134406Y-101409073D01*
X143066076Y-101380700D01*
X142965743Y-101380612D01*
X143045286Y-101347746D01*
X143207177Y-101186137D01*
X143294900Y-100974876D01*
X143295100Y-100746127D01*
X143207746Y-100534714D01*
X143046137Y-100372823D01*
X142834876Y-100285100D01*
X142606127Y-100284900D01*
X142394714Y-100372254D01*
X142232823Y-100533863D01*
X142145100Y-100745124D01*
X142144900Y-100973873D01*
X141928718Y-100973873D01*
X141887746Y-100874714D01*
X141726137Y-100712823D01*
X141514876Y-100625100D01*
X141286127Y-100624900D01*
X141074714Y-100712254D01*
X140912823Y-100873863D01*
X140825100Y-101085124D01*
X140824900Y-101313873D01*
X140351206Y-101313873D01*
X140351300Y-101206727D01*
X140263946Y-100995314D01*
X140102337Y-100833423D01*
X139891076Y-100745700D01*
X139662327Y-100745500D01*
X139450914Y-100832854D01*
X139289023Y-100994463D01*
X139201300Y-101205724D01*
X139201100Y-101434473D01*
X136729546Y-101434473D01*
X136729546Y-100990400D01*
X136703398Y-100851434D01*
X136621269Y-100723801D01*
X136495954Y-100638177D01*
X136347200Y-100608054D01*
X134315200Y-100608054D01*
X134176234Y-100634202D01*
X134048601Y-100716331D01*
X133962977Y-100841646D01*
X133932854Y-100990400D01*
X124852358Y-100990400D01*
X124852358Y-97776988D01*
X124944669Y-97999858D01*
X125264684Y-98335528D01*
X125688795Y-98523182D01*
X125873440Y-98468269D01*
X125873440Y-97438280D01*
X126023440Y-97438280D01*
X126023440Y-98468269D01*
X126208085Y-98523182D01*
X126632196Y-98335528D01*
X126952211Y-97999858D01*
X127108334Y-97622924D01*
X127053247Y-97438280D01*
X126023440Y-97438280D01*
X125873440Y-97438280D01*
X125853440Y-97438280D01*
X125853440Y-97363280D01*
X127225574Y-97363280D01*
X127319857Y-97837272D01*
X127588352Y-98239102D01*
X127990182Y-98507597D01*
X128464174Y-98601880D01*
X128512706Y-98601880D01*
X128986698Y-98507597D01*
X129388528Y-98239102D01*
X129657023Y-97837272D01*
X129751306Y-97363280D01*
X129765574Y-97363280D01*
X129859857Y-97837272D01*
X130128352Y-98239102D01*
X130530182Y-98507597D01*
X131004174Y-98601880D01*
X131052706Y-98601880D01*
X131526698Y-98507597D01*
X131928528Y-98239102D01*
X132197023Y-97837272D01*
X132291306Y-97363280D01*
X132305574Y-97363280D01*
X132399857Y-97837272D01*
X132668352Y-98239102D01*
X133070182Y-98507597D01*
X133544174Y-98601880D01*
X133592706Y-98601880D01*
X134066698Y-98507597D01*
X134468528Y-98239102D01*
X134737023Y-97837272D01*
X134831306Y-97363280D01*
X134845574Y-97363280D01*
X134939857Y-97837272D01*
X135208352Y-98239102D01*
X135610182Y-98507597D01*
X136084174Y-98601880D01*
X136132706Y-98601880D01*
X136606698Y-98507597D01*
X137008528Y-98239102D01*
X137277023Y-97837272D01*
X137371306Y-97363280D01*
X137385574Y-97363280D01*
X137479857Y-97837272D01*
X137748352Y-98239102D01*
X138150182Y-98507597D01*
X138624174Y-98601880D01*
X138672706Y-98601880D01*
X139146698Y-98507597D01*
X139548528Y-98239102D01*
X139817023Y-97837272D01*
X139911306Y-97363280D01*
X139925574Y-97363280D01*
X140019857Y-97837272D01*
X140288352Y-98239102D01*
X140690182Y-98507597D01*
X141164174Y-98601880D01*
X141212706Y-98601880D01*
X141686698Y-98507597D01*
X142088528Y-98239102D01*
X142357023Y-97837272D01*
X142451306Y-97363280D01*
X142465574Y-97363280D01*
X142559857Y-97837272D01*
X142828352Y-98239102D01*
X143230182Y-98507597D01*
X143704174Y-98601880D01*
X143752706Y-98601880D01*
X144226698Y-98507597D01*
X144628528Y-98239102D01*
X144897023Y-97837272D01*
X144939659Y-97622924D01*
X145108546Y-97622924D01*
X145264669Y-97999858D01*
X145584684Y-98335528D01*
X146008795Y-98523182D01*
X146193440Y-98468269D01*
X146193440Y-97438280D01*
X146343440Y-97438280D01*
X146343440Y-98468269D01*
X146528085Y-98523182D01*
X146952196Y-98335528D01*
X147272211Y-97999858D01*
X147428334Y-97622924D01*
X147373247Y-97438280D01*
X146343440Y-97438280D01*
X146193440Y-97438280D01*
X145163633Y-97438280D01*
X145108546Y-97622924D01*
X144939659Y-97622924D01*
X144991306Y-97363280D01*
X147545574Y-97363280D01*
X147639857Y-97837272D01*
X147908352Y-98239102D01*
X148310182Y-98507597D01*
X148784174Y-98601880D01*
X148832706Y-98601880D01*
X149306698Y-98507597D01*
X149708528Y-98239102D01*
X149977023Y-97837272D01*
X150071306Y-97363280D01*
X150085574Y-97363280D01*
X150179857Y-97837272D01*
X150448352Y-98239102D01*
X150850182Y-98507597D01*
X151324174Y-98601880D01*
X151372706Y-98601880D01*
X151846698Y-98507597D01*
X152037998Y-98379774D01*
X152102254Y-98535286D01*
X152263863Y-98697177D01*
X152475124Y-98784900D01*
X152703873Y-98785100D01*
X152915286Y-98697746D01*
X153077177Y-98536137D01*
X153154436Y-98350076D01*
X153390182Y-98507597D01*
X153864174Y-98601880D01*
X153912706Y-98601880D01*
X154386698Y-98507597D01*
X154788528Y-98239102D01*
X155057023Y-97837272D01*
X155151306Y-97363280D01*
X155057023Y-96889288D01*
X154796695Y-96499680D01*
X155182494Y-96499680D01*
X155182494Y-98226880D01*
X155208642Y-98365846D01*
X155290771Y-98493479D01*
X155416086Y-98579103D01*
X155564840Y-98609226D01*
X157292040Y-98609226D01*
X157431006Y-98583078D01*
X157558639Y-98500949D01*
X157644263Y-98375634D01*
X157674386Y-98226880D01*
X157674386Y-96714114D01*
X158873072Y-96714114D01*
X159195902Y-97495423D01*
X159793153Y-98093717D01*
X160573897Y-98417910D01*
X161419274Y-98418648D01*
X162023277Y-98169079D01*
X169744966Y-98169079D01*
X169753544Y-98696127D01*
X169938733Y-99143213D01*
X170124796Y-99254258D01*
X170968014Y-98411040D01*
X171180146Y-98411040D01*
X172023364Y-99254258D01*
X172209427Y-99143213D01*
X172403194Y-98653001D01*
X172394616Y-98125953D01*
X172209427Y-97678867D01*
X172023364Y-97567822D01*
X171180146Y-98411040D01*
X170968014Y-98411040D01*
X170124796Y-97567822D01*
X169938733Y-97678867D01*
X169744966Y-98169079D01*
X162023277Y-98169079D01*
X162200583Y-98095818D01*
X162798877Y-97498567D01*
X162814162Y-97461756D01*
X170230862Y-97461756D01*
X171074080Y-98304974D01*
X171917298Y-97461756D01*
X171806253Y-97275693D01*
X171316041Y-97081926D01*
X170788993Y-97090504D01*
X170341907Y-97275693D01*
X170230862Y-97461756D01*
X162814162Y-97461756D01*
X163029205Y-96943873D01*
X164464900Y-96943873D01*
X164552254Y-97155286D01*
X164713863Y-97317177D01*
X164925124Y-97404900D01*
X165153873Y-97405100D01*
X165365286Y-97317746D01*
X165527177Y-97156137D01*
X165614900Y-96944876D01*
X165615100Y-96716127D01*
X165527746Y-96504714D01*
X165366137Y-96342823D01*
X165176004Y-96263873D01*
X168164900Y-96263873D01*
X168252254Y-96475286D01*
X168413863Y-96637177D01*
X168625124Y-96724900D01*
X168853873Y-96725100D01*
X169065286Y-96637746D01*
X169227177Y-96476137D01*
X169314900Y-96264876D01*
X169315100Y-96036127D01*
X169227746Y-95824714D01*
X169066137Y-95662823D01*
X168854876Y-95575100D01*
X168626127Y-95574900D01*
X168414714Y-95662254D01*
X168252823Y-95823863D01*
X168165100Y-96035124D01*
X168164900Y-96263873D01*
X165176004Y-96263873D01*
X165154876Y-96255100D01*
X164926127Y-96254900D01*
X164714714Y-96342254D01*
X164552823Y-96503863D01*
X164465100Y-96715124D01*
X164464900Y-96943873D01*
X163029205Y-96943873D01*
X163123070Y-96717823D01*
X163123808Y-95872446D01*
X162800978Y-95091137D01*
X162294599Y-94583873D01*
X168104900Y-94583873D01*
X168192254Y-94795286D01*
X168353863Y-94957177D01*
X168565124Y-95044900D01*
X168793873Y-95045100D01*
X169005286Y-94957746D01*
X169167177Y-94796137D01*
X169254900Y-94584876D01*
X169255100Y-94356127D01*
X169167746Y-94144714D01*
X169006137Y-93982823D01*
X168794876Y-93895100D01*
X168566127Y-93894900D01*
X168354714Y-93982254D01*
X168192823Y-94143863D01*
X168105100Y-94355124D01*
X168104900Y-94583873D01*
X162294599Y-94583873D01*
X162203727Y-94492843D01*
X161422983Y-94168650D01*
X160577606Y-94167912D01*
X159796297Y-94490742D01*
X159198003Y-95087993D01*
X158873810Y-95868737D01*
X158873072Y-96714114D01*
X157674386Y-96714114D01*
X157674386Y-96499680D01*
X157648238Y-96360714D01*
X157566109Y-96233081D01*
X157440794Y-96147457D01*
X157292040Y-96117334D01*
X155564840Y-96117334D01*
X155425874Y-96143482D01*
X155298241Y-96225611D01*
X155212617Y-96350926D01*
X155182494Y-96499680D01*
X154796695Y-96499680D01*
X154788528Y-96487458D01*
X154386698Y-96218963D01*
X153912706Y-96124680D01*
X153864174Y-96124680D01*
X153390182Y-96218963D01*
X152988352Y-96487458D01*
X152719857Y-96889288D01*
X152625574Y-97363280D01*
X152679638Y-97635078D01*
X152557263Y-97634971D01*
X152611306Y-97363280D01*
X152517023Y-96889288D01*
X152248528Y-96487458D01*
X151846698Y-96218963D01*
X151372706Y-96124680D01*
X151324174Y-96124680D01*
X150850182Y-96218963D01*
X150448352Y-96487458D01*
X150179857Y-96889288D01*
X150085574Y-97363280D01*
X150071306Y-97363280D01*
X149977023Y-96889288D01*
X149708528Y-96487458D01*
X149306698Y-96218963D01*
X148832706Y-96124680D01*
X148784174Y-96124680D01*
X148310182Y-96218963D01*
X147908352Y-96487458D01*
X147639857Y-96889288D01*
X147545574Y-97363280D01*
X144991306Y-97363280D01*
X144939660Y-97103636D01*
X145108546Y-97103636D01*
X145163633Y-97288280D01*
X146193440Y-97288280D01*
X146193440Y-96258291D01*
X146343440Y-96258291D01*
X146343440Y-97288280D01*
X147373247Y-97288280D01*
X147428334Y-97103636D01*
X147272211Y-96726702D01*
X146952196Y-96391032D01*
X146528085Y-96203378D01*
X146343440Y-96258291D01*
X146193440Y-96258291D01*
X146008795Y-96203378D01*
X145584684Y-96391032D01*
X145264669Y-96726702D01*
X145108546Y-97103636D01*
X144939660Y-97103636D01*
X144897023Y-96889288D01*
X144628528Y-96487458D01*
X144226698Y-96218963D01*
X143752706Y-96124680D01*
X143704174Y-96124680D01*
X143230182Y-96218963D01*
X142828352Y-96487458D01*
X142559857Y-96889288D01*
X142465574Y-97363280D01*
X142451306Y-97363280D01*
X142357023Y-96889288D01*
X142088528Y-96487458D01*
X141686698Y-96218963D01*
X141212706Y-96124680D01*
X141164174Y-96124680D01*
X140690182Y-96218963D01*
X140288352Y-96487458D01*
X140019857Y-96889288D01*
X139925574Y-97363280D01*
X139911306Y-97363280D01*
X139817023Y-96889288D01*
X139548528Y-96487458D01*
X139146698Y-96218963D01*
X138672706Y-96124680D01*
X138624174Y-96124680D01*
X138150182Y-96218963D01*
X137748352Y-96487458D01*
X137479857Y-96889288D01*
X137385574Y-97363280D01*
X137371306Y-97363280D01*
X137277023Y-96889288D01*
X137008528Y-96487458D01*
X136606698Y-96218963D01*
X136132706Y-96124680D01*
X136084174Y-96124680D01*
X135610182Y-96218963D01*
X135208352Y-96487458D01*
X134939857Y-96889288D01*
X134845574Y-97363280D01*
X134831306Y-97363280D01*
X134737023Y-96889288D01*
X134468528Y-96487458D01*
X134066698Y-96218963D01*
X133592706Y-96124680D01*
X133544174Y-96124680D01*
X133070182Y-96218963D01*
X132668352Y-96487458D01*
X132399857Y-96889288D01*
X132305574Y-97363280D01*
X132291306Y-97363280D01*
X132197023Y-96889288D01*
X131928528Y-96487458D01*
X131526698Y-96218963D01*
X131052706Y-96124680D01*
X131004174Y-96124680D01*
X130530182Y-96218963D01*
X130128352Y-96487458D01*
X129859857Y-96889288D01*
X129765574Y-97363280D01*
X129751306Y-97363280D01*
X129657023Y-96889288D01*
X129388528Y-96487458D01*
X128986698Y-96218963D01*
X128512706Y-96124680D01*
X128464174Y-96124680D01*
X127990182Y-96218963D01*
X127588352Y-96487458D01*
X127319857Y-96889288D01*
X127225574Y-97363280D01*
X125853440Y-97363280D01*
X125853440Y-97288280D01*
X125873440Y-97288280D01*
X125873440Y-96258291D01*
X126023440Y-96258291D01*
X126023440Y-97288280D01*
X127053247Y-97288280D01*
X127108334Y-97103636D01*
X126952211Y-96726702D01*
X126632196Y-96391032D01*
X126208085Y-96203378D01*
X126023440Y-96258291D01*
X125873440Y-96258291D01*
X125688795Y-96203378D01*
X125264684Y-96391032D01*
X124944669Y-96726702D01*
X124852358Y-96949572D01*
X124852358Y-95405777D01*
X125048352Y-95699102D01*
X125450182Y-95967597D01*
X125924174Y-96061880D01*
X125972706Y-96061880D01*
X126446698Y-95967597D01*
X126848528Y-95699102D01*
X127117023Y-95297272D01*
X127211306Y-94823280D01*
X127225574Y-94823280D01*
X127319857Y-95297272D01*
X127588352Y-95699102D01*
X127990182Y-95967597D01*
X128464174Y-96061880D01*
X128512706Y-96061880D01*
X128986698Y-95967597D01*
X129388528Y-95699102D01*
X129657023Y-95297272D01*
X129751306Y-94823280D01*
X129765574Y-94823280D01*
X129859857Y-95297272D01*
X130128352Y-95699102D01*
X130530182Y-95967597D01*
X131004174Y-96061880D01*
X131052706Y-96061880D01*
X131526698Y-95967597D01*
X131928528Y-95699102D01*
X132197023Y-95297272D01*
X132239659Y-95082924D01*
X132408546Y-95082924D01*
X132564669Y-95459858D01*
X132884684Y-95795528D01*
X133308795Y-95983182D01*
X133493440Y-95928269D01*
X133493440Y-94898280D01*
X133643440Y-94898280D01*
X133643440Y-95928269D01*
X133828085Y-95983182D01*
X134252196Y-95795528D01*
X134572211Y-95459858D01*
X134728334Y-95082924D01*
X134673247Y-94898280D01*
X133643440Y-94898280D01*
X133493440Y-94898280D01*
X132463633Y-94898280D01*
X132408546Y-95082924D01*
X132239659Y-95082924D01*
X132291306Y-94823280D01*
X134845574Y-94823280D01*
X134939857Y-95297272D01*
X135208352Y-95699102D01*
X135610182Y-95967597D01*
X136084174Y-96061880D01*
X136132706Y-96061880D01*
X136606698Y-95967597D01*
X137008528Y-95699102D01*
X137277023Y-95297272D01*
X137371306Y-94823280D01*
X137385574Y-94823280D01*
X137479857Y-95297272D01*
X137748352Y-95699102D01*
X138150182Y-95967597D01*
X138624174Y-96061880D01*
X138672706Y-96061880D01*
X139146698Y-95967597D01*
X139548528Y-95699102D01*
X139817023Y-95297272D01*
X139911306Y-94823280D01*
X139925574Y-94823280D01*
X140019857Y-95297272D01*
X140288352Y-95699102D01*
X140690182Y-95967597D01*
X141164174Y-96061880D01*
X141212706Y-96061880D01*
X141686698Y-95967597D01*
X142088528Y-95699102D01*
X142357023Y-95297272D01*
X142451306Y-94823280D01*
X142465574Y-94823280D01*
X142559857Y-95297272D01*
X142828352Y-95699102D01*
X143230182Y-95967597D01*
X143704174Y-96061880D01*
X143752706Y-96061880D01*
X144226698Y-95967597D01*
X144628528Y-95699102D01*
X144897023Y-95297272D01*
X144991306Y-94823280D01*
X145005574Y-94823280D01*
X145099857Y-95297272D01*
X145368352Y-95699102D01*
X145770182Y-95967597D01*
X146244174Y-96061880D01*
X146292706Y-96061880D01*
X146766698Y-95967597D01*
X147168528Y-95699102D01*
X147437023Y-95297272D01*
X147531306Y-94823280D01*
X147545574Y-94823280D01*
X147639857Y-95297272D01*
X147908352Y-95699102D01*
X148310182Y-95967597D01*
X148784174Y-96061880D01*
X148832706Y-96061880D01*
X149306698Y-95967597D01*
X149708528Y-95699102D01*
X149977023Y-95297272D01*
X150019659Y-95082924D01*
X150188546Y-95082924D01*
X150344669Y-95459858D01*
X150664684Y-95795528D01*
X151088795Y-95983182D01*
X151273440Y-95928269D01*
X151273440Y-94898280D01*
X151423440Y-94898280D01*
X151423440Y-95928269D01*
X151608085Y-95983182D01*
X152032196Y-95795528D01*
X152352211Y-95459858D01*
X152508334Y-95082924D01*
X152453247Y-94898280D01*
X151423440Y-94898280D01*
X151273440Y-94898280D01*
X150243633Y-94898280D01*
X150188546Y-95082924D01*
X150019659Y-95082924D01*
X150071306Y-94823280D01*
X150019660Y-94563636D01*
X150188546Y-94563636D01*
X150243633Y-94748280D01*
X151273440Y-94748280D01*
X151273440Y-93718291D01*
X151423440Y-93718291D01*
X151423440Y-94748280D01*
X152453247Y-94748280D01*
X152508334Y-94563636D01*
X152438461Y-94394938D01*
X152623873Y-94395100D01*
X152718524Y-94355991D01*
X152625574Y-94823280D01*
X152719857Y-95297272D01*
X152988352Y-95699102D01*
X153390182Y-95967597D01*
X153864174Y-96061880D01*
X153912706Y-96061880D01*
X154386698Y-95967597D01*
X154788528Y-95699102D01*
X155057023Y-95297272D01*
X155151306Y-94823280D01*
X155165574Y-94823280D01*
X155259857Y-95297272D01*
X155528352Y-95699102D01*
X155930182Y-95967597D01*
X156404174Y-96061880D01*
X156452706Y-96061880D01*
X156926698Y-95967597D01*
X157328528Y-95699102D01*
X157597023Y-95297272D01*
X157691306Y-94823280D01*
X157597023Y-94349288D01*
X157332815Y-93953873D01*
X158504900Y-93953873D01*
X158592254Y-94165286D01*
X158753863Y-94327177D01*
X158965124Y-94414900D01*
X159193873Y-94415100D01*
X159405286Y-94327746D01*
X159567177Y-94166137D01*
X159654900Y-93954876D01*
X159654997Y-93843873D01*
X166414900Y-93843873D01*
X166502254Y-94055286D01*
X166663863Y-94217177D01*
X166875124Y-94304900D01*
X167103873Y-94305100D01*
X167315286Y-94217746D01*
X167477177Y-94056137D01*
X167564900Y-93844876D01*
X167565100Y-93616127D01*
X167477746Y-93404714D01*
X167316137Y-93242823D01*
X167104876Y-93155100D01*
X166876127Y-93154900D01*
X166664714Y-93242254D01*
X166502823Y-93403863D01*
X166415100Y-93615124D01*
X166414900Y-93843873D01*
X159654997Y-93843873D01*
X159655100Y-93726127D01*
X159567746Y-93514714D01*
X159406137Y-93352823D01*
X159194876Y-93265100D01*
X158966127Y-93264900D01*
X158754714Y-93352254D01*
X158592823Y-93513863D01*
X158505100Y-93725124D01*
X158504900Y-93953873D01*
X157332815Y-93953873D01*
X157328528Y-93947458D01*
X156926698Y-93678963D01*
X156452706Y-93584680D01*
X156404174Y-93584680D01*
X155930182Y-93678963D01*
X155528352Y-93947458D01*
X155259857Y-94349288D01*
X155165574Y-94823280D01*
X155151306Y-94823280D01*
X155057023Y-94349288D01*
X154788528Y-93947458D01*
X154386698Y-93678963D01*
X153912706Y-93584680D01*
X153864174Y-93584680D01*
X153390182Y-93678963D01*
X153084945Y-93882916D01*
X153085100Y-93706127D01*
X152997746Y-93494714D01*
X152836137Y-93332823D01*
X152624876Y-93245100D01*
X152396127Y-93244900D01*
X152184714Y-93332254D01*
X152022823Y-93493863D01*
X151935100Y-93705124D01*
X151935010Y-93808031D01*
X151608085Y-93663378D01*
X151423440Y-93718291D01*
X151273440Y-93718291D01*
X151088795Y-93663378D01*
X150664684Y-93851032D01*
X150344669Y-94186702D01*
X150188546Y-94563636D01*
X150019660Y-94563636D01*
X149977023Y-94349288D01*
X149708528Y-93947458D01*
X149306698Y-93678963D01*
X148832706Y-93584680D01*
X148784174Y-93584680D01*
X148310182Y-93678963D01*
X147908352Y-93947458D01*
X147639857Y-94349288D01*
X147545574Y-94823280D01*
X147531306Y-94823280D01*
X147437023Y-94349288D01*
X147168528Y-93947458D01*
X146766698Y-93678963D01*
X146292706Y-93584680D01*
X146244174Y-93584680D01*
X145770182Y-93678963D01*
X145368352Y-93947458D01*
X145099857Y-94349288D01*
X145005574Y-94823280D01*
X144991306Y-94823280D01*
X144897023Y-94349288D01*
X144628528Y-93947458D01*
X144226698Y-93678963D01*
X143752706Y-93584680D01*
X143704174Y-93584680D01*
X143230182Y-93678963D01*
X142828352Y-93947458D01*
X142559857Y-94349288D01*
X142465574Y-94823280D01*
X142451306Y-94823280D01*
X142357023Y-94349288D01*
X142088528Y-93947458D01*
X141686698Y-93678963D01*
X141212706Y-93584680D01*
X141164174Y-93584680D01*
X140690182Y-93678963D01*
X140288352Y-93947458D01*
X140019857Y-94349288D01*
X139925574Y-94823280D01*
X139911306Y-94823280D01*
X139817023Y-94349288D01*
X139548528Y-93947458D01*
X139146698Y-93678963D01*
X138672706Y-93584680D01*
X138624174Y-93584680D01*
X138150182Y-93678963D01*
X137748352Y-93947458D01*
X137479857Y-94349288D01*
X137385574Y-94823280D01*
X137371306Y-94823280D01*
X137277023Y-94349288D01*
X137008528Y-93947458D01*
X136606698Y-93678963D01*
X136132706Y-93584680D01*
X136084174Y-93584680D01*
X135610182Y-93678963D01*
X135208352Y-93947458D01*
X134939857Y-94349288D01*
X134845574Y-94823280D01*
X132291306Y-94823280D01*
X132239660Y-94563636D01*
X132408546Y-94563636D01*
X132463633Y-94748280D01*
X133493440Y-94748280D01*
X133493440Y-93718291D01*
X133643440Y-93718291D01*
X133643440Y-94748280D01*
X134673247Y-94748280D01*
X134728334Y-94563636D01*
X134572211Y-94186702D01*
X134252196Y-93851032D01*
X133828085Y-93663378D01*
X133643440Y-93718291D01*
X133493440Y-93718291D01*
X133308795Y-93663378D01*
X132884684Y-93851032D01*
X132564669Y-94186702D01*
X132408546Y-94563636D01*
X132239660Y-94563636D01*
X132197023Y-94349288D01*
X131928528Y-93947458D01*
X131526698Y-93678963D01*
X131052706Y-93584680D01*
X131004174Y-93584680D01*
X130530182Y-93678963D01*
X130128352Y-93947458D01*
X129859857Y-94349288D01*
X129765574Y-94823280D01*
X129751306Y-94823280D01*
X129657023Y-94349288D01*
X129388528Y-93947458D01*
X128986698Y-93678963D01*
X128512706Y-93584680D01*
X128464174Y-93584680D01*
X127990182Y-93678963D01*
X127588352Y-93947458D01*
X127319857Y-94349288D01*
X127225574Y-94823280D01*
X127211306Y-94823280D01*
X127117023Y-94349288D01*
X126848528Y-93947458D01*
X126446698Y-93678963D01*
X125972706Y-93584680D01*
X125924174Y-93584680D01*
X125450182Y-93678963D01*
X125048352Y-93947458D01*
X124852358Y-94240783D01*
X124852358Y-92340553D01*
X170200194Y-92340553D01*
X169909091Y-92631148D01*
X169909091Y-92631148D01*
G37*
X169909091Y-92631148D02*
X169699319Y-93136336D01*
X169698842Y-93683345D01*
X169907732Y-94188897D01*
X170294188Y-94576029D01*
X170799376Y-94785801D01*
X171346385Y-94786278D01*
X171851937Y-94577388D01*
X172239069Y-94190932D01*
X172448841Y-93685744D01*
X172449318Y-93138735D01*
X172240428Y-92633183D01*
X171948309Y-92340553D01*
X174002358Y-92340553D01*
X174002358Y-99587684D01*
X173969616Y-99538682D01*
X173685746Y-99349005D01*
X173350898Y-99282400D01*
X172398982Y-99282400D01*
X172064134Y-99349005D01*
X171831140Y-99504688D01*
X171917298Y-99360324D01*
X171074080Y-98517106D01*
X170230862Y-99360324D01*
X170341907Y-99546387D01*
X170832119Y-99740154D01*
X171359167Y-99731576D01*
X171763200Y-99564220D01*
X171590587Y-99822552D01*
X171523982Y-100157400D01*
X171590587Y-100492248D01*
X171780264Y-100776118D01*
X172064134Y-100965795D01*
X172398982Y-101032400D01*
X173350898Y-101032400D01*
X173685746Y-100965795D01*
X173969616Y-100776118D01*
X174002358Y-100727116D01*
X174002358Y-106587684D01*
X173969616Y-106538682D01*
X173685746Y-106349005D01*
X173350898Y-106282400D01*
X172398982Y-106282400D01*
X172064134Y-106349005D01*
X171780264Y-106538682D01*
X171590587Y-106822552D01*
X171523982Y-107157400D01*
X171590587Y-107492248D01*
X171780264Y-107776118D01*
X172064134Y-107965795D01*
X172398982Y-108032400D01*
X173350898Y-108032400D01*
X173685746Y-107965795D01*
X173969616Y-107776118D01*
X174002358Y-107727116D01*
X174002358Y-127890553D01*
X162427358Y-127890553D01*
X162386305Y-127898719D01*
X162344445Y-127898719D01*
X161961762Y-127974839D01*
X161916889Y-127993426D01*
X161808558Y-128038298D01*
X161808555Y-128038301D01*
X161484134Y-128255071D01*
X161366876Y-128372329D01*
X161150103Y-128696753D01*
X161089908Y-128842076D01*
X161086644Y-128849957D01*
X161010524Y-129232640D01*
X161010524Y-129274500D01*
X161002358Y-129315553D01*
X161002358Y-135539512D01*
X160251318Y-136290553D01*
X141103399Y-136290553D01*
X140352358Y-135539513D01*
X140352358Y-130805245D01*
X140524924Y-130876900D01*
X140753673Y-130877100D01*
X140965086Y-130789746D01*
X141126977Y-130628137D01*
X141183475Y-130492073D01*
X148395900Y-130492073D01*
X148483254Y-130703486D01*
X148644863Y-130865377D01*
X148856124Y-130953100D01*
X149084873Y-130953300D01*
X149296286Y-130865946D01*
X149458177Y-130704337D01*
X149545900Y-130493076D01*
X149546100Y-130264327D01*
X149503767Y-130161873D01*
X150427900Y-130161873D01*
X150515254Y-130373286D01*
X150676863Y-130535177D01*
X150888124Y-130622900D01*
X151116873Y-130623100D01*
X151328286Y-130535746D01*
X151490177Y-130374137D01*
X151577900Y-130162876D01*
X151578100Y-129934127D01*
X151490746Y-129722714D01*
X151329137Y-129560823D01*
X151117876Y-129473100D01*
X150889127Y-129472900D01*
X150677714Y-129560254D01*
X150515823Y-129721863D01*
X150428100Y-129933124D01*
X150427900Y-130161873D01*
X149503767Y-130161873D01*
X149458746Y-130052914D01*
X149297137Y-129891023D01*
X149085876Y-129803300D01*
X148857127Y-129803100D01*
X148645714Y-129890454D01*
X148483823Y-130052063D01*
X148396100Y-130263324D01*
X148395900Y-130492073D01*
X141183475Y-130492073D01*
X141214700Y-130416876D01*
X141214900Y-130188127D01*
X141195169Y-130140375D01*
X141337873Y-130140500D01*
X141549286Y-130053146D01*
X141618479Y-129984073D01*
X146490900Y-129984073D01*
X146578254Y-130195486D01*
X146739863Y-130357377D01*
X146951124Y-130445100D01*
X147179873Y-130445300D01*
X147391286Y-130357946D01*
X147553177Y-130196337D01*
X147640900Y-129985076D01*
X147641100Y-129756327D01*
X147553746Y-129544914D01*
X147392137Y-129383023D01*
X147180876Y-129295300D01*
X146952127Y-129295100D01*
X146740714Y-129382454D01*
X146578823Y-129544063D01*
X146491100Y-129755324D01*
X146490900Y-129984073D01*
X141618479Y-129984073D01*
X141711177Y-129891537D01*
X141798900Y-129680276D01*
X141799100Y-129451527D01*
X141711746Y-129240114D01*
X141550137Y-129078223D01*
X141338876Y-128990500D01*
X141110127Y-128990300D01*
X140898714Y-129077654D01*
X140736823Y-129239263D01*
X140649100Y-129450524D01*
X140648900Y-129679273D01*
X140668631Y-129727025D01*
X140525927Y-129726900D01*
X140352358Y-129798617D01*
X140352358Y-129315553D01*
X140344192Y-129274500D01*
X140344192Y-129232640D01*
X140268072Y-128849957D01*
X140204613Y-128696753D01*
X140204610Y-128696750D01*
X139987840Y-128372329D01*
X139870582Y-128255071D01*
X139546158Y-128038298D01*
X139392955Y-127974839D01*
X139392954Y-127974839D01*
X139010271Y-127898719D01*
X138844445Y-127898719D01*
X138461762Y-127974839D01*
X138416889Y-127993426D01*
X138308558Y-128038298D01*
X138308555Y-128038301D01*
X137984134Y-128255071D01*
X137866876Y-128372329D01*
X137650103Y-128696753D01*
X137589908Y-128842076D01*
X137586644Y-128849957D01*
X137544715Y-129060748D01*
X137460737Y-128976623D01*
X137249476Y-128888900D01*
X137020727Y-128888700D01*
X136809314Y-128976054D01*
X136647423Y-129137663D01*
X136559700Y-129348924D01*
X136559500Y-129577673D01*
X136646854Y-129789086D01*
X136808463Y-129950977D01*
X137019724Y-130038700D01*
X137248473Y-130038900D01*
X137459886Y-129951546D01*
X137502358Y-129909148D01*
X137502358Y-135539512D01*
X136751318Y-136290553D01*
X127953399Y-136290553D01*
X127202358Y-135539513D01*
X127202358Y-129315553D01*
X127194192Y-129274500D01*
X127194192Y-129232640D01*
X127118072Y-128849957D01*
X127054613Y-128696753D01*
X127054610Y-128696750D01*
X127011531Y-128632277D01*
X127493283Y-128632277D01*
X127595829Y-128880457D01*
X127632884Y-128917576D01*
X127621897Y-128928544D01*
X127518917Y-129176545D01*
X127518683Y-129445077D01*
X127607366Y-129659707D01*
X127544317Y-129811545D01*
X127544083Y-130080077D01*
X127646629Y-130328257D01*
X127836344Y-130518303D01*
X128084345Y-130621283D01*
X128352877Y-130621517D01*
X128601057Y-130518971D01*
X128791103Y-130329256D01*
X128894083Y-130081255D01*
X128894317Y-129812723D01*
X128849672Y-129704673D01*
X133917900Y-129704673D01*
X134005254Y-129916086D01*
X134166863Y-130077977D01*
X134378124Y-130165700D01*
X134606873Y-130165900D01*
X134818286Y-130078546D01*
X134980177Y-129916937D01*
X135067900Y-129705676D01*
X135068100Y-129476927D01*
X134980746Y-129265514D01*
X134942070Y-129226770D01*
X134970686Y-129214946D01*
X135132577Y-129053337D01*
X135220300Y-128842076D01*
X135220500Y-128613327D01*
X135133146Y-128401914D01*
X134971537Y-128240023D01*
X134760276Y-128152300D01*
X134531527Y-128152100D01*
X134320114Y-128239454D01*
X134158223Y-128401063D01*
X134070500Y-128612324D01*
X134070300Y-128841073D01*
X134157654Y-129052486D01*
X134196330Y-129091230D01*
X134167714Y-129103054D01*
X134005823Y-129264663D01*
X133918100Y-129475924D01*
X133917900Y-129704673D01*
X128849672Y-129704673D01*
X128805634Y-129598093D01*
X128868683Y-129446255D01*
X128868917Y-129177723D01*
X128766371Y-128929543D01*
X128729316Y-128892424D01*
X128740303Y-128881456D01*
X128843283Y-128633455D01*
X128843517Y-128364923D01*
X128740971Y-128116743D01*
X128551256Y-127926697D01*
X128303255Y-127823717D01*
X128034723Y-127823483D01*
X127786543Y-127926029D01*
X127596497Y-128115744D01*
X127493517Y-128363745D01*
X127493283Y-128632277D01*
X127011531Y-128632277D01*
X126837840Y-128372329D01*
X126720582Y-128255071D01*
X126396158Y-128038298D01*
X126242955Y-127974839D01*
X126242954Y-127974839D01*
X125860271Y-127898719D01*
X125818411Y-127898719D01*
X125777358Y-127890553D01*
X124852358Y-127890553D01*
X124852358Y-126478873D01*
X131885900Y-126478873D01*
X131973254Y-126690286D01*
X132134863Y-126852177D01*
X132338175Y-126936599D01*
X132135714Y-127020254D01*
X131973823Y-127181863D01*
X131886100Y-127393124D01*
X131885900Y-127621873D01*
X131973254Y-127833286D01*
X132092326Y-127952566D01*
X131973823Y-128070863D01*
X131886100Y-128282124D01*
X131885900Y-128510873D01*
X131973254Y-128722286D01*
X132134863Y-128884177D01*
X132346124Y-128971900D01*
X132574873Y-128972100D01*
X132786286Y-128884746D01*
X132901918Y-128769315D01*
X132901900Y-128790273D01*
X132989254Y-129001686D01*
X133150863Y-129163577D01*
X133362124Y-129251300D01*
X133590873Y-129251500D01*
X133802286Y-129164146D01*
X133964177Y-129002537D01*
X134051900Y-128791276D01*
X134052100Y-128562527D01*
X133964746Y-128351114D01*
X133803137Y-128189223D01*
X133591876Y-128101500D01*
X133363127Y-128101300D01*
X133151714Y-128188654D01*
X133036082Y-128304085D01*
X133036100Y-128283127D01*
X132948746Y-128071714D01*
X132829674Y-127952434D01*
X132948177Y-127834137D01*
X133035900Y-127622876D01*
X133036034Y-127469473D01*
X141614100Y-127469473D01*
X141701454Y-127680886D01*
X141863063Y-127842777D01*
X142074324Y-127930500D01*
X142232738Y-127930639D01*
X142223900Y-127951924D01*
X142223700Y-128180673D01*
X142311054Y-128392086D01*
X142472663Y-128553977D01*
X142683924Y-128641700D01*
X142912673Y-128641900D01*
X143124086Y-128554546D01*
X143285977Y-128392937D01*
X143373700Y-128181676D01*
X143373900Y-127952927D01*
X143286546Y-127741514D01*
X143124937Y-127579623D01*
X142913676Y-127491900D01*
X142755262Y-127491761D01*
X142764100Y-127470476D01*
X142764100Y-127469473D01*
X154237900Y-127469473D01*
X154325254Y-127680886D01*
X154486863Y-127842777D01*
X154698124Y-127930500D01*
X154926873Y-127930700D01*
X155138286Y-127843346D01*
X155300177Y-127681737D01*
X155387900Y-127470476D01*
X155388100Y-127241727D01*
X155300746Y-127030314D01*
X155139137Y-126868423D01*
X154927876Y-126780700D01*
X154699127Y-126780500D01*
X154487714Y-126867854D01*
X154325823Y-127029463D01*
X154238100Y-127240724D01*
X154237900Y-127469473D01*
X142764100Y-127469473D01*
X142764300Y-127241727D01*
X142676946Y-127030314D01*
X142515337Y-126868423D01*
X142304076Y-126780700D01*
X142075327Y-126780500D01*
X141863914Y-126867854D01*
X141702023Y-127029463D01*
X141614300Y-127240724D01*
X141614100Y-127469473D01*
X133036034Y-127469473D01*
X133036100Y-127394127D01*
X132948746Y-127182714D01*
X132787137Y-127020823D01*
X132583825Y-126936401D01*
X132786286Y-126852746D01*
X132855479Y-126783673D01*
X136026100Y-126783673D01*
X136113454Y-126995086D01*
X136275063Y-127156977D01*
X136486324Y-127244700D01*
X136715073Y-127244900D01*
X136926486Y-127157546D01*
X137088377Y-126995937D01*
X137176100Y-126784676D01*
X137176170Y-126703873D01*
X138814900Y-126703873D01*
X138902254Y-126915286D01*
X139063863Y-127077177D01*
X139275124Y-127164900D01*
X139503873Y-127165100D01*
X139715286Y-127077746D01*
X139877177Y-126916137D01*
X139964900Y-126704876D01*
X139965053Y-126529673D01*
X142807900Y-126529673D01*
X142895254Y-126741086D01*
X143056863Y-126902977D01*
X143268124Y-126990700D01*
X143496873Y-126990900D01*
X143708286Y-126903546D01*
X143870177Y-126741937D01*
X143957900Y-126530676D01*
X143957964Y-126457633D01*
X144098263Y-126598177D01*
X144309524Y-126685900D01*
X144538273Y-126686100D01*
X144749686Y-126598746D01*
X144911577Y-126437137D01*
X144999300Y-126225876D01*
X144999300Y-126224873D01*
X149843700Y-126224873D01*
X149931054Y-126436286D01*
X150092663Y-126598177D01*
X150303924Y-126685900D01*
X150532673Y-126686100D01*
X150744086Y-126598746D01*
X150889612Y-126453473D01*
X151113700Y-126453473D01*
X151201054Y-126664886D01*
X151362663Y-126826777D01*
X151573924Y-126914500D01*
X151802673Y-126914700D01*
X152014086Y-126827346D01*
X152175977Y-126665737D01*
X152192358Y-126626286D01*
X152335924Y-126685900D01*
X152564673Y-126686100D01*
X152776086Y-126598746D01*
X152937977Y-126437137D01*
X153025700Y-126225876D01*
X153025900Y-125997127D01*
X152938546Y-125785714D01*
X152776937Y-125623823D01*
X152565676Y-125536100D01*
X152336927Y-125535900D01*
X152125514Y-125623254D01*
X151963623Y-125784863D01*
X151947242Y-125824314D01*
X151803676Y-125764700D01*
X151574927Y-125764500D01*
X151363514Y-125851854D01*
X151201623Y-126013463D01*
X151113900Y-126224724D01*
X151113700Y-126453473D01*
X150889612Y-126453473D01*
X150905977Y-126437137D01*
X150993700Y-126225876D01*
X150993900Y-125997127D01*
X150906546Y-125785714D01*
X150744937Y-125623823D01*
X150533676Y-125536100D01*
X150304927Y-125535900D01*
X150093514Y-125623254D01*
X149931623Y-125784863D01*
X149843900Y-125996124D01*
X149843700Y-126224873D01*
X144999300Y-126224873D01*
X144999500Y-125997127D01*
X144912146Y-125785714D01*
X144750537Y-125623823D01*
X144539276Y-125536100D01*
X144310527Y-125535900D01*
X144099114Y-125623254D01*
X143937223Y-125784863D01*
X143849500Y-125996124D01*
X143849436Y-126069167D01*
X143709137Y-125928623D01*
X143497876Y-125840900D01*
X143269127Y-125840700D01*
X143057714Y-125928054D01*
X142895823Y-126089663D01*
X142808100Y-126300924D01*
X142807900Y-126529673D01*
X139965053Y-126529673D01*
X139965100Y-126476127D01*
X139877746Y-126264714D01*
X139716137Y-126102823D01*
X139504876Y-126015100D01*
X139276127Y-126014900D01*
X139064714Y-126102254D01*
X138902823Y-126263863D01*
X138815100Y-126475124D01*
X138814900Y-126703873D01*
X137176170Y-126703873D01*
X137176300Y-126555927D01*
X137088946Y-126344514D01*
X136927337Y-126182623D01*
X136716076Y-126094900D01*
X136487327Y-126094700D01*
X136275914Y-126182054D01*
X136114023Y-126343663D01*
X136026300Y-126554924D01*
X136026100Y-126783673D01*
X132855479Y-126783673D01*
X132948177Y-126691137D01*
X133035900Y-126479876D01*
X133036100Y-126251127D01*
X133025253Y-126224873D01*
X134527500Y-126224873D01*
X134614854Y-126436286D01*
X134776463Y-126598177D01*
X134987724Y-126685900D01*
X135216473Y-126686100D01*
X135427886Y-126598746D01*
X135589777Y-126437137D01*
X135677500Y-126225876D01*
X135677700Y-125997127D01*
X135590346Y-125785714D01*
X135428737Y-125623823D01*
X135217476Y-125536100D01*
X134988727Y-125535900D01*
X134777314Y-125623254D01*
X134615423Y-125784863D01*
X134527700Y-125996124D01*
X134527500Y-126224873D01*
X133025253Y-126224873D01*
X132948746Y-126039714D01*
X132787137Y-125877823D01*
X132575876Y-125790100D01*
X132347127Y-125789900D01*
X132135714Y-125877254D01*
X131973823Y-126038863D01*
X131886100Y-126250124D01*
X131885900Y-126478873D01*
X124852358Y-126478873D01*
X124852358Y-124548473D01*
X149589700Y-124548473D01*
X149677054Y-124759886D01*
X149838663Y-124921777D01*
X150049924Y-125009500D01*
X150278673Y-125009700D01*
X150490086Y-124922346D01*
X150651977Y-124760737D01*
X150739700Y-124549476D01*
X150739900Y-124320727D01*
X150652546Y-124109314D01*
X150490937Y-123947423D01*
X150279676Y-123859700D01*
X150050927Y-123859500D01*
X149839514Y-123946854D01*
X149677623Y-124108463D01*
X149589900Y-124319724D01*
X149589700Y-124548473D01*
X124852358Y-124548473D01*
X124852358Y-122783873D01*
X139514900Y-122783873D01*
X139602254Y-122995286D01*
X139763863Y-123157177D01*
X139975124Y-123244900D01*
X140203873Y-123245100D01*
X140370798Y-123176128D01*
X140232823Y-123313863D01*
X140145100Y-123525124D01*
X140144900Y-123753873D01*
X140232254Y-123965286D01*
X140393863Y-124127177D01*
X140605124Y-124214900D01*
X140833873Y-124215100D01*
X141045286Y-124127746D01*
X141140014Y-124033183D01*
X141223863Y-124117179D01*
X141435124Y-124204902D01*
X141663873Y-124205102D01*
X141875286Y-124117748D01*
X142037177Y-123956139D01*
X142124900Y-123744878D01*
X142125100Y-123516129D01*
X142078717Y-123403873D01*
X154974900Y-123403873D01*
X155062254Y-123615286D01*
X155223863Y-123777177D01*
X155435124Y-123864900D01*
X155663873Y-123865100D01*
X155875286Y-123777746D01*
X156037177Y-123616137D01*
X156124900Y-123404876D01*
X156125100Y-123176127D01*
X156037746Y-122964714D01*
X155876137Y-122802823D01*
X155664876Y-122715100D01*
X155436127Y-122714900D01*
X155224714Y-122802254D01*
X155062823Y-122963863D01*
X154975100Y-123175124D01*
X154974900Y-123403873D01*
X142078717Y-123403873D01*
X142037746Y-123304716D01*
X141876137Y-123142825D01*
X141664876Y-123055102D01*
X141436127Y-123054902D01*
X141224714Y-123142256D01*
X141129986Y-123236819D01*
X141068344Y-123175069D01*
X141103873Y-123175100D01*
X141315286Y-123087746D01*
X141477177Y-122926137D01*
X141564900Y-122714876D01*
X141564962Y-122643473D01*
X142833300Y-122643473D01*
X142920654Y-122854886D01*
X143082263Y-123016777D01*
X143293524Y-123104500D01*
X143522273Y-123104700D01*
X143733686Y-123017346D01*
X143895577Y-122855737D01*
X143983300Y-122644476D01*
X143983500Y-122415727D01*
X143941415Y-122313873D01*
X157424900Y-122313873D01*
X157512254Y-122525286D01*
X157673863Y-122687177D01*
X157885124Y-122774900D01*
X158113873Y-122775100D01*
X158325286Y-122687746D01*
X158487177Y-122526137D01*
X158524908Y-122435272D01*
X158524900Y-122443873D01*
X158612254Y-122655286D01*
X158773863Y-122817177D01*
X158985124Y-122904900D01*
X159055021Y-122904961D01*
X159054900Y-123043873D01*
X159142254Y-123255286D01*
X159303863Y-123417177D01*
X159515124Y-123504900D01*
X159743873Y-123505100D01*
X159955286Y-123417746D01*
X160117177Y-123256137D01*
X160204900Y-123044876D01*
X160205100Y-122816127D01*
X160117746Y-122604714D01*
X159956137Y-122442823D01*
X159744876Y-122355100D01*
X159674979Y-122355039D01*
X159675100Y-122216127D01*
X159587746Y-122004714D01*
X159426137Y-121842823D01*
X159214876Y-121755100D01*
X158986127Y-121754900D01*
X158774714Y-121842254D01*
X158612823Y-122003863D01*
X158575092Y-122094728D01*
X158575100Y-122086127D01*
X158487746Y-121874714D01*
X158326137Y-121712823D01*
X158114876Y-121625100D01*
X157886127Y-121624900D01*
X157674714Y-121712254D01*
X157512823Y-121873863D01*
X157425100Y-122085124D01*
X157424900Y-122313873D01*
X143941415Y-122313873D01*
X143896146Y-122204314D01*
X143734537Y-122042423D01*
X143523276Y-121954700D01*
X143294527Y-121954500D01*
X143083114Y-122041854D01*
X142921223Y-122203463D01*
X142833500Y-122414724D01*
X142833300Y-122643473D01*
X141564962Y-122643473D01*
X141565100Y-122486127D01*
X141477746Y-122274714D01*
X141316137Y-122112823D01*
X141104876Y-122025100D01*
X140876127Y-122024900D01*
X140664714Y-122112254D01*
X140504924Y-122271765D01*
X140416137Y-122182823D01*
X140204876Y-122095100D01*
X139976127Y-122094900D01*
X139764714Y-122182254D01*
X139602823Y-122343863D01*
X139515100Y-122555124D01*
X139514900Y-122783873D01*
X124852358Y-122783873D01*
X124852358Y-121393873D01*
X137784900Y-121393873D01*
X137872254Y-121605286D01*
X138033863Y-121767177D01*
X138245124Y-121854900D01*
X138473873Y-121855100D01*
X138685286Y-121767746D01*
X138699183Y-121753873D01*
X150954900Y-121753873D01*
X151042254Y-121965286D01*
X151203863Y-122127177D01*
X151415124Y-122214900D01*
X151643873Y-122215100D01*
X151855286Y-122127746D01*
X152017177Y-121966137D01*
X152104900Y-121754876D01*
X152105100Y-121526127D01*
X152017746Y-121314714D01*
X151856137Y-121152823D01*
X151644876Y-121065100D01*
X151416127Y-121064900D01*
X151204714Y-121152254D01*
X151042823Y-121313863D01*
X150955100Y-121525124D01*
X150954900Y-121753873D01*
X138699183Y-121753873D01*
X138847177Y-121606137D01*
X138934900Y-121394876D01*
X138935014Y-121263873D01*
X143394900Y-121263873D01*
X143482254Y-121475286D01*
X143643863Y-121637177D01*
X143855124Y-121724900D01*
X144083873Y-121725100D01*
X144295286Y-121637746D01*
X144457177Y-121476137D01*
X144541994Y-121271873D01*
X148116500Y-121271873D01*
X148203854Y-121483286D01*
X148365463Y-121645177D01*
X148576724Y-121732900D01*
X148805473Y-121733100D01*
X149016886Y-121645746D01*
X149178777Y-121484137D01*
X149266500Y-121272876D01*
X149266700Y-121044127D01*
X149179346Y-120832714D01*
X149017737Y-120670823D01*
X148806476Y-120583100D01*
X148577727Y-120582900D01*
X148366314Y-120670254D01*
X148204423Y-120831863D01*
X148116700Y-121043124D01*
X148116500Y-121271873D01*
X144541994Y-121271873D01*
X144544900Y-121264876D01*
X144545100Y-121036127D01*
X144457746Y-120824714D01*
X144296137Y-120662823D01*
X144084876Y-120575100D01*
X143856127Y-120574900D01*
X143644714Y-120662254D01*
X143482823Y-120823863D01*
X143395100Y-121035124D01*
X143394900Y-121263873D01*
X138935014Y-121263873D01*
X138935100Y-121166127D01*
X138847746Y-120954714D01*
X138686137Y-120792823D01*
X138474876Y-120705100D01*
X138246127Y-120704900D01*
X138034714Y-120792254D01*
X137872823Y-120953863D01*
X137785100Y-121165124D01*
X137784900Y-121393873D01*
X124852358Y-121393873D01*
X124852358Y-118423677D01*
X126194883Y-118423677D01*
X126286431Y-118645239D01*
X126195117Y-118865145D01*
X126194883Y-119133677D01*
X126297429Y-119381857D01*
X126487144Y-119571903D01*
X126735145Y-119674883D01*
X127003677Y-119675117D01*
X127251857Y-119572571D01*
X127441903Y-119382856D01*
X127532833Y-119163873D01*
X134954900Y-119163873D01*
X135042254Y-119375286D01*
X135203863Y-119537177D01*
X135415124Y-119624900D01*
X135643873Y-119625100D01*
X135855286Y-119537746D01*
X136017177Y-119376137D01*
X136026421Y-119353873D01*
X136604900Y-119353873D01*
X136692254Y-119565286D01*
X136853863Y-119727177D01*
X137065124Y-119814900D01*
X137293873Y-119815100D01*
X137505286Y-119727746D01*
X137667177Y-119566137D01*
X137754900Y-119354876D01*
X137754922Y-119328894D01*
X144114900Y-119328894D01*
X144202254Y-119540307D01*
X144363863Y-119702198D01*
X144575124Y-119789921D01*
X144803873Y-119790121D01*
X144947702Y-119730692D01*
X144925100Y-119785124D01*
X144924900Y-120013873D01*
X145012254Y-120225286D01*
X145173863Y-120387177D01*
X145385124Y-120474900D01*
X145613873Y-120475100D01*
X145825286Y-120387746D01*
X145839183Y-120373873D01*
X157504900Y-120373873D01*
X157592254Y-120585286D01*
X157753863Y-120747177D01*
X157965124Y-120834900D01*
X158193873Y-120835100D01*
X158405286Y-120747746D01*
X158567177Y-120586137D01*
X158577750Y-120560673D01*
X170697100Y-120560673D01*
X170784454Y-120772086D01*
X170946063Y-120933977D01*
X171157324Y-121021700D01*
X171386073Y-121021900D01*
X171597486Y-120934546D01*
X171759377Y-120772937D01*
X171847100Y-120561676D01*
X171847300Y-120332927D01*
X171759946Y-120121514D01*
X171598337Y-119959623D01*
X171387076Y-119871900D01*
X171158327Y-119871700D01*
X170946914Y-119959054D01*
X170785023Y-120120663D01*
X170697300Y-120331924D01*
X170697100Y-120560673D01*
X158577750Y-120560673D01*
X158654900Y-120374876D01*
X158655100Y-120146127D01*
X158567746Y-119934714D01*
X158406137Y-119772823D01*
X158194876Y-119685100D01*
X157966127Y-119684900D01*
X157754714Y-119772254D01*
X157592823Y-119933863D01*
X157505100Y-120145124D01*
X157504900Y-120373873D01*
X145839183Y-120373873D01*
X145987177Y-120226137D01*
X146074900Y-120014876D01*
X146075100Y-119786127D01*
X145987746Y-119574714D01*
X145826137Y-119412823D01*
X145614876Y-119325100D01*
X145386127Y-119324900D01*
X145242298Y-119384329D01*
X145264900Y-119329897D01*
X145265100Y-119101148D01*
X145177746Y-118889735D01*
X145016137Y-118727844D01*
X144804876Y-118640121D01*
X144576127Y-118639921D01*
X144364714Y-118727275D01*
X144202823Y-118888884D01*
X144115100Y-119100145D01*
X144114900Y-119328894D01*
X137754922Y-119328894D01*
X137755100Y-119126127D01*
X137667746Y-118914714D01*
X137506137Y-118752823D01*
X137294876Y-118665100D01*
X137066127Y-118664900D01*
X136854714Y-118752254D01*
X136692823Y-118913863D01*
X136605100Y-119125124D01*
X136604900Y-119353873D01*
X136026421Y-119353873D01*
X136104900Y-119164876D01*
X136105100Y-118936127D01*
X136060282Y-118827660D01*
X136205286Y-118767746D01*
X136367177Y-118606137D01*
X136454900Y-118394876D01*
X136455100Y-118166127D01*
X136398384Y-118028863D01*
X152861317Y-118028863D01*
X152948671Y-118240276D01*
X153110280Y-118402167D01*
X153321541Y-118489890D01*
X153550290Y-118490090D01*
X153761703Y-118402736D01*
X153923594Y-118241127D01*
X154011317Y-118029866D01*
X154011517Y-117801117D01*
X153965800Y-117690473D01*
X155025300Y-117690473D01*
X155112654Y-117901886D01*
X155274263Y-118063777D01*
X155485524Y-118151500D01*
X155714273Y-118151700D01*
X155925686Y-118064346D01*
X156087577Y-117902737D01*
X156093992Y-117887289D01*
X156103863Y-117897177D01*
X156315124Y-117984900D01*
X156543873Y-117985100D01*
X156755286Y-117897746D01*
X156917177Y-117736137D01*
X157004900Y-117524876D01*
X157005100Y-117296127D01*
X157004169Y-117293873D01*
X170304900Y-117293873D01*
X170392254Y-117505286D01*
X170553863Y-117667177D01*
X170765124Y-117754900D01*
X170961510Y-117755072D01*
X170774714Y-117832254D01*
X170612823Y-117993863D01*
X170525100Y-118205124D01*
X170524900Y-118433873D01*
X170612254Y-118645286D01*
X170773863Y-118807177D01*
X170985124Y-118894900D01*
X171213873Y-118895100D01*
X171425286Y-118807746D01*
X171587177Y-118646137D01*
X171674900Y-118434876D01*
X171675100Y-118206127D01*
X171587746Y-117994714D01*
X171426137Y-117832823D01*
X171214876Y-117745100D01*
X171018490Y-117744928D01*
X171205286Y-117667746D01*
X171367177Y-117506137D01*
X171454900Y-117294876D01*
X171455100Y-117066127D01*
X171367746Y-116854714D01*
X171206137Y-116692823D01*
X170994876Y-116605100D01*
X170766127Y-116604900D01*
X170554714Y-116692254D01*
X170392823Y-116853863D01*
X170305100Y-117065124D01*
X170304900Y-117293873D01*
X157004169Y-117293873D01*
X156917746Y-117084714D01*
X156756137Y-116922823D01*
X156544876Y-116835100D01*
X156316127Y-116834900D01*
X156104714Y-116922254D01*
X155942823Y-117083863D01*
X155936408Y-117099311D01*
X155926537Y-117089423D01*
X155715276Y-117001700D01*
X155486527Y-117001500D01*
X155275114Y-117088854D01*
X155113223Y-117250463D01*
X155025500Y-117461724D01*
X155025300Y-117690473D01*
X153965800Y-117690473D01*
X153924163Y-117589704D01*
X153762554Y-117427813D01*
X153551293Y-117340090D01*
X153322544Y-117339890D01*
X153111131Y-117427244D01*
X152949240Y-117588853D01*
X152861517Y-117800114D01*
X152861317Y-118028863D01*
X136398384Y-118028863D01*
X136367746Y-117954714D01*
X136206137Y-117792823D01*
X135994876Y-117705100D01*
X135766127Y-117704900D01*
X135554714Y-117792254D01*
X135392823Y-117953863D01*
X135305100Y-118165124D01*
X135304900Y-118393873D01*
X135349718Y-118502340D01*
X135204714Y-118562254D01*
X135042823Y-118723863D01*
X134955100Y-118935124D01*
X134954900Y-119163873D01*
X127532833Y-119163873D01*
X127544883Y-119134855D01*
X127545117Y-118866323D01*
X127453569Y-118644761D01*
X127544883Y-118424855D01*
X127545117Y-118156323D01*
X127442571Y-117908143D01*
X127252856Y-117718097D01*
X127004855Y-117615117D01*
X126736323Y-117614883D01*
X126488143Y-117717429D01*
X126298097Y-117907144D01*
X126195117Y-118155145D01*
X126194883Y-118423677D01*
X124852358Y-118423677D01*
X124852358Y-117127374D01*
X136116897Y-117127374D01*
X136204251Y-117338787D01*
X136365860Y-117500678D01*
X136577121Y-117588401D01*
X136805870Y-117588601D01*
X137017283Y-117501247D01*
X137024669Y-117493873D01*
X150414900Y-117493873D01*
X150502254Y-117705286D01*
X150663863Y-117867177D01*
X150875124Y-117954900D01*
X151103873Y-117955100D01*
X151315286Y-117867746D01*
X151477177Y-117706137D01*
X151564900Y-117494876D01*
X151565100Y-117266127D01*
X151477746Y-117054714D01*
X151316137Y-116892823D01*
X151104876Y-116805100D01*
X150876127Y-116804900D01*
X150664714Y-116892254D01*
X150502823Y-117053863D01*
X150415100Y-117265124D01*
X150414900Y-117493873D01*
X137024669Y-117493873D01*
X137179174Y-117339638D01*
X137227438Y-117223404D01*
X137255124Y-117234900D01*
X137483873Y-117235100D01*
X137695286Y-117147746D01*
X137857177Y-116986137D01*
X137944900Y-116774876D01*
X137945022Y-116635057D01*
X137993873Y-116635100D01*
X138205286Y-116547746D01*
X138367177Y-116386137D01*
X138454900Y-116174876D01*
X138454906Y-116168460D01*
X138508696Y-116222344D01*
X138719957Y-116310067D01*
X138948706Y-116310267D01*
X139160119Y-116222913D01*
X139322010Y-116061304D01*
X139409733Y-115850043D01*
X139409933Y-115621294D01*
X139334559Y-115438874D01*
X157644900Y-115438874D01*
X157732254Y-115650287D01*
X157893863Y-115812178D01*
X158105124Y-115899901D01*
X158205519Y-115899989D01*
X158140457Y-115964937D01*
X158052734Y-116176198D01*
X158052534Y-116404947D01*
X158139888Y-116616360D01*
X158301497Y-116778251D01*
X158512758Y-116865974D01*
X158741507Y-116866174D01*
X158952920Y-116778820D01*
X159114811Y-116617211D01*
X159202534Y-116405950D01*
X159202734Y-116177201D01*
X159115380Y-115965788D01*
X158953771Y-115803897D01*
X158742510Y-115716174D01*
X158642115Y-115716086D01*
X158707177Y-115651138D01*
X158794900Y-115439877D01*
X158794975Y-115353673D01*
X162975500Y-115353673D01*
X163049216Y-115532078D01*
X162975700Y-115709124D01*
X162975500Y-115937873D01*
X163062854Y-116149286D01*
X163224463Y-116311177D01*
X163435724Y-116398900D01*
X163664473Y-116399100D01*
X163875886Y-116311746D01*
X164037777Y-116150137D01*
X164125500Y-115938876D01*
X164125700Y-115710127D01*
X164051984Y-115531722D01*
X164125500Y-115354676D01*
X164125678Y-115150473D01*
X170646300Y-115150473D01*
X170733654Y-115361886D01*
X170895263Y-115523777D01*
X170988601Y-115562534D01*
X170921514Y-115590254D01*
X170759623Y-115751863D01*
X170671900Y-115963124D01*
X170671700Y-116191873D01*
X170759054Y-116403286D01*
X170920663Y-116565177D01*
X171131924Y-116652900D01*
X171360673Y-116653100D01*
X171572086Y-116565746D01*
X171733977Y-116404137D01*
X171821700Y-116192876D01*
X171821900Y-115964127D01*
X171734546Y-115752714D01*
X171572937Y-115590823D01*
X171479599Y-115552066D01*
X171546686Y-115524346D01*
X171708577Y-115362737D01*
X171796300Y-115151476D01*
X171796500Y-114922727D01*
X171709146Y-114711314D01*
X171547537Y-114549423D01*
X171336276Y-114461700D01*
X171107527Y-114461500D01*
X170896114Y-114548854D01*
X170734223Y-114710463D01*
X170646500Y-114921724D01*
X170646300Y-115150473D01*
X164125678Y-115150473D01*
X164125700Y-115125927D01*
X164038346Y-114914514D01*
X163876737Y-114752623D01*
X163665476Y-114664900D01*
X163436727Y-114664700D01*
X163225314Y-114752054D01*
X163063423Y-114913663D01*
X162975700Y-115124924D01*
X162975500Y-115353673D01*
X158794975Y-115353673D01*
X158795100Y-115211128D01*
X158707746Y-114999715D01*
X158546137Y-114837824D01*
X158334876Y-114750101D01*
X158106127Y-114749901D01*
X157894714Y-114837255D01*
X157732823Y-114998864D01*
X157645100Y-115210125D01*
X157644900Y-115438874D01*
X139334559Y-115438874D01*
X139322579Y-115409881D01*
X139242813Y-115329975D01*
X139373873Y-115330090D01*
X139585286Y-115242736D01*
X139747177Y-115081127D01*
X139834900Y-114869866D01*
X139835100Y-114641117D01*
X139747746Y-114429704D01*
X139586137Y-114267813D01*
X139374876Y-114180090D01*
X139146127Y-114179890D01*
X138934714Y-114267244D01*
X138772823Y-114428853D01*
X138685100Y-114640114D01*
X138684900Y-114868863D01*
X138772254Y-115080276D01*
X138852020Y-115160182D01*
X138720960Y-115160067D01*
X138509547Y-115247421D01*
X138347656Y-115409030D01*
X138259933Y-115620291D01*
X138259927Y-115626707D01*
X138206137Y-115572823D01*
X137994876Y-115485100D01*
X137766127Y-115484900D01*
X137554714Y-115572254D01*
X137392823Y-115733863D01*
X137305100Y-115945124D01*
X137304978Y-116084943D01*
X137256127Y-116084900D01*
X137044714Y-116172254D01*
X136882823Y-116333863D01*
X136834559Y-116450097D01*
X136806873Y-116438601D01*
X136578124Y-116438401D01*
X136366711Y-116525755D01*
X136204820Y-116687364D01*
X136117097Y-116898625D01*
X136116897Y-117127374D01*
X124852358Y-117127374D01*
X124852358Y-115003873D01*
X129724900Y-115003873D01*
X129812254Y-115215286D01*
X129973863Y-115377177D01*
X130185124Y-115464900D01*
X130204917Y-115464917D01*
X130204900Y-115483873D01*
X130292254Y-115695286D01*
X130453863Y-115857177D01*
X130665124Y-115944900D01*
X130893873Y-115945100D01*
X131105286Y-115857746D01*
X131267177Y-115696137D01*
X131327124Y-115551767D01*
X133127004Y-115551767D01*
X133214358Y-115763180D01*
X133375967Y-115925071D01*
X133587228Y-116012794D01*
X133815977Y-116012994D01*
X134027390Y-115925640D01*
X134189281Y-115764031D01*
X134277004Y-115552770D01*
X134277204Y-115324021D01*
X134189850Y-115112608D01*
X134028241Y-114950717D01*
X133816980Y-114862994D01*
X133588231Y-114862794D01*
X133376818Y-114950148D01*
X133214927Y-115111757D01*
X133127204Y-115323018D01*
X133127004Y-115551767D01*
X131327124Y-115551767D01*
X131354900Y-115484876D01*
X131355100Y-115256127D01*
X131267746Y-115044714D01*
X131106137Y-114882823D01*
X130894876Y-114795100D01*
X130875083Y-114795083D01*
X130875100Y-114776127D01*
X130787746Y-114564714D01*
X130626137Y-114402823D01*
X130414876Y-114315100D01*
X130186127Y-114314900D01*
X129974714Y-114402254D01*
X129812823Y-114563863D01*
X129725100Y-114775124D01*
X129724900Y-115003873D01*
X124852358Y-115003873D01*
X124852358Y-113270873D01*
X127644100Y-113270873D01*
X127731454Y-113482286D01*
X127893063Y-113644177D01*
X128096375Y-113728599D01*
X127893914Y-113812254D01*
X127732023Y-113973863D01*
X127644300Y-114185124D01*
X127644100Y-114413873D01*
X127731454Y-114625286D01*
X127893063Y-114787177D01*
X128104324Y-114874900D01*
X128333073Y-114875100D01*
X128544486Y-114787746D01*
X128706377Y-114626137D01*
X128794100Y-114414876D01*
X128794300Y-114186127D01*
X128706946Y-113974714D01*
X128641230Y-113908883D01*
X133664900Y-113908883D01*
X133752254Y-114120296D01*
X133913863Y-114282187D01*
X134125124Y-114369910D01*
X134353873Y-114370110D01*
X134565286Y-114282756D01*
X134727177Y-114121147D01*
X134814900Y-113909886D01*
X134815100Y-113681137D01*
X134727746Y-113469724D01*
X134622080Y-113363873D01*
X140644900Y-113363873D01*
X140732254Y-113575286D01*
X140893863Y-113737177D01*
X140974186Y-113770530D01*
X140905100Y-113936909D01*
X140904900Y-114165658D01*
X140992254Y-114377071D01*
X141153863Y-114538962D01*
X141365124Y-114626685D01*
X141593873Y-114626885D01*
X141805286Y-114539531D01*
X141967177Y-114377922D01*
X141972269Y-114365657D01*
X159491350Y-114365657D01*
X159578704Y-114577070D01*
X159740313Y-114738961D01*
X159951574Y-114826684D01*
X160180323Y-114826884D01*
X160391736Y-114739530D01*
X160497220Y-114634230D01*
X160497133Y-114733407D01*
X160584487Y-114944820D01*
X160746096Y-115106711D01*
X160957357Y-115194434D01*
X161186106Y-115194634D01*
X161397519Y-115107280D01*
X161559410Y-114945671D01*
X161647133Y-114734410D01*
X161647333Y-114505661D01*
X161559979Y-114294248D01*
X161398370Y-114132357D01*
X161187109Y-114044634D01*
X160958360Y-114044434D01*
X160746947Y-114131788D01*
X160641463Y-114237088D01*
X160641550Y-114137911D01*
X160554196Y-113926498D01*
X160392587Y-113764607D01*
X160181326Y-113676884D01*
X159952577Y-113676684D01*
X159741164Y-113764038D01*
X159579273Y-113925647D01*
X159491550Y-114136908D01*
X159491350Y-114365657D01*
X141972269Y-114365657D01*
X142054900Y-114166661D01*
X142055100Y-113937912D01*
X141967746Y-113726499D01*
X141806137Y-113564608D01*
X141732119Y-113533873D01*
X150104900Y-113533873D01*
X150192254Y-113745286D01*
X150353863Y-113907177D01*
X150565124Y-113994900D01*
X150793873Y-113995100D01*
X151005286Y-113907746D01*
X151167177Y-113746137D01*
X151254900Y-113534876D01*
X151255100Y-113306127D01*
X151188059Y-113143873D01*
X158327300Y-113143873D01*
X158414654Y-113355286D01*
X158576263Y-113517177D01*
X158787524Y-113604900D01*
X159016273Y-113605100D01*
X159227686Y-113517746D01*
X159389577Y-113356137D01*
X159477300Y-113144876D01*
X159477500Y-112916127D01*
X159390146Y-112704714D01*
X159228537Y-112542823D01*
X159017276Y-112455100D01*
X158788527Y-112454900D01*
X158577114Y-112542254D01*
X158415223Y-112703863D01*
X158327500Y-112915124D01*
X158327300Y-113143873D01*
X151188059Y-113143873D01*
X151167746Y-113094714D01*
X151006137Y-112932823D01*
X150794876Y-112845100D01*
X150566127Y-112844900D01*
X150354714Y-112932254D01*
X150192823Y-113093863D01*
X150105100Y-113305124D01*
X150104900Y-113533873D01*
X141732119Y-113533873D01*
X141725814Y-113531255D01*
X141794900Y-113364876D01*
X141795100Y-113136127D01*
X141707746Y-112924714D01*
X141546137Y-112762823D01*
X141334876Y-112675100D01*
X141106127Y-112674900D01*
X140894714Y-112762254D01*
X140732823Y-112923863D01*
X140645100Y-113135124D01*
X140644900Y-113363873D01*
X134622080Y-113363873D01*
X134566137Y-113307833D01*
X134354876Y-113220110D01*
X134126127Y-113219910D01*
X133914714Y-113307264D01*
X133752823Y-113468873D01*
X133665100Y-113680134D01*
X133664900Y-113908883D01*
X128641230Y-113908883D01*
X128545337Y-113812823D01*
X128342025Y-113728401D01*
X128544486Y-113644746D01*
X128706377Y-113483137D01*
X128794100Y-113271876D01*
X128794100Y-113270873D01*
X130819100Y-113270873D01*
X130906454Y-113482286D01*
X131068063Y-113644177D01*
X131279324Y-113731900D01*
X131508073Y-113732100D01*
X131719486Y-113644746D01*
X131881377Y-113483137D01*
X131969100Y-113271876D01*
X131969300Y-113043127D01*
X131881946Y-112831714D01*
X131720337Y-112669823D01*
X131699747Y-112661273D01*
X136813500Y-112661273D01*
X136900854Y-112872686D01*
X137062463Y-113034577D01*
X137273724Y-113122300D01*
X137502473Y-113122500D01*
X137713886Y-113035146D01*
X137875777Y-112873537D01*
X137963500Y-112662276D01*
X137963700Y-112433527D01*
X137876346Y-112222114D01*
X137714737Y-112060223D01*
X137503476Y-111972500D01*
X137274727Y-111972300D01*
X137063314Y-112059654D01*
X136901423Y-112221263D01*
X136813700Y-112432524D01*
X136813500Y-112661273D01*
X131699747Y-112661273D01*
X131509076Y-112582100D01*
X131280327Y-112581900D01*
X131068914Y-112669254D01*
X130907023Y-112830863D01*
X130819300Y-113042124D01*
X130819100Y-113270873D01*
X128794100Y-113270873D01*
X128794300Y-113043127D01*
X128706946Y-112831714D01*
X128545337Y-112669823D01*
X128334076Y-112582100D01*
X128105327Y-112581900D01*
X127893914Y-112669254D01*
X127732023Y-112830863D01*
X127644300Y-113042124D01*
X127644100Y-113270873D01*
X124852358Y-113270873D01*
X124852358Y-110934073D01*
X145119300Y-110934073D01*
X145206654Y-111145486D01*
X145368263Y-111307377D01*
X145579524Y-111395100D01*
X145718786Y-111395222D01*
X145678300Y-111492724D01*
X145678137Y-111679644D01*
X145496114Y-111754854D01*
X145334223Y-111916463D01*
X145246500Y-112127724D01*
X145246300Y-112356473D01*
X145333654Y-112567886D01*
X145495263Y-112729777D01*
X145706524Y-112817500D01*
X145935273Y-112817700D01*
X146146686Y-112730346D01*
X146308577Y-112568737D01*
X146396300Y-112357476D01*
X146396372Y-112273873D01*
X152944900Y-112273873D01*
X153032254Y-112485286D01*
X153193863Y-112647177D01*
X153405124Y-112734900D01*
X153633873Y-112735100D01*
X153845286Y-112647746D01*
X153909270Y-112583873D01*
X156034900Y-112583873D01*
X156122254Y-112795286D01*
X156283863Y-112957177D01*
X156495124Y-113044900D01*
X156723873Y-113045100D01*
X156935286Y-112957746D01*
X157097177Y-112796137D01*
X157184900Y-112584876D01*
X157185055Y-112407273D01*
X171509900Y-112407273D01*
X171597254Y-112618686D01*
X171758863Y-112780577D01*
X171970124Y-112868300D01*
X172198873Y-112868500D01*
X172410286Y-112781146D01*
X172572177Y-112619537D01*
X172659900Y-112408276D01*
X172660100Y-112179527D01*
X172572746Y-111968114D01*
X172411137Y-111806223D01*
X172199876Y-111718500D01*
X171971127Y-111718300D01*
X171759714Y-111805654D01*
X171597823Y-111967263D01*
X171510100Y-112178524D01*
X171509900Y-112407273D01*
X157185055Y-112407273D01*
X157185100Y-112356127D01*
X157097746Y-112144714D01*
X156936137Y-111982823D01*
X156724876Y-111895100D01*
X156496127Y-111894900D01*
X156284714Y-111982254D01*
X156122823Y-112143863D01*
X156035100Y-112355124D01*
X156034900Y-112583873D01*
X153909270Y-112583873D01*
X154007177Y-112486137D01*
X154094900Y-112274876D01*
X154095100Y-112046127D01*
X154007746Y-111834714D01*
X153846137Y-111672823D01*
X153779790Y-111645273D01*
X170570100Y-111645273D01*
X170657454Y-111856686D01*
X170819063Y-112018577D01*
X171030324Y-112106300D01*
X171259073Y-112106500D01*
X171470486Y-112019146D01*
X171632377Y-111857537D01*
X171720100Y-111646276D01*
X171720300Y-111417527D01*
X171632946Y-111206114D01*
X171471337Y-111044223D01*
X171260076Y-110956500D01*
X171031327Y-110956300D01*
X170819914Y-111043654D01*
X170658023Y-111205263D01*
X170570300Y-111416524D01*
X170570100Y-111645273D01*
X153779790Y-111645273D01*
X153634876Y-111585100D01*
X153406127Y-111584900D01*
X153194714Y-111672254D01*
X153032823Y-111833863D01*
X152945100Y-112045124D01*
X152944900Y-112273873D01*
X146396372Y-112273873D01*
X146396463Y-112170556D01*
X146578486Y-112095346D01*
X146740377Y-111933737D01*
X146828100Y-111722476D01*
X146828300Y-111493727D01*
X146740946Y-111282314D01*
X146579337Y-111120423D01*
X146368076Y-111032700D01*
X146228814Y-111032578D01*
X146269300Y-110935076D01*
X146269411Y-110807073D01*
X171636900Y-110807073D01*
X171724254Y-111018486D01*
X171885863Y-111180377D01*
X172097124Y-111268100D01*
X172325873Y-111268300D01*
X172537286Y-111180946D01*
X172699177Y-111019337D01*
X172786900Y-110808076D01*
X172787100Y-110579327D01*
X172699746Y-110367914D01*
X172538137Y-110206023D01*
X172326876Y-110118300D01*
X172098127Y-110118100D01*
X171886714Y-110205454D01*
X171724823Y-110367063D01*
X171637100Y-110578324D01*
X171636900Y-110807073D01*
X146269411Y-110807073D01*
X146269500Y-110706327D01*
X146182146Y-110494914D01*
X146020537Y-110333023D01*
X145809276Y-110245300D01*
X145580527Y-110245100D01*
X145369114Y-110332454D01*
X145207223Y-110494063D01*
X145119500Y-110705324D01*
X145119300Y-110934073D01*
X124852358Y-110934073D01*
X124852358Y-109727395D01*
X124889324Y-109782718D01*
X125173194Y-109972395D01*
X125508042Y-110039000D01*
X126459958Y-110039000D01*
X126794806Y-109972395D01*
X127078676Y-109782718D01*
X127111466Y-109733644D01*
X134018906Y-109733644D01*
X134051976Y-109859567D01*
X134285300Y-110261434D01*
X134654652Y-110543422D01*
X135103800Y-110662600D01*
X135256200Y-110662600D01*
X135256200Y-109549000D01*
X135406200Y-109549000D01*
X135406200Y-110662600D01*
X135558600Y-110662600D01*
X136007748Y-110543422D01*
X136377100Y-110261434D01*
X136610424Y-109859567D01*
X136643494Y-109733644D01*
X136588407Y-109549000D01*
X135406200Y-109549000D01*
X135256200Y-109549000D01*
X134073993Y-109549000D01*
X134018906Y-109733644D01*
X127111466Y-109733644D01*
X127268353Y-109498848D01*
X127334958Y-109164000D01*
X127268353Y-108829152D01*
X127078676Y-108545282D01*
X126834076Y-108381844D01*
X127583810Y-108381844D01*
X127750922Y-108786286D01*
X128060087Y-109095991D01*
X128464237Y-109263808D01*
X128901844Y-109264190D01*
X129022451Y-109214356D01*
X134018906Y-109214356D01*
X134073993Y-109399000D01*
X135256200Y-109399000D01*
X135256200Y-108285400D01*
X135406200Y-108285400D01*
X135406200Y-109399000D01*
X136588407Y-109399000D01*
X136643494Y-109214356D01*
X136610424Y-109088433D01*
X136377100Y-108686566D01*
X136007748Y-108404578D01*
X135968158Y-108394073D01*
X138007300Y-108394073D01*
X138094654Y-108605486D01*
X138256263Y-108767377D01*
X138467524Y-108855100D01*
X138696273Y-108855300D01*
X138907686Y-108767946D01*
X139069577Y-108606337D01*
X139157300Y-108395076D01*
X139157389Y-108292473D01*
X146465500Y-108292473D01*
X146552854Y-108503886D01*
X146714463Y-108665777D01*
X146925724Y-108753500D01*
X147154473Y-108753700D01*
X147307416Y-108690505D01*
X147459124Y-108753500D01*
X147687873Y-108753700D01*
X147899286Y-108666346D01*
X148051305Y-108514592D01*
X147964300Y-108724124D01*
X147964214Y-108822719D01*
X147942727Y-108822700D01*
X147731314Y-108910054D01*
X147569423Y-109071663D01*
X147481700Y-109282924D01*
X147481500Y-109511673D01*
X147568854Y-109723086D01*
X147730463Y-109884977D01*
X147941724Y-109972700D01*
X148170473Y-109972900D01*
X148381886Y-109885546D01*
X148543777Y-109723937D01*
X148589728Y-109613273D01*
X156879500Y-109613273D01*
X156966854Y-109824686D01*
X157128463Y-109986577D01*
X157339724Y-110074300D01*
X157568473Y-110074500D01*
X157779886Y-109987146D01*
X157941777Y-109825537D01*
X157956087Y-109791073D01*
X165337700Y-109791073D01*
X165425054Y-110002486D01*
X165586663Y-110164377D01*
X165797924Y-110252100D01*
X166026673Y-110252300D01*
X166238086Y-110164946D01*
X166399977Y-110003337D01*
X166487700Y-109792076D01*
X166487900Y-109563327D01*
X166400546Y-109351914D01*
X166238937Y-109190023D01*
X166027676Y-109102300D01*
X165798927Y-109102100D01*
X165587514Y-109189454D01*
X165425623Y-109351063D01*
X165337900Y-109562324D01*
X165337700Y-109791073D01*
X157956087Y-109791073D01*
X158029500Y-109614276D01*
X158029700Y-109385527D01*
X157942346Y-109174114D01*
X157780737Y-109012223D01*
X157569476Y-108924500D01*
X157340727Y-108924300D01*
X157129314Y-109011654D01*
X156967423Y-109173263D01*
X156879700Y-109384524D01*
X156879500Y-109613273D01*
X148589728Y-109613273D01*
X148631500Y-109512676D01*
X148631586Y-109414081D01*
X148653073Y-109414100D01*
X148864486Y-109326746D01*
X149026377Y-109165137D01*
X149114100Y-108953876D01*
X149114211Y-108825873D01*
X154745900Y-108825873D01*
X154833254Y-109037286D01*
X154994863Y-109199177D01*
X155206124Y-109286900D01*
X155434873Y-109287100D01*
X155531693Y-109247095D01*
X155688724Y-109312300D01*
X155917473Y-109312500D01*
X156128886Y-109225146D01*
X156290777Y-109063537D01*
X156378500Y-108852276D01*
X156378700Y-108623527D01*
X156291346Y-108412114D01*
X156129737Y-108250223D01*
X155918476Y-108162500D01*
X155689727Y-108162300D01*
X155592907Y-108202305D01*
X155435876Y-108137100D01*
X155207127Y-108136900D01*
X154995714Y-108224254D01*
X154833823Y-108385863D01*
X154746100Y-108597124D01*
X154745900Y-108825873D01*
X149114211Y-108825873D01*
X149114300Y-108725127D01*
X149026946Y-108513714D01*
X148865337Y-108351823D01*
X148654076Y-108264100D01*
X148425327Y-108263900D01*
X148213914Y-108351254D01*
X148061895Y-108503008D01*
X148148900Y-108293476D01*
X148149100Y-108064727D01*
X148061977Y-107853873D01*
X152754900Y-107853873D01*
X152842254Y-108065286D01*
X153003863Y-108227177D01*
X153215124Y-108314900D01*
X153443873Y-108315100D01*
X153655286Y-108227746D01*
X153817177Y-108066137D01*
X153904900Y-107854876D01*
X153905100Y-107626127D01*
X153817746Y-107414714D01*
X153656137Y-107252823D01*
X153444876Y-107165100D01*
X153216127Y-107164900D01*
X153004714Y-107252254D01*
X152842823Y-107413863D01*
X152755100Y-107625124D01*
X152754900Y-107853873D01*
X148061977Y-107853873D01*
X148061746Y-107853314D01*
X147900137Y-107691423D01*
X147688876Y-107603700D01*
X147460127Y-107603500D01*
X147307184Y-107666695D01*
X147155476Y-107603700D01*
X146926727Y-107603500D01*
X146715314Y-107690854D01*
X146553423Y-107852463D01*
X146465700Y-108063724D01*
X146465500Y-108292473D01*
X139157389Y-108292473D01*
X139157500Y-108166327D01*
X139152181Y-108153454D01*
X139263286Y-108107546D01*
X139425177Y-107945937D01*
X139512900Y-107734676D01*
X139513100Y-107505927D01*
X139425746Y-107294514D01*
X139264137Y-107132623D01*
X139052876Y-107044900D01*
X138824127Y-107044700D01*
X138612714Y-107132054D01*
X138450823Y-107293663D01*
X138363100Y-107504924D01*
X138362900Y-107733673D01*
X138368219Y-107746546D01*
X138257114Y-107792454D01*
X138095223Y-107954063D01*
X138007500Y-108165324D01*
X138007300Y-108394073D01*
X135968158Y-108394073D01*
X135558600Y-108285400D01*
X135406200Y-108285400D01*
X135256200Y-108285400D01*
X135103800Y-108285400D01*
X134654652Y-108404578D01*
X134285300Y-108686566D01*
X134051976Y-109088433D01*
X134018906Y-109214356D01*
X129022451Y-109214356D01*
X129306286Y-109097078D01*
X129615991Y-108787913D01*
X129783808Y-108383763D01*
X129784190Y-107946156D01*
X129651026Y-107623873D01*
X131694900Y-107623873D01*
X131782254Y-107835286D01*
X131943863Y-107997177D01*
X132155124Y-108084900D01*
X132383873Y-108085100D01*
X132595286Y-107997746D01*
X132757177Y-107836137D01*
X132844900Y-107624876D01*
X132845100Y-107396127D01*
X132757746Y-107184714D01*
X132596137Y-107022823D01*
X132384876Y-106935100D01*
X132156127Y-106934900D01*
X131944714Y-107022254D01*
X131782823Y-107183863D01*
X131695100Y-107395124D01*
X131694900Y-107623873D01*
X129651026Y-107623873D01*
X129617078Y-107541714D01*
X129307913Y-107232009D01*
X128903763Y-107064192D01*
X128466156Y-107063810D01*
X128061714Y-107230922D01*
X127752009Y-107540087D01*
X127584192Y-107944237D01*
X127583810Y-108381844D01*
X126834076Y-108381844D01*
X126794806Y-108355605D01*
X126459958Y-108289000D01*
X125508042Y-108289000D01*
X125173194Y-108355605D01*
X124889324Y-108545282D01*
X124852358Y-108600605D01*
X124852358Y-106934000D01*
X133912949Y-106934000D01*
X134007232Y-107407992D01*
X134275727Y-107809822D01*
X134677557Y-108078317D01*
X135151549Y-108172600D01*
X135510851Y-108172600D01*
X135984843Y-108078317D01*
X136386673Y-107809822D01*
X136655168Y-107407992D01*
X136749451Y-106934000D01*
X136655168Y-106460008D01*
X136589730Y-106362073D01*
X158276500Y-106362073D01*
X158363854Y-106573486D01*
X158525463Y-106735377D01*
X158736724Y-106823100D01*
X158965473Y-106823300D01*
X159176886Y-106735946D01*
X159338777Y-106574337D01*
X159426500Y-106363076D01*
X159426523Y-106336673D01*
X165921900Y-106336673D01*
X166009254Y-106548086D01*
X166170863Y-106709977D01*
X166382124Y-106797700D01*
X166610873Y-106797900D01*
X166822286Y-106710546D01*
X166984177Y-106548937D01*
X167071900Y-106337676D01*
X167072100Y-106108927D01*
X167020900Y-105985013D01*
X167136063Y-106100377D01*
X167347324Y-106188100D01*
X167576073Y-106188300D01*
X167787486Y-106100946D01*
X167949377Y-105939337D01*
X168037100Y-105728076D01*
X168037300Y-105499327D01*
X168026453Y-105473073D01*
X168614300Y-105473073D01*
X168701654Y-105684486D01*
X168863263Y-105846377D01*
X169074524Y-105934100D01*
X169076600Y-105934102D01*
X169075132Y-105937637D01*
X169074750Y-106375244D01*
X169241862Y-106779686D01*
X169551027Y-107089391D01*
X169713967Y-107157049D01*
X169651514Y-107182854D01*
X169489623Y-107344463D01*
X169401900Y-107555724D01*
X169401700Y-107784473D01*
X169489054Y-107995886D01*
X169650663Y-108157777D01*
X169861924Y-108245500D01*
X170090673Y-108245700D01*
X170302086Y-108158346D01*
X170463977Y-107996737D01*
X170551700Y-107785476D01*
X170551900Y-107556727D01*
X170464546Y-107345314D01*
X170376961Y-107257576D01*
X170392784Y-107257590D01*
X170797226Y-107090478D01*
X171106931Y-106781313D01*
X171274748Y-106377163D01*
X171275130Y-105939556D01*
X171108018Y-105535114D01*
X170798853Y-105225409D01*
X170394703Y-105057592D01*
X169957096Y-105057210D01*
X169803669Y-105120605D01*
X169815100Y-105093076D01*
X169815300Y-104864327D01*
X169727946Y-104652914D01*
X169566337Y-104491023D01*
X169355076Y-104403300D01*
X169126327Y-104403100D01*
X168914914Y-104490454D01*
X168753023Y-104652063D01*
X168665300Y-104863324D01*
X168665100Y-105092073D01*
X168671394Y-105107307D01*
X168614500Y-105244324D01*
X168614300Y-105473073D01*
X168026453Y-105473073D01*
X167949946Y-105287914D01*
X167788337Y-105126023D01*
X167577076Y-105038300D01*
X167348327Y-105038100D01*
X167136914Y-105125454D01*
X166975023Y-105287063D01*
X166887300Y-105498324D01*
X166887100Y-105727073D01*
X166938300Y-105850987D01*
X166823137Y-105735623D01*
X166611876Y-105647900D01*
X166383127Y-105647700D01*
X166171714Y-105735054D01*
X166009823Y-105896663D01*
X165922100Y-106107924D01*
X165921900Y-106336673D01*
X159426523Y-106336673D01*
X159426700Y-106134327D01*
X159339346Y-105922914D01*
X159177737Y-105761023D01*
X158966476Y-105673300D01*
X158737727Y-105673100D01*
X158526314Y-105760454D01*
X158364423Y-105922063D01*
X158276700Y-106133324D01*
X158276500Y-106362073D01*
X136589730Y-106362073D01*
X136386673Y-106058178D01*
X135984843Y-105789683D01*
X135510851Y-105695400D01*
X135151549Y-105695400D01*
X134677557Y-105789683D01*
X134275727Y-106058178D01*
X134007232Y-106460008D01*
X133912949Y-106934000D01*
X124852358Y-106934000D01*
X124852358Y-104394000D01*
X133912949Y-104394000D01*
X134007232Y-104867992D01*
X134275727Y-105269822D01*
X134677557Y-105538317D01*
X135151549Y-105632600D01*
X135510851Y-105632600D01*
X135984843Y-105538317D01*
X136310569Y-105320673D01*
X137727900Y-105320673D01*
X137815254Y-105532086D01*
X137976863Y-105693977D01*
X138188124Y-105781700D01*
X138416873Y-105781900D01*
X138628286Y-105694546D01*
X138790177Y-105532937D01*
X138877900Y-105321676D01*
X138878056Y-105142873D01*
X145728900Y-105142873D01*
X145816254Y-105354286D01*
X145977863Y-105516177D01*
X146189124Y-105603900D01*
X146417873Y-105604100D01*
X146629286Y-105516746D01*
X146791177Y-105355137D01*
X146878900Y-105143876D01*
X146879100Y-104915127D01*
X146791746Y-104703714D01*
X146630137Y-104541823D01*
X146418876Y-104454100D01*
X146190127Y-104453900D01*
X145978714Y-104541254D01*
X145816823Y-104702863D01*
X145729100Y-104914124D01*
X145728900Y-105142873D01*
X138878056Y-105142873D01*
X138878100Y-105092927D01*
X138790746Y-104881514D01*
X138629137Y-104719623D01*
X138417876Y-104631900D01*
X138189127Y-104631700D01*
X137977714Y-104719054D01*
X137815823Y-104880663D01*
X137728100Y-105091924D01*
X137727900Y-105320673D01*
X136310569Y-105320673D01*
X136386673Y-105269822D01*
X136655168Y-104867992D01*
X136749451Y-104394000D01*
X136655168Y-103920008D01*
X136538815Y-103745873D01*
X139378900Y-103745873D01*
X139466254Y-103957286D01*
X139627863Y-104119177D01*
X139839124Y-104206900D01*
X140067873Y-104207100D01*
X140279286Y-104119746D01*
X140441177Y-103958137D01*
X140528900Y-103746876D01*
X140529100Y-103518127D01*
X140441746Y-103306714D01*
X140280137Y-103144823D01*
X140068876Y-103057100D01*
X139840127Y-103056900D01*
X139628714Y-103144254D01*
X139466823Y-103305863D01*
X139379100Y-103517124D01*
X139378900Y-103745873D01*
X136538815Y-103745873D01*
X136386673Y-103518178D01*
X135984843Y-103249683D01*
X135510851Y-103155400D01*
X135151549Y-103155400D01*
X134677557Y-103249683D01*
X134275727Y-103518178D01*
X134007232Y-103920008D01*
X133912949Y-104394000D01*
X124852358Y-104394000D01*
X124852358Y-103381844D01*
X127583810Y-103381844D01*
X127750922Y-103786286D01*
X128060087Y-104095991D01*
X128464237Y-104263808D01*
X128901844Y-104264190D01*
X129306286Y-104097078D01*
X129615991Y-103787913D01*
X129783808Y-103383763D01*
X129784190Y-102946156D01*
X129617078Y-102541714D01*
X129307913Y-102232009D01*
X128903763Y-102064192D01*
X128466156Y-102063810D01*
X128061714Y-102230922D01*
X127752009Y-102540087D01*
X127584192Y-102944237D01*
X127583810Y-103381844D01*
X124852358Y-103381844D01*
X124852358Y-102727395D01*
X124889324Y-102782718D01*
X125173194Y-102972395D01*
X125508042Y-103039000D01*
X126459958Y-103039000D01*
X126794806Y-102972395D01*
X127078676Y-102782718D01*
X127268353Y-102498848D01*
X127334958Y-102164000D01*
X127268353Y-101829152D01*
X127078676Y-101545282D01*
X126794806Y-101355605D01*
X126459958Y-101289000D01*
X125508042Y-101289000D01*
X125173194Y-101355605D01*
X124889324Y-101545282D01*
X124852358Y-101600605D01*
X124852358Y-100990400D01*
X133932854Y-100990400D01*
X133932854Y-102717600D01*
X133959002Y-102856566D01*
X134041131Y-102984199D01*
X134166446Y-103069823D01*
X134315200Y-103099946D01*
X136347200Y-103099946D01*
X136486166Y-103073798D01*
X136613799Y-102991669D01*
X136632791Y-102963873D01*
X150924900Y-102963873D01*
X151012254Y-103175286D01*
X151173863Y-103337177D01*
X151385124Y-103424900D01*
X151613873Y-103425100D01*
X151825286Y-103337746D01*
X151987177Y-103176137D01*
X152067011Y-102983873D01*
X154745900Y-102983873D01*
X154833254Y-103195286D01*
X154994863Y-103357177D01*
X155206124Y-103444900D01*
X155434873Y-103445100D01*
X155646286Y-103357746D01*
X155664590Y-103339473D01*
X168258700Y-103339473D01*
X168346054Y-103550886D01*
X168507663Y-103712777D01*
X168718924Y-103800500D01*
X168947673Y-103800700D01*
X169159086Y-103713346D01*
X169320977Y-103551737D01*
X169408700Y-103340476D01*
X169408900Y-103111727D01*
X169321546Y-102900314D01*
X169159937Y-102738423D01*
X168948676Y-102650700D01*
X168719927Y-102650500D01*
X168508514Y-102737854D01*
X168346623Y-102899463D01*
X168258900Y-103110724D01*
X168258700Y-103339473D01*
X155664590Y-103339473D01*
X155808177Y-103196137D01*
X155895900Y-102984876D01*
X155896100Y-102756127D01*
X155808746Y-102544714D01*
X155647137Y-102382823D01*
X155435876Y-102295100D01*
X155207127Y-102294900D01*
X154995714Y-102382254D01*
X154833823Y-102543863D01*
X154746100Y-102755124D01*
X154745900Y-102983873D01*
X152067011Y-102983873D01*
X152074900Y-102964876D01*
X152075100Y-102736127D01*
X151987746Y-102524714D01*
X151826137Y-102362823D01*
X151614876Y-102275100D01*
X151386127Y-102274900D01*
X151174714Y-102362254D01*
X151012823Y-102523863D01*
X150925100Y-102735124D01*
X150924900Y-102963873D01*
X136632791Y-102963873D01*
X136699423Y-102866354D01*
X136729546Y-102717600D01*
X136729546Y-101434473D01*
X139201100Y-101434473D01*
X139288454Y-101645886D01*
X139450063Y-101807777D01*
X139661324Y-101895500D01*
X139890073Y-101895700D01*
X140101486Y-101808346D01*
X140263377Y-101646737D01*
X140351100Y-101435476D01*
X140351206Y-101313873D01*
X140824900Y-101313873D01*
X140912254Y-101525286D01*
X141073863Y-101687177D01*
X141285124Y-101774900D01*
X141513873Y-101775100D01*
X141725286Y-101687746D01*
X141887177Y-101526137D01*
X141974900Y-101314876D01*
X141975100Y-101086127D01*
X141928718Y-100973873D01*
X142144900Y-100973873D01*
X142232254Y-101185286D01*
X142393863Y-101347177D01*
X142605124Y-101434900D01*
X142705457Y-101434988D01*
X142625914Y-101467854D01*
X142464023Y-101629463D01*
X142376300Y-101840724D01*
X142376100Y-102069473D01*
X142463454Y-102280886D01*
X142625063Y-102442777D01*
X142836324Y-102530500D01*
X143065073Y-102530700D01*
X143276486Y-102443346D01*
X143438377Y-102281737D01*
X143526100Y-102070476D01*
X143526300Y-101841727D01*
X143438946Y-101630314D01*
X143277337Y-101468423D01*
X143134406Y-101409073D01*
X144636700Y-101409073D01*
X144724054Y-101620486D01*
X144885663Y-101782377D01*
X145096924Y-101870100D01*
X145325673Y-101870300D01*
X145537086Y-101782946D01*
X145698977Y-101621337D01*
X145786700Y-101410076D01*
X145786878Y-101205873D01*
X150808900Y-101205873D01*
X150896254Y-101417286D01*
X151057863Y-101579177D01*
X151269124Y-101666900D01*
X151497873Y-101667100D01*
X151709286Y-101579746D01*
X151871177Y-101418137D01*
X151896034Y-101358273D01*
X153399700Y-101358273D01*
X153487054Y-101569686D01*
X153648663Y-101731577D01*
X153859924Y-101819300D01*
X154088673Y-101819500D01*
X154300086Y-101732146D01*
X154461977Y-101570537D01*
X154549700Y-101359276D01*
X154549723Y-101332873D01*
X159470300Y-101332873D01*
X159557654Y-101544286D01*
X159719263Y-101706177D01*
X159930524Y-101793900D01*
X160159273Y-101794100D01*
X160370686Y-101706746D01*
X160532577Y-101545137D01*
X160558015Y-101483873D01*
X163944900Y-101483873D01*
X164015675Y-101655161D01*
X163945100Y-101825124D01*
X163944900Y-102053873D01*
X164032254Y-102265286D01*
X164193863Y-102427177D01*
X164405124Y-102514900D01*
X164633873Y-102515100D01*
X164845286Y-102427746D01*
X165007177Y-102266137D01*
X165094900Y-102054876D01*
X165095100Y-101826127D01*
X165024325Y-101654839D01*
X165094900Y-101484876D01*
X165094995Y-101375244D01*
X169074750Y-101375244D01*
X169241862Y-101779686D01*
X169551027Y-102089391D01*
X169955177Y-102257208D01*
X170392784Y-102257590D01*
X170797226Y-102090478D01*
X171106931Y-101781313D01*
X171274748Y-101377163D01*
X171275130Y-100939556D01*
X171108018Y-100535114D01*
X170798853Y-100225409D01*
X170394703Y-100057592D01*
X169957096Y-100057210D01*
X169552654Y-100224322D01*
X169242949Y-100533487D01*
X169075132Y-100937637D01*
X169074750Y-101375244D01*
X165094995Y-101375244D01*
X165095100Y-101256127D01*
X165007746Y-101044714D01*
X164846137Y-100882823D01*
X164634876Y-100795100D01*
X164406127Y-100794900D01*
X164194714Y-100882254D01*
X164032823Y-101043863D01*
X163945100Y-101255124D01*
X163944900Y-101483873D01*
X160558015Y-101483873D01*
X160620300Y-101333876D01*
X160620500Y-101105127D01*
X160533146Y-100893714D01*
X160371537Y-100731823D01*
X160160276Y-100644100D01*
X159931527Y-100643900D01*
X159720114Y-100731254D01*
X159558223Y-100892863D01*
X159470500Y-101104124D01*
X159470300Y-101332873D01*
X154549723Y-101332873D01*
X154549900Y-101130527D01*
X154462546Y-100919114D01*
X154300937Y-100757223D01*
X154089676Y-100669500D01*
X153860927Y-100669300D01*
X153649514Y-100756654D01*
X153487623Y-100918263D01*
X153399900Y-101129524D01*
X153399700Y-101358273D01*
X151896034Y-101358273D01*
X151958900Y-101206876D01*
X151959100Y-100978127D01*
X151871746Y-100766714D01*
X151710137Y-100604823D01*
X151498876Y-100517100D01*
X151270127Y-100516900D01*
X151058714Y-100604254D01*
X150896823Y-100765863D01*
X150809100Y-100977124D01*
X150808900Y-101205873D01*
X145786878Y-101205873D01*
X145786900Y-101181327D01*
X145699546Y-100969914D01*
X145537937Y-100808023D01*
X145326676Y-100720300D01*
X145097927Y-100720100D01*
X144886514Y-100807454D01*
X144724623Y-100969063D01*
X144636900Y-101180324D01*
X144636700Y-101409073D01*
X143134406Y-101409073D01*
X143066076Y-101380700D01*
X142965743Y-101380612D01*
X143045286Y-101347746D01*
X143207177Y-101186137D01*
X143294900Y-100974876D01*
X143295100Y-100746127D01*
X143207746Y-100534714D01*
X143046137Y-100372823D01*
X142834876Y-100285100D01*
X142606127Y-100284900D01*
X142394714Y-100372254D01*
X142232823Y-100533863D01*
X142145100Y-100745124D01*
X142144900Y-100973873D01*
X141928718Y-100973873D01*
X141887746Y-100874714D01*
X141726137Y-100712823D01*
X141514876Y-100625100D01*
X141286127Y-100624900D01*
X141074714Y-100712254D01*
X140912823Y-100873863D01*
X140825100Y-101085124D01*
X140824900Y-101313873D01*
X140351206Y-101313873D01*
X140351300Y-101206727D01*
X140263946Y-100995314D01*
X140102337Y-100833423D01*
X139891076Y-100745700D01*
X139662327Y-100745500D01*
X139450914Y-100832854D01*
X139289023Y-100994463D01*
X139201300Y-101205724D01*
X139201100Y-101434473D01*
X136729546Y-101434473D01*
X136729546Y-100990400D01*
X136703398Y-100851434D01*
X136621269Y-100723801D01*
X136495954Y-100638177D01*
X136347200Y-100608054D01*
X134315200Y-100608054D01*
X134176234Y-100634202D01*
X134048601Y-100716331D01*
X133962977Y-100841646D01*
X133932854Y-100990400D01*
X124852358Y-100990400D01*
X124852358Y-97776988D01*
X124944669Y-97999858D01*
X125264684Y-98335528D01*
X125688795Y-98523182D01*
X125873440Y-98468269D01*
X125873440Y-97438280D01*
X126023440Y-97438280D01*
X126023440Y-98468269D01*
X126208085Y-98523182D01*
X126632196Y-98335528D01*
X126952211Y-97999858D01*
X127108334Y-97622924D01*
X127053247Y-97438280D01*
X126023440Y-97438280D01*
X125873440Y-97438280D01*
X125853440Y-97438280D01*
X125853440Y-97363280D01*
X127225574Y-97363280D01*
X127319857Y-97837272D01*
X127588352Y-98239102D01*
X127990182Y-98507597D01*
X128464174Y-98601880D01*
X128512706Y-98601880D01*
X128986698Y-98507597D01*
X129388528Y-98239102D01*
X129657023Y-97837272D01*
X129751306Y-97363280D01*
X129765574Y-97363280D01*
X129859857Y-97837272D01*
X130128352Y-98239102D01*
X130530182Y-98507597D01*
X131004174Y-98601880D01*
X131052706Y-98601880D01*
X131526698Y-98507597D01*
X131928528Y-98239102D01*
X132197023Y-97837272D01*
X132291306Y-97363280D01*
X132305574Y-97363280D01*
X132399857Y-97837272D01*
X132668352Y-98239102D01*
X133070182Y-98507597D01*
X133544174Y-98601880D01*
X133592706Y-98601880D01*
X134066698Y-98507597D01*
X134468528Y-98239102D01*
X134737023Y-97837272D01*
X134831306Y-97363280D01*
X134845574Y-97363280D01*
X134939857Y-97837272D01*
X135208352Y-98239102D01*
X135610182Y-98507597D01*
X136084174Y-98601880D01*
X136132706Y-98601880D01*
X136606698Y-98507597D01*
X137008528Y-98239102D01*
X137277023Y-97837272D01*
X137371306Y-97363280D01*
X137385574Y-97363280D01*
X137479857Y-97837272D01*
X137748352Y-98239102D01*
X138150182Y-98507597D01*
X138624174Y-98601880D01*
X138672706Y-98601880D01*
X139146698Y-98507597D01*
X139548528Y-98239102D01*
X139817023Y-97837272D01*
X139911306Y-97363280D01*
X139925574Y-97363280D01*
X140019857Y-97837272D01*
X140288352Y-98239102D01*
X140690182Y-98507597D01*
X141164174Y-98601880D01*
X141212706Y-98601880D01*
X141686698Y-98507597D01*
X142088528Y-98239102D01*
X142357023Y-97837272D01*
X142451306Y-97363280D01*
X142465574Y-97363280D01*
X142559857Y-97837272D01*
X142828352Y-98239102D01*
X143230182Y-98507597D01*
X143704174Y-98601880D01*
X143752706Y-98601880D01*
X144226698Y-98507597D01*
X144628528Y-98239102D01*
X144897023Y-97837272D01*
X144939659Y-97622924D01*
X145108546Y-97622924D01*
X145264669Y-97999858D01*
X145584684Y-98335528D01*
X146008795Y-98523182D01*
X146193440Y-98468269D01*
X146193440Y-97438280D01*
X146343440Y-97438280D01*
X146343440Y-98468269D01*
X146528085Y-98523182D01*
X146952196Y-98335528D01*
X147272211Y-97999858D01*
X147428334Y-97622924D01*
X147373247Y-97438280D01*
X146343440Y-97438280D01*
X146193440Y-97438280D01*
X145163633Y-97438280D01*
X145108546Y-97622924D01*
X144939659Y-97622924D01*
X144991306Y-97363280D01*
X147545574Y-97363280D01*
X147639857Y-97837272D01*
X147908352Y-98239102D01*
X148310182Y-98507597D01*
X148784174Y-98601880D01*
X148832706Y-98601880D01*
X149306698Y-98507597D01*
X149708528Y-98239102D01*
X149977023Y-97837272D01*
X150071306Y-97363280D01*
X150085574Y-97363280D01*
X150179857Y-97837272D01*
X150448352Y-98239102D01*
X150850182Y-98507597D01*
X151324174Y-98601880D01*
X151372706Y-98601880D01*
X151846698Y-98507597D01*
X152037998Y-98379774D01*
X152102254Y-98535286D01*
X152263863Y-98697177D01*
X152475124Y-98784900D01*
X152703873Y-98785100D01*
X152915286Y-98697746D01*
X153077177Y-98536137D01*
X153154436Y-98350076D01*
X153390182Y-98507597D01*
X153864174Y-98601880D01*
X153912706Y-98601880D01*
X154386698Y-98507597D01*
X154788528Y-98239102D01*
X155057023Y-97837272D01*
X155151306Y-97363280D01*
X155057023Y-96889288D01*
X154796695Y-96499680D01*
X155182494Y-96499680D01*
X155182494Y-98226880D01*
X155208642Y-98365846D01*
X155290771Y-98493479D01*
X155416086Y-98579103D01*
X155564840Y-98609226D01*
X157292040Y-98609226D01*
X157431006Y-98583078D01*
X157558639Y-98500949D01*
X157644263Y-98375634D01*
X157674386Y-98226880D01*
X157674386Y-96714114D01*
X158873072Y-96714114D01*
X159195902Y-97495423D01*
X159793153Y-98093717D01*
X160573897Y-98417910D01*
X161419274Y-98418648D01*
X162023277Y-98169079D01*
X169744966Y-98169079D01*
X169753544Y-98696127D01*
X169938733Y-99143213D01*
X170124796Y-99254258D01*
X170968014Y-98411040D01*
X171180146Y-98411040D01*
X172023364Y-99254258D01*
X172209427Y-99143213D01*
X172403194Y-98653001D01*
X172394616Y-98125953D01*
X172209427Y-97678867D01*
X172023364Y-97567822D01*
X171180146Y-98411040D01*
X170968014Y-98411040D01*
X170124796Y-97567822D01*
X169938733Y-97678867D01*
X169744966Y-98169079D01*
X162023277Y-98169079D01*
X162200583Y-98095818D01*
X162798877Y-97498567D01*
X162814162Y-97461756D01*
X170230862Y-97461756D01*
X171074080Y-98304974D01*
X171917298Y-97461756D01*
X171806253Y-97275693D01*
X171316041Y-97081926D01*
X170788993Y-97090504D01*
X170341907Y-97275693D01*
X170230862Y-97461756D01*
X162814162Y-97461756D01*
X163029205Y-96943873D01*
X164464900Y-96943873D01*
X164552254Y-97155286D01*
X164713863Y-97317177D01*
X164925124Y-97404900D01*
X165153873Y-97405100D01*
X165365286Y-97317746D01*
X165527177Y-97156137D01*
X165614900Y-96944876D01*
X165615100Y-96716127D01*
X165527746Y-96504714D01*
X165366137Y-96342823D01*
X165176004Y-96263873D01*
X168164900Y-96263873D01*
X168252254Y-96475286D01*
X168413863Y-96637177D01*
X168625124Y-96724900D01*
X168853873Y-96725100D01*
X169065286Y-96637746D01*
X169227177Y-96476137D01*
X169314900Y-96264876D01*
X169315100Y-96036127D01*
X169227746Y-95824714D01*
X169066137Y-95662823D01*
X168854876Y-95575100D01*
X168626127Y-95574900D01*
X168414714Y-95662254D01*
X168252823Y-95823863D01*
X168165100Y-96035124D01*
X168164900Y-96263873D01*
X165176004Y-96263873D01*
X165154876Y-96255100D01*
X164926127Y-96254900D01*
X164714714Y-96342254D01*
X164552823Y-96503863D01*
X164465100Y-96715124D01*
X164464900Y-96943873D01*
X163029205Y-96943873D01*
X163123070Y-96717823D01*
X163123808Y-95872446D01*
X162800978Y-95091137D01*
X162294599Y-94583873D01*
X168104900Y-94583873D01*
X168192254Y-94795286D01*
X168353863Y-94957177D01*
X168565124Y-95044900D01*
X168793873Y-95045100D01*
X169005286Y-94957746D01*
X169167177Y-94796137D01*
X169254900Y-94584876D01*
X169255100Y-94356127D01*
X169167746Y-94144714D01*
X169006137Y-93982823D01*
X168794876Y-93895100D01*
X168566127Y-93894900D01*
X168354714Y-93982254D01*
X168192823Y-94143863D01*
X168105100Y-94355124D01*
X168104900Y-94583873D01*
X162294599Y-94583873D01*
X162203727Y-94492843D01*
X161422983Y-94168650D01*
X160577606Y-94167912D01*
X159796297Y-94490742D01*
X159198003Y-95087993D01*
X158873810Y-95868737D01*
X158873072Y-96714114D01*
X157674386Y-96714114D01*
X157674386Y-96499680D01*
X157648238Y-96360714D01*
X157566109Y-96233081D01*
X157440794Y-96147457D01*
X157292040Y-96117334D01*
X155564840Y-96117334D01*
X155425874Y-96143482D01*
X155298241Y-96225611D01*
X155212617Y-96350926D01*
X155182494Y-96499680D01*
X154796695Y-96499680D01*
X154788528Y-96487458D01*
X154386698Y-96218963D01*
X153912706Y-96124680D01*
X153864174Y-96124680D01*
X153390182Y-96218963D01*
X152988352Y-96487458D01*
X152719857Y-96889288D01*
X152625574Y-97363280D01*
X152679638Y-97635078D01*
X152557263Y-97634971D01*
X152611306Y-97363280D01*
X152517023Y-96889288D01*
X152248528Y-96487458D01*
X151846698Y-96218963D01*
X151372706Y-96124680D01*
X151324174Y-96124680D01*
X150850182Y-96218963D01*
X150448352Y-96487458D01*
X150179857Y-96889288D01*
X150085574Y-97363280D01*
X150071306Y-97363280D01*
X149977023Y-96889288D01*
X149708528Y-96487458D01*
X149306698Y-96218963D01*
X148832706Y-96124680D01*
X148784174Y-96124680D01*
X148310182Y-96218963D01*
X147908352Y-96487458D01*
X147639857Y-96889288D01*
X147545574Y-97363280D01*
X144991306Y-97363280D01*
X144939660Y-97103636D01*
X145108546Y-97103636D01*
X145163633Y-97288280D01*
X146193440Y-97288280D01*
X146193440Y-96258291D01*
X146343440Y-96258291D01*
X146343440Y-97288280D01*
X147373247Y-97288280D01*
X147428334Y-97103636D01*
X147272211Y-96726702D01*
X146952196Y-96391032D01*
X146528085Y-96203378D01*
X146343440Y-96258291D01*
X146193440Y-96258291D01*
X146008795Y-96203378D01*
X145584684Y-96391032D01*
X145264669Y-96726702D01*
X145108546Y-97103636D01*
X144939660Y-97103636D01*
X144897023Y-96889288D01*
X144628528Y-96487458D01*
X144226698Y-96218963D01*
X143752706Y-96124680D01*
X143704174Y-96124680D01*
X143230182Y-96218963D01*
X142828352Y-96487458D01*
X142559857Y-96889288D01*
X142465574Y-97363280D01*
X142451306Y-97363280D01*
X142357023Y-96889288D01*
X142088528Y-96487458D01*
X141686698Y-96218963D01*
X141212706Y-96124680D01*
X141164174Y-96124680D01*
X140690182Y-96218963D01*
X140288352Y-96487458D01*
X140019857Y-96889288D01*
X139925574Y-97363280D01*
X139911306Y-97363280D01*
X139817023Y-96889288D01*
X139548528Y-96487458D01*
X139146698Y-96218963D01*
X138672706Y-96124680D01*
X138624174Y-96124680D01*
X138150182Y-96218963D01*
X137748352Y-96487458D01*
X137479857Y-96889288D01*
X137385574Y-97363280D01*
X137371306Y-97363280D01*
X137277023Y-96889288D01*
X137008528Y-96487458D01*
X136606698Y-96218963D01*
X136132706Y-96124680D01*
X136084174Y-96124680D01*
X135610182Y-96218963D01*
X135208352Y-96487458D01*
X134939857Y-96889288D01*
X134845574Y-97363280D01*
X134831306Y-97363280D01*
X134737023Y-96889288D01*
X134468528Y-96487458D01*
X134066698Y-96218963D01*
X133592706Y-96124680D01*
X133544174Y-96124680D01*
X133070182Y-96218963D01*
X132668352Y-96487458D01*
X132399857Y-96889288D01*
X132305574Y-97363280D01*
X132291306Y-97363280D01*
X132197023Y-96889288D01*
X131928528Y-96487458D01*
X131526698Y-96218963D01*
X131052706Y-96124680D01*
X131004174Y-96124680D01*
X130530182Y-96218963D01*
X130128352Y-96487458D01*
X129859857Y-96889288D01*
X129765574Y-97363280D01*
X129751306Y-97363280D01*
X129657023Y-96889288D01*
X129388528Y-96487458D01*
X128986698Y-96218963D01*
X128512706Y-96124680D01*
X128464174Y-96124680D01*
X127990182Y-96218963D01*
X127588352Y-96487458D01*
X127319857Y-96889288D01*
X127225574Y-97363280D01*
X125853440Y-97363280D01*
X125853440Y-97288280D01*
X125873440Y-97288280D01*
X125873440Y-96258291D01*
X126023440Y-96258291D01*
X126023440Y-97288280D01*
X127053247Y-97288280D01*
X127108334Y-97103636D01*
X126952211Y-96726702D01*
X126632196Y-96391032D01*
X126208085Y-96203378D01*
X126023440Y-96258291D01*
X125873440Y-96258291D01*
X125688795Y-96203378D01*
X125264684Y-96391032D01*
X124944669Y-96726702D01*
X124852358Y-96949572D01*
X124852358Y-95405777D01*
X125048352Y-95699102D01*
X125450182Y-95967597D01*
X125924174Y-96061880D01*
X125972706Y-96061880D01*
X126446698Y-95967597D01*
X126848528Y-95699102D01*
X127117023Y-95297272D01*
X127211306Y-94823280D01*
X127225574Y-94823280D01*
X127319857Y-95297272D01*
X127588352Y-95699102D01*
X127990182Y-95967597D01*
X128464174Y-96061880D01*
X128512706Y-96061880D01*
X128986698Y-95967597D01*
X129388528Y-95699102D01*
X129657023Y-95297272D01*
X129751306Y-94823280D01*
X129765574Y-94823280D01*
X129859857Y-95297272D01*
X130128352Y-95699102D01*
X130530182Y-95967597D01*
X131004174Y-96061880D01*
X131052706Y-96061880D01*
X131526698Y-95967597D01*
X131928528Y-95699102D01*
X132197023Y-95297272D01*
X132239659Y-95082924D01*
X132408546Y-95082924D01*
X132564669Y-95459858D01*
X132884684Y-95795528D01*
X133308795Y-95983182D01*
X133493440Y-95928269D01*
X133493440Y-94898280D01*
X133643440Y-94898280D01*
X133643440Y-95928269D01*
X133828085Y-95983182D01*
X134252196Y-95795528D01*
X134572211Y-95459858D01*
X134728334Y-95082924D01*
X134673247Y-94898280D01*
X133643440Y-94898280D01*
X133493440Y-94898280D01*
X132463633Y-94898280D01*
X132408546Y-95082924D01*
X132239659Y-95082924D01*
X132291306Y-94823280D01*
X134845574Y-94823280D01*
X134939857Y-95297272D01*
X135208352Y-95699102D01*
X135610182Y-95967597D01*
X136084174Y-96061880D01*
X136132706Y-96061880D01*
X136606698Y-95967597D01*
X137008528Y-95699102D01*
X137277023Y-95297272D01*
X137371306Y-94823280D01*
X137385574Y-94823280D01*
X137479857Y-95297272D01*
X137748352Y-95699102D01*
X138150182Y-95967597D01*
X138624174Y-96061880D01*
X138672706Y-96061880D01*
X139146698Y-95967597D01*
X139548528Y-95699102D01*
X139817023Y-95297272D01*
X139911306Y-94823280D01*
X139925574Y-94823280D01*
X140019857Y-95297272D01*
X140288352Y-95699102D01*
X140690182Y-95967597D01*
X141164174Y-96061880D01*
X141212706Y-96061880D01*
X141686698Y-95967597D01*
X142088528Y-95699102D01*
X142357023Y-95297272D01*
X142451306Y-94823280D01*
X142465574Y-94823280D01*
X142559857Y-95297272D01*
X142828352Y-95699102D01*
X143230182Y-95967597D01*
X143704174Y-96061880D01*
X143752706Y-96061880D01*
X144226698Y-95967597D01*
X144628528Y-95699102D01*
X144897023Y-95297272D01*
X144991306Y-94823280D01*
X145005574Y-94823280D01*
X145099857Y-95297272D01*
X145368352Y-95699102D01*
X145770182Y-95967597D01*
X146244174Y-96061880D01*
X146292706Y-96061880D01*
X146766698Y-95967597D01*
X147168528Y-95699102D01*
X147437023Y-95297272D01*
X147531306Y-94823280D01*
X147545574Y-94823280D01*
X147639857Y-95297272D01*
X147908352Y-95699102D01*
X148310182Y-95967597D01*
X148784174Y-96061880D01*
X148832706Y-96061880D01*
X149306698Y-95967597D01*
X149708528Y-95699102D01*
X149977023Y-95297272D01*
X150019659Y-95082924D01*
X150188546Y-95082924D01*
X150344669Y-95459858D01*
X150664684Y-95795528D01*
X151088795Y-95983182D01*
X151273440Y-95928269D01*
X151273440Y-94898280D01*
X151423440Y-94898280D01*
X151423440Y-95928269D01*
X151608085Y-95983182D01*
X152032196Y-95795528D01*
X152352211Y-95459858D01*
X152508334Y-95082924D01*
X152453247Y-94898280D01*
X151423440Y-94898280D01*
X151273440Y-94898280D01*
X150243633Y-94898280D01*
X150188546Y-95082924D01*
X150019659Y-95082924D01*
X150071306Y-94823280D01*
X150019660Y-94563636D01*
X150188546Y-94563636D01*
X150243633Y-94748280D01*
X151273440Y-94748280D01*
X151273440Y-93718291D01*
X151423440Y-93718291D01*
X151423440Y-94748280D01*
X152453247Y-94748280D01*
X152508334Y-94563636D01*
X152438461Y-94394938D01*
X152623873Y-94395100D01*
X152718524Y-94355991D01*
X152625574Y-94823280D01*
X152719857Y-95297272D01*
X152988352Y-95699102D01*
X153390182Y-95967597D01*
X153864174Y-96061880D01*
X153912706Y-96061880D01*
X154386698Y-95967597D01*
X154788528Y-95699102D01*
X155057023Y-95297272D01*
X155151306Y-94823280D01*
X155165574Y-94823280D01*
X155259857Y-95297272D01*
X155528352Y-95699102D01*
X155930182Y-95967597D01*
X156404174Y-96061880D01*
X156452706Y-96061880D01*
X156926698Y-95967597D01*
X157328528Y-95699102D01*
X157597023Y-95297272D01*
X157691306Y-94823280D01*
X157597023Y-94349288D01*
X157332815Y-93953873D01*
X158504900Y-93953873D01*
X158592254Y-94165286D01*
X158753863Y-94327177D01*
X158965124Y-94414900D01*
X159193873Y-94415100D01*
X159405286Y-94327746D01*
X159567177Y-94166137D01*
X159654900Y-93954876D01*
X159654997Y-93843873D01*
X166414900Y-93843873D01*
X166502254Y-94055286D01*
X166663863Y-94217177D01*
X166875124Y-94304900D01*
X167103873Y-94305100D01*
X167315286Y-94217746D01*
X167477177Y-94056137D01*
X167564900Y-93844876D01*
X167565100Y-93616127D01*
X167477746Y-93404714D01*
X167316137Y-93242823D01*
X167104876Y-93155100D01*
X166876127Y-93154900D01*
X166664714Y-93242254D01*
X166502823Y-93403863D01*
X166415100Y-93615124D01*
X166414900Y-93843873D01*
X159654997Y-93843873D01*
X159655100Y-93726127D01*
X159567746Y-93514714D01*
X159406137Y-93352823D01*
X159194876Y-93265100D01*
X158966127Y-93264900D01*
X158754714Y-93352254D01*
X158592823Y-93513863D01*
X158505100Y-93725124D01*
X158504900Y-93953873D01*
X157332815Y-93953873D01*
X157328528Y-93947458D01*
X156926698Y-93678963D01*
X156452706Y-93584680D01*
X156404174Y-93584680D01*
X155930182Y-93678963D01*
X155528352Y-93947458D01*
X155259857Y-94349288D01*
X155165574Y-94823280D01*
X155151306Y-94823280D01*
X155057023Y-94349288D01*
X154788528Y-93947458D01*
X154386698Y-93678963D01*
X153912706Y-93584680D01*
X153864174Y-93584680D01*
X153390182Y-93678963D01*
X153084945Y-93882916D01*
X153085100Y-93706127D01*
X152997746Y-93494714D01*
X152836137Y-93332823D01*
X152624876Y-93245100D01*
X152396127Y-93244900D01*
X152184714Y-93332254D01*
X152022823Y-93493863D01*
X151935100Y-93705124D01*
X151935010Y-93808031D01*
X151608085Y-93663378D01*
X151423440Y-93718291D01*
X151273440Y-93718291D01*
X151088795Y-93663378D01*
X150664684Y-93851032D01*
X150344669Y-94186702D01*
X150188546Y-94563636D01*
X150019660Y-94563636D01*
X149977023Y-94349288D01*
X149708528Y-93947458D01*
X149306698Y-93678963D01*
X148832706Y-93584680D01*
X148784174Y-93584680D01*
X148310182Y-93678963D01*
X147908352Y-93947458D01*
X147639857Y-94349288D01*
X147545574Y-94823280D01*
X147531306Y-94823280D01*
X147437023Y-94349288D01*
X147168528Y-93947458D01*
X146766698Y-93678963D01*
X146292706Y-93584680D01*
X146244174Y-93584680D01*
X145770182Y-93678963D01*
X145368352Y-93947458D01*
X145099857Y-94349288D01*
X145005574Y-94823280D01*
X144991306Y-94823280D01*
X144897023Y-94349288D01*
X144628528Y-93947458D01*
X144226698Y-93678963D01*
X143752706Y-93584680D01*
X143704174Y-93584680D01*
X143230182Y-93678963D01*
X142828352Y-93947458D01*
X142559857Y-94349288D01*
X142465574Y-94823280D01*
X142451306Y-94823280D01*
X142357023Y-94349288D01*
X142088528Y-93947458D01*
X141686698Y-93678963D01*
X141212706Y-93584680D01*
X141164174Y-93584680D01*
X140690182Y-93678963D01*
X140288352Y-93947458D01*
X140019857Y-94349288D01*
X139925574Y-94823280D01*
X139911306Y-94823280D01*
X139817023Y-94349288D01*
X139548528Y-93947458D01*
X139146698Y-93678963D01*
X138672706Y-93584680D01*
X138624174Y-93584680D01*
X138150182Y-93678963D01*
X137748352Y-93947458D01*
X137479857Y-94349288D01*
X137385574Y-94823280D01*
X137371306Y-94823280D01*
X137277023Y-94349288D01*
X137008528Y-93947458D01*
X136606698Y-93678963D01*
X136132706Y-93584680D01*
X136084174Y-93584680D01*
X135610182Y-93678963D01*
X135208352Y-93947458D01*
X134939857Y-94349288D01*
X134845574Y-94823280D01*
X132291306Y-94823280D01*
X132239660Y-94563636D01*
X132408546Y-94563636D01*
X132463633Y-94748280D01*
X133493440Y-94748280D01*
X133493440Y-93718291D01*
X133643440Y-93718291D01*
X133643440Y-94748280D01*
X134673247Y-94748280D01*
X134728334Y-94563636D01*
X134572211Y-94186702D01*
X134252196Y-93851032D01*
X133828085Y-93663378D01*
X133643440Y-93718291D01*
X133493440Y-93718291D01*
X133308795Y-93663378D01*
X132884684Y-93851032D01*
X132564669Y-94186702D01*
X132408546Y-94563636D01*
X132239660Y-94563636D01*
X132197023Y-94349288D01*
X131928528Y-93947458D01*
X131526698Y-93678963D01*
X131052706Y-93584680D01*
X131004174Y-93584680D01*
X130530182Y-93678963D01*
X130128352Y-93947458D01*
X129859857Y-94349288D01*
X129765574Y-94823280D01*
X129751306Y-94823280D01*
X129657023Y-94349288D01*
X129388528Y-93947458D01*
X128986698Y-93678963D01*
X128512706Y-93584680D01*
X128464174Y-93584680D01*
X127990182Y-93678963D01*
X127588352Y-93947458D01*
X127319857Y-94349288D01*
X127225574Y-94823280D01*
X127211306Y-94823280D01*
X127117023Y-94349288D01*
X126848528Y-93947458D01*
X126446698Y-93678963D01*
X125972706Y-93584680D01*
X125924174Y-93584680D01*
X125450182Y-93678963D01*
X125048352Y-93947458D01*
X124852358Y-94240783D01*
X124852358Y-92340553D01*
X170200194Y-92340553D01*
X169909091Y-92631148D01*
M02*
