G04 #@! TF.FileFunction,Copper,L3,Inr,Mixed*
%FSLAX46Y46*%
G04 Gerber Fmt 4.6, Leading zero omitted, Abs format (unit mm)*
G04 Created by KiCad (PCBNEW 4.0.7) date 09/09/17 19:38:47*
%MOMM*%
%LPD*%
G01*
G04 APERTURE LIST*
%ADD10C,0.100000*%
%ADD11R,2.032000X1.727200*%
%ADD12O,2.032000X1.727200*%
%ADD13R,1.727200X1.727200*%
%ADD14O,1.727200X1.727200*%
%ADD15C,3.500000*%
%ADD16C,2.000000*%
%ADD17O,1.900000X1.000000*%
%ADD18C,1.450000*%
%ADD19C,0.400000*%
%ADD20C,1.000000*%
%ADD21C,0.150000*%
%ADD22C,0.500000*%
%ADD23C,0.250000*%
G04 APERTURE END LIST*
D10*
X137927358Y-135315553D02*
X137927358Y-135715553D01*
X126777358Y-135715553D02*
X126777358Y-135315553D01*
X127777358Y-136715553D02*
X126777358Y-135715553D01*
X136927358Y-136715553D02*
X127777358Y-136715553D01*
X137927358Y-135715553D02*
X136927358Y-136715553D01*
X161427358Y-135315553D02*
X161427358Y-135715553D01*
X139927358Y-135715553D02*
X139927358Y-135315553D01*
X140927358Y-136715553D02*
X139927358Y-135715553D01*
X160427358Y-136715553D02*
X140927358Y-136715553D01*
X161427358Y-135715553D02*
X160427358Y-136715553D01*
X124427358Y-91915553D02*
X174427358Y-91915553D01*
X174427358Y-128315553D02*
X174427358Y-91915553D01*
X174427358Y-128315553D02*
X162427358Y-128315553D01*
X124427358Y-128315553D02*
X124427358Y-91915553D01*
X125777358Y-128315553D02*
X124427358Y-128315553D01*
X125777358Y-128315553D02*
G75*
G02X126777358Y-129315553I0J-1000000D01*
G01*
X126777358Y-135315553D02*
X126777358Y-129315553D01*
X137927358Y-129315553D02*
X137927358Y-135315553D01*
X137927358Y-129315553D02*
G75*
G02X139927358Y-129315553I1000000J0D01*
G01*
X139927358Y-135315553D02*
X139927358Y-129315553D01*
X161427358Y-129315553D02*
X161427358Y-135315553D01*
X161427358Y-129315553D02*
G75*
G02X162427358Y-128315553I1000000J0D01*
G01*
D11*
X135331200Y-101854000D03*
D12*
X135331200Y-104394000D03*
X135331200Y-106934000D03*
X135331200Y-109474000D03*
D13*
X156428440Y-97363280D03*
D14*
X156428440Y-94823280D03*
X153888440Y-97363280D03*
X153888440Y-94823280D03*
X151348440Y-97363280D03*
X151348440Y-94823280D03*
X148808440Y-97363280D03*
X148808440Y-94823280D03*
X146268440Y-97363280D03*
X146268440Y-94823280D03*
X143728440Y-97363280D03*
X143728440Y-94823280D03*
X141188440Y-97363280D03*
X141188440Y-94823280D03*
X138648440Y-97363280D03*
X138648440Y-94823280D03*
X136108440Y-97363280D03*
X136108440Y-94823280D03*
X133568440Y-97363280D03*
X133568440Y-94823280D03*
X131028440Y-97363280D03*
X131028440Y-94823280D03*
X128488440Y-97363280D03*
X128488440Y-94823280D03*
X125948440Y-97363280D03*
X125948440Y-94823280D03*
D15*
X160998440Y-96293280D03*
D16*
X171074080Y-93411040D03*
X171074080Y-98411040D03*
D17*
X125984000Y-109164000D03*
D18*
X128684000Y-108164000D03*
X128684000Y-103164000D03*
D17*
X125984000Y-102164000D03*
X172874940Y-100157400D03*
D18*
X170174940Y-101157400D03*
X170174940Y-106157400D03*
D17*
X172874940Y-107157400D03*
D19*
X126870000Y-118290000D03*
X126870000Y-119000000D03*
X128219200Y-129946400D03*
X128193800Y-129311400D03*
X128168400Y-128498600D03*
X139260000Y-114754990D03*
X161072233Y-114619534D03*
X141400000Y-101200000D03*
X143408400Y-122529600D03*
X128219200Y-113157000D03*
X128219200Y-114300000D03*
X138938000Y-107619800D03*
X138303000Y-105206800D03*
X138360000Y-121280000D03*
X138582400Y-108280200D03*
X158220000Y-115325001D03*
X158902400Y-113030000D03*
X166497000Y-106222800D03*
X143970000Y-121150000D03*
X142951200Y-101955600D03*
X169976800Y-107670600D03*
X168833800Y-103225600D03*
X155600400Y-117576600D03*
X147574000Y-108178600D03*
X147040600Y-108178600D03*
X155803600Y-108737400D03*
X155321000Y-108712000D03*
X140712148Y-118865010D03*
X149334489Y-113196225D03*
X142025914Y-112599639D03*
X161380000Y-99550000D03*
X168850000Y-111490000D03*
X149631400Y-130860800D03*
X125400000Y-112190000D03*
X138150000Y-125810000D03*
X125349000Y-127508000D03*
X173355000Y-127254000D03*
X131038600Y-129311400D03*
X130937000Y-128778000D03*
X149733000Y-105283000D03*
X146456400Y-110083600D03*
X129463800Y-129057400D03*
X143865600Y-110083600D03*
X160248600Y-130276600D03*
X155498800Y-130302000D03*
X154025600Y-130302000D03*
X141884400Y-130657600D03*
X147421600Y-130657600D03*
X145440400Y-130657600D03*
X133502400Y-116306600D03*
X133426200Y-130657600D03*
X137236200Y-130225800D03*
X160020000Y-104013000D03*
X158242000Y-105308400D03*
X163753800Y-113538000D03*
X164058600Y-122631200D03*
X163931600Y-112293400D03*
X160807400Y-103149400D03*
X166547800Y-108204000D03*
X163437000Y-107684000D03*
X161937000Y-107684000D03*
X163437000Y-106184000D03*
X161937000Y-106184000D03*
X166344600Y-104724200D03*
X171246800Y-119354600D03*
X132270000Y-106780000D03*
X168884600Y-101777800D03*
X168884600Y-101371400D03*
X152450800Y-126111000D03*
X153974800Y-101244400D03*
X151384000Y-101092000D03*
X151688800Y-126339600D03*
X141220000Y-113250000D03*
X153520000Y-112160000D03*
X153330000Y-107740000D03*
X138834833Y-115735167D03*
X139954000Y-103632000D03*
X152510000Y-93820000D03*
X152590000Y-98210000D03*
X135102600Y-126111000D03*
X141550000Y-123630002D03*
X141224000Y-129565400D03*
X140720000Y-123640000D03*
X140639800Y-130302000D03*
X136601200Y-126669800D03*
X140990000Y-122600000D03*
X142798800Y-128066800D03*
X143383000Y-126415800D03*
X144424400Y-126111000D03*
X145821400Y-112242600D03*
X146253200Y-111607600D03*
X147066000Y-129870200D03*
X148056600Y-109397800D03*
X148539200Y-108839000D03*
X148971000Y-130378200D03*
X150418800Y-126111000D03*
X150990000Y-117380000D03*
X136691997Y-117013501D03*
X151003000Y-130048000D03*
X153436417Y-117914990D03*
X135880000Y-118280000D03*
X154813000Y-127355600D03*
X142189200Y-127355600D03*
X137370000Y-116660000D03*
X156430000Y-117410000D03*
X171145200Y-111531400D03*
X159100000Y-122330000D03*
X151530000Y-121640000D03*
X158000000Y-122200000D03*
X158080000Y-120260000D03*
X159630000Y-122930000D03*
X148691600Y-121158000D03*
X158627634Y-116291074D03*
X137880000Y-116060000D03*
X156610000Y-112470000D03*
X166990000Y-93730000D03*
X165912800Y-109677200D03*
X158851600Y-106248200D03*
X141480000Y-114051785D03*
X160066450Y-114251784D03*
X134240000Y-113795010D03*
X142720000Y-100860000D03*
X150164800Y-124434600D03*
X144690000Y-119215021D03*
X139776200Y-101320600D03*
X171246800Y-116078000D03*
X145500000Y-119900000D03*
X145211800Y-101295200D03*
X171272200Y-120446800D03*
X135530000Y-119050000D03*
X172085000Y-112293400D03*
X140090000Y-122670000D03*
X171221400Y-115036600D03*
X150680000Y-113420000D03*
X137180000Y-119240000D03*
X133702104Y-115437894D03*
X172212000Y-110693200D03*
X170880000Y-117180000D03*
X139390000Y-126590000D03*
X132461000Y-127508000D03*
X132461000Y-128397000D03*
X155321000Y-102870000D03*
X132461000Y-126365000D03*
X146304000Y-105029000D03*
X131394200Y-113157000D03*
X163550600Y-115239800D03*
X163550600Y-115824000D03*
X145694400Y-110820200D03*
X137388600Y-112547400D03*
X160045400Y-101219000D03*
X167462200Y-105613200D03*
X168680000Y-94470000D03*
X157454600Y-109499400D03*
X133477000Y-128676400D03*
X137134600Y-129463800D03*
X134493000Y-129590800D03*
X134645400Y-128727200D03*
X155550000Y-123290000D03*
X171100000Y-118320000D03*
X151500000Y-102850000D03*
X168740000Y-96150000D03*
X165040000Y-96830000D03*
X159080000Y-93840000D03*
X132270000Y-107510000D03*
X164520000Y-101940000D03*
X164520000Y-101370000D03*
X169189400Y-105359200D03*
X169240200Y-104978200D03*
X130780000Y-115370000D03*
X130300000Y-114890000D03*
D20*
X126085600Y-119784400D02*
X126870000Y-119000000D01*
X126085600Y-126009400D02*
X126085600Y-119784400D01*
X126085600Y-126009400D02*
X128193800Y-128117600D01*
X128193800Y-128117600D02*
X128193800Y-129921000D01*
X128219200Y-129946400D02*
X128193800Y-129921000D01*
D21*
X160872234Y-114819533D02*
X139324543Y-114819533D01*
X161072233Y-114619534D02*
X160872234Y-114819533D01*
X139324543Y-114819533D02*
X139270000Y-114764990D01*
X139270000Y-114764990D02*
X139260000Y-114754990D01*
X170357800Y-107645200D02*
X170002200Y-107645200D01*
X170002200Y-107645200D02*
X169976800Y-107670600D01*
X170510200Y-104571800D02*
X171119800Y-105181400D01*
X169849800Y-104571800D02*
X170510200Y-104571800D01*
X168833800Y-103555800D02*
X169849800Y-104571800D01*
X168833800Y-103225600D02*
X168833800Y-103555800D01*
X171196000Y-106807000D02*
X170586400Y-107416600D01*
X171196000Y-105257600D02*
X171196000Y-106807000D01*
X171119800Y-105181400D02*
X171196000Y-105257600D01*
X170586400Y-107416600D02*
X170357800Y-107645200D01*
X170586400Y-107416600D02*
X170561000Y-107442000D01*
D22*
X155321000Y-108712000D02*
X150164800Y-108712000D01*
X150164800Y-108712000D02*
X149631400Y-108178600D01*
X149631400Y-108178600D02*
X147675600Y-108178600D01*
X147675600Y-108178600D02*
X147040600Y-108178600D01*
X155321000Y-108712000D02*
X155778200Y-108712000D01*
X155778200Y-108712000D02*
X155803600Y-108737400D01*
D23*
X156428440Y-97363280D02*
X156428440Y-97441560D01*
X156428440Y-97441560D02*
X155085002Y-98784998D01*
X136724998Y-98784998D02*
X136108440Y-98168440D01*
X155085002Y-98784998D02*
X136724998Y-98784998D01*
X136108440Y-98168440D02*
X136108440Y-97363280D01*
D21*
X153520000Y-112160000D02*
X148000000Y-112160000D01*
X141502842Y-113250000D02*
X141220000Y-113250000D01*
X146910000Y-113250000D02*
X141502842Y-113250000D01*
X148000000Y-112160000D02*
X146910000Y-113250000D01*
X152510000Y-98130000D02*
X152510000Y-93820000D01*
X152590000Y-98210000D02*
X152510000Y-98130000D01*
X141550000Y-129239400D02*
X141550000Y-123912844D01*
X141550000Y-123912844D02*
X141550000Y-123630002D01*
X141224000Y-129565400D02*
X141550000Y-129239400D01*
X140639800Y-130302000D02*
X140639800Y-123720200D01*
X140639800Y-123720200D02*
X140720000Y-123640000D01*
X150707158Y-117380000D02*
X150990000Y-117380000D01*
X136691997Y-117013501D02*
X137058496Y-117380000D01*
X137058496Y-117380000D02*
X150707158Y-117380000D01*
X151478001Y-117925001D02*
X151488012Y-117914990D01*
X151488012Y-117914990D02*
X153153575Y-117914990D01*
X135880000Y-118280000D02*
X136234999Y-117925001D01*
X136234999Y-117925001D02*
X151478001Y-117925001D01*
X153153575Y-117914990D02*
X153436417Y-117914990D01*
X154813000Y-127355600D02*
X142189200Y-127355600D01*
X156430000Y-117410000D02*
X155680000Y-116660000D01*
X137652842Y-116660000D02*
X137370000Y-116660000D01*
X155680000Y-116660000D02*
X137652842Y-116660000D01*
X158900001Y-122130001D02*
X159100000Y-122330000D01*
X158410000Y-121640000D02*
X158900001Y-122130001D01*
X151530000Y-121640000D02*
X158410000Y-121640000D01*
X157636998Y-122930000D02*
X159347158Y-122930000D01*
X157160398Y-122453400D02*
X157636998Y-122930000D01*
X149987000Y-122453400D02*
X157160398Y-122453400D01*
X148691600Y-121158000D02*
X149987000Y-122453400D01*
X159347158Y-122930000D02*
X159630000Y-122930000D01*
X137880000Y-116060000D02*
X138111074Y-116291074D01*
X138111074Y-116291074D02*
X158344792Y-116291074D01*
X158344792Y-116291074D02*
X158627634Y-116291074D01*
X163626800Y-102971600D02*
X163626800Y-97093200D01*
X160985200Y-105613200D02*
X163626800Y-102971600D01*
X166790001Y-93929999D02*
X166990000Y-93730000D01*
X163626800Y-97093200D02*
X166790001Y-93929999D01*
X165912800Y-109677200D02*
X162356800Y-109677200D01*
X162356800Y-109677200D02*
X160959800Y-108280200D01*
X160959800Y-108280200D02*
X160959800Y-105638600D01*
X160959800Y-105638600D02*
X160985200Y-105613200D01*
X160985200Y-105613200D02*
X160985200Y-105587800D01*
X160985200Y-105587800D02*
X160985200Y-105613200D01*
X160985200Y-105613200D02*
X160350200Y-106248200D01*
X160350200Y-106248200D02*
X158851600Y-106248200D01*
X159866451Y-114051785D02*
X141480000Y-114051785D01*
X160066450Y-114251784D02*
X159866451Y-114051785D01*
X168109779Y-119215021D02*
X144972842Y-119215021D01*
X171246800Y-116078000D02*
X168109779Y-119215021D01*
X144972842Y-119215021D02*
X144690000Y-119215021D01*
X167769000Y-123950000D02*
X149550000Y-123950000D01*
X171272200Y-120446800D02*
X167769000Y-123950000D01*
X149550000Y-123950000D02*
X145699999Y-120099999D01*
X145699999Y-120099999D02*
X145500000Y-119900000D01*
X163420000Y-112903000D02*
X171475400Y-112903000D01*
X163000000Y-114210000D02*
X163000000Y-113323000D01*
X163000000Y-113323000D02*
X163420000Y-112903000D01*
X158820000Y-118390000D02*
X163000000Y-114210000D01*
X136472842Y-118390000D02*
X158820000Y-118390000D01*
X135530000Y-119050000D02*
X135812842Y-119050000D01*
X135812842Y-119050000D02*
X136472842Y-118390000D01*
X171475400Y-112903000D02*
X171885001Y-112493399D01*
X171885001Y-112493399D02*
X172085000Y-112293400D01*
X140289999Y-122470001D02*
X140090000Y-122670000D01*
X144019989Y-118740011D02*
X140289999Y-122470001D01*
X167517989Y-118740011D02*
X144019989Y-118740011D01*
X171221400Y-115036600D02*
X167517989Y-118740011D01*
X170880000Y-117180000D02*
X171850000Y-117180000D01*
X171850000Y-117180000D02*
X172872400Y-116157600D01*
X172872400Y-116157600D02*
X172872400Y-111353600D01*
X172872400Y-111353600D02*
X172212000Y-110693200D01*
D23*
X167462200Y-105613200D02*
X165862000Y-105613200D01*
X165862000Y-105613200D02*
X165709600Y-105765600D01*
X165709600Y-105765600D02*
X165709600Y-108458000D01*
X165709600Y-108458000D02*
X166801800Y-109550200D01*
X166801800Y-109550200D02*
X171069000Y-109550200D01*
X171069000Y-109550200D02*
X172212000Y-110693200D01*
D21*
X171074080Y-93411040D02*
X170613040Y-92950000D01*
X170613040Y-92950000D02*
X163920200Y-92950000D01*
X163920200Y-92950000D02*
X163169600Y-93700600D01*
X163169600Y-93700600D02*
X163169600Y-99415600D01*
X163169600Y-99415600D02*
X157454600Y-105130600D01*
X157454600Y-109216558D02*
X157454600Y-109499400D01*
X157454600Y-105130600D02*
X157454600Y-109216558D01*
X169650000Y-94470000D02*
X168680000Y-94470000D01*
X169650000Y-94470000D02*
X170708960Y-93411040D01*
X171074080Y-93411040D02*
X170708960Y-93411040D01*
X137134600Y-129463800D02*
X134594600Y-129463800D01*
X134493000Y-129565400D02*
X134493000Y-129590800D01*
X134594600Y-129463800D02*
X134493000Y-129565400D01*
X171100000Y-118320000D02*
X165880001Y-123539999D01*
X165880001Y-123539999D02*
X155799999Y-123539999D01*
X155799999Y-123539999D02*
X155749999Y-123489999D01*
X155749999Y-123489999D02*
X155550000Y-123290000D01*
D22*
X164520000Y-101370000D02*
X164520000Y-101940000D01*
X164520000Y-101370000D02*
X165500000Y-101370000D01*
X165500000Y-101370000D02*
X166290000Y-102160000D01*
X166290000Y-102160000D02*
X166422000Y-102160000D01*
X166422000Y-102160000D02*
X169240200Y-104978200D01*
X169240200Y-104978200D02*
X169240200Y-105308400D01*
X169240200Y-105308400D02*
X169189400Y-105359200D01*
D20*
X129410000Y-110270000D02*
X129410000Y-114000000D01*
X129410000Y-114000000D02*
X130300000Y-114890000D01*
X131216400Y-108463600D02*
X129410000Y-110270000D01*
X131216400Y-100761800D02*
X131216400Y-108463600D01*
X132350000Y-99760000D02*
X131216400Y-100893600D01*
X131216400Y-100761800D02*
X131216400Y-100893600D01*
X158340000Y-98750000D02*
X158340000Y-98760000D01*
X158340000Y-98750000D02*
X158340000Y-95540000D01*
X158340000Y-95540000D02*
X157623280Y-94823280D01*
X153888440Y-94823280D02*
X157623280Y-94823280D01*
X157340000Y-99760000D02*
X132350000Y-99760000D01*
X158340000Y-98760000D02*
X157340000Y-99760000D01*
X153888440Y-94823280D02*
X156428440Y-94823280D01*
D23*
G36*
X159736433Y-98178443D02*
X160553919Y-98517893D01*
X161439078Y-98518665D01*
X162257155Y-98180643D01*
X162619600Y-97818830D01*
X162619600Y-99187783D01*
X162006848Y-99800535D01*
X162054883Y-99684855D01*
X162055117Y-99416323D01*
X161952571Y-99168143D01*
X161762856Y-98978097D01*
X161514855Y-98875117D01*
X161246323Y-98874883D01*
X160998143Y-98977429D01*
X160808097Y-99167144D01*
X160705117Y-99415145D01*
X160704883Y-99683677D01*
X160807429Y-99931857D01*
X160997144Y-100121903D01*
X161245145Y-100224883D01*
X161513677Y-100225117D01*
X161630562Y-100176821D01*
X157065691Y-104741691D01*
X156946466Y-104920124D01*
X156904600Y-105130600D01*
X156904600Y-109094679D01*
X156882697Y-109116544D01*
X156779717Y-109364545D01*
X156779483Y-109633077D01*
X156882029Y-109881257D01*
X157071744Y-110071303D01*
X157319745Y-110174283D01*
X157588277Y-110174517D01*
X157836457Y-110071971D01*
X158026503Y-109882256D01*
X158129483Y-109634255D01*
X158129717Y-109365723D01*
X158027171Y-109117543D01*
X158004600Y-109094933D01*
X158004600Y-105940702D01*
X158107145Y-105983283D01*
X158230679Y-105983391D01*
X158176717Y-106113345D01*
X158176483Y-106381877D01*
X158279029Y-106630057D01*
X158468744Y-106820103D01*
X158716745Y-106923083D01*
X158985277Y-106923317D01*
X159233457Y-106820771D01*
X159256067Y-106798200D01*
X160350200Y-106798200D01*
X160409800Y-106786345D01*
X160409800Y-108280200D01*
X160451666Y-108490676D01*
X160570891Y-108669109D01*
X161967889Y-110066106D01*
X161967891Y-110066109D01*
X162129785Y-110174283D01*
X162146324Y-110185334D01*
X162356800Y-110227200D01*
X165508079Y-110227200D01*
X165529944Y-110249103D01*
X165777945Y-110352083D01*
X166046477Y-110352317D01*
X166294657Y-110249771D01*
X166484703Y-110060056D01*
X166587683Y-109812055D01*
X166587917Y-109543523D01*
X166485371Y-109295343D01*
X166295656Y-109105297D01*
X166047655Y-109002317D01*
X165779123Y-109002083D01*
X165530943Y-109104629D01*
X165508333Y-109127200D01*
X162584617Y-109127200D01*
X161816313Y-108358895D01*
X162070677Y-108359117D01*
X162318857Y-108256571D01*
X162508903Y-108066856D01*
X162611883Y-107818855D01*
X162611884Y-107817677D01*
X162761883Y-107817677D01*
X162864429Y-108065857D01*
X163054144Y-108255903D01*
X163302145Y-108358883D01*
X163570677Y-108359117D01*
X163622565Y-108337677D01*
X165872683Y-108337677D01*
X165975229Y-108585857D01*
X166164944Y-108775903D01*
X166412945Y-108878883D01*
X166681477Y-108879117D01*
X166929657Y-108776571D01*
X167119703Y-108586856D01*
X167222683Y-108338855D01*
X167222917Y-108070323D01*
X167120371Y-107822143D01*
X166930656Y-107632097D01*
X166682655Y-107529117D01*
X166414123Y-107528883D01*
X166165943Y-107631429D01*
X165975897Y-107821144D01*
X165872917Y-108069145D01*
X165872683Y-108337677D01*
X163622565Y-108337677D01*
X163818857Y-108256571D01*
X164008903Y-108066856D01*
X164111883Y-107818855D01*
X164112117Y-107550323D01*
X164009571Y-107302143D01*
X163819856Y-107112097D01*
X163571855Y-107009117D01*
X163303323Y-107008883D01*
X163055143Y-107111429D01*
X162865097Y-107301144D01*
X162762117Y-107549145D01*
X162761883Y-107817677D01*
X162611884Y-107817677D01*
X162612117Y-107550323D01*
X162509571Y-107302143D01*
X162319856Y-107112097D01*
X162071855Y-107009117D01*
X161803323Y-107008883D01*
X161555143Y-107111429D01*
X161509800Y-107156693D01*
X161509800Y-106711482D01*
X161554144Y-106755903D01*
X161802145Y-106858883D01*
X162070677Y-106859117D01*
X162318857Y-106756571D01*
X162508903Y-106566856D01*
X162611883Y-106318855D01*
X162611884Y-106317677D01*
X162761883Y-106317677D01*
X162864429Y-106565857D01*
X163054144Y-106755903D01*
X163302145Y-106858883D01*
X163570677Y-106859117D01*
X163818857Y-106756571D01*
X164008903Y-106566856D01*
X164096260Y-106356477D01*
X165821883Y-106356477D01*
X165924429Y-106604657D01*
X166114144Y-106794703D01*
X166362145Y-106897683D01*
X166630677Y-106897917D01*
X166878857Y-106795371D01*
X167068903Y-106605656D01*
X167171883Y-106357655D01*
X167172117Y-106089123D01*
X167069571Y-105840943D01*
X166879856Y-105650897D01*
X166631855Y-105547917D01*
X166363323Y-105547683D01*
X166115143Y-105650229D01*
X165925097Y-105839944D01*
X165822117Y-106087945D01*
X165821883Y-106356477D01*
X164096260Y-106356477D01*
X164111883Y-106318855D01*
X164112117Y-106050323D01*
X164009571Y-105802143D01*
X163819856Y-105612097D01*
X163571855Y-105509117D01*
X163303323Y-105508883D01*
X163055143Y-105611429D01*
X162865097Y-105801144D01*
X162762117Y-106049145D01*
X162761883Y-106317677D01*
X162611884Y-106317677D01*
X162612117Y-106050323D01*
X162509571Y-105802143D01*
X162319856Y-105612097D01*
X162071855Y-105509117D01*
X161867279Y-105508939D01*
X162518340Y-104857877D01*
X165669483Y-104857877D01*
X165772029Y-105106057D01*
X165961744Y-105296103D01*
X166209745Y-105399083D01*
X166478277Y-105399317D01*
X166726457Y-105296771D01*
X166916503Y-105107056D01*
X167019483Y-104859055D01*
X167019717Y-104590523D01*
X166917171Y-104342343D01*
X166727456Y-104152297D01*
X166479455Y-104049317D01*
X166210923Y-104049083D01*
X165962743Y-104151629D01*
X165772697Y-104341344D01*
X165669717Y-104589345D01*
X165669483Y-104857877D01*
X162518340Y-104857877D01*
X164015706Y-103360511D01*
X164015709Y-103360509D01*
X164134934Y-103182076D01*
X164137578Y-103168784D01*
X164176801Y-102971600D01*
X164176800Y-102971595D01*
X164176800Y-102565877D01*
X164242555Y-102609813D01*
X164520000Y-102665000D01*
X164797445Y-102609813D01*
X165032652Y-102452652D01*
X165189813Y-102217445D01*
X165211768Y-102107072D01*
X165777348Y-102672653D01*
X166012554Y-102829813D01*
X166079906Y-102843210D01*
X168486217Y-105249522D01*
X168464401Y-105359200D01*
X168519587Y-105636646D01*
X168676748Y-105871852D01*
X168911954Y-106029013D01*
X168975041Y-106041561D01*
X168974733Y-106395047D01*
X169157037Y-106836257D01*
X169494307Y-107174117D01*
X169511550Y-107181277D01*
X169404897Y-107287744D01*
X169301917Y-107535745D01*
X169301683Y-107804277D01*
X169404229Y-108052457D01*
X169593944Y-108242503D01*
X169841945Y-108345483D01*
X170110477Y-108345717D01*
X170358657Y-108243171D01*
X170418883Y-108183050D01*
X170568276Y-108153334D01*
X170746709Y-108034109D01*
X170975309Y-107805509D01*
X171455436Y-107325381D01*
X171496240Y-107530516D01*
X171707594Y-107846829D01*
X172023907Y-108058183D01*
X172397023Y-108132400D01*
X173352857Y-108132400D01*
X173725973Y-108058183D01*
X173902358Y-107940326D01*
X173902358Y-126846886D01*
X173737856Y-126682097D01*
X173489855Y-126579117D01*
X173221323Y-126578883D01*
X172973143Y-126681429D01*
X172783097Y-126871144D01*
X172680117Y-127119145D01*
X172679883Y-127387677D01*
X172782429Y-127635857D01*
X172936856Y-127790553D01*
X162427358Y-127790553D01*
X162376642Y-127800641D01*
X162324936Y-127800641D01*
X161942253Y-127876761D01*
X161753001Y-127955151D01*
X161752998Y-127955154D01*
X161428577Y-128171924D01*
X161283729Y-128316771D01*
X161283729Y-128316772D01*
X161066956Y-128641196D01*
X160988565Y-128830448D01*
X160988565Y-128830453D01*
X160912446Y-129213131D01*
X160912446Y-129264837D01*
X160902358Y-129315553D01*
X160902358Y-130091230D01*
X160821171Y-129894743D01*
X160631456Y-129704697D01*
X160383455Y-129601717D01*
X160114923Y-129601483D01*
X159866743Y-129704029D01*
X159676697Y-129893744D01*
X159573717Y-130141745D01*
X159573483Y-130410277D01*
X159676029Y-130658457D01*
X159865744Y-130848503D01*
X160113745Y-130951483D01*
X160382277Y-130951717D01*
X160630457Y-130849171D01*
X160820503Y-130659456D01*
X160902358Y-130462329D01*
X160902358Y-131320000D01*
X150126826Y-131320000D01*
X150203303Y-131243656D01*
X150306283Y-130995655D01*
X150306517Y-130727123D01*
X150203971Y-130478943D01*
X150014256Y-130288897D01*
X149766255Y-130185917D01*
X149621849Y-130185791D01*
X149620150Y-130181677D01*
X150327883Y-130181677D01*
X150430429Y-130429857D01*
X150620144Y-130619903D01*
X150868145Y-130722883D01*
X151136677Y-130723117D01*
X151384857Y-130620571D01*
X151570073Y-130435677D01*
X153350483Y-130435677D01*
X153453029Y-130683857D01*
X153642744Y-130873903D01*
X153890745Y-130976883D01*
X154159277Y-130977117D01*
X154407457Y-130874571D01*
X154597503Y-130684856D01*
X154700483Y-130436855D01*
X154700484Y-130435677D01*
X154823683Y-130435677D01*
X154926229Y-130683857D01*
X155115944Y-130873903D01*
X155363945Y-130976883D01*
X155632477Y-130977117D01*
X155880657Y-130874571D01*
X156070703Y-130684856D01*
X156173683Y-130436855D01*
X156173917Y-130168323D01*
X156071371Y-129920143D01*
X155881656Y-129730097D01*
X155633655Y-129627117D01*
X155365123Y-129626883D01*
X155116943Y-129729429D01*
X154926897Y-129919144D01*
X154823917Y-130167145D01*
X154823683Y-130435677D01*
X154700484Y-130435677D01*
X154700717Y-130168323D01*
X154598171Y-129920143D01*
X154408456Y-129730097D01*
X154160455Y-129627117D01*
X153891923Y-129626883D01*
X153643743Y-129729429D01*
X153453697Y-129919144D01*
X153350717Y-130167145D01*
X153350483Y-130435677D01*
X151570073Y-130435677D01*
X151574903Y-130430856D01*
X151677883Y-130182855D01*
X151678117Y-129914323D01*
X151575571Y-129666143D01*
X151385856Y-129476097D01*
X151137855Y-129373117D01*
X150869323Y-129372883D01*
X150621143Y-129475429D01*
X150431097Y-129665144D01*
X150328117Y-129913145D01*
X150327883Y-130181677D01*
X149620150Y-130181677D01*
X149543571Y-129996343D01*
X149353856Y-129806297D01*
X149105855Y-129703317D01*
X148837323Y-129703083D01*
X148589143Y-129805629D01*
X148399097Y-129995344D01*
X148296117Y-130243345D01*
X148295883Y-130511877D01*
X148398429Y-130760057D01*
X148588144Y-130950103D01*
X148836145Y-131053083D01*
X148980551Y-131053209D01*
X149058829Y-131242657D01*
X149136037Y-131320000D01*
X147586054Y-131320000D01*
X147803457Y-131230171D01*
X147993503Y-131040456D01*
X148096483Y-130792455D01*
X148096717Y-130523923D01*
X147994171Y-130275743D01*
X147804456Y-130085697D01*
X147721671Y-130051321D01*
X147740883Y-130005055D01*
X147741117Y-129736523D01*
X147638571Y-129488343D01*
X147448856Y-129298297D01*
X147200855Y-129195317D01*
X146932323Y-129195083D01*
X146684143Y-129297629D01*
X146494097Y-129487344D01*
X146391117Y-129735345D01*
X146390883Y-130003877D01*
X146493429Y-130252057D01*
X146683144Y-130442103D01*
X146765929Y-130476479D01*
X146746717Y-130522745D01*
X146746483Y-130791277D01*
X146849029Y-131039457D01*
X147038744Y-131229503D01*
X147256683Y-131320000D01*
X145604854Y-131320000D01*
X145822257Y-131230171D01*
X146012303Y-131040456D01*
X146115283Y-130792455D01*
X146115517Y-130523923D01*
X146012971Y-130275743D01*
X145823256Y-130085697D01*
X145575255Y-129982717D01*
X145306723Y-129982483D01*
X145058543Y-130085029D01*
X144868497Y-130274744D01*
X144765517Y-130522745D01*
X144765283Y-130791277D01*
X144867829Y-131039457D01*
X145057544Y-131229503D01*
X145275483Y-131320000D01*
X142048854Y-131320000D01*
X142266257Y-131230171D01*
X142456303Y-131040456D01*
X142559283Y-130792455D01*
X142559517Y-130523923D01*
X142456971Y-130275743D01*
X142267256Y-130085697D01*
X142019255Y-129982717D01*
X141761607Y-129982492D01*
X141795903Y-129948256D01*
X141898883Y-129700255D01*
X141898911Y-129668306D01*
X141938906Y-129628311D01*
X141938909Y-129628309D01*
X142058134Y-129449876D01*
X142064479Y-129417976D01*
X142100001Y-129239400D01*
X142100000Y-129239395D01*
X142100000Y-128030523D01*
X142123831Y-128030544D01*
X142123683Y-128200477D01*
X142226229Y-128448657D01*
X142415944Y-128638703D01*
X142663945Y-128741683D01*
X142932477Y-128741917D01*
X143180657Y-128639371D01*
X143370703Y-128449656D01*
X143473683Y-128201655D01*
X143473917Y-127933123D01*
X143462545Y-127905600D01*
X154408279Y-127905600D01*
X154430144Y-127927503D01*
X154678145Y-128030483D01*
X154946677Y-128030717D01*
X155194857Y-127928171D01*
X155384903Y-127738456D01*
X155487883Y-127490455D01*
X155488117Y-127221923D01*
X155385571Y-126973743D01*
X155195856Y-126783697D01*
X154947855Y-126680717D01*
X154679323Y-126680483D01*
X154431143Y-126783029D01*
X154408533Y-126805600D01*
X152177414Y-126805600D01*
X152232059Y-126751050D01*
X152315945Y-126785883D01*
X152584477Y-126786117D01*
X152832657Y-126683571D01*
X153022703Y-126493856D01*
X153125683Y-126245855D01*
X153125917Y-125977323D01*
X153023371Y-125729143D01*
X152833656Y-125539097D01*
X152585655Y-125436117D01*
X152317123Y-125435883D01*
X152068943Y-125538429D01*
X151907541Y-125699550D01*
X151823655Y-125664717D01*
X151555123Y-125664483D01*
X151306943Y-125767029D01*
X151116897Y-125956744D01*
X151093887Y-126012159D01*
X151093917Y-125977323D01*
X150991371Y-125729143D01*
X150801656Y-125539097D01*
X150553655Y-125436117D01*
X150285123Y-125435883D01*
X150036943Y-125538429D01*
X149846897Y-125728144D01*
X149743917Y-125976145D01*
X149743683Y-126244677D01*
X149846229Y-126492857D01*
X150035944Y-126682903D01*
X150283945Y-126785883D01*
X150552477Y-126786117D01*
X150800657Y-126683571D01*
X150990703Y-126493856D01*
X151013713Y-126438441D01*
X151013683Y-126473277D01*
X151116229Y-126721457D01*
X151200225Y-126805600D01*
X143947947Y-126805600D01*
X143954903Y-126798656D01*
X144014301Y-126655612D01*
X144041544Y-126682903D01*
X144289545Y-126785883D01*
X144558077Y-126786117D01*
X144806257Y-126683571D01*
X144996303Y-126493856D01*
X145099283Y-126245855D01*
X145099517Y-125977323D01*
X144996971Y-125729143D01*
X144807256Y-125539097D01*
X144559255Y-125436117D01*
X144290723Y-125435883D01*
X144042543Y-125538429D01*
X143852497Y-125728144D01*
X143793099Y-125871188D01*
X143765856Y-125843897D01*
X143517855Y-125740917D01*
X143249323Y-125740683D01*
X143001143Y-125843229D01*
X142811097Y-126032944D01*
X142708117Y-126280945D01*
X142707883Y-126549477D01*
X142810429Y-126797657D01*
X142818358Y-126805600D01*
X142593921Y-126805600D01*
X142572056Y-126783697D01*
X142324055Y-126680717D01*
X142100000Y-126680522D01*
X142100000Y-124034723D01*
X142121903Y-124012858D01*
X142224883Y-123764857D01*
X142225117Y-123496325D01*
X142122571Y-123248145D01*
X141932856Y-123058099D01*
X141684855Y-122955119D01*
X141573461Y-122955022D01*
X141664883Y-122734855D01*
X141664945Y-122663277D01*
X142733283Y-122663277D01*
X142835829Y-122911457D01*
X143025544Y-123101503D01*
X143273545Y-123204483D01*
X143542077Y-123204717D01*
X143790257Y-123102171D01*
X143980303Y-122912456D01*
X144083283Y-122664455D01*
X144083517Y-122395923D01*
X143980971Y-122147743D01*
X143791256Y-121957697D01*
X143543255Y-121854717D01*
X143274723Y-121854483D01*
X143026543Y-121957029D01*
X142836497Y-122146744D01*
X142733517Y-122394745D01*
X142733283Y-122663277D01*
X141664945Y-122663277D01*
X141665117Y-122466323D01*
X141562571Y-122218143D01*
X141441229Y-122096589D01*
X142254141Y-121283677D01*
X143294883Y-121283677D01*
X143397429Y-121531857D01*
X143587144Y-121721903D01*
X143835145Y-121824883D01*
X144103677Y-121825117D01*
X144351857Y-121722571D01*
X144541903Y-121532856D01*
X144644883Y-121284855D01*
X144645117Y-121016323D01*
X144542571Y-120768143D01*
X144352856Y-120578097D01*
X144104855Y-120475117D01*
X143836323Y-120474883D01*
X143588143Y-120577429D01*
X143398097Y-120767144D01*
X143295117Y-121015145D01*
X143294883Y-121283677D01*
X142254141Y-121283677D01*
X144065827Y-119471991D01*
X144117429Y-119596878D01*
X144307144Y-119786924D01*
X144555145Y-119889904D01*
X144823677Y-119890138D01*
X144825009Y-119889588D01*
X144824883Y-120033677D01*
X144927429Y-120281857D01*
X145117144Y-120471903D01*
X145365145Y-120574883D01*
X145397093Y-120574911D01*
X149161089Y-124338906D01*
X149161091Y-124338909D01*
X149283916Y-124420978D01*
X149339524Y-124458134D01*
X149489753Y-124488017D01*
X149489683Y-124568277D01*
X149592229Y-124816457D01*
X149781944Y-125006503D01*
X150029945Y-125109483D01*
X150298477Y-125109717D01*
X150546657Y-125007171D01*
X150736703Y-124817456D01*
X150839683Y-124569455D01*
X150839744Y-124500000D01*
X167769000Y-124500000D01*
X167979476Y-124458134D01*
X168157909Y-124338909D01*
X171374928Y-121121890D01*
X171405877Y-121121917D01*
X171654057Y-121019371D01*
X171844103Y-120829656D01*
X171947083Y-120581655D01*
X171947317Y-120313123D01*
X171844771Y-120064943D01*
X171668016Y-119887880D01*
X171818703Y-119737456D01*
X171921683Y-119489455D01*
X171921917Y-119220923D01*
X171819371Y-118972743D01*
X171629656Y-118782697D01*
X171603008Y-118771631D01*
X171671903Y-118702856D01*
X171774883Y-118454855D01*
X171775117Y-118186323D01*
X171672571Y-117938143D01*
X171482856Y-117748097D01*
X171234855Y-117645117D01*
X170966323Y-117644883D01*
X170718143Y-117747429D01*
X170528097Y-117937144D01*
X170425117Y-118185145D01*
X170425089Y-118217094D01*
X165652183Y-122989999D01*
X164640492Y-122989999D01*
X164733483Y-122766055D01*
X164733717Y-122497523D01*
X164631171Y-122249343D01*
X164441456Y-122059297D01*
X164193455Y-121956317D01*
X163924923Y-121956083D01*
X163676743Y-122058629D01*
X163486697Y-122248344D01*
X163383717Y-122496345D01*
X163383483Y-122764877D01*
X163476502Y-122989999D01*
X160304948Y-122989999D01*
X160305117Y-122796323D01*
X160202571Y-122548143D01*
X160012856Y-122358097D01*
X159775062Y-122259355D01*
X159775117Y-122196323D01*
X159672571Y-121948143D01*
X159482856Y-121758097D01*
X159234855Y-121655117D01*
X159202907Y-121655089D01*
X158798909Y-121251091D01*
X158620476Y-121131866D01*
X158410000Y-121090000D01*
X151934721Y-121090000D01*
X151912856Y-121068097D01*
X151664855Y-120965117D01*
X151396323Y-120964883D01*
X151148143Y-121067429D01*
X150958097Y-121257144D01*
X150855117Y-121505145D01*
X150854883Y-121773677D01*
X150908484Y-121903400D01*
X150214818Y-121903400D01*
X149366690Y-121055272D01*
X149366717Y-121024323D01*
X149264171Y-120776143D01*
X149074456Y-120586097D01*
X148826455Y-120483117D01*
X148557923Y-120482883D01*
X148309743Y-120585429D01*
X148119697Y-120775144D01*
X148016717Y-121023145D01*
X148016483Y-121291677D01*
X148119029Y-121539857D01*
X148308744Y-121729903D01*
X148556745Y-121832883D01*
X148588693Y-121832911D01*
X149598091Y-122842309D01*
X149776524Y-122961534D01*
X149987000Y-123003400D01*
X154938128Y-123003400D01*
X154875117Y-123155145D01*
X154874904Y-123400000D01*
X149777817Y-123400000D01*
X146175090Y-119797272D01*
X146175117Y-119766323D01*
X146174579Y-119765021D01*
X157620416Y-119765021D01*
X157508097Y-119877144D01*
X157405117Y-120125145D01*
X157404883Y-120393677D01*
X157507429Y-120641857D01*
X157697144Y-120831903D01*
X157945145Y-120934883D01*
X158213677Y-120935117D01*
X158461857Y-120832571D01*
X158651903Y-120642856D01*
X158754883Y-120394855D01*
X158755117Y-120126323D01*
X158652571Y-119878143D01*
X158539646Y-119765021D01*
X168109779Y-119765021D01*
X168320255Y-119723155D01*
X168498688Y-119603930D01*
X171349527Y-116753090D01*
X171380477Y-116753117D01*
X171628657Y-116650571D01*
X171818703Y-116460856D01*
X171921683Y-116212855D01*
X171921917Y-115944323D01*
X171819371Y-115696143D01*
X171668016Y-115544524D01*
X171793303Y-115419456D01*
X171896283Y-115171455D01*
X171896517Y-114902923D01*
X171793971Y-114654743D01*
X171604256Y-114464697D01*
X171356255Y-114361717D01*
X171087723Y-114361483D01*
X170839543Y-114464029D01*
X170649497Y-114653744D01*
X170546517Y-114901745D01*
X170546489Y-114933693D01*
X167290171Y-118190011D01*
X159797807Y-118190011D01*
X163388909Y-114598909D01*
X163508134Y-114420476D01*
X163550001Y-114210000D01*
X163550000Y-114209995D01*
X163550000Y-114184254D01*
X163618945Y-114212883D01*
X163887477Y-114213117D01*
X164135657Y-114110571D01*
X164325703Y-113920856D01*
X164428683Y-113672855D01*
X164428875Y-113453000D01*
X171475400Y-113453000D01*
X171685876Y-113411134D01*
X171864309Y-113291909D01*
X172187728Y-112968490D01*
X172218677Y-112968517D01*
X172466857Y-112865971D01*
X172656903Y-112676256D01*
X172759883Y-112428255D01*
X172760117Y-112159723D01*
X172657571Y-111911543D01*
X172467856Y-111721497D01*
X172219855Y-111618517D01*
X171951323Y-111618283D01*
X171816948Y-111673806D01*
X171820083Y-111666255D01*
X171820317Y-111397723D01*
X171717771Y-111149543D01*
X171528056Y-110959497D01*
X171280055Y-110856517D01*
X171011523Y-110856283D01*
X170763343Y-110958829D01*
X170573297Y-111148544D01*
X170470317Y-111396545D01*
X170470083Y-111665077D01*
X170572629Y-111913257D01*
X170762344Y-112103303D01*
X171010345Y-112206283D01*
X171278877Y-112206517D01*
X171413252Y-112150994D01*
X171410117Y-112158545D01*
X171410089Y-112190493D01*
X171247582Y-112353000D01*
X164606549Y-112353000D01*
X164606717Y-112159723D01*
X164504171Y-111911543D01*
X164314456Y-111721497D01*
X164078882Y-111623677D01*
X168174883Y-111623677D01*
X168277429Y-111871857D01*
X168467144Y-112061903D01*
X168715145Y-112164883D01*
X168983677Y-112165117D01*
X169231857Y-112062571D01*
X169421903Y-111872856D01*
X169524883Y-111624855D01*
X169525117Y-111356323D01*
X169422571Y-111108143D01*
X169232856Y-110918097D01*
X168984855Y-110815117D01*
X168716323Y-110814883D01*
X168468143Y-110917429D01*
X168278097Y-111107144D01*
X168175117Y-111355145D01*
X168174883Y-111623677D01*
X164078882Y-111623677D01*
X164066455Y-111618517D01*
X163797923Y-111618283D01*
X163549743Y-111720829D01*
X163359697Y-111910544D01*
X163256717Y-112158545D01*
X163256519Y-112385518D01*
X163209524Y-112394866D01*
X163031091Y-112514091D01*
X162611091Y-112934091D01*
X162491866Y-113112524D01*
X162450000Y-113323000D01*
X162450000Y-113982182D01*
X161747176Y-114685006D01*
X161747350Y-114485857D01*
X161644804Y-114237677D01*
X161455089Y-114047631D01*
X161207088Y-113944651D01*
X160938556Y-113944417D01*
X160708993Y-114039271D01*
X160639021Y-113869927D01*
X160449306Y-113679881D01*
X160201305Y-113576901D01*
X160126592Y-113576836D01*
X160076927Y-113543651D01*
X159866451Y-113501785D01*
X159385219Y-113501785D01*
X159474303Y-113412856D01*
X159577283Y-113164855D01*
X159577517Y-112896323D01*
X159474971Y-112648143D01*
X159285256Y-112458097D01*
X159037255Y-112355117D01*
X158768723Y-112354883D01*
X158520543Y-112457429D01*
X158330497Y-112647144D01*
X158227517Y-112895145D01*
X158227283Y-113163677D01*
X158329829Y-113411857D01*
X158419600Y-113501785D01*
X149938488Y-113501785D01*
X150009372Y-113331080D01*
X150009606Y-113062548D01*
X149907060Y-112814368D01*
X149802874Y-112710000D01*
X153115279Y-112710000D01*
X153137144Y-112731903D01*
X153385145Y-112834883D01*
X153653677Y-112835117D01*
X153901857Y-112732571D01*
X154030975Y-112603677D01*
X155934883Y-112603677D01*
X156037429Y-112851857D01*
X156227144Y-113041903D01*
X156475145Y-113144883D01*
X156743677Y-113145117D01*
X156991857Y-113042571D01*
X157181903Y-112852856D01*
X157284883Y-112604855D01*
X157285117Y-112336323D01*
X157182571Y-112088143D01*
X156992856Y-111898097D01*
X156744855Y-111795117D01*
X156476323Y-111794883D01*
X156228143Y-111897429D01*
X156038097Y-112087144D01*
X155935117Y-112335145D01*
X155934883Y-112603677D01*
X154030975Y-112603677D01*
X154091903Y-112542856D01*
X154194883Y-112294855D01*
X154195117Y-112026323D01*
X154092571Y-111778143D01*
X153902856Y-111588097D01*
X153654855Y-111485117D01*
X153386323Y-111484883D01*
X153138143Y-111587429D01*
X153115533Y-111610000D01*
X148000005Y-111610000D01*
X148000000Y-111609999D01*
X147789524Y-111651866D01*
X147611091Y-111771091D01*
X146682182Y-112700000D01*
X146318629Y-112700000D01*
X146393303Y-112625456D01*
X146496283Y-112377455D01*
X146496405Y-112237461D01*
X146635057Y-112180171D01*
X146825103Y-111990456D01*
X146928083Y-111742455D01*
X146928317Y-111473923D01*
X146825771Y-111225743D01*
X146636056Y-111035697D01*
X146388055Y-110932717D01*
X146119523Y-110932483D01*
X145871343Y-111035029D01*
X145681297Y-111224744D01*
X145578317Y-111472745D01*
X145578195Y-111612739D01*
X145439543Y-111670029D01*
X145249497Y-111859744D01*
X145146517Y-112107745D01*
X145146283Y-112376277D01*
X145248829Y-112624457D01*
X145324240Y-112700000D01*
X142700827Y-112700000D01*
X142701031Y-112465962D01*
X142598485Y-112217782D01*
X142408770Y-112027736D01*
X142160769Y-111924756D01*
X141892237Y-111924522D01*
X141644057Y-112027068D01*
X141454011Y-112216783D01*
X141351031Y-112464784D01*
X141350935Y-112575114D01*
X141086323Y-112574883D01*
X140838143Y-112677429D01*
X140648097Y-112867144D01*
X140545117Y-113115145D01*
X140544883Y-113383677D01*
X140647429Y-113631857D01*
X140837144Y-113821903D01*
X140843483Y-113824535D01*
X140805117Y-113916930D01*
X140804883Y-114185462D01*
X140839620Y-114269533D01*
X139729151Y-114269533D01*
X139642856Y-114183087D01*
X139394855Y-114080107D01*
X139126323Y-114079873D01*
X138878143Y-114182419D01*
X138688097Y-114372134D01*
X138585117Y-114620135D01*
X138584883Y-114888667D01*
X138662326Y-115076094D01*
X138452976Y-115162596D01*
X138262930Y-115352311D01*
X138214827Y-115468154D01*
X138014855Y-115385117D01*
X137746323Y-115384883D01*
X137498143Y-115487429D01*
X137308097Y-115677144D01*
X137205117Y-115925145D01*
X137205054Y-115997803D01*
X136988143Y-116087429D01*
X136798097Y-116277144D01*
X136772590Y-116338571D01*
X136558320Y-116338384D01*
X136310140Y-116440930D01*
X136120094Y-116630645D01*
X136017114Y-116878646D01*
X136016880Y-117147178D01*
X136119426Y-117395358D01*
X136121618Y-117397554D01*
X136024523Y-117416867D01*
X135846090Y-117536092D01*
X135846088Y-117536095D01*
X135777273Y-117604910D01*
X135746323Y-117604883D01*
X135498143Y-117707429D01*
X135308097Y-117897144D01*
X135205117Y-118145145D01*
X135204883Y-118413677D01*
X135219109Y-118448106D01*
X135148143Y-118477429D01*
X134958097Y-118667144D01*
X134855117Y-118915145D01*
X134854883Y-119183677D01*
X134957429Y-119431857D01*
X135147144Y-119621903D01*
X135395145Y-119724883D01*
X135663677Y-119725117D01*
X135911857Y-119622571D01*
X135964733Y-119569787D01*
X136023318Y-119558134D01*
X136201751Y-119438909D01*
X136700660Y-118940000D01*
X140037082Y-118940000D01*
X140037031Y-118998687D01*
X140139577Y-119246867D01*
X140329292Y-119436913D01*
X140577293Y-119539893D01*
X140845825Y-119540127D01*
X141094005Y-119437581D01*
X141284051Y-119247866D01*
X141387031Y-118999865D01*
X141387083Y-118940000D01*
X143042183Y-118940000D01*
X139987272Y-121994910D01*
X139956323Y-121994883D01*
X139708143Y-122097429D01*
X139518097Y-122287144D01*
X139415117Y-122535145D01*
X139414883Y-122803677D01*
X139517429Y-123051857D01*
X139707144Y-123241903D01*
X139955145Y-123344883D01*
X140111608Y-123345019D01*
X140045117Y-123505145D01*
X140044883Y-123773677D01*
X140089800Y-123882384D01*
X140089800Y-128344928D01*
X140070987Y-128316772D01*
X139926140Y-128171924D01*
X139926137Y-128171923D01*
X139601715Y-127955151D01*
X139412463Y-127876760D01*
X139412458Y-127876760D01*
X139029782Y-127800641D01*
X138824934Y-127800641D01*
X138442253Y-127876761D01*
X138253001Y-127955151D01*
X138252998Y-127955154D01*
X137928577Y-128171924D01*
X137783729Y-128316771D01*
X137783729Y-128316772D01*
X137566956Y-128641196D01*
X137488565Y-128830448D01*
X137488565Y-128830453D01*
X137479480Y-128876128D01*
X137269455Y-128788917D01*
X137000923Y-128788683D01*
X136752743Y-128891229D01*
X136730133Y-128913800D01*
X135298796Y-128913800D01*
X135320283Y-128862055D01*
X135320517Y-128593523D01*
X135217971Y-128345343D01*
X135028256Y-128155297D01*
X134780255Y-128052317D01*
X134511723Y-128052083D01*
X134263543Y-128154629D01*
X134073497Y-128344344D01*
X134071819Y-128348386D01*
X134049571Y-128294543D01*
X133859856Y-128104497D01*
X133611855Y-128001517D01*
X133343323Y-128001283D01*
X133095143Y-128103829D01*
X132905097Y-128293544D01*
X132802117Y-128541545D01*
X132801883Y-128810077D01*
X132904429Y-129058257D01*
X133094144Y-129248303D01*
X133342145Y-129351283D01*
X133610677Y-129351517D01*
X133858857Y-129248971D01*
X134048903Y-129059256D01*
X134050581Y-129055214D01*
X134057448Y-129071831D01*
X133921097Y-129207944D01*
X133818117Y-129455945D01*
X133817883Y-129724477D01*
X133920429Y-129972657D01*
X134110144Y-130162703D01*
X134358145Y-130265683D01*
X134626677Y-130265917D01*
X134874857Y-130163371D01*
X135024689Y-130013800D01*
X136593351Y-130013800D01*
X136561317Y-130090945D01*
X136561083Y-130359477D01*
X136663629Y-130607657D01*
X136853344Y-130797703D01*
X137101345Y-130900683D01*
X137369877Y-130900917D01*
X137402358Y-130887496D01*
X137402358Y-131320000D01*
X133590654Y-131320000D01*
X133808057Y-131230171D01*
X133998103Y-131040456D01*
X134101083Y-130792455D01*
X134101317Y-130523923D01*
X133998771Y-130275743D01*
X133809056Y-130085697D01*
X133561055Y-129982717D01*
X133292523Y-129982483D01*
X133044343Y-130085029D01*
X132854297Y-130274744D01*
X132751317Y-130522745D01*
X132751083Y-130791277D01*
X132853629Y-131039457D01*
X133043344Y-131229503D01*
X133261283Y-131320000D01*
X127302358Y-131320000D01*
X127302358Y-130308097D01*
X127504371Y-130610429D01*
X127529771Y-130635829D01*
X127846083Y-130847183D01*
X128219200Y-130921400D01*
X128592317Y-130847183D01*
X128908629Y-130635829D01*
X129119983Y-130319517D01*
X129194200Y-129946400D01*
X129168800Y-129818705D01*
X129168800Y-129665784D01*
X129328945Y-129732283D01*
X129597477Y-129732517D01*
X129845657Y-129629971D01*
X130035703Y-129440256D01*
X130138683Y-129192255D01*
X130138917Y-128923723D01*
X130133940Y-128911677D01*
X130261883Y-128911677D01*
X130364429Y-129159857D01*
X130368820Y-129164256D01*
X130363717Y-129176545D01*
X130363483Y-129445077D01*
X130466029Y-129693257D01*
X130655744Y-129883303D01*
X130903745Y-129986283D01*
X131172277Y-129986517D01*
X131420457Y-129883971D01*
X131610503Y-129694256D01*
X131713483Y-129446255D01*
X131713717Y-129177723D01*
X131611171Y-128929543D01*
X131606780Y-128925144D01*
X131611883Y-128912855D01*
X131612117Y-128644323D01*
X131509571Y-128396143D01*
X131319856Y-128206097D01*
X131071855Y-128103117D01*
X130803323Y-128102883D01*
X130555143Y-128205429D01*
X130365097Y-128395144D01*
X130262117Y-128643145D01*
X130261883Y-128911677D01*
X130133940Y-128911677D01*
X130036371Y-128675543D01*
X129846656Y-128485497D01*
X129598655Y-128382517D01*
X129330123Y-128382283D01*
X129168800Y-128448940D01*
X129168800Y-128117600D01*
X129161302Y-128079903D01*
X129094583Y-127744483D01*
X128883229Y-127428171D01*
X128258535Y-126803477D01*
X135926083Y-126803477D01*
X136028629Y-127051657D01*
X136218344Y-127241703D01*
X136466345Y-127344683D01*
X136734877Y-127344917D01*
X136983057Y-127242371D01*
X137173103Y-127052656D01*
X137276083Y-126804655D01*
X137276317Y-126536123D01*
X137173771Y-126287943D01*
X136984056Y-126097897D01*
X136736055Y-125994917D01*
X136467523Y-125994683D01*
X136219343Y-126097229D01*
X136029297Y-126286944D01*
X135926317Y-126534945D01*
X135926083Y-126803477D01*
X128258535Y-126803477D01*
X127699735Y-126244677D01*
X134427483Y-126244677D01*
X134530029Y-126492857D01*
X134719744Y-126682903D01*
X134967745Y-126785883D01*
X135236277Y-126786117D01*
X135484457Y-126683571D01*
X135674503Y-126493856D01*
X135777483Y-126245855D01*
X135777717Y-125977323D01*
X135763815Y-125943677D01*
X137474883Y-125943677D01*
X137577429Y-126191857D01*
X137767144Y-126381903D01*
X138015145Y-126484883D01*
X138283677Y-126485117D01*
X138531857Y-126382571D01*
X138721903Y-126192856D01*
X138824883Y-125944855D01*
X138825117Y-125676323D01*
X138722571Y-125428143D01*
X138532856Y-125238097D01*
X138284855Y-125135117D01*
X138016323Y-125134883D01*
X137768143Y-125237429D01*
X137578097Y-125427144D01*
X137475117Y-125675145D01*
X137474883Y-125943677D01*
X135763815Y-125943677D01*
X135675171Y-125729143D01*
X135485456Y-125539097D01*
X135237455Y-125436117D01*
X134968923Y-125435883D01*
X134720743Y-125538429D01*
X134530697Y-125728144D01*
X134427717Y-125976145D01*
X134427483Y-126244677D01*
X127699735Y-126244677D01*
X127060600Y-125605542D01*
X127060600Y-121413677D01*
X137684883Y-121413677D01*
X137787429Y-121661857D01*
X137977144Y-121851903D01*
X138225145Y-121954883D01*
X138493677Y-121955117D01*
X138741857Y-121852571D01*
X138931903Y-121662856D01*
X139034883Y-121414855D01*
X139035117Y-121146323D01*
X138932571Y-120898143D01*
X138742856Y-120708097D01*
X138494855Y-120605117D01*
X138226323Y-120604883D01*
X137978143Y-120707429D01*
X137788097Y-120897144D01*
X137685117Y-121145145D01*
X137684883Y-121413677D01*
X127060600Y-121413677D01*
X127060600Y-120188258D01*
X127559429Y-119689429D01*
X127770783Y-119373117D01*
X127845000Y-119000000D01*
X127770783Y-118626883D01*
X127559429Y-118310571D01*
X127544991Y-118300924D01*
X127545117Y-118156323D01*
X127442571Y-117908143D01*
X127252856Y-117718097D01*
X127004855Y-117615117D01*
X126736323Y-117614883D01*
X126488143Y-117717429D01*
X126298097Y-117907144D01*
X126195117Y-118155145D01*
X126194990Y-118300937D01*
X126180571Y-118310571D01*
X125396171Y-119094971D01*
X125184817Y-119411283D01*
X125142922Y-119621903D01*
X125110600Y-119784400D01*
X125110600Y-126009400D01*
X125184817Y-126382517D01*
X125396171Y-126698829D01*
X125563553Y-126866211D01*
X125483855Y-126833117D01*
X125215323Y-126832883D01*
X124967143Y-126935429D01*
X124952358Y-126950188D01*
X124952358Y-116440277D01*
X132827283Y-116440277D01*
X132929829Y-116688457D01*
X133119544Y-116878503D01*
X133367545Y-116981483D01*
X133636077Y-116981717D01*
X133884257Y-116879171D01*
X134074303Y-116689456D01*
X134177283Y-116441455D01*
X134177517Y-116172923D01*
X134074971Y-115924743D01*
X133885256Y-115734697D01*
X133637255Y-115631717D01*
X133368723Y-115631483D01*
X133120543Y-115734029D01*
X132930497Y-115923744D01*
X132827517Y-116171745D01*
X132827283Y-116440277D01*
X124952358Y-116440277D01*
X124952358Y-112697004D01*
X125017144Y-112761903D01*
X125265145Y-112864883D01*
X125533677Y-112865117D01*
X125781857Y-112762571D01*
X125971903Y-112572856D01*
X126074883Y-112324855D01*
X126075117Y-112056323D01*
X125972571Y-111808143D01*
X125782856Y-111618097D01*
X125534855Y-111515117D01*
X125266323Y-111514883D01*
X125018143Y-111617429D01*
X124952358Y-111683099D01*
X124952358Y-109944104D01*
X125132967Y-110064783D01*
X125506083Y-110139000D01*
X126461917Y-110139000D01*
X126835033Y-110064783D01*
X127151346Y-109853429D01*
X127362700Y-109537116D01*
X127436917Y-109164000D01*
X127362700Y-108790884D01*
X127151346Y-108474571D01*
X126835033Y-108263217D01*
X126461917Y-108189000D01*
X125506083Y-108189000D01*
X125132967Y-108263217D01*
X124952358Y-108383896D01*
X124952358Y-103401647D01*
X127483793Y-103401647D01*
X127666097Y-103842857D01*
X128003367Y-104180717D01*
X128444258Y-104363791D01*
X128921647Y-104364207D01*
X129362857Y-104181903D01*
X129700717Y-103844633D01*
X129883791Y-103403742D01*
X129884207Y-102926353D01*
X129701903Y-102485143D01*
X129364633Y-102147283D01*
X128923742Y-101964209D01*
X128446353Y-101963793D01*
X128005143Y-102146097D01*
X127667283Y-102483367D01*
X127484209Y-102924258D01*
X127483793Y-103401647D01*
X124952358Y-103401647D01*
X124952358Y-102944104D01*
X125132967Y-103064783D01*
X125506083Y-103139000D01*
X126461917Y-103139000D01*
X126835033Y-103064783D01*
X127151346Y-102853429D01*
X127362700Y-102537116D01*
X127436917Y-102164000D01*
X127362700Y-101790884D01*
X127151346Y-101474571D01*
X126835033Y-101263217D01*
X126461917Y-101189000D01*
X125506083Y-101189000D01*
X125132967Y-101263217D01*
X124952358Y-101383896D01*
X124952358Y-98274906D01*
X124975682Y-98309813D01*
X125409955Y-98599985D01*
X125922215Y-98701880D01*
X125974665Y-98701880D01*
X126486925Y-98599985D01*
X126921198Y-98309813D01*
X127211370Y-97875540D01*
X127218440Y-97839997D01*
X127225510Y-97875540D01*
X127515682Y-98309813D01*
X127949955Y-98599985D01*
X128462215Y-98701880D01*
X128514665Y-98701880D01*
X129026925Y-98599985D01*
X129461198Y-98309813D01*
X129751370Y-97875540D01*
X129758440Y-97839997D01*
X129765510Y-97875540D01*
X130055682Y-98309813D01*
X130489955Y-98599985D01*
X131002215Y-98701880D01*
X131054665Y-98701880D01*
X131566925Y-98599985D01*
X132001198Y-98309813D01*
X132291370Y-97875540D01*
X132298440Y-97839997D01*
X132305510Y-97875540D01*
X132595682Y-98309813D01*
X133029955Y-98599985D01*
X133542215Y-98701880D01*
X133594665Y-98701880D01*
X134106925Y-98599985D01*
X134541198Y-98309813D01*
X134831370Y-97875540D01*
X134838440Y-97839997D01*
X134845510Y-97875540D01*
X135135682Y-98309813D01*
X135569955Y-98599985D01*
X135721626Y-98630154D01*
X135876472Y-98785000D01*
X132350000Y-98785000D01*
X131976884Y-98859217D01*
X131744324Y-99014609D01*
X131660571Y-99070571D01*
X130876790Y-99854352D01*
X130843284Y-99861017D01*
X130526971Y-100072371D01*
X130315617Y-100388684D01*
X130241400Y-100761800D01*
X130241400Y-108059742D01*
X129874127Y-108427015D01*
X129883791Y-108403742D01*
X129884207Y-107926353D01*
X129701903Y-107485143D01*
X129364633Y-107147283D01*
X128923742Y-106964209D01*
X128446353Y-106963793D01*
X128005143Y-107146097D01*
X127667283Y-107483367D01*
X127484209Y-107924258D01*
X127483793Y-108401647D01*
X127666097Y-108842857D01*
X128003367Y-109180717D01*
X128444258Y-109363791D01*
X128921647Y-109364207D01*
X128947700Y-109353442D01*
X128720571Y-109580571D01*
X128509217Y-109896883D01*
X128474202Y-110072917D01*
X128435000Y-110270000D01*
X128435000Y-112515729D01*
X128354055Y-112482117D01*
X128085523Y-112481883D01*
X127837343Y-112584429D01*
X127647297Y-112774144D01*
X127544317Y-113022145D01*
X127544083Y-113290677D01*
X127646629Y-113538857D01*
X127836106Y-113728664D01*
X127647297Y-113917144D01*
X127544317Y-114165145D01*
X127544083Y-114433677D01*
X127646629Y-114681857D01*
X127836344Y-114871903D01*
X128084345Y-114974883D01*
X128352877Y-114975117D01*
X128601057Y-114872571D01*
X128752517Y-114721375D01*
X129610571Y-115579429D01*
X129926883Y-115790783D01*
X130300000Y-115865000D01*
X130316999Y-115861619D01*
X130397144Y-115941903D01*
X130645145Y-116044883D01*
X130913677Y-116045117D01*
X131161857Y-115942571D01*
X131351903Y-115752856D01*
X131454883Y-115504855D01*
X131455117Y-115236323D01*
X131352571Y-114988143D01*
X131271610Y-114907041D01*
X131275000Y-114890000D01*
X131200783Y-114516883D01*
X130989429Y-114200571D01*
X130717545Y-113928687D01*
X133564883Y-113928687D01*
X133667429Y-114176867D01*
X133857144Y-114366913D01*
X134105145Y-114469893D01*
X134373677Y-114470127D01*
X134621857Y-114367581D01*
X134811903Y-114177866D01*
X134914883Y-113929865D01*
X134915117Y-113661333D01*
X134812571Y-113413153D01*
X134622856Y-113223107D01*
X134374855Y-113120127D01*
X134106323Y-113119893D01*
X133858143Y-113222439D01*
X133668097Y-113412154D01*
X133565117Y-113660155D01*
X133564883Y-113928687D01*
X130717545Y-113928687D01*
X130385000Y-113596142D01*
X130385000Y-110673858D01*
X131905829Y-109153029D01*
X131944699Y-109094856D01*
X132117183Y-108836716D01*
X132191400Y-108463600D01*
X132191400Y-108184932D01*
X132403677Y-108185117D01*
X132651857Y-108082571D01*
X132841903Y-107892856D01*
X132944883Y-107644855D01*
X132945117Y-107376323D01*
X132849427Y-107144736D01*
X132944883Y-106914855D01*
X132945117Y-106646323D01*
X132842571Y-106398143D01*
X132652856Y-106208097D01*
X132404855Y-106105117D01*
X132191400Y-106104931D01*
X132191400Y-101297458D01*
X132753858Y-100735000D01*
X133914815Y-100735000D01*
X133869051Y-100801978D01*
X133830895Y-100990400D01*
X133830895Y-102717600D01*
X133864016Y-102893624D01*
X133968046Y-103055292D01*
X134126778Y-103163749D01*
X134315200Y-103201905D01*
X134570566Y-103201905D01*
X134203057Y-103447467D01*
X133912885Y-103881740D01*
X133810990Y-104394000D01*
X133912885Y-104906260D01*
X134203057Y-105340533D01*
X134637330Y-105630705D01*
X134804715Y-105664000D01*
X134637330Y-105697295D01*
X134203057Y-105987467D01*
X133912885Y-106421740D01*
X133810990Y-106934000D01*
X133912885Y-107446260D01*
X134203057Y-107880533D01*
X134637330Y-108170705D01*
X134804715Y-108204000D01*
X134637330Y-108237295D01*
X134203057Y-108527467D01*
X133912885Y-108961740D01*
X133810990Y-109474000D01*
X133912885Y-109986260D01*
X134203057Y-110420533D01*
X134637330Y-110710705D01*
X135149590Y-110812600D01*
X135512810Y-110812600D01*
X136025070Y-110710705D01*
X136459343Y-110420533D01*
X136595154Y-110217277D01*
X143190483Y-110217277D01*
X143293029Y-110465457D01*
X143482744Y-110655503D01*
X143730745Y-110758483D01*
X143999277Y-110758717D01*
X144247457Y-110656171D01*
X144437503Y-110466456D01*
X144540483Y-110218455D01*
X144540484Y-110217277D01*
X145781283Y-110217277D01*
X145883829Y-110465457D01*
X146073544Y-110655503D01*
X146321545Y-110758483D01*
X146590077Y-110758717D01*
X146838257Y-110656171D01*
X147028303Y-110466456D01*
X147131283Y-110218455D01*
X147131517Y-109949923D01*
X147028971Y-109701743D01*
X146839256Y-109511697D01*
X146591255Y-109408717D01*
X146322723Y-109408483D01*
X146074543Y-109511029D01*
X145884497Y-109700744D01*
X145781517Y-109948745D01*
X145781283Y-110217277D01*
X144540484Y-110217277D01*
X144540717Y-109949923D01*
X144438171Y-109701743D01*
X144248456Y-109511697D01*
X144000455Y-109408717D01*
X143731923Y-109408483D01*
X143483743Y-109511029D01*
X143293697Y-109700744D01*
X143190717Y-109948745D01*
X143190483Y-110217277D01*
X136595154Y-110217277D01*
X136749515Y-109986260D01*
X136851410Y-109474000D01*
X136749515Y-108961740D01*
X136459343Y-108527467D01*
X136289344Y-108413877D01*
X137907283Y-108413877D01*
X138009829Y-108662057D01*
X138199544Y-108852103D01*
X138447545Y-108955083D01*
X138716077Y-108955317D01*
X138964257Y-108852771D01*
X139154303Y-108663056D01*
X139257283Y-108415055D01*
X139257455Y-108218155D01*
X139319857Y-108192371D01*
X139333652Y-108178600D01*
X146315600Y-108178600D01*
X146370787Y-108456045D01*
X146527948Y-108691252D01*
X146763155Y-108848413D01*
X147040600Y-108903600D01*
X147596235Y-108903600D01*
X147484697Y-109014944D01*
X147381717Y-109262945D01*
X147381483Y-109531477D01*
X147484029Y-109779657D01*
X147673744Y-109969703D01*
X147921745Y-110072683D01*
X148190277Y-110072917D01*
X148438457Y-109970371D01*
X148628503Y-109780656D01*
X148731483Y-109532655D01*
X148731520Y-109489886D01*
X148921057Y-109411571D01*
X149111103Y-109221856D01*
X149214083Y-108973855D01*
X149214144Y-108903600D01*
X149331096Y-108903600D01*
X149652148Y-109224653D01*
X149887354Y-109381813D01*
X150164800Y-109437000D01*
X155675907Y-109437000D01*
X155803600Y-109462399D01*
X156081046Y-109407213D01*
X156316252Y-109250052D01*
X156473413Y-109014846D01*
X156528599Y-108737400D01*
X156473413Y-108459954D01*
X156316252Y-108224748D01*
X156290852Y-108199348D01*
X156055646Y-108042187D01*
X156009615Y-108033031D01*
X155778200Y-107987000D01*
X153958316Y-107987000D01*
X154004883Y-107874855D01*
X154005117Y-107606323D01*
X153902571Y-107358143D01*
X153712856Y-107168097D01*
X153464855Y-107065117D01*
X153196323Y-107064883D01*
X152948143Y-107167429D01*
X152758097Y-107357144D01*
X152655117Y-107605145D01*
X152654883Y-107873677D01*
X152701707Y-107987000D01*
X150465105Y-107987000D01*
X150144052Y-107665948D01*
X149908846Y-107508787D01*
X149862815Y-107499631D01*
X149631400Y-107453600D01*
X147040600Y-107453600D01*
X146763155Y-107508787D01*
X146527948Y-107665948D01*
X146370787Y-107901155D01*
X146315600Y-108178600D01*
X139333652Y-108178600D01*
X139509903Y-108002656D01*
X139612883Y-107754655D01*
X139613117Y-107486123D01*
X139510571Y-107237943D01*
X139320856Y-107047897D01*
X139072855Y-106944917D01*
X138804323Y-106944683D01*
X138556143Y-107047229D01*
X138366097Y-107236944D01*
X138263117Y-107484945D01*
X138262945Y-107681845D01*
X138200543Y-107707629D01*
X138010497Y-107897344D01*
X137907517Y-108145345D01*
X137907283Y-108413877D01*
X136289344Y-108413877D01*
X136025070Y-108237295D01*
X135857685Y-108204000D01*
X136025070Y-108170705D01*
X136459343Y-107880533D01*
X136749515Y-107446260D01*
X136851410Y-106934000D01*
X136749515Y-106421740D01*
X136459343Y-105987467D01*
X136025070Y-105697295D01*
X135857685Y-105664000D01*
X136025070Y-105630705D01*
X136459343Y-105340533D01*
X136459380Y-105340477D01*
X137627883Y-105340477D01*
X137730429Y-105588657D01*
X137920144Y-105778703D01*
X138168145Y-105881683D01*
X138436677Y-105881917D01*
X138684857Y-105779371D01*
X138874903Y-105589656D01*
X138946730Y-105416677D01*
X149057883Y-105416677D01*
X149160429Y-105664857D01*
X149350144Y-105854903D01*
X149598145Y-105957883D01*
X149866677Y-105958117D01*
X150114857Y-105855571D01*
X150304903Y-105665856D01*
X150407883Y-105417855D01*
X150408117Y-105149323D01*
X150305571Y-104901143D01*
X150115856Y-104711097D01*
X149867855Y-104608117D01*
X149599323Y-104607883D01*
X149351143Y-104710429D01*
X149161097Y-104900144D01*
X149058117Y-105148145D01*
X149057883Y-105416677D01*
X138946730Y-105416677D01*
X138977883Y-105341655D01*
X138978117Y-105073123D01*
X138875571Y-104824943D01*
X138685856Y-104634897D01*
X138437855Y-104531917D01*
X138169323Y-104531683D01*
X137921143Y-104634229D01*
X137731097Y-104823944D01*
X137628117Y-105071945D01*
X137627883Y-105340477D01*
X136459380Y-105340477D01*
X136749515Y-104906260D01*
X136851410Y-104394000D01*
X136749515Y-103881740D01*
X136671965Y-103765677D01*
X139278883Y-103765677D01*
X139381429Y-104013857D01*
X139571144Y-104203903D01*
X139819145Y-104306883D01*
X140087677Y-104307117D01*
X140335857Y-104204571D01*
X140525903Y-104014856D01*
X140628883Y-103766855D01*
X140629117Y-103498323D01*
X140526571Y-103250143D01*
X140336856Y-103060097D01*
X140152818Y-102983677D01*
X150824883Y-102983677D01*
X150927429Y-103231857D01*
X151117144Y-103421903D01*
X151365145Y-103524883D01*
X151633677Y-103525117D01*
X151881857Y-103422571D01*
X152071903Y-103232856D01*
X152174883Y-102984855D01*
X152175117Y-102716323D01*
X152072571Y-102468143D01*
X151882856Y-102278097D01*
X151634855Y-102175117D01*
X151366323Y-102174883D01*
X151118143Y-102277429D01*
X150928097Y-102467144D01*
X150825117Y-102715145D01*
X150824883Y-102983677D01*
X140152818Y-102983677D01*
X140088855Y-102957117D01*
X139820323Y-102956883D01*
X139572143Y-103059429D01*
X139382097Y-103249144D01*
X139279117Y-103497145D01*
X139278883Y-103765677D01*
X136671965Y-103765677D01*
X136459343Y-103447467D01*
X136091834Y-103201905D01*
X136347200Y-103201905D01*
X136523224Y-103168784D01*
X136684892Y-103064754D01*
X136793349Y-102906022D01*
X136831505Y-102717600D01*
X136831505Y-100990400D01*
X136798384Y-100814376D01*
X136747307Y-100735000D01*
X139425876Y-100735000D01*
X139394343Y-100748029D01*
X139204297Y-100937744D01*
X139101317Y-101185745D01*
X139101083Y-101454277D01*
X139203629Y-101702457D01*
X139393344Y-101892503D01*
X139641345Y-101995483D01*
X139909877Y-101995717D01*
X140158057Y-101893171D01*
X140348103Y-101703456D01*
X140451083Y-101455455D01*
X140451317Y-101186923D01*
X140348771Y-100938743D01*
X140159056Y-100748697D01*
X140126070Y-100735000D01*
X140910384Y-100735000D01*
X140828097Y-100817144D01*
X140725117Y-101065145D01*
X140724883Y-101333677D01*
X140827429Y-101581857D01*
X141017144Y-101771903D01*
X141265145Y-101874883D01*
X141533677Y-101875117D01*
X141781857Y-101772571D01*
X141971903Y-101582856D01*
X142074883Y-101334855D01*
X142075117Y-101066848D01*
X142147429Y-101241857D01*
X142337144Y-101431903D01*
X142466554Y-101485639D01*
X142379297Y-101572744D01*
X142276317Y-101820745D01*
X142276083Y-102089277D01*
X142378629Y-102337457D01*
X142568344Y-102527503D01*
X142816345Y-102630483D01*
X143084877Y-102630717D01*
X143333057Y-102528171D01*
X143523103Y-102338456D01*
X143626083Y-102090455D01*
X143626317Y-101821923D01*
X143523771Y-101573743D01*
X143334056Y-101383697D01*
X143204646Y-101329961D01*
X143291903Y-101242856D01*
X143394883Y-100994855D01*
X143395109Y-100735000D01*
X144817550Y-100735000D01*
X144639897Y-100912344D01*
X144536917Y-101160345D01*
X144536683Y-101428877D01*
X144639229Y-101677057D01*
X144828944Y-101867103D01*
X145076945Y-101970083D01*
X145345477Y-101970317D01*
X145593657Y-101867771D01*
X145783703Y-101678056D01*
X145886683Y-101430055D01*
X145886917Y-101161523D01*
X145784371Y-100913343D01*
X145606339Y-100735000D01*
X150801361Y-100735000D01*
X150709117Y-100957145D01*
X150708883Y-101225677D01*
X150811429Y-101473857D01*
X151001144Y-101663903D01*
X151249145Y-101766883D01*
X151517677Y-101767117D01*
X151765857Y-101664571D01*
X151955903Y-101474856D01*
X152058883Y-101226855D01*
X152059117Y-100958323D01*
X151966842Y-100735000D01*
X153529662Y-100735000D01*
X153402897Y-100861544D01*
X153299917Y-101109545D01*
X153299683Y-101378077D01*
X153402229Y-101626257D01*
X153591944Y-101816303D01*
X153839945Y-101919283D01*
X154108477Y-101919517D01*
X154356657Y-101816971D01*
X154546703Y-101627256D01*
X154649683Y-101379255D01*
X154649917Y-101110723D01*
X154547371Y-100862543D01*
X154420050Y-100735000D01*
X157340000Y-100735000D01*
X157713117Y-100660783D01*
X158029429Y-100449429D01*
X159029429Y-99449429D01*
X159240783Y-99133117D01*
X159315000Y-98760000D01*
X159315000Y-97756274D01*
X159736433Y-98178443D01*
X159736433Y-98178443D01*
G37*
X159736433Y-98178443D02*
X160553919Y-98517893D01*
X161439078Y-98518665D01*
X162257155Y-98180643D01*
X162619600Y-97818830D01*
X162619600Y-99187783D01*
X162006848Y-99800535D01*
X162054883Y-99684855D01*
X162055117Y-99416323D01*
X161952571Y-99168143D01*
X161762856Y-98978097D01*
X161514855Y-98875117D01*
X161246323Y-98874883D01*
X160998143Y-98977429D01*
X160808097Y-99167144D01*
X160705117Y-99415145D01*
X160704883Y-99683677D01*
X160807429Y-99931857D01*
X160997144Y-100121903D01*
X161245145Y-100224883D01*
X161513677Y-100225117D01*
X161630562Y-100176821D01*
X157065691Y-104741691D01*
X156946466Y-104920124D01*
X156904600Y-105130600D01*
X156904600Y-109094679D01*
X156882697Y-109116544D01*
X156779717Y-109364545D01*
X156779483Y-109633077D01*
X156882029Y-109881257D01*
X157071744Y-110071303D01*
X157319745Y-110174283D01*
X157588277Y-110174517D01*
X157836457Y-110071971D01*
X158026503Y-109882256D01*
X158129483Y-109634255D01*
X158129717Y-109365723D01*
X158027171Y-109117543D01*
X158004600Y-109094933D01*
X158004600Y-105940702D01*
X158107145Y-105983283D01*
X158230679Y-105983391D01*
X158176717Y-106113345D01*
X158176483Y-106381877D01*
X158279029Y-106630057D01*
X158468744Y-106820103D01*
X158716745Y-106923083D01*
X158985277Y-106923317D01*
X159233457Y-106820771D01*
X159256067Y-106798200D01*
X160350200Y-106798200D01*
X160409800Y-106786345D01*
X160409800Y-108280200D01*
X160451666Y-108490676D01*
X160570891Y-108669109D01*
X161967889Y-110066106D01*
X161967891Y-110066109D01*
X162129785Y-110174283D01*
X162146324Y-110185334D01*
X162356800Y-110227200D01*
X165508079Y-110227200D01*
X165529944Y-110249103D01*
X165777945Y-110352083D01*
X166046477Y-110352317D01*
X166294657Y-110249771D01*
X166484703Y-110060056D01*
X166587683Y-109812055D01*
X166587917Y-109543523D01*
X166485371Y-109295343D01*
X166295656Y-109105297D01*
X166047655Y-109002317D01*
X165779123Y-109002083D01*
X165530943Y-109104629D01*
X165508333Y-109127200D01*
X162584617Y-109127200D01*
X161816313Y-108358895D01*
X162070677Y-108359117D01*
X162318857Y-108256571D01*
X162508903Y-108066856D01*
X162611883Y-107818855D01*
X162611884Y-107817677D01*
X162761883Y-107817677D01*
X162864429Y-108065857D01*
X163054144Y-108255903D01*
X163302145Y-108358883D01*
X163570677Y-108359117D01*
X163622565Y-108337677D01*
X165872683Y-108337677D01*
X165975229Y-108585857D01*
X166164944Y-108775903D01*
X166412945Y-108878883D01*
X166681477Y-108879117D01*
X166929657Y-108776571D01*
X167119703Y-108586856D01*
X167222683Y-108338855D01*
X167222917Y-108070323D01*
X167120371Y-107822143D01*
X166930656Y-107632097D01*
X166682655Y-107529117D01*
X166414123Y-107528883D01*
X166165943Y-107631429D01*
X165975897Y-107821144D01*
X165872917Y-108069145D01*
X165872683Y-108337677D01*
X163622565Y-108337677D01*
X163818857Y-108256571D01*
X164008903Y-108066856D01*
X164111883Y-107818855D01*
X164112117Y-107550323D01*
X164009571Y-107302143D01*
X163819856Y-107112097D01*
X163571855Y-107009117D01*
X163303323Y-107008883D01*
X163055143Y-107111429D01*
X162865097Y-107301144D01*
X162762117Y-107549145D01*
X162761883Y-107817677D01*
X162611884Y-107817677D01*
X162612117Y-107550323D01*
X162509571Y-107302143D01*
X162319856Y-107112097D01*
X162071855Y-107009117D01*
X161803323Y-107008883D01*
X161555143Y-107111429D01*
X161509800Y-107156693D01*
X161509800Y-106711482D01*
X161554144Y-106755903D01*
X161802145Y-106858883D01*
X162070677Y-106859117D01*
X162318857Y-106756571D01*
X162508903Y-106566856D01*
X162611883Y-106318855D01*
X162611884Y-106317677D01*
X162761883Y-106317677D01*
X162864429Y-106565857D01*
X163054144Y-106755903D01*
X163302145Y-106858883D01*
X163570677Y-106859117D01*
X163818857Y-106756571D01*
X164008903Y-106566856D01*
X164096260Y-106356477D01*
X165821883Y-106356477D01*
X165924429Y-106604657D01*
X166114144Y-106794703D01*
X166362145Y-106897683D01*
X166630677Y-106897917D01*
X166878857Y-106795371D01*
X167068903Y-106605656D01*
X167171883Y-106357655D01*
X167172117Y-106089123D01*
X167069571Y-105840943D01*
X166879856Y-105650897D01*
X166631855Y-105547917D01*
X166363323Y-105547683D01*
X166115143Y-105650229D01*
X165925097Y-105839944D01*
X165822117Y-106087945D01*
X165821883Y-106356477D01*
X164096260Y-106356477D01*
X164111883Y-106318855D01*
X164112117Y-106050323D01*
X164009571Y-105802143D01*
X163819856Y-105612097D01*
X163571855Y-105509117D01*
X163303323Y-105508883D01*
X163055143Y-105611429D01*
X162865097Y-105801144D01*
X162762117Y-106049145D01*
X162761883Y-106317677D01*
X162611884Y-106317677D01*
X162612117Y-106050323D01*
X162509571Y-105802143D01*
X162319856Y-105612097D01*
X162071855Y-105509117D01*
X161867279Y-105508939D01*
X162518340Y-104857877D01*
X165669483Y-104857877D01*
X165772029Y-105106057D01*
X165961744Y-105296103D01*
X166209745Y-105399083D01*
X166478277Y-105399317D01*
X166726457Y-105296771D01*
X166916503Y-105107056D01*
X167019483Y-104859055D01*
X167019717Y-104590523D01*
X166917171Y-104342343D01*
X166727456Y-104152297D01*
X166479455Y-104049317D01*
X166210923Y-104049083D01*
X165962743Y-104151629D01*
X165772697Y-104341344D01*
X165669717Y-104589345D01*
X165669483Y-104857877D01*
X162518340Y-104857877D01*
X164015706Y-103360511D01*
X164015709Y-103360509D01*
X164134934Y-103182076D01*
X164137578Y-103168784D01*
X164176801Y-102971600D01*
X164176800Y-102971595D01*
X164176800Y-102565877D01*
X164242555Y-102609813D01*
X164520000Y-102665000D01*
X164797445Y-102609813D01*
X165032652Y-102452652D01*
X165189813Y-102217445D01*
X165211768Y-102107072D01*
X165777348Y-102672653D01*
X166012554Y-102829813D01*
X166079906Y-102843210D01*
X168486217Y-105249522D01*
X168464401Y-105359200D01*
X168519587Y-105636646D01*
X168676748Y-105871852D01*
X168911954Y-106029013D01*
X168975041Y-106041561D01*
X168974733Y-106395047D01*
X169157037Y-106836257D01*
X169494307Y-107174117D01*
X169511550Y-107181277D01*
X169404897Y-107287744D01*
X169301917Y-107535745D01*
X169301683Y-107804277D01*
X169404229Y-108052457D01*
X169593944Y-108242503D01*
X169841945Y-108345483D01*
X170110477Y-108345717D01*
X170358657Y-108243171D01*
X170418883Y-108183050D01*
X170568276Y-108153334D01*
X170746709Y-108034109D01*
X170975309Y-107805509D01*
X171455436Y-107325381D01*
X171496240Y-107530516D01*
X171707594Y-107846829D01*
X172023907Y-108058183D01*
X172397023Y-108132400D01*
X173352857Y-108132400D01*
X173725973Y-108058183D01*
X173902358Y-107940326D01*
X173902358Y-126846886D01*
X173737856Y-126682097D01*
X173489855Y-126579117D01*
X173221323Y-126578883D01*
X172973143Y-126681429D01*
X172783097Y-126871144D01*
X172680117Y-127119145D01*
X172679883Y-127387677D01*
X172782429Y-127635857D01*
X172936856Y-127790553D01*
X162427358Y-127790553D01*
X162376642Y-127800641D01*
X162324936Y-127800641D01*
X161942253Y-127876761D01*
X161753001Y-127955151D01*
X161752998Y-127955154D01*
X161428577Y-128171924D01*
X161283729Y-128316771D01*
X161283729Y-128316772D01*
X161066956Y-128641196D01*
X160988565Y-128830448D01*
X160988565Y-128830453D01*
X160912446Y-129213131D01*
X160912446Y-129264837D01*
X160902358Y-129315553D01*
X160902358Y-130091230D01*
X160821171Y-129894743D01*
X160631456Y-129704697D01*
X160383455Y-129601717D01*
X160114923Y-129601483D01*
X159866743Y-129704029D01*
X159676697Y-129893744D01*
X159573717Y-130141745D01*
X159573483Y-130410277D01*
X159676029Y-130658457D01*
X159865744Y-130848503D01*
X160113745Y-130951483D01*
X160382277Y-130951717D01*
X160630457Y-130849171D01*
X160820503Y-130659456D01*
X160902358Y-130462329D01*
X160902358Y-131320000D01*
X150126826Y-131320000D01*
X150203303Y-131243656D01*
X150306283Y-130995655D01*
X150306517Y-130727123D01*
X150203971Y-130478943D01*
X150014256Y-130288897D01*
X149766255Y-130185917D01*
X149621849Y-130185791D01*
X149620150Y-130181677D01*
X150327883Y-130181677D01*
X150430429Y-130429857D01*
X150620144Y-130619903D01*
X150868145Y-130722883D01*
X151136677Y-130723117D01*
X151384857Y-130620571D01*
X151570073Y-130435677D01*
X153350483Y-130435677D01*
X153453029Y-130683857D01*
X153642744Y-130873903D01*
X153890745Y-130976883D01*
X154159277Y-130977117D01*
X154407457Y-130874571D01*
X154597503Y-130684856D01*
X154700483Y-130436855D01*
X154700484Y-130435677D01*
X154823683Y-130435677D01*
X154926229Y-130683857D01*
X155115944Y-130873903D01*
X155363945Y-130976883D01*
X155632477Y-130977117D01*
X155880657Y-130874571D01*
X156070703Y-130684856D01*
X156173683Y-130436855D01*
X156173917Y-130168323D01*
X156071371Y-129920143D01*
X155881656Y-129730097D01*
X155633655Y-129627117D01*
X155365123Y-129626883D01*
X155116943Y-129729429D01*
X154926897Y-129919144D01*
X154823917Y-130167145D01*
X154823683Y-130435677D01*
X154700484Y-130435677D01*
X154700717Y-130168323D01*
X154598171Y-129920143D01*
X154408456Y-129730097D01*
X154160455Y-129627117D01*
X153891923Y-129626883D01*
X153643743Y-129729429D01*
X153453697Y-129919144D01*
X153350717Y-130167145D01*
X153350483Y-130435677D01*
X151570073Y-130435677D01*
X151574903Y-130430856D01*
X151677883Y-130182855D01*
X151678117Y-129914323D01*
X151575571Y-129666143D01*
X151385856Y-129476097D01*
X151137855Y-129373117D01*
X150869323Y-129372883D01*
X150621143Y-129475429D01*
X150431097Y-129665144D01*
X150328117Y-129913145D01*
X150327883Y-130181677D01*
X149620150Y-130181677D01*
X149543571Y-129996343D01*
X149353856Y-129806297D01*
X149105855Y-129703317D01*
X148837323Y-129703083D01*
X148589143Y-129805629D01*
X148399097Y-129995344D01*
X148296117Y-130243345D01*
X148295883Y-130511877D01*
X148398429Y-130760057D01*
X148588144Y-130950103D01*
X148836145Y-131053083D01*
X148980551Y-131053209D01*
X149058829Y-131242657D01*
X149136037Y-131320000D01*
X147586054Y-131320000D01*
X147803457Y-131230171D01*
X147993503Y-131040456D01*
X148096483Y-130792455D01*
X148096717Y-130523923D01*
X147994171Y-130275743D01*
X147804456Y-130085697D01*
X147721671Y-130051321D01*
X147740883Y-130005055D01*
X147741117Y-129736523D01*
X147638571Y-129488343D01*
X147448856Y-129298297D01*
X147200855Y-129195317D01*
X146932323Y-129195083D01*
X146684143Y-129297629D01*
X146494097Y-129487344D01*
X146391117Y-129735345D01*
X146390883Y-130003877D01*
X146493429Y-130252057D01*
X146683144Y-130442103D01*
X146765929Y-130476479D01*
X146746717Y-130522745D01*
X146746483Y-130791277D01*
X146849029Y-131039457D01*
X147038744Y-131229503D01*
X147256683Y-131320000D01*
X145604854Y-131320000D01*
X145822257Y-131230171D01*
X146012303Y-131040456D01*
X146115283Y-130792455D01*
X146115517Y-130523923D01*
X146012971Y-130275743D01*
X145823256Y-130085697D01*
X145575255Y-129982717D01*
X145306723Y-129982483D01*
X145058543Y-130085029D01*
X144868497Y-130274744D01*
X144765517Y-130522745D01*
X144765283Y-130791277D01*
X144867829Y-131039457D01*
X145057544Y-131229503D01*
X145275483Y-131320000D01*
X142048854Y-131320000D01*
X142266257Y-131230171D01*
X142456303Y-131040456D01*
X142559283Y-130792455D01*
X142559517Y-130523923D01*
X142456971Y-130275743D01*
X142267256Y-130085697D01*
X142019255Y-129982717D01*
X141761607Y-129982492D01*
X141795903Y-129948256D01*
X141898883Y-129700255D01*
X141898911Y-129668306D01*
X141938906Y-129628311D01*
X141938909Y-129628309D01*
X142058134Y-129449876D01*
X142064479Y-129417976D01*
X142100001Y-129239400D01*
X142100000Y-129239395D01*
X142100000Y-128030523D01*
X142123831Y-128030544D01*
X142123683Y-128200477D01*
X142226229Y-128448657D01*
X142415944Y-128638703D01*
X142663945Y-128741683D01*
X142932477Y-128741917D01*
X143180657Y-128639371D01*
X143370703Y-128449656D01*
X143473683Y-128201655D01*
X143473917Y-127933123D01*
X143462545Y-127905600D01*
X154408279Y-127905600D01*
X154430144Y-127927503D01*
X154678145Y-128030483D01*
X154946677Y-128030717D01*
X155194857Y-127928171D01*
X155384903Y-127738456D01*
X155487883Y-127490455D01*
X155488117Y-127221923D01*
X155385571Y-126973743D01*
X155195856Y-126783697D01*
X154947855Y-126680717D01*
X154679323Y-126680483D01*
X154431143Y-126783029D01*
X154408533Y-126805600D01*
X152177414Y-126805600D01*
X152232059Y-126751050D01*
X152315945Y-126785883D01*
X152584477Y-126786117D01*
X152832657Y-126683571D01*
X153022703Y-126493856D01*
X153125683Y-126245855D01*
X153125917Y-125977323D01*
X153023371Y-125729143D01*
X152833656Y-125539097D01*
X152585655Y-125436117D01*
X152317123Y-125435883D01*
X152068943Y-125538429D01*
X151907541Y-125699550D01*
X151823655Y-125664717D01*
X151555123Y-125664483D01*
X151306943Y-125767029D01*
X151116897Y-125956744D01*
X151093887Y-126012159D01*
X151093917Y-125977323D01*
X150991371Y-125729143D01*
X150801656Y-125539097D01*
X150553655Y-125436117D01*
X150285123Y-125435883D01*
X150036943Y-125538429D01*
X149846897Y-125728144D01*
X149743917Y-125976145D01*
X149743683Y-126244677D01*
X149846229Y-126492857D01*
X150035944Y-126682903D01*
X150283945Y-126785883D01*
X150552477Y-126786117D01*
X150800657Y-126683571D01*
X150990703Y-126493856D01*
X151013713Y-126438441D01*
X151013683Y-126473277D01*
X151116229Y-126721457D01*
X151200225Y-126805600D01*
X143947947Y-126805600D01*
X143954903Y-126798656D01*
X144014301Y-126655612D01*
X144041544Y-126682903D01*
X144289545Y-126785883D01*
X144558077Y-126786117D01*
X144806257Y-126683571D01*
X144996303Y-126493856D01*
X145099283Y-126245855D01*
X145099517Y-125977323D01*
X144996971Y-125729143D01*
X144807256Y-125539097D01*
X144559255Y-125436117D01*
X144290723Y-125435883D01*
X144042543Y-125538429D01*
X143852497Y-125728144D01*
X143793099Y-125871188D01*
X143765856Y-125843897D01*
X143517855Y-125740917D01*
X143249323Y-125740683D01*
X143001143Y-125843229D01*
X142811097Y-126032944D01*
X142708117Y-126280945D01*
X142707883Y-126549477D01*
X142810429Y-126797657D01*
X142818358Y-126805600D01*
X142593921Y-126805600D01*
X142572056Y-126783697D01*
X142324055Y-126680717D01*
X142100000Y-126680522D01*
X142100000Y-124034723D01*
X142121903Y-124012858D01*
X142224883Y-123764857D01*
X142225117Y-123496325D01*
X142122571Y-123248145D01*
X141932856Y-123058099D01*
X141684855Y-122955119D01*
X141573461Y-122955022D01*
X141664883Y-122734855D01*
X141664945Y-122663277D01*
X142733283Y-122663277D01*
X142835829Y-122911457D01*
X143025544Y-123101503D01*
X143273545Y-123204483D01*
X143542077Y-123204717D01*
X143790257Y-123102171D01*
X143980303Y-122912456D01*
X144083283Y-122664455D01*
X144083517Y-122395923D01*
X143980971Y-122147743D01*
X143791256Y-121957697D01*
X143543255Y-121854717D01*
X143274723Y-121854483D01*
X143026543Y-121957029D01*
X142836497Y-122146744D01*
X142733517Y-122394745D01*
X142733283Y-122663277D01*
X141664945Y-122663277D01*
X141665117Y-122466323D01*
X141562571Y-122218143D01*
X141441229Y-122096589D01*
X142254141Y-121283677D01*
X143294883Y-121283677D01*
X143397429Y-121531857D01*
X143587144Y-121721903D01*
X143835145Y-121824883D01*
X144103677Y-121825117D01*
X144351857Y-121722571D01*
X144541903Y-121532856D01*
X144644883Y-121284855D01*
X144645117Y-121016323D01*
X144542571Y-120768143D01*
X144352856Y-120578097D01*
X144104855Y-120475117D01*
X143836323Y-120474883D01*
X143588143Y-120577429D01*
X143398097Y-120767144D01*
X143295117Y-121015145D01*
X143294883Y-121283677D01*
X142254141Y-121283677D01*
X144065827Y-119471991D01*
X144117429Y-119596878D01*
X144307144Y-119786924D01*
X144555145Y-119889904D01*
X144823677Y-119890138D01*
X144825009Y-119889588D01*
X144824883Y-120033677D01*
X144927429Y-120281857D01*
X145117144Y-120471903D01*
X145365145Y-120574883D01*
X145397093Y-120574911D01*
X149161089Y-124338906D01*
X149161091Y-124338909D01*
X149283916Y-124420978D01*
X149339524Y-124458134D01*
X149489753Y-124488017D01*
X149489683Y-124568277D01*
X149592229Y-124816457D01*
X149781944Y-125006503D01*
X150029945Y-125109483D01*
X150298477Y-125109717D01*
X150546657Y-125007171D01*
X150736703Y-124817456D01*
X150839683Y-124569455D01*
X150839744Y-124500000D01*
X167769000Y-124500000D01*
X167979476Y-124458134D01*
X168157909Y-124338909D01*
X171374928Y-121121890D01*
X171405877Y-121121917D01*
X171654057Y-121019371D01*
X171844103Y-120829656D01*
X171947083Y-120581655D01*
X171947317Y-120313123D01*
X171844771Y-120064943D01*
X171668016Y-119887880D01*
X171818703Y-119737456D01*
X171921683Y-119489455D01*
X171921917Y-119220923D01*
X171819371Y-118972743D01*
X171629656Y-118782697D01*
X171603008Y-118771631D01*
X171671903Y-118702856D01*
X171774883Y-118454855D01*
X171775117Y-118186323D01*
X171672571Y-117938143D01*
X171482856Y-117748097D01*
X171234855Y-117645117D01*
X170966323Y-117644883D01*
X170718143Y-117747429D01*
X170528097Y-117937144D01*
X170425117Y-118185145D01*
X170425089Y-118217094D01*
X165652183Y-122989999D01*
X164640492Y-122989999D01*
X164733483Y-122766055D01*
X164733717Y-122497523D01*
X164631171Y-122249343D01*
X164441456Y-122059297D01*
X164193455Y-121956317D01*
X163924923Y-121956083D01*
X163676743Y-122058629D01*
X163486697Y-122248344D01*
X163383717Y-122496345D01*
X163383483Y-122764877D01*
X163476502Y-122989999D01*
X160304948Y-122989999D01*
X160305117Y-122796323D01*
X160202571Y-122548143D01*
X160012856Y-122358097D01*
X159775062Y-122259355D01*
X159775117Y-122196323D01*
X159672571Y-121948143D01*
X159482856Y-121758097D01*
X159234855Y-121655117D01*
X159202907Y-121655089D01*
X158798909Y-121251091D01*
X158620476Y-121131866D01*
X158410000Y-121090000D01*
X151934721Y-121090000D01*
X151912856Y-121068097D01*
X151664855Y-120965117D01*
X151396323Y-120964883D01*
X151148143Y-121067429D01*
X150958097Y-121257144D01*
X150855117Y-121505145D01*
X150854883Y-121773677D01*
X150908484Y-121903400D01*
X150214818Y-121903400D01*
X149366690Y-121055272D01*
X149366717Y-121024323D01*
X149264171Y-120776143D01*
X149074456Y-120586097D01*
X148826455Y-120483117D01*
X148557923Y-120482883D01*
X148309743Y-120585429D01*
X148119697Y-120775144D01*
X148016717Y-121023145D01*
X148016483Y-121291677D01*
X148119029Y-121539857D01*
X148308744Y-121729903D01*
X148556745Y-121832883D01*
X148588693Y-121832911D01*
X149598091Y-122842309D01*
X149776524Y-122961534D01*
X149987000Y-123003400D01*
X154938128Y-123003400D01*
X154875117Y-123155145D01*
X154874904Y-123400000D01*
X149777817Y-123400000D01*
X146175090Y-119797272D01*
X146175117Y-119766323D01*
X146174579Y-119765021D01*
X157620416Y-119765021D01*
X157508097Y-119877144D01*
X157405117Y-120125145D01*
X157404883Y-120393677D01*
X157507429Y-120641857D01*
X157697144Y-120831903D01*
X157945145Y-120934883D01*
X158213677Y-120935117D01*
X158461857Y-120832571D01*
X158651903Y-120642856D01*
X158754883Y-120394855D01*
X158755117Y-120126323D01*
X158652571Y-119878143D01*
X158539646Y-119765021D01*
X168109779Y-119765021D01*
X168320255Y-119723155D01*
X168498688Y-119603930D01*
X171349527Y-116753090D01*
X171380477Y-116753117D01*
X171628657Y-116650571D01*
X171818703Y-116460856D01*
X171921683Y-116212855D01*
X171921917Y-115944323D01*
X171819371Y-115696143D01*
X171668016Y-115544524D01*
X171793303Y-115419456D01*
X171896283Y-115171455D01*
X171896517Y-114902923D01*
X171793971Y-114654743D01*
X171604256Y-114464697D01*
X171356255Y-114361717D01*
X171087723Y-114361483D01*
X170839543Y-114464029D01*
X170649497Y-114653744D01*
X170546517Y-114901745D01*
X170546489Y-114933693D01*
X167290171Y-118190011D01*
X159797807Y-118190011D01*
X163388909Y-114598909D01*
X163508134Y-114420476D01*
X163550001Y-114210000D01*
X163550000Y-114209995D01*
X163550000Y-114184254D01*
X163618945Y-114212883D01*
X163887477Y-114213117D01*
X164135657Y-114110571D01*
X164325703Y-113920856D01*
X164428683Y-113672855D01*
X164428875Y-113453000D01*
X171475400Y-113453000D01*
X171685876Y-113411134D01*
X171864309Y-113291909D01*
X172187728Y-112968490D01*
X172218677Y-112968517D01*
X172466857Y-112865971D01*
X172656903Y-112676256D01*
X172759883Y-112428255D01*
X172760117Y-112159723D01*
X172657571Y-111911543D01*
X172467856Y-111721497D01*
X172219855Y-111618517D01*
X171951323Y-111618283D01*
X171816948Y-111673806D01*
X171820083Y-111666255D01*
X171820317Y-111397723D01*
X171717771Y-111149543D01*
X171528056Y-110959497D01*
X171280055Y-110856517D01*
X171011523Y-110856283D01*
X170763343Y-110958829D01*
X170573297Y-111148544D01*
X170470317Y-111396545D01*
X170470083Y-111665077D01*
X170572629Y-111913257D01*
X170762344Y-112103303D01*
X171010345Y-112206283D01*
X171278877Y-112206517D01*
X171413252Y-112150994D01*
X171410117Y-112158545D01*
X171410089Y-112190493D01*
X171247582Y-112353000D01*
X164606549Y-112353000D01*
X164606717Y-112159723D01*
X164504171Y-111911543D01*
X164314456Y-111721497D01*
X164078882Y-111623677D01*
X168174883Y-111623677D01*
X168277429Y-111871857D01*
X168467144Y-112061903D01*
X168715145Y-112164883D01*
X168983677Y-112165117D01*
X169231857Y-112062571D01*
X169421903Y-111872856D01*
X169524883Y-111624855D01*
X169525117Y-111356323D01*
X169422571Y-111108143D01*
X169232856Y-110918097D01*
X168984855Y-110815117D01*
X168716323Y-110814883D01*
X168468143Y-110917429D01*
X168278097Y-111107144D01*
X168175117Y-111355145D01*
X168174883Y-111623677D01*
X164078882Y-111623677D01*
X164066455Y-111618517D01*
X163797923Y-111618283D01*
X163549743Y-111720829D01*
X163359697Y-111910544D01*
X163256717Y-112158545D01*
X163256519Y-112385518D01*
X163209524Y-112394866D01*
X163031091Y-112514091D01*
X162611091Y-112934091D01*
X162491866Y-113112524D01*
X162450000Y-113323000D01*
X162450000Y-113982182D01*
X161747176Y-114685006D01*
X161747350Y-114485857D01*
X161644804Y-114237677D01*
X161455089Y-114047631D01*
X161207088Y-113944651D01*
X160938556Y-113944417D01*
X160708993Y-114039271D01*
X160639021Y-113869927D01*
X160449306Y-113679881D01*
X160201305Y-113576901D01*
X160126592Y-113576836D01*
X160076927Y-113543651D01*
X159866451Y-113501785D01*
X159385219Y-113501785D01*
X159474303Y-113412856D01*
X159577283Y-113164855D01*
X159577517Y-112896323D01*
X159474971Y-112648143D01*
X159285256Y-112458097D01*
X159037255Y-112355117D01*
X158768723Y-112354883D01*
X158520543Y-112457429D01*
X158330497Y-112647144D01*
X158227517Y-112895145D01*
X158227283Y-113163677D01*
X158329829Y-113411857D01*
X158419600Y-113501785D01*
X149938488Y-113501785D01*
X150009372Y-113331080D01*
X150009606Y-113062548D01*
X149907060Y-112814368D01*
X149802874Y-112710000D01*
X153115279Y-112710000D01*
X153137144Y-112731903D01*
X153385145Y-112834883D01*
X153653677Y-112835117D01*
X153901857Y-112732571D01*
X154030975Y-112603677D01*
X155934883Y-112603677D01*
X156037429Y-112851857D01*
X156227144Y-113041903D01*
X156475145Y-113144883D01*
X156743677Y-113145117D01*
X156991857Y-113042571D01*
X157181903Y-112852856D01*
X157284883Y-112604855D01*
X157285117Y-112336323D01*
X157182571Y-112088143D01*
X156992856Y-111898097D01*
X156744855Y-111795117D01*
X156476323Y-111794883D01*
X156228143Y-111897429D01*
X156038097Y-112087144D01*
X155935117Y-112335145D01*
X155934883Y-112603677D01*
X154030975Y-112603677D01*
X154091903Y-112542856D01*
X154194883Y-112294855D01*
X154195117Y-112026323D01*
X154092571Y-111778143D01*
X153902856Y-111588097D01*
X153654855Y-111485117D01*
X153386323Y-111484883D01*
X153138143Y-111587429D01*
X153115533Y-111610000D01*
X148000005Y-111610000D01*
X148000000Y-111609999D01*
X147789524Y-111651866D01*
X147611091Y-111771091D01*
X146682182Y-112700000D01*
X146318629Y-112700000D01*
X146393303Y-112625456D01*
X146496283Y-112377455D01*
X146496405Y-112237461D01*
X146635057Y-112180171D01*
X146825103Y-111990456D01*
X146928083Y-111742455D01*
X146928317Y-111473923D01*
X146825771Y-111225743D01*
X146636056Y-111035697D01*
X146388055Y-110932717D01*
X146119523Y-110932483D01*
X145871343Y-111035029D01*
X145681297Y-111224744D01*
X145578317Y-111472745D01*
X145578195Y-111612739D01*
X145439543Y-111670029D01*
X145249497Y-111859744D01*
X145146517Y-112107745D01*
X145146283Y-112376277D01*
X145248829Y-112624457D01*
X145324240Y-112700000D01*
X142700827Y-112700000D01*
X142701031Y-112465962D01*
X142598485Y-112217782D01*
X142408770Y-112027736D01*
X142160769Y-111924756D01*
X141892237Y-111924522D01*
X141644057Y-112027068D01*
X141454011Y-112216783D01*
X141351031Y-112464784D01*
X141350935Y-112575114D01*
X141086323Y-112574883D01*
X140838143Y-112677429D01*
X140648097Y-112867144D01*
X140545117Y-113115145D01*
X140544883Y-113383677D01*
X140647429Y-113631857D01*
X140837144Y-113821903D01*
X140843483Y-113824535D01*
X140805117Y-113916930D01*
X140804883Y-114185462D01*
X140839620Y-114269533D01*
X139729151Y-114269533D01*
X139642856Y-114183087D01*
X139394855Y-114080107D01*
X139126323Y-114079873D01*
X138878143Y-114182419D01*
X138688097Y-114372134D01*
X138585117Y-114620135D01*
X138584883Y-114888667D01*
X138662326Y-115076094D01*
X138452976Y-115162596D01*
X138262930Y-115352311D01*
X138214827Y-115468154D01*
X138014855Y-115385117D01*
X137746323Y-115384883D01*
X137498143Y-115487429D01*
X137308097Y-115677144D01*
X137205117Y-115925145D01*
X137205054Y-115997803D01*
X136988143Y-116087429D01*
X136798097Y-116277144D01*
X136772590Y-116338571D01*
X136558320Y-116338384D01*
X136310140Y-116440930D01*
X136120094Y-116630645D01*
X136017114Y-116878646D01*
X136016880Y-117147178D01*
X136119426Y-117395358D01*
X136121618Y-117397554D01*
X136024523Y-117416867D01*
X135846090Y-117536092D01*
X135846088Y-117536095D01*
X135777273Y-117604910D01*
X135746323Y-117604883D01*
X135498143Y-117707429D01*
X135308097Y-117897144D01*
X135205117Y-118145145D01*
X135204883Y-118413677D01*
X135219109Y-118448106D01*
X135148143Y-118477429D01*
X134958097Y-118667144D01*
X134855117Y-118915145D01*
X134854883Y-119183677D01*
X134957429Y-119431857D01*
X135147144Y-119621903D01*
X135395145Y-119724883D01*
X135663677Y-119725117D01*
X135911857Y-119622571D01*
X135964733Y-119569787D01*
X136023318Y-119558134D01*
X136201751Y-119438909D01*
X136700660Y-118940000D01*
X140037082Y-118940000D01*
X140037031Y-118998687D01*
X140139577Y-119246867D01*
X140329292Y-119436913D01*
X140577293Y-119539893D01*
X140845825Y-119540127D01*
X141094005Y-119437581D01*
X141284051Y-119247866D01*
X141387031Y-118999865D01*
X141387083Y-118940000D01*
X143042183Y-118940000D01*
X139987272Y-121994910D01*
X139956323Y-121994883D01*
X139708143Y-122097429D01*
X139518097Y-122287144D01*
X139415117Y-122535145D01*
X139414883Y-122803677D01*
X139517429Y-123051857D01*
X139707144Y-123241903D01*
X139955145Y-123344883D01*
X140111608Y-123345019D01*
X140045117Y-123505145D01*
X140044883Y-123773677D01*
X140089800Y-123882384D01*
X140089800Y-128344928D01*
X140070987Y-128316772D01*
X139926140Y-128171924D01*
X139926137Y-128171923D01*
X139601715Y-127955151D01*
X139412463Y-127876760D01*
X139412458Y-127876760D01*
X139029782Y-127800641D01*
X138824934Y-127800641D01*
X138442253Y-127876761D01*
X138253001Y-127955151D01*
X138252998Y-127955154D01*
X137928577Y-128171924D01*
X137783729Y-128316771D01*
X137783729Y-128316772D01*
X137566956Y-128641196D01*
X137488565Y-128830448D01*
X137488565Y-128830453D01*
X137479480Y-128876128D01*
X137269455Y-128788917D01*
X137000923Y-128788683D01*
X136752743Y-128891229D01*
X136730133Y-128913800D01*
X135298796Y-128913800D01*
X135320283Y-128862055D01*
X135320517Y-128593523D01*
X135217971Y-128345343D01*
X135028256Y-128155297D01*
X134780255Y-128052317D01*
X134511723Y-128052083D01*
X134263543Y-128154629D01*
X134073497Y-128344344D01*
X134071819Y-128348386D01*
X134049571Y-128294543D01*
X133859856Y-128104497D01*
X133611855Y-128001517D01*
X133343323Y-128001283D01*
X133095143Y-128103829D01*
X132905097Y-128293544D01*
X132802117Y-128541545D01*
X132801883Y-128810077D01*
X132904429Y-129058257D01*
X133094144Y-129248303D01*
X133342145Y-129351283D01*
X133610677Y-129351517D01*
X133858857Y-129248971D01*
X134048903Y-129059256D01*
X134050581Y-129055214D01*
X134057448Y-129071831D01*
X133921097Y-129207944D01*
X133818117Y-129455945D01*
X133817883Y-129724477D01*
X133920429Y-129972657D01*
X134110144Y-130162703D01*
X134358145Y-130265683D01*
X134626677Y-130265917D01*
X134874857Y-130163371D01*
X135024689Y-130013800D01*
X136593351Y-130013800D01*
X136561317Y-130090945D01*
X136561083Y-130359477D01*
X136663629Y-130607657D01*
X136853344Y-130797703D01*
X137101345Y-130900683D01*
X137369877Y-130900917D01*
X137402358Y-130887496D01*
X137402358Y-131320000D01*
X133590654Y-131320000D01*
X133808057Y-131230171D01*
X133998103Y-131040456D01*
X134101083Y-130792455D01*
X134101317Y-130523923D01*
X133998771Y-130275743D01*
X133809056Y-130085697D01*
X133561055Y-129982717D01*
X133292523Y-129982483D01*
X133044343Y-130085029D01*
X132854297Y-130274744D01*
X132751317Y-130522745D01*
X132751083Y-130791277D01*
X132853629Y-131039457D01*
X133043344Y-131229503D01*
X133261283Y-131320000D01*
X127302358Y-131320000D01*
X127302358Y-130308097D01*
X127504371Y-130610429D01*
X127529771Y-130635829D01*
X127846083Y-130847183D01*
X128219200Y-130921400D01*
X128592317Y-130847183D01*
X128908629Y-130635829D01*
X129119983Y-130319517D01*
X129194200Y-129946400D01*
X129168800Y-129818705D01*
X129168800Y-129665784D01*
X129328945Y-129732283D01*
X129597477Y-129732517D01*
X129845657Y-129629971D01*
X130035703Y-129440256D01*
X130138683Y-129192255D01*
X130138917Y-128923723D01*
X130133940Y-128911677D01*
X130261883Y-128911677D01*
X130364429Y-129159857D01*
X130368820Y-129164256D01*
X130363717Y-129176545D01*
X130363483Y-129445077D01*
X130466029Y-129693257D01*
X130655744Y-129883303D01*
X130903745Y-129986283D01*
X131172277Y-129986517D01*
X131420457Y-129883971D01*
X131610503Y-129694256D01*
X131713483Y-129446255D01*
X131713717Y-129177723D01*
X131611171Y-128929543D01*
X131606780Y-128925144D01*
X131611883Y-128912855D01*
X131612117Y-128644323D01*
X131509571Y-128396143D01*
X131319856Y-128206097D01*
X131071855Y-128103117D01*
X130803323Y-128102883D01*
X130555143Y-128205429D01*
X130365097Y-128395144D01*
X130262117Y-128643145D01*
X130261883Y-128911677D01*
X130133940Y-128911677D01*
X130036371Y-128675543D01*
X129846656Y-128485497D01*
X129598655Y-128382517D01*
X129330123Y-128382283D01*
X129168800Y-128448940D01*
X129168800Y-128117600D01*
X129161302Y-128079903D01*
X129094583Y-127744483D01*
X128883229Y-127428171D01*
X128258535Y-126803477D01*
X135926083Y-126803477D01*
X136028629Y-127051657D01*
X136218344Y-127241703D01*
X136466345Y-127344683D01*
X136734877Y-127344917D01*
X136983057Y-127242371D01*
X137173103Y-127052656D01*
X137276083Y-126804655D01*
X137276317Y-126536123D01*
X137173771Y-126287943D01*
X136984056Y-126097897D01*
X136736055Y-125994917D01*
X136467523Y-125994683D01*
X136219343Y-126097229D01*
X136029297Y-126286944D01*
X135926317Y-126534945D01*
X135926083Y-126803477D01*
X128258535Y-126803477D01*
X127699735Y-126244677D01*
X134427483Y-126244677D01*
X134530029Y-126492857D01*
X134719744Y-126682903D01*
X134967745Y-126785883D01*
X135236277Y-126786117D01*
X135484457Y-126683571D01*
X135674503Y-126493856D01*
X135777483Y-126245855D01*
X135777717Y-125977323D01*
X135763815Y-125943677D01*
X137474883Y-125943677D01*
X137577429Y-126191857D01*
X137767144Y-126381903D01*
X138015145Y-126484883D01*
X138283677Y-126485117D01*
X138531857Y-126382571D01*
X138721903Y-126192856D01*
X138824883Y-125944855D01*
X138825117Y-125676323D01*
X138722571Y-125428143D01*
X138532856Y-125238097D01*
X138284855Y-125135117D01*
X138016323Y-125134883D01*
X137768143Y-125237429D01*
X137578097Y-125427144D01*
X137475117Y-125675145D01*
X137474883Y-125943677D01*
X135763815Y-125943677D01*
X135675171Y-125729143D01*
X135485456Y-125539097D01*
X135237455Y-125436117D01*
X134968923Y-125435883D01*
X134720743Y-125538429D01*
X134530697Y-125728144D01*
X134427717Y-125976145D01*
X134427483Y-126244677D01*
X127699735Y-126244677D01*
X127060600Y-125605542D01*
X127060600Y-121413677D01*
X137684883Y-121413677D01*
X137787429Y-121661857D01*
X137977144Y-121851903D01*
X138225145Y-121954883D01*
X138493677Y-121955117D01*
X138741857Y-121852571D01*
X138931903Y-121662856D01*
X139034883Y-121414855D01*
X139035117Y-121146323D01*
X138932571Y-120898143D01*
X138742856Y-120708097D01*
X138494855Y-120605117D01*
X138226323Y-120604883D01*
X137978143Y-120707429D01*
X137788097Y-120897144D01*
X137685117Y-121145145D01*
X137684883Y-121413677D01*
X127060600Y-121413677D01*
X127060600Y-120188258D01*
X127559429Y-119689429D01*
X127770783Y-119373117D01*
X127845000Y-119000000D01*
X127770783Y-118626883D01*
X127559429Y-118310571D01*
X127544991Y-118300924D01*
X127545117Y-118156323D01*
X127442571Y-117908143D01*
X127252856Y-117718097D01*
X127004855Y-117615117D01*
X126736323Y-117614883D01*
X126488143Y-117717429D01*
X126298097Y-117907144D01*
X126195117Y-118155145D01*
X126194990Y-118300937D01*
X126180571Y-118310571D01*
X125396171Y-119094971D01*
X125184817Y-119411283D01*
X125142922Y-119621903D01*
X125110600Y-119784400D01*
X125110600Y-126009400D01*
X125184817Y-126382517D01*
X125396171Y-126698829D01*
X125563553Y-126866211D01*
X125483855Y-126833117D01*
X125215323Y-126832883D01*
X124967143Y-126935429D01*
X124952358Y-126950188D01*
X124952358Y-116440277D01*
X132827283Y-116440277D01*
X132929829Y-116688457D01*
X133119544Y-116878503D01*
X133367545Y-116981483D01*
X133636077Y-116981717D01*
X133884257Y-116879171D01*
X134074303Y-116689456D01*
X134177283Y-116441455D01*
X134177517Y-116172923D01*
X134074971Y-115924743D01*
X133885256Y-115734697D01*
X133637255Y-115631717D01*
X133368723Y-115631483D01*
X133120543Y-115734029D01*
X132930497Y-115923744D01*
X132827517Y-116171745D01*
X132827283Y-116440277D01*
X124952358Y-116440277D01*
X124952358Y-112697004D01*
X125017144Y-112761903D01*
X125265145Y-112864883D01*
X125533677Y-112865117D01*
X125781857Y-112762571D01*
X125971903Y-112572856D01*
X126074883Y-112324855D01*
X126075117Y-112056323D01*
X125972571Y-111808143D01*
X125782856Y-111618097D01*
X125534855Y-111515117D01*
X125266323Y-111514883D01*
X125018143Y-111617429D01*
X124952358Y-111683099D01*
X124952358Y-109944104D01*
X125132967Y-110064783D01*
X125506083Y-110139000D01*
X126461917Y-110139000D01*
X126835033Y-110064783D01*
X127151346Y-109853429D01*
X127362700Y-109537116D01*
X127436917Y-109164000D01*
X127362700Y-108790884D01*
X127151346Y-108474571D01*
X126835033Y-108263217D01*
X126461917Y-108189000D01*
X125506083Y-108189000D01*
X125132967Y-108263217D01*
X124952358Y-108383896D01*
X124952358Y-103401647D01*
X127483793Y-103401647D01*
X127666097Y-103842857D01*
X128003367Y-104180717D01*
X128444258Y-104363791D01*
X128921647Y-104364207D01*
X129362857Y-104181903D01*
X129700717Y-103844633D01*
X129883791Y-103403742D01*
X129884207Y-102926353D01*
X129701903Y-102485143D01*
X129364633Y-102147283D01*
X128923742Y-101964209D01*
X128446353Y-101963793D01*
X128005143Y-102146097D01*
X127667283Y-102483367D01*
X127484209Y-102924258D01*
X127483793Y-103401647D01*
X124952358Y-103401647D01*
X124952358Y-102944104D01*
X125132967Y-103064783D01*
X125506083Y-103139000D01*
X126461917Y-103139000D01*
X126835033Y-103064783D01*
X127151346Y-102853429D01*
X127362700Y-102537116D01*
X127436917Y-102164000D01*
X127362700Y-101790884D01*
X127151346Y-101474571D01*
X126835033Y-101263217D01*
X126461917Y-101189000D01*
X125506083Y-101189000D01*
X125132967Y-101263217D01*
X124952358Y-101383896D01*
X124952358Y-98274906D01*
X124975682Y-98309813D01*
X125409955Y-98599985D01*
X125922215Y-98701880D01*
X125974665Y-98701880D01*
X126486925Y-98599985D01*
X126921198Y-98309813D01*
X127211370Y-97875540D01*
X127218440Y-97839997D01*
X127225510Y-97875540D01*
X127515682Y-98309813D01*
X127949955Y-98599985D01*
X128462215Y-98701880D01*
X128514665Y-98701880D01*
X129026925Y-98599985D01*
X129461198Y-98309813D01*
X129751370Y-97875540D01*
X129758440Y-97839997D01*
X129765510Y-97875540D01*
X130055682Y-98309813D01*
X130489955Y-98599985D01*
X131002215Y-98701880D01*
X131054665Y-98701880D01*
X131566925Y-98599985D01*
X132001198Y-98309813D01*
X132291370Y-97875540D01*
X132298440Y-97839997D01*
X132305510Y-97875540D01*
X132595682Y-98309813D01*
X133029955Y-98599985D01*
X133542215Y-98701880D01*
X133594665Y-98701880D01*
X134106925Y-98599985D01*
X134541198Y-98309813D01*
X134831370Y-97875540D01*
X134838440Y-97839997D01*
X134845510Y-97875540D01*
X135135682Y-98309813D01*
X135569955Y-98599985D01*
X135721626Y-98630154D01*
X135876472Y-98785000D01*
X132350000Y-98785000D01*
X131976884Y-98859217D01*
X131744324Y-99014609D01*
X131660571Y-99070571D01*
X130876790Y-99854352D01*
X130843284Y-99861017D01*
X130526971Y-100072371D01*
X130315617Y-100388684D01*
X130241400Y-100761800D01*
X130241400Y-108059742D01*
X129874127Y-108427015D01*
X129883791Y-108403742D01*
X129884207Y-107926353D01*
X129701903Y-107485143D01*
X129364633Y-107147283D01*
X128923742Y-106964209D01*
X128446353Y-106963793D01*
X128005143Y-107146097D01*
X127667283Y-107483367D01*
X127484209Y-107924258D01*
X127483793Y-108401647D01*
X127666097Y-108842857D01*
X128003367Y-109180717D01*
X128444258Y-109363791D01*
X128921647Y-109364207D01*
X128947700Y-109353442D01*
X128720571Y-109580571D01*
X128509217Y-109896883D01*
X128474202Y-110072917D01*
X128435000Y-110270000D01*
X128435000Y-112515729D01*
X128354055Y-112482117D01*
X128085523Y-112481883D01*
X127837343Y-112584429D01*
X127647297Y-112774144D01*
X127544317Y-113022145D01*
X127544083Y-113290677D01*
X127646629Y-113538857D01*
X127836106Y-113728664D01*
X127647297Y-113917144D01*
X127544317Y-114165145D01*
X127544083Y-114433677D01*
X127646629Y-114681857D01*
X127836344Y-114871903D01*
X128084345Y-114974883D01*
X128352877Y-114975117D01*
X128601057Y-114872571D01*
X128752517Y-114721375D01*
X129610571Y-115579429D01*
X129926883Y-115790783D01*
X130300000Y-115865000D01*
X130316999Y-115861619D01*
X130397144Y-115941903D01*
X130645145Y-116044883D01*
X130913677Y-116045117D01*
X131161857Y-115942571D01*
X131351903Y-115752856D01*
X131454883Y-115504855D01*
X131455117Y-115236323D01*
X131352571Y-114988143D01*
X131271610Y-114907041D01*
X131275000Y-114890000D01*
X131200783Y-114516883D01*
X130989429Y-114200571D01*
X130717545Y-113928687D01*
X133564883Y-113928687D01*
X133667429Y-114176867D01*
X133857144Y-114366913D01*
X134105145Y-114469893D01*
X134373677Y-114470127D01*
X134621857Y-114367581D01*
X134811903Y-114177866D01*
X134914883Y-113929865D01*
X134915117Y-113661333D01*
X134812571Y-113413153D01*
X134622856Y-113223107D01*
X134374855Y-113120127D01*
X134106323Y-113119893D01*
X133858143Y-113222439D01*
X133668097Y-113412154D01*
X133565117Y-113660155D01*
X133564883Y-113928687D01*
X130717545Y-113928687D01*
X130385000Y-113596142D01*
X130385000Y-110673858D01*
X131905829Y-109153029D01*
X131944699Y-109094856D01*
X132117183Y-108836716D01*
X132191400Y-108463600D01*
X132191400Y-108184932D01*
X132403677Y-108185117D01*
X132651857Y-108082571D01*
X132841903Y-107892856D01*
X132944883Y-107644855D01*
X132945117Y-107376323D01*
X132849427Y-107144736D01*
X132944883Y-106914855D01*
X132945117Y-106646323D01*
X132842571Y-106398143D01*
X132652856Y-106208097D01*
X132404855Y-106105117D01*
X132191400Y-106104931D01*
X132191400Y-101297458D01*
X132753858Y-100735000D01*
X133914815Y-100735000D01*
X133869051Y-100801978D01*
X133830895Y-100990400D01*
X133830895Y-102717600D01*
X133864016Y-102893624D01*
X133968046Y-103055292D01*
X134126778Y-103163749D01*
X134315200Y-103201905D01*
X134570566Y-103201905D01*
X134203057Y-103447467D01*
X133912885Y-103881740D01*
X133810990Y-104394000D01*
X133912885Y-104906260D01*
X134203057Y-105340533D01*
X134637330Y-105630705D01*
X134804715Y-105664000D01*
X134637330Y-105697295D01*
X134203057Y-105987467D01*
X133912885Y-106421740D01*
X133810990Y-106934000D01*
X133912885Y-107446260D01*
X134203057Y-107880533D01*
X134637330Y-108170705D01*
X134804715Y-108204000D01*
X134637330Y-108237295D01*
X134203057Y-108527467D01*
X133912885Y-108961740D01*
X133810990Y-109474000D01*
X133912885Y-109986260D01*
X134203057Y-110420533D01*
X134637330Y-110710705D01*
X135149590Y-110812600D01*
X135512810Y-110812600D01*
X136025070Y-110710705D01*
X136459343Y-110420533D01*
X136595154Y-110217277D01*
X143190483Y-110217277D01*
X143293029Y-110465457D01*
X143482744Y-110655503D01*
X143730745Y-110758483D01*
X143999277Y-110758717D01*
X144247457Y-110656171D01*
X144437503Y-110466456D01*
X144540483Y-110218455D01*
X144540484Y-110217277D01*
X145781283Y-110217277D01*
X145883829Y-110465457D01*
X146073544Y-110655503D01*
X146321545Y-110758483D01*
X146590077Y-110758717D01*
X146838257Y-110656171D01*
X147028303Y-110466456D01*
X147131283Y-110218455D01*
X147131517Y-109949923D01*
X147028971Y-109701743D01*
X146839256Y-109511697D01*
X146591255Y-109408717D01*
X146322723Y-109408483D01*
X146074543Y-109511029D01*
X145884497Y-109700744D01*
X145781517Y-109948745D01*
X145781283Y-110217277D01*
X144540484Y-110217277D01*
X144540717Y-109949923D01*
X144438171Y-109701743D01*
X144248456Y-109511697D01*
X144000455Y-109408717D01*
X143731923Y-109408483D01*
X143483743Y-109511029D01*
X143293697Y-109700744D01*
X143190717Y-109948745D01*
X143190483Y-110217277D01*
X136595154Y-110217277D01*
X136749515Y-109986260D01*
X136851410Y-109474000D01*
X136749515Y-108961740D01*
X136459343Y-108527467D01*
X136289344Y-108413877D01*
X137907283Y-108413877D01*
X138009829Y-108662057D01*
X138199544Y-108852103D01*
X138447545Y-108955083D01*
X138716077Y-108955317D01*
X138964257Y-108852771D01*
X139154303Y-108663056D01*
X139257283Y-108415055D01*
X139257455Y-108218155D01*
X139319857Y-108192371D01*
X139333652Y-108178600D01*
X146315600Y-108178600D01*
X146370787Y-108456045D01*
X146527948Y-108691252D01*
X146763155Y-108848413D01*
X147040600Y-108903600D01*
X147596235Y-108903600D01*
X147484697Y-109014944D01*
X147381717Y-109262945D01*
X147381483Y-109531477D01*
X147484029Y-109779657D01*
X147673744Y-109969703D01*
X147921745Y-110072683D01*
X148190277Y-110072917D01*
X148438457Y-109970371D01*
X148628503Y-109780656D01*
X148731483Y-109532655D01*
X148731520Y-109489886D01*
X148921057Y-109411571D01*
X149111103Y-109221856D01*
X149214083Y-108973855D01*
X149214144Y-108903600D01*
X149331096Y-108903600D01*
X149652148Y-109224653D01*
X149887354Y-109381813D01*
X150164800Y-109437000D01*
X155675907Y-109437000D01*
X155803600Y-109462399D01*
X156081046Y-109407213D01*
X156316252Y-109250052D01*
X156473413Y-109014846D01*
X156528599Y-108737400D01*
X156473413Y-108459954D01*
X156316252Y-108224748D01*
X156290852Y-108199348D01*
X156055646Y-108042187D01*
X156009615Y-108033031D01*
X155778200Y-107987000D01*
X153958316Y-107987000D01*
X154004883Y-107874855D01*
X154005117Y-107606323D01*
X153902571Y-107358143D01*
X153712856Y-107168097D01*
X153464855Y-107065117D01*
X153196323Y-107064883D01*
X152948143Y-107167429D01*
X152758097Y-107357144D01*
X152655117Y-107605145D01*
X152654883Y-107873677D01*
X152701707Y-107987000D01*
X150465105Y-107987000D01*
X150144052Y-107665948D01*
X149908846Y-107508787D01*
X149862815Y-107499631D01*
X149631400Y-107453600D01*
X147040600Y-107453600D01*
X146763155Y-107508787D01*
X146527948Y-107665948D01*
X146370787Y-107901155D01*
X146315600Y-108178600D01*
X139333652Y-108178600D01*
X139509903Y-108002656D01*
X139612883Y-107754655D01*
X139613117Y-107486123D01*
X139510571Y-107237943D01*
X139320856Y-107047897D01*
X139072855Y-106944917D01*
X138804323Y-106944683D01*
X138556143Y-107047229D01*
X138366097Y-107236944D01*
X138263117Y-107484945D01*
X138262945Y-107681845D01*
X138200543Y-107707629D01*
X138010497Y-107897344D01*
X137907517Y-108145345D01*
X137907283Y-108413877D01*
X136289344Y-108413877D01*
X136025070Y-108237295D01*
X135857685Y-108204000D01*
X136025070Y-108170705D01*
X136459343Y-107880533D01*
X136749515Y-107446260D01*
X136851410Y-106934000D01*
X136749515Y-106421740D01*
X136459343Y-105987467D01*
X136025070Y-105697295D01*
X135857685Y-105664000D01*
X136025070Y-105630705D01*
X136459343Y-105340533D01*
X136459380Y-105340477D01*
X137627883Y-105340477D01*
X137730429Y-105588657D01*
X137920144Y-105778703D01*
X138168145Y-105881683D01*
X138436677Y-105881917D01*
X138684857Y-105779371D01*
X138874903Y-105589656D01*
X138946730Y-105416677D01*
X149057883Y-105416677D01*
X149160429Y-105664857D01*
X149350144Y-105854903D01*
X149598145Y-105957883D01*
X149866677Y-105958117D01*
X150114857Y-105855571D01*
X150304903Y-105665856D01*
X150407883Y-105417855D01*
X150408117Y-105149323D01*
X150305571Y-104901143D01*
X150115856Y-104711097D01*
X149867855Y-104608117D01*
X149599323Y-104607883D01*
X149351143Y-104710429D01*
X149161097Y-104900144D01*
X149058117Y-105148145D01*
X149057883Y-105416677D01*
X138946730Y-105416677D01*
X138977883Y-105341655D01*
X138978117Y-105073123D01*
X138875571Y-104824943D01*
X138685856Y-104634897D01*
X138437855Y-104531917D01*
X138169323Y-104531683D01*
X137921143Y-104634229D01*
X137731097Y-104823944D01*
X137628117Y-105071945D01*
X137627883Y-105340477D01*
X136459380Y-105340477D01*
X136749515Y-104906260D01*
X136851410Y-104394000D01*
X136749515Y-103881740D01*
X136671965Y-103765677D01*
X139278883Y-103765677D01*
X139381429Y-104013857D01*
X139571144Y-104203903D01*
X139819145Y-104306883D01*
X140087677Y-104307117D01*
X140335857Y-104204571D01*
X140525903Y-104014856D01*
X140628883Y-103766855D01*
X140629117Y-103498323D01*
X140526571Y-103250143D01*
X140336856Y-103060097D01*
X140152818Y-102983677D01*
X150824883Y-102983677D01*
X150927429Y-103231857D01*
X151117144Y-103421903D01*
X151365145Y-103524883D01*
X151633677Y-103525117D01*
X151881857Y-103422571D01*
X152071903Y-103232856D01*
X152174883Y-102984855D01*
X152175117Y-102716323D01*
X152072571Y-102468143D01*
X151882856Y-102278097D01*
X151634855Y-102175117D01*
X151366323Y-102174883D01*
X151118143Y-102277429D01*
X150928097Y-102467144D01*
X150825117Y-102715145D01*
X150824883Y-102983677D01*
X140152818Y-102983677D01*
X140088855Y-102957117D01*
X139820323Y-102956883D01*
X139572143Y-103059429D01*
X139382097Y-103249144D01*
X139279117Y-103497145D01*
X139278883Y-103765677D01*
X136671965Y-103765677D01*
X136459343Y-103447467D01*
X136091834Y-103201905D01*
X136347200Y-103201905D01*
X136523224Y-103168784D01*
X136684892Y-103064754D01*
X136793349Y-102906022D01*
X136831505Y-102717600D01*
X136831505Y-100990400D01*
X136798384Y-100814376D01*
X136747307Y-100735000D01*
X139425876Y-100735000D01*
X139394343Y-100748029D01*
X139204297Y-100937744D01*
X139101317Y-101185745D01*
X139101083Y-101454277D01*
X139203629Y-101702457D01*
X139393344Y-101892503D01*
X139641345Y-101995483D01*
X139909877Y-101995717D01*
X140158057Y-101893171D01*
X140348103Y-101703456D01*
X140451083Y-101455455D01*
X140451317Y-101186923D01*
X140348771Y-100938743D01*
X140159056Y-100748697D01*
X140126070Y-100735000D01*
X140910384Y-100735000D01*
X140828097Y-100817144D01*
X140725117Y-101065145D01*
X140724883Y-101333677D01*
X140827429Y-101581857D01*
X141017144Y-101771903D01*
X141265145Y-101874883D01*
X141533677Y-101875117D01*
X141781857Y-101772571D01*
X141971903Y-101582856D01*
X142074883Y-101334855D01*
X142075117Y-101066848D01*
X142147429Y-101241857D01*
X142337144Y-101431903D01*
X142466554Y-101485639D01*
X142379297Y-101572744D01*
X142276317Y-101820745D01*
X142276083Y-102089277D01*
X142378629Y-102337457D01*
X142568344Y-102527503D01*
X142816345Y-102630483D01*
X143084877Y-102630717D01*
X143333057Y-102528171D01*
X143523103Y-102338456D01*
X143626083Y-102090455D01*
X143626317Y-101821923D01*
X143523771Y-101573743D01*
X143334056Y-101383697D01*
X143204646Y-101329961D01*
X143291903Y-101242856D01*
X143394883Y-100994855D01*
X143395109Y-100735000D01*
X144817550Y-100735000D01*
X144639897Y-100912344D01*
X144536917Y-101160345D01*
X144536683Y-101428877D01*
X144639229Y-101677057D01*
X144828944Y-101867103D01*
X145076945Y-101970083D01*
X145345477Y-101970317D01*
X145593657Y-101867771D01*
X145783703Y-101678056D01*
X145886683Y-101430055D01*
X145886917Y-101161523D01*
X145784371Y-100913343D01*
X145606339Y-100735000D01*
X150801361Y-100735000D01*
X150709117Y-100957145D01*
X150708883Y-101225677D01*
X150811429Y-101473857D01*
X151001144Y-101663903D01*
X151249145Y-101766883D01*
X151517677Y-101767117D01*
X151765857Y-101664571D01*
X151955903Y-101474856D01*
X152058883Y-101226855D01*
X152059117Y-100958323D01*
X151966842Y-100735000D01*
X153529662Y-100735000D01*
X153402897Y-100861544D01*
X153299917Y-101109545D01*
X153299683Y-101378077D01*
X153402229Y-101626257D01*
X153591944Y-101816303D01*
X153839945Y-101919283D01*
X154108477Y-101919517D01*
X154356657Y-101816971D01*
X154546703Y-101627256D01*
X154649683Y-101379255D01*
X154649917Y-101110723D01*
X154547371Y-100862543D01*
X154420050Y-100735000D01*
X157340000Y-100735000D01*
X157713117Y-100660783D01*
X158029429Y-100449429D01*
X159029429Y-99449429D01*
X159240783Y-99133117D01*
X159315000Y-98760000D01*
X159315000Y-97756274D01*
X159736433Y-98178443D01*
M02*
