G04 #@! TF.FileFunction,Legend,Bot*
%FSLAX46Y46*%
G04 Gerber Fmt 4.6, Leading zero omitted, Abs format (unit mm)*
G04 Created by KiCad (PCBNEW 4.0.7) date 09/09/17 19:38:47*
%MOMM*%
%LPD*%
G01*
G04 APERTURE LIST*
%ADD10C,0.100000*%
%ADD11C,0.150000*%
G04 APERTURE END LIST*
D10*
X137927358Y-135315553D02*
X137927358Y-135715553D01*
X126777358Y-135715553D02*
X126777358Y-135315553D01*
X127777358Y-136715553D02*
X126777358Y-135715553D01*
X136927358Y-136715553D02*
X127777358Y-136715553D01*
X137927358Y-135715553D02*
X136927358Y-136715553D01*
X161427358Y-135315553D02*
X161427358Y-135715553D01*
X139927358Y-135715553D02*
X139927358Y-135315553D01*
X140927358Y-136715553D02*
X139927358Y-135715553D01*
X160427358Y-136715553D02*
X140927358Y-136715553D01*
X161427358Y-135715553D02*
X160427358Y-136715553D01*
X124427358Y-91915553D02*
X174427358Y-91915553D01*
X174427358Y-128315553D02*
X174427358Y-91915553D01*
X174427358Y-128315553D02*
X162427358Y-128315553D01*
X124427358Y-128315553D02*
X124427358Y-91915553D01*
X125777358Y-128315553D02*
X124427358Y-128315553D01*
X125777358Y-128315553D02*
G75*
G02X126777358Y-129315553I0J-1000000D01*
G01*
X126777358Y-135315553D02*
X126777358Y-129315553D01*
X137927358Y-129315553D02*
X137927358Y-135315553D01*
X137927358Y-129315553D02*
G75*
G02X139927358Y-129315553I1000000J0D01*
G01*
X139927358Y-135315553D02*
X139927358Y-129315553D01*
X161427358Y-129315553D02*
X161427358Y-135315553D01*
X161427358Y-129315553D02*
G75*
G02X162427358Y-128315553I1000000J0D01*
G01*
D11*
X161031200Y-110986800D02*
X160431200Y-110986800D01*
X159131200Y-110986800D02*
X159131200Y-109586800D01*
X159131200Y-109586800D02*
X160131200Y-109586800D01*
X161431200Y-109586800D02*
X162331200Y-109586800D01*
X162331200Y-109586800D02*
X162331200Y-110986800D01*
X165817500Y-110588500D02*
X165817500Y-111788500D01*
X165017500Y-110588500D02*
X165017500Y-111788500D01*
X165017500Y-111788500D02*
X165717500Y-111188500D01*
X165717500Y-111188500D02*
X165017500Y-110588500D01*
X163417500Y-110388500D02*
X167417500Y-110388500D01*
X167417500Y-110388500D02*
X167417500Y-111988500D01*
X167417500Y-111988500D02*
X163417500Y-111988500D01*
X163417500Y-111988500D02*
X163417500Y-110388500D01*
X161159000Y-100805000D02*
X160659000Y-100805000D01*
X160659000Y-99855000D02*
X161159000Y-99855000D01*
X136631200Y-100304000D02*
X136631200Y-101854000D01*
X135331200Y-100304000D02*
X136631200Y-100304000D01*
X131140200Y-101727000D02*
X125298200Y-101727000D01*
X125298200Y-101727000D02*
X125298200Y-101981000D01*
X125298200Y-101981000D02*
X131140200Y-101981000D01*
X131140200Y-101981000D02*
X131140200Y-101854000D01*
X131140200Y-101854000D02*
X125298200Y-101854000D01*
X133807200Y-101600000D02*
X134188200Y-101600000D01*
X133807200Y-102108000D02*
X134188200Y-102108000D01*
X133807200Y-104140000D02*
X134188200Y-104140000D01*
X133807200Y-104648000D02*
X134188200Y-104648000D01*
X133807200Y-106680000D02*
X134188200Y-106680000D01*
X133807200Y-107188000D02*
X134188200Y-107188000D01*
X133807200Y-109728000D02*
X134188200Y-109728000D01*
X133807200Y-109220000D02*
X134188200Y-109220000D01*
X133807200Y-100584000D02*
X131267200Y-100584000D01*
X133807200Y-103124000D02*
X131267200Y-103124000D01*
X133807200Y-103124000D02*
X133807200Y-105664000D01*
X133807200Y-105664000D02*
X131267200Y-105664000D01*
X131267200Y-104140000D02*
X125171200Y-104140000D01*
X125171200Y-104140000D02*
X125171200Y-104648000D01*
X125171200Y-104648000D02*
X131267200Y-104648000D01*
X131267200Y-105664000D02*
X131267200Y-103124000D01*
X131267200Y-103124000D02*
X131267200Y-100584000D01*
X125171200Y-102108000D02*
X131267200Y-102108000D01*
X125171200Y-101600000D02*
X125171200Y-102108000D01*
X131267200Y-101600000D02*
X125171200Y-101600000D01*
X133807200Y-103124000D02*
X131267200Y-103124000D01*
X133807200Y-100584000D02*
X133807200Y-103124000D01*
X133807200Y-108204000D02*
X131267200Y-108204000D01*
X133807200Y-108204000D02*
X133807200Y-110744000D01*
X133807200Y-110744000D02*
X131267200Y-110744000D01*
X131267200Y-109220000D02*
X125171200Y-109220000D01*
X125171200Y-109220000D02*
X125171200Y-109728000D01*
X125171200Y-109728000D02*
X131267200Y-109728000D01*
X131267200Y-110744000D02*
X131267200Y-108204000D01*
X131267200Y-108204000D02*
X131267200Y-105664000D01*
X125171200Y-107188000D02*
X131267200Y-107188000D01*
X125171200Y-106680000D02*
X125171200Y-107188000D01*
X131267200Y-106680000D02*
X125171200Y-106680000D01*
X133807200Y-108204000D02*
X131267200Y-108204000D01*
X133807200Y-105664000D02*
X133807200Y-108204000D01*
X133807200Y-105664000D02*
X131267200Y-105664000D01*
X156227000Y-101477000D02*
X156227000Y-101977000D01*
X155177000Y-101977000D02*
X155177000Y-101477000D01*
X166718000Y-114685000D02*
X166718000Y-115185000D01*
X165768000Y-115185000D02*
X165768000Y-114685000D01*
X166506600Y-102621600D02*
X166506600Y-103321600D01*
X167706600Y-103321600D02*
X167706600Y-102621600D01*
X169959000Y-119122000D02*
X169959000Y-118622000D01*
X170909000Y-118622000D02*
X170909000Y-119122000D01*
X165575000Y-114685000D02*
X165575000Y-115185000D01*
X164625000Y-115185000D02*
X164625000Y-114685000D01*
X165840600Y-112123200D02*
X166340600Y-112123200D01*
X166340600Y-113073200D02*
X165840600Y-113073200D01*
X170135500Y-108429500D02*
X170135500Y-109629500D01*
X169335500Y-108429500D02*
X169335500Y-109629500D01*
X169335500Y-109629500D02*
X170035500Y-109029500D01*
X170035500Y-109029500D02*
X169335500Y-108429500D01*
X167735500Y-108229500D02*
X171735500Y-108229500D01*
X171735500Y-108229500D02*
X171735500Y-109829500D01*
X171735500Y-109829500D02*
X167735500Y-109829500D01*
X167735500Y-109829500D02*
X167735500Y-108229500D01*
X165643000Y-101459000D02*
X166843000Y-101459000D01*
X166843000Y-99709000D02*
X165643000Y-99709000D01*
X133723000Y-111085000D02*
X132723000Y-111085000D01*
X132723000Y-112435000D02*
X133723000Y-112435000D01*
X165159200Y-107031600D02*
X165159200Y-106531600D01*
X166209200Y-106531600D02*
X166209200Y-107031600D01*
X167301400Y-109122400D02*
X167301400Y-109622400D01*
X166251400Y-109622400D02*
X166251400Y-109122400D01*
X163466000Y-112576800D02*
X163466000Y-113076800D01*
X162416000Y-113076800D02*
X162416000Y-112576800D01*
X131314000Y-100347000D02*
X130814000Y-100347000D01*
X130814000Y-99297000D02*
X131314000Y-99297000D01*
X169879200Y-111463600D02*
X170379200Y-111463600D01*
X170379200Y-112513600D02*
X169879200Y-112513600D01*
X166838000Y-117737000D02*
X166838000Y-118737000D01*
X168188000Y-118737000D02*
X168188000Y-117737000D01*
X169712000Y-118737000D02*
X169712000Y-117737000D01*
X168362000Y-117737000D02*
X168362000Y-118737000D01*
X165829000Y-103382000D02*
X165829000Y-103882000D01*
X164879000Y-103882000D02*
X164879000Y-103382000D01*
X157751000Y-105160000D02*
X157751000Y-105660000D01*
X156701000Y-105660000D02*
X156701000Y-105160000D01*
X158352000Y-108454000D02*
X158352000Y-107954000D01*
X159402000Y-107954000D02*
X159402000Y-108454000D01*
X159915000Y-102662000D02*
G75*
G03X159915000Y-102662000I-100000J0D01*
G01*
X159565000Y-102112000D02*
X159565000Y-102612000D01*
X156665000Y-102112000D02*
X159565000Y-102112000D01*
X156665000Y-102612000D02*
X156665000Y-102112000D01*
X159565000Y-102612000D02*
X156665000Y-102612000D01*
X167056000Y-114381000D02*
G75*
G03X167056000Y-114381000I-100000J0D01*
G01*
X167206000Y-114931000D02*
X167206000Y-114431000D01*
X170106000Y-114931000D02*
X167206000Y-114931000D01*
X170106000Y-114431000D02*
X170106000Y-114931000D01*
X167206000Y-114431000D02*
X170106000Y-114431000D01*
X161889606Y-113441741D02*
X161889606Y-112441741D01*
X161651511Y-112441741D01*
X161508653Y-112489360D01*
X161413415Y-112584598D01*
X161365796Y-112679836D01*
X161318177Y-112870312D01*
X161318177Y-113013170D01*
X161365796Y-113203646D01*
X161413415Y-113298884D01*
X161508653Y-113394122D01*
X161651511Y-113441741D01*
X161889606Y-113441741D01*
X160365796Y-113441741D02*
X160937225Y-113441741D01*
X160651511Y-113441741D02*
X160651511Y-112441741D01*
X160746749Y-112584598D01*
X160841987Y-112679836D01*
X160937225Y-112727455D01*
X159746749Y-112441741D02*
X159651510Y-112441741D01*
X159556272Y-112489360D01*
X159508653Y-112536979D01*
X159461034Y-112632217D01*
X159413415Y-112822693D01*
X159413415Y-113060789D01*
X159461034Y-113251265D01*
X159508653Y-113346503D01*
X159556272Y-113394122D01*
X159651510Y-113441741D01*
X159746749Y-113441741D01*
X159841987Y-113394122D01*
X159889606Y-113346503D01*
X159937225Y-113251265D01*
X159984844Y-113060789D01*
X159984844Y-112822693D01*
X159937225Y-112632217D01*
X159889606Y-112536979D01*
X159841987Y-112489360D01*
X159746749Y-112441741D01*
X165371946Y-110203241D02*
X165371946Y-109203241D01*
X165133851Y-109203241D01*
X164990993Y-109250860D01*
X164895755Y-109346098D01*
X164848136Y-109441336D01*
X164800517Y-109631812D01*
X164800517Y-109774670D01*
X164848136Y-109965146D01*
X164895755Y-110060384D01*
X164990993Y-110155622D01*
X165133851Y-110203241D01*
X165371946Y-110203241D01*
X163848136Y-110203241D02*
X164419565Y-110203241D01*
X164133851Y-110203241D02*
X164133851Y-109203241D01*
X164229089Y-109346098D01*
X164324327Y-109441336D01*
X164419565Y-109488955D01*
X162895755Y-110203241D02*
X163467184Y-110203241D01*
X163181470Y-110203241D02*
X163181470Y-109203241D01*
X163276708Y-109346098D01*
X163371946Y-109441336D01*
X163467184Y-109488955D01*
X163076666Y-100737143D02*
X163124285Y-100784762D01*
X163267142Y-100832381D01*
X163362380Y-100832381D01*
X163505238Y-100784762D01*
X163600476Y-100689524D01*
X163648095Y-100594286D01*
X163695714Y-100403810D01*
X163695714Y-100260952D01*
X163648095Y-100070476D01*
X163600476Y-99975238D01*
X163505238Y-99880000D01*
X163362380Y-99832381D01*
X163267142Y-99832381D01*
X163124285Y-99880000D01*
X163076666Y-99927619D01*
X162743333Y-99832381D02*
X162124285Y-99832381D01*
X162457619Y-100213333D01*
X162314761Y-100213333D01*
X162219523Y-100260952D01*
X162171904Y-100308571D01*
X162124285Y-100403810D01*
X162124285Y-100641905D01*
X162171904Y-100737143D01*
X162219523Y-100784762D01*
X162314761Y-100832381D01*
X162600476Y-100832381D01*
X162695714Y-100784762D01*
X162743333Y-100737143D01*
X135623893Y-99081341D02*
X135623893Y-99795627D01*
X135671513Y-99938484D01*
X135766751Y-100033722D01*
X135909608Y-100081341D01*
X136004846Y-100081341D01*
X135242941Y-99081341D02*
X134623893Y-99081341D01*
X134957227Y-99462293D01*
X134814369Y-99462293D01*
X134719131Y-99509912D01*
X134671512Y-99557531D01*
X134623893Y-99652770D01*
X134623893Y-99890865D01*
X134671512Y-99986103D01*
X134719131Y-100033722D01*
X134814369Y-100081341D01*
X135100084Y-100081341D01*
X135195322Y-100033722D01*
X135242941Y-99986103D01*
X154992381Y-100947143D02*
X154516190Y-100613809D01*
X154992381Y-100375714D02*
X153992381Y-100375714D01*
X153992381Y-100756667D01*
X154040000Y-100851905D01*
X154087619Y-100899524D01*
X154182857Y-100947143D01*
X154325714Y-100947143D01*
X154420952Y-100899524D01*
X154468571Y-100851905D01*
X154516190Y-100756667D01*
X154516190Y-100375714D01*
X154992381Y-101899524D02*
X154992381Y-101328095D01*
X154992381Y-101613809D02*
X153992381Y-101613809D01*
X154135238Y-101518571D01*
X154230476Y-101423333D01*
X154278095Y-101328095D01*
X154325714Y-102756667D02*
X154992381Y-102756667D01*
X153944762Y-102518571D02*
X154659048Y-102280476D01*
X154659048Y-102899524D01*
X166687143Y-114347143D02*
X166734762Y-114299524D01*
X166782381Y-114156667D01*
X166782381Y-114061429D01*
X166734762Y-113918571D01*
X166639524Y-113823333D01*
X166544286Y-113775714D01*
X166353810Y-113728095D01*
X166210952Y-113728095D01*
X166020476Y-113775714D01*
X165925238Y-113823333D01*
X165830000Y-113918571D01*
X165782381Y-114061429D01*
X165782381Y-114156667D01*
X165830000Y-114299524D01*
X165877619Y-114347143D01*
X166782381Y-115299524D02*
X166782381Y-114728095D01*
X166782381Y-115013809D02*
X165782381Y-115013809D01*
X165925238Y-114918571D01*
X166020476Y-114823333D01*
X166068095Y-114728095D01*
X166210952Y-115870952D02*
X166163333Y-115775714D01*
X166115714Y-115728095D01*
X166020476Y-115680476D01*
X165972857Y-115680476D01*
X165877619Y-115728095D01*
X165830000Y-115775714D01*
X165782381Y-115870952D01*
X165782381Y-116061429D01*
X165830000Y-116156667D01*
X165877619Y-116204286D01*
X165972857Y-116251905D01*
X166020476Y-116251905D01*
X166115714Y-116204286D01*
X166163333Y-116156667D01*
X166210952Y-116061429D01*
X166210952Y-115870952D01*
X166258571Y-115775714D01*
X166306190Y-115728095D01*
X166401429Y-115680476D01*
X166591905Y-115680476D01*
X166687143Y-115728095D01*
X166734762Y-115775714D01*
X166782381Y-115870952D01*
X166782381Y-116061429D01*
X166734762Y-116156667D01*
X166687143Y-116204286D01*
X166591905Y-116251905D01*
X166401429Y-116251905D01*
X166306190Y-116204286D01*
X166258571Y-116156667D01*
X166210952Y-116061429D01*
X164527503Y-103036074D02*
X164575122Y-102988455D01*
X164622741Y-102845598D01*
X164622741Y-102750360D01*
X164575122Y-102607502D01*
X164479884Y-102512264D01*
X164384646Y-102464645D01*
X164194170Y-102417026D01*
X164051312Y-102417026D01*
X163860836Y-102464645D01*
X163765598Y-102512264D01*
X163670360Y-102607502D01*
X163622741Y-102750360D01*
X163622741Y-102845598D01*
X163670360Y-102988455D01*
X163717979Y-103036074D01*
X164622741Y-103988455D02*
X164622741Y-103417026D01*
X164622741Y-103702740D02*
X163622741Y-103702740D01*
X163765598Y-103607502D01*
X163860836Y-103512264D01*
X163908455Y-103417026D01*
X170827143Y-120647143D02*
X170874762Y-120599524D01*
X170922381Y-120456667D01*
X170922381Y-120361429D01*
X170874762Y-120218571D01*
X170779524Y-120123333D01*
X170684286Y-120075714D01*
X170493810Y-120028095D01*
X170350952Y-120028095D01*
X170160476Y-120075714D01*
X170065238Y-120123333D01*
X169970000Y-120218571D01*
X169922381Y-120361429D01*
X169922381Y-120456667D01*
X169970000Y-120599524D01*
X170017619Y-120647143D01*
X170922381Y-121599524D02*
X170922381Y-121028095D01*
X170922381Y-121313809D02*
X169922381Y-121313809D01*
X170065238Y-121218571D01*
X170160476Y-121123333D01*
X170208095Y-121028095D01*
X170922381Y-122075714D02*
X170922381Y-122266190D01*
X170874762Y-122361429D01*
X170827143Y-122409048D01*
X170684286Y-122504286D01*
X170493810Y-122551905D01*
X170112857Y-122551905D01*
X170017619Y-122504286D01*
X169970000Y-122456667D01*
X169922381Y-122361429D01*
X169922381Y-122170952D01*
X169970000Y-122075714D01*
X170017619Y-122028095D01*
X170112857Y-121980476D01*
X170350952Y-121980476D01*
X170446190Y-122028095D01*
X170493810Y-122075714D01*
X170541429Y-122170952D01*
X170541429Y-122361429D01*
X170493810Y-122456667D01*
X170446190Y-122504286D01*
X170350952Y-122551905D01*
X165437143Y-114447143D02*
X165484762Y-114399524D01*
X165532381Y-114256667D01*
X165532381Y-114161429D01*
X165484762Y-114018571D01*
X165389524Y-113923333D01*
X165294286Y-113875714D01*
X165103810Y-113828095D01*
X164960952Y-113828095D01*
X164770476Y-113875714D01*
X164675238Y-113923333D01*
X164580000Y-114018571D01*
X164532381Y-114161429D01*
X164532381Y-114256667D01*
X164580000Y-114399524D01*
X164627619Y-114447143D01*
X165532381Y-115399524D02*
X165532381Y-114828095D01*
X165532381Y-115113809D02*
X164532381Y-115113809D01*
X164675238Y-115018571D01*
X164770476Y-114923333D01*
X164818095Y-114828095D01*
X164532381Y-116256667D02*
X164532381Y-116066190D01*
X164580000Y-115970952D01*
X164627619Y-115923333D01*
X164770476Y-115828095D01*
X164960952Y-115780476D01*
X165341905Y-115780476D01*
X165437143Y-115828095D01*
X165484762Y-115875714D01*
X165532381Y-115970952D01*
X165532381Y-116161429D01*
X165484762Y-116256667D01*
X165437143Y-116304286D01*
X165341905Y-116351905D01*
X165103810Y-116351905D01*
X165008571Y-116304286D01*
X164960952Y-116256667D01*
X164913333Y-116161429D01*
X164913333Y-115970952D01*
X164960952Y-115875714D01*
X165008571Y-115828095D01*
X165103810Y-115780476D01*
X166422857Y-113097143D02*
X166470476Y-113144762D01*
X166613333Y-113192381D01*
X166708571Y-113192381D01*
X166851429Y-113144762D01*
X166946667Y-113049524D01*
X166994286Y-112954286D01*
X167041905Y-112763810D01*
X167041905Y-112620952D01*
X166994286Y-112430476D01*
X166946667Y-112335238D01*
X166851429Y-112240000D01*
X166708571Y-112192381D01*
X166613333Y-112192381D01*
X166470476Y-112240000D01*
X166422857Y-112287619D01*
X165470476Y-113192381D02*
X166041905Y-113192381D01*
X165756191Y-113192381D02*
X165756191Y-112192381D01*
X165851429Y-112335238D01*
X165946667Y-112430476D01*
X166041905Y-112478095D01*
X165137143Y-112192381D02*
X164470476Y-112192381D01*
X164899048Y-113192381D01*
X171594286Y-111033821D02*
X171594286Y-110033821D01*
X171356191Y-110033821D01*
X171213333Y-110081440D01*
X171118095Y-110176678D01*
X171070476Y-110271916D01*
X171022857Y-110462392D01*
X171022857Y-110605250D01*
X171070476Y-110795726D01*
X171118095Y-110890964D01*
X171213333Y-110986202D01*
X171356191Y-111033821D01*
X171594286Y-111033821D01*
X170070476Y-111033821D02*
X170641905Y-111033821D01*
X170356191Y-111033821D02*
X170356191Y-110033821D01*
X170451429Y-110176678D01*
X170546667Y-110271916D01*
X170641905Y-110319535D01*
X169689524Y-110129059D02*
X169641905Y-110081440D01*
X169546667Y-110033821D01*
X169308571Y-110033821D01*
X169213333Y-110081440D01*
X169165714Y-110129059D01*
X169118095Y-110224297D01*
X169118095Y-110319535D01*
X169165714Y-110462392D01*
X169737143Y-111033821D01*
X169118095Y-111033821D01*
X167997166Y-99603821D02*
X168473357Y-99603821D01*
X168473357Y-98603821D01*
X167711452Y-98699059D02*
X167663833Y-98651440D01*
X167568595Y-98603821D01*
X167330499Y-98603821D01*
X167235261Y-98651440D01*
X167187642Y-98699059D01*
X167140023Y-98794297D01*
X167140023Y-98889535D01*
X167187642Y-99032392D01*
X167759071Y-99603821D01*
X167140023Y-99603821D01*
X133384586Y-113644941D02*
X133860777Y-113644941D01*
X133860777Y-112644941D01*
X133146491Y-112644941D02*
X132527443Y-112644941D01*
X132860777Y-113025893D01*
X132717919Y-113025893D01*
X132622681Y-113073512D01*
X132575062Y-113121131D01*
X132527443Y-113216370D01*
X132527443Y-113454465D01*
X132575062Y-113549703D01*
X132622681Y-113597322D01*
X132717919Y-113644941D01*
X133003634Y-113644941D01*
X133098872Y-113597322D01*
X133146491Y-113549703D01*
X164942381Y-106367143D02*
X164466190Y-106033809D01*
X164942381Y-105795714D02*
X163942381Y-105795714D01*
X163942381Y-106176667D01*
X163990000Y-106271905D01*
X164037619Y-106319524D01*
X164132857Y-106367143D01*
X164275714Y-106367143D01*
X164370952Y-106319524D01*
X164418571Y-106271905D01*
X164466190Y-106176667D01*
X164466190Y-105795714D01*
X164037619Y-106748095D02*
X163990000Y-106795714D01*
X163942381Y-106890952D01*
X163942381Y-107129048D01*
X163990000Y-107224286D01*
X164037619Y-107271905D01*
X164132857Y-107319524D01*
X164228095Y-107319524D01*
X164370952Y-107271905D01*
X164942381Y-106700476D01*
X164942381Y-107319524D01*
X163942381Y-108176667D02*
X163942381Y-107986190D01*
X163990000Y-107890952D01*
X164037619Y-107843333D01*
X164180476Y-107748095D01*
X164370952Y-107700476D01*
X164751905Y-107700476D01*
X164847143Y-107748095D01*
X164894762Y-107795714D01*
X164942381Y-107890952D01*
X164942381Y-108081429D01*
X164894762Y-108176667D01*
X164847143Y-108224286D01*
X164751905Y-108271905D01*
X164513810Y-108271905D01*
X164418571Y-108224286D01*
X164370952Y-108176667D01*
X164323333Y-108081429D01*
X164323333Y-107890952D01*
X164370952Y-107795714D01*
X164418571Y-107748095D01*
X164513810Y-107700476D01*
X167352381Y-108247143D02*
X166876190Y-107913809D01*
X167352381Y-107675714D02*
X166352381Y-107675714D01*
X166352381Y-108056667D01*
X166400000Y-108151905D01*
X166447619Y-108199524D01*
X166542857Y-108247143D01*
X166685714Y-108247143D01*
X166780952Y-108199524D01*
X166828571Y-108151905D01*
X166876190Y-108056667D01*
X166876190Y-107675714D01*
X166447619Y-108628095D02*
X166400000Y-108675714D01*
X166352381Y-108770952D01*
X166352381Y-109009048D01*
X166400000Y-109104286D01*
X166447619Y-109151905D01*
X166542857Y-109199524D01*
X166638095Y-109199524D01*
X166780952Y-109151905D01*
X167352381Y-108580476D01*
X167352381Y-109199524D01*
X166352381Y-109532857D02*
X166352381Y-110199524D01*
X167352381Y-109770952D01*
X163382381Y-114447143D02*
X162906190Y-114113809D01*
X163382381Y-113875714D02*
X162382381Y-113875714D01*
X162382381Y-114256667D01*
X162430000Y-114351905D01*
X162477619Y-114399524D01*
X162572857Y-114447143D01*
X162715714Y-114447143D01*
X162810952Y-114399524D01*
X162858571Y-114351905D01*
X162906190Y-114256667D01*
X162906190Y-113875714D01*
X162382381Y-114780476D02*
X162382381Y-115399524D01*
X162763333Y-115066190D01*
X162763333Y-115209048D01*
X162810952Y-115304286D01*
X162858571Y-115351905D01*
X162953810Y-115399524D01*
X163191905Y-115399524D01*
X163287143Y-115351905D01*
X163334762Y-115304286D01*
X163382381Y-115209048D01*
X163382381Y-114923333D01*
X163334762Y-114828095D01*
X163287143Y-114780476D01*
X162810952Y-115970952D02*
X162763333Y-115875714D01*
X162715714Y-115828095D01*
X162620476Y-115780476D01*
X162572857Y-115780476D01*
X162477619Y-115828095D01*
X162430000Y-115875714D01*
X162382381Y-115970952D01*
X162382381Y-116161429D01*
X162430000Y-116256667D01*
X162477619Y-116304286D01*
X162572857Y-116351905D01*
X162620476Y-116351905D01*
X162715714Y-116304286D01*
X162763333Y-116256667D01*
X162810952Y-116161429D01*
X162810952Y-115970952D01*
X162858571Y-115875714D01*
X162906190Y-115828095D01*
X163001429Y-115780476D01*
X163191905Y-115780476D01*
X163287143Y-115828095D01*
X163334762Y-115875714D01*
X163382381Y-115970952D01*
X163382381Y-116161429D01*
X163334762Y-116256667D01*
X163287143Y-116304286D01*
X163191905Y-116351905D01*
X163001429Y-116351905D01*
X162906190Y-116304286D01*
X162858571Y-116256667D01*
X162810952Y-116161429D01*
X129431017Y-100304861D02*
X129764351Y-99828670D01*
X130002446Y-100304861D02*
X130002446Y-99304861D01*
X129621493Y-99304861D01*
X129526255Y-99352480D01*
X129478636Y-99400099D01*
X129431017Y-99495337D01*
X129431017Y-99638194D01*
X129478636Y-99733432D01*
X129526255Y-99781051D01*
X129621493Y-99828670D01*
X130002446Y-99828670D01*
X128478636Y-100304861D02*
X129050065Y-100304861D01*
X128764351Y-100304861D02*
X128764351Y-99304861D01*
X128859589Y-99447718D01*
X128954827Y-99542956D01*
X129050065Y-99590575D01*
X127526255Y-100304861D02*
X128097684Y-100304861D01*
X127811970Y-100304861D02*
X127811970Y-99304861D01*
X127907208Y-99447718D01*
X128002446Y-99542956D01*
X128097684Y-99590575D01*
X173098697Y-112501941D02*
X173432031Y-112025750D01*
X173670126Y-112501941D02*
X173670126Y-111501941D01*
X173289173Y-111501941D01*
X173193935Y-111549560D01*
X173146316Y-111597179D01*
X173098697Y-111692417D01*
X173098697Y-111835274D01*
X173146316Y-111930512D01*
X173193935Y-111978131D01*
X173289173Y-112025750D01*
X173670126Y-112025750D01*
X172241554Y-111835274D02*
X172241554Y-112501941D01*
X172479650Y-111454322D02*
X172717745Y-112168608D01*
X172098697Y-112168608D01*
X171765364Y-111597179D02*
X171717745Y-111549560D01*
X171622507Y-111501941D01*
X171384411Y-111501941D01*
X171289173Y-111549560D01*
X171241554Y-111597179D01*
X171193935Y-111692417D01*
X171193935Y-111787655D01*
X171241554Y-111930512D01*
X171812983Y-112501941D01*
X171193935Y-112501941D01*
X168052381Y-120137143D02*
X167576190Y-119803809D01*
X168052381Y-119565714D02*
X167052381Y-119565714D01*
X167052381Y-119946667D01*
X167100000Y-120041905D01*
X167147619Y-120089524D01*
X167242857Y-120137143D01*
X167385714Y-120137143D01*
X167480952Y-120089524D01*
X167528571Y-120041905D01*
X167576190Y-119946667D01*
X167576190Y-119565714D01*
X167385714Y-120994286D02*
X168052381Y-120994286D01*
X167004762Y-120756190D02*
X167719048Y-120518095D01*
X167719048Y-121137143D01*
X167052381Y-121422857D02*
X167052381Y-122041905D01*
X167433333Y-121708571D01*
X167433333Y-121851429D01*
X167480952Y-121946667D01*
X167528571Y-121994286D01*
X167623810Y-122041905D01*
X167861905Y-122041905D01*
X167957143Y-121994286D01*
X168004762Y-121946667D01*
X168052381Y-121851429D01*
X168052381Y-121565714D01*
X168004762Y-121470476D01*
X167957143Y-121422857D01*
X169532381Y-120187143D02*
X169056190Y-119853809D01*
X169532381Y-119615714D02*
X168532381Y-119615714D01*
X168532381Y-119996667D01*
X168580000Y-120091905D01*
X168627619Y-120139524D01*
X168722857Y-120187143D01*
X168865714Y-120187143D01*
X168960952Y-120139524D01*
X169008571Y-120091905D01*
X169056190Y-119996667D01*
X169056190Y-119615714D01*
X168865714Y-121044286D02*
X169532381Y-121044286D01*
X168484762Y-120806190D02*
X169199048Y-120568095D01*
X169199048Y-121187143D01*
X168865714Y-121996667D02*
X169532381Y-121996667D01*
X168484762Y-121758571D02*
X169199048Y-121520476D01*
X169199048Y-122139524D01*
X168802323Y-103058934D02*
X168849942Y-103011315D01*
X168897561Y-102868458D01*
X168897561Y-102773220D01*
X168849942Y-102630362D01*
X168754704Y-102535124D01*
X168659466Y-102487505D01*
X168468990Y-102439886D01*
X168326132Y-102439886D01*
X168135656Y-102487505D01*
X168040418Y-102535124D01*
X167945180Y-102630362D01*
X167897561Y-102773220D01*
X167897561Y-102868458D01*
X167945180Y-103011315D01*
X167992799Y-103058934D01*
X168230894Y-103916077D02*
X168897561Y-103916077D01*
X167849942Y-103677981D02*
X168564228Y-103439886D01*
X168564228Y-104058934D01*
X156472381Y-105667143D02*
X155996190Y-105333809D01*
X156472381Y-105095714D02*
X155472381Y-105095714D01*
X155472381Y-105476667D01*
X155520000Y-105571905D01*
X155567619Y-105619524D01*
X155662857Y-105667143D01*
X155805714Y-105667143D01*
X155900952Y-105619524D01*
X155948571Y-105571905D01*
X155996190Y-105476667D01*
X155996190Y-105095714D01*
X156472381Y-106619524D02*
X156472381Y-106048095D01*
X156472381Y-106333809D02*
X155472381Y-106333809D01*
X155615238Y-106238571D01*
X155710476Y-106143333D01*
X155758095Y-106048095D01*
X155472381Y-107524286D02*
X155472381Y-107048095D01*
X155948571Y-107000476D01*
X155900952Y-107048095D01*
X155853333Y-107143333D01*
X155853333Y-107381429D01*
X155900952Y-107476667D01*
X155948571Y-107524286D01*
X156043810Y-107571905D01*
X156281905Y-107571905D01*
X156377143Y-107524286D01*
X156424762Y-107476667D01*
X156472381Y-107381429D01*
X156472381Y-107143333D01*
X156424762Y-107048095D01*
X156377143Y-107000476D01*
X158212381Y-108427143D02*
X157736190Y-108093809D01*
X158212381Y-107855714D02*
X157212381Y-107855714D01*
X157212381Y-108236667D01*
X157260000Y-108331905D01*
X157307619Y-108379524D01*
X157402857Y-108427143D01*
X157545714Y-108427143D01*
X157640952Y-108379524D01*
X157688571Y-108331905D01*
X157736190Y-108236667D01*
X157736190Y-107855714D01*
X157545714Y-109284286D02*
X158212381Y-109284286D01*
X157164762Y-109046190D02*
X157879048Y-108808095D01*
X157879048Y-109427143D01*
X158212381Y-110331905D02*
X158212381Y-109760476D01*
X158212381Y-110046190D02*
X157212381Y-110046190D01*
X157355238Y-109950952D01*
X157450476Y-109855714D01*
X157498095Y-109760476D01*
X159832381Y-103198095D02*
X160641905Y-103198095D01*
X160737143Y-103245714D01*
X160784762Y-103293333D01*
X160832381Y-103388571D01*
X160832381Y-103579048D01*
X160784762Y-103674286D01*
X160737143Y-103721905D01*
X160641905Y-103769524D01*
X159832381Y-103769524D01*
X159832381Y-104150476D02*
X159832381Y-104769524D01*
X160213333Y-104436190D01*
X160213333Y-104579048D01*
X160260952Y-104674286D01*
X160308571Y-104721905D01*
X160403810Y-104769524D01*
X160641905Y-104769524D01*
X160737143Y-104721905D01*
X160784762Y-104674286D01*
X160832381Y-104579048D01*
X160832381Y-104293333D01*
X160784762Y-104198095D01*
X160737143Y-104150476D01*
X168172381Y-115168095D02*
X168981905Y-115168095D01*
X169077143Y-115215714D01*
X169124762Y-115263333D01*
X169172381Y-115358571D01*
X169172381Y-115549048D01*
X169124762Y-115644286D01*
X169077143Y-115691905D01*
X168981905Y-115739524D01*
X168172381Y-115739524D01*
X168505714Y-116644286D02*
X169172381Y-116644286D01*
X168124762Y-116406190D02*
X168839048Y-116168095D01*
X168839048Y-116787143D01*
M02*
