G04 #@! TF.FileFunction,Legend,Top*
%FSLAX46Y46*%
G04 Gerber Fmt 4.6, Leading zero omitted, Abs format (unit mm)*
G04 Created by KiCad (PCBNEW 4.0.7) date 09/09/17 19:38:47*
%MOMM*%
%LPD*%
G01*
G04 APERTURE LIST*
%ADD10C,0.100000*%
%ADD11C,0.150000*%
%ADD12C,0.152400*%
G04 APERTURE END LIST*
D10*
X137927358Y-135315553D02*
X137927358Y-135715553D01*
X126777358Y-135715553D02*
X126777358Y-135315553D01*
X127777358Y-136715553D02*
X126777358Y-135715553D01*
X136927358Y-136715553D02*
X127777358Y-136715553D01*
X137927358Y-135715553D02*
X136927358Y-136715553D01*
X161427358Y-135315553D02*
X161427358Y-135715553D01*
X139927358Y-135715553D02*
X139927358Y-135315553D01*
X140927358Y-136715553D02*
X139927358Y-135715553D01*
X160427358Y-136715553D02*
X140927358Y-136715553D01*
X161427358Y-135715553D02*
X160427358Y-136715553D01*
X124427358Y-91915553D02*
X174427358Y-91915553D01*
X174427358Y-128315553D02*
X174427358Y-91915553D01*
X174427358Y-128315553D02*
X162427358Y-128315553D01*
X124427358Y-128315553D02*
X124427358Y-91915553D01*
X125777358Y-128315553D02*
X124427358Y-128315553D01*
X125777358Y-128315553D02*
G75*
G02X126777358Y-129315553I0J-1000000D01*
G01*
X126777358Y-135315553D02*
X126777358Y-129315553D01*
X137927358Y-129315553D02*
X137927358Y-135315553D01*
X137927358Y-129315553D02*
G75*
G02X139927358Y-129315553I1000000J0D01*
G01*
X139927358Y-135315553D02*
X139927358Y-129315553D01*
X161427358Y-129315553D02*
X161427358Y-135315553D01*
X161427358Y-129315553D02*
G75*
G02X162427358Y-128315553I1000000J0D01*
G01*
D11*
X128670000Y-117180000D02*
X128670000Y-116580000D01*
X128670000Y-115280000D02*
X127270000Y-115280000D01*
X127270000Y-115280000D02*
X127270000Y-116280000D01*
X127270000Y-117580000D02*
X127270000Y-118480000D01*
X127270000Y-118480000D02*
X128670000Y-118480000D01*
X137291000Y-105046000D02*
X137791000Y-105046000D01*
X137791000Y-103996000D02*
X137291000Y-103996000D01*
X172427800Y-122052800D02*
X172427800Y-123152800D01*
X172427800Y-123152800D02*
X170227800Y-123152800D01*
X169527800Y-112052800D02*
X172427800Y-112052800D01*
X172427800Y-112052800D02*
X172427800Y-113452800D01*
X164327800Y-113952800D02*
X164327800Y-112152800D01*
X164827800Y-123052800D02*
X164427800Y-123052800D01*
X164427800Y-123052800D02*
X164427800Y-121452800D01*
X144212800Y-100122800D02*
X144212800Y-99622800D01*
X143162800Y-99622800D02*
X143162800Y-100122800D01*
X162805000Y-116930000D02*
X162805000Y-116430000D01*
X161755000Y-116430000D02*
X161755000Y-116930000D01*
X132973000Y-116045000D02*
X133473000Y-116045000D01*
X133473000Y-115095000D02*
X132973000Y-115095000D01*
X147732000Y-104429000D02*
X148432000Y-104429000D01*
X148432000Y-105629000D02*
X147732000Y-105629000D01*
X158402000Y-103255000D02*
X158402000Y-103755000D01*
X159352000Y-103755000D02*
X159352000Y-103255000D01*
X156714000Y-106840000D02*
X156214000Y-106840000D01*
X156214000Y-107790000D02*
X156714000Y-107790000D01*
X144149000Y-111346000D02*
X144649000Y-111346000D01*
X144649000Y-110396000D02*
X144149000Y-110396000D01*
X160278000Y-102837000D02*
X160778000Y-102837000D01*
X160778000Y-101887000D02*
X160278000Y-101887000D01*
X133254000Y-111160000D02*
X133954000Y-111160000D01*
X133954000Y-112360000D02*
X133254000Y-112360000D01*
X138580000Y-127835000D02*
X139080000Y-127835000D01*
X139080000Y-126885000D02*
X138580000Y-126885000D01*
X148340000Y-115537000D02*
X148840000Y-115537000D01*
X148840000Y-114587000D02*
X148340000Y-114587000D01*
X166530000Y-104779000D02*
X166530000Y-105279000D01*
X167480000Y-105279000D02*
X167480000Y-104779000D01*
X157698440Y-93553280D02*
X124678440Y-93553280D01*
X155158440Y-98633280D02*
X124678440Y-98633280D01*
X124678440Y-93553280D02*
X124678440Y-98633280D01*
X157698440Y-93553280D02*
X157698440Y-96093280D01*
X156428440Y-98913280D02*
X157978440Y-98913280D01*
X157698440Y-96093280D02*
X155158440Y-96093280D01*
X155158440Y-96093280D02*
X155158440Y-98633280D01*
X157978440Y-98913280D02*
X157978440Y-97363280D01*
X167330000Y-97945000D02*
X168330000Y-97945000D01*
X168330000Y-99295000D02*
X167330000Y-99295000D01*
X133717000Y-108620000D02*
X133717000Y-109820000D01*
X131967000Y-109820000D02*
X131967000Y-108620000D01*
X167517000Y-108602000D02*
X168017000Y-108602000D01*
X168017000Y-107552000D02*
X167517000Y-107552000D01*
X168398000Y-106409000D02*
X167898000Y-106409000D01*
X167898000Y-107459000D02*
X168398000Y-107459000D01*
X148141200Y-99597400D02*
X148141200Y-100097400D01*
X149191200Y-100097400D02*
X149191200Y-99597400D01*
X145728200Y-99572000D02*
X145728200Y-100072000D01*
X146778200Y-100072000D02*
X146778200Y-99572000D01*
X137791000Y-106409000D02*
X137291000Y-106409000D01*
X137291000Y-107459000D02*
X137791000Y-107459000D01*
X137291000Y-109999000D02*
X137791000Y-109999000D01*
X137791000Y-108949000D02*
X137291000Y-108949000D01*
X137291000Y-108729000D02*
X137791000Y-108729000D01*
X137791000Y-107679000D02*
X137291000Y-107679000D01*
X160913000Y-101744000D02*
X161413000Y-101744000D01*
X161413000Y-100694000D02*
X160913000Y-100694000D01*
X154474400Y-100097400D02*
X154474400Y-99597400D01*
X153424400Y-99597400D02*
X153424400Y-100097400D01*
X151858200Y-100122800D02*
X151858200Y-99622800D01*
X150808200Y-99622800D02*
X150808200Y-100122800D01*
X131314000Y-99297000D02*
X130814000Y-99297000D01*
X130814000Y-100347000D02*
X131314000Y-100347000D01*
X133727000Y-99170000D02*
X133227000Y-99170000D01*
X133227000Y-100220000D02*
X133727000Y-100220000D01*
X139971000Y-100072000D02*
X139971000Y-99572000D01*
X138921000Y-99572000D02*
X138921000Y-100072000D01*
X153881600Y-102188200D02*
X153881600Y-102688200D01*
X154931600Y-102688200D02*
X154931600Y-102188200D01*
X147425600Y-124070600D02*
X147925600Y-124070600D01*
X147925600Y-123020600D02*
X147425600Y-123020600D01*
X159402000Y-111121000D02*
X159402000Y-110621000D01*
X158352000Y-110621000D02*
X158352000Y-111121000D01*
X160672000Y-112010000D02*
X160672000Y-111510000D01*
X159622000Y-111510000D02*
X159622000Y-112010000D01*
X150110000Y-121141000D02*
X149610000Y-121141000D01*
X149610000Y-122191000D02*
X150110000Y-122191000D01*
X161942000Y-112264000D02*
X161942000Y-111764000D01*
X160892000Y-111764000D02*
X160892000Y-112264000D01*
X162415000Y-114490000D02*
X162415000Y-113990000D01*
X161365000Y-113990000D02*
X161365000Y-114490000D01*
X158767000Y-109241400D02*
X158767000Y-108741400D01*
X157717000Y-108741400D02*
X157717000Y-109241400D01*
X150110000Y-119617000D02*
X149610000Y-119617000D01*
X149610000Y-120667000D02*
X150110000Y-120667000D01*
X141474000Y-126856000D02*
X140974000Y-126856000D01*
X140974000Y-127906000D02*
X141474000Y-127906000D01*
X152576720Y-102800640D02*
X153076720Y-102800640D01*
X153076720Y-101750640D02*
X152576720Y-101750640D01*
X165687000Y-109134000D02*
X165687000Y-109934000D01*
X165687000Y-109934000D02*
X164887000Y-109934000D01*
X165187000Y-109184000D02*
X164937000Y-109434000D01*
X160437000Y-109434000D02*
X160187000Y-109434000D01*
X160187000Y-109434000D02*
X160187000Y-109184000D01*
X164937000Y-104434000D02*
X165187000Y-104434000D01*
X165187000Y-104434000D02*
X165187000Y-104684000D01*
X160437000Y-104434000D02*
X160187000Y-104434000D01*
X160187000Y-104434000D02*
X160187000Y-104684000D01*
X158483000Y-103829000D02*
X158483000Y-103029000D01*
X158483000Y-103029000D02*
X157683000Y-103029000D01*
X154983000Y-106729000D02*
X153983000Y-106729000D01*
X153983000Y-106729000D02*
X153983000Y-105829000D01*
X158183000Y-104329000D02*
X158183000Y-103329000D01*
X158183000Y-103329000D02*
X157183000Y-103329000D01*
X173474080Y-93411040D02*
X174374080Y-93411040D01*
X174374080Y-93411040D02*
X174374080Y-98411040D01*
X174374080Y-98411040D02*
X173474080Y-98411040D01*
X173474080Y-92311040D02*
X169474080Y-92311040D01*
X169474080Y-92311040D02*
X169474080Y-99511040D01*
X169474080Y-99511040D02*
X173474080Y-99511040D01*
X173474080Y-99511040D02*
X173474080Y-92311040D01*
X167673000Y-104779000D02*
X167673000Y-105279000D01*
X168623000Y-105279000D02*
X168623000Y-104779000D01*
X146816000Y-111244400D02*
X147316000Y-111244400D01*
X147316000Y-110294400D02*
X146816000Y-110294400D01*
X141571200Y-100046600D02*
X141571200Y-99546600D01*
X140521200Y-99546600D02*
X140521200Y-100046600D01*
X129290000Y-126255000D02*
X129790000Y-126255000D01*
X129790000Y-125205000D02*
X129290000Y-125205000D01*
X130285000Y-111256000D02*
X130285000Y-111756000D01*
X131335000Y-111756000D02*
X131335000Y-111256000D01*
X128888000Y-111256000D02*
X128888000Y-111756000D01*
X129938000Y-111756000D02*
X129938000Y-111256000D01*
X125911800Y-113631200D02*
X126411800Y-113631200D01*
X126411800Y-112581200D02*
X125911800Y-112581200D01*
X167510000Y-109915000D02*
X167010000Y-109915000D01*
X167010000Y-110965000D02*
X167510000Y-110965000D01*
X168010000Y-108735000D02*
X167510000Y-108735000D01*
X167510000Y-109785000D02*
X168010000Y-109785000D01*
X129925000Y-113682000D02*
X130425000Y-113682000D01*
X130425000Y-112632000D02*
X129925000Y-112632000D01*
X147955936Y-117967183D02*
X148663043Y-118674289D01*
X148663043Y-118674289D02*
X148733753Y-118745000D01*
X148733753Y-118745000D02*
X147955936Y-119522817D01*
X147743804Y-117896472D02*
X148450911Y-117189365D01*
X147673093Y-119381396D02*
X147673093Y-118108604D01*
D12*
X141097000Y-111494327D02*
X140454056Y-112137271D01*
X133846327Y-118745000D02*
X134489271Y-119387944D01*
X141097000Y-125995673D02*
X141739944Y-125352729D01*
X148347673Y-118745000D02*
X147704729Y-118102056D01*
X141739944Y-112137271D02*
X141097000Y-111494327D01*
X134489271Y-118102056D02*
X133846327Y-118745000D01*
X140454056Y-125352729D02*
X141097000Y-125995673D01*
X147704729Y-119387944D02*
X148347673Y-118745000D01*
D11*
X152220000Y-103315000D02*
X151720000Y-103315000D01*
X151720000Y-104365000D02*
X152220000Y-104365000D01*
X168420000Y-93135000D02*
X167920000Y-93135000D01*
X167920000Y-94185000D02*
X168420000Y-94185000D01*
X167950000Y-97625000D02*
X168450000Y-97625000D01*
X168450000Y-96575000D02*
X167950000Y-96575000D01*
X165990000Y-94295000D02*
X165490000Y-94295000D01*
X165490000Y-95345000D02*
X165990000Y-95345000D01*
X165990000Y-92935000D02*
X165490000Y-92935000D01*
X165490000Y-93985000D02*
X165990000Y-93985000D01*
X167950000Y-95925000D02*
X168450000Y-95925000D01*
X168450000Y-94875000D02*
X167950000Y-94875000D01*
X166150000Y-95785000D02*
X165650000Y-95785000D01*
X165650000Y-96835000D02*
X166150000Y-96835000D01*
X129534000Y-101664000D02*
X129534000Y-109664000D01*
X129534000Y-109664000D02*
X124534000Y-109664000D01*
X124534000Y-109664000D02*
X124534000Y-101664000D01*
X124534000Y-101664000D02*
X129534000Y-101664000D01*
X169324940Y-107657400D02*
X169324940Y-99657400D01*
X169324940Y-99657400D02*
X174324940Y-99657400D01*
X174324940Y-99657400D02*
X174324940Y-107657400D01*
X174324940Y-107657400D02*
X169324940Y-107657400D01*
X130480000Y-105340000D02*
X130480000Y-106840000D01*
X130480000Y-106840000D02*
X131580000Y-106840000D01*
X130730000Y-104490000D02*
X130730000Y-104990000D01*
X133630000Y-104490000D02*
X130730000Y-104490000D01*
X133630000Y-104990000D02*
X133630000Y-104490000D01*
X130730000Y-104990000D02*
X133630000Y-104990000D01*
X167220000Y-103080000D02*
X168720000Y-103080000D01*
X168720000Y-103080000D02*
X168720000Y-101980000D01*
X166370000Y-102830000D02*
X166870000Y-102830000D01*
X166370000Y-99930000D02*
X166370000Y-102830000D01*
X166870000Y-99930000D02*
X166370000Y-99930000D01*
X166870000Y-102830000D02*
X166870000Y-99930000D01*
X126760400Y-125204600D02*
X126760400Y-126204600D01*
X127560400Y-125704600D02*
X127760400Y-125954600D01*
X127760400Y-125454600D02*
X127560400Y-125704600D01*
X127910400Y-125179600D02*
X126860400Y-125179600D01*
X127910400Y-126229600D02*
X126860400Y-126229600D01*
X126373000Y-112406000D02*
X127373000Y-112406000D01*
X126873000Y-111606000D02*
X127123000Y-111406000D01*
X126623000Y-111406000D02*
X126873000Y-111606000D01*
X126348000Y-111256000D02*
X126348000Y-112306000D01*
X127398000Y-111256000D02*
X127398000Y-112306000D01*
X127516000Y-112406000D02*
X128516000Y-112406000D01*
X128016000Y-111606000D02*
X128266000Y-111406000D01*
X127766000Y-111406000D02*
X128016000Y-111606000D01*
X127491000Y-111256000D02*
X127491000Y-112306000D01*
X128541000Y-111256000D02*
X128541000Y-112306000D01*
X125230000Y-112406000D02*
X126230000Y-112406000D01*
X125730000Y-111606000D02*
X125980000Y-111406000D01*
X125480000Y-111406000D02*
X125730000Y-111606000D01*
X125205000Y-111256000D02*
X125205000Y-112306000D01*
X126255000Y-111256000D02*
X126255000Y-112306000D01*
X170440000Y-108880000D02*
X169440000Y-108880000D01*
X169940000Y-109680000D02*
X169690000Y-109880000D01*
X170190000Y-109880000D02*
X169940000Y-109680000D01*
X170465000Y-110030000D02*
X170465000Y-108980000D01*
X169415000Y-110030000D02*
X169415000Y-108980000D01*
X171660000Y-108900000D02*
X170660000Y-108900000D01*
X171160000Y-109700000D02*
X170910000Y-109900000D01*
X171410000Y-109900000D02*
X171160000Y-109700000D01*
X171685000Y-110050000D02*
X171685000Y-109000000D01*
X170635000Y-110050000D02*
X170635000Y-109000000D01*
X172890000Y-108900000D02*
X171890000Y-108900000D01*
X172390000Y-109700000D02*
X172140000Y-109900000D01*
X172640000Y-109900000D02*
X172390000Y-109700000D01*
X172915000Y-110050000D02*
X172915000Y-109000000D01*
X171865000Y-110050000D02*
X171865000Y-109000000D01*
X127120000Y-121720000D02*
X127120000Y-123220000D01*
X127120000Y-123220000D02*
X128220000Y-123220000D01*
X127370000Y-120870000D02*
X127370000Y-121370000D01*
X130270000Y-120870000D02*
X127370000Y-120870000D01*
X130270000Y-121370000D02*
X130270000Y-120870000D01*
X127370000Y-121370000D02*
X130270000Y-121370000D01*
X126945000Y-122920000D02*
X126945000Y-122420000D01*
X125895000Y-122420000D02*
X125895000Y-122920000D01*
X131585000Y-120760000D02*
X131585000Y-120260000D01*
X130535000Y-120260000D02*
X130535000Y-120760000D01*
X131117619Y-118075238D02*
X131070000Y-118170476D01*
X130974762Y-118265714D01*
X130831905Y-118408571D01*
X130784286Y-118503810D01*
X130784286Y-118599048D01*
X131022381Y-118551429D02*
X130974762Y-118646667D01*
X130879524Y-118741905D01*
X130689048Y-118789524D01*
X130355714Y-118789524D01*
X130165238Y-118741905D01*
X130070000Y-118646667D01*
X130022381Y-118551429D01*
X130022381Y-118360952D01*
X130070000Y-118265714D01*
X130165238Y-118170476D01*
X130355714Y-118122857D01*
X130689048Y-118122857D01*
X130879524Y-118170476D01*
X130974762Y-118265714D01*
X131022381Y-118360952D01*
X131022381Y-118551429D01*
X131022381Y-117170476D02*
X131022381Y-117741905D01*
X131022381Y-117456191D02*
X130022381Y-117456191D01*
X130165238Y-117551429D01*
X130260476Y-117646667D01*
X130308095Y-117741905D01*
X139107143Y-105012381D02*
X138773809Y-104536190D01*
X138535714Y-105012381D02*
X138535714Y-104012381D01*
X138916667Y-104012381D01*
X139011905Y-104060000D01*
X139059524Y-104107619D01*
X139107143Y-104202857D01*
X139107143Y-104345714D01*
X139059524Y-104440952D01*
X139011905Y-104488571D01*
X138916667Y-104536190D01*
X138535714Y-104536190D01*
X139488095Y-104107619D02*
X139535714Y-104060000D01*
X139630952Y-104012381D01*
X139869048Y-104012381D01*
X139964286Y-104060000D01*
X140011905Y-104107619D01*
X140059524Y-104202857D01*
X140059524Y-104298095D01*
X140011905Y-104440952D01*
X139440476Y-105012381D01*
X140059524Y-105012381D01*
X140964286Y-104012381D02*
X140488095Y-104012381D01*
X140440476Y-104488571D01*
X140488095Y-104440952D01*
X140583333Y-104393333D01*
X140821429Y-104393333D01*
X140916667Y-104440952D01*
X140964286Y-104488571D01*
X141011905Y-104583810D01*
X141011905Y-104821905D01*
X140964286Y-104917143D01*
X140916667Y-104964762D01*
X140821429Y-105012381D01*
X140583333Y-105012381D01*
X140488095Y-104964762D01*
X140440476Y-104917143D01*
X173071541Y-123196195D02*
X174071541Y-122529528D01*
X173071541Y-122529528D02*
X174071541Y-123196195D01*
X173785827Y-122196195D02*
X173785827Y-121720004D01*
X174071541Y-122291433D02*
X173071541Y-121958100D01*
X174071541Y-121624766D01*
X174071541Y-120767623D02*
X174071541Y-121339052D01*
X174071541Y-121053338D02*
X173071541Y-121053338D01*
X173214398Y-121148576D01*
X173309636Y-121243814D01*
X173357255Y-121339052D01*
X145361921Y-100049626D02*
X144885730Y-100382960D01*
X145361921Y-100621055D02*
X144361921Y-100621055D01*
X144361921Y-100240102D01*
X144409540Y-100144864D01*
X144457159Y-100097245D01*
X144552397Y-100049626D01*
X144695254Y-100049626D01*
X144790492Y-100097245D01*
X144838111Y-100144864D01*
X144885730Y-100240102D01*
X144885730Y-100621055D01*
X144790492Y-99478198D02*
X144742873Y-99573436D01*
X144695254Y-99621055D01*
X144600016Y-99668674D01*
X144552397Y-99668674D01*
X144457159Y-99621055D01*
X144409540Y-99573436D01*
X144361921Y-99478198D01*
X144361921Y-99287721D01*
X144409540Y-99192483D01*
X144457159Y-99144864D01*
X144552397Y-99097245D01*
X144600016Y-99097245D01*
X144695254Y-99144864D01*
X144742873Y-99192483D01*
X144790492Y-99287721D01*
X144790492Y-99478198D01*
X144838111Y-99573436D01*
X144885730Y-99621055D01*
X144980969Y-99668674D01*
X145171445Y-99668674D01*
X145266683Y-99621055D01*
X145314302Y-99573436D01*
X145361921Y-99478198D01*
X145361921Y-99287721D01*
X145314302Y-99192483D01*
X145266683Y-99144864D01*
X145171445Y-99097245D01*
X144980969Y-99097245D01*
X144885730Y-99144864D01*
X144838111Y-99192483D01*
X144790492Y-99287721D01*
X162782381Y-119782857D02*
X162306190Y-120116191D01*
X162782381Y-120354286D02*
X161782381Y-120354286D01*
X161782381Y-119973333D01*
X161830000Y-119878095D01*
X161877619Y-119830476D01*
X161972857Y-119782857D01*
X162115714Y-119782857D01*
X162210952Y-119830476D01*
X162258571Y-119878095D01*
X162306190Y-119973333D01*
X162306190Y-120354286D01*
X161877619Y-119401905D02*
X161830000Y-119354286D01*
X161782381Y-119259048D01*
X161782381Y-119020952D01*
X161830000Y-118925714D01*
X161877619Y-118878095D01*
X161972857Y-118830476D01*
X162068095Y-118830476D01*
X162210952Y-118878095D01*
X162782381Y-119449524D01*
X162782381Y-118830476D01*
X161782381Y-118211429D02*
X161782381Y-118116190D01*
X161830000Y-118020952D01*
X161877619Y-117973333D01*
X161972857Y-117925714D01*
X162163333Y-117878095D01*
X162401429Y-117878095D01*
X162591905Y-117925714D01*
X162687143Y-117973333D01*
X162734762Y-118020952D01*
X162782381Y-118116190D01*
X162782381Y-118211429D01*
X162734762Y-118306667D01*
X162687143Y-118354286D01*
X162591905Y-118401905D01*
X162401429Y-118449524D01*
X162163333Y-118449524D01*
X161972857Y-118401905D01*
X161877619Y-118354286D01*
X161830000Y-118306667D01*
X161782381Y-118211429D01*
X133408183Y-114860343D02*
X133360564Y-114907962D01*
X133217707Y-114955581D01*
X133122469Y-114955581D01*
X132979611Y-114907962D01*
X132884373Y-114812724D01*
X132836754Y-114717486D01*
X132789135Y-114527010D01*
X132789135Y-114384152D01*
X132836754Y-114193676D01*
X132884373Y-114098438D01*
X132979611Y-114003200D01*
X133122469Y-113955581D01*
X133217707Y-113955581D01*
X133360564Y-114003200D01*
X133408183Y-114050819D01*
X134360564Y-114955581D02*
X133789135Y-114955581D01*
X134074849Y-114955581D02*
X134074849Y-113955581D01*
X133979611Y-114098438D01*
X133884373Y-114193676D01*
X133789135Y-114241295D01*
X134741516Y-114050819D02*
X134789135Y-114003200D01*
X134884373Y-113955581D01*
X135122469Y-113955581D01*
X135217707Y-114003200D01*
X135265326Y-114050819D01*
X135312945Y-114146057D01*
X135312945Y-114241295D01*
X135265326Y-114384152D01*
X134693897Y-114955581D01*
X135312945Y-114955581D01*
X147439143Y-104266003D02*
X147391524Y-104313622D01*
X147248667Y-104361241D01*
X147153429Y-104361241D01*
X147010571Y-104313622D01*
X146915333Y-104218384D01*
X146867714Y-104123146D01*
X146820095Y-103932670D01*
X146820095Y-103789812D01*
X146867714Y-103599336D01*
X146915333Y-103504098D01*
X147010571Y-103408860D01*
X147153429Y-103361241D01*
X147248667Y-103361241D01*
X147391524Y-103408860D01*
X147439143Y-103456479D01*
X148391524Y-104361241D02*
X147820095Y-104361241D01*
X148105809Y-104361241D02*
X148105809Y-103361241D01*
X148010571Y-103504098D01*
X147915333Y-103599336D01*
X147820095Y-103646955D01*
X149343905Y-104361241D02*
X148772476Y-104361241D01*
X149058190Y-104361241D02*
X149058190Y-103361241D01*
X148962952Y-103504098D01*
X148867714Y-103599336D01*
X148772476Y-103646955D01*
X160321263Y-103918046D02*
X160368882Y-103965665D01*
X160416501Y-104108522D01*
X160416501Y-104203760D01*
X160368882Y-104346618D01*
X160273644Y-104441856D01*
X160178406Y-104489475D01*
X159987930Y-104537094D01*
X159845072Y-104537094D01*
X159654596Y-104489475D01*
X159559358Y-104441856D01*
X159464120Y-104346618D01*
X159416501Y-104203760D01*
X159416501Y-104108522D01*
X159464120Y-103965665D01*
X159511739Y-103918046D01*
X159416501Y-103584713D02*
X159416501Y-102918046D01*
X160416501Y-103346618D01*
X154412654Y-107834703D02*
X154365035Y-107882322D01*
X154222178Y-107929941D01*
X154126940Y-107929941D01*
X153984082Y-107882322D01*
X153888844Y-107787084D01*
X153841225Y-107691846D01*
X153793606Y-107501370D01*
X153793606Y-107358512D01*
X153841225Y-107168036D01*
X153888844Y-107072798D01*
X153984082Y-106977560D01*
X154126940Y-106929941D01*
X154222178Y-106929941D01*
X154365035Y-106977560D01*
X154412654Y-107025179D01*
X154984082Y-107358512D02*
X154888844Y-107310893D01*
X154841225Y-107263274D01*
X154793606Y-107168036D01*
X154793606Y-107120417D01*
X154841225Y-107025179D01*
X154888844Y-106977560D01*
X154984082Y-106929941D01*
X155174559Y-106929941D01*
X155269797Y-106977560D01*
X155317416Y-107025179D01*
X155365035Y-107120417D01*
X155365035Y-107168036D01*
X155317416Y-107263274D01*
X155269797Y-107310893D01*
X155174559Y-107358512D01*
X154984082Y-107358512D01*
X154888844Y-107406131D01*
X154841225Y-107453750D01*
X154793606Y-107548989D01*
X154793606Y-107739465D01*
X154841225Y-107834703D01*
X154888844Y-107882322D01*
X154984082Y-107929941D01*
X155174559Y-107929941D01*
X155269797Y-107882322D01*
X155317416Y-107834703D01*
X155365035Y-107739465D01*
X155365035Y-107548989D01*
X155317416Y-107453750D01*
X155269797Y-107406131D01*
X155174559Y-107358512D01*
X143577143Y-110087143D02*
X143529524Y-110134762D01*
X143386667Y-110182381D01*
X143291429Y-110182381D01*
X143148571Y-110134762D01*
X143053333Y-110039524D01*
X143005714Y-109944286D01*
X142958095Y-109753810D01*
X142958095Y-109610952D01*
X143005714Y-109420476D01*
X143053333Y-109325238D01*
X143148571Y-109230000D01*
X143291429Y-109182381D01*
X143386667Y-109182381D01*
X143529524Y-109230000D01*
X143577143Y-109277619D01*
X144529524Y-110182381D02*
X143958095Y-110182381D01*
X144243809Y-110182381D02*
X144243809Y-109182381D01*
X144148571Y-109325238D01*
X144053333Y-109420476D01*
X143958095Y-109468095D01*
X144862857Y-109182381D02*
X145481905Y-109182381D01*
X145148571Y-109563333D01*
X145291429Y-109563333D01*
X145386667Y-109610952D01*
X145434286Y-109658571D01*
X145481905Y-109753810D01*
X145481905Y-109991905D01*
X145434286Y-110087143D01*
X145386667Y-110134762D01*
X145291429Y-110182381D01*
X145005714Y-110182381D01*
X144910476Y-110134762D01*
X144862857Y-110087143D01*
X158877974Y-101726003D02*
X158830355Y-101773622D01*
X158687498Y-101821241D01*
X158592260Y-101821241D01*
X158449402Y-101773622D01*
X158354164Y-101678384D01*
X158306545Y-101583146D01*
X158258926Y-101392670D01*
X158258926Y-101249812D01*
X158306545Y-101059336D01*
X158354164Y-100964098D01*
X158449402Y-100868860D01*
X158592260Y-100821241D01*
X158687498Y-100821241D01*
X158830355Y-100868860D01*
X158877974Y-100916479D01*
X159782736Y-100821241D02*
X159306545Y-100821241D01*
X159258926Y-101297431D01*
X159306545Y-101249812D01*
X159401783Y-101202193D01*
X159639879Y-101202193D01*
X159735117Y-101249812D01*
X159782736Y-101297431D01*
X159830355Y-101392670D01*
X159830355Y-101630765D01*
X159782736Y-101726003D01*
X159735117Y-101773622D01*
X159639879Y-101821241D01*
X159401783Y-101821241D01*
X159306545Y-101773622D01*
X159258926Y-101726003D01*
X133864054Y-113356663D02*
X133816435Y-113404282D01*
X133673578Y-113451901D01*
X133578340Y-113451901D01*
X133435482Y-113404282D01*
X133340244Y-113309044D01*
X133292625Y-113213806D01*
X133245006Y-113023330D01*
X133245006Y-112880472D01*
X133292625Y-112689996D01*
X133340244Y-112594758D01*
X133435482Y-112499520D01*
X133578340Y-112451901D01*
X133673578Y-112451901D01*
X133816435Y-112499520D01*
X133864054Y-112547139D01*
X134340244Y-113451901D02*
X134530720Y-113451901D01*
X134625959Y-113404282D01*
X134673578Y-113356663D01*
X134768816Y-113213806D01*
X134816435Y-113023330D01*
X134816435Y-112642377D01*
X134768816Y-112547139D01*
X134721197Y-112499520D01*
X134625959Y-112451901D01*
X134435482Y-112451901D01*
X134340244Y-112499520D01*
X134292625Y-112547139D01*
X134245006Y-112642377D01*
X134245006Y-112880472D01*
X134292625Y-112975710D01*
X134340244Y-113023330D01*
X134435482Y-113070949D01*
X134625959Y-113070949D01*
X134721197Y-113023330D01*
X134768816Y-112975710D01*
X134816435Y-112880472D01*
X135687143Y-127737143D02*
X135639524Y-127784762D01*
X135496667Y-127832381D01*
X135401429Y-127832381D01*
X135258571Y-127784762D01*
X135163333Y-127689524D01*
X135115714Y-127594286D01*
X135068095Y-127403810D01*
X135068095Y-127260952D01*
X135115714Y-127070476D01*
X135163333Y-126975238D01*
X135258571Y-126880000D01*
X135401429Y-126832381D01*
X135496667Y-126832381D01*
X135639524Y-126880000D01*
X135687143Y-126927619D01*
X136639524Y-127832381D02*
X136068095Y-127832381D01*
X136353809Y-127832381D02*
X136353809Y-126832381D01*
X136258571Y-126975238D01*
X136163333Y-127070476D01*
X136068095Y-127118095D01*
X137496667Y-127165714D02*
X137496667Y-127832381D01*
X137258571Y-126784762D02*
X137020476Y-127499048D01*
X137639524Y-127499048D01*
X147848083Y-114451403D02*
X147800464Y-114499022D01*
X147657607Y-114546641D01*
X147562369Y-114546641D01*
X147419511Y-114499022D01*
X147324273Y-114403784D01*
X147276654Y-114308546D01*
X147229035Y-114118070D01*
X147229035Y-113975212D01*
X147276654Y-113784736D01*
X147324273Y-113689498D01*
X147419511Y-113594260D01*
X147562369Y-113546641D01*
X147657607Y-113546641D01*
X147800464Y-113594260D01*
X147848083Y-113641879D01*
X148800464Y-114546641D02*
X148229035Y-114546641D01*
X148514749Y-114546641D02*
X148514749Y-113546641D01*
X148419511Y-113689498D01*
X148324273Y-113784736D01*
X148229035Y-113832355D01*
X149705226Y-113546641D02*
X149229035Y-113546641D01*
X149181416Y-114022831D01*
X149229035Y-113975212D01*
X149324273Y-113927593D01*
X149562369Y-113927593D01*
X149657607Y-113975212D01*
X149705226Y-114022831D01*
X149752845Y-114118070D01*
X149752845Y-114356165D01*
X149705226Y-114451403D01*
X149657607Y-114499022D01*
X149562369Y-114546641D01*
X149324273Y-114546641D01*
X149229035Y-114499022D01*
X149181416Y-114451403D01*
X167427143Y-105346666D02*
X167474762Y-105394285D01*
X167522381Y-105537142D01*
X167522381Y-105632380D01*
X167474762Y-105775238D01*
X167379524Y-105870476D01*
X167284286Y-105918095D01*
X167093810Y-105965714D01*
X166950952Y-105965714D01*
X166760476Y-105918095D01*
X166665238Y-105870476D01*
X166570000Y-105775238D01*
X166522381Y-105632380D01*
X166522381Y-105537142D01*
X166570000Y-105394285D01*
X166617619Y-105346666D01*
X166522381Y-104489523D02*
X166522381Y-104680000D01*
X166570000Y-104775238D01*
X166617619Y-104822857D01*
X166760476Y-104918095D01*
X166950952Y-104965714D01*
X167331905Y-104965714D01*
X167427143Y-104918095D01*
X167474762Y-104870476D01*
X167522381Y-104775238D01*
X167522381Y-104584761D01*
X167474762Y-104489523D01*
X167427143Y-104441904D01*
X167331905Y-104394285D01*
X167093810Y-104394285D01*
X166998571Y-104441904D01*
X166950952Y-104489523D01*
X166903333Y-104584761D01*
X166903333Y-104775238D01*
X166950952Y-104870476D01*
X166998571Y-104918095D01*
X167093810Y-104965714D01*
X158630027Y-97699581D02*
X158630027Y-98413867D01*
X158582407Y-98556724D01*
X158487169Y-98651962D01*
X158344312Y-98699581D01*
X158249074Y-98699581D01*
X159630027Y-98699581D02*
X159058598Y-98699581D01*
X159344312Y-98699581D02*
X159344312Y-97699581D01*
X159249074Y-97842438D01*
X159153836Y-97937676D01*
X159058598Y-97985295D01*
X167713334Y-99112381D02*
X167237143Y-99112381D01*
X167237143Y-98112381D01*
X168570477Y-99112381D02*
X167999048Y-99112381D01*
X168284762Y-99112381D02*
X168284762Y-98112381D01*
X168189524Y-98255238D01*
X168094286Y-98350476D01*
X167999048Y-98398095D01*
X131742441Y-109356186D02*
X131742441Y-109832377D01*
X130742441Y-109832377D01*
X131075774Y-108594281D02*
X131742441Y-108594281D01*
X130694822Y-108832377D02*
X131409108Y-109070472D01*
X131409108Y-108451424D01*
X167623334Y-108582381D02*
X167290000Y-108106190D01*
X167051905Y-108582381D02*
X167051905Y-107582381D01*
X167432858Y-107582381D01*
X167528096Y-107630000D01*
X167575715Y-107677619D01*
X167623334Y-107772857D01*
X167623334Y-107915714D01*
X167575715Y-108010952D01*
X167528096Y-108058571D01*
X167432858Y-108106190D01*
X167051905Y-108106190D01*
X168575715Y-108582381D02*
X168004286Y-108582381D01*
X168290000Y-108582381D02*
X168290000Y-107582381D01*
X168194762Y-107725238D01*
X168099524Y-107820476D01*
X168004286Y-107868095D01*
X167943334Y-107462381D02*
X167610000Y-106986190D01*
X167371905Y-107462381D02*
X167371905Y-106462381D01*
X167752858Y-106462381D01*
X167848096Y-106510000D01*
X167895715Y-106557619D01*
X167943334Y-106652857D01*
X167943334Y-106795714D01*
X167895715Y-106890952D01*
X167848096Y-106938571D01*
X167752858Y-106986190D01*
X167371905Y-106986190D01*
X168324286Y-106557619D02*
X168371905Y-106510000D01*
X168467143Y-106462381D01*
X168705239Y-106462381D01*
X168800477Y-106510000D01*
X168848096Y-106557619D01*
X168895715Y-106652857D01*
X168895715Y-106748095D01*
X168848096Y-106890952D01*
X168276667Y-107462381D01*
X168895715Y-107462381D01*
X150345401Y-99988666D02*
X149869210Y-100322000D01*
X150345401Y-100560095D02*
X149345401Y-100560095D01*
X149345401Y-100179142D01*
X149393020Y-100083904D01*
X149440639Y-100036285D01*
X149535877Y-99988666D01*
X149678734Y-99988666D01*
X149773972Y-100036285D01*
X149821591Y-100083904D01*
X149869210Y-100179142D01*
X149869210Y-100560095D01*
X149678734Y-99131523D02*
X150345401Y-99131523D01*
X149297782Y-99369619D02*
X150012068Y-99607714D01*
X150012068Y-98988666D01*
X147945101Y-100003906D02*
X147468910Y-100337240D01*
X147945101Y-100575335D02*
X146945101Y-100575335D01*
X146945101Y-100194382D01*
X146992720Y-100099144D01*
X147040339Y-100051525D01*
X147135577Y-100003906D01*
X147278434Y-100003906D01*
X147373672Y-100051525D01*
X147421291Y-100099144D01*
X147468910Y-100194382D01*
X147468910Y-100575335D01*
X146945101Y-99099144D02*
X146945101Y-99575335D01*
X147421291Y-99622954D01*
X147373672Y-99575335D01*
X147326053Y-99480097D01*
X147326053Y-99242001D01*
X147373672Y-99146763D01*
X147421291Y-99099144D01*
X147516530Y-99051525D01*
X147754625Y-99051525D01*
X147849863Y-99099144D01*
X147897482Y-99146763D01*
X147945101Y-99242001D01*
X147945101Y-99480097D01*
X147897482Y-99575335D01*
X147849863Y-99622954D01*
X139167143Y-107452381D02*
X138833809Y-106976190D01*
X138595714Y-107452381D02*
X138595714Y-106452381D01*
X138976667Y-106452381D01*
X139071905Y-106500000D01*
X139119524Y-106547619D01*
X139167143Y-106642857D01*
X139167143Y-106785714D01*
X139119524Y-106880952D01*
X139071905Y-106928571D01*
X138976667Y-106976190D01*
X138595714Y-106976190D01*
X139548095Y-106547619D02*
X139595714Y-106500000D01*
X139690952Y-106452381D01*
X139929048Y-106452381D01*
X140024286Y-106500000D01*
X140071905Y-106547619D01*
X140119524Y-106642857D01*
X140119524Y-106738095D01*
X140071905Y-106880952D01*
X139500476Y-107452381D01*
X140119524Y-107452381D01*
X140976667Y-106785714D02*
X140976667Y-107452381D01*
X140738571Y-106404762D02*
X140500476Y-107119048D01*
X141119524Y-107119048D01*
X139167143Y-109982381D02*
X138833809Y-109506190D01*
X138595714Y-109982381D02*
X138595714Y-108982381D01*
X138976667Y-108982381D01*
X139071905Y-109030000D01*
X139119524Y-109077619D01*
X139167143Y-109172857D01*
X139167143Y-109315714D01*
X139119524Y-109410952D01*
X139071905Y-109458571D01*
X138976667Y-109506190D01*
X138595714Y-109506190D01*
X139500476Y-108982381D02*
X140119524Y-108982381D01*
X139786190Y-109363333D01*
X139929048Y-109363333D01*
X140024286Y-109410952D01*
X140071905Y-109458571D01*
X140119524Y-109553810D01*
X140119524Y-109791905D01*
X140071905Y-109887143D01*
X140024286Y-109934762D01*
X139929048Y-109982381D01*
X139643333Y-109982381D01*
X139548095Y-109934762D01*
X139500476Y-109887143D01*
X140595714Y-109982381D02*
X140786190Y-109982381D01*
X140881429Y-109934762D01*
X140929048Y-109887143D01*
X141024286Y-109744286D01*
X141071905Y-109553810D01*
X141071905Y-109172857D01*
X141024286Y-109077619D01*
X140976667Y-109030000D01*
X140881429Y-108982381D01*
X140690952Y-108982381D01*
X140595714Y-109030000D01*
X140548095Y-109077619D01*
X140500476Y-109172857D01*
X140500476Y-109410952D01*
X140548095Y-109506190D01*
X140595714Y-109553810D01*
X140690952Y-109601429D01*
X140881429Y-109601429D01*
X140976667Y-109553810D01*
X141024286Y-109506190D01*
X141071905Y-109410952D01*
X139157143Y-108792381D02*
X138823809Y-108316190D01*
X138585714Y-108792381D02*
X138585714Y-107792381D01*
X138966667Y-107792381D01*
X139061905Y-107840000D01*
X139109524Y-107887619D01*
X139157143Y-107982857D01*
X139157143Y-108125714D01*
X139109524Y-108220952D01*
X139061905Y-108268571D01*
X138966667Y-108316190D01*
X138585714Y-108316190D01*
X140014286Y-108125714D02*
X140014286Y-108792381D01*
X139776190Y-107744762D02*
X139538095Y-108459048D01*
X140157143Y-108459048D01*
X140728571Y-107792381D02*
X140823810Y-107792381D01*
X140919048Y-107840000D01*
X140966667Y-107887619D01*
X141014286Y-107982857D01*
X141061905Y-108173333D01*
X141061905Y-108411429D01*
X141014286Y-108601905D01*
X140966667Y-108697143D01*
X140919048Y-108744762D01*
X140823810Y-108792381D01*
X140728571Y-108792381D01*
X140633333Y-108744762D01*
X140585714Y-108697143D01*
X140538095Y-108601905D01*
X140490476Y-108411429D01*
X140490476Y-108173333D01*
X140538095Y-107982857D01*
X140585714Y-107887619D01*
X140633333Y-107840000D01*
X140728571Y-107792381D01*
X160912514Y-100510601D02*
X160579180Y-100034410D01*
X160341085Y-100510601D02*
X160341085Y-99510601D01*
X160722038Y-99510601D01*
X160817276Y-99558220D01*
X160864895Y-99605839D01*
X160912514Y-99701077D01*
X160912514Y-99843934D01*
X160864895Y-99939172D01*
X160817276Y-99986791D01*
X160722038Y-100034410D01*
X160341085Y-100034410D01*
X161245847Y-99510601D02*
X161864895Y-99510601D01*
X161531561Y-99891553D01*
X161674419Y-99891553D01*
X161769657Y-99939172D01*
X161817276Y-99986791D01*
X161864895Y-100082030D01*
X161864895Y-100320125D01*
X161817276Y-100415363D01*
X161769657Y-100462982D01*
X161674419Y-100510601D01*
X161388704Y-100510601D01*
X161293466Y-100462982D01*
X161245847Y-100415363D01*
X155697181Y-100039466D02*
X155220990Y-100372800D01*
X155697181Y-100610895D02*
X154697181Y-100610895D01*
X154697181Y-100229942D01*
X154744800Y-100134704D01*
X154792419Y-100087085D01*
X154887657Y-100039466D01*
X155030514Y-100039466D01*
X155125752Y-100087085D01*
X155173371Y-100134704D01*
X155220990Y-100229942D01*
X155220990Y-100610895D01*
X154697181Y-99182323D02*
X154697181Y-99372800D01*
X154744800Y-99468038D01*
X154792419Y-99515657D01*
X154935276Y-99610895D01*
X155125752Y-99658514D01*
X155506705Y-99658514D01*
X155601943Y-99610895D01*
X155649562Y-99563276D01*
X155697181Y-99468038D01*
X155697181Y-99277561D01*
X155649562Y-99182323D01*
X155601943Y-99134704D01*
X155506705Y-99087085D01*
X155268610Y-99087085D01*
X155173371Y-99134704D01*
X155125752Y-99182323D01*
X155078133Y-99277561D01*
X155078133Y-99468038D01*
X155125752Y-99563276D01*
X155173371Y-99610895D01*
X155268610Y-99658514D01*
X152936201Y-100232506D02*
X152460010Y-100565840D01*
X152936201Y-100803935D02*
X151936201Y-100803935D01*
X151936201Y-100422982D01*
X151983820Y-100327744D01*
X152031439Y-100280125D01*
X152126677Y-100232506D01*
X152269534Y-100232506D01*
X152364772Y-100280125D01*
X152412391Y-100327744D01*
X152460010Y-100422982D01*
X152460010Y-100803935D01*
X151936201Y-99899173D02*
X151936201Y-99232506D01*
X152936201Y-99661078D01*
X128180863Y-100213421D02*
X127847529Y-99737230D01*
X127609434Y-100213421D02*
X127609434Y-99213421D01*
X127990387Y-99213421D01*
X128085625Y-99261040D01*
X128133244Y-99308659D01*
X128180863Y-99403897D01*
X128180863Y-99546754D01*
X128133244Y-99641992D01*
X128085625Y-99689611D01*
X127990387Y-99737230D01*
X127609434Y-99737230D01*
X129133244Y-100213421D02*
X128561815Y-100213421D01*
X128847529Y-100213421D02*
X128847529Y-99213421D01*
X128752291Y-99356278D01*
X128657053Y-99451516D01*
X128561815Y-99499135D01*
X129752291Y-99213421D02*
X129847530Y-99213421D01*
X129942768Y-99261040D01*
X129990387Y-99308659D01*
X130038006Y-99403897D01*
X130085625Y-99594373D01*
X130085625Y-99832469D01*
X130038006Y-100022945D01*
X129990387Y-100118183D01*
X129942768Y-100165802D01*
X129847530Y-100213421D01*
X129752291Y-100213421D01*
X129657053Y-100165802D01*
X129609434Y-100118183D01*
X129561815Y-100022945D01*
X129514196Y-99832469D01*
X129514196Y-99594373D01*
X129561815Y-99403897D01*
X129609434Y-99308659D01*
X129657053Y-99261040D01*
X129752291Y-99213421D01*
X135130303Y-100137221D02*
X134796969Y-99661030D01*
X134558874Y-100137221D02*
X134558874Y-99137221D01*
X134939827Y-99137221D01*
X135035065Y-99184840D01*
X135082684Y-99232459D01*
X135130303Y-99327697D01*
X135130303Y-99470554D01*
X135082684Y-99565792D01*
X135035065Y-99613411D01*
X134939827Y-99661030D01*
X134558874Y-99661030D01*
X136082684Y-100137221D02*
X135511255Y-100137221D01*
X135796969Y-100137221D02*
X135796969Y-99137221D01*
X135701731Y-99280078D01*
X135606493Y-99375316D01*
X135511255Y-99422935D01*
X136463636Y-99232459D02*
X136511255Y-99184840D01*
X136606493Y-99137221D01*
X136844589Y-99137221D01*
X136939827Y-99184840D01*
X136987446Y-99232459D01*
X137035065Y-99327697D01*
X137035065Y-99422935D01*
X136987446Y-99565792D01*
X136416017Y-100137221D01*
X137035065Y-100137221D01*
X138867141Y-100795057D02*
X138390950Y-101128391D01*
X138867141Y-101366486D02*
X137867141Y-101366486D01*
X137867141Y-100985533D01*
X137914760Y-100890295D01*
X137962379Y-100842676D01*
X138057617Y-100795057D01*
X138200474Y-100795057D01*
X138295712Y-100842676D01*
X138343331Y-100890295D01*
X138390950Y-100985533D01*
X138390950Y-101366486D01*
X138867141Y-99842676D02*
X138867141Y-100414105D01*
X138867141Y-100128391D02*
X137867141Y-100128391D01*
X138009998Y-100223629D01*
X138105236Y-100318867D01*
X138152855Y-100414105D01*
X137867141Y-99509343D02*
X137867141Y-98890295D01*
X138248093Y-99223629D01*
X138248093Y-99080771D01*
X138295712Y-98985533D01*
X138343331Y-98937914D01*
X138438570Y-98890295D01*
X138676665Y-98890295D01*
X138771903Y-98937914D01*
X138819522Y-98985533D01*
X138867141Y-99080771D01*
X138867141Y-99366486D01*
X138819522Y-99461724D01*
X138771903Y-99509343D01*
X156014681Y-102794037D02*
X155538490Y-103127371D01*
X156014681Y-103365466D02*
X155014681Y-103365466D01*
X155014681Y-102984513D01*
X155062300Y-102889275D01*
X155109919Y-102841656D01*
X155205157Y-102794037D01*
X155348014Y-102794037D01*
X155443252Y-102841656D01*
X155490871Y-102889275D01*
X155538490Y-102984513D01*
X155538490Y-103365466D01*
X155014681Y-102460704D02*
X155014681Y-101841656D01*
X155395633Y-102174990D01*
X155395633Y-102032132D01*
X155443252Y-101936894D01*
X155490871Y-101889275D01*
X155586110Y-101841656D01*
X155824205Y-101841656D01*
X155919443Y-101889275D01*
X155967062Y-101936894D01*
X156014681Y-102032132D01*
X156014681Y-102317847D01*
X155967062Y-102413085D01*
X155919443Y-102460704D01*
X155014681Y-100984513D02*
X155014681Y-101174990D01*
X155062300Y-101270228D01*
X155109919Y-101317847D01*
X155252776Y-101413085D01*
X155443252Y-101460704D01*
X155824205Y-101460704D01*
X155919443Y-101413085D01*
X155967062Y-101365466D01*
X156014681Y-101270228D01*
X156014681Y-101079751D01*
X155967062Y-100984513D01*
X155919443Y-100936894D01*
X155824205Y-100889275D01*
X155586110Y-100889275D01*
X155490871Y-100936894D01*
X155443252Y-100984513D01*
X155395633Y-101079751D01*
X155395633Y-101270228D01*
X155443252Y-101365466D01*
X155490871Y-101413085D01*
X155586110Y-101460704D01*
X146788903Y-125176541D02*
X146455569Y-124700350D01*
X146217474Y-125176541D02*
X146217474Y-124176541D01*
X146598427Y-124176541D01*
X146693665Y-124224160D01*
X146741284Y-124271779D01*
X146788903Y-124367017D01*
X146788903Y-124509874D01*
X146741284Y-124605112D01*
X146693665Y-124652731D01*
X146598427Y-124700350D01*
X146217474Y-124700350D01*
X147646046Y-124509874D02*
X147646046Y-125176541D01*
X147407950Y-124128922D02*
X147169855Y-124843208D01*
X147788903Y-124843208D01*
X148646046Y-124176541D02*
X148169855Y-124176541D01*
X148122236Y-124652731D01*
X148169855Y-124605112D01*
X148265093Y-124557493D01*
X148503189Y-124557493D01*
X148598427Y-124605112D01*
X148646046Y-124652731D01*
X148693665Y-124747970D01*
X148693665Y-124986065D01*
X148646046Y-125081303D01*
X148598427Y-125128922D01*
X148503189Y-125176541D01*
X148265093Y-125176541D01*
X148169855Y-125128922D01*
X148122236Y-125081303D01*
X156359623Y-111811061D02*
X156026289Y-111334870D01*
X155788194Y-111811061D02*
X155788194Y-110811061D01*
X156169147Y-110811061D01*
X156264385Y-110858680D01*
X156312004Y-110906299D01*
X156359623Y-111001537D01*
X156359623Y-111144394D01*
X156312004Y-111239632D01*
X156264385Y-111287251D01*
X156169147Y-111334870D01*
X155788194Y-111334870D01*
X156740575Y-110906299D02*
X156788194Y-110858680D01*
X156883432Y-110811061D01*
X157121528Y-110811061D01*
X157216766Y-110858680D01*
X157264385Y-110906299D01*
X157312004Y-111001537D01*
X157312004Y-111096775D01*
X157264385Y-111239632D01*
X156692956Y-111811061D01*
X157312004Y-111811061D01*
X157883432Y-111239632D02*
X157788194Y-111192013D01*
X157740575Y-111144394D01*
X157692956Y-111049156D01*
X157692956Y-111001537D01*
X157740575Y-110906299D01*
X157788194Y-110858680D01*
X157883432Y-110811061D01*
X158073909Y-110811061D01*
X158169147Y-110858680D01*
X158216766Y-110906299D01*
X158264385Y-111001537D01*
X158264385Y-111049156D01*
X158216766Y-111144394D01*
X158169147Y-111192013D01*
X158073909Y-111239632D01*
X157883432Y-111239632D01*
X157788194Y-111287251D01*
X157740575Y-111334870D01*
X157692956Y-111430109D01*
X157692956Y-111620585D01*
X157740575Y-111715823D01*
X157788194Y-111763442D01*
X157883432Y-111811061D01*
X158073909Y-111811061D01*
X158169147Y-111763442D01*
X158216766Y-111715823D01*
X158264385Y-111620585D01*
X158264385Y-111430109D01*
X158216766Y-111334870D01*
X158169147Y-111287251D01*
X158073909Y-111239632D01*
X157639783Y-113015021D02*
X157306449Y-112538830D01*
X157068354Y-113015021D02*
X157068354Y-112015021D01*
X157449307Y-112015021D01*
X157544545Y-112062640D01*
X157592164Y-112110259D01*
X157639783Y-112205497D01*
X157639783Y-112348354D01*
X157592164Y-112443592D01*
X157544545Y-112491211D01*
X157449307Y-112538830D01*
X157068354Y-112538830D01*
X158020735Y-112110259D02*
X158068354Y-112062640D01*
X158163592Y-112015021D01*
X158401688Y-112015021D01*
X158496926Y-112062640D01*
X158544545Y-112110259D01*
X158592164Y-112205497D01*
X158592164Y-112300735D01*
X158544545Y-112443592D01*
X157973116Y-113015021D01*
X158592164Y-113015021D01*
X159068354Y-113015021D02*
X159258830Y-113015021D01*
X159354069Y-112967402D01*
X159401688Y-112919783D01*
X159496926Y-112776926D01*
X159544545Y-112586450D01*
X159544545Y-112205497D01*
X159496926Y-112110259D01*
X159449307Y-112062640D01*
X159354069Y-112015021D01*
X159163592Y-112015021D01*
X159068354Y-112062640D01*
X159020735Y-112110259D01*
X158973116Y-112205497D01*
X158973116Y-112443592D01*
X159020735Y-112538830D01*
X159068354Y-112586450D01*
X159163592Y-112634069D01*
X159354069Y-112634069D01*
X159449307Y-112586450D01*
X159496926Y-112538830D01*
X159544545Y-112443592D01*
X149311123Y-123276621D02*
X148977789Y-122800430D01*
X148739694Y-123276621D02*
X148739694Y-122276621D01*
X149120647Y-122276621D01*
X149215885Y-122324240D01*
X149263504Y-122371859D01*
X149311123Y-122467097D01*
X149311123Y-122609954D01*
X149263504Y-122705192D01*
X149215885Y-122752811D01*
X149120647Y-122800430D01*
X148739694Y-122800430D01*
X149644456Y-122276621D02*
X150263504Y-122276621D01*
X149930170Y-122657573D01*
X150073028Y-122657573D01*
X150168266Y-122705192D01*
X150215885Y-122752811D01*
X150263504Y-122848050D01*
X150263504Y-123086145D01*
X150215885Y-123181383D01*
X150168266Y-123229002D01*
X150073028Y-123276621D01*
X149787313Y-123276621D01*
X149692075Y-123229002D01*
X149644456Y-123181383D01*
X150596837Y-122276621D02*
X151215885Y-122276621D01*
X150882551Y-122657573D01*
X151025409Y-122657573D01*
X151120647Y-122705192D01*
X151168266Y-122752811D01*
X151215885Y-122848050D01*
X151215885Y-123086145D01*
X151168266Y-123181383D01*
X151120647Y-123229002D01*
X151025409Y-123276621D01*
X150739694Y-123276621D01*
X150644456Y-123229002D01*
X150596837Y-123181383D01*
X159227143Y-114282381D02*
X158893809Y-113806190D01*
X158655714Y-114282381D02*
X158655714Y-113282381D01*
X159036667Y-113282381D01*
X159131905Y-113330000D01*
X159179524Y-113377619D01*
X159227143Y-113472857D01*
X159227143Y-113615714D01*
X159179524Y-113710952D01*
X159131905Y-113758571D01*
X159036667Y-113806190D01*
X158655714Y-113806190D01*
X159560476Y-113282381D02*
X160179524Y-113282381D01*
X159846190Y-113663333D01*
X159989048Y-113663333D01*
X160084286Y-113710952D01*
X160131905Y-113758571D01*
X160179524Y-113853810D01*
X160179524Y-114091905D01*
X160131905Y-114187143D01*
X160084286Y-114234762D01*
X159989048Y-114282381D01*
X159703333Y-114282381D01*
X159608095Y-114234762D01*
X159560476Y-114187143D01*
X160798571Y-113282381D02*
X160893810Y-113282381D01*
X160989048Y-113330000D01*
X161036667Y-113377619D01*
X161084286Y-113472857D01*
X161131905Y-113663333D01*
X161131905Y-113901429D01*
X161084286Y-114091905D01*
X161036667Y-114187143D01*
X160989048Y-114234762D01*
X160893810Y-114282381D01*
X160798571Y-114282381D01*
X160703333Y-114234762D01*
X160655714Y-114187143D01*
X160608095Y-114091905D01*
X160560476Y-113901429D01*
X160560476Y-113663333D01*
X160608095Y-113472857D01*
X160655714Y-113377619D01*
X160703333Y-113330000D01*
X160798571Y-113282381D01*
X161242381Y-116452857D02*
X160766190Y-116786191D01*
X161242381Y-117024286D02*
X160242381Y-117024286D01*
X160242381Y-116643333D01*
X160290000Y-116548095D01*
X160337619Y-116500476D01*
X160432857Y-116452857D01*
X160575714Y-116452857D01*
X160670952Y-116500476D01*
X160718571Y-116548095D01*
X160766190Y-116643333D01*
X160766190Y-117024286D01*
X160242381Y-116119524D02*
X160242381Y-115500476D01*
X160623333Y-115833810D01*
X160623333Y-115690952D01*
X160670952Y-115595714D01*
X160718571Y-115548095D01*
X160813810Y-115500476D01*
X161051905Y-115500476D01*
X161147143Y-115548095D01*
X161194762Y-115595714D01*
X161242381Y-115690952D01*
X161242381Y-115976667D01*
X161194762Y-116071905D01*
X161147143Y-116119524D01*
X161242381Y-114548095D02*
X161242381Y-115119524D01*
X161242381Y-114833810D02*
X160242381Y-114833810D01*
X160385238Y-114929048D01*
X160480476Y-115024286D01*
X160528095Y-115119524D01*
X157546301Y-110005097D02*
X157070110Y-110338431D01*
X157546301Y-110576526D02*
X156546301Y-110576526D01*
X156546301Y-110195573D01*
X156593920Y-110100335D01*
X156641539Y-110052716D01*
X156736777Y-110005097D01*
X156879634Y-110005097D01*
X156974872Y-110052716D01*
X157022491Y-110100335D01*
X157070110Y-110195573D01*
X157070110Y-110576526D01*
X156546301Y-109671764D02*
X156546301Y-109052716D01*
X156927253Y-109386050D01*
X156927253Y-109243192D01*
X156974872Y-109147954D01*
X157022491Y-109100335D01*
X157117730Y-109052716D01*
X157355825Y-109052716D01*
X157451063Y-109100335D01*
X157498682Y-109147954D01*
X157546301Y-109243192D01*
X157546301Y-109528907D01*
X157498682Y-109624145D01*
X157451063Y-109671764D01*
X156641539Y-108671764D02*
X156593920Y-108624145D01*
X156546301Y-108528907D01*
X156546301Y-108290811D01*
X156593920Y-108195573D01*
X156641539Y-108147954D01*
X156736777Y-108100335D01*
X156832015Y-108100335D01*
X156974872Y-108147954D01*
X157546301Y-108719383D01*
X157546301Y-108100335D01*
X150156943Y-119476781D02*
X149823609Y-119000590D01*
X149585514Y-119476781D02*
X149585514Y-118476781D01*
X149966467Y-118476781D01*
X150061705Y-118524400D01*
X150109324Y-118572019D01*
X150156943Y-118667257D01*
X150156943Y-118810114D01*
X150109324Y-118905352D01*
X150061705Y-118952971D01*
X149966467Y-119000590D01*
X149585514Y-119000590D01*
X150490276Y-118476781D02*
X151109324Y-118476781D01*
X150775990Y-118857733D01*
X150918848Y-118857733D01*
X151014086Y-118905352D01*
X151061705Y-118952971D01*
X151109324Y-119048210D01*
X151109324Y-119286305D01*
X151061705Y-119381543D01*
X151014086Y-119429162D01*
X150918848Y-119476781D01*
X150633133Y-119476781D01*
X150537895Y-119429162D01*
X150490276Y-119381543D01*
X151966467Y-118810114D02*
X151966467Y-119476781D01*
X151728371Y-118429162D02*
X151490276Y-119143448D01*
X152109324Y-119143448D01*
X142877143Y-127832381D02*
X142543809Y-127356190D01*
X142305714Y-127832381D02*
X142305714Y-126832381D01*
X142686667Y-126832381D01*
X142781905Y-126880000D01*
X142829524Y-126927619D01*
X142877143Y-127022857D01*
X142877143Y-127165714D01*
X142829524Y-127260952D01*
X142781905Y-127308571D01*
X142686667Y-127356190D01*
X142305714Y-127356190D01*
X143210476Y-126832381D02*
X143829524Y-126832381D01*
X143496190Y-127213333D01*
X143639048Y-127213333D01*
X143734286Y-127260952D01*
X143781905Y-127308571D01*
X143829524Y-127403810D01*
X143829524Y-127641905D01*
X143781905Y-127737143D01*
X143734286Y-127784762D01*
X143639048Y-127832381D01*
X143353333Y-127832381D01*
X143258095Y-127784762D01*
X143210476Y-127737143D01*
X144734286Y-126832381D02*
X144258095Y-126832381D01*
X144210476Y-127308571D01*
X144258095Y-127260952D01*
X144353333Y-127213333D01*
X144591429Y-127213333D01*
X144686667Y-127260952D01*
X144734286Y-127308571D01*
X144781905Y-127403810D01*
X144781905Y-127641905D01*
X144734286Y-127737143D01*
X144686667Y-127784762D01*
X144591429Y-127832381D01*
X144353333Y-127832381D01*
X144258095Y-127784762D01*
X144210476Y-127737143D01*
X149887143Y-102922381D02*
X149553809Y-102446190D01*
X149315714Y-102922381D02*
X149315714Y-101922381D01*
X149696667Y-101922381D01*
X149791905Y-101970000D01*
X149839524Y-102017619D01*
X149887143Y-102112857D01*
X149887143Y-102255714D01*
X149839524Y-102350952D01*
X149791905Y-102398571D01*
X149696667Y-102446190D01*
X149315714Y-102446190D01*
X150220476Y-101922381D02*
X150839524Y-101922381D01*
X150506190Y-102303333D01*
X150649048Y-102303333D01*
X150744286Y-102350952D01*
X150791905Y-102398571D01*
X150839524Y-102493810D01*
X150839524Y-102731905D01*
X150791905Y-102827143D01*
X150744286Y-102874762D01*
X150649048Y-102922381D01*
X150363333Y-102922381D01*
X150268095Y-102874762D01*
X150220476Y-102827143D01*
X151172857Y-101922381D02*
X151839524Y-101922381D01*
X151410952Y-102922381D01*
X162115714Y-110672857D02*
X162115714Y-111644286D01*
X162172857Y-111758571D01*
X162230000Y-111815714D01*
X162344286Y-111872857D01*
X162572857Y-111872857D01*
X162687143Y-111815714D01*
X162744286Y-111758571D01*
X162801429Y-111644286D01*
X162801429Y-110672857D01*
X163315714Y-110787143D02*
X163372857Y-110730000D01*
X163487143Y-110672857D01*
X163772857Y-110672857D01*
X163887143Y-110730000D01*
X163944286Y-110787143D01*
X164001429Y-110901429D01*
X164001429Y-111015714D01*
X163944286Y-111187143D01*
X163258572Y-111872857D01*
X164001429Y-111872857D01*
X157151129Y-102282310D02*
X157151129Y-102758501D01*
X156817796Y-101758501D02*
X157151129Y-102282310D01*
X157484463Y-101758501D01*
X158341606Y-102758501D02*
X157770177Y-102758501D01*
X158055891Y-102758501D02*
X158055891Y-101758501D01*
X157960653Y-101901358D01*
X157865415Y-101996596D01*
X157770177Y-102044215D01*
X171714762Y-96891905D02*
X171762381Y-96749048D01*
X171762381Y-96510952D01*
X171714762Y-96415714D01*
X171667143Y-96368095D01*
X171571905Y-96320476D01*
X171476667Y-96320476D01*
X171381429Y-96368095D01*
X171333810Y-96415714D01*
X171286190Y-96510952D01*
X171238571Y-96701429D01*
X171190952Y-96796667D01*
X171143333Y-96844286D01*
X171048095Y-96891905D01*
X170952857Y-96891905D01*
X170857619Y-96844286D01*
X170810000Y-96796667D01*
X170762381Y-96701429D01*
X170762381Y-96463333D01*
X170810000Y-96320476D01*
X171762381Y-95368095D02*
X171762381Y-95939524D01*
X171762381Y-95653810D02*
X170762381Y-95653810D01*
X170905238Y-95749048D01*
X171000476Y-95844286D01*
X171048095Y-95939524D01*
X168607143Y-105276666D02*
X168654762Y-105324285D01*
X168702381Y-105467142D01*
X168702381Y-105562380D01*
X168654762Y-105705238D01*
X168559524Y-105800476D01*
X168464286Y-105848095D01*
X168273810Y-105895714D01*
X168130952Y-105895714D01*
X167940476Y-105848095D01*
X167845238Y-105800476D01*
X167750000Y-105705238D01*
X167702381Y-105562380D01*
X167702381Y-105467142D01*
X167750000Y-105324285D01*
X167797619Y-105276666D01*
X167797619Y-104895714D02*
X167750000Y-104848095D01*
X167702381Y-104752857D01*
X167702381Y-104514761D01*
X167750000Y-104419523D01*
X167797619Y-104371904D01*
X167892857Y-104324285D01*
X167988095Y-104324285D01*
X168130952Y-104371904D01*
X168702381Y-104943333D01*
X168702381Y-104324285D01*
X146417143Y-110037143D02*
X146369524Y-110084762D01*
X146226667Y-110132381D01*
X146131429Y-110132381D01*
X145988571Y-110084762D01*
X145893333Y-109989524D01*
X145845714Y-109894286D01*
X145798095Y-109703810D01*
X145798095Y-109560952D01*
X145845714Y-109370476D01*
X145893333Y-109275238D01*
X145988571Y-109180000D01*
X146131429Y-109132381D01*
X146226667Y-109132381D01*
X146369524Y-109180000D01*
X146417143Y-109227619D01*
X147369524Y-110132381D02*
X146798095Y-110132381D01*
X147083809Y-110132381D02*
X147083809Y-109132381D01*
X146988571Y-109275238D01*
X146893333Y-109370476D01*
X146798095Y-109418095D01*
X147988571Y-109132381D02*
X148083810Y-109132381D01*
X148179048Y-109180000D01*
X148226667Y-109227619D01*
X148274286Y-109322857D01*
X148321905Y-109513333D01*
X148321905Y-109751429D01*
X148274286Y-109941905D01*
X148226667Y-110037143D01*
X148179048Y-110084762D01*
X148083810Y-110132381D01*
X147988571Y-110132381D01*
X147893333Y-110084762D01*
X147845714Y-110037143D01*
X147798095Y-109941905D01*
X147750476Y-109751429D01*
X147750476Y-109513333D01*
X147798095Y-109322857D01*
X147845714Y-109227619D01*
X147893333Y-109180000D01*
X147988571Y-109132381D01*
X142707621Y-99993746D02*
X142231430Y-100327080D01*
X142707621Y-100565175D02*
X141707621Y-100565175D01*
X141707621Y-100184222D01*
X141755240Y-100088984D01*
X141802859Y-100041365D01*
X141898097Y-99993746D01*
X142040954Y-99993746D01*
X142136192Y-100041365D01*
X142183811Y-100088984D01*
X142231430Y-100184222D01*
X142231430Y-100565175D01*
X142707621Y-99517556D02*
X142707621Y-99327080D01*
X142660002Y-99231841D01*
X142612383Y-99184222D01*
X142469526Y-99088984D01*
X142279050Y-99041365D01*
X141898097Y-99041365D01*
X141802859Y-99088984D01*
X141755240Y-99136603D01*
X141707621Y-99231841D01*
X141707621Y-99422318D01*
X141755240Y-99517556D01*
X141802859Y-99565175D01*
X141898097Y-99612794D01*
X142136192Y-99612794D01*
X142231430Y-99565175D01*
X142279050Y-99517556D01*
X142326669Y-99422318D01*
X142326669Y-99231841D01*
X142279050Y-99136603D01*
X142231430Y-99088984D01*
X142136192Y-99041365D01*
X131217143Y-126172381D02*
X130883809Y-125696190D01*
X130645714Y-126172381D02*
X130645714Y-125172381D01*
X131026667Y-125172381D01*
X131121905Y-125220000D01*
X131169524Y-125267619D01*
X131217143Y-125362857D01*
X131217143Y-125505714D01*
X131169524Y-125600952D01*
X131121905Y-125648571D01*
X131026667Y-125696190D01*
X130645714Y-125696190D01*
X132169524Y-126172381D02*
X131598095Y-126172381D01*
X131883809Y-126172381D02*
X131883809Y-125172381D01*
X131788571Y-125315238D01*
X131693333Y-125410476D01*
X131598095Y-125458095D01*
X133026667Y-125172381D02*
X132836190Y-125172381D01*
X132740952Y-125220000D01*
X132693333Y-125267619D01*
X132598095Y-125410476D01*
X132550476Y-125600952D01*
X132550476Y-125981905D01*
X132598095Y-126077143D01*
X132645714Y-126124762D01*
X132740952Y-126172381D01*
X132931429Y-126172381D01*
X133026667Y-126124762D01*
X133074286Y-126077143D01*
X133121905Y-125981905D01*
X133121905Y-125743810D01*
X133074286Y-125648571D01*
X133026667Y-125600952D01*
X132931429Y-125553333D01*
X132740952Y-125553333D01*
X132645714Y-125600952D01*
X132598095Y-125648571D01*
X132550476Y-125743810D01*
X131372381Y-111832857D02*
X130896190Y-112166191D01*
X131372381Y-112404286D02*
X130372381Y-112404286D01*
X130372381Y-112023333D01*
X130420000Y-111928095D01*
X130467619Y-111880476D01*
X130562857Y-111832857D01*
X130705714Y-111832857D01*
X130800952Y-111880476D01*
X130848571Y-111928095D01*
X130896190Y-112023333D01*
X130896190Y-112404286D01*
X131372381Y-110880476D02*
X131372381Y-111451905D01*
X131372381Y-111166191D02*
X130372381Y-111166191D01*
X130515238Y-111261429D01*
X130610476Y-111356667D01*
X130658095Y-111451905D01*
X130372381Y-110547143D02*
X130372381Y-109880476D01*
X131372381Y-110309048D01*
X129902381Y-111832857D02*
X129426190Y-112166191D01*
X129902381Y-112404286D02*
X128902381Y-112404286D01*
X128902381Y-112023333D01*
X128950000Y-111928095D01*
X128997619Y-111880476D01*
X129092857Y-111832857D01*
X129235714Y-111832857D01*
X129330952Y-111880476D01*
X129378571Y-111928095D01*
X129426190Y-112023333D01*
X129426190Y-112404286D01*
X129902381Y-110880476D02*
X129902381Y-111451905D01*
X129902381Y-111166191D02*
X128902381Y-111166191D01*
X129045238Y-111261429D01*
X129140476Y-111356667D01*
X129188095Y-111451905D01*
X129330952Y-110309048D02*
X129283333Y-110404286D01*
X129235714Y-110451905D01*
X129140476Y-110499524D01*
X129092857Y-110499524D01*
X128997619Y-110451905D01*
X128950000Y-110404286D01*
X128902381Y-110309048D01*
X128902381Y-110118571D01*
X128950000Y-110023333D01*
X128997619Y-109975714D01*
X129092857Y-109928095D01*
X129140476Y-109928095D01*
X129235714Y-109975714D01*
X129283333Y-110023333D01*
X129330952Y-110118571D01*
X129330952Y-110309048D01*
X129378571Y-110404286D01*
X129426190Y-110451905D01*
X129521429Y-110499524D01*
X129711905Y-110499524D01*
X129807143Y-110451905D01*
X129854762Y-110404286D01*
X129902381Y-110309048D01*
X129902381Y-110118571D01*
X129854762Y-110023333D01*
X129807143Y-109975714D01*
X129711905Y-109928095D01*
X129521429Y-109928095D01*
X129426190Y-109975714D01*
X129378571Y-110023333D01*
X129330952Y-110118571D01*
X125747143Y-114852381D02*
X125413809Y-114376190D01*
X125175714Y-114852381D02*
X125175714Y-113852381D01*
X125556667Y-113852381D01*
X125651905Y-113900000D01*
X125699524Y-113947619D01*
X125747143Y-114042857D01*
X125747143Y-114185714D01*
X125699524Y-114280952D01*
X125651905Y-114328571D01*
X125556667Y-114376190D01*
X125175714Y-114376190D01*
X126699524Y-114852381D02*
X126128095Y-114852381D01*
X126413809Y-114852381D02*
X126413809Y-113852381D01*
X126318571Y-113995238D01*
X126223333Y-114090476D01*
X126128095Y-114138095D01*
X127175714Y-114852381D02*
X127366190Y-114852381D01*
X127461429Y-114804762D01*
X127509048Y-114757143D01*
X127604286Y-114614286D01*
X127651905Y-114423810D01*
X127651905Y-114042857D01*
X127604286Y-113947619D01*
X127556667Y-113900000D01*
X127461429Y-113852381D01*
X127270952Y-113852381D01*
X127175714Y-113900000D01*
X127128095Y-113947619D01*
X127080476Y-114042857D01*
X127080476Y-114280952D01*
X127128095Y-114376190D01*
X127175714Y-114423810D01*
X127270952Y-114471429D01*
X127461429Y-114471429D01*
X127556667Y-114423810D01*
X127604286Y-114376190D01*
X127651905Y-114280952D01*
X166677143Y-110962381D02*
X166343809Y-110486190D01*
X166105714Y-110962381D02*
X166105714Y-109962381D01*
X166486667Y-109962381D01*
X166581905Y-110010000D01*
X166629524Y-110057619D01*
X166677143Y-110152857D01*
X166677143Y-110295714D01*
X166629524Y-110390952D01*
X166581905Y-110438571D01*
X166486667Y-110486190D01*
X166105714Y-110486190D01*
X167058095Y-110057619D02*
X167105714Y-110010000D01*
X167200952Y-109962381D01*
X167439048Y-109962381D01*
X167534286Y-110010000D01*
X167581905Y-110057619D01*
X167629524Y-110152857D01*
X167629524Y-110248095D01*
X167581905Y-110390952D01*
X167010476Y-110962381D01*
X167629524Y-110962381D01*
X168581905Y-110962381D02*
X168010476Y-110962381D01*
X168296190Y-110962381D02*
X168296190Y-109962381D01*
X168200952Y-110105238D01*
X168105714Y-110200476D01*
X168010476Y-110248095D01*
X167107143Y-109762381D02*
X166773809Y-109286190D01*
X166535714Y-109762381D02*
X166535714Y-108762381D01*
X166916667Y-108762381D01*
X167011905Y-108810000D01*
X167059524Y-108857619D01*
X167107143Y-108952857D01*
X167107143Y-109095714D01*
X167059524Y-109190952D01*
X167011905Y-109238571D01*
X166916667Y-109286190D01*
X166535714Y-109286190D01*
X167488095Y-108857619D02*
X167535714Y-108810000D01*
X167630952Y-108762381D01*
X167869048Y-108762381D01*
X167964286Y-108810000D01*
X168011905Y-108857619D01*
X168059524Y-108952857D01*
X168059524Y-109048095D01*
X168011905Y-109190952D01*
X167440476Y-109762381D01*
X168059524Y-109762381D01*
X168440476Y-108857619D02*
X168488095Y-108810000D01*
X168583333Y-108762381D01*
X168821429Y-108762381D01*
X168916667Y-108810000D01*
X168964286Y-108857619D01*
X169011905Y-108952857D01*
X169011905Y-109048095D01*
X168964286Y-109190952D01*
X168392857Y-109762381D01*
X169011905Y-109762381D01*
X129577143Y-114902381D02*
X129243809Y-114426190D01*
X129005714Y-114902381D02*
X129005714Y-113902381D01*
X129386667Y-113902381D01*
X129481905Y-113950000D01*
X129529524Y-113997619D01*
X129577143Y-114092857D01*
X129577143Y-114235714D01*
X129529524Y-114330952D01*
X129481905Y-114378571D01*
X129386667Y-114426190D01*
X129005714Y-114426190D01*
X129958095Y-113997619D02*
X130005714Y-113950000D01*
X130100952Y-113902381D01*
X130339048Y-113902381D01*
X130434286Y-113950000D01*
X130481905Y-113997619D01*
X130529524Y-114092857D01*
X130529524Y-114188095D01*
X130481905Y-114330952D01*
X129910476Y-114902381D01*
X130529524Y-114902381D01*
X130862857Y-113902381D02*
X131481905Y-113902381D01*
X131148571Y-114283333D01*
X131291429Y-114283333D01*
X131386667Y-114330952D01*
X131434286Y-114378571D01*
X131481905Y-114473810D01*
X131481905Y-114711905D01*
X131434286Y-114807143D01*
X131386667Y-114854762D01*
X131291429Y-114902381D01*
X131005714Y-114902381D01*
X130910476Y-114854762D01*
X130862857Y-114807143D01*
X148212667Y-117819563D02*
X148785087Y-118391983D01*
X148886102Y-118425655D01*
X148953445Y-118425655D01*
X149054460Y-118391983D01*
X149189148Y-118257295D01*
X149222820Y-118156280D01*
X149222820Y-118088937D01*
X149189148Y-117987922D01*
X148616728Y-117415502D01*
X150030942Y-117415502D02*
X149626880Y-117819563D01*
X149828911Y-117617533D02*
X149121804Y-116910426D01*
X149155476Y-117078785D01*
X149155476Y-117213471D01*
X149121804Y-117314487D01*
X151287143Y-105612381D02*
X150953809Y-105136190D01*
X150715714Y-105612381D02*
X150715714Y-104612381D01*
X151096667Y-104612381D01*
X151191905Y-104660000D01*
X151239524Y-104707619D01*
X151287143Y-104802857D01*
X151287143Y-104945714D01*
X151239524Y-105040952D01*
X151191905Y-105088571D01*
X151096667Y-105136190D01*
X150715714Y-105136190D01*
X152144286Y-104945714D02*
X152144286Y-105612381D01*
X151906190Y-104564762D02*
X151668095Y-105279048D01*
X152287143Y-105279048D01*
X153096667Y-104612381D02*
X152906190Y-104612381D01*
X152810952Y-104660000D01*
X152763333Y-104707619D01*
X152668095Y-104850476D01*
X152620476Y-105040952D01*
X152620476Y-105421905D01*
X152668095Y-105517143D01*
X152715714Y-105564762D01*
X152810952Y-105612381D01*
X153001429Y-105612381D01*
X153096667Y-105564762D01*
X153144286Y-105517143D01*
X153191905Y-105421905D01*
X153191905Y-105183810D01*
X153144286Y-105088571D01*
X153096667Y-105040952D01*
X153001429Y-104993333D01*
X152810952Y-104993333D01*
X152715714Y-105040952D01*
X152668095Y-105088571D01*
X152620476Y-105183810D01*
X167407143Y-94242381D02*
X167073809Y-93766190D01*
X166835714Y-94242381D02*
X166835714Y-93242381D01*
X167216667Y-93242381D01*
X167311905Y-93290000D01*
X167359524Y-93337619D01*
X167407143Y-93432857D01*
X167407143Y-93575714D01*
X167359524Y-93670952D01*
X167311905Y-93718571D01*
X167216667Y-93766190D01*
X166835714Y-93766190D01*
X168264286Y-93575714D02*
X168264286Y-94242381D01*
X168026190Y-93194762D02*
X167788095Y-93909048D01*
X168407143Y-93909048D01*
X168692857Y-93242381D02*
X169359524Y-93242381D01*
X168930952Y-94242381D01*
X167477143Y-97712381D02*
X167143809Y-97236190D01*
X166905714Y-97712381D02*
X166905714Y-96712381D01*
X167286667Y-96712381D01*
X167381905Y-96760000D01*
X167429524Y-96807619D01*
X167477143Y-96902857D01*
X167477143Y-97045714D01*
X167429524Y-97140952D01*
X167381905Y-97188571D01*
X167286667Y-97236190D01*
X166905714Y-97236190D01*
X168334286Y-97045714D02*
X168334286Y-97712381D01*
X168096190Y-96664762D02*
X167858095Y-97379048D01*
X168477143Y-97379048D01*
X169000952Y-97140952D02*
X168905714Y-97093333D01*
X168858095Y-97045714D01*
X168810476Y-96950476D01*
X168810476Y-96902857D01*
X168858095Y-96807619D01*
X168905714Y-96760000D01*
X169000952Y-96712381D01*
X169191429Y-96712381D01*
X169286667Y-96760000D01*
X169334286Y-96807619D01*
X169381905Y-96902857D01*
X169381905Y-96950476D01*
X169334286Y-97045714D01*
X169286667Y-97093333D01*
X169191429Y-97140952D01*
X169000952Y-97140952D01*
X168905714Y-97188571D01*
X168858095Y-97236190D01*
X168810476Y-97331429D01*
X168810476Y-97521905D01*
X168858095Y-97617143D01*
X168905714Y-97664762D01*
X169000952Y-97712381D01*
X169191429Y-97712381D01*
X169286667Y-97664762D01*
X169334286Y-97617143D01*
X169381905Y-97521905D01*
X169381905Y-97331429D01*
X169334286Y-97236190D01*
X169286667Y-97188571D01*
X169191429Y-97140952D01*
X164727143Y-95342381D02*
X164393809Y-94866190D01*
X164155714Y-95342381D02*
X164155714Y-94342381D01*
X164536667Y-94342381D01*
X164631905Y-94390000D01*
X164679524Y-94437619D01*
X164727143Y-94532857D01*
X164727143Y-94675714D01*
X164679524Y-94770952D01*
X164631905Y-94818571D01*
X164536667Y-94866190D01*
X164155714Y-94866190D01*
X165584286Y-94675714D02*
X165584286Y-95342381D01*
X165346190Y-94294762D02*
X165108095Y-95009048D01*
X165727143Y-95009048D01*
X166155714Y-95342381D02*
X166346190Y-95342381D01*
X166441429Y-95294762D01*
X166489048Y-95247143D01*
X166584286Y-95104286D01*
X166631905Y-94913810D01*
X166631905Y-94532857D01*
X166584286Y-94437619D01*
X166536667Y-94390000D01*
X166441429Y-94342381D01*
X166250952Y-94342381D01*
X166155714Y-94390000D01*
X166108095Y-94437619D01*
X166060476Y-94532857D01*
X166060476Y-94770952D01*
X166108095Y-94866190D01*
X166155714Y-94913810D01*
X166250952Y-94961429D01*
X166441429Y-94961429D01*
X166536667Y-94913810D01*
X166584286Y-94866190D01*
X166631905Y-94770952D01*
X164647143Y-93972381D02*
X164313809Y-93496190D01*
X164075714Y-93972381D02*
X164075714Y-92972381D01*
X164456667Y-92972381D01*
X164551905Y-93020000D01*
X164599524Y-93067619D01*
X164647143Y-93162857D01*
X164647143Y-93305714D01*
X164599524Y-93400952D01*
X164551905Y-93448571D01*
X164456667Y-93496190D01*
X164075714Y-93496190D01*
X165551905Y-92972381D02*
X165075714Y-92972381D01*
X165028095Y-93448571D01*
X165075714Y-93400952D01*
X165170952Y-93353333D01*
X165409048Y-93353333D01*
X165504286Y-93400952D01*
X165551905Y-93448571D01*
X165599524Y-93543810D01*
X165599524Y-93781905D01*
X165551905Y-93877143D01*
X165504286Y-93924762D01*
X165409048Y-93972381D01*
X165170952Y-93972381D01*
X165075714Y-93924762D01*
X165028095Y-93877143D01*
X166218571Y-92972381D02*
X166313810Y-92972381D01*
X166409048Y-93020000D01*
X166456667Y-93067619D01*
X166504286Y-93162857D01*
X166551905Y-93353333D01*
X166551905Y-93591429D01*
X166504286Y-93781905D01*
X166456667Y-93877143D01*
X166409048Y-93924762D01*
X166313810Y-93972381D01*
X166218571Y-93972381D01*
X166123333Y-93924762D01*
X166075714Y-93877143D01*
X166028095Y-93781905D01*
X165980476Y-93591429D01*
X165980476Y-93353333D01*
X166028095Y-93162857D01*
X166075714Y-93067619D01*
X166123333Y-93020000D01*
X166218571Y-92972381D01*
X167557143Y-95902381D02*
X167223809Y-95426190D01*
X166985714Y-95902381D02*
X166985714Y-94902381D01*
X167366667Y-94902381D01*
X167461905Y-94950000D01*
X167509524Y-94997619D01*
X167557143Y-95092857D01*
X167557143Y-95235714D01*
X167509524Y-95330952D01*
X167461905Y-95378571D01*
X167366667Y-95426190D01*
X166985714Y-95426190D01*
X168461905Y-94902381D02*
X167985714Y-94902381D01*
X167938095Y-95378571D01*
X167985714Y-95330952D01*
X168080952Y-95283333D01*
X168319048Y-95283333D01*
X168414286Y-95330952D01*
X168461905Y-95378571D01*
X168509524Y-95473810D01*
X168509524Y-95711905D01*
X168461905Y-95807143D01*
X168414286Y-95854762D01*
X168319048Y-95902381D01*
X168080952Y-95902381D01*
X167985714Y-95854762D01*
X167938095Y-95807143D01*
X169461905Y-95902381D02*
X168890476Y-95902381D01*
X169176190Y-95902381D02*
X169176190Y-94902381D01*
X169080952Y-95045238D01*
X168985714Y-95140476D01*
X168890476Y-95188095D01*
X164707143Y-96822381D02*
X164373809Y-96346190D01*
X164135714Y-96822381D02*
X164135714Y-95822381D01*
X164516667Y-95822381D01*
X164611905Y-95870000D01*
X164659524Y-95917619D01*
X164707143Y-96012857D01*
X164707143Y-96155714D01*
X164659524Y-96250952D01*
X164611905Y-96298571D01*
X164516667Y-96346190D01*
X164135714Y-96346190D01*
X165611905Y-95822381D02*
X165135714Y-95822381D01*
X165088095Y-96298571D01*
X165135714Y-96250952D01*
X165230952Y-96203333D01*
X165469048Y-96203333D01*
X165564286Y-96250952D01*
X165611905Y-96298571D01*
X165659524Y-96393810D01*
X165659524Y-96631905D01*
X165611905Y-96727143D01*
X165564286Y-96774762D01*
X165469048Y-96822381D01*
X165230952Y-96822381D01*
X165135714Y-96774762D01*
X165088095Y-96727143D01*
X166040476Y-95917619D02*
X166088095Y-95870000D01*
X166183333Y-95822381D01*
X166421429Y-95822381D01*
X166516667Y-95870000D01*
X166564286Y-95917619D01*
X166611905Y-96012857D01*
X166611905Y-96108095D01*
X166564286Y-96250952D01*
X165992857Y-96822381D01*
X166611905Y-96822381D01*
X126372381Y-105843333D02*
X127086667Y-105843333D01*
X127229524Y-105890953D01*
X127324762Y-105986191D01*
X127372381Y-106129048D01*
X127372381Y-106224286D01*
X126467619Y-105414762D02*
X126420000Y-105367143D01*
X126372381Y-105271905D01*
X126372381Y-105033809D01*
X126420000Y-104938571D01*
X126467619Y-104890952D01*
X126562857Y-104843333D01*
X126658095Y-104843333D01*
X126800952Y-104890952D01*
X127372381Y-105462381D01*
X127372381Y-104843333D01*
X168562381Y-100473333D02*
X169276667Y-100473333D01*
X169419524Y-100520953D01*
X169514762Y-100616191D01*
X169562381Y-100759048D01*
X169562381Y-100854286D01*
X168895714Y-99568571D02*
X169562381Y-99568571D01*
X168514762Y-99806667D02*
X169229048Y-100044762D01*
X169229048Y-99425714D01*
X130131905Y-108042381D02*
X130131905Y-107042381D01*
X130370000Y-107042381D01*
X130512858Y-107090000D01*
X130608096Y-107185238D01*
X130655715Y-107280476D01*
X130703334Y-107470952D01*
X130703334Y-107613810D01*
X130655715Y-107804286D01*
X130608096Y-107899524D01*
X130512858Y-107994762D01*
X130370000Y-108042381D01*
X130131905Y-108042381D01*
X131655715Y-108042381D02*
X131084286Y-108042381D01*
X131370000Y-108042381D02*
X131370000Y-107042381D01*
X131274762Y-107185238D01*
X131179524Y-107280476D01*
X131084286Y-107328095D01*
X163151905Y-101792381D02*
X163151905Y-100792381D01*
X163390000Y-100792381D01*
X163532858Y-100840000D01*
X163628096Y-100935238D01*
X163675715Y-101030476D01*
X163723334Y-101220952D01*
X163723334Y-101363810D01*
X163675715Y-101554286D01*
X163628096Y-101649524D01*
X163532858Y-101744762D01*
X163390000Y-101792381D01*
X163151905Y-101792381D01*
X164199524Y-101792381D02*
X164390000Y-101792381D01*
X164485239Y-101744762D01*
X164532858Y-101697143D01*
X164628096Y-101554286D01*
X164675715Y-101363810D01*
X164675715Y-100982857D01*
X164628096Y-100887619D01*
X164580477Y-100840000D01*
X164485239Y-100792381D01*
X164294762Y-100792381D01*
X164199524Y-100840000D01*
X164151905Y-100887619D01*
X164104286Y-100982857D01*
X164104286Y-101220952D01*
X164151905Y-101316190D01*
X164199524Y-101363810D01*
X164294762Y-101411429D01*
X164485239Y-101411429D01*
X164580477Y-101363810D01*
X164628096Y-101316190D01*
X164675715Y-101220952D01*
X125021905Y-126212381D02*
X125021905Y-125212381D01*
X125260000Y-125212381D01*
X125402858Y-125260000D01*
X125498096Y-125355238D01*
X125545715Y-125450476D01*
X125593334Y-125640952D01*
X125593334Y-125783810D01*
X125545715Y-125974286D01*
X125498096Y-126069524D01*
X125402858Y-126164762D01*
X125260000Y-126212381D01*
X125021905Y-126212381D01*
X125974286Y-125307619D02*
X126021905Y-125260000D01*
X126117143Y-125212381D01*
X126355239Y-125212381D01*
X126450477Y-125260000D01*
X126498096Y-125307619D01*
X126545715Y-125402857D01*
X126545715Y-125498095D01*
X126498096Y-125640952D01*
X125926667Y-126212381D01*
X126545715Y-126212381D01*
X127412381Y-111628095D02*
X126412381Y-111628095D01*
X126412381Y-111390000D01*
X126460000Y-111247142D01*
X126555238Y-111151904D01*
X126650476Y-111104285D01*
X126840952Y-111056666D01*
X126983810Y-111056666D01*
X127174286Y-111104285D01*
X127269524Y-111151904D01*
X127364762Y-111247142D01*
X127412381Y-111390000D01*
X127412381Y-111628095D01*
X126412381Y-110723333D02*
X126412381Y-110104285D01*
X126793333Y-110437619D01*
X126793333Y-110294761D01*
X126840952Y-110199523D01*
X126888571Y-110151904D01*
X126983810Y-110104285D01*
X127221905Y-110104285D01*
X127317143Y-110151904D01*
X127364762Y-110199523D01*
X127412381Y-110294761D01*
X127412381Y-110580476D01*
X127364762Y-110675714D01*
X127317143Y-110723333D01*
X128552381Y-111738095D02*
X127552381Y-111738095D01*
X127552381Y-111500000D01*
X127600000Y-111357142D01*
X127695238Y-111261904D01*
X127790476Y-111214285D01*
X127980952Y-111166666D01*
X128123810Y-111166666D01*
X128314286Y-111214285D01*
X128409524Y-111261904D01*
X128504762Y-111357142D01*
X128552381Y-111500000D01*
X128552381Y-111738095D01*
X127885714Y-110309523D02*
X128552381Y-110309523D01*
X127504762Y-110547619D02*
X128219048Y-110785714D01*
X128219048Y-110166666D01*
X126192381Y-111668095D02*
X125192381Y-111668095D01*
X125192381Y-111430000D01*
X125240000Y-111287142D01*
X125335238Y-111191904D01*
X125430476Y-111144285D01*
X125620952Y-111096666D01*
X125763810Y-111096666D01*
X125954286Y-111144285D01*
X126049524Y-111191904D01*
X126144762Y-111287142D01*
X126192381Y-111430000D01*
X126192381Y-111668095D01*
X125192381Y-110191904D02*
X125192381Y-110668095D01*
X125668571Y-110715714D01*
X125620952Y-110668095D01*
X125573333Y-110572857D01*
X125573333Y-110334761D01*
X125620952Y-110239523D01*
X125668571Y-110191904D01*
X125763810Y-110144285D01*
X126001905Y-110144285D01*
X126097143Y-110191904D01*
X126144762Y-110239523D01*
X126192381Y-110334761D01*
X126192381Y-110572857D01*
X126144762Y-110668095D01*
X126097143Y-110715714D01*
X170412381Y-109508095D02*
X169412381Y-109508095D01*
X169412381Y-109270000D01*
X169460000Y-109127142D01*
X169555238Y-109031904D01*
X169650476Y-108984285D01*
X169840952Y-108936666D01*
X169983810Y-108936666D01*
X170174286Y-108984285D01*
X170269524Y-109031904D01*
X170364762Y-109127142D01*
X170412381Y-109270000D01*
X170412381Y-109508095D01*
X169412381Y-108079523D02*
X169412381Y-108270000D01*
X169460000Y-108365238D01*
X169507619Y-108412857D01*
X169650476Y-108508095D01*
X169840952Y-108555714D01*
X170221905Y-108555714D01*
X170317143Y-108508095D01*
X170364762Y-108460476D01*
X170412381Y-108365238D01*
X170412381Y-108174761D01*
X170364762Y-108079523D01*
X170317143Y-108031904D01*
X170221905Y-107984285D01*
X169983810Y-107984285D01*
X169888571Y-108031904D01*
X169840952Y-108079523D01*
X169793333Y-108174761D01*
X169793333Y-108365238D01*
X169840952Y-108460476D01*
X169888571Y-108508095D01*
X169983810Y-108555714D01*
X171692381Y-109588095D02*
X170692381Y-109588095D01*
X170692381Y-109350000D01*
X170740000Y-109207142D01*
X170835238Y-109111904D01*
X170930476Y-109064285D01*
X171120952Y-109016666D01*
X171263810Y-109016666D01*
X171454286Y-109064285D01*
X171549524Y-109111904D01*
X171644762Y-109207142D01*
X171692381Y-109350000D01*
X171692381Y-109588095D01*
X170692381Y-108683333D02*
X170692381Y-108016666D01*
X171692381Y-108445238D01*
X172882381Y-109568095D02*
X171882381Y-109568095D01*
X171882381Y-109330000D01*
X171930000Y-109187142D01*
X172025238Y-109091904D01*
X172120476Y-109044285D01*
X172310952Y-108996666D01*
X172453810Y-108996666D01*
X172644286Y-109044285D01*
X172739524Y-109091904D01*
X172834762Y-109187142D01*
X172882381Y-109330000D01*
X172882381Y-109568095D01*
X172310952Y-108425238D02*
X172263333Y-108520476D01*
X172215714Y-108568095D01*
X172120476Y-108615714D01*
X172072857Y-108615714D01*
X171977619Y-108568095D01*
X171930000Y-108520476D01*
X171882381Y-108425238D01*
X171882381Y-108234761D01*
X171930000Y-108139523D01*
X171977619Y-108091904D01*
X172072857Y-108044285D01*
X172120476Y-108044285D01*
X172215714Y-108091904D01*
X172263333Y-108139523D01*
X172310952Y-108234761D01*
X172310952Y-108425238D01*
X172358571Y-108520476D01*
X172406190Y-108568095D01*
X172501429Y-108615714D01*
X172691905Y-108615714D01*
X172787143Y-108568095D01*
X172834762Y-108520476D01*
X172882381Y-108425238D01*
X172882381Y-108234761D01*
X172834762Y-108139523D01*
X172787143Y-108091904D01*
X172691905Y-108044285D01*
X172501429Y-108044285D01*
X172406190Y-108091904D01*
X172358571Y-108139523D01*
X172310952Y-108234761D01*
X131748705Y-130652781D02*
X131748705Y-129652781D01*
X132129658Y-129652781D01*
X132224896Y-129700400D01*
X132272515Y-129748019D01*
X132320134Y-129843257D01*
X132320134Y-129986114D01*
X132272515Y-130081352D01*
X132224896Y-130128971D01*
X132129658Y-130176590D01*
X131748705Y-130176590D01*
X133272515Y-130652781D02*
X132701086Y-130652781D01*
X132986800Y-130652781D02*
X132986800Y-129652781D01*
X132891562Y-129795638D01*
X132796324Y-129890876D01*
X132701086Y-129938495D01*
X126467619Y-121215238D02*
X126420000Y-121310476D01*
X126324762Y-121405714D01*
X126181905Y-121548571D01*
X126134286Y-121643810D01*
X126134286Y-121739048D01*
X126372381Y-121691429D02*
X126324762Y-121786667D01*
X126229524Y-121881905D01*
X126039048Y-121929524D01*
X125705714Y-121929524D01*
X125515238Y-121881905D01*
X125420000Y-121786667D01*
X125372381Y-121691429D01*
X125372381Y-121500952D01*
X125420000Y-121405714D01*
X125515238Y-121310476D01*
X125705714Y-121262857D01*
X126039048Y-121262857D01*
X126229524Y-121310476D01*
X126324762Y-121405714D01*
X126372381Y-121500952D01*
X126372381Y-121691429D01*
X125467619Y-120881905D02*
X125420000Y-120834286D01*
X125372381Y-120739048D01*
X125372381Y-120500952D01*
X125420000Y-120405714D01*
X125467619Y-120358095D01*
X125562857Y-120310476D01*
X125658095Y-120310476D01*
X125800952Y-120358095D01*
X126372381Y-120929524D01*
X126372381Y-120310476D01*
X128672381Y-123312857D02*
X128196190Y-123646191D01*
X128672381Y-123884286D02*
X127672381Y-123884286D01*
X127672381Y-123503333D01*
X127720000Y-123408095D01*
X127767619Y-123360476D01*
X127862857Y-123312857D01*
X128005714Y-123312857D01*
X128100952Y-123360476D01*
X128148571Y-123408095D01*
X128196190Y-123503333D01*
X128196190Y-123884286D01*
X127672381Y-122408095D02*
X127672381Y-122884286D01*
X128148571Y-122931905D01*
X128100952Y-122884286D01*
X128053333Y-122789048D01*
X128053333Y-122550952D01*
X128100952Y-122455714D01*
X128148571Y-122408095D01*
X128243810Y-122360476D01*
X128481905Y-122360476D01*
X128577143Y-122408095D01*
X128624762Y-122455714D01*
X128672381Y-122550952D01*
X128672381Y-122789048D01*
X128624762Y-122884286D01*
X128577143Y-122931905D01*
X127672381Y-122027143D02*
X127672381Y-121408095D01*
X128053333Y-121741429D01*
X128053333Y-121598571D01*
X128100952Y-121503333D01*
X128148571Y-121455714D01*
X128243810Y-121408095D01*
X128481905Y-121408095D01*
X128577143Y-121455714D01*
X128624762Y-121503333D01*
X128672381Y-121598571D01*
X128672381Y-121884286D01*
X128624762Y-121979524D01*
X128577143Y-122027143D01*
X133312381Y-121152857D02*
X132836190Y-121486191D01*
X133312381Y-121724286D02*
X132312381Y-121724286D01*
X132312381Y-121343333D01*
X132360000Y-121248095D01*
X132407619Y-121200476D01*
X132502857Y-121152857D01*
X132645714Y-121152857D01*
X132740952Y-121200476D01*
X132788571Y-121248095D01*
X132836190Y-121343333D01*
X132836190Y-121724286D01*
X132312381Y-120248095D02*
X132312381Y-120724286D01*
X132788571Y-120771905D01*
X132740952Y-120724286D01*
X132693333Y-120629048D01*
X132693333Y-120390952D01*
X132740952Y-120295714D01*
X132788571Y-120248095D01*
X132883810Y-120200476D01*
X133121905Y-120200476D01*
X133217143Y-120248095D01*
X133264762Y-120295714D01*
X133312381Y-120390952D01*
X133312381Y-120629048D01*
X133264762Y-120724286D01*
X133217143Y-120771905D01*
X132645714Y-119343333D02*
X133312381Y-119343333D01*
X132264762Y-119581429D02*
X132979048Y-119819524D01*
X132979048Y-119200476D01*
M02*
