G04 #@! TF.FileFunction,Copper,L1,Top,Signal*
%FSLAX46Y46*%
G04 Gerber Fmt 4.6, Leading zero omitted, Abs format (unit mm)*
G04 Created by KiCad (PCBNEW 4.0.7) date 09/09/17 19:19:23*
%MOMM*%
%LPD*%
G01*
G04 APERTURE LIST*
%ADD10C,0.100000*%
%ADD11R,0.600000X0.400000*%
%ADD12R,0.600000X0.500000*%
%ADD13R,0.800000X0.750000*%
%ADD14R,0.500000X0.600000*%
%ADD15R,0.500000X0.900000*%
%ADD16R,1.727200X2.032000*%
%ADD17O,1.727200X2.032000*%
%ADD18R,0.400000X0.600000*%
%ADD19R,1.150000X1.400000*%
%ADD20R,0.300000X0.850000*%
%ADD21R,0.850000X0.300000*%
%ADD22R,1.300000X1.300000*%
%ADD23C,3.500000*%
%ADD24C,1.500000*%
%ADD25O,1.550000X1.550000*%
%ADD26R,1.550000X1.550000*%
%ADD27C,3.000000*%
%ADD28C,0.500000*%
%ADD29C,0.150000*%
%ADD30C,0.250000*%
%ADD31C,1.000000*%
%ADD32C,0.500000*%
%ADD33C,0.200000*%
G04 APERTURE END LIST*
D10*
D11*
X147828000Y-96081000D03*
X147828000Y-95181000D03*
D12*
X182187400Y-124202200D03*
X181087400Y-124202200D03*
X182167400Y-125629200D03*
X181067400Y-125629200D03*
X153247000Y-97155000D03*
X154347000Y-97155000D03*
X144187000Y-100507800D03*
X143087000Y-100507800D03*
D13*
X144260000Y-103251000D03*
X142760000Y-103251000D03*
D14*
X145542000Y-103082000D03*
X145542000Y-104182000D03*
D12*
X145076000Y-101676200D03*
X143976000Y-101676200D03*
D14*
X152146000Y-100542000D03*
X152146000Y-101642000D03*
D12*
X142409000Y-101981000D03*
X141309000Y-101981000D03*
D14*
X149225000Y-96308000D03*
X149225000Y-95208000D03*
X156718000Y-101769000D03*
X156718000Y-100669000D03*
X150368000Y-96308000D03*
X150368000Y-95208000D03*
D15*
X192393000Y-107061000D03*
X190893000Y-107061000D03*
D16*
X191295020Y-88646000D03*
D17*
X193835020Y-88646000D03*
X196375020Y-88646000D03*
X198915020Y-88646000D03*
D18*
X198379000Y-113780000D03*
X197479000Y-113780000D03*
X198863400Y-135644200D03*
X197963400Y-135644200D03*
X153347000Y-98298000D03*
X154247000Y-98298000D03*
D11*
X145288000Y-95181000D03*
X145288000Y-96081000D03*
X146685000Y-103182000D03*
X146685000Y-104082000D03*
X148590000Y-93922000D03*
X148590000Y-93022000D03*
X146558000Y-96081000D03*
X146558000Y-95181000D03*
X153570000Y-95990000D03*
X153570000Y-95090000D03*
D19*
X155232000Y-102573000D03*
X153632000Y-102573000D03*
X153632000Y-100373000D03*
X155232000Y-100373000D03*
D11*
X152019000Y-97859000D03*
X152019000Y-96959000D03*
D20*
X147213000Y-101899000D03*
X147713000Y-101899000D03*
X148213000Y-101899000D03*
X148713000Y-101899000D03*
X149213000Y-101899000D03*
X149713000Y-101899000D03*
D21*
X150413000Y-101199000D03*
X150413000Y-100699000D03*
X150413000Y-100199000D03*
X150413000Y-99699000D03*
X150413000Y-99199000D03*
X150413000Y-98699000D03*
D20*
X149713000Y-97999000D03*
X149213000Y-97999000D03*
X148713000Y-97999000D03*
X148213000Y-97999000D03*
X147713000Y-97999000D03*
X147213000Y-97999000D03*
D21*
X146513000Y-98699000D03*
X146513000Y-99199000D03*
X146513000Y-99699000D03*
X146513000Y-100199000D03*
X146513000Y-100699000D03*
X146513000Y-101199000D03*
D22*
X149113000Y-99299000D03*
X147813000Y-99299000D03*
X149113000Y-100599000D03*
X147813000Y-100599000D03*
D23*
X195635880Y-93619120D03*
D24*
X192925880Y-100889120D03*
D23*
X195635880Y-105659120D03*
D24*
X192925880Y-98389120D03*
X190925880Y-98389120D03*
X190925880Y-100889120D03*
D25*
X175520000Y-90120000D03*
X175520000Y-87580000D03*
D23*
X180690000Y-88650000D03*
D26*
X127260000Y-87580000D03*
D25*
X127260000Y-90120000D03*
X129800000Y-87580000D03*
X129800000Y-90120000D03*
X132340000Y-87580000D03*
X132340000Y-90120000D03*
X134880000Y-87580000D03*
X134880000Y-90120000D03*
X137420000Y-87580000D03*
X137420000Y-90120000D03*
X139960000Y-87580000D03*
X139960000Y-90120000D03*
X142500000Y-87580000D03*
X142500000Y-90120000D03*
X145040000Y-87580000D03*
X145040000Y-90120000D03*
X147580000Y-87580000D03*
X147580000Y-90120000D03*
X150120000Y-87580000D03*
X150120000Y-90120000D03*
X152660000Y-87580000D03*
X152660000Y-90120000D03*
X155200000Y-87580000D03*
X155200000Y-90120000D03*
X157740000Y-87580000D03*
X157740000Y-90120000D03*
D23*
X122690000Y-88650000D03*
D25*
X160280000Y-87580000D03*
X162820000Y-87580000D03*
X165360000Y-87580000D03*
X167900000Y-87580000D03*
X170440000Y-87580000D03*
X172980000Y-87580000D03*
X160280000Y-90120000D03*
X162820000Y-90120000D03*
X165360000Y-90120000D03*
X167900000Y-90120000D03*
X170440000Y-90120000D03*
X172980000Y-90120000D03*
D16*
X119656860Y-105097420D03*
D17*
X122196860Y-105097420D03*
X124736860Y-105097420D03*
X127276860Y-105097420D03*
X129816860Y-105097420D03*
X132356860Y-105097420D03*
X134896860Y-105097420D03*
X137436860Y-105097420D03*
D27*
X191940000Y-116860000D03*
D24*
X186100000Y-127785000D03*
X199890000Y-131230000D03*
X199890000Y-128690000D03*
X199890000Y-117980000D03*
X199890000Y-120520000D03*
D27*
X191940000Y-132350000D03*
D24*
X186100000Y-125245000D03*
X186100000Y-122705000D03*
X186100000Y-120165000D03*
X188640000Y-129045000D03*
X188640000Y-126505000D03*
X188640000Y-123965000D03*
X188640000Y-121425000D03*
D18*
X151490000Y-94860000D03*
X152390000Y-94860000D03*
D28*
X189870000Y-106620000D03*
X189890000Y-107380000D03*
X145160000Y-99700000D03*
X155030000Y-98210000D03*
X150620000Y-102300000D03*
X201460000Y-85900000D03*
X180720000Y-126330000D03*
X180750000Y-123340000D03*
X149606000Y-94615000D03*
X157480000Y-102489000D03*
X155702000Y-104267000D03*
X152146000Y-104267000D03*
X147813000Y-99299000D03*
X147813000Y-100599000D03*
X149113000Y-100599000D03*
X149113000Y-99299000D03*
X156718000Y-99898200D03*
X152400000Y-102489000D03*
X142240000Y-100457000D03*
X141224000Y-101346000D03*
X142748000Y-104013000D03*
X143383000Y-101473000D03*
X145669000Y-104800400D03*
X143637000Y-99720400D03*
X196410000Y-114040000D03*
X197118000Y-135441000D03*
X146888200Y-104622600D03*
X149860000Y-96647000D03*
X145415000Y-94538800D03*
X145310000Y-100500000D03*
X151420000Y-98950000D03*
X152550000Y-93950000D03*
X152138380Y-98638360D03*
X152390000Y-96030002D03*
X153320000Y-94260000D03*
X144430000Y-99250000D03*
X144720000Y-98370000D03*
X145545301Y-98260741D03*
D29*
X188640000Y-123965000D02*
X182424600Y-123965000D01*
X182424600Y-123965000D02*
X182187400Y-124202200D01*
D30*
X189849200Y-106620000D02*
X189870000Y-106620000D01*
X189839600Y-106629600D02*
X189849200Y-106620000D01*
X190119999Y-106869999D02*
X189870000Y-106620000D01*
X190271000Y-107021000D02*
X190119999Y-106869999D01*
X190271000Y-107061000D02*
X190271000Y-107021000D01*
X190209000Y-107061000D02*
X190139999Y-107130001D01*
X190271000Y-107061000D02*
X190209000Y-107061000D01*
X190139999Y-107130001D02*
X189890000Y-107380000D01*
X190893000Y-107061000D02*
X190271000Y-107061000D01*
D29*
X146513000Y-100199000D02*
X146438001Y-100124001D01*
X145812999Y-100049010D02*
X145791026Y-100049010D01*
X146438001Y-100124001D02*
X145867999Y-100124001D01*
X145867999Y-100124001D02*
X145812999Y-100069001D01*
X145812999Y-100069001D02*
X145812999Y-100049010D01*
X145791026Y-100049010D02*
X145662016Y-99920000D01*
X145662016Y-99920000D02*
X145380000Y-99920000D01*
X145380000Y-99920000D02*
X145160000Y-99700000D01*
X154942000Y-98298000D02*
X155030000Y-98210000D01*
X155030000Y-98210200D02*
X155030000Y-98210000D01*
X156718000Y-99898200D02*
X155030000Y-98210200D01*
X154247000Y-98298000D02*
X154942000Y-98298000D01*
X154347000Y-97155000D02*
X154347000Y-94457000D01*
X154347000Y-94457000D02*
X153144999Y-93254999D01*
X153144999Y-93254999D02*
X151871001Y-93254999D01*
X151871001Y-93254999D02*
X150368000Y-94758000D01*
X150368000Y-94758000D02*
X150368000Y-95208000D01*
X150620000Y-102582842D02*
X150620000Y-102300000D01*
X150620000Y-102741000D02*
X150620000Y-102582842D01*
X152146000Y-104267000D02*
X150620000Y-102741000D01*
X158333985Y-85890000D02*
X201450000Y-85890000D01*
X201450000Y-85890000D02*
X201460000Y-85900000D01*
X157740000Y-87580000D02*
X157740000Y-86483985D01*
X157740000Y-86483985D02*
X158333985Y-85890000D01*
D30*
X180866600Y-126330000D02*
X180720000Y-126330000D01*
X181067400Y-126129200D02*
X180866600Y-126330000D01*
X181067400Y-125629200D02*
X181067400Y-126129200D01*
X180949999Y-123539999D02*
X180750000Y-123340000D01*
X181087400Y-123677400D02*
X180949999Y-123539999D01*
X181087400Y-124202200D02*
X181087400Y-123677400D01*
D29*
X150368000Y-95208000D02*
X150199000Y-95208000D01*
X150199000Y-95208000D02*
X149606000Y-94615000D01*
X149225000Y-94996000D02*
X149606000Y-94615000D01*
X154347000Y-97155000D02*
X154347000Y-98198000D01*
X154347000Y-98198000D02*
X154247000Y-98298000D01*
X156718000Y-100669000D02*
X156930000Y-100669000D01*
X156930000Y-100669000D02*
X157480000Y-101219000D01*
X155702000Y-104267000D02*
X152146000Y-104267000D01*
X157480000Y-102489000D02*
X155702000Y-104267000D01*
X157480000Y-101219000D02*
X157480000Y-102489000D01*
D30*
X156718000Y-100669000D02*
X156259440Y-100669000D01*
X155999000Y-100373000D02*
X155232000Y-100373000D01*
X156138880Y-100512880D02*
X155999000Y-100373000D01*
X156138880Y-100548440D02*
X156138880Y-100512880D01*
X156259440Y-100669000D02*
X156138880Y-100548440D01*
D29*
X149225000Y-95208000D02*
X149225000Y-94996000D01*
X156718000Y-100669000D02*
X156718000Y-99898200D01*
X152590500Y-102298500D02*
X152400000Y-102489000D01*
X153632000Y-102573000D02*
X152865000Y-102573000D01*
X152865000Y-102573000D02*
X152590500Y-102298500D01*
X152590500Y-102298500D02*
X152146000Y-101854000D01*
X152146000Y-101854000D02*
X152146000Y-101642000D01*
X143087000Y-100507800D02*
X142290800Y-100507800D01*
X142290800Y-100507800D02*
X142240000Y-100457000D01*
X141309000Y-101981000D02*
X141309000Y-101431000D01*
X141309000Y-101431000D02*
X141224000Y-101346000D01*
X142760000Y-103251000D02*
X142760000Y-104001000D01*
X142760000Y-104001000D02*
X142748000Y-104013000D01*
X143976000Y-101676200D02*
X143586200Y-101676200D01*
X143586200Y-101676200D02*
X143383000Y-101473000D01*
X145542000Y-104182000D02*
X145542000Y-104673400D01*
X145542000Y-104673400D02*
X145669000Y-104800400D01*
X150413000Y-100199000D02*
X151489600Y-100199000D01*
X151489600Y-100199000D02*
X151968200Y-99720400D01*
X151968200Y-99720400D02*
X151968200Y-99676800D01*
X151968200Y-99676800D02*
X153347000Y-98298000D01*
X153247000Y-97155000D02*
X153247000Y-98198000D01*
X153247000Y-98198000D02*
X153347000Y-98298000D01*
X146513000Y-101199000D02*
X145711000Y-101199000D01*
X145711000Y-101199000D02*
X145690000Y-101220000D01*
X145690000Y-101220000D02*
X145585002Y-101115002D01*
X145585002Y-101115002D02*
X144844202Y-101115002D01*
X144844202Y-101115002D02*
X144237000Y-100507800D01*
X144237000Y-100507800D02*
X144187000Y-100507800D01*
X144187000Y-100507800D02*
X144187000Y-100270400D01*
X144187000Y-100270400D02*
X143637000Y-99720400D01*
X145542000Y-103082000D02*
X144429000Y-103082000D01*
X144429000Y-103082000D02*
X144260000Y-103251000D01*
X146685000Y-103182000D02*
X145642000Y-103182000D01*
X145642000Y-103182000D02*
X145542000Y-103082000D01*
X147713000Y-101899000D02*
X147713000Y-102654800D01*
X147713000Y-102654800D02*
X147185800Y-103182000D01*
X147185800Y-103182000D02*
X146685000Y-103182000D01*
X145076000Y-101676200D02*
X145076000Y-102066000D01*
X145076000Y-102066000D02*
X144653000Y-102489000D01*
X144653000Y-102489000D02*
X143637000Y-102489000D01*
X143637000Y-102489000D02*
X143129000Y-101981000D01*
X143129000Y-101981000D02*
X142409000Y-101981000D01*
X145897600Y-102057200D02*
X145457000Y-102057200D01*
X145457000Y-102057200D02*
X145076000Y-101676200D01*
X147213000Y-101899000D02*
X147213000Y-102291200D01*
X147213000Y-102291200D02*
X147066000Y-102438200D01*
X147066000Y-102438200D02*
X146278600Y-102438200D01*
X146278600Y-102438200D02*
X145897600Y-102057200D01*
X196670000Y-113780000D02*
X196659999Y-113790001D01*
X196659999Y-113790001D02*
X196410000Y-114040000D01*
X196913000Y-113780000D02*
X196670000Y-113780000D01*
X150368000Y-96308000D02*
X150768000Y-96308000D01*
X150768000Y-96308000D02*
X151490000Y-95586000D01*
X151490000Y-95586000D02*
X151490000Y-95310000D01*
X151490000Y-95310000D02*
X151490000Y-94860000D01*
D31*
X122196860Y-105097420D02*
X122196860Y-103081420D01*
X122196860Y-103081420D02*
X123210000Y-102068280D01*
X123210000Y-102068280D02*
X123210000Y-92570000D01*
X125510000Y-89390000D02*
X127260000Y-87640000D01*
X127260000Y-87640000D02*
X127260000Y-87580000D01*
X125510000Y-90240000D02*
X125510000Y-89390000D01*
X124820000Y-90930000D02*
X125510000Y-90240000D01*
X124820000Y-90960000D02*
X124820000Y-90930000D01*
X123210000Y-92570000D02*
X124820000Y-90960000D01*
D29*
X197963400Y-135644200D02*
X197194200Y-135644200D01*
X197118000Y-135568000D02*
X197118000Y-135441000D01*
X197194200Y-135644200D02*
X197118000Y-135568000D01*
X197479000Y-113780000D02*
X196913000Y-113780000D01*
X146685000Y-104419400D02*
X146888200Y-104622600D01*
X146685000Y-104082000D02*
X146685000Y-104419400D01*
X149521000Y-96308000D02*
X149860000Y-96647000D01*
X149521000Y-96308000D02*
X149225000Y-96308000D01*
X145288000Y-95181000D02*
X145288000Y-94665800D01*
X145288000Y-94665800D02*
X145415000Y-94538800D01*
X149225000Y-96308000D02*
X150368000Y-96308000D01*
X149213000Y-97999000D02*
X149213000Y-96320000D01*
X149213000Y-96320000D02*
X149225000Y-96308000D01*
X145509000Y-100699000D02*
X145310000Y-100500000D01*
X146513000Y-100699000D02*
X145509000Y-100699000D01*
X151220001Y-99149999D02*
X151420000Y-98950000D01*
X151171000Y-99199000D02*
X151220001Y-99149999D01*
X150413000Y-99199000D02*
X151171000Y-99199000D01*
X152390000Y-94110000D02*
X152550000Y-93950000D01*
X152390000Y-94860000D02*
X152390000Y-94110000D01*
X150988000Y-99699000D02*
X150413000Y-99699000D01*
X152138380Y-98991913D02*
X151431293Y-99699000D01*
X151431293Y-99699000D02*
X150988000Y-99699000D01*
X152138380Y-98638360D02*
X152138380Y-98991913D01*
X150413000Y-99699000D02*
X151387620Y-99699000D01*
X151303800Y-99699000D02*
X150413000Y-99699000D01*
X134880000Y-90120000D02*
X127276860Y-97723140D01*
X127276860Y-97723140D02*
X127276860Y-105097420D01*
X137420000Y-90120000D02*
X137420000Y-91216015D01*
X137420000Y-91216015D02*
X129816860Y-98819155D01*
X129816860Y-98819155D02*
X129816860Y-105097420D01*
X152019000Y-96401002D02*
X152190001Y-96230001D01*
X152019000Y-96959000D02*
X152019000Y-96401002D01*
X152190001Y-96230001D02*
X152390000Y-96030002D01*
X172980000Y-87580000D02*
X172205001Y-88354999D01*
X172205001Y-88354999D02*
X172195001Y-88354999D01*
X172195001Y-88354999D02*
X171660000Y-88890000D01*
X149530000Y-88890000D02*
X148850000Y-89570000D01*
X171660000Y-88890000D02*
X149530000Y-88890000D01*
X148850000Y-89570000D02*
X148850000Y-91450000D01*
X148850000Y-91450000D02*
X147828000Y-92472000D01*
X147828000Y-92472000D02*
X147828000Y-94488000D01*
X147828000Y-94488000D02*
X147828000Y-95181000D01*
X153519999Y-94459999D02*
X153320000Y-94260000D01*
X153570000Y-94510000D02*
X153519999Y-94459999D01*
X153570000Y-95090000D02*
X153570000Y-94510000D01*
X146513000Y-99699000D02*
X145936004Y-99699000D01*
X145936004Y-99699000D02*
X145372002Y-99134998D01*
X145372002Y-99134998D02*
X144898555Y-99134998D01*
X144783553Y-99250000D02*
X144430000Y-99250000D01*
X144898555Y-99134998D02*
X144783553Y-99250000D01*
X145134987Y-98784987D02*
X144969999Y-98619999D01*
X145930994Y-99199000D02*
X145516981Y-98784987D01*
X144969999Y-98619999D02*
X144720000Y-98370000D01*
X145516981Y-98784987D02*
X145134987Y-98784987D01*
X146513000Y-99199000D02*
X145930994Y-99199000D01*
X145799741Y-98260741D02*
X145545301Y-98260741D01*
X146238000Y-98699000D02*
X145799741Y-98260741D01*
X146513000Y-98699000D02*
X146238000Y-98699000D01*
X148590000Y-93022000D02*
X148659000Y-93022000D01*
X148659000Y-93022000D02*
X148844000Y-92837000D01*
X155200000Y-91500000D02*
X155200000Y-90120000D01*
X148844000Y-92837000D02*
X153863000Y-92837000D01*
X153863000Y-92837000D02*
X155200000Y-91500000D01*
X147213000Y-97999000D02*
X147213000Y-97556000D01*
X147213000Y-97556000D02*
X147066000Y-97409000D01*
X147066000Y-97409000D02*
X146616000Y-97409000D01*
X146616000Y-97409000D02*
X145288000Y-96081000D01*
X148213000Y-97999000D02*
X148213000Y-97286000D01*
X148213000Y-97286000D02*
X147828000Y-96901000D01*
X147828000Y-96901000D02*
X147828000Y-96081000D01*
X148713000Y-97999000D02*
X148713000Y-97151000D01*
X148713000Y-97151000D02*
X148590000Y-97028000D01*
X148590000Y-97028000D02*
X148590000Y-93922000D01*
X149713000Y-97999000D02*
X149713000Y-97724000D01*
X149713000Y-97724000D02*
X150553999Y-96883001D01*
X150553999Y-96883001D02*
X150838001Y-96883001D01*
X150838001Y-96883001D02*
X150893001Y-96828001D01*
X150893001Y-96828001D02*
X150893001Y-96658010D01*
X152620000Y-95490000D02*
X153120000Y-95990000D01*
X150893001Y-96658010D02*
X150912978Y-96658010D01*
X150912978Y-96658010D02*
X152080988Y-95490000D01*
X153120000Y-95990000D02*
X153570000Y-95990000D01*
X152080988Y-95490000D02*
X152620000Y-95490000D01*
X150413000Y-98699000D02*
X150881400Y-98699000D01*
X150881400Y-98699000D02*
X151721400Y-97859000D01*
X151721400Y-97859000D02*
X152019000Y-97859000D01*
D30*
X193067940Y-106542840D02*
X193067940Y-106631740D01*
X193067940Y-106631740D02*
X193497200Y-107061000D01*
X193067940Y-107061000D02*
X193067940Y-106542840D01*
X192393000Y-106455780D02*
X192393000Y-107061000D01*
X192529460Y-106319320D02*
X192393000Y-106455780D01*
X192844420Y-106319320D02*
X192529460Y-106319320D01*
X193067940Y-106542840D02*
X192844420Y-106319320D01*
D32*
X194287240Y-107061000D02*
X193497200Y-107061000D01*
D31*
X194234000Y-107061000D02*
X195635880Y-105659120D01*
D30*
X194287240Y-107061000D02*
X194234000Y-107061000D01*
D32*
X193497200Y-107061000D02*
X193067940Y-107061000D01*
X193067940Y-107061000D02*
X193052700Y-107061000D01*
D30*
X193052700Y-107061000D02*
X192393000Y-107061000D01*
D31*
X195635880Y-105659120D02*
X195635880Y-93619120D01*
D29*
X139960000Y-87580000D02*
X141300000Y-86240000D01*
X143700000Y-91376000D02*
X146558000Y-94234000D01*
X141300000Y-86240000D02*
X143050000Y-86240000D01*
X143050000Y-86240000D02*
X143700000Y-86890000D01*
X143700000Y-86890000D02*
X143700000Y-91376000D01*
X146558000Y-94234000D02*
X146558000Y-95181000D01*
X146558000Y-96081000D02*
X146558000Y-96520000D01*
X146558000Y-96520000D02*
X147066000Y-97028000D01*
X147066000Y-97028000D02*
X147320000Y-97028000D01*
X147320000Y-97028000D02*
X147713000Y-97421000D01*
X147713000Y-97421000D02*
X147713000Y-97999000D01*
X148213000Y-101899000D02*
X148213000Y-102536500D01*
X190360000Y-122150000D02*
X189805000Y-122705000D01*
X148213000Y-102536500D02*
X148313000Y-102636500D01*
X148313000Y-102636500D02*
X148313000Y-106145132D01*
X149857868Y-107690000D02*
X173747868Y-107690000D01*
X148313000Y-106145132D02*
X149857868Y-107690000D01*
X173747868Y-107690000D02*
X181377868Y-115320000D01*
X181377868Y-115320000D02*
X184457868Y-115320000D01*
X184457868Y-115320000D02*
X190360000Y-121222132D01*
X190360000Y-121222132D02*
X190360000Y-122150000D01*
X189805000Y-122705000D02*
X186100000Y-122705000D01*
D33*
X148213000Y-101899000D02*
X148213001Y-101899001D01*
D29*
X148713000Y-101899000D02*
X148713000Y-102536500D01*
X190660000Y-124485000D02*
X188640000Y-126505000D01*
X148713000Y-102536500D02*
X148613000Y-102636500D01*
X148613000Y-102636500D02*
X148613000Y-106020868D01*
X173872132Y-107390000D02*
X181502132Y-115020000D01*
X148613000Y-106020868D02*
X149982132Y-107390000D01*
X190660000Y-121097868D02*
X190660000Y-124485000D01*
X149982132Y-107390000D02*
X173872132Y-107390000D01*
X181502132Y-115020000D02*
X184582132Y-115020000D01*
X184582132Y-115020000D02*
X190660000Y-121097868D01*
D33*
X148713000Y-101899000D02*
X148712999Y-101899001D01*
D29*
X191530001Y-126864264D02*
X191812844Y-127147107D01*
X191444020Y-126685721D02*
X191458968Y-126751216D01*
X191444019Y-126618543D02*
X191444020Y-126685721D01*
X191812844Y-127571371D02*
X191760322Y-127613257D01*
X191812844Y-127147107D02*
X191854729Y-127199630D01*
X149713000Y-101899000D02*
X149640000Y-101972000D01*
X191898826Y-127392829D02*
X191883876Y-127458324D01*
X191458969Y-126553048D02*
X191444019Y-126618543D01*
X149640000Y-101972000D02*
X149640000Y-104297854D01*
X188925000Y-129045000D02*
X188640000Y-129045000D01*
X149640000Y-104297854D02*
X151032135Y-105689989D01*
X151032135Y-105689989D02*
X178202136Y-105689989D01*
X178202136Y-105689989D02*
X192580011Y-120067864D01*
X192580011Y-120067864D02*
X192580011Y-125389989D01*
X191854728Y-127518850D02*
X191812844Y-127571371D01*
X192580011Y-125389989D02*
X191530000Y-126440000D01*
X191530000Y-126440000D02*
X191488115Y-126492523D01*
X191634302Y-127657353D02*
X191567122Y-127657354D01*
X191488115Y-126492523D02*
X191458969Y-126553048D01*
X191458968Y-126751216D02*
X191488116Y-126811741D01*
X191488116Y-126811741D02*
X191530001Y-126864264D01*
X191854729Y-127199630D02*
X191883877Y-127260156D01*
X191883876Y-127458324D02*
X191854728Y-127518850D01*
X191883877Y-127260156D02*
X191898825Y-127325651D01*
X191898825Y-127325651D02*
X191898826Y-127392829D01*
X191760322Y-127613257D02*
X191699795Y-127642405D01*
X191699795Y-127642405D02*
X191634302Y-127657353D01*
X190733995Y-127246645D02*
X190681473Y-127288528D01*
X191567122Y-127657354D02*
X191501629Y-127642404D01*
X191441102Y-127613258D02*
X191388580Y-127571371D01*
X191501629Y-127642404D02*
X191441102Y-127613258D01*
X191105738Y-127288529D02*
X191053215Y-127246644D01*
X191388580Y-127571371D02*
X191105738Y-127288529D01*
X191053215Y-127246644D02*
X190992689Y-127217496D01*
X190992689Y-127217496D02*
X190927194Y-127202548D01*
X190927194Y-127202548D02*
X190860016Y-127202547D01*
X190860016Y-127202547D02*
X190794521Y-127217497D01*
X190794521Y-127217497D02*
X190733995Y-127246645D01*
X190681473Y-127288528D02*
X190575408Y-127394592D01*
X190575408Y-127394592D02*
X188925000Y-129045000D01*
D33*
X149712999Y-101899001D02*
X149713000Y-101899000D01*
D29*
X149213000Y-101899000D02*
X149337999Y-102023999D01*
X149337999Y-102504001D02*
X149339990Y-102505992D01*
X192280000Y-120192132D02*
X192280000Y-125265722D01*
X149337999Y-102023999D02*
X149337999Y-102504001D01*
X149339990Y-102505992D02*
X149339990Y-104422122D01*
X149339990Y-104422122D02*
X150907867Y-105990000D01*
X150907867Y-105990000D02*
X178077868Y-105990000D01*
X192280000Y-125265722D02*
X189760722Y-127785000D01*
X178077868Y-105990000D02*
X192280000Y-120192132D01*
X189760722Y-127785000D02*
X187160660Y-127785000D01*
X187160660Y-127785000D02*
X186100000Y-127785000D01*
D33*
X149213001Y-101899001D02*
X149213000Y-101899000D01*
D29*
X150413000Y-100699000D02*
X151989000Y-100699000D01*
X151989000Y-100699000D02*
X152146000Y-100542000D01*
X153632000Y-100373000D02*
X152315000Y-100373000D01*
X152315000Y-100373000D02*
X152146000Y-100542000D01*
X150413000Y-101199000D02*
X150856000Y-101199000D01*
X150856000Y-101199000D02*
X151257000Y-101600000D01*
X151257000Y-101600000D02*
X151257000Y-102616000D01*
X151257000Y-102616000D02*
X152400000Y-103759000D01*
X152400000Y-103759000D02*
X154559000Y-103759000D01*
X154559000Y-103759000D02*
X155232000Y-103086000D01*
X155232000Y-103086000D02*
X155232000Y-102573000D01*
X156718000Y-101769000D02*
X156718000Y-101981000D01*
X156718000Y-101981000D02*
X156126000Y-102573000D01*
X156126000Y-102573000D02*
X155232000Y-102573000D01*
X137436860Y-105097420D02*
X137436860Y-106263420D01*
X137436860Y-106263420D02*
X135720280Y-107980000D01*
X135720280Y-107980000D02*
X127250000Y-107980000D01*
X127250000Y-107980000D02*
X125980000Y-106710000D01*
X125980000Y-106710000D02*
X125980000Y-97260000D01*
X125980000Y-97260000D02*
X131040000Y-92200000D01*
X131040000Y-92200000D02*
X131040000Y-90730002D01*
X131050001Y-89659999D02*
X131860000Y-88850000D01*
X131040000Y-90730002D02*
X131050001Y-90720001D01*
X133610000Y-88850000D02*
X134105001Y-88354999D01*
X131050001Y-90720001D02*
X131050001Y-89659999D01*
X131860000Y-88850000D02*
X133610000Y-88850000D01*
X134105001Y-88354999D02*
X134880000Y-87580000D01*
X132356860Y-99343140D02*
X139960000Y-91740000D01*
X139960000Y-91740000D02*
X139960000Y-90120000D01*
X132356860Y-105097420D02*
X132356860Y-99343140D01*
X141150000Y-94460000D02*
X134896860Y-100713140D01*
X134896860Y-100713140D02*
X134896860Y-105097420D01*
X141150000Y-88930000D02*
X141150000Y-94460000D01*
X142500000Y-87580000D02*
X141150000Y-88930000D01*
X199890000Y-131230000D02*
X199890000Y-134967600D01*
X199890000Y-134967600D02*
X199213400Y-135644200D01*
X199213400Y-135644200D02*
X198863400Y-135644200D01*
X198863400Y-135644200D02*
X198863400Y-135662400D01*
X198379000Y-113780000D02*
X199060000Y-113780000D01*
X199060000Y-113780000D02*
X199890000Y-114610000D01*
X199890000Y-114610000D02*
X199890000Y-117980000D01*
X186100000Y-125245000D02*
X182551600Y-125245000D01*
X182551600Y-125245000D02*
X182167400Y-125629200D01*
X182321600Y-125475000D02*
X182167400Y-125629200D01*
M02*
