M48
;DRILL file {KiCad 4.0.7} date 09/09/17 19:19:27
;FORMAT={-:-/ absolute / metric / decimal}
FMAT,2
METRIC,TZ
T1C0.300
T2C0.800
T3C0.890
T4C0.920
T5C1.000
T6C1.016
T7C1.630
T8C2.300
%
G90
G05
M71
T1
X141.224Y-101.346
X142.24Y-100.457
X142.748Y-104.013
X143.383Y-101.473
X143.637Y-99.72
X144.43Y-99.25
X144.72Y-98.37
X145.16Y-99.7
X145.31Y-100.5
X145.415Y-94.539
X145.545Y-98.261
X145.669Y-104.8
X146.888Y-104.623
X147.813Y-99.299
X147.813Y-100.599
X149.113Y-99.299
X149.113Y-100.599
X149.606Y-94.615
X149.86Y-96.647
X150.62Y-102.3
X151.42Y-98.95
X152.138Y-98.638
X152.146Y-104.267
X152.39Y-96.03
X152.4Y-102.489
X152.55Y-93.95
X153.32Y-94.26
X155.03Y-98.21
X155.702Y-104.267
X156.718Y-99.898
X157.48Y-102.489
X180.72Y-126.33
X180.75Y-123.34
X189.87Y-106.62
X189.89Y-107.38
X196.41Y-114.04
X197.118Y-135.441
X201.46Y-85.9
T2
X199.89Y-117.98
X199.89Y-120.52
X199.89Y-128.69
X199.89Y-131.23
T3
X186.1Y-120.165
X186.1Y-122.705
X186.1Y-125.245
X186.1Y-127.785
X188.64Y-121.425
X188.64Y-123.965
X188.64Y-126.505
X188.64Y-129.045
T4
X190.926Y-98.389
X190.926Y-100.889
X192.926Y-98.389
X192.926Y-100.889
T5
X127.26Y-87.58
X127.26Y-90.12
X129.8Y-87.58
X129.8Y-90.12
X132.34Y-87.58
X132.34Y-90.12
X134.88Y-87.58
X134.88Y-90.12
X137.42Y-87.58
X137.42Y-90.12
X139.96Y-87.58
X139.96Y-90.12
X142.5Y-87.58
X142.5Y-90.12
X145.04Y-87.58
X145.04Y-90.12
X147.58Y-87.58
X147.58Y-90.12
X150.12Y-87.58
X150.12Y-90.12
X152.66Y-87.58
X152.66Y-90.12
X155.2Y-87.58
X155.2Y-90.12
X157.74Y-87.58
X157.74Y-90.12
X160.28Y-87.58
X160.28Y-90.12
X162.82Y-87.58
X162.82Y-90.12
X165.36Y-87.58
X165.36Y-90.12
X167.9Y-87.58
X167.9Y-90.12
X170.44Y-87.58
X170.44Y-90.12
X172.98Y-87.58
X172.98Y-90.12
X175.52Y-87.58
X175.52Y-90.12
T6
X119.657Y-105.097
X122.197Y-105.097
X124.737Y-105.097
X127.277Y-105.097
X129.817Y-105.097
X132.357Y-105.097
X134.897Y-105.097
X137.437Y-105.097
X191.295Y-88.646
X193.835Y-88.646
X196.375Y-88.646
X198.915Y-88.646
T7
X191.94Y-116.86
X191.94Y-132.35
T8
X195.636Y-93.619
X195.636Y-105.659
T0
M30
