G04 #@! TF.FileFunction,Copper,L2,Inr,Signal*
%FSLAX46Y46*%
G04 Gerber Fmt 4.6, Leading zero omitted, Abs format (unit mm)*
G04 Created by KiCad (PCBNEW 4.0.7) date 09/09/17 19:19:23*
%MOMM*%
%LPD*%
G01*
G04 APERTURE LIST*
%ADD10C,0.100000*%
%ADD11R,1.727200X2.032000*%
%ADD12O,1.727200X2.032000*%
%ADD13C,3.500000*%
%ADD14C,1.500000*%
%ADD15O,1.550000X1.550000*%
%ADD16R,1.550000X1.550000*%
%ADD17C,3.000000*%
%ADD18C,0.500000*%
%ADD19C,1.000000*%
%ADD20C,0.220000*%
G04 APERTURE END LIST*
D10*
D11*
X191295020Y-88646000D03*
D12*
X193835020Y-88646000D03*
X196375020Y-88646000D03*
X198915020Y-88646000D03*
D13*
X195635880Y-93619120D03*
D14*
X192925880Y-100889120D03*
D13*
X195635880Y-105659120D03*
D14*
X192925880Y-98389120D03*
X190925880Y-98389120D03*
X190925880Y-100889120D03*
D15*
X175520000Y-90120000D03*
X175520000Y-87580000D03*
D13*
X180690000Y-88650000D03*
D16*
X127260000Y-87580000D03*
D15*
X127260000Y-90120000D03*
X129800000Y-87580000D03*
X129800000Y-90120000D03*
X132340000Y-87580000D03*
X132340000Y-90120000D03*
X134880000Y-87580000D03*
X134880000Y-90120000D03*
X137420000Y-87580000D03*
X137420000Y-90120000D03*
X139960000Y-87580000D03*
X139960000Y-90120000D03*
X142500000Y-87580000D03*
X142500000Y-90120000D03*
X145040000Y-87580000D03*
X145040000Y-90120000D03*
X147580000Y-87580000D03*
X147580000Y-90120000D03*
X150120000Y-87580000D03*
X150120000Y-90120000D03*
X152660000Y-87580000D03*
X152660000Y-90120000D03*
X155200000Y-87580000D03*
X155200000Y-90120000D03*
X157740000Y-87580000D03*
X157740000Y-90120000D03*
D13*
X122690000Y-88650000D03*
D15*
X160280000Y-87580000D03*
X162820000Y-87580000D03*
X165360000Y-87580000D03*
X167900000Y-87580000D03*
X170440000Y-87580000D03*
X172980000Y-87580000D03*
X160280000Y-90120000D03*
X162820000Y-90120000D03*
X165360000Y-90120000D03*
X167900000Y-90120000D03*
X170440000Y-90120000D03*
X172980000Y-90120000D03*
D11*
X119656860Y-105097420D03*
D12*
X122196860Y-105097420D03*
X124736860Y-105097420D03*
X127276860Y-105097420D03*
X129816860Y-105097420D03*
X132356860Y-105097420D03*
X134896860Y-105097420D03*
X137436860Y-105097420D03*
D17*
X191940000Y-116860000D03*
D14*
X186100000Y-127785000D03*
X199890000Y-131230000D03*
X199890000Y-128690000D03*
X199890000Y-117980000D03*
X199890000Y-120520000D03*
D17*
X191940000Y-132350000D03*
D14*
X186100000Y-125245000D03*
X186100000Y-122705000D03*
X186100000Y-120165000D03*
X188640000Y-129045000D03*
X188640000Y-126505000D03*
X188640000Y-123965000D03*
X188640000Y-121425000D03*
D18*
X189870000Y-106620000D03*
X189890000Y-107380000D03*
X145160000Y-99700000D03*
X155030000Y-98210000D03*
X150620000Y-102300000D03*
X201460000Y-85900000D03*
X180720000Y-126330000D03*
X180750000Y-123340000D03*
X149606000Y-94615000D03*
X157480000Y-102489000D03*
X155702000Y-104267000D03*
X152146000Y-104267000D03*
X147813000Y-99299000D03*
X147813000Y-100599000D03*
X149113000Y-100599000D03*
X149113000Y-99299000D03*
X156718000Y-99898200D03*
X152400000Y-102489000D03*
X142240000Y-100457000D03*
X141224000Y-101346000D03*
X142748000Y-104013000D03*
X143383000Y-101473000D03*
X145669000Y-104800400D03*
X143637000Y-99720400D03*
X196410000Y-114040000D03*
X197118000Y-135441000D03*
X146888200Y-104622600D03*
X149860000Y-96647000D03*
X145415000Y-94538800D03*
X145310000Y-100500000D03*
X151420000Y-98950000D03*
X152550000Y-93950000D03*
X152138380Y-98638360D03*
X152390000Y-96030002D03*
X153320000Y-94260000D03*
X144430000Y-99250000D03*
X144720000Y-98370000D03*
X145545301Y-98260741D03*
D19*
X192925880Y-98389120D02*
X196250880Y-98389120D01*
X198915020Y-95724980D02*
X198915020Y-88646000D01*
X196250880Y-98389120D02*
X198915020Y-95724980D01*
X190925880Y-98389120D02*
X190925880Y-89015140D01*
X190925880Y-89015140D02*
X191295020Y-88646000D01*
D20*
G36*
X203503964Y-138255411D02*
X174323964Y-138255411D01*
X174323964Y-135561804D01*
X196507894Y-135561804D01*
X196600565Y-135786086D01*
X196772011Y-135957832D01*
X196996131Y-136050894D01*
X197238804Y-136051106D01*
X197463086Y-135958435D01*
X197634832Y-135786989D01*
X197727894Y-135562869D01*
X197728106Y-135320196D01*
X197635435Y-135095914D01*
X197463989Y-134924168D01*
X197239869Y-134831106D01*
X196997196Y-134830894D01*
X196772914Y-134923565D01*
X196601168Y-135095011D01*
X196508106Y-135319131D01*
X196507894Y-135561804D01*
X174323964Y-135561804D01*
X174323964Y-133662155D01*
X190755124Y-133662155D01*
X190929368Y-133894132D01*
X191597212Y-134163344D01*
X192317241Y-134156491D01*
X192950632Y-133894132D01*
X193124876Y-133662155D01*
X191940000Y-132477279D01*
X190755124Y-133662155D01*
X174323964Y-133662155D01*
X174323964Y-132007212D01*
X190126656Y-132007212D01*
X190133509Y-132727241D01*
X190395868Y-133360632D01*
X190627845Y-133534876D01*
X191812721Y-132350000D01*
X190627845Y-131165124D01*
X190395868Y-131339368D01*
X190126656Y-132007212D01*
X174323964Y-132007212D01*
X174323964Y-131037845D01*
X190755124Y-131037845D01*
X191940000Y-132222721D01*
X191954143Y-132208579D01*
X192081422Y-132335858D01*
X192067279Y-132350000D01*
X193252155Y-133534876D01*
X193484132Y-133360632D01*
X193753344Y-132692788D01*
X193746491Y-131972759D01*
X193683641Y-131821024D01*
X193864120Y-132001819D01*
X194593427Y-132304654D01*
X195383109Y-132305343D01*
X196112943Y-132003782D01*
X196667868Y-131449824D01*
X198779808Y-131449824D01*
X198948439Y-131857943D01*
X199260415Y-132170463D01*
X199668239Y-132339807D01*
X200109824Y-132340192D01*
X200517943Y-132171561D01*
X200830463Y-131859585D01*
X200999807Y-131451761D01*
X201000192Y-131010176D01*
X200831561Y-130602057D01*
X200519585Y-130289537D01*
X200111761Y-130120193D01*
X199670176Y-130119808D01*
X199262057Y-130288439D01*
X198949537Y-130600415D01*
X198780193Y-131008239D01*
X198779808Y-131449824D01*
X196667868Y-131449824D01*
X196671819Y-131445880D01*
X196974654Y-130716573D01*
X196975343Y-129926891D01*
X196673782Y-129197057D01*
X196387050Y-128909824D01*
X198779808Y-128909824D01*
X198948439Y-129317943D01*
X199260415Y-129630463D01*
X199668239Y-129799807D01*
X200109824Y-129800192D01*
X200517943Y-129631561D01*
X200830463Y-129319585D01*
X200999807Y-128911761D01*
X201000192Y-128470176D01*
X200831561Y-128062057D01*
X200519585Y-127749537D01*
X200111761Y-127580193D01*
X199670176Y-127579808D01*
X199262057Y-127748439D01*
X198949537Y-128060415D01*
X198780193Y-128468239D01*
X198779808Y-128909824D01*
X196387050Y-128909824D01*
X196115880Y-128638181D01*
X195386573Y-128335346D01*
X194596891Y-128334657D01*
X193867057Y-128636218D01*
X193308181Y-129194120D01*
X193005346Y-129923427D01*
X193004657Y-130713109D01*
X193134753Y-131027965D01*
X193124875Y-131037843D01*
X192950632Y-130805868D01*
X192282788Y-130536656D01*
X191562759Y-130543509D01*
X190929368Y-130805868D01*
X190755124Y-131037845D01*
X174323964Y-131037845D01*
X174323964Y-129264824D01*
X187529808Y-129264824D01*
X187698439Y-129672943D01*
X188010415Y-129985463D01*
X188418239Y-130154807D01*
X188859824Y-130155192D01*
X189267943Y-129986561D01*
X189580463Y-129674585D01*
X189749807Y-129266761D01*
X189750192Y-128825176D01*
X189581561Y-128417057D01*
X189269585Y-128104537D01*
X188861761Y-127935193D01*
X188420176Y-127934808D01*
X188012057Y-128103439D01*
X187699537Y-128415415D01*
X187530193Y-128823239D01*
X187529808Y-129264824D01*
X174323964Y-129264824D01*
X174323964Y-128004824D01*
X184989808Y-128004824D01*
X185158439Y-128412943D01*
X185470415Y-128725463D01*
X185878239Y-128894807D01*
X186319824Y-128895192D01*
X186727943Y-128726561D01*
X187040463Y-128414585D01*
X187209807Y-128006761D01*
X187210192Y-127565176D01*
X187041561Y-127157057D01*
X186729585Y-126844537D01*
X186441286Y-126724824D01*
X187529808Y-126724824D01*
X187698439Y-127132943D01*
X188010415Y-127445463D01*
X188418239Y-127614807D01*
X188859824Y-127615192D01*
X189267943Y-127446561D01*
X189580463Y-127134585D01*
X189749807Y-126726761D01*
X189750192Y-126285176D01*
X189581561Y-125877057D01*
X189269585Y-125564537D01*
X188861761Y-125395193D01*
X188420176Y-125394808D01*
X188012057Y-125563439D01*
X187699537Y-125875415D01*
X187530193Y-126283239D01*
X187529808Y-126724824D01*
X186441286Y-126724824D01*
X186321761Y-126675193D01*
X185880176Y-126674808D01*
X185472057Y-126843439D01*
X185159537Y-127155415D01*
X184990193Y-127563239D01*
X184989808Y-128004824D01*
X174323964Y-128004824D01*
X174323964Y-125464824D01*
X184989808Y-125464824D01*
X185158439Y-125872943D01*
X185470415Y-126185463D01*
X185878239Y-126354807D01*
X186319824Y-126355192D01*
X186727943Y-126186561D01*
X187040463Y-125874585D01*
X187209807Y-125466761D01*
X187210192Y-125025176D01*
X187041561Y-124617057D01*
X186729585Y-124304537D01*
X186441286Y-124184824D01*
X187529808Y-124184824D01*
X187698439Y-124592943D01*
X188010415Y-124905463D01*
X188418239Y-125074807D01*
X188859824Y-125075192D01*
X189267943Y-124906561D01*
X189580463Y-124594585D01*
X189749807Y-124186761D01*
X189750192Y-123745176D01*
X189581561Y-123337057D01*
X189269585Y-123024537D01*
X188861761Y-122855193D01*
X188420176Y-122854808D01*
X188012057Y-123023439D01*
X187699537Y-123335415D01*
X187530193Y-123743239D01*
X187529808Y-124184824D01*
X186441286Y-124184824D01*
X186321761Y-124135193D01*
X185880176Y-124134808D01*
X185472057Y-124303439D01*
X185159537Y-124615415D01*
X184990193Y-125023239D01*
X184989808Y-125464824D01*
X174323964Y-125464824D01*
X174323964Y-122924824D01*
X184989808Y-122924824D01*
X185158439Y-123332943D01*
X185470415Y-123645463D01*
X185878239Y-123814807D01*
X186319824Y-123815192D01*
X186727943Y-123646561D01*
X187040463Y-123334585D01*
X187209807Y-122926761D01*
X187210192Y-122485176D01*
X187041561Y-122077057D01*
X186729585Y-121764537D01*
X186441286Y-121644824D01*
X187529808Y-121644824D01*
X187698439Y-122052943D01*
X188010415Y-122365463D01*
X188418239Y-122534807D01*
X188859824Y-122535192D01*
X189267943Y-122366561D01*
X189580463Y-122054585D01*
X189749807Y-121646761D01*
X189750117Y-121290196D01*
X199247083Y-121290196D01*
X199329759Y-121444223D01*
X199726089Y-121588265D01*
X200147373Y-121569674D01*
X200450241Y-121444223D01*
X200532917Y-121290196D01*
X199890000Y-120647279D01*
X199247083Y-121290196D01*
X189750117Y-121290196D01*
X189750192Y-121205176D01*
X189581561Y-120797057D01*
X189269585Y-120484537D01*
X188861761Y-120315193D01*
X188420176Y-120314808D01*
X188012057Y-120483439D01*
X187699537Y-120795415D01*
X187530193Y-121203239D01*
X187529808Y-121644824D01*
X186441286Y-121644824D01*
X186321761Y-121595193D01*
X185880176Y-121594808D01*
X185472057Y-121763439D01*
X185159537Y-122075415D01*
X184990193Y-122483239D01*
X184989808Y-122924824D01*
X174323964Y-122924824D01*
X174323964Y-120935196D01*
X185457083Y-120935196D01*
X185539759Y-121089223D01*
X185936089Y-121233265D01*
X186357373Y-121214674D01*
X186660241Y-121089223D01*
X186742917Y-120935196D01*
X186100000Y-120292279D01*
X185457083Y-120935196D01*
X174323964Y-120935196D01*
X174323964Y-120001089D01*
X185031735Y-120001089D01*
X185050326Y-120422373D01*
X185175777Y-120725241D01*
X185329804Y-120807917D01*
X185972721Y-120165000D01*
X186227279Y-120165000D01*
X186870196Y-120807917D01*
X187024223Y-120725241D01*
X187168265Y-120328911D01*
X187149674Y-119907627D01*
X187024223Y-119604759D01*
X186870196Y-119522083D01*
X186227279Y-120165000D01*
X185972721Y-120165000D01*
X185329804Y-119522083D01*
X185175777Y-119604759D01*
X185031735Y-120001089D01*
X174323964Y-120001089D01*
X174323964Y-119394804D01*
X185457083Y-119394804D01*
X186100000Y-120037721D01*
X186742917Y-119394804D01*
X186660241Y-119240777D01*
X186263911Y-119096735D01*
X185842627Y-119115326D01*
X185539759Y-119240777D01*
X185457083Y-119394804D01*
X174323964Y-119394804D01*
X174323964Y-118172155D01*
X190755124Y-118172155D01*
X190929368Y-118404132D01*
X191597212Y-118673344D01*
X192317241Y-118666491D01*
X192950632Y-118404132D01*
X193124875Y-118172157D01*
X193134679Y-118181961D01*
X193005346Y-118493427D01*
X193004657Y-119283109D01*
X193306218Y-120012943D01*
X193864120Y-120571819D01*
X194593427Y-120874654D01*
X195383109Y-120875343D01*
X196112943Y-120573782D01*
X196331016Y-120356089D01*
X198821735Y-120356089D01*
X198840326Y-120777373D01*
X198965777Y-121080241D01*
X199119804Y-121162917D01*
X199762721Y-120520000D01*
X200017279Y-120520000D01*
X200660196Y-121162917D01*
X200814223Y-121080241D01*
X200958265Y-120683911D01*
X200939674Y-120262627D01*
X200814223Y-119959759D01*
X200660196Y-119877083D01*
X200017279Y-120520000D01*
X199762721Y-120520000D01*
X199119804Y-119877083D01*
X198965777Y-119959759D01*
X198821735Y-120356089D01*
X196331016Y-120356089D01*
X196671819Y-120015880D01*
X196782303Y-119749804D01*
X199247083Y-119749804D01*
X199890000Y-120392721D01*
X200532917Y-119749804D01*
X200450241Y-119595777D01*
X200053911Y-119451735D01*
X199632627Y-119470326D01*
X199329759Y-119595777D01*
X199247083Y-119749804D01*
X196782303Y-119749804D01*
X196974654Y-119286573D01*
X196975343Y-118496891D01*
X196852598Y-118199824D01*
X198779808Y-118199824D01*
X198948439Y-118607943D01*
X199260415Y-118920463D01*
X199668239Y-119089807D01*
X200109824Y-119090192D01*
X200517943Y-118921561D01*
X200830463Y-118609585D01*
X200999807Y-118201761D01*
X201000192Y-117760176D01*
X200831561Y-117352057D01*
X200519585Y-117039537D01*
X200111761Y-116870193D01*
X199670176Y-116869808D01*
X199262057Y-117038439D01*
X198949537Y-117350415D01*
X198780193Y-117758239D01*
X198779808Y-118199824D01*
X196852598Y-118199824D01*
X196673782Y-117767057D01*
X196115880Y-117208181D01*
X195386573Y-116905346D01*
X194596891Y-116904657D01*
X193867057Y-117206218D01*
X193674459Y-117398480D01*
X193753344Y-117202788D01*
X193746491Y-116482759D01*
X193484132Y-115849368D01*
X193252155Y-115675124D01*
X192067279Y-116860000D01*
X192081422Y-116874143D01*
X191954143Y-117001422D01*
X191940000Y-116987279D01*
X190755124Y-118172155D01*
X174323964Y-118172155D01*
X174323964Y-116517212D01*
X190126656Y-116517212D01*
X190133509Y-117237241D01*
X190395868Y-117870632D01*
X190627845Y-118044876D01*
X191812721Y-116860000D01*
X190627845Y-115675124D01*
X190395868Y-115849368D01*
X190126656Y-116517212D01*
X174323964Y-116517212D01*
X174323964Y-115547845D01*
X190755124Y-115547845D01*
X191940000Y-116732721D01*
X193124876Y-115547845D01*
X192950632Y-115315868D01*
X192282788Y-115046656D01*
X191562759Y-115053509D01*
X190929368Y-115315868D01*
X190755124Y-115547845D01*
X174323964Y-115547845D01*
X174323964Y-114160804D01*
X195799894Y-114160804D01*
X195892565Y-114385086D01*
X196064011Y-114556832D01*
X196288131Y-114649894D01*
X196530804Y-114650106D01*
X196755086Y-114557435D01*
X196926832Y-114385989D01*
X197019894Y-114161869D01*
X197020106Y-113919196D01*
X196927435Y-113694914D01*
X196755989Y-113523168D01*
X196531869Y-113430106D01*
X196289196Y-113429894D01*
X196064914Y-113522565D01*
X195893168Y-113694011D01*
X195800106Y-113918131D01*
X195799894Y-114160804D01*
X174323964Y-114160804D01*
X174323964Y-113445411D01*
X174316086Y-113405805D01*
X174316086Y-113365424D01*
X174011604Y-111834690D01*
X173950385Y-111686893D01*
X173950382Y-111686890D01*
X173083294Y-110389200D01*
X172970175Y-110276081D01*
X171672482Y-109408990D01*
X171524685Y-109347771D01*
X169993951Y-109043289D01*
X169953570Y-109043289D01*
X169913964Y-109035411D01*
X114954346Y-109035411D01*
X114308571Y-108906958D01*
X113795344Y-108564031D01*
X113452313Y-108050648D01*
X113323964Y-107408325D01*
X113323964Y-104081420D01*
X118273269Y-104081420D01*
X118273269Y-106113420D01*
X118308831Y-106302415D01*
X118420526Y-106475995D01*
X118590954Y-106592443D01*
X118793260Y-106633411D01*
X120520460Y-106633411D01*
X120709455Y-106597849D01*
X120883035Y-106486154D01*
X120999483Y-106315726D01*
X121040451Y-106113420D01*
X121040451Y-105614569D01*
X121066401Y-105745028D01*
X121331644Y-106141993D01*
X121728609Y-106407236D01*
X122196860Y-106500377D01*
X122665111Y-106407236D01*
X123062076Y-106141993D01*
X123327319Y-105745028D01*
X123401488Y-105372153D01*
X123565593Y-105372153D01*
X123701565Y-105811065D01*
X123995151Y-106164533D01*
X124401656Y-106378744D01*
X124464917Y-106391478D01*
X124646860Y-106342219D01*
X124646860Y-105187420D01*
X124826860Y-105187420D01*
X124826860Y-106342219D01*
X125008803Y-106391478D01*
X125072064Y-106378744D01*
X125478569Y-106164533D01*
X125772155Y-105811065D01*
X125908127Y-105372153D01*
X125835344Y-105187420D01*
X124826860Y-105187420D01*
X124646860Y-105187420D01*
X123638376Y-105187420D01*
X123565593Y-105372153D01*
X123401488Y-105372153D01*
X123420460Y-105276777D01*
X123420460Y-104918063D01*
X123401489Y-104822687D01*
X123565593Y-104822687D01*
X123638376Y-105007420D01*
X124646860Y-105007420D01*
X124646860Y-103852621D01*
X124826860Y-103852621D01*
X124826860Y-105007420D01*
X125835344Y-105007420D01*
X125870549Y-104918063D01*
X126053260Y-104918063D01*
X126053260Y-105276777D01*
X126146401Y-105745028D01*
X126411644Y-106141993D01*
X126808609Y-106407236D01*
X127276860Y-106500377D01*
X127745111Y-106407236D01*
X128142076Y-106141993D01*
X128407319Y-105745028D01*
X128500460Y-105276777D01*
X128500460Y-104918063D01*
X128593260Y-104918063D01*
X128593260Y-105276777D01*
X128686401Y-105745028D01*
X128951644Y-106141993D01*
X129348609Y-106407236D01*
X129816860Y-106500377D01*
X130285111Y-106407236D01*
X130682076Y-106141993D01*
X130947319Y-105745028D01*
X131040460Y-105276777D01*
X131040460Y-104918063D01*
X131133260Y-104918063D01*
X131133260Y-105276777D01*
X131226401Y-105745028D01*
X131491644Y-106141993D01*
X131888609Y-106407236D01*
X132356860Y-106500377D01*
X132825111Y-106407236D01*
X133222076Y-106141993D01*
X133487319Y-105745028D01*
X133580460Y-105276777D01*
X133580460Y-104918063D01*
X133673260Y-104918063D01*
X133673260Y-105276777D01*
X133766401Y-105745028D01*
X134031644Y-106141993D01*
X134428609Y-106407236D01*
X134896860Y-106500377D01*
X135365111Y-106407236D01*
X135762076Y-106141993D01*
X136027319Y-105745028D01*
X136120460Y-105276777D01*
X136120460Y-104918063D01*
X136213260Y-104918063D01*
X136213260Y-105276777D01*
X136306401Y-105745028D01*
X136571644Y-106141993D01*
X136968609Y-106407236D01*
X137436860Y-106500377D01*
X137905111Y-106407236D01*
X138302076Y-106141993D01*
X138325664Y-106106690D01*
X193375489Y-106106690D01*
X193718828Y-106937635D01*
X194354021Y-107573938D01*
X195184366Y-107918727D01*
X196083450Y-107919511D01*
X196914395Y-107576172D01*
X197550698Y-106940979D01*
X197895487Y-106110634D01*
X197896271Y-105211550D01*
X197552932Y-104380605D01*
X196917739Y-103744302D01*
X196087394Y-103399513D01*
X195188310Y-103398729D01*
X194357365Y-103742068D01*
X193721062Y-104377261D01*
X193376273Y-105207606D01*
X193375489Y-106106690D01*
X138325664Y-106106690D01*
X138567319Y-105745028D01*
X138660460Y-105276777D01*
X138660460Y-104918063D01*
X138625719Y-104743404D01*
X146278094Y-104743404D01*
X146370765Y-104967686D01*
X146542211Y-105139432D01*
X146766331Y-105232494D01*
X147009004Y-105232706D01*
X147233286Y-105140035D01*
X147405032Y-104968589D01*
X147498094Y-104744469D01*
X147498306Y-104501796D01*
X147405635Y-104277514D01*
X147234189Y-104105768D01*
X147010069Y-104012706D01*
X146767396Y-104012494D01*
X146543114Y-104105165D01*
X146371368Y-104276611D01*
X146278306Y-104500731D01*
X146278094Y-104743404D01*
X138625719Y-104743404D01*
X138567319Y-104449812D01*
X138302076Y-104052847D01*
X137905111Y-103787604D01*
X137436860Y-103694463D01*
X136968609Y-103787604D01*
X136571644Y-104052847D01*
X136306401Y-104449812D01*
X136213260Y-104918063D01*
X136120460Y-104918063D01*
X136027319Y-104449812D01*
X135762076Y-104052847D01*
X135365111Y-103787604D01*
X134896860Y-103694463D01*
X134428609Y-103787604D01*
X134031644Y-104052847D01*
X133766401Y-104449812D01*
X133673260Y-104918063D01*
X133580460Y-104918063D01*
X133487319Y-104449812D01*
X133222076Y-104052847D01*
X132825111Y-103787604D01*
X132356860Y-103694463D01*
X131888609Y-103787604D01*
X131491644Y-104052847D01*
X131226401Y-104449812D01*
X131133260Y-104918063D01*
X131040460Y-104918063D01*
X130947319Y-104449812D01*
X130682076Y-104052847D01*
X130285111Y-103787604D01*
X129816860Y-103694463D01*
X129348609Y-103787604D01*
X128951644Y-104052847D01*
X128686401Y-104449812D01*
X128593260Y-104918063D01*
X128500460Y-104918063D01*
X128407319Y-104449812D01*
X128142076Y-104052847D01*
X127745111Y-103787604D01*
X127276860Y-103694463D01*
X126808609Y-103787604D01*
X126411644Y-104052847D01*
X126146401Y-104449812D01*
X126053260Y-104918063D01*
X125870549Y-104918063D01*
X125908127Y-104822687D01*
X125772155Y-104383775D01*
X125478569Y-104030307D01*
X125072064Y-103816096D01*
X125008803Y-103803362D01*
X124826860Y-103852621D01*
X124646860Y-103852621D01*
X124464917Y-103803362D01*
X124401656Y-103816096D01*
X123995151Y-104030307D01*
X123701565Y-104383775D01*
X123565593Y-104822687D01*
X123401489Y-104822687D01*
X123327319Y-104449812D01*
X123062076Y-104052847D01*
X122665111Y-103787604D01*
X122196860Y-103694463D01*
X121728609Y-103787604D01*
X121331644Y-104052847D01*
X121066401Y-104449812D01*
X121040451Y-104580271D01*
X121040451Y-104081420D01*
X121004889Y-103892425D01*
X120893194Y-103718845D01*
X120722766Y-103602397D01*
X120520460Y-103561429D01*
X118793260Y-103561429D01*
X118604265Y-103596991D01*
X118430685Y-103708686D01*
X118314237Y-103879114D01*
X118273269Y-104081420D01*
X113323964Y-104081420D01*
X113323964Y-100620804D01*
X144699894Y-100620804D01*
X144792565Y-100845086D01*
X144964011Y-101016832D01*
X145188131Y-101109894D01*
X145430804Y-101110106D01*
X145655086Y-101017435D01*
X145826832Y-100845989D01*
X145919894Y-100621869D01*
X145920106Y-100379196D01*
X145827435Y-100154914D01*
X145655989Y-99983168D01*
X145431869Y-99890106D01*
X145189196Y-99889894D01*
X144964914Y-99982565D01*
X144793168Y-100154011D01*
X144700106Y-100378131D01*
X144699894Y-100620804D01*
X113323964Y-100620804D01*
X113323964Y-99841204D01*
X143026894Y-99841204D01*
X143119565Y-100065486D01*
X143291011Y-100237232D01*
X143515131Y-100330294D01*
X143757804Y-100330506D01*
X143982086Y-100237835D01*
X144153832Y-100066389D01*
X144246894Y-99842269D01*
X144246901Y-99834469D01*
X144308131Y-99859894D01*
X144550804Y-99860106D01*
X144775086Y-99767435D01*
X144946832Y-99595989D01*
X145039894Y-99371869D01*
X145040106Y-99129196D01*
X145015980Y-99070804D01*
X150809894Y-99070804D01*
X150902565Y-99295086D01*
X151074011Y-99466832D01*
X151298131Y-99559894D01*
X151540804Y-99560106D01*
X151765086Y-99467435D01*
X151936832Y-99295989D01*
X151965456Y-99227054D01*
X152016511Y-99248254D01*
X152259184Y-99248466D01*
X152483466Y-99155795D01*
X152655212Y-98984349D01*
X152748274Y-98760229D01*
X152748380Y-98638650D01*
X189665662Y-98638650D01*
X189857081Y-99101920D01*
X190211215Y-99456673D01*
X190651107Y-99639332D01*
X190213080Y-99820321D01*
X189858327Y-100174455D01*
X189666099Y-100637391D01*
X189665662Y-101138650D01*
X189857081Y-101601920D01*
X190211215Y-101956673D01*
X190674151Y-102148901D01*
X191175410Y-102149338D01*
X191638680Y-101957919D01*
X191926070Y-101671030D01*
X192211215Y-101956673D01*
X192674151Y-102148901D01*
X193175410Y-102149338D01*
X193638680Y-101957919D01*
X193993433Y-101603785D01*
X194185661Y-101140849D01*
X194186098Y-100639590D01*
X193994679Y-100176320D01*
X193640545Y-99821567D01*
X193200653Y-99638908D01*
X193638680Y-99457919D01*
X193697582Y-99399120D01*
X196250880Y-99399120D01*
X196637390Y-99322238D01*
X196965058Y-99103298D01*
X199629198Y-96439158D01*
X199848138Y-96111490D01*
X199925020Y-95724980D01*
X199925020Y-89741632D01*
X200184061Y-89353950D01*
X200288620Y-88828296D01*
X200288620Y-88463704D01*
X200184061Y-87938050D01*
X199886302Y-87492422D01*
X199440674Y-87194663D01*
X198915020Y-87090104D01*
X198389366Y-87194663D01*
X197943738Y-87492422D01*
X197645979Y-87938050D01*
X197645020Y-87942871D01*
X197644061Y-87938050D01*
X197346302Y-87492422D01*
X196900674Y-87194663D01*
X196375020Y-87090104D01*
X195849366Y-87194663D01*
X195403738Y-87492422D01*
X195105979Y-87938050D01*
X195105020Y-87942871D01*
X195104061Y-87938050D01*
X194806302Y-87492422D01*
X194360674Y-87194663D01*
X193835020Y-87090104D01*
X193309366Y-87194663D01*
X192863738Y-87492422D01*
X192678611Y-87769484D01*
X192678611Y-87630000D01*
X192643049Y-87441005D01*
X192531354Y-87267425D01*
X192360926Y-87150977D01*
X192158620Y-87110009D01*
X190431420Y-87110009D01*
X190242425Y-87145571D01*
X190068845Y-87257266D01*
X189952397Y-87427694D01*
X189911429Y-87630000D01*
X189911429Y-89662000D01*
X189915880Y-89685654D01*
X189915880Y-97617002D01*
X189858327Y-97674455D01*
X189666099Y-98137391D01*
X189665662Y-98638650D01*
X152748380Y-98638650D01*
X152748486Y-98517556D01*
X152655815Y-98293274D01*
X152484369Y-98121528D01*
X152260249Y-98028466D01*
X152017576Y-98028254D01*
X151793294Y-98120925D01*
X151621548Y-98292371D01*
X151592924Y-98361306D01*
X151541869Y-98340106D01*
X151299196Y-98339894D01*
X151074914Y-98432565D01*
X150903168Y-98604011D01*
X150810106Y-98828131D01*
X150809894Y-99070804D01*
X145015980Y-99070804D01*
X144958423Y-98931507D01*
X145065086Y-98887435D01*
X145187247Y-98765487D01*
X145199312Y-98777573D01*
X145423432Y-98870635D01*
X145666105Y-98870847D01*
X145890387Y-98778176D01*
X146062133Y-98606730D01*
X146155195Y-98382610D01*
X146155407Y-98139937D01*
X146062736Y-97915655D01*
X145891290Y-97743909D01*
X145667170Y-97650847D01*
X145424497Y-97650635D01*
X145200215Y-97743306D01*
X145078054Y-97865254D01*
X145065989Y-97853168D01*
X144841869Y-97760106D01*
X144599196Y-97759894D01*
X144374914Y-97852565D01*
X144203168Y-98024011D01*
X144110106Y-98248131D01*
X144109894Y-98490804D01*
X144191577Y-98688493D01*
X144084914Y-98732565D01*
X143913168Y-98904011D01*
X143820106Y-99128131D01*
X143820099Y-99135931D01*
X143758869Y-99110506D01*
X143516196Y-99110294D01*
X143291914Y-99202965D01*
X143120168Y-99374411D01*
X143027106Y-99598531D01*
X143026894Y-99841204D01*
X113323964Y-99841204D01*
X113323964Y-96767804D01*
X149249894Y-96767804D01*
X149342565Y-96992086D01*
X149514011Y-97163832D01*
X149738131Y-97256894D01*
X149980804Y-97257106D01*
X150205086Y-97164435D01*
X150376832Y-96992989D01*
X150469894Y-96768869D01*
X150470106Y-96526196D01*
X150377435Y-96301914D01*
X150226591Y-96150806D01*
X151779894Y-96150806D01*
X151872565Y-96375088D01*
X152044011Y-96546834D01*
X152268131Y-96639896D01*
X152510804Y-96640108D01*
X152735086Y-96547437D01*
X152906832Y-96375991D01*
X152999894Y-96151871D01*
X153000106Y-95909198D01*
X152907435Y-95684916D01*
X152735989Y-95513170D01*
X152511869Y-95420108D01*
X152269196Y-95419896D01*
X152044914Y-95512567D01*
X151873168Y-95684013D01*
X151780106Y-95908133D01*
X151779894Y-96150806D01*
X150226591Y-96150806D01*
X150205989Y-96130168D01*
X149981869Y-96037106D01*
X149739196Y-96036894D01*
X149514914Y-96129565D01*
X149343168Y-96301011D01*
X149250106Y-96525131D01*
X149249894Y-96767804D01*
X113323964Y-96767804D01*
X113323964Y-94659604D01*
X144804894Y-94659604D01*
X144897565Y-94883886D01*
X145069011Y-95055632D01*
X145293131Y-95148694D01*
X145535804Y-95148906D01*
X145760086Y-95056235D01*
X145931832Y-94884789D01*
X146024894Y-94660669D01*
X146025106Y-94417996D01*
X145932435Y-94193714D01*
X145809740Y-94070804D01*
X151939894Y-94070804D01*
X152032565Y-94295086D01*
X152204011Y-94466832D01*
X152428131Y-94559894D01*
X152670804Y-94560106D01*
X152767475Y-94520162D01*
X152802565Y-94605086D01*
X152974011Y-94776832D01*
X153198131Y-94869894D01*
X153440804Y-94870106D01*
X153665086Y-94777435D01*
X153836832Y-94605989D01*
X153929894Y-94381869D01*
X153930106Y-94139196D01*
X153837435Y-93914914D01*
X153665989Y-93743168D01*
X153441869Y-93650106D01*
X153199196Y-93649894D01*
X153102525Y-93689838D01*
X153067435Y-93604914D01*
X152895989Y-93433168D01*
X152671869Y-93340106D01*
X152429196Y-93339894D01*
X152204914Y-93432565D01*
X152033168Y-93604011D01*
X151940106Y-93828131D01*
X151939894Y-94070804D01*
X145809740Y-94070804D01*
X145760989Y-94021968D01*
X145536869Y-93928906D01*
X145294196Y-93928694D01*
X145069914Y-94021365D01*
X144898168Y-94192811D01*
X144805106Y-94416931D01*
X144804894Y-94659604D01*
X113323964Y-94659604D01*
X113323964Y-89067864D01*
X120579635Y-89067864D01*
X120900186Y-89843657D01*
X121493221Y-90437728D01*
X122268454Y-90759633D01*
X123107864Y-90760365D01*
X123883657Y-90439814D01*
X124204029Y-90120000D01*
X125949825Y-90120000D01*
X126047640Y-90611748D01*
X126326193Y-91028632D01*
X126743077Y-91307185D01*
X127234825Y-91405000D01*
X127285175Y-91405000D01*
X127776923Y-91307185D01*
X128193807Y-91028632D01*
X128472360Y-90611748D01*
X128530000Y-90321973D01*
X128587640Y-90611748D01*
X128866193Y-91028632D01*
X129283077Y-91307185D01*
X129774825Y-91405000D01*
X129825175Y-91405000D01*
X130316923Y-91307185D01*
X130733807Y-91028632D01*
X131012360Y-90611748D01*
X131058847Y-90378038D01*
X131286130Y-90378038D01*
X131412333Y-90682743D01*
X131698300Y-90994910D01*
X132081960Y-91173879D01*
X132250000Y-91123770D01*
X132250000Y-90210000D01*
X132430000Y-90210000D01*
X132430000Y-91123770D01*
X132598040Y-91173879D01*
X132981700Y-90994910D01*
X133267667Y-90682743D01*
X133393870Y-90378038D01*
X133343472Y-90210000D01*
X132430000Y-90210000D01*
X132250000Y-90210000D01*
X131336528Y-90210000D01*
X131286130Y-90378038D01*
X131058847Y-90378038D01*
X131110175Y-90120000D01*
X133722764Y-90120000D01*
X133809161Y-90554346D01*
X134055198Y-90922566D01*
X134423418Y-91168603D01*
X134857764Y-91255000D01*
X134902236Y-91255000D01*
X135336582Y-91168603D01*
X135704802Y-90922566D01*
X135950839Y-90554346D01*
X136037236Y-90120000D01*
X136262764Y-90120000D01*
X136349161Y-90554346D01*
X136595198Y-90922566D01*
X136963418Y-91168603D01*
X137397764Y-91255000D01*
X137442236Y-91255000D01*
X137876582Y-91168603D01*
X138244802Y-90922566D01*
X138490839Y-90554346D01*
X138577236Y-90120000D01*
X138802764Y-90120000D01*
X138889161Y-90554346D01*
X139135198Y-90922566D01*
X139503418Y-91168603D01*
X139937764Y-91255000D01*
X139982236Y-91255000D01*
X140416582Y-91168603D01*
X140784802Y-90922566D01*
X141030839Y-90554346D01*
X141117236Y-90120000D01*
X141342764Y-90120000D01*
X141429161Y-90554346D01*
X141675198Y-90922566D01*
X142043418Y-91168603D01*
X142477764Y-91255000D01*
X142522236Y-91255000D01*
X142956582Y-91168603D01*
X143324802Y-90922566D01*
X143570839Y-90554346D01*
X143657236Y-90120000D01*
X143882764Y-90120000D01*
X143969161Y-90554346D01*
X144215198Y-90922566D01*
X144583418Y-91168603D01*
X145017764Y-91255000D01*
X145062236Y-91255000D01*
X145496582Y-91168603D01*
X145864802Y-90922566D01*
X146110839Y-90554346D01*
X146197236Y-90120000D01*
X146422764Y-90120000D01*
X146509161Y-90554346D01*
X146755198Y-90922566D01*
X147123418Y-91168603D01*
X147557764Y-91255000D01*
X147602236Y-91255000D01*
X148036582Y-91168603D01*
X148404802Y-90922566D01*
X148650839Y-90554346D01*
X148685908Y-90378038D01*
X149066130Y-90378038D01*
X149192333Y-90682743D01*
X149478300Y-90994910D01*
X149861960Y-91173879D01*
X150030000Y-91123770D01*
X150030000Y-90210000D01*
X150210000Y-90210000D01*
X150210000Y-91123770D01*
X150378040Y-91173879D01*
X150761700Y-90994910D01*
X151047667Y-90682743D01*
X151173870Y-90378038D01*
X151123472Y-90210000D01*
X150210000Y-90210000D01*
X150030000Y-90210000D01*
X149116528Y-90210000D01*
X149066130Y-90378038D01*
X148685908Y-90378038D01*
X148737236Y-90120000D01*
X151502764Y-90120000D01*
X151589161Y-90554346D01*
X151835198Y-90922566D01*
X152203418Y-91168603D01*
X152637764Y-91255000D01*
X152682236Y-91255000D01*
X153116582Y-91168603D01*
X153484802Y-90922566D01*
X153730839Y-90554346D01*
X153817236Y-90120000D01*
X154042764Y-90120000D01*
X154129161Y-90554346D01*
X154375198Y-90922566D01*
X154743418Y-91168603D01*
X155177764Y-91255000D01*
X155222236Y-91255000D01*
X155656582Y-91168603D01*
X156024802Y-90922566D01*
X156270839Y-90554346D01*
X156357236Y-90120000D01*
X156582764Y-90120000D01*
X156669161Y-90554346D01*
X156915198Y-90922566D01*
X157283418Y-91168603D01*
X157717764Y-91255000D01*
X157762236Y-91255000D01*
X158196582Y-91168603D01*
X158564802Y-90922566D01*
X158810839Y-90554346D01*
X158897236Y-90120000D01*
X159122764Y-90120000D01*
X159209161Y-90554346D01*
X159455198Y-90922566D01*
X159823418Y-91168603D01*
X160257764Y-91255000D01*
X160302236Y-91255000D01*
X160736582Y-91168603D01*
X161104802Y-90922566D01*
X161350839Y-90554346D01*
X161437236Y-90120000D01*
X161662764Y-90120000D01*
X161749161Y-90554346D01*
X161995198Y-90922566D01*
X162363418Y-91168603D01*
X162797764Y-91255000D01*
X162842236Y-91255000D01*
X163276582Y-91168603D01*
X163644802Y-90922566D01*
X163890839Y-90554346D01*
X163977236Y-90120000D01*
X164202764Y-90120000D01*
X164289161Y-90554346D01*
X164535198Y-90922566D01*
X164903418Y-91168603D01*
X165337764Y-91255000D01*
X165382236Y-91255000D01*
X165816582Y-91168603D01*
X166184802Y-90922566D01*
X166430839Y-90554346D01*
X166517236Y-90120000D01*
X166742764Y-90120000D01*
X166829161Y-90554346D01*
X167075198Y-90922566D01*
X167443418Y-91168603D01*
X167877764Y-91255000D01*
X167922236Y-91255000D01*
X168356582Y-91168603D01*
X168724802Y-90922566D01*
X168970839Y-90554346D01*
X169057236Y-90120000D01*
X169282764Y-90120000D01*
X169369161Y-90554346D01*
X169615198Y-90922566D01*
X169983418Y-91168603D01*
X170417764Y-91255000D01*
X170462236Y-91255000D01*
X170896582Y-91168603D01*
X171264802Y-90922566D01*
X171510839Y-90554346D01*
X171597236Y-90120000D01*
X171822764Y-90120000D01*
X171909161Y-90554346D01*
X172155198Y-90922566D01*
X172523418Y-91168603D01*
X172957764Y-91255000D01*
X173002236Y-91255000D01*
X173436582Y-91168603D01*
X173804802Y-90922566D01*
X174050839Y-90554346D01*
X174137236Y-90120000D01*
X174362764Y-90120000D01*
X174449161Y-90554346D01*
X174695198Y-90922566D01*
X175063418Y-91168603D01*
X175497764Y-91255000D01*
X175542236Y-91255000D01*
X175976582Y-91168603D01*
X176344802Y-90922566D01*
X176590839Y-90554346D01*
X176677236Y-90120000D01*
X176590839Y-89685654D01*
X176344802Y-89317434D01*
X175976582Y-89071397D01*
X175958821Y-89067864D01*
X178579635Y-89067864D01*
X178900186Y-89843657D01*
X179493221Y-90437728D01*
X180268454Y-90759633D01*
X181107864Y-90760365D01*
X181883657Y-90439814D01*
X182477728Y-89846779D01*
X182799633Y-89071546D01*
X182800365Y-88232136D01*
X182479814Y-87456343D01*
X181886779Y-86862272D01*
X181111546Y-86540367D01*
X180272136Y-86539635D01*
X179496343Y-86860186D01*
X178902272Y-87453221D01*
X178580367Y-88228454D01*
X178579635Y-89067864D01*
X175958821Y-89067864D01*
X175542236Y-88985000D01*
X175497764Y-88985000D01*
X175063418Y-89071397D01*
X174695198Y-89317434D01*
X174449161Y-89685654D01*
X174362764Y-90120000D01*
X174137236Y-90120000D01*
X174050839Y-89685654D01*
X173804802Y-89317434D01*
X173436582Y-89071397D01*
X173002236Y-88985000D01*
X172957764Y-88985000D01*
X172523418Y-89071397D01*
X172155198Y-89317434D01*
X171909161Y-89685654D01*
X171822764Y-90120000D01*
X171597236Y-90120000D01*
X171510839Y-89685654D01*
X171264802Y-89317434D01*
X170896582Y-89071397D01*
X170462236Y-88985000D01*
X170417764Y-88985000D01*
X169983418Y-89071397D01*
X169615198Y-89317434D01*
X169369161Y-89685654D01*
X169282764Y-90120000D01*
X169057236Y-90120000D01*
X168970839Y-89685654D01*
X168724802Y-89317434D01*
X168356582Y-89071397D01*
X167922236Y-88985000D01*
X167877764Y-88985000D01*
X167443418Y-89071397D01*
X167075198Y-89317434D01*
X166829161Y-89685654D01*
X166742764Y-90120000D01*
X166517236Y-90120000D01*
X166430839Y-89685654D01*
X166184802Y-89317434D01*
X165816582Y-89071397D01*
X165382236Y-88985000D01*
X165337764Y-88985000D01*
X164903418Y-89071397D01*
X164535198Y-89317434D01*
X164289161Y-89685654D01*
X164202764Y-90120000D01*
X163977236Y-90120000D01*
X163890839Y-89685654D01*
X163644802Y-89317434D01*
X163276582Y-89071397D01*
X162842236Y-88985000D01*
X162797764Y-88985000D01*
X162363418Y-89071397D01*
X161995198Y-89317434D01*
X161749161Y-89685654D01*
X161662764Y-90120000D01*
X161437236Y-90120000D01*
X161350839Y-89685654D01*
X161104802Y-89317434D01*
X160736582Y-89071397D01*
X160302236Y-88985000D01*
X160257764Y-88985000D01*
X159823418Y-89071397D01*
X159455198Y-89317434D01*
X159209161Y-89685654D01*
X159122764Y-90120000D01*
X158897236Y-90120000D01*
X158810839Y-89685654D01*
X158564802Y-89317434D01*
X158196582Y-89071397D01*
X157762236Y-88985000D01*
X157717764Y-88985000D01*
X157283418Y-89071397D01*
X156915198Y-89317434D01*
X156669161Y-89685654D01*
X156582764Y-90120000D01*
X156357236Y-90120000D01*
X156270839Y-89685654D01*
X156024802Y-89317434D01*
X155656582Y-89071397D01*
X155222236Y-88985000D01*
X155177764Y-88985000D01*
X154743418Y-89071397D01*
X154375198Y-89317434D01*
X154129161Y-89685654D01*
X154042764Y-90120000D01*
X153817236Y-90120000D01*
X153730839Y-89685654D01*
X153484802Y-89317434D01*
X153116582Y-89071397D01*
X152682236Y-88985000D01*
X152637764Y-88985000D01*
X152203418Y-89071397D01*
X151835198Y-89317434D01*
X151589161Y-89685654D01*
X151502764Y-90120000D01*
X148737236Y-90120000D01*
X148685909Y-89861962D01*
X149066130Y-89861962D01*
X149116528Y-90030000D01*
X150030000Y-90030000D01*
X150030000Y-89116230D01*
X150210000Y-89116230D01*
X150210000Y-90030000D01*
X151123472Y-90030000D01*
X151173870Y-89861962D01*
X151047667Y-89557257D01*
X150761700Y-89245090D01*
X150378040Y-89066121D01*
X150210000Y-89116230D01*
X150030000Y-89116230D01*
X149861960Y-89066121D01*
X149478300Y-89245090D01*
X149192333Y-89557257D01*
X149066130Y-89861962D01*
X148685909Y-89861962D01*
X148650839Y-89685654D01*
X148404802Y-89317434D01*
X148036582Y-89071397D01*
X147602236Y-88985000D01*
X147557764Y-88985000D01*
X147123418Y-89071397D01*
X146755198Y-89317434D01*
X146509161Y-89685654D01*
X146422764Y-90120000D01*
X146197236Y-90120000D01*
X146110839Y-89685654D01*
X145864802Y-89317434D01*
X145496582Y-89071397D01*
X145062236Y-88985000D01*
X145017764Y-88985000D01*
X144583418Y-89071397D01*
X144215198Y-89317434D01*
X143969161Y-89685654D01*
X143882764Y-90120000D01*
X143657236Y-90120000D01*
X143570839Y-89685654D01*
X143324802Y-89317434D01*
X142956582Y-89071397D01*
X142522236Y-88985000D01*
X142477764Y-88985000D01*
X142043418Y-89071397D01*
X141675198Y-89317434D01*
X141429161Y-89685654D01*
X141342764Y-90120000D01*
X141117236Y-90120000D01*
X141030839Y-89685654D01*
X140784802Y-89317434D01*
X140416582Y-89071397D01*
X139982236Y-88985000D01*
X139937764Y-88985000D01*
X139503418Y-89071397D01*
X139135198Y-89317434D01*
X138889161Y-89685654D01*
X138802764Y-90120000D01*
X138577236Y-90120000D01*
X138490839Y-89685654D01*
X138244802Y-89317434D01*
X137876582Y-89071397D01*
X137442236Y-88985000D01*
X137397764Y-88985000D01*
X136963418Y-89071397D01*
X136595198Y-89317434D01*
X136349161Y-89685654D01*
X136262764Y-90120000D01*
X136037236Y-90120000D01*
X135950839Y-89685654D01*
X135704802Y-89317434D01*
X135336582Y-89071397D01*
X134902236Y-88985000D01*
X134857764Y-88985000D01*
X134423418Y-89071397D01*
X134055198Y-89317434D01*
X133809161Y-89685654D01*
X133722764Y-90120000D01*
X131110175Y-90120000D01*
X131058848Y-89861962D01*
X131286130Y-89861962D01*
X131336528Y-90030000D01*
X132250000Y-90030000D01*
X132250000Y-89116230D01*
X132430000Y-89116230D01*
X132430000Y-90030000D01*
X133343472Y-90030000D01*
X133393870Y-89861962D01*
X133267667Y-89557257D01*
X132981700Y-89245090D01*
X132598040Y-89066121D01*
X132430000Y-89116230D01*
X132250000Y-89116230D01*
X132081960Y-89066121D01*
X131698300Y-89245090D01*
X131412333Y-89557257D01*
X131286130Y-89861962D01*
X131058848Y-89861962D01*
X131012360Y-89628252D01*
X130733807Y-89211368D01*
X130316923Y-88932815D01*
X129825175Y-88835000D01*
X129774825Y-88835000D01*
X129283077Y-88932815D01*
X128866193Y-89211368D01*
X128587640Y-89628252D01*
X128530000Y-89918027D01*
X128472360Y-89628252D01*
X128193807Y-89211368D01*
X127776923Y-88932815D01*
X127285175Y-88835000D01*
X127234825Y-88835000D01*
X126743077Y-88932815D01*
X126326193Y-89211368D01*
X126047640Y-89628252D01*
X125949825Y-90120000D01*
X124204029Y-90120000D01*
X124477728Y-89846779D01*
X124799633Y-89071546D01*
X124800365Y-88232136D01*
X124479814Y-87456343D01*
X123886779Y-86862272D01*
X123748853Y-86805000D01*
X126117948Y-86805000D01*
X126117948Y-88355000D01*
X126143050Y-88488408D01*
X126221894Y-88610935D01*
X126342196Y-88693133D01*
X126485000Y-88722052D01*
X128035000Y-88722052D01*
X128168408Y-88696950D01*
X128290935Y-88618106D01*
X128373133Y-88497804D01*
X128402052Y-88355000D01*
X128402052Y-87580000D01*
X128642764Y-87580000D01*
X128729161Y-88014346D01*
X128975198Y-88382566D01*
X129343418Y-88628603D01*
X129777764Y-88715000D01*
X129822236Y-88715000D01*
X130256582Y-88628603D01*
X130624802Y-88382566D01*
X130870839Y-88014346D01*
X130957236Y-87580000D01*
X131182764Y-87580000D01*
X131269161Y-88014346D01*
X131515198Y-88382566D01*
X131883418Y-88628603D01*
X132317764Y-88715000D01*
X132362236Y-88715000D01*
X132796582Y-88628603D01*
X133164802Y-88382566D01*
X133410839Y-88014346D01*
X133497236Y-87580000D01*
X133722764Y-87580000D01*
X133809161Y-88014346D01*
X134055198Y-88382566D01*
X134423418Y-88628603D01*
X134857764Y-88715000D01*
X134902236Y-88715000D01*
X135336582Y-88628603D01*
X135704802Y-88382566D01*
X135950839Y-88014346D01*
X135985908Y-87838038D01*
X136366130Y-87838038D01*
X136492333Y-88142743D01*
X136778300Y-88454910D01*
X137161960Y-88633879D01*
X137330000Y-88583770D01*
X137330000Y-87670000D01*
X137510000Y-87670000D01*
X137510000Y-88583770D01*
X137678040Y-88633879D01*
X138061700Y-88454910D01*
X138347667Y-88142743D01*
X138473870Y-87838038D01*
X138423472Y-87670000D01*
X137510000Y-87670000D01*
X137330000Y-87670000D01*
X136416528Y-87670000D01*
X136366130Y-87838038D01*
X135985908Y-87838038D01*
X136037236Y-87580000D01*
X138802764Y-87580000D01*
X138889161Y-88014346D01*
X139135198Y-88382566D01*
X139503418Y-88628603D01*
X139937764Y-88715000D01*
X139982236Y-88715000D01*
X140416582Y-88628603D01*
X140784802Y-88382566D01*
X141030839Y-88014346D01*
X141117236Y-87580000D01*
X141342764Y-87580000D01*
X141429161Y-88014346D01*
X141675198Y-88382566D01*
X142043418Y-88628603D01*
X142477764Y-88715000D01*
X142522236Y-88715000D01*
X142956582Y-88628603D01*
X143324802Y-88382566D01*
X143570839Y-88014346D01*
X143657236Y-87580000D01*
X143882764Y-87580000D01*
X143969161Y-88014346D01*
X144215198Y-88382566D01*
X144583418Y-88628603D01*
X145017764Y-88715000D01*
X145062236Y-88715000D01*
X145496582Y-88628603D01*
X145864802Y-88382566D01*
X146110839Y-88014346D01*
X146197236Y-87580000D01*
X146422764Y-87580000D01*
X146509161Y-88014346D01*
X146755198Y-88382566D01*
X147123418Y-88628603D01*
X147557764Y-88715000D01*
X147602236Y-88715000D01*
X148036582Y-88628603D01*
X148404802Y-88382566D01*
X148650839Y-88014346D01*
X148737236Y-87580000D01*
X148962764Y-87580000D01*
X149049161Y-88014346D01*
X149295198Y-88382566D01*
X149663418Y-88628603D01*
X150097764Y-88715000D01*
X150142236Y-88715000D01*
X150576582Y-88628603D01*
X150944802Y-88382566D01*
X151190839Y-88014346D01*
X151277236Y-87580000D01*
X151502764Y-87580000D01*
X151589161Y-88014346D01*
X151835198Y-88382566D01*
X152203418Y-88628603D01*
X152637764Y-88715000D01*
X152682236Y-88715000D01*
X153116582Y-88628603D01*
X153484802Y-88382566D01*
X153730839Y-88014346D01*
X153817236Y-87580000D01*
X154042764Y-87580000D01*
X154129161Y-88014346D01*
X154375198Y-88382566D01*
X154743418Y-88628603D01*
X155177764Y-88715000D01*
X155222236Y-88715000D01*
X155656582Y-88628603D01*
X156024802Y-88382566D01*
X156270839Y-88014346D01*
X156305908Y-87838038D01*
X156686130Y-87838038D01*
X156812333Y-88142743D01*
X157098300Y-88454910D01*
X157481960Y-88633879D01*
X157650000Y-88583770D01*
X157650000Y-87670000D01*
X157830000Y-87670000D01*
X157830000Y-88583770D01*
X157998040Y-88633879D01*
X158381700Y-88454910D01*
X158667667Y-88142743D01*
X158793870Y-87838038D01*
X158743472Y-87670000D01*
X157830000Y-87670000D01*
X157650000Y-87670000D01*
X156736528Y-87670000D01*
X156686130Y-87838038D01*
X156305908Y-87838038D01*
X156357236Y-87580000D01*
X159122764Y-87580000D01*
X159209161Y-88014346D01*
X159455198Y-88382566D01*
X159823418Y-88628603D01*
X160257764Y-88715000D01*
X160302236Y-88715000D01*
X160736582Y-88628603D01*
X161104802Y-88382566D01*
X161350839Y-88014346D01*
X161437236Y-87580000D01*
X161662764Y-87580000D01*
X161749161Y-88014346D01*
X161995198Y-88382566D01*
X162363418Y-88628603D01*
X162797764Y-88715000D01*
X162842236Y-88715000D01*
X163276582Y-88628603D01*
X163644802Y-88382566D01*
X163890839Y-88014346D01*
X163977236Y-87580000D01*
X164202764Y-87580000D01*
X164289161Y-88014346D01*
X164535198Y-88382566D01*
X164903418Y-88628603D01*
X165337764Y-88715000D01*
X165382236Y-88715000D01*
X165816582Y-88628603D01*
X166184802Y-88382566D01*
X166430839Y-88014346D01*
X166517236Y-87580000D01*
X166742764Y-87580000D01*
X166829161Y-88014346D01*
X167075198Y-88382566D01*
X167443418Y-88628603D01*
X167877764Y-88715000D01*
X167922236Y-88715000D01*
X168356582Y-88628603D01*
X168724802Y-88382566D01*
X168970839Y-88014346D01*
X169057236Y-87580000D01*
X169282764Y-87580000D01*
X169369161Y-88014346D01*
X169615198Y-88382566D01*
X169983418Y-88628603D01*
X170417764Y-88715000D01*
X170462236Y-88715000D01*
X170896582Y-88628603D01*
X171264802Y-88382566D01*
X171510839Y-88014346D01*
X171597236Y-87580000D01*
X171822764Y-87580000D01*
X171909161Y-88014346D01*
X172155198Y-88382566D01*
X172523418Y-88628603D01*
X172957764Y-88715000D01*
X173002236Y-88715000D01*
X173436582Y-88628603D01*
X173804802Y-88382566D01*
X174050839Y-88014346D01*
X174137236Y-87580000D01*
X174362764Y-87580000D01*
X174449161Y-88014346D01*
X174695198Y-88382566D01*
X175063418Y-88628603D01*
X175497764Y-88715000D01*
X175542236Y-88715000D01*
X175976582Y-88628603D01*
X176344802Y-88382566D01*
X176590839Y-88014346D01*
X176677236Y-87580000D01*
X176590839Y-87145654D01*
X176344802Y-86777434D01*
X175976582Y-86531397D01*
X175542236Y-86445000D01*
X175497764Y-86445000D01*
X175063418Y-86531397D01*
X174695198Y-86777434D01*
X174449161Y-87145654D01*
X174362764Y-87580000D01*
X174137236Y-87580000D01*
X174050839Y-87145654D01*
X173804802Y-86777434D01*
X173436582Y-86531397D01*
X173002236Y-86445000D01*
X172957764Y-86445000D01*
X172523418Y-86531397D01*
X172155198Y-86777434D01*
X171909161Y-87145654D01*
X171822764Y-87580000D01*
X171597236Y-87580000D01*
X171510839Y-87145654D01*
X171264802Y-86777434D01*
X170896582Y-86531397D01*
X170462236Y-86445000D01*
X170417764Y-86445000D01*
X169983418Y-86531397D01*
X169615198Y-86777434D01*
X169369161Y-87145654D01*
X169282764Y-87580000D01*
X169057236Y-87580000D01*
X168970839Y-87145654D01*
X168724802Y-86777434D01*
X168356582Y-86531397D01*
X167922236Y-86445000D01*
X167877764Y-86445000D01*
X167443418Y-86531397D01*
X167075198Y-86777434D01*
X166829161Y-87145654D01*
X166742764Y-87580000D01*
X166517236Y-87580000D01*
X166430839Y-87145654D01*
X166184802Y-86777434D01*
X165816582Y-86531397D01*
X165382236Y-86445000D01*
X165337764Y-86445000D01*
X164903418Y-86531397D01*
X164535198Y-86777434D01*
X164289161Y-87145654D01*
X164202764Y-87580000D01*
X163977236Y-87580000D01*
X163890839Y-87145654D01*
X163644802Y-86777434D01*
X163276582Y-86531397D01*
X162842236Y-86445000D01*
X162797764Y-86445000D01*
X162363418Y-86531397D01*
X161995198Y-86777434D01*
X161749161Y-87145654D01*
X161662764Y-87580000D01*
X161437236Y-87580000D01*
X161350839Y-87145654D01*
X161104802Y-86777434D01*
X160736582Y-86531397D01*
X160302236Y-86445000D01*
X160257764Y-86445000D01*
X159823418Y-86531397D01*
X159455198Y-86777434D01*
X159209161Y-87145654D01*
X159122764Y-87580000D01*
X156357236Y-87580000D01*
X156305909Y-87321962D01*
X156686130Y-87321962D01*
X156736528Y-87490000D01*
X157650000Y-87490000D01*
X157650000Y-86576230D01*
X157830000Y-86576230D01*
X157830000Y-87490000D01*
X158743472Y-87490000D01*
X158793870Y-87321962D01*
X158667667Y-87017257D01*
X158381700Y-86705090D01*
X157998040Y-86526121D01*
X157830000Y-86576230D01*
X157650000Y-86576230D01*
X157481960Y-86526121D01*
X157098300Y-86705090D01*
X156812333Y-87017257D01*
X156686130Y-87321962D01*
X156305909Y-87321962D01*
X156270839Y-87145654D01*
X156024802Y-86777434D01*
X155656582Y-86531397D01*
X155222236Y-86445000D01*
X155177764Y-86445000D01*
X154743418Y-86531397D01*
X154375198Y-86777434D01*
X154129161Y-87145654D01*
X154042764Y-87580000D01*
X153817236Y-87580000D01*
X153730839Y-87145654D01*
X153484802Y-86777434D01*
X153116582Y-86531397D01*
X152682236Y-86445000D01*
X152637764Y-86445000D01*
X152203418Y-86531397D01*
X151835198Y-86777434D01*
X151589161Y-87145654D01*
X151502764Y-87580000D01*
X151277236Y-87580000D01*
X151190839Y-87145654D01*
X150944802Y-86777434D01*
X150576582Y-86531397D01*
X150142236Y-86445000D01*
X150097764Y-86445000D01*
X149663418Y-86531397D01*
X149295198Y-86777434D01*
X149049161Y-87145654D01*
X148962764Y-87580000D01*
X148737236Y-87580000D01*
X148650839Y-87145654D01*
X148404802Y-86777434D01*
X148036582Y-86531397D01*
X147602236Y-86445000D01*
X147557764Y-86445000D01*
X147123418Y-86531397D01*
X146755198Y-86777434D01*
X146509161Y-87145654D01*
X146422764Y-87580000D01*
X146197236Y-87580000D01*
X146110839Y-87145654D01*
X145864802Y-86777434D01*
X145496582Y-86531397D01*
X145062236Y-86445000D01*
X145017764Y-86445000D01*
X144583418Y-86531397D01*
X144215198Y-86777434D01*
X143969161Y-87145654D01*
X143882764Y-87580000D01*
X143657236Y-87580000D01*
X143570839Y-87145654D01*
X143324802Y-86777434D01*
X142956582Y-86531397D01*
X142522236Y-86445000D01*
X142477764Y-86445000D01*
X142043418Y-86531397D01*
X141675198Y-86777434D01*
X141429161Y-87145654D01*
X141342764Y-87580000D01*
X141117236Y-87580000D01*
X141030839Y-87145654D01*
X140784802Y-86777434D01*
X140416582Y-86531397D01*
X139982236Y-86445000D01*
X139937764Y-86445000D01*
X139503418Y-86531397D01*
X139135198Y-86777434D01*
X138889161Y-87145654D01*
X138802764Y-87580000D01*
X136037236Y-87580000D01*
X135985909Y-87321962D01*
X136366130Y-87321962D01*
X136416528Y-87490000D01*
X137330000Y-87490000D01*
X137330000Y-86576230D01*
X137510000Y-86576230D01*
X137510000Y-87490000D01*
X138423472Y-87490000D01*
X138473870Y-87321962D01*
X138347667Y-87017257D01*
X138061700Y-86705090D01*
X137678040Y-86526121D01*
X137510000Y-86576230D01*
X137330000Y-86576230D01*
X137161960Y-86526121D01*
X136778300Y-86705090D01*
X136492333Y-87017257D01*
X136366130Y-87321962D01*
X135985909Y-87321962D01*
X135950839Y-87145654D01*
X135704802Y-86777434D01*
X135336582Y-86531397D01*
X134902236Y-86445000D01*
X134857764Y-86445000D01*
X134423418Y-86531397D01*
X134055198Y-86777434D01*
X133809161Y-87145654D01*
X133722764Y-87580000D01*
X133497236Y-87580000D01*
X133410839Y-87145654D01*
X133164802Y-86777434D01*
X132796582Y-86531397D01*
X132362236Y-86445000D01*
X132317764Y-86445000D01*
X131883418Y-86531397D01*
X131515198Y-86777434D01*
X131269161Y-87145654D01*
X131182764Y-87580000D01*
X130957236Y-87580000D01*
X130870839Y-87145654D01*
X130624802Y-86777434D01*
X130256582Y-86531397D01*
X129822236Y-86445000D01*
X129777764Y-86445000D01*
X129343418Y-86531397D01*
X128975198Y-86777434D01*
X128729161Y-87145654D01*
X128642764Y-87580000D01*
X128402052Y-87580000D01*
X128402052Y-86805000D01*
X128376950Y-86671592D01*
X128298106Y-86549065D01*
X128177804Y-86466867D01*
X128035000Y-86437948D01*
X126485000Y-86437948D01*
X126351592Y-86463050D01*
X126229065Y-86541894D01*
X126146867Y-86662196D01*
X126117948Y-86805000D01*
X123748853Y-86805000D01*
X123111546Y-86540367D01*
X122272136Y-86539635D01*
X121496343Y-86860186D01*
X120902272Y-87453221D01*
X120580367Y-88228454D01*
X120579635Y-89067864D01*
X113323964Y-89067864D01*
X113323964Y-85055411D01*
X203503964Y-85055411D01*
X203503964Y-138255411D01*
X203503964Y-138255411D01*
G37*
X203503964Y-138255411D02*
X174323964Y-138255411D01*
X174323964Y-135561804D01*
X196507894Y-135561804D01*
X196600565Y-135786086D01*
X196772011Y-135957832D01*
X196996131Y-136050894D01*
X197238804Y-136051106D01*
X197463086Y-135958435D01*
X197634832Y-135786989D01*
X197727894Y-135562869D01*
X197728106Y-135320196D01*
X197635435Y-135095914D01*
X197463989Y-134924168D01*
X197239869Y-134831106D01*
X196997196Y-134830894D01*
X196772914Y-134923565D01*
X196601168Y-135095011D01*
X196508106Y-135319131D01*
X196507894Y-135561804D01*
X174323964Y-135561804D01*
X174323964Y-133662155D01*
X190755124Y-133662155D01*
X190929368Y-133894132D01*
X191597212Y-134163344D01*
X192317241Y-134156491D01*
X192950632Y-133894132D01*
X193124876Y-133662155D01*
X191940000Y-132477279D01*
X190755124Y-133662155D01*
X174323964Y-133662155D01*
X174323964Y-132007212D01*
X190126656Y-132007212D01*
X190133509Y-132727241D01*
X190395868Y-133360632D01*
X190627845Y-133534876D01*
X191812721Y-132350000D01*
X190627845Y-131165124D01*
X190395868Y-131339368D01*
X190126656Y-132007212D01*
X174323964Y-132007212D01*
X174323964Y-131037845D01*
X190755124Y-131037845D01*
X191940000Y-132222721D01*
X191954143Y-132208579D01*
X192081422Y-132335858D01*
X192067279Y-132350000D01*
X193252155Y-133534876D01*
X193484132Y-133360632D01*
X193753344Y-132692788D01*
X193746491Y-131972759D01*
X193683641Y-131821024D01*
X193864120Y-132001819D01*
X194593427Y-132304654D01*
X195383109Y-132305343D01*
X196112943Y-132003782D01*
X196667868Y-131449824D01*
X198779808Y-131449824D01*
X198948439Y-131857943D01*
X199260415Y-132170463D01*
X199668239Y-132339807D01*
X200109824Y-132340192D01*
X200517943Y-132171561D01*
X200830463Y-131859585D01*
X200999807Y-131451761D01*
X201000192Y-131010176D01*
X200831561Y-130602057D01*
X200519585Y-130289537D01*
X200111761Y-130120193D01*
X199670176Y-130119808D01*
X199262057Y-130288439D01*
X198949537Y-130600415D01*
X198780193Y-131008239D01*
X198779808Y-131449824D01*
X196667868Y-131449824D01*
X196671819Y-131445880D01*
X196974654Y-130716573D01*
X196975343Y-129926891D01*
X196673782Y-129197057D01*
X196387050Y-128909824D01*
X198779808Y-128909824D01*
X198948439Y-129317943D01*
X199260415Y-129630463D01*
X199668239Y-129799807D01*
X200109824Y-129800192D01*
X200517943Y-129631561D01*
X200830463Y-129319585D01*
X200999807Y-128911761D01*
X201000192Y-128470176D01*
X200831561Y-128062057D01*
X200519585Y-127749537D01*
X200111761Y-127580193D01*
X199670176Y-127579808D01*
X199262057Y-127748439D01*
X198949537Y-128060415D01*
X198780193Y-128468239D01*
X198779808Y-128909824D01*
X196387050Y-128909824D01*
X196115880Y-128638181D01*
X195386573Y-128335346D01*
X194596891Y-128334657D01*
X193867057Y-128636218D01*
X193308181Y-129194120D01*
X193005346Y-129923427D01*
X193004657Y-130713109D01*
X193134753Y-131027965D01*
X193124875Y-131037843D01*
X192950632Y-130805868D01*
X192282788Y-130536656D01*
X191562759Y-130543509D01*
X190929368Y-130805868D01*
X190755124Y-131037845D01*
X174323964Y-131037845D01*
X174323964Y-129264824D01*
X187529808Y-129264824D01*
X187698439Y-129672943D01*
X188010415Y-129985463D01*
X188418239Y-130154807D01*
X188859824Y-130155192D01*
X189267943Y-129986561D01*
X189580463Y-129674585D01*
X189749807Y-129266761D01*
X189750192Y-128825176D01*
X189581561Y-128417057D01*
X189269585Y-128104537D01*
X188861761Y-127935193D01*
X188420176Y-127934808D01*
X188012057Y-128103439D01*
X187699537Y-128415415D01*
X187530193Y-128823239D01*
X187529808Y-129264824D01*
X174323964Y-129264824D01*
X174323964Y-128004824D01*
X184989808Y-128004824D01*
X185158439Y-128412943D01*
X185470415Y-128725463D01*
X185878239Y-128894807D01*
X186319824Y-128895192D01*
X186727943Y-128726561D01*
X187040463Y-128414585D01*
X187209807Y-128006761D01*
X187210192Y-127565176D01*
X187041561Y-127157057D01*
X186729585Y-126844537D01*
X186441286Y-126724824D01*
X187529808Y-126724824D01*
X187698439Y-127132943D01*
X188010415Y-127445463D01*
X188418239Y-127614807D01*
X188859824Y-127615192D01*
X189267943Y-127446561D01*
X189580463Y-127134585D01*
X189749807Y-126726761D01*
X189750192Y-126285176D01*
X189581561Y-125877057D01*
X189269585Y-125564537D01*
X188861761Y-125395193D01*
X188420176Y-125394808D01*
X188012057Y-125563439D01*
X187699537Y-125875415D01*
X187530193Y-126283239D01*
X187529808Y-126724824D01*
X186441286Y-126724824D01*
X186321761Y-126675193D01*
X185880176Y-126674808D01*
X185472057Y-126843439D01*
X185159537Y-127155415D01*
X184990193Y-127563239D01*
X184989808Y-128004824D01*
X174323964Y-128004824D01*
X174323964Y-125464824D01*
X184989808Y-125464824D01*
X185158439Y-125872943D01*
X185470415Y-126185463D01*
X185878239Y-126354807D01*
X186319824Y-126355192D01*
X186727943Y-126186561D01*
X187040463Y-125874585D01*
X187209807Y-125466761D01*
X187210192Y-125025176D01*
X187041561Y-124617057D01*
X186729585Y-124304537D01*
X186441286Y-124184824D01*
X187529808Y-124184824D01*
X187698439Y-124592943D01*
X188010415Y-124905463D01*
X188418239Y-125074807D01*
X188859824Y-125075192D01*
X189267943Y-124906561D01*
X189580463Y-124594585D01*
X189749807Y-124186761D01*
X189750192Y-123745176D01*
X189581561Y-123337057D01*
X189269585Y-123024537D01*
X188861761Y-122855193D01*
X188420176Y-122854808D01*
X188012057Y-123023439D01*
X187699537Y-123335415D01*
X187530193Y-123743239D01*
X187529808Y-124184824D01*
X186441286Y-124184824D01*
X186321761Y-124135193D01*
X185880176Y-124134808D01*
X185472057Y-124303439D01*
X185159537Y-124615415D01*
X184990193Y-125023239D01*
X184989808Y-125464824D01*
X174323964Y-125464824D01*
X174323964Y-122924824D01*
X184989808Y-122924824D01*
X185158439Y-123332943D01*
X185470415Y-123645463D01*
X185878239Y-123814807D01*
X186319824Y-123815192D01*
X186727943Y-123646561D01*
X187040463Y-123334585D01*
X187209807Y-122926761D01*
X187210192Y-122485176D01*
X187041561Y-122077057D01*
X186729585Y-121764537D01*
X186441286Y-121644824D01*
X187529808Y-121644824D01*
X187698439Y-122052943D01*
X188010415Y-122365463D01*
X188418239Y-122534807D01*
X188859824Y-122535192D01*
X189267943Y-122366561D01*
X189580463Y-122054585D01*
X189749807Y-121646761D01*
X189750117Y-121290196D01*
X199247083Y-121290196D01*
X199329759Y-121444223D01*
X199726089Y-121588265D01*
X200147373Y-121569674D01*
X200450241Y-121444223D01*
X200532917Y-121290196D01*
X199890000Y-120647279D01*
X199247083Y-121290196D01*
X189750117Y-121290196D01*
X189750192Y-121205176D01*
X189581561Y-120797057D01*
X189269585Y-120484537D01*
X188861761Y-120315193D01*
X188420176Y-120314808D01*
X188012057Y-120483439D01*
X187699537Y-120795415D01*
X187530193Y-121203239D01*
X187529808Y-121644824D01*
X186441286Y-121644824D01*
X186321761Y-121595193D01*
X185880176Y-121594808D01*
X185472057Y-121763439D01*
X185159537Y-122075415D01*
X184990193Y-122483239D01*
X184989808Y-122924824D01*
X174323964Y-122924824D01*
X174323964Y-120935196D01*
X185457083Y-120935196D01*
X185539759Y-121089223D01*
X185936089Y-121233265D01*
X186357373Y-121214674D01*
X186660241Y-121089223D01*
X186742917Y-120935196D01*
X186100000Y-120292279D01*
X185457083Y-120935196D01*
X174323964Y-120935196D01*
X174323964Y-120001089D01*
X185031735Y-120001089D01*
X185050326Y-120422373D01*
X185175777Y-120725241D01*
X185329804Y-120807917D01*
X185972721Y-120165000D01*
X186227279Y-120165000D01*
X186870196Y-120807917D01*
X187024223Y-120725241D01*
X187168265Y-120328911D01*
X187149674Y-119907627D01*
X187024223Y-119604759D01*
X186870196Y-119522083D01*
X186227279Y-120165000D01*
X185972721Y-120165000D01*
X185329804Y-119522083D01*
X185175777Y-119604759D01*
X185031735Y-120001089D01*
X174323964Y-120001089D01*
X174323964Y-119394804D01*
X185457083Y-119394804D01*
X186100000Y-120037721D01*
X186742917Y-119394804D01*
X186660241Y-119240777D01*
X186263911Y-119096735D01*
X185842627Y-119115326D01*
X185539759Y-119240777D01*
X185457083Y-119394804D01*
X174323964Y-119394804D01*
X174323964Y-118172155D01*
X190755124Y-118172155D01*
X190929368Y-118404132D01*
X191597212Y-118673344D01*
X192317241Y-118666491D01*
X192950632Y-118404132D01*
X193124875Y-118172157D01*
X193134679Y-118181961D01*
X193005346Y-118493427D01*
X193004657Y-119283109D01*
X193306218Y-120012943D01*
X193864120Y-120571819D01*
X194593427Y-120874654D01*
X195383109Y-120875343D01*
X196112943Y-120573782D01*
X196331016Y-120356089D01*
X198821735Y-120356089D01*
X198840326Y-120777373D01*
X198965777Y-121080241D01*
X199119804Y-121162917D01*
X199762721Y-120520000D01*
X200017279Y-120520000D01*
X200660196Y-121162917D01*
X200814223Y-121080241D01*
X200958265Y-120683911D01*
X200939674Y-120262627D01*
X200814223Y-119959759D01*
X200660196Y-119877083D01*
X200017279Y-120520000D01*
X199762721Y-120520000D01*
X199119804Y-119877083D01*
X198965777Y-119959759D01*
X198821735Y-120356089D01*
X196331016Y-120356089D01*
X196671819Y-120015880D01*
X196782303Y-119749804D01*
X199247083Y-119749804D01*
X199890000Y-120392721D01*
X200532917Y-119749804D01*
X200450241Y-119595777D01*
X200053911Y-119451735D01*
X199632627Y-119470326D01*
X199329759Y-119595777D01*
X199247083Y-119749804D01*
X196782303Y-119749804D01*
X196974654Y-119286573D01*
X196975343Y-118496891D01*
X196852598Y-118199824D01*
X198779808Y-118199824D01*
X198948439Y-118607943D01*
X199260415Y-118920463D01*
X199668239Y-119089807D01*
X200109824Y-119090192D01*
X200517943Y-118921561D01*
X200830463Y-118609585D01*
X200999807Y-118201761D01*
X201000192Y-117760176D01*
X200831561Y-117352057D01*
X200519585Y-117039537D01*
X200111761Y-116870193D01*
X199670176Y-116869808D01*
X199262057Y-117038439D01*
X198949537Y-117350415D01*
X198780193Y-117758239D01*
X198779808Y-118199824D01*
X196852598Y-118199824D01*
X196673782Y-117767057D01*
X196115880Y-117208181D01*
X195386573Y-116905346D01*
X194596891Y-116904657D01*
X193867057Y-117206218D01*
X193674459Y-117398480D01*
X193753344Y-117202788D01*
X193746491Y-116482759D01*
X193484132Y-115849368D01*
X193252155Y-115675124D01*
X192067279Y-116860000D01*
X192081422Y-116874143D01*
X191954143Y-117001422D01*
X191940000Y-116987279D01*
X190755124Y-118172155D01*
X174323964Y-118172155D01*
X174323964Y-116517212D01*
X190126656Y-116517212D01*
X190133509Y-117237241D01*
X190395868Y-117870632D01*
X190627845Y-118044876D01*
X191812721Y-116860000D01*
X190627845Y-115675124D01*
X190395868Y-115849368D01*
X190126656Y-116517212D01*
X174323964Y-116517212D01*
X174323964Y-115547845D01*
X190755124Y-115547845D01*
X191940000Y-116732721D01*
X193124876Y-115547845D01*
X192950632Y-115315868D01*
X192282788Y-115046656D01*
X191562759Y-115053509D01*
X190929368Y-115315868D01*
X190755124Y-115547845D01*
X174323964Y-115547845D01*
X174323964Y-114160804D01*
X195799894Y-114160804D01*
X195892565Y-114385086D01*
X196064011Y-114556832D01*
X196288131Y-114649894D01*
X196530804Y-114650106D01*
X196755086Y-114557435D01*
X196926832Y-114385989D01*
X197019894Y-114161869D01*
X197020106Y-113919196D01*
X196927435Y-113694914D01*
X196755989Y-113523168D01*
X196531869Y-113430106D01*
X196289196Y-113429894D01*
X196064914Y-113522565D01*
X195893168Y-113694011D01*
X195800106Y-113918131D01*
X195799894Y-114160804D01*
X174323964Y-114160804D01*
X174323964Y-113445411D01*
X174316086Y-113405805D01*
X174316086Y-113365424D01*
X174011604Y-111834690D01*
X173950385Y-111686893D01*
X173950382Y-111686890D01*
X173083294Y-110389200D01*
X172970175Y-110276081D01*
X171672482Y-109408990D01*
X171524685Y-109347771D01*
X169993951Y-109043289D01*
X169953570Y-109043289D01*
X169913964Y-109035411D01*
X114954346Y-109035411D01*
X114308571Y-108906958D01*
X113795344Y-108564031D01*
X113452313Y-108050648D01*
X113323964Y-107408325D01*
X113323964Y-104081420D01*
X118273269Y-104081420D01*
X118273269Y-106113420D01*
X118308831Y-106302415D01*
X118420526Y-106475995D01*
X118590954Y-106592443D01*
X118793260Y-106633411D01*
X120520460Y-106633411D01*
X120709455Y-106597849D01*
X120883035Y-106486154D01*
X120999483Y-106315726D01*
X121040451Y-106113420D01*
X121040451Y-105614569D01*
X121066401Y-105745028D01*
X121331644Y-106141993D01*
X121728609Y-106407236D01*
X122196860Y-106500377D01*
X122665111Y-106407236D01*
X123062076Y-106141993D01*
X123327319Y-105745028D01*
X123401488Y-105372153D01*
X123565593Y-105372153D01*
X123701565Y-105811065D01*
X123995151Y-106164533D01*
X124401656Y-106378744D01*
X124464917Y-106391478D01*
X124646860Y-106342219D01*
X124646860Y-105187420D01*
X124826860Y-105187420D01*
X124826860Y-106342219D01*
X125008803Y-106391478D01*
X125072064Y-106378744D01*
X125478569Y-106164533D01*
X125772155Y-105811065D01*
X125908127Y-105372153D01*
X125835344Y-105187420D01*
X124826860Y-105187420D01*
X124646860Y-105187420D01*
X123638376Y-105187420D01*
X123565593Y-105372153D01*
X123401488Y-105372153D01*
X123420460Y-105276777D01*
X123420460Y-104918063D01*
X123401489Y-104822687D01*
X123565593Y-104822687D01*
X123638376Y-105007420D01*
X124646860Y-105007420D01*
X124646860Y-103852621D01*
X124826860Y-103852621D01*
X124826860Y-105007420D01*
X125835344Y-105007420D01*
X125870549Y-104918063D01*
X126053260Y-104918063D01*
X126053260Y-105276777D01*
X126146401Y-105745028D01*
X126411644Y-106141993D01*
X126808609Y-106407236D01*
X127276860Y-106500377D01*
X127745111Y-106407236D01*
X128142076Y-106141993D01*
X128407319Y-105745028D01*
X128500460Y-105276777D01*
X128500460Y-104918063D01*
X128593260Y-104918063D01*
X128593260Y-105276777D01*
X128686401Y-105745028D01*
X128951644Y-106141993D01*
X129348609Y-106407236D01*
X129816860Y-106500377D01*
X130285111Y-106407236D01*
X130682076Y-106141993D01*
X130947319Y-105745028D01*
X131040460Y-105276777D01*
X131040460Y-104918063D01*
X131133260Y-104918063D01*
X131133260Y-105276777D01*
X131226401Y-105745028D01*
X131491644Y-106141993D01*
X131888609Y-106407236D01*
X132356860Y-106500377D01*
X132825111Y-106407236D01*
X133222076Y-106141993D01*
X133487319Y-105745028D01*
X133580460Y-105276777D01*
X133580460Y-104918063D01*
X133673260Y-104918063D01*
X133673260Y-105276777D01*
X133766401Y-105745028D01*
X134031644Y-106141993D01*
X134428609Y-106407236D01*
X134896860Y-106500377D01*
X135365111Y-106407236D01*
X135762076Y-106141993D01*
X136027319Y-105745028D01*
X136120460Y-105276777D01*
X136120460Y-104918063D01*
X136213260Y-104918063D01*
X136213260Y-105276777D01*
X136306401Y-105745028D01*
X136571644Y-106141993D01*
X136968609Y-106407236D01*
X137436860Y-106500377D01*
X137905111Y-106407236D01*
X138302076Y-106141993D01*
X138325664Y-106106690D01*
X193375489Y-106106690D01*
X193718828Y-106937635D01*
X194354021Y-107573938D01*
X195184366Y-107918727D01*
X196083450Y-107919511D01*
X196914395Y-107576172D01*
X197550698Y-106940979D01*
X197895487Y-106110634D01*
X197896271Y-105211550D01*
X197552932Y-104380605D01*
X196917739Y-103744302D01*
X196087394Y-103399513D01*
X195188310Y-103398729D01*
X194357365Y-103742068D01*
X193721062Y-104377261D01*
X193376273Y-105207606D01*
X193375489Y-106106690D01*
X138325664Y-106106690D01*
X138567319Y-105745028D01*
X138660460Y-105276777D01*
X138660460Y-104918063D01*
X138625719Y-104743404D01*
X146278094Y-104743404D01*
X146370765Y-104967686D01*
X146542211Y-105139432D01*
X146766331Y-105232494D01*
X147009004Y-105232706D01*
X147233286Y-105140035D01*
X147405032Y-104968589D01*
X147498094Y-104744469D01*
X147498306Y-104501796D01*
X147405635Y-104277514D01*
X147234189Y-104105768D01*
X147010069Y-104012706D01*
X146767396Y-104012494D01*
X146543114Y-104105165D01*
X146371368Y-104276611D01*
X146278306Y-104500731D01*
X146278094Y-104743404D01*
X138625719Y-104743404D01*
X138567319Y-104449812D01*
X138302076Y-104052847D01*
X137905111Y-103787604D01*
X137436860Y-103694463D01*
X136968609Y-103787604D01*
X136571644Y-104052847D01*
X136306401Y-104449812D01*
X136213260Y-104918063D01*
X136120460Y-104918063D01*
X136027319Y-104449812D01*
X135762076Y-104052847D01*
X135365111Y-103787604D01*
X134896860Y-103694463D01*
X134428609Y-103787604D01*
X134031644Y-104052847D01*
X133766401Y-104449812D01*
X133673260Y-104918063D01*
X133580460Y-104918063D01*
X133487319Y-104449812D01*
X133222076Y-104052847D01*
X132825111Y-103787604D01*
X132356860Y-103694463D01*
X131888609Y-103787604D01*
X131491644Y-104052847D01*
X131226401Y-104449812D01*
X131133260Y-104918063D01*
X131040460Y-104918063D01*
X130947319Y-104449812D01*
X130682076Y-104052847D01*
X130285111Y-103787604D01*
X129816860Y-103694463D01*
X129348609Y-103787604D01*
X128951644Y-104052847D01*
X128686401Y-104449812D01*
X128593260Y-104918063D01*
X128500460Y-104918063D01*
X128407319Y-104449812D01*
X128142076Y-104052847D01*
X127745111Y-103787604D01*
X127276860Y-103694463D01*
X126808609Y-103787604D01*
X126411644Y-104052847D01*
X126146401Y-104449812D01*
X126053260Y-104918063D01*
X125870549Y-104918063D01*
X125908127Y-104822687D01*
X125772155Y-104383775D01*
X125478569Y-104030307D01*
X125072064Y-103816096D01*
X125008803Y-103803362D01*
X124826860Y-103852621D01*
X124646860Y-103852621D01*
X124464917Y-103803362D01*
X124401656Y-103816096D01*
X123995151Y-104030307D01*
X123701565Y-104383775D01*
X123565593Y-104822687D01*
X123401489Y-104822687D01*
X123327319Y-104449812D01*
X123062076Y-104052847D01*
X122665111Y-103787604D01*
X122196860Y-103694463D01*
X121728609Y-103787604D01*
X121331644Y-104052847D01*
X121066401Y-104449812D01*
X121040451Y-104580271D01*
X121040451Y-104081420D01*
X121004889Y-103892425D01*
X120893194Y-103718845D01*
X120722766Y-103602397D01*
X120520460Y-103561429D01*
X118793260Y-103561429D01*
X118604265Y-103596991D01*
X118430685Y-103708686D01*
X118314237Y-103879114D01*
X118273269Y-104081420D01*
X113323964Y-104081420D01*
X113323964Y-100620804D01*
X144699894Y-100620804D01*
X144792565Y-100845086D01*
X144964011Y-101016832D01*
X145188131Y-101109894D01*
X145430804Y-101110106D01*
X145655086Y-101017435D01*
X145826832Y-100845989D01*
X145919894Y-100621869D01*
X145920106Y-100379196D01*
X145827435Y-100154914D01*
X145655989Y-99983168D01*
X145431869Y-99890106D01*
X145189196Y-99889894D01*
X144964914Y-99982565D01*
X144793168Y-100154011D01*
X144700106Y-100378131D01*
X144699894Y-100620804D01*
X113323964Y-100620804D01*
X113323964Y-99841204D01*
X143026894Y-99841204D01*
X143119565Y-100065486D01*
X143291011Y-100237232D01*
X143515131Y-100330294D01*
X143757804Y-100330506D01*
X143982086Y-100237835D01*
X144153832Y-100066389D01*
X144246894Y-99842269D01*
X144246901Y-99834469D01*
X144308131Y-99859894D01*
X144550804Y-99860106D01*
X144775086Y-99767435D01*
X144946832Y-99595989D01*
X145039894Y-99371869D01*
X145040106Y-99129196D01*
X145015980Y-99070804D01*
X150809894Y-99070804D01*
X150902565Y-99295086D01*
X151074011Y-99466832D01*
X151298131Y-99559894D01*
X151540804Y-99560106D01*
X151765086Y-99467435D01*
X151936832Y-99295989D01*
X151965456Y-99227054D01*
X152016511Y-99248254D01*
X152259184Y-99248466D01*
X152483466Y-99155795D01*
X152655212Y-98984349D01*
X152748274Y-98760229D01*
X152748380Y-98638650D01*
X189665662Y-98638650D01*
X189857081Y-99101920D01*
X190211215Y-99456673D01*
X190651107Y-99639332D01*
X190213080Y-99820321D01*
X189858327Y-100174455D01*
X189666099Y-100637391D01*
X189665662Y-101138650D01*
X189857081Y-101601920D01*
X190211215Y-101956673D01*
X190674151Y-102148901D01*
X191175410Y-102149338D01*
X191638680Y-101957919D01*
X191926070Y-101671030D01*
X192211215Y-101956673D01*
X192674151Y-102148901D01*
X193175410Y-102149338D01*
X193638680Y-101957919D01*
X193993433Y-101603785D01*
X194185661Y-101140849D01*
X194186098Y-100639590D01*
X193994679Y-100176320D01*
X193640545Y-99821567D01*
X193200653Y-99638908D01*
X193638680Y-99457919D01*
X193697582Y-99399120D01*
X196250880Y-99399120D01*
X196637390Y-99322238D01*
X196965058Y-99103298D01*
X199629198Y-96439158D01*
X199848138Y-96111490D01*
X199925020Y-95724980D01*
X199925020Y-89741632D01*
X200184061Y-89353950D01*
X200288620Y-88828296D01*
X200288620Y-88463704D01*
X200184061Y-87938050D01*
X199886302Y-87492422D01*
X199440674Y-87194663D01*
X198915020Y-87090104D01*
X198389366Y-87194663D01*
X197943738Y-87492422D01*
X197645979Y-87938050D01*
X197645020Y-87942871D01*
X197644061Y-87938050D01*
X197346302Y-87492422D01*
X196900674Y-87194663D01*
X196375020Y-87090104D01*
X195849366Y-87194663D01*
X195403738Y-87492422D01*
X195105979Y-87938050D01*
X195105020Y-87942871D01*
X195104061Y-87938050D01*
X194806302Y-87492422D01*
X194360674Y-87194663D01*
X193835020Y-87090104D01*
X193309366Y-87194663D01*
X192863738Y-87492422D01*
X192678611Y-87769484D01*
X192678611Y-87630000D01*
X192643049Y-87441005D01*
X192531354Y-87267425D01*
X192360926Y-87150977D01*
X192158620Y-87110009D01*
X190431420Y-87110009D01*
X190242425Y-87145571D01*
X190068845Y-87257266D01*
X189952397Y-87427694D01*
X189911429Y-87630000D01*
X189911429Y-89662000D01*
X189915880Y-89685654D01*
X189915880Y-97617002D01*
X189858327Y-97674455D01*
X189666099Y-98137391D01*
X189665662Y-98638650D01*
X152748380Y-98638650D01*
X152748486Y-98517556D01*
X152655815Y-98293274D01*
X152484369Y-98121528D01*
X152260249Y-98028466D01*
X152017576Y-98028254D01*
X151793294Y-98120925D01*
X151621548Y-98292371D01*
X151592924Y-98361306D01*
X151541869Y-98340106D01*
X151299196Y-98339894D01*
X151074914Y-98432565D01*
X150903168Y-98604011D01*
X150810106Y-98828131D01*
X150809894Y-99070804D01*
X145015980Y-99070804D01*
X144958423Y-98931507D01*
X145065086Y-98887435D01*
X145187247Y-98765487D01*
X145199312Y-98777573D01*
X145423432Y-98870635D01*
X145666105Y-98870847D01*
X145890387Y-98778176D01*
X146062133Y-98606730D01*
X146155195Y-98382610D01*
X146155407Y-98139937D01*
X146062736Y-97915655D01*
X145891290Y-97743909D01*
X145667170Y-97650847D01*
X145424497Y-97650635D01*
X145200215Y-97743306D01*
X145078054Y-97865254D01*
X145065989Y-97853168D01*
X144841869Y-97760106D01*
X144599196Y-97759894D01*
X144374914Y-97852565D01*
X144203168Y-98024011D01*
X144110106Y-98248131D01*
X144109894Y-98490804D01*
X144191577Y-98688493D01*
X144084914Y-98732565D01*
X143913168Y-98904011D01*
X143820106Y-99128131D01*
X143820099Y-99135931D01*
X143758869Y-99110506D01*
X143516196Y-99110294D01*
X143291914Y-99202965D01*
X143120168Y-99374411D01*
X143027106Y-99598531D01*
X143026894Y-99841204D01*
X113323964Y-99841204D01*
X113323964Y-96767804D01*
X149249894Y-96767804D01*
X149342565Y-96992086D01*
X149514011Y-97163832D01*
X149738131Y-97256894D01*
X149980804Y-97257106D01*
X150205086Y-97164435D01*
X150376832Y-96992989D01*
X150469894Y-96768869D01*
X150470106Y-96526196D01*
X150377435Y-96301914D01*
X150226591Y-96150806D01*
X151779894Y-96150806D01*
X151872565Y-96375088D01*
X152044011Y-96546834D01*
X152268131Y-96639896D01*
X152510804Y-96640108D01*
X152735086Y-96547437D01*
X152906832Y-96375991D01*
X152999894Y-96151871D01*
X153000106Y-95909198D01*
X152907435Y-95684916D01*
X152735989Y-95513170D01*
X152511869Y-95420108D01*
X152269196Y-95419896D01*
X152044914Y-95512567D01*
X151873168Y-95684013D01*
X151780106Y-95908133D01*
X151779894Y-96150806D01*
X150226591Y-96150806D01*
X150205989Y-96130168D01*
X149981869Y-96037106D01*
X149739196Y-96036894D01*
X149514914Y-96129565D01*
X149343168Y-96301011D01*
X149250106Y-96525131D01*
X149249894Y-96767804D01*
X113323964Y-96767804D01*
X113323964Y-94659604D01*
X144804894Y-94659604D01*
X144897565Y-94883886D01*
X145069011Y-95055632D01*
X145293131Y-95148694D01*
X145535804Y-95148906D01*
X145760086Y-95056235D01*
X145931832Y-94884789D01*
X146024894Y-94660669D01*
X146025106Y-94417996D01*
X145932435Y-94193714D01*
X145809740Y-94070804D01*
X151939894Y-94070804D01*
X152032565Y-94295086D01*
X152204011Y-94466832D01*
X152428131Y-94559894D01*
X152670804Y-94560106D01*
X152767475Y-94520162D01*
X152802565Y-94605086D01*
X152974011Y-94776832D01*
X153198131Y-94869894D01*
X153440804Y-94870106D01*
X153665086Y-94777435D01*
X153836832Y-94605989D01*
X153929894Y-94381869D01*
X153930106Y-94139196D01*
X153837435Y-93914914D01*
X153665989Y-93743168D01*
X153441869Y-93650106D01*
X153199196Y-93649894D01*
X153102525Y-93689838D01*
X153067435Y-93604914D01*
X152895989Y-93433168D01*
X152671869Y-93340106D01*
X152429196Y-93339894D01*
X152204914Y-93432565D01*
X152033168Y-93604011D01*
X151940106Y-93828131D01*
X151939894Y-94070804D01*
X145809740Y-94070804D01*
X145760989Y-94021968D01*
X145536869Y-93928906D01*
X145294196Y-93928694D01*
X145069914Y-94021365D01*
X144898168Y-94192811D01*
X144805106Y-94416931D01*
X144804894Y-94659604D01*
X113323964Y-94659604D01*
X113323964Y-89067864D01*
X120579635Y-89067864D01*
X120900186Y-89843657D01*
X121493221Y-90437728D01*
X122268454Y-90759633D01*
X123107864Y-90760365D01*
X123883657Y-90439814D01*
X124204029Y-90120000D01*
X125949825Y-90120000D01*
X126047640Y-90611748D01*
X126326193Y-91028632D01*
X126743077Y-91307185D01*
X127234825Y-91405000D01*
X127285175Y-91405000D01*
X127776923Y-91307185D01*
X128193807Y-91028632D01*
X128472360Y-90611748D01*
X128530000Y-90321973D01*
X128587640Y-90611748D01*
X128866193Y-91028632D01*
X129283077Y-91307185D01*
X129774825Y-91405000D01*
X129825175Y-91405000D01*
X130316923Y-91307185D01*
X130733807Y-91028632D01*
X131012360Y-90611748D01*
X131058847Y-90378038D01*
X131286130Y-90378038D01*
X131412333Y-90682743D01*
X131698300Y-90994910D01*
X132081960Y-91173879D01*
X132250000Y-91123770D01*
X132250000Y-90210000D01*
X132430000Y-90210000D01*
X132430000Y-91123770D01*
X132598040Y-91173879D01*
X132981700Y-90994910D01*
X133267667Y-90682743D01*
X133393870Y-90378038D01*
X133343472Y-90210000D01*
X132430000Y-90210000D01*
X132250000Y-90210000D01*
X131336528Y-90210000D01*
X131286130Y-90378038D01*
X131058847Y-90378038D01*
X131110175Y-90120000D01*
X133722764Y-90120000D01*
X133809161Y-90554346D01*
X134055198Y-90922566D01*
X134423418Y-91168603D01*
X134857764Y-91255000D01*
X134902236Y-91255000D01*
X135336582Y-91168603D01*
X135704802Y-90922566D01*
X135950839Y-90554346D01*
X136037236Y-90120000D01*
X136262764Y-90120000D01*
X136349161Y-90554346D01*
X136595198Y-90922566D01*
X136963418Y-91168603D01*
X137397764Y-91255000D01*
X137442236Y-91255000D01*
X137876582Y-91168603D01*
X138244802Y-90922566D01*
X138490839Y-90554346D01*
X138577236Y-90120000D01*
X138802764Y-90120000D01*
X138889161Y-90554346D01*
X139135198Y-90922566D01*
X139503418Y-91168603D01*
X139937764Y-91255000D01*
X139982236Y-91255000D01*
X140416582Y-91168603D01*
X140784802Y-90922566D01*
X141030839Y-90554346D01*
X141117236Y-90120000D01*
X141342764Y-90120000D01*
X141429161Y-90554346D01*
X141675198Y-90922566D01*
X142043418Y-91168603D01*
X142477764Y-91255000D01*
X142522236Y-91255000D01*
X142956582Y-91168603D01*
X143324802Y-90922566D01*
X143570839Y-90554346D01*
X143657236Y-90120000D01*
X143882764Y-90120000D01*
X143969161Y-90554346D01*
X144215198Y-90922566D01*
X144583418Y-91168603D01*
X145017764Y-91255000D01*
X145062236Y-91255000D01*
X145496582Y-91168603D01*
X145864802Y-90922566D01*
X146110839Y-90554346D01*
X146197236Y-90120000D01*
X146422764Y-90120000D01*
X146509161Y-90554346D01*
X146755198Y-90922566D01*
X147123418Y-91168603D01*
X147557764Y-91255000D01*
X147602236Y-91255000D01*
X148036582Y-91168603D01*
X148404802Y-90922566D01*
X148650839Y-90554346D01*
X148685908Y-90378038D01*
X149066130Y-90378038D01*
X149192333Y-90682743D01*
X149478300Y-90994910D01*
X149861960Y-91173879D01*
X150030000Y-91123770D01*
X150030000Y-90210000D01*
X150210000Y-90210000D01*
X150210000Y-91123770D01*
X150378040Y-91173879D01*
X150761700Y-90994910D01*
X151047667Y-90682743D01*
X151173870Y-90378038D01*
X151123472Y-90210000D01*
X150210000Y-90210000D01*
X150030000Y-90210000D01*
X149116528Y-90210000D01*
X149066130Y-90378038D01*
X148685908Y-90378038D01*
X148737236Y-90120000D01*
X151502764Y-90120000D01*
X151589161Y-90554346D01*
X151835198Y-90922566D01*
X152203418Y-91168603D01*
X152637764Y-91255000D01*
X152682236Y-91255000D01*
X153116582Y-91168603D01*
X153484802Y-90922566D01*
X153730839Y-90554346D01*
X153817236Y-90120000D01*
X154042764Y-90120000D01*
X154129161Y-90554346D01*
X154375198Y-90922566D01*
X154743418Y-91168603D01*
X155177764Y-91255000D01*
X155222236Y-91255000D01*
X155656582Y-91168603D01*
X156024802Y-90922566D01*
X156270839Y-90554346D01*
X156357236Y-90120000D01*
X156582764Y-90120000D01*
X156669161Y-90554346D01*
X156915198Y-90922566D01*
X157283418Y-91168603D01*
X157717764Y-91255000D01*
X157762236Y-91255000D01*
X158196582Y-91168603D01*
X158564802Y-90922566D01*
X158810839Y-90554346D01*
X158897236Y-90120000D01*
X159122764Y-90120000D01*
X159209161Y-90554346D01*
X159455198Y-90922566D01*
X159823418Y-91168603D01*
X160257764Y-91255000D01*
X160302236Y-91255000D01*
X160736582Y-91168603D01*
X161104802Y-90922566D01*
X161350839Y-90554346D01*
X161437236Y-90120000D01*
X161662764Y-90120000D01*
X161749161Y-90554346D01*
X161995198Y-90922566D01*
X162363418Y-91168603D01*
X162797764Y-91255000D01*
X162842236Y-91255000D01*
X163276582Y-91168603D01*
X163644802Y-90922566D01*
X163890839Y-90554346D01*
X163977236Y-90120000D01*
X164202764Y-90120000D01*
X164289161Y-90554346D01*
X164535198Y-90922566D01*
X164903418Y-91168603D01*
X165337764Y-91255000D01*
X165382236Y-91255000D01*
X165816582Y-91168603D01*
X166184802Y-90922566D01*
X166430839Y-90554346D01*
X166517236Y-90120000D01*
X166742764Y-90120000D01*
X166829161Y-90554346D01*
X167075198Y-90922566D01*
X167443418Y-91168603D01*
X167877764Y-91255000D01*
X167922236Y-91255000D01*
X168356582Y-91168603D01*
X168724802Y-90922566D01*
X168970839Y-90554346D01*
X169057236Y-90120000D01*
X169282764Y-90120000D01*
X169369161Y-90554346D01*
X169615198Y-90922566D01*
X169983418Y-91168603D01*
X170417764Y-91255000D01*
X170462236Y-91255000D01*
X170896582Y-91168603D01*
X171264802Y-90922566D01*
X171510839Y-90554346D01*
X171597236Y-90120000D01*
X171822764Y-90120000D01*
X171909161Y-90554346D01*
X172155198Y-90922566D01*
X172523418Y-91168603D01*
X172957764Y-91255000D01*
X173002236Y-91255000D01*
X173436582Y-91168603D01*
X173804802Y-90922566D01*
X174050839Y-90554346D01*
X174137236Y-90120000D01*
X174362764Y-90120000D01*
X174449161Y-90554346D01*
X174695198Y-90922566D01*
X175063418Y-91168603D01*
X175497764Y-91255000D01*
X175542236Y-91255000D01*
X175976582Y-91168603D01*
X176344802Y-90922566D01*
X176590839Y-90554346D01*
X176677236Y-90120000D01*
X176590839Y-89685654D01*
X176344802Y-89317434D01*
X175976582Y-89071397D01*
X175958821Y-89067864D01*
X178579635Y-89067864D01*
X178900186Y-89843657D01*
X179493221Y-90437728D01*
X180268454Y-90759633D01*
X181107864Y-90760365D01*
X181883657Y-90439814D01*
X182477728Y-89846779D01*
X182799633Y-89071546D01*
X182800365Y-88232136D01*
X182479814Y-87456343D01*
X181886779Y-86862272D01*
X181111546Y-86540367D01*
X180272136Y-86539635D01*
X179496343Y-86860186D01*
X178902272Y-87453221D01*
X178580367Y-88228454D01*
X178579635Y-89067864D01*
X175958821Y-89067864D01*
X175542236Y-88985000D01*
X175497764Y-88985000D01*
X175063418Y-89071397D01*
X174695198Y-89317434D01*
X174449161Y-89685654D01*
X174362764Y-90120000D01*
X174137236Y-90120000D01*
X174050839Y-89685654D01*
X173804802Y-89317434D01*
X173436582Y-89071397D01*
X173002236Y-88985000D01*
X172957764Y-88985000D01*
X172523418Y-89071397D01*
X172155198Y-89317434D01*
X171909161Y-89685654D01*
X171822764Y-90120000D01*
X171597236Y-90120000D01*
X171510839Y-89685654D01*
X171264802Y-89317434D01*
X170896582Y-89071397D01*
X170462236Y-88985000D01*
X170417764Y-88985000D01*
X169983418Y-89071397D01*
X169615198Y-89317434D01*
X169369161Y-89685654D01*
X169282764Y-90120000D01*
X169057236Y-90120000D01*
X168970839Y-89685654D01*
X168724802Y-89317434D01*
X168356582Y-89071397D01*
X167922236Y-88985000D01*
X167877764Y-88985000D01*
X167443418Y-89071397D01*
X167075198Y-89317434D01*
X166829161Y-89685654D01*
X166742764Y-90120000D01*
X166517236Y-90120000D01*
X166430839Y-89685654D01*
X166184802Y-89317434D01*
X165816582Y-89071397D01*
X165382236Y-88985000D01*
X165337764Y-88985000D01*
X164903418Y-89071397D01*
X164535198Y-89317434D01*
X164289161Y-89685654D01*
X164202764Y-90120000D01*
X163977236Y-90120000D01*
X163890839Y-89685654D01*
X163644802Y-89317434D01*
X163276582Y-89071397D01*
X162842236Y-88985000D01*
X162797764Y-88985000D01*
X162363418Y-89071397D01*
X161995198Y-89317434D01*
X161749161Y-89685654D01*
X161662764Y-90120000D01*
X161437236Y-90120000D01*
X161350839Y-89685654D01*
X161104802Y-89317434D01*
X160736582Y-89071397D01*
X160302236Y-88985000D01*
X160257764Y-88985000D01*
X159823418Y-89071397D01*
X159455198Y-89317434D01*
X159209161Y-89685654D01*
X159122764Y-90120000D01*
X158897236Y-90120000D01*
X158810839Y-89685654D01*
X158564802Y-89317434D01*
X158196582Y-89071397D01*
X157762236Y-88985000D01*
X157717764Y-88985000D01*
X157283418Y-89071397D01*
X156915198Y-89317434D01*
X156669161Y-89685654D01*
X156582764Y-90120000D01*
X156357236Y-90120000D01*
X156270839Y-89685654D01*
X156024802Y-89317434D01*
X155656582Y-89071397D01*
X155222236Y-88985000D01*
X155177764Y-88985000D01*
X154743418Y-89071397D01*
X154375198Y-89317434D01*
X154129161Y-89685654D01*
X154042764Y-90120000D01*
X153817236Y-90120000D01*
X153730839Y-89685654D01*
X153484802Y-89317434D01*
X153116582Y-89071397D01*
X152682236Y-88985000D01*
X152637764Y-88985000D01*
X152203418Y-89071397D01*
X151835198Y-89317434D01*
X151589161Y-89685654D01*
X151502764Y-90120000D01*
X148737236Y-90120000D01*
X148685909Y-89861962D01*
X149066130Y-89861962D01*
X149116528Y-90030000D01*
X150030000Y-90030000D01*
X150030000Y-89116230D01*
X150210000Y-89116230D01*
X150210000Y-90030000D01*
X151123472Y-90030000D01*
X151173870Y-89861962D01*
X151047667Y-89557257D01*
X150761700Y-89245090D01*
X150378040Y-89066121D01*
X150210000Y-89116230D01*
X150030000Y-89116230D01*
X149861960Y-89066121D01*
X149478300Y-89245090D01*
X149192333Y-89557257D01*
X149066130Y-89861962D01*
X148685909Y-89861962D01*
X148650839Y-89685654D01*
X148404802Y-89317434D01*
X148036582Y-89071397D01*
X147602236Y-88985000D01*
X147557764Y-88985000D01*
X147123418Y-89071397D01*
X146755198Y-89317434D01*
X146509161Y-89685654D01*
X146422764Y-90120000D01*
X146197236Y-90120000D01*
X146110839Y-89685654D01*
X145864802Y-89317434D01*
X145496582Y-89071397D01*
X145062236Y-88985000D01*
X145017764Y-88985000D01*
X144583418Y-89071397D01*
X144215198Y-89317434D01*
X143969161Y-89685654D01*
X143882764Y-90120000D01*
X143657236Y-90120000D01*
X143570839Y-89685654D01*
X143324802Y-89317434D01*
X142956582Y-89071397D01*
X142522236Y-88985000D01*
X142477764Y-88985000D01*
X142043418Y-89071397D01*
X141675198Y-89317434D01*
X141429161Y-89685654D01*
X141342764Y-90120000D01*
X141117236Y-90120000D01*
X141030839Y-89685654D01*
X140784802Y-89317434D01*
X140416582Y-89071397D01*
X139982236Y-88985000D01*
X139937764Y-88985000D01*
X139503418Y-89071397D01*
X139135198Y-89317434D01*
X138889161Y-89685654D01*
X138802764Y-90120000D01*
X138577236Y-90120000D01*
X138490839Y-89685654D01*
X138244802Y-89317434D01*
X137876582Y-89071397D01*
X137442236Y-88985000D01*
X137397764Y-88985000D01*
X136963418Y-89071397D01*
X136595198Y-89317434D01*
X136349161Y-89685654D01*
X136262764Y-90120000D01*
X136037236Y-90120000D01*
X135950839Y-89685654D01*
X135704802Y-89317434D01*
X135336582Y-89071397D01*
X134902236Y-88985000D01*
X134857764Y-88985000D01*
X134423418Y-89071397D01*
X134055198Y-89317434D01*
X133809161Y-89685654D01*
X133722764Y-90120000D01*
X131110175Y-90120000D01*
X131058848Y-89861962D01*
X131286130Y-89861962D01*
X131336528Y-90030000D01*
X132250000Y-90030000D01*
X132250000Y-89116230D01*
X132430000Y-89116230D01*
X132430000Y-90030000D01*
X133343472Y-90030000D01*
X133393870Y-89861962D01*
X133267667Y-89557257D01*
X132981700Y-89245090D01*
X132598040Y-89066121D01*
X132430000Y-89116230D01*
X132250000Y-89116230D01*
X132081960Y-89066121D01*
X131698300Y-89245090D01*
X131412333Y-89557257D01*
X131286130Y-89861962D01*
X131058848Y-89861962D01*
X131012360Y-89628252D01*
X130733807Y-89211368D01*
X130316923Y-88932815D01*
X129825175Y-88835000D01*
X129774825Y-88835000D01*
X129283077Y-88932815D01*
X128866193Y-89211368D01*
X128587640Y-89628252D01*
X128530000Y-89918027D01*
X128472360Y-89628252D01*
X128193807Y-89211368D01*
X127776923Y-88932815D01*
X127285175Y-88835000D01*
X127234825Y-88835000D01*
X126743077Y-88932815D01*
X126326193Y-89211368D01*
X126047640Y-89628252D01*
X125949825Y-90120000D01*
X124204029Y-90120000D01*
X124477728Y-89846779D01*
X124799633Y-89071546D01*
X124800365Y-88232136D01*
X124479814Y-87456343D01*
X123886779Y-86862272D01*
X123748853Y-86805000D01*
X126117948Y-86805000D01*
X126117948Y-88355000D01*
X126143050Y-88488408D01*
X126221894Y-88610935D01*
X126342196Y-88693133D01*
X126485000Y-88722052D01*
X128035000Y-88722052D01*
X128168408Y-88696950D01*
X128290935Y-88618106D01*
X128373133Y-88497804D01*
X128402052Y-88355000D01*
X128402052Y-87580000D01*
X128642764Y-87580000D01*
X128729161Y-88014346D01*
X128975198Y-88382566D01*
X129343418Y-88628603D01*
X129777764Y-88715000D01*
X129822236Y-88715000D01*
X130256582Y-88628603D01*
X130624802Y-88382566D01*
X130870839Y-88014346D01*
X130957236Y-87580000D01*
X131182764Y-87580000D01*
X131269161Y-88014346D01*
X131515198Y-88382566D01*
X131883418Y-88628603D01*
X132317764Y-88715000D01*
X132362236Y-88715000D01*
X132796582Y-88628603D01*
X133164802Y-88382566D01*
X133410839Y-88014346D01*
X133497236Y-87580000D01*
X133722764Y-87580000D01*
X133809161Y-88014346D01*
X134055198Y-88382566D01*
X134423418Y-88628603D01*
X134857764Y-88715000D01*
X134902236Y-88715000D01*
X135336582Y-88628603D01*
X135704802Y-88382566D01*
X135950839Y-88014346D01*
X135985908Y-87838038D01*
X136366130Y-87838038D01*
X136492333Y-88142743D01*
X136778300Y-88454910D01*
X137161960Y-88633879D01*
X137330000Y-88583770D01*
X137330000Y-87670000D01*
X137510000Y-87670000D01*
X137510000Y-88583770D01*
X137678040Y-88633879D01*
X138061700Y-88454910D01*
X138347667Y-88142743D01*
X138473870Y-87838038D01*
X138423472Y-87670000D01*
X137510000Y-87670000D01*
X137330000Y-87670000D01*
X136416528Y-87670000D01*
X136366130Y-87838038D01*
X135985908Y-87838038D01*
X136037236Y-87580000D01*
X138802764Y-87580000D01*
X138889161Y-88014346D01*
X139135198Y-88382566D01*
X139503418Y-88628603D01*
X139937764Y-88715000D01*
X139982236Y-88715000D01*
X140416582Y-88628603D01*
X140784802Y-88382566D01*
X141030839Y-88014346D01*
X141117236Y-87580000D01*
X141342764Y-87580000D01*
X141429161Y-88014346D01*
X141675198Y-88382566D01*
X142043418Y-88628603D01*
X142477764Y-88715000D01*
X142522236Y-88715000D01*
X142956582Y-88628603D01*
X143324802Y-88382566D01*
X143570839Y-88014346D01*
X143657236Y-87580000D01*
X143882764Y-87580000D01*
X143969161Y-88014346D01*
X144215198Y-88382566D01*
X144583418Y-88628603D01*
X145017764Y-88715000D01*
X145062236Y-88715000D01*
X145496582Y-88628603D01*
X145864802Y-88382566D01*
X146110839Y-88014346D01*
X146197236Y-87580000D01*
X146422764Y-87580000D01*
X146509161Y-88014346D01*
X146755198Y-88382566D01*
X147123418Y-88628603D01*
X147557764Y-88715000D01*
X147602236Y-88715000D01*
X148036582Y-88628603D01*
X148404802Y-88382566D01*
X148650839Y-88014346D01*
X148737236Y-87580000D01*
X148962764Y-87580000D01*
X149049161Y-88014346D01*
X149295198Y-88382566D01*
X149663418Y-88628603D01*
X150097764Y-88715000D01*
X150142236Y-88715000D01*
X150576582Y-88628603D01*
X150944802Y-88382566D01*
X151190839Y-88014346D01*
X151277236Y-87580000D01*
X151502764Y-87580000D01*
X151589161Y-88014346D01*
X151835198Y-88382566D01*
X152203418Y-88628603D01*
X152637764Y-88715000D01*
X152682236Y-88715000D01*
X153116582Y-88628603D01*
X153484802Y-88382566D01*
X153730839Y-88014346D01*
X153817236Y-87580000D01*
X154042764Y-87580000D01*
X154129161Y-88014346D01*
X154375198Y-88382566D01*
X154743418Y-88628603D01*
X155177764Y-88715000D01*
X155222236Y-88715000D01*
X155656582Y-88628603D01*
X156024802Y-88382566D01*
X156270839Y-88014346D01*
X156305908Y-87838038D01*
X156686130Y-87838038D01*
X156812333Y-88142743D01*
X157098300Y-88454910D01*
X157481960Y-88633879D01*
X157650000Y-88583770D01*
X157650000Y-87670000D01*
X157830000Y-87670000D01*
X157830000Y-88583770D01*
X157998040Y-88633879D01*
X158381700Y-88454910D01*
X158667667Y-88142743D01*
X158793870Y-87838038D01*
X158743472Y-87670000D01*
X157830000Y-87670000D01*
X157650000Y-87670000D01*
X156736528Y-87670000D01*
X156686130Y-87838038D01*
X156305908Y-87838038D01*
X156357236Y-87580000D01*
X159122764Y-87580000D01*
X159209161Y-88014346D01*
X159455198Y-88382566D01*
X159823418Y-88628603D01*
X160257764Y-88715000D01*
X160302236Y-88715000D01*
X160736582Y-88628603D01*
X161104802Y-88382566D01*
X161350839Y-88014346D01*
X161437236Y-87580000D01*
X161662764Y-87580000D01*
X161749161Y-88014346D01*
X161995198Y-88382566D01*
X162363418Y-88628603D01*
X162797764Y-88715000D01*
X162842236Y-88715000D01*
X163276582Y-88628603D01*
X163644802Y-88382566D01*
X163890839Y-88014346D01*
X163977236Y-87580000D01*
X164202764Y-87580000D01*
X164289161Y-88014346D01*
X164535198Y-88382566D01*
X164903418Y-88628603D01*
X165337764Y-88715000D01*
X165382236Y-88715000D01*
X165816582Y-88628603D01*
X166184802Y-88382566D01*
X166430839Y-88014346D01*
X166517236Y-87580000D01*
X166742764Y-87580000D01*
X166829161Y-88014346D01*
X167075198Y-88382566D01*
X167443418Y-88628603D01*
X167877764Y-88715000D01*
X167922236Y-88715000D01*
X168356582Y-88628603D01*
X168724802Y-88382566D01*
X168970839Y-88014346D01*
X169057236Y-87580000D01*
X169282764Y-87580000D01*
X169369161Y-88014346D01*
X169615198Y-88382566D01*
X169983418Y-88628603D01*
X170417764Y-88715000D01*
X170462236Y-88715000D01*
X170896582Y-88628603D01*
X171264802Y-88382566D01*
X171510839Y-88014346D01*
X171597236Y-87580000D01*
X171822764Y-87580000D01*
X171909161Y-88014346D01*
X172155198Y-88382566D01*
X172523418Y-88628603D01*
X172957764Y-88715000D01*
X173002236Y-88715000D01*
X173436582Y-88628603D01*
X173804802Y-88382566D01*
X174050839Y-88014346D01*
X174137236Y-87580000D01*
X174362764Y-87580000D01*
X174449161Y-88014346D01*
X174695198Y-88382566D01*
X175063418Y-88628603D01*
X175497764Y-88715000D01*
X175542236Y-88715000D01*
X175976582Y-88628603D01*
X176344802Y-88382566D01*
X176590839Y-88014346D01*
X176677236Y-87580000D01*
X176590839Y-87145654D01*
X176344802Y-86777434D01*
X175976582Y-86531397D01*
X175542236Y-86445000D01*
X175497764Y-86445000D01*
X175063418Y-86531397D01*
X174695198Y-86777434D01*
X174449161Y-87145654D01*
X174362764Y-87580000D01*
X174137236Y-87580000D01*
X174050839Y-87145654D01*
X173804802Y-86777434D01*
X173436582Y-86531397D01*
X173002236Y-86445000D01*
X172957764Y-86445000D01*
X172523418Y-86531397D01*
X172155198Y-86777434D01*
X171909161Y-87145654D01*
X171822764Y-87580000D01*
X171597236Y-87580000D01*
X171510839Y-87145654D01*
X171264802Y-86777434D01*
X170896582Y-86531397D01*
X170462236Y-86445000D01*
X170417764Y-86445000D01*
X169983418Y-86531397D01*
X169615198Y-86777434D01*
X169369161Y-87145654D01*
X169282764Y-87580000D01*
X169057236Y-87580000D01*
X168970839Y-87145654D01*
X168724802Y-86777434D01*
X168356582Y-86531397D01*
X167922236Y-86445000D01*
X167877764Y-86445000D01*
X167443418Y-86531397D01*
X167075198Y-86777434D01*
X166829161Y-87145654D01*
X166742764Y-87580000D01*
X166517236Y-87580000D01*
X166430839Y-87145654D01*
X166184802Y-86777434D01*
X165816582Y-86531397D01*
X165382236Y-86445000D01*
X165337764Y-86445000D01*
X164903418Y-86531397D01*
X164535198Y-86777434D01*
X164289161Y-87145654D01*
X164202764Y-87580000D01*
X163977236Y-87580000D01*
X163890839Y-87145654D01*
X163644802Y-86777434D01*
X163276582Y-86531397D01*
X162842236Y-86445000D01*
X162797764Y-86445000D01*
X162363418Y-86531397D01*
X161995198Y-86777434D01*
X161749161Y-87145654D01*
X161662764Y-87580000D01*
X161437236Y-87580000D01*
X161350839Y-87145654D01*
X161104802Y-86777434D01*
X160736582Y-86531397D01*
X160302236Y-86445000D01*
X160257764Y-86445000D01*
X159823418Y-86531397D01*
X159455198Y-86777434D01*
X159209161Y-87145654D01*
X159122764Y-87580000D01*
X156357236Y-87580000D01*
X156305909Y-87321962D01*
X156686130Y-87321962D01*
X156736528Y-87490000D01*
X157650000Y-87490000D01*
X157650000Y-86576230D01*
X157830000Y-86576230D01*
X157830000Y-87490000D01*
X158743472Y-87490000D01*
X158793870Y-87321962D01*
X158667667Y-87017257D01*
X158381700Y-86705090D01*
X157998040Y-86526121D01*
X157830000Y-86576230D01*
X157650000Y-86576230D01*
X157481960Y-86526121D01*
X157098300Y-86705090D01*
X156812333Y-87017257D01*
X156686130Y-87321962D01*
X156305909Y-87321962D01*
X156270839Y-87145654D01*
X156024802Y-86777434D01*
X155656582Y-86531397D01*
X155222236Y-86445000D01*
X155177764Y-86445000D01*
X154743418Y-86531397D01*
X154375198Y-86777434D01*
X154129161Y-87145654D01*
X154042764Y-87580000D01*
X153817236Y-87580000D01*
X153730839Y-87145654D01*
X153484802Y-86777434D01*
X153116582Y-86531397D01*
X152682236Y-86445000D01*
X152637764Y-86445000D01*
X152203418Y-86531397D01*
X151835198Y-86777434D01*
X151589161Y-87145654D01*
X151502764Y-87580000D01*
X151277236Y-87580000D01*
X151190839Y-87145654D01*
X150944802Y-86777434D01*
X150576582Y-86531397D01*
X150142236Y-86445000D01*
X150097764Y-86445000D01*
X149663418Y-86531397D01*
X149295198Y-86777434D01*
X149049161Y-87145654D01*
X148962764Y-87580000D01*
X148737236Y-87580000D01*
X148650839Y-87145654D01*
X148404802Y-86777434D01*
X148036582Y-86531397D01*
X147602236Y-86445000D01*
X147557764Y-86445000D01*
X147123418Y-86531397D01*
X146755198Y-86777434D01*
X146509161Y-87145654D01*
X146422764Y-87580000D01*
X146197236Y-87580000D01*
X146110839Y-87145654D01*
X145864802Y-86777434D01*
X145496582Y-86531397D01*
X145062236Y-86445000D01*
X145017764Y-86445000D01*
X144583418Y-86531397D01*
X144215198Y-86777434D01*
X143969161Y-87145654D01*
X143882764Y-87580000D01*
X143657236Y-87580000D01*
X143570839Y-87145654D01*
X143324802Y-86777434D01*
X142956582Y-86531397D01*
X142522236Y-86445000D01*
X142477764Y-86445000D01*
X142043418Y-86531397D01*
X141675198Y-86777434D01*
X141429161Y-87145654D01*
X141342764Y-87580000D01*
X141117236Y-87580000D01*
X141030839Y-87145654D01*
X140784802Y-86777434D01*
X140416582Y-86531397D01*
X139982236Y-86445000D01*
X139937764Y-86445000D01*
X139503418Y-86531397D01*
X139135198Y-86777434D01*
X138889161Y-87145654D01*
X138802764Y-87580000D01*
X136037236Y-87580000D01*
X135985909Y-87321962D01*
X136366130Y-87321962D01*
X136416528Y-87490000D01*
X137330000Y-87490000D01*
X137330000Y-86576230D01*
X137510000Y-86576230D01*
X137510000Y-87490000D01*
X138423472Y-87490000D01*
X138473870Y-87321962D01*
X138347667Y-87017257D01*
X138061700Y-86705090D01*
X137678040Y-86526121D01*
X137510000Y-86576230D01*
X137330000Y-86576230D01*
X137161960Y-86526121D01*
X136778300Y-86705090D01*
X136492333Y-87017257D01*
X136366130Y-87321962D01*
X135985909Y-87321962D01*
X135950839Y-87145654D01*
X135704802Y-86777434D01*
X135336582Y-86531397D01*
X134902236Y-86445000D01*
X134857764Y-86445000D01*
X134423418Y-86531397D01*
X134055198Y-86777434D01*
X133809161Y-87145654D01*
X133722764Y-87580000D01*
X133497236Y-87580000D01*
X133410839Y-87145654D01*
X133164802Y-86777434D01*
X132796582Y-86531397D01*
X132362236Y-86445000D01*
X132317764Y-86445000D01*
X131883418Y-86531397D01*
X131515198Y-86777434D01*
X131269161Y-87145654D01*
X131182764Y-87580000D01*
X130957236Y-87580000D01*
X130870839Y-87145654D01*
X130624802Y-86777434D01*
X130256582Y-86531397D01*
X129822236Y-86445000D01*
X129777764Y-86445000D01*
X129343418Y-86531397D01*
X128975198Y-86777434D01*
X128729161Y-87145654D01*
X128642764Y-87580000D01*
X128402052Y-87580000D01*
X128402052Y-86805000D01*
X128376950Y-86671592D01*
X128298106Y-86549065D01*
X128177804Y-86466867D01*
X128035000Y-86437948D01*
X126485000Y-86437948D01*
X126351592Y-86463050D01*
X126229065Y-86541894D01*
X126146867Y-86662196D01*
X126117948Y-86805000D01*
X123748853Y-86805000D01*
X123111546Y-86540367D01*
X122272136Y-86539635D01*
X121496343Y-86860186D01*
X120902272Y-87453221D01*
X120580367Y-88228454D01*
X120579635Y-89067864D01*
X113323964Y-89067864D01*
X113323964Y-85055411D01*
X203503964Y-85055411D01*
X203503964Y-138255411D01*
M02*
