G04 #@! TF.FileFunction,Paste,Top*
%FSLAX46Y46*%
G04 Gerber Fmt 4.6, Leading zero omitted, Abs format (unit mm)*
G04 Created by KiCad (PCBNEW 4.0.7) date 09/09/17 19:19:23*
%MOMM*%
%LPD*%
G01*
G04 APERTURE LIST*
%ADD10C,0.100000*%
%ADD11R,0.600000X0.400000*%
%ADD12R,0.600000X0.500000*%
%ADD13R,0.800000X0.750000*%
%ADD14R,0.500000X0.600000*%
%ADD15R,0.500000X0.900000*%
%ADD16R,0.400000X0.600000*%
%ADD17R,1.150000X1.400000*%
%ADD18R,0.300000X0.850000*%
%ADD19R,0.850000X0.300000*%
%ADD20R,0.780000X0.780000*%
G04 APERTURE END LIST*
D10*
D11*
X147828000Y-96081000D03*
X147828000Y-95181000D03*
D12*
X182187400Y-124202200D03*
X181087400Y-124202200D03*
X182167400Y-125629200D03*
X181067400Y-125629200D03*
X153247000Y-97155000D03*
X154347000Y-97155000D03*
X144187000Y-100507800D03*
X143087000Y-100507800D03*
D13*
X144260000Y-103251000D03*
X142760000Y-103251000D03*
D14*
X145542000Y-103082000D03*
X145542000Y-104182000D03*
D12*
X145076000Y-101676200D03*
X143976000Y-101676200D03*
D14*
X152146000Y-100542000D03*
X152146000Y-101642000D03*
D12*
X142409000Y-101981000D03*
X141309000Y-101981000D03*
D14*
X149225000Y-96308000D03*
X149225000Y-95208000D03*
X156718000Y-101769000D03*
X156718000Y-100669000D03*
X150368000Y-96308000D03*
X150368000Y-95208000D03*
D15*
X192393000Y-107061000D03*
X190893000Y-107061000D03*
D16*
X198379000Y-113780000D03*
X197479000Y-113780000D03*
X198863400Y-135644200D03*
X197963400Y-135644200D03*
X153347000Y-98298000D03*
X154247000Y-98298000D03*
D11*
X145288000Y-95181000D03*
X145288000Y-96081000D03*
X146685000Y-103182000D03*
X146685000Y-104082000D03*
X148590000Y-93922000D03*
X148590000Y-93022000D03*
X146558000Y-96081000D03*
X146558000Y-95181000D03*
X153570000Y-95990000D03*
X153570000Y-95090000D03*
D17*
X155232000Y-102573000D03*
X153632000Y-102573000D03*
X153632000Y-100373000D03*
X155232000Y-100373000D03*
D11*
X152019000Y-97859000D03*
X152019000Y-96959000D03*
D18*
X147213000Y-101899000D03*
X147713000Y-101899000D03*
X148213000Y-101899000D03*
X148713000Y-101899000D03*
X149213000Y-101899000D03*
X149713000Y-101899000D03*
D19*
X150413000Y-101199000D03*
X150413000Y-100699000D03*
X150413000Y-100199000D03*
X150413000Y-99699000D03*
X150413000Y-99199000D03*
X150413000Y-98699000D03*
D18*
X149713000Y-97999000D03*
X149213000Y-97999000D03*
X148713000Y-97999000D03*
X148213000Y-97999000D03*
X147713000Y-97999000D03*
X147213000Y-97999000D03*
D19*
X146513000Y-98699000D03*
X146513000Y-99199000D03*
X146513000Y-99699000D03*
X146513000Y-100199000D03*
X146513000Y-100699000D03*
X146513000Y-101199000D03*
D20*
X149113000Y-99299000D03*
X147813000Y-99299000D03*
X149113000Y-100599000D03*
X147813000Y-100599000D03*
D16*
X151490000Y-94860000D03*
X152390000Y-94860000D03*
M02*
