G04 #@! TF.FileFunction,Copper,L3,Inr,Mixed*
%FSLAX46Y46*%
G04 Gerber Fmt 4.6, Leading zero omitted, Abs format (unit mm)*
G04 Created by KiCad (PCBNEW 4.0.7) date 09/09/17 19:19:23*
%MOMM*%
%LPD*%
G01*
G04 APERTURE LIST*
%ADD10C,0.100000*%
%ADD11R,1.727200X2.032000*%
%ADD12O,1.727200X2.032000*%
%ADD13C,3.500000*%
%ADD14C,1.500000*%
%ADD15O,1.550000X1.550000*%
%ADD16R,1.550000X1.550000*%
%ADD17C,3.000000*%
%ADD18C,0.500000*%
%ADD19C,0.150000*%
%ADD20C,0.250000*%
%ADD21C,0.220000*%
G04 APERTURE END LIST*
D10*
D11*
X191295020Y-88646000D03*
D12*
X193835020Y-88646000D03*
X196375020Y-88646000D03*
X198915020Y-88646000D03*
D13*
X195635880Y-93619120D03*
D14*
X192925880Y-100889120D03*
D13*
X195635880Y-105659120D03*
D14*
X192925880Y-98389120D03*
X190925880Y-98389120D03*
X190925880Y-100889120D03*
D15*
X175520000Y-90120000D03*
X175520000Y-87580000D03*
D13*
X180690000Y-88650000D03*
D16*
X127260000Y-87580000D03*
D15*
X127260000Y-90120000D03*
X129800000Y-87580000D03*
X129800000Y-90120000D03*
X132340000Y-87580000D03*
X132340000Y-90120000D03*
X134880000Y-87580000D03*
X134880000Y-90120000D03*
X137420000Y-87580000D03*
X137420000Y-90120000D03*
X139960000Y-87580000D03*
X139960000Y-90120000D03*
X142500000Y-87580000D03*
X142500000Y-90120000D03*
X145040000Y-87580000D03*
X145040000Y-90120000D03*
X147580000Y-87580000D03*
X147580000Y-90120000D03*
X150120000Y-87580000D03*
X150120000Y-90120000D03*
X152660000Y-87580000D03*
X152660000Y-90120000D03*
X155200000Y-87580000D03*
X155200000Y-90120000D03*
X157740000Y-87580000D03*
X157740000Y-90120000D03*
D13*
X122690000Y-88650000D03*
D15*
X160280000Y-87580000D03*
X162820000Y-87580000D03*
X165360000Y-87580000D03*
X167900000Y-87580000D03*
X170440000Y-87580000D03*
X172980000Y-87580000D03*
X160280000Y-90120000D03*
X162820000Y-90120000D03*
X165360000Y-90120000D03*
X167900000Y-90120000D03*
X170440000Y-90120000D03*
X172980000Y-90120000D03*
D11*
X119656860Y-105097420D03*
D12*
X122196860Y-105097420D03*
X124736860Y-105097420D03*
X127276860Y-105097420D03*
X129816860Y-105097420D03*
X132356860Y-105097420D03*
X134896860Y-105097420D03*
X137436860Y-105097420D03*
D17*
X191940000Y-116860000D03*
D14*
X186100000Y-127785000D03*
X199890000Y-131230000D03*
X199890000Y-128690000D03*
X199890000Y-117980000D03*
X199890000Y-120520000D03*
D17*
X191940000Y-132350000D03*
D14*
X186100000Y-125245000D03*
X186100000Y-122705000D03*
X186100000Y-120165000D03*
X188640000Y-129045000D03*
X188640000Y-126505000D03*
X188640000Y-123965000D03*
X188640000Y-121425000D03*
D18*
X189870000Y-106620000D03*
X189890000Y-107380000D03*
X145160000Y-99700000D03*
X155030000Y-98210000D03*
X150620000Y-102300000D03*
X201460000Y-85900000D03*
X180720000Y-126330000D03*
X180750000Y-123340000D03*
X149606000Y-94615000D03*
X157480000Y-102489000D03*
X155702000Y-104267000D03*
X152146000Y-104267000D03*
X147813000Y-99299000D03*
X147813000Y-100599000D03*
X149113000Y-100599000D03*
X149113000Y-99299000D03*
X156718000Y-99898200D03*
X152400000Y-102489000D03*
X142240000Y-100457000D03*
X141224000Y-101346000D03*
X142748000Y-104013000D03*
X143383000Y-101473000D03*
X145669000Y-104800400D03*
X143637000Y-99720400D03*
X196410000Y-114040000D03*
X197118000Y-135441000D03*
X146888200Y-104622600D03*
X149860000Y-96647000D03*
X145415000Y-94538800D03*
X145310000Y-100500000D03*
X151420000Y-98950000D03*
X152550000Y-93950000D03*
X152138380Y-98638360D03*
X152390000Y-96030002D03*
X153320000Y-94260000D03*
X144430000Y-99250000D03*
X144720000Y-98370000D03*
X145545301Y-98260741D03*
D19*
X148844000Y-93345000D02*
X145694400Y-96494600D01*
X145694400Y-96494600D02*
X144856200Y-96494600D01*
X144856200Y-96494600D02*
X143637000Y-97713800D01*
X143637000Y-97713800D02*
X143637000Y-99720400D01*
X199890000Y-128690000D02*
X177720000Y-106520000D01*
X177720000Y-106520000D02*
X151330000Y-106520000D01*
X151330000Y-106520000D02*
X145509999Y-100699999D01*
X145509999Y-100699999D02*
X145310000Y-100500000D01*
X152672842Y-96030002D02*
X152390000Y-96030002D01*
X166479998Y-96030002D02*
X152672842Y-96030002D01*
X171650000Y-90860000D02*
X166479998Y-96030002D01*
X171650000Y-88790000D02*
X171650000Y-90860000D01*
X170440000Y-87580000D02*
X171650000Y-88790000D01*
X166300000Y-94260000D02*
X153602842Y-94260000D01*
X153602842Y-94260000D02*
X153320000Y-94260000D01*
X170440000Y-90120000D02*
X166300000Y-94260000D01*
X144180001Y-99000001D02*
X144430000Y-99250000D01*
X144180001Y-98008999D02*
X144180001Y-99000001D01*
X144970500Y-97218500D02*
X144180001Y-98008999D01*
X144970500Y-97218500D02*
X145808700Y-97218500D01*
X145808700Y-97218500D02*
X150129240Y-92897960D01*
X150129240Y-92897960D02*
X150129240Y-92010760D01*
X150129240Y-92010760D02*
X151280000Y-90860000D01*
X151280000Y-90860000D02*
X151280000Y-88740000D01*
X151280000Y-88740000D02*
X150120000Y-87580000D01*
X144983200Y-97205800D02*
X144970500Y-97218500D01*
X150571200Y-93762802D02*
X150571200Y-94488000D01*
X152660000Y-87580000D02*
X153710001Y-88630001D01*
X153710001Y-90624001D02*
X150571200Y-93762802D01*
X145000707Y-97735740D02*
X144720000Y-98016447D01*
X153710001Y-88630001D02*
X153710001Y-90624001D01*
X147323460Y-97735740D02*
X145000707Y-97735740D01*
X150571200Y-94488000D02*
X147323460Y-97735740D01*
X144720000Y-98016447D02*
X144720000Y-98370000D01*
X151954999Y-93663001D02*
X147357259Y-98260741D01*
X154060011Y-91489989D02*
X152295001Y-93254999D01*
X145898854Y-98260741D02*
X145545301Y-98260741D01*
X147357259Y-98260741D02*
X145898854Y-98260741D01*
X152201999Y-93254999D02*
X151954999Y-93501999D01*
X155200000Y-87580000D02*
X154060011Y-88719989D01*
X151954999Y-93501999D02*
X151954999Y-93663001D01*
X152295001Y-93254999D02*
X152201999Y-93254999D01*
X154060011Y-88719989D02*
X154060011Y-91489989D01*
D20*
X194007740Y-91013280D02*
X195158360Y-91013280D01*
X195158360Y-91013280D02*
X196375020Y-89796620D01*
X196375020Y-89796620D02*
X196375020Y-88646000D01*
D19*
X196375020Y-88646000D02*
X196375020Y-89796620D01*
X196375020Y-89796620D02*
X195158360Y-91013280D01*
D20*
X192925880Y-100889120D02*
X193141280Y-100889120D01*
X193141280Y-100889120D02*
X194386200Y-99898200D01*
X193040000Y-91981020D02*
X194007740Y-91013280D01*
X193040000Y-94996000D02*
X193040000Y-91981020D01*
X194386200Y-96088200D02*
X193040000Y-94996000D01*
X194386200Y-99898200D02*
X194386200Y-96088200D01*
X190925880Y-100889120D02*
X190652720Y-100889120D01*
X190652720Y-100889120D02*
X189357000Y-99593400D01*
X189357000Y-99593400D02*
X189357000Y-96647000D01*
X189357000Y-96647000D02*
X191897000Y-94107000D01*
X191897000Y-94107000D02*
X191897000Y-91414600D01*
X191897000Y-91414600D02*
X193835020Y-89476580D01*
X193835020Y-89476580D02*
X193835020Y-88646000D01*
D21*
G36*
X203503964Y-138255411D02*
X174323964Y-138255411D01*
X174323964Y-132718354D01*
X190079677Y-132718354D01*
X190362249Y-133402229D01*
X190885019Y-133925912D01*
X191568400Y-134209677D01*
X192308354Y-134210323D01*
X192992229Y-133927751D01*
X193515912Y-133404981D01*
X193799677Y-132721600D01*
X193800323Y-131981646D01*
X193769489Y-131907023D01*
X193864120Y-132001819D01*
X194593427Y-132304654D01*
X195383109Y-132305343D01*
X196112943Y-132003782D01*
X196667868Y-131449824D01*
X198779808Y-131449824D01*
X198948439Y-131857943D01*
X199260415Y-132170463D01*
X199668239Y-132339807D01*
X200109824Y-132340192D01*
X200517943Y-132171561D01*
X200830463Y-131859585D01*
X200999807Y-131451761D01*
X201000192Y-131010176D01*
X200831561Y-130602057D01*
X200519585Y-130289537D01*
X200111761Y-130120193D01*
X199670176Y-130119808D01*
X199262057Y-130288439D01*
X198949537Y-130600415D01*
X198780193Y-131008239D01*
X198779808Y-131449824D01*
X196667868Y-131449824D01*
X196671819Y-131445880D01*
X196974654Y-130716573D01*
X196975343Y-129926891D01*
X196673782Y-129197057D01*
X196115880Y-128638181D01*
X195386573Y-128335346D01*
X194596891Y-128334657D01*
X193867057Y-128636218D01*
X193308181Y-129194120D01*
X193005346Y-129923427D01*
X193004657Y-130713109D01*
X193054481Y-130833692D01*
X192994981Y-130774088D01*
X192311600Y-130490323D01*
X191571646Y-130489677D01*
X190887771Y-130772249D01*
X190364088Y-131295019D01*
X190080323Y-131978400D01*
X190079677Y-132718354D01*
X174323964Y-132718354D01*
X174323964Y-129264824D01*
X187529808Y-129264824D01*
X187698439Y-129672943D01*
X188010415Y-129985463D01*
X188418239Y-130154807D01*
X188859824Y-130155192D01*
X189267943Y-129986561D01*
X189580463Y-129674585D01*
X189749807Y-129266761D01*
X189750192Y-128825176D01*
X189581561Y-128417057D01*
X189269585Y-128104537D01*
X188861761Y-127935193D01*
X188420176Y-127934808D01*
X188012057Y-128103439D01*
X187699537Y-128415415D01*
X187530193Y-128823239D01*
X187529808Y-129264824D01*
X174323964Y-129264824D01*
X174323964Y-128004824D01*
X184989808Y-128004824D01*
X185158439Y-128412943D01*
X185470415Y-128725463D01*
X185878239Y-128894807D01*
X186319824Y-128895192D01*
X186727943Y-128726561D01*
X187040463Y-128414585D01*
X187209807Y-128006761D01*
X187210192Y-127565176D01*
X187041561Y-127157057D01*
X186729585Y-126844537D01*
X186441286Y-126724824D01*
X187529808Y-126724824D01*
X187698439Y-127132943D01*
X188010415Y-127445463D01*
X188418239Y-127614807D01*
X188859824Y-127615192D01*
X189267943Y-127446561D01*
X189580463Y-127134585D01*
X189749807Y-126726761D01*
X189750192Y-126285176D01*
X189581561Y-125877057D01*
X189269585Y-125564537D01*
X188861761Y-125395193D01*
X188420176Y-125394808D01*
X188012057Y-125563439D01*
X187699537Y-125875415D01*
X187530193Y-126283239D01*
X187529808Y-126724824D01*
X186441286Y-126724824D01*
X186321761Y-126675193D01*
X185880176Y-126674808D01*
X185472057Y-126843439D01*
X185159537Y-127155415D01*
X184990193Y-127563239D01*
X184989808Y-128004824D01*
X174323964Y-128004824D01*
X174323964Y-126450804D01*
X180109894Y-126450804D01*
X180202565Y-126675086D01*
X180374011Y-126846832D01*
X180598131Y-126939894D01*
X180840804Y-126940106D01*
X181065086Y-126847435D01*
X181236832Y-126675989D01*
X181329894Y-126451869D01*
X181330106Y-126209196D01*
X181237435Y-125984914D01*
X181065989Y-125813168D01*
X180841869Y-125720106D01*
X180599196Y-125719894D01*
X180374914Y-125812565D01*
X180203168Y-125984011D01*
X180110106Y-126208131D01*
X180109894Y-126450804D01*
X174323964Y-126450804D01*
X174323964Y-125464824D01*
X184989808Y-125464824D01*
X185158439Y-125872943D01*
X185470415Y-126185463D01*
X185878239Y-126354807D01*
X186319824Y-126355192D01*
X186727943Y-126186561D01*
X187040463Y-125874585D01*
X187209807Y-125466761D01*
X187210192Y-125025176D01*
X187041561Y-124617057D01*
X186729585Y-124304537D01*
X186441286Y-124184824D01*
X187529808Y-124184824D01*
X187698439Y-124592943D01*
X188010415Y-124905463D01*
X188418239Y-125074807D01*
X188859824Y-125075192D01*
X189267943Y-124906561D01*
X189580463Y-124594585D01*
X189749807Y-124186761D01*
X189750192Y-123745176D01*
X189581561Y-123337057D01*
X189269585Y-123024537D01*
X188861761Y-122855193D01*
X188420176Y-122854808D01*
X188012057Y-123023439D01*
X187699537Y-123335415D01*
X187530193Y-123743239D01*
X187529808Y-124184824D01*
X186441286Y-124184824D01*
X186321761Y-124135193D01*
X185880176Y-124134808D01*
X185472057Y-124303439D01*
X185159537Y-124615415D01*
X184990193Y-125023239D01*
X184989808Y-125464824D01*
X174323964Y-125464824D01*
X174323964Y-123460804D01*
X180139894Y-123460804D01*
X180232565Y-123685086D01*
X180404011Y-123856832D01*
X180628131Y-123949894D01*
X180870804Y-123950106D01*
X181095086Y-123857435D01*
X181266832Y-123685989D01*
X181359894Y-123461869D01*
X181360106Y-123219196D01*
X181267435Y-122994914D01*
X181197468Y-122924824D01*
X184989808Y-122924824D01*
X185158439Y-123332943D01*
X185470415Y-123645463D01*
X185878239Y-123814807D01*
X186319824Y-123815192D01*
X186727943Y-123646561D01*
X187040463Y-123334585D01*
X187209807Y-122926761D01*
X187210192Y-122485176D01*
X187041561Y-122077057D01*
X186729585Y-121764537D01*
X186441286Y-121644824D01*
X187529808Y-121644824D01*
X187698439Y-122052943D01*
X188010415Y-122365463D01*
X188418239Y-122534807D01*
X188859824Y-122535192D01*
X189267943Y-122366561D01*
X189580463Y-122054585D01*
X189749807Y-121646761D01*
X189750192Y-121205176D01*
X189581561Y-120797057D01*
X189269585Y-120484537D01*
X188861761Y-120315193D01*
X188420176Y-120314808D01*
X188012057Y-120483439D01*
X187699537Y-120795415D01*
X187530193Y-121203239D01*
X187529808Y-121644824D01*
X186441286Y-121644824D01*
X186321761Y-121595193D01*
X185880176Y-121594808D01*
X185472057Y-121763439D01*
X185159537Y-122075415D01*
X184990193Y-122483239D01*
X184989808Y-122924824D01*
X181197468Y-122924824D01*
X181095989Y-122823168D01*
X180871869Y-122730106D01*
X180629196Y-122729894D01*
X180404914Y-122822565D01*
X180233168Y-122994011D01*
X180140106Y-123218131D01*
X180139894Y-123460804D01*
X174323964Y-123460804D01*
X174323964Y-120384824D01*
X184989808Y-120384824D01*
X185158439Y-120792943D01*
X185470415Y-121105463D01*
X185878239Y-121274807D01*
X186319824Y-121275192D01*
X186727943Y-121106561D01*
X187040463Y-120794585D01*
X187209807Y-120386761D01*
X187210192Y-119945176D01*
X187041561Y-119537057D01*
X186729585Y-119224537D01*
X186321761Y-119055193D01*
X185880176Y-119054808D01*
X185472057Y-119223439D01*
X185159537Y-119535415D01*
X184990193Y-119943239D01*
X184989808Y-120384824D01*
X174323964Y-120384824D01*
X174323964Y-113445411D01*
X174316086Y-113405805D01*
X174316086Y-113365424D01*
X174011604Y-111834690D01*
X173950385Y-111686893D01*
X173950382Y-111686890D01*
X173083294Y-110389200D01*
X172970175Y-110276081D01*
X171672482Y-109408990D01*
X171524685Y-109347771D01*
X169993951Y-109043289D01*
X169953570Y-109043289D01*
X169913964Y-109035411D01*
X114954346Y-109035411D01*
X114308571Y-108906958D01*
X113795344Y-108564031D01*
X113452313Y-108050648D01*
X113323964Y-107408325D01*
X113323964Y-104081420D01*
X118273269Y-104081420D01*
X118273269Y-106113420D01*
X118308831Y-106302415D01*
X118420526Y-106475995D01*
X118590954Y-106592443D01*
X118793260Y-106633411D01*
X120520460Y-106633411D01*
X120709455Y-106597849D01*
X120883035Y-106486154D01*
X120999483Y-106315726D01*
X121040451Y-106113420D01*
X121040451Y-105420114D01*
X121161565Y-105811065D01*
X121455151Y-106164533D01*
X121861656Y-106378744D01*
X121924917Y-106391478D01*
X122106860Y-106342219D01*
X122106860Y-105187420D01*
X122286860Y-105187420D01*
X122286860Y-106342219D01*
X122468803Y-106391478D01*
X122532064Y-106378744D01*
X122938569Y-106164533D01*
X123232155Y-105811065D01*
X123368127Y-105372153D01*
X123295344Y-105187420D01*
X122286860Y-105187420D01*
X122106860Y-105187420D01*
X122086860Y-105187420D01*
X122086860Y-105007420D01*
X122106860Y-105007420D01*
X122106860Y-103852621D01*
X122286860Y-103852621D01*
X122286860Y-105007420D01*
X123295344Y-105007420D01*
X123330549Y-104918063D01*
X123513260Y-104918063D01*
X123513260Y-105276777D01*
X123606401Y-105745028D01*
X123871644Y-106141993D01*
X124268609Y-106407236D01*
X124736860Y-106500377D01*
X125205111Y-106407236D01*
X125602076Y-106141993D01*
X125867319Y-105745028D01*
X125960460Y-105276777D01*
X125960460Y-104918063D01*
X126053260Y-104918063D01*
X126053260Y-105276777D01*
X126146401Y-105745028D01*
X126411644Y-106141993D01*
X126808609Y-106407236D01*
X127276860Y-106500377D01*
X127745111Y-106407236D01*
X128142076Y-106141993D01*
X128407319Y-105745028D01*
X128500460Y-105276777D01*
X128500460Y-104918063D01*
X128593260Y-104918063D01*
X128593260Y-105276777D01*
X128686401Y-105745028D01*
X128951644Y-106141993D01*
X129348609Y-106407236D01*
X129816860Y-106500377D01*
X130285111Y-106407236D01*
X130682076Y-106141993D01*
X130947319Y-105745028D01*
X131040460Y-105276777D01*
X131040460Y-104918063D01*
X131133260Y-104918063D01*
X131133260Y-105276777D01*
X131226401Y-105745028D01*
X131491644Y-106141993D01*
X131888609Y-106407236D01*
X132356860Y-106500377D01*
X132825111Y-106407236D01*
X133222076Y-106141993D01*
X133487319Y-105745028D01*
X133580460Y-105276777D01*
X133580460Y-104918063D01*
X133673260Y-104918063D01*
X133673260Y-105276777D01*
X133766401Y-105745028D01*
X134031644Y-106141993D01*
X134428609Y-106407236D01*
X134896860Y-106500377D01*
X135365111Y-106407236D01*
X135762076Y-106141993D01*
X136027319Y-105745028D01*
X136120460Y-105276777D01*
X136120460Y-104918063D01*
X136213260Y-104918063D01*
X136213260Y-105276777D01*
X136306401Y-105745028D01*
X136571644Y-106141993D01*
X136968609Y-106407236D01*
X137436860Y-106500377D01*
X137905111Y-106407236D01*
X138302076Y-106141993D01*
X138567319Y-105745028D01*
X138660460Y-105276777D01*
X138660460Y-104921204D01*
X145058894Y-104921204D01*
X145151565Y-105145486D01*
X145323011Y-105317232D01*
X145547131Y-105410294D01*
X145789804Y-105410506D01*
X146014086Y-105317835D01*
X146185832Y-105146389D01*
X146278894Y-104922269D01*
X146279106Y-104679596D01*
X146186435Y-104455314D01*
X146014989Y-104283568D01*
X145790869Y-104190506D01*
X145548196Y-104190294D01*
X145323914Y-104282965D01*
X145152168Y-104454411D01*
X145059106Y-104678531D01*
X145058894Y-104921204D01*
X138660460Y-104921204D01*
X138660460Y-104918063D01*
X138567319Y-104449812D01*
X138356170Y-104133804D01*
X142137894Y-104133804D01*
X142230565Y-104358086D01*
X142402011Y-104529832D01*
X142626131Y-104622894D01*
X142868804Y-104623106D01*
X143093086Y-104530435D01*
X143264832Y-104358989D01*
X143357894Y-104134869D01*
X143358106Y-103892196D01*
X143265435Y-103667914D01*
X143093989Y-103496168D01*
X142869869Y-103403106D01*
X142627196Y-103402894D01*
X142402914Y-103495565D01*
X142231168Y-103667011D01*
X142138106Y-103891131D01*
X142137894Y-104133804D01*
X138356170Y-104133804D01*
X138302076Y-104052847D01*
X137905111Y-103787604D01*
X137436860Y-103694463D01*
X136968609Y-103787604D01*
X136571644Y-104052847D01*
X136306401Y-104449812D01*
X136213260Y-104918063D01*
X136120460Y-104918063D01*
X136027319Y-104449812D01*
X135762076Y-104052847D01*
X135365111Y-103787604D01*
X134896860Y-103694463D01*
X134428609Y-103787604D01*
X134031644Y-104052847D01*
X133766401Y-104449812D01*
X133673260Y-104918063D01*
X133580460Y-104918063D01*
X133487319Y-104449812D01*
X133222076Y-104052847D01*
X132825111Y-103787604D01*
X132356860Y-103694463D01*
X131888609Y-103787604D01*
X131491644Y-104052847D01*
X131226401Y-104449812D01*
X131133260Y-104918063D01*
X131040460Y-104918063D01*
X130947319Y-104449812D01*
X130682076Y-104052847D01*
X130285111Y-103787604D01*
X129816860Y-103694463D01*
X129348609Y-103787604D01*
X128951644Y-104052847D01*
X128686401Y-104449812D01*
X128593260Y-104918063D01*
X128500460Y-104918063D01*
X128407319Y-104449812D01*
X128142076Y-104052847D01*
X127745111Y-103787604D01*
X127276860Y-103694463D01*
X126808609Y-103787604D01*
X126411644Y-104052847D01*
X126146401Y-104449812D01*
X126053260Y-104918063D01*
X125960460Y-104918063D01*
X125867319Y-104449812D01*
X125602076Y-104052847D01*
X125205111Y-103787604D01*
X124736860Y-103694463D01*
X124268609Y-103787604D01*
X123871644Y-104052847D01*
X123606401Y-104449812D01*
X123513260Y-104918063D01*
X123330549Y-104918063D01*
X123368127Y-104822687D01*
X123232155Y-104383775D01*
X122938569Y-104030307D01*
X122532064Y-103816096D01*
X122468803Y-103803362D01*
X122286860Y-103852621D01*
X122106860Y-103852621D01*
X121924917Y-103803362D01*
X121861656Y-103816096D01*
X121455151Y-104030307D01*
X121161565Y-104383775D01*
X121040451Y-104774726D01*
X121040451Y-104081420D01*
X121004889Y-103892425D01*
X120893194Y-103718845D01*
X120722766Y-103602397D01*
X120520460Y-103561429D01*
X118793260Y-103561429D01*
X118604265Y-103596991D01*
X118430685Y-103708686D01*
X118314237Y-103879114D01*
X118273269Y-104081420D01*
X113323964Y-104081420D01*
X113323964Y-101466804D01*
X140613894Y-101466804D01*
X140706565Y-101691086D01*
X140878011Y-101862832D01*
X141102131Y-101955894D01*
X141344804Y-101956106D01*
X141569086Y-101863435D01*
X141740832Y-101691989D01*
X141781601Y-101593804D01*
X142772894Y-101593804D01*
X142865565Y-101818086D01*
X143037011Y-101989832D01*
X143261131Y-102082894D01*
X143503804Y-102083106D01*
X143728086Y-101990435D01*
X143899832Y-101818989D01*
X143992894Y-101594869D01*
X143993106Y-101352196D01*
X143900435Y-101127914D01*
X143728989Y-100956168D01*
X143504869Y-100863106D01*
X143262196Y-100862894D01*
X143037914Y-100955565D01*
X142866168Y-101127011D01*
X142773106Y-101351131D01*
X142772894Y-101593804D01*
X141781601Y-101593804D01*
X141833894Y-101467869D01*
X141834106Y-101225196D01*
X141741435Y-101000914D01*
X141569989Y-100829168D01*
X141345869Y-100736106D01*
X141103196Y-100735894D01*
X140878914Y-100828565D01*
X140707168Y-101000011D01*
X140614106Y-101224131D01*
X140613894Y-101466804D01*
X113323964Y-101466804D01*
X113323964Y-100577804D01*
X141629894Y-100577804D01*
X141722565Y-100802086D01*
X141894011Y-100973832D01*
X142118131Y-101066894D01*
X142360804Y-101067106D01*
X142585086Y-100974435D01*
X142756832Y-100802989D01*
X142849894Y-100578869D01*
X142850106Y-100336196D01*
X142757435Y-100111914D01*
X142585989Y-99940168D01*
X142361869Y-99847106D01*
X142119196Y-99846894D01*
X141894914Y-99939565D01*
X141723168Y-100111011D01*
X141630106Y-100335131D01*
X141629894Y-100577804D01*
X113323964Y-100577804D01*
X113323964Y-99841204D01*
X143026894Y-99841204D01*
X143119565Y-100065486D01*
X143291011Y-100237232D01*
X143515131Y-100330294D01*
X143757804Y-100330506D01*
X143982086Y-100237835D01*
X144153832Y-100066389D01*
X144246894Y-99842269D01*
X144246901Y-99834469D01*
X144308131Y-99859894D01*
X144550804Y-99860106D01*
X144563898Y-99854696D01*
X144642565Y-100045086D01*
X144780869Y-100183632D01*
X144700106Y-100378131D01*
X144699894Y-100620804D01*
X144792565Y-100845086D01*
X144964011Y-101016832D01*
X145188131Y-101109894D01*
X145304814Y-101109996D01*
X151022408Y-106827591D01*
X151075653Y-106863168D01*
X151163533Y-106921888D01*
X151330000Y-106955000D01*
X177539818Y-106955000D01*
X198860252Y-128275435D01*
X198780193Y-128468239D01*
X198779808Y-128909824D01*
X198948439Y-129317943D01*
X199260415Y-129630463D01*
X199668239Y-129799807D01*
X200109824Y-129800192D01*
X200517943Y-129631561D01*
X200830463Y-129319585D01*
X200999807Y-128911761D01*
X201000192Y-128470176D01*
X200831561Y-128062057D01*
X200519585Y-127749537D01*
X200111761Y-127580193D01*
X199670176Y-127579808D01*
X199475450Y-127660267D01*
X189043537Y-117228354D01*
X190079677Y-117228354D01*
X190362249Y-117912229D01*
X190885019Y-118435912D01*
X191568400Y-118719677D01*
X192308354Y-118720323D01*
X192992229Y-118437751D01*
X193054119Y-118375969D01*
X193005346Y-118493427D01*
X193004657Y-119283109D01*
X193306218Y-120012943D01*
X193864120Y-120571819D01*
X194593427Y-120874654D01*
X195383109Y-120875343D01*
X195711090Y-120739824D01*
X198779808Y-120739824D01*
X198948439Y-121147943D01*
X199260415Y-121460463D01*
X199668239Y-121629807D01*
X200109824Y-121630192D01*
X200517943Y-121461561D01*
X200830463Y-121149585D01*
X200999807Y-120741761D01*
X201000192Y-120300176D01*
X200831561Y-119892057D01*
X200519585Y-119579537D01*
X200111761Y-119410193D01*
X199670176Y-119409808D01*
X199262057Y-119578439D01*
X198949537Y-119890415D01*
X198780193Y-120298239D01*
X198779808Y-120739824D01*
X195711090Y-120739824D01*
X196112943Y-120573782D01*
X196671819Y-120015880D01*
X196974654Y-119286573D01*
X196975343Y-118496891D01*
X196852598Y-118199824D01*
X198779808Y-118199824D01*
X198948439Y-118607943D01*
X199260415Y-118920463D01*
X199668239Y-119089807D01*
X200109824Y-119090192D01*
X200517943Y-118921561D01*
X200830463Y-118609585D01*
X200999807Y-118201761D01*
X201000192Y-117760176D01*
X200831561Y-117352057D01*
X200519585Y-117039537D01*
X200111761Y-116870193D01*
X199670176Y-116869808D01*
X199262057Y-117038439D01*
X198949537Y-117350415D01*
X198780193Y-117758239D01*
X198779808Y-118199824D01*
X196852598Y-118199824D01*
X196673782Y-117767057D01*
X196115880Y-117208181D01*
X195386573Y-116905346D01*
X194596891Y-116904657D01*
X193867057Y-117206218D01*
X193769975Y-117303131D01*
X193799677Y-117231600D01*
X193800323Y-116491646D01*
X193517751Y-115807771D01*
X192994981Y-115284088D01*
X192311600Y-115000323D01*
X191571646Y-114999677D01*
X190887771Y-115282249D01*
X190364088Y-115805019D01*
X190080323Y-116488400D01*
X190079677Y-117228354D01*
X189043537Y-117228354D01*
X178555987Y-106740804D01*
X189259894Y-106740804D01*
X189352565Y-106965086D01*
X189397311Y-107009910D01*
X189373168Y-107034011D01*
X189280106Y-107258131D01*
X189279894Y-107500804D01*
X189372565Y-107725086D01*
X189544011Y-107896832D01*
X189768131Y-107989894D01*
X190010804Y-107990106D01*
X190235086Y-107897435D01*
X190406832Y-107725989D01*
X190499894Y-107501869D01*
X190500106Y-107259196D01*
X190407435Y-107034914D01*
X190362689Y-106990090D01*
X190386832Y-106965989D01*
X190479894Y-106741869D01*
X190480106Y-106499196D01*
X190387435Y-106274914D01*
X190219505Y-106106690D01*
X193375489Y-106106690D01*
X193718828Y-106937635D01*
X194354021Y-107573938D01*
X195184366Y-107918727D01*
X196083450Y-107919511D01*
X196914395Y-107576172D01*
X197550698Y-106940979D01*
X197895487Y-106110634D01*
X197896271Y-105211550D01*
X197552932Y-104380605D01*
X196917739Y-103744302D01*
X196087394Y-103399513D01*
X195188310Y-103398729D01*
X194357365Y-103742068D01*
X193721062Y-104377261D01*
X193376273Y-105207606D01*
X193375489Y-106106690D01*
X190219505Y-106106690D01*
X190215989Y-106103168D01*
X189991869Y-106010106D01*
X189749196Y-106009894D01*
X189524914Y-106102565D01*
X189353168Y-106274011D01*
X189260106Y-106498131D01*
X189259894Y-106740804D01*
X178555987Y-106740804D01*
X178027591Y-106212409D01*
X177886468Y-106118112D01*
X177848872Y-106110634D01*
X177720000Y-106085000D01*
X151510183Y-106085000D01*
X149812987Y-104387804D01*
X151535894Y-104387804D01*
X151628565Y-104612086D01*
X151800011Y-104783832D01*
X152024131Y-104876894D01*
X152266804Y-104877106D01*
X152491086Y-104784435D01*
X152662832Y-104612989D01*
X152755894Y-104388869D01*
X152755894Y-104387804D01*
X155091894Y-104387804D01*
X155184565Y-104612086D01*
X155356011Y-104783832D01*
X155580131Y-104876894D01*
X155822804Y-104877106D01*
X156047086Y-104784435D01*
X156218832Y-104612989D01*
X156311894Y-104388869D01*
X156312106Y-104146196D01*
X156219435Y-103921914D01*
X156047989Y-103750168D01*
X155823869Y-103657106D01*
X155581196Y-103656894D01*
X155356914Y-103749565D01*
X155185168Y-103921011D01*
X155092106Y-104145131D01*
X155091894Y-104387804D01*
X152755894Y-104387804D01*
X152756106Y-104146196D01*
X152663435Y-103921914D01*
X152491989Y-103750168D01*
X152267869Y-103657106D01*
X152025196Y-103656894D01*
X151800914Y-103749565D01*
X151629168Y-103921011D01*
X151536106Y-104145131D01*
X151535894Y-104387804D01*
X149812987Y-104387804D01*
X147845987Y-102420804D01*
X150009894Y-102420804D01*
X150102565Y-102645086D01*
X150274011Y-102816832D01*
X150498131Y-102909894D01*
X150740804Y-102910106D01*
X150965086Y-102817435D01*
X151136832Y-102645989D01*
X151151857Y-102609804D01*
X151789894Y-102609804D01*
X151882565Y-102834086D01*
X152054011Y-103005832D01*
X152278131Y-103098894D01*
X152520804Y-103099106D01*
X152745086Y-103006435D01*
X152916832Y-102834989D01*
X153009894Y-102610869D01*
X153009894Y-102609804D01*
X156869894Y-102609804D01*
X156962565Y-102834086D01*
X157134011Y-103005832D01*
X157358131Y-103098894D01*
X157600804Y-103099106D01*
X157825086Y-103006435D01*
X157996832Y-102834989D01*
X158089894Y-102610869D01*
X158090106Y-102368196D01*
X157997435Y-102143914D01*
X157825989Y-101972168D01*
X157601869Y-101879106D01*
X157359196Y-101878894D01*
X157134914Y-101971565D01*
X156963168Y-102143011D01*
X156870106Y-102367131D01*
X156869894Y-102609804D01*
X153009894Y-102609804D01*
X153010106Y-102368196D01*
X152917435Y-102143914D01*
X152745989Y-101972168D01*
X152521869Y-101879106D01*
X152279196Y-101878894D01*
X152054914Y-101971565D01*
X151883168Y-102143011D01*
X151790106Y-102367131D01*
X151789894Y-102609804D01*
X151151857Y-102609804D01*
X151229894Y-102421869D01*
X151230106Y-102179196D01*
X151137435Y-101954914D01*
X150965989Y-101783168D01*
X150741869Y-101690106D01*
X150499196Y-101689894D01*
X150274914Y-101782565D01*
X150103168Y-101954011D01*
X150010106Y-102178131D01*
X150009894Y-102420804D01*
X147845987Y-102420804D01*
X146144987Y-100719804D01*
X147202894Y-100719804D01*
X147295565Y-100944086D01*
X147467011Y-101115832D01*
X147691131Y-101208894D01*
X147933804Y-101209106D01*
X148158086Y-101116435D01*
X148329832Y-100944989D01*
X148422894Y-100720869D01*
X148422894Y-100719804D01*
X148502894Y-100719804D01*
X148595565Y-100944086D01*
X148767011Y-101115832D01*
X148991131Y-101208894D01*
X149233804Y-101209106D01*
X149458086Y-101116435D01*
X149629832Y-100944989D01*
X149722894Y-100720869D01*
X149723106Y-100478196D01*
X149630435Y-100253914D01*
X149458989Y-100082168D01*
X149306872Y-100019004D01*
X156107894Y-100019004D01*
X156200565Y-100243286D01*
X156372011Y-100415032D01*
X156596131Y-100508094D01*
X156838804Y-100508306D01*
X157063086Y-100415635D01*
X157234832Y-100244189D01*
X157327894Y-100020069D01*
X157328106Y-99777396D01*
X157235435Y-99553114D01*
X157063989Y-99381368D01*
X156839869Y-99288306D01*
X156597196Y-99288094D01*
X156372914Y-99380765D01*
X156201168Y-99552211D01*
X156108106Y-99776331D01*
X156107894Y-100019004D01*
X149306872Y-100019004D01*
X149234869Y-99989106D01*
X148992196Y-99988894D01*
X148767914Y-100081565D01*
X148596168Y-100253011D01*
X148503106Y-100477131D01*
X148502894Y-100719804D01*
X148422894Y-100719804D01*
X148423106Y-100478196D01*
X148330435Y-100253914D01*
X148158989Y-100082168D01*
X147934869Y-99989106D01*
X147692196Y-99988894D01*
X147467914Y-100081565D01*
X147296168Y-100253011D01*
X147203106Y-100477131D01*
X147202894Y-100719804D01*
X146144987Y-100719804D01*
X145920005Y-100494823D01*
X145920106Y-100379196D01*
X145827435Y-100154914D01*
X145689131Y-100016368D01*
X145769894Y-99821869D01*
X145770106Y-99579196D01*
X145704247Y-99419804D01*
X147202894Y-99419804D01*
X147295565Y-99644086D01*
X147467011Y-99815832D01*
X147691131Y-99908894D01*
X147933804Y-99909106D01*
X148158086Y-99816435D01*
X148329832Y-99644989D01*
X148422894Y-99420869D01*
X148422894Y-99419804D01*
X148502894Y-99419804D01*
X148595565Y-99644086D01*
X148767011Y-99815832D01*
X148991131Y-99908894D01*
X149233804Y-99909106D01*
X149458086Y-99816435D01*
X149629832Y-99644989D01*
X149722894Y-99420869D01*
X149723106Y-99178196D01*
X149678733Y-99070804D01*
X150809894Y-99070804D01*
X150902565Y-99295086D01*
X151074011Y-99466832D01*
X151298131Y-99559894D01*
X151540804Y-99560106D01*
X151765086Y-99467435D01*
X151936832Y-99295989D01*
X151965456Y-99227054D01*
X152016511Y-99248254D01*
X152259184Y-99248466D01*
X152483466Y-99155795D01*
X152655212Y-98984349D01*
X152748274Y-98760229D01*
X152748486Y-98517556D01*
X152671323Y-98330804D01*
X154419894Y-98330804D01*
X154512565Y-98555086D01*
X154684011Y-98726832D01*
X154908131Y-98819894D01*
X155150804Y-98820106D01*
X155375086Y-98727435D01*
X155546832Y-98555989D01*
X155639894Y-98331869D01*
X155640106Y-98089196D01*
X155547435Y-97864914D01*
X155375989Y-97693168D01*
X155151869Y-97600106D01*
X154909196Y-97599894D01*
X154684914Y-97692565D01*
X154513168Y-97864011D01*
X154420106Y-98088131D01*
X154419894Y-98330804D01*
X152671323Y-98330804D01*
X152655815Y-98293274D01*
X152484369Y-98121528D01*
X152260249Y-98028466D01*
X152017576Y-98028254D01*
X151793294Y-98120925D01*
X151621548Y-98292371D01*
X151592924Y-98361306D01*
X151541869Y-98340106D01*
X151299196Y-98339894D01*
X151074914Y-98432565D01*
X150903168Y-98604011D01*
X150810106Y-98828131D01*
X150809894Y-99070804D01*
X149678733Y-99070804D01*
X149630435Y-98953914D01*
X149458989Y-98782168D01*
X149234869Y-98689106D01*
X148992196Y-98688894D01*
X148767914Y-98781565D01*
X148596168Y-98953011D01*
X148503106Y-99177131D01*
X148502894Y-99419804D01*
X148422894Y-99419804D01*
X148423106Y-99178196D01*
X148330435Y-98953914D01*
X148158989Y-98782168D01*
X147934869Y-98689106D01*
X147692196Y-98688894D01*
X147467914Y-98781565D01*
X147296168Y-98953011D01*
X147203106Y-99177131D01*
X147202894Y-99419804D01*
X145704247Y-99419804D01*
X145677435Y-99354914D01*
X145505989Y-99183168D01*
X145281869Y-99090106D01*
X145039196Y-99089894D01*
X145026102Y-99095304D01*
X144958423Y-98931507D01*
X145065086Y-98887435D01*
X145187247Y-98765487D01*
X145199312Y-98777573D01*
X145423432Y-98870635D01*
X145666105Y-98870847D01*
X145890387Y-98778176D01*
X145972966Y-98695741D01*
X147357259Y-98695741D01*
X147496108Y-98668122D01*
X147523727Y-98662629D01*
X147664850Y-98568332D01*
X149586182Y-96647000D01*
X188722000Y-96647000D01*
X188722000Y-99593400D01*
X188770336Y-99836404D01*
X188907987Y-100042413D01*
X189665957Y-100800383D01*
X189665662Y-101138650D01*
X189857081Y-101601920D01*
X190211215Y-101956673D01*
X190674151Y-102148901D01*
X191175410Y-102149338D01*
X191638680Y-101957919D01*
X191926070Y-101671030D01*
X192211215Y-101956673D01*
X192674151Y-102148901D01*
X193175410Y-102149338D01*
X193638680Y-101957919D01*
X193993433Y-101603785D01*
X194185661Y-101140849D01*
X194185898Y-100869236D01*
X194781660Y-100395027D01*
X194805073Y-100367352D01*
X194835213Y-100347213D01*
X194884447Y-100273529D01*
X194941685Y-100205872D01*
X194952725Y-100171344D01*
X194972864Y-100141204D01*
X194990153Y-100054288D01*
X195017142Y-99969877D01*
X195014128Y-99933752D01*
X195021200Y-99898200D01*
X195021200Y-96088200D01*
X195014706Y-96055554D01*
X195017783Y-96022410D01*
X194990721Y-95934968D01*
X194972864Y-95845196D01*
X194954372Y-95817520D01*
X194944530Y-95785721D01*
X194936191Y-95775676D01*
X195184366Y-95878727D01*
X196083450Y-95879511D01*
X196914395Y-95536172D01*
X197550698Y-94900979D01*
X197895487Y-94070634D01*
X197896271Y-93171550D01*
X197552932Y-92340605D01*
X196917739Y-91704302D01*
X196087394Y-91359513D01*
X195710482Y-91359184D01*
X196824033Y-90245633D01*
X196941227Y-90070241D01*
X197346302Y-89799578D01*
X197644061Y-89353950D01*
X197645020Y-89349129D01*
X197645979Y-89353950D01*
X197943738Y-89799578D01*
X198389366Y-90097337D01*
X198915020Y-90201896D01*
X199440674Y-90097337D01*
X199886302Y-89799578D01*
X200184061Y-89353950D01*
X200288620Y-88828296D01*
X200288620Y-88463704D01*
X200184061Y-87938050D01*
X199886302Y-87492422D01*
X199440674Y-87194663D01*
X198915020Y-87090104D01*
X198389366Y-87194663D01*
X197943738Y-87492422D01*
X197645979Y-87938050D01*
X197645020Y-87942871D01*
X197644061Y-87938050D01*
X197346302Y-87492422D01*
X196900674Y-87194663D01*
X196375020Y-87090104D01*
X195849366Y-87194663D01*
X195403738Y-87492422D01*
X195105979Y-87938050D01*
X195105020Y-87942871D01*
X195104061Y-87938050D01*
X194806302Y-87492422D01*
X194360674Y-87194663D01*
X193835020Y-87090104D01*
X193309366Y-87194663D01*
X192863738Y-87492422D01*
X192678611Y-87769484D01*
X192678611Y-87630000D01*
X192643049Y-87441005D01*
X192531354Y-87267425D01*
X192360926Y-87150977D01*
X192158620Y-87110009D01*
X190431420Y-87110009D01*
X190242425Y-87145571D01*
X190068845Y-87257266D01*
X189952397Y-87427694D01*
X189911429Y-87630000D01*
X189911429Y-89662000D01*
X189946991Y-89850995D01*
X190058686Y-90024575D01*
X190229114Y-90141023D01*
X190431420Y-90181991D01*
X192158620Y-90181991D01*
X192248494Y-90165080D01*
X191447987Y-90965587D01*
X191310336Y-91171596D01*
X191262000Y-91414600D01*
X191262000Y-93843975D01*
X188907987Y-96197987D01*
X188770336Y-96403996D01*
X188722000Y-96647000D01*
X149586182Y-96647000D01*
X152004944Y-94228239D01*
X152032565Y-94295086D01*
X152204011Y-94466832D01*
X152428131Y-94559894D01*
X152670804Y-94560106D01*
X152767475Y-94520162D01*
X152802565Y-94605086D01*
X152974011Y-94776832D01*
X153198131Y-94869894D01*
X153440804Y-94870106D01*
X153665086Y-94777435D01*
X153747665Y-94695000D01*
X166300000Y-94695000D01*
X166438849Y-94667381D01*
X166466468Y-94661888D01*
X166607591Y-94567591D01*
X170002737Y-91172446D01*
X170417764Y-91255000D01*
X170462236Y-91255000D01*
X170683912Y-91210906D01*
X166299816Y-95595002D01*
X152817678Y-95595002D01*
X152735989Y-95513170D01*
X152511869Y-95420108D01*
X152269196Y-95419896D01*
X152044914Y-95512567D01*
X151873168Y-95684013D01*
X151780106Y-95908133D01*
X151779894Y-96150806D01*
X151872565Y-96375088D01*
X152044011Y-96546834D01*
X152268131Y-96639896D01*
X152510804Y-96640108D01*
X152735086Y-96547437D01*
X152817665Y-96465002D01*
X166479998Y-96465002D01*
X166618847Y-96437383D01*
X166646466Y-96431890D01*
X166787589Y-96337593D01*
X171957591Y-91167591D01*
X172051888Y-91026468D01*
X172057381Y-90998849D01*
X172085000Y-90860000D01*
X172085000Y-90817507D01*
X172155198Y-90922566D01*
X172523418Y-91168603D01*
X172957764Y-91255000D01*
X173002236Y-91255000D01*
X173436582Y-91168603D01*
X173804802Y-90922566D01*
X174050839Y-90554346D01*
X174137236Y-90120000D01*
X174362764Y-90120000D01*
X174449161Y-90554346D01*
X174695198Y-90922566D01*
X175063418Y-91168603D01*
X175497764Y-91255000D01*
X175542236Y-91255000D01*
X175976582Y-91168603D01*
X176344802Y-90922566D01*
X176590839Y-90554346D01*
X176677236Y-90120000D01*
X176590839Y-89685654D01*
X176344802Y-89317434D01*
X175976582Y-89071397D01*
X175958821Y-89067864D01*
X178579635Y-89067864D01*
X178900186Y-89843657D01*
X179493221Y-90437728D01*
X180268454Y-90759633D01*
X181107864Y-90760365D01*
X181883657Y-90439814D01*
X182477728Y-89846779D01*
X182799633Y-89071546D01*
X182800365Y-88232136D01*
X182479814Y-87456343D01*
X181886779Y-86862272D01*
X181111546Y-86540367D01*
X180272136Y-86539635D01*
X179496343Y-86860186D01*
X178902272Y-87453221D01*
X178580367Y-88228454D01*
X178579635Y-89067864D01*
X175958821Y-89067864D01*
X175542236Y-88985000D01*
X175497764Y-88985000D01*
X175063418Y-89071397D01*
X174695198Y-89317434D01*
X174449161Y-89685654D01*
X174362764Y-90120000D01*
X174137236Y-90120000D01*
X174050839Y-89685654D01*
X173804802Y-89317434D01*
X173436582Y-89071397D01*
X173002236Y-88985000D01*
X172957764Y-88985000D01*
X172523418Y-89071397D01*
X172155198Y-89317434D01*
X172085000Y-89422493D01*
X172085000Y-88790000D01*
X172051888Y-88623533D01*
X172005107Y-88553521D01*
X171957591Y-88482408D01*
X171502303Y-88027121D01*
X171510839Y-88014346D01*
X171597236Y-87580000D01*
X171822764Y-87580000D01*
X171909161Y-88014346D01*
X172155198Y-88382566D01*
X172523418Y-88628603D01*
X172957764Y-88715000D01*
X173002236Y-88715000D01*
X173436582Y-88628603D01*
X173804802Y-88382566D01*
X174050839Y-88014346D01*
X174137236Y-87580000D01*
X174362764Y-87580000D01*
X174449161Y-88014346D01*
X174695198Y-88382566D01*
X175063418Y-88628603D01*
X175497764Y-88715000D01*
X175542236Y-88715000D01*
X175976582Y-88628603D01*
X176344802Y-88382566D01*
X176590839Y-88014346D01*
X176677236Y-87580000D01*
X176590839Y-87145654D01*
X176344802Y-86777434D01*
X175976582Y-86531397D01*
X175542236Y-86445000D01*
X175497764Y-86445000D01*
X175063418Y-86531397D01*
X174695198Y-86777434D01*
X174449161Y-87145654D01*
X174362764Y-87580000D01*
X174137236Y-87580000D01*
X174050839Y-87145654D01*
X173804802Y-86777434D01*
X173436582Y-86531397D01*
X173002236Y-86445000D01*
X172957764Y-86445000D01*
X172523418Y-86531397D01*
X172155198Y-86777434D01*
X171909161Y-87145654D01*
X171822764Y-87580000D01*
X171597236Y-87580000D01*
X171510839Y-87145654D01*
X171264802Y-86777434D01*
X170896582Y-86531397D01*
X170462236Y-86445000D01*
X170417764Y-86445000D01*
X169983418Y-86531397D01*
X169615198Y-86777434D01*
X169369161Y-87145654D01*
X169282764Y-87580000D01*
X169369161Y-88014346D01*
X169615198Y-88382566D01*
X169983418Y-88628603D01*
X170417764Y-88715000D01*
X170462236Y-88715000D01*
X170877263Y-88632446D01*
X171215000Y-88970183D01*
X171215000Y-89284157D01*
X170896582Y-89071397D01*
X170462236Y-88985000D01*
X170417764Y-88985000D01*
X169983418Y-89071397D01*
X169615198Y-89317434D01*
X169369161Y-89685654D01*
X169282764Y-90120000D01*
X169369161Y-90554346D01*
X169377697Y-90567121D01*
X166119818Y-93825000D01*
X153747678Y-93825000D01*
X153665989Y-93743168D01*
X153441869Y-93650106D01*
X153199196Y-93649894D01*
X153102525Y-93689838D01*
X153067435Y-93604914D01*
X152895989Y-93433168D01*
X152780125Y-93385057D01*
X154367602Y-91797581D01*
X154461899Y-91656457D01*
X154482328Y-91553750D01*
X154495011Y-91489989D01*
X154495011Y-91002623D01*
X154743418Y-91168603D01*
X155177764Y-91255000D01*
X155222236Y-91255000D01*
X155656582Y-91168603D01*
X156024802Y-90922566D01*
X156270839Y-90554346D01*
X156357236Y-90120000D01*
X156582764Y-90120000D01*
X156669161Y-90554346D01*
X156915198Y-90922566D01*
X157283418Y-91168603D01*
X157717764Y-91255000D01*
X157762236Y-91255000D01*
X158196582Y-91168603D01*
X158564802Y-90922566D01*
X158810839Y-90554346D01*
X158897236Y-90120000D01*
X159122764Y-90120000D01*
X159209161Y-90554346D01*
X159455198Y-90922566D01*
X159823418Y-91168603D01*
X160257764Y-91255000D01*
X160302236Y-91255000D01*
X160736582Y-91168603D01*
X161104802Y-90922566D01*
X161350839Y-90554346D01*
X161437236Y-90120000D01*
X161662764Y-90120000D01*
X161749161Y-90554346D01*
X161995198Y-90922566D01*
X162363418Y-91168603D01*
X162797764Y-91255000D01*
X162842236Y-91255000D01*
X163276582Y-91168603D01*
X163644802Y-90922566D01*
X163890839Y-90554346D01*
X163977236Y-90120000D01*
X164202764Y-90120000D01*
X164289161Y-90554346D01*
X164535198Y-90922566D01*
X164903418Y-91168603D01*
X165337764Y-91255000D01*
X165382236Y-91255000D01*
X165816582Y-91168603D01*
X166184802Y-90922566D01*
X166430839Y-90554346D01*
X166517236Y-90120000D01*
X166742764Y-90120000D01*
X166829161Y-90554346D01*
X167075198Y-90922566D01*
X167443418Y-91168603D01*
X167877764Y-91255000D01*
X167922236Y-91255000D01*
X168356582Y-91168603D01*
X168724802Y-90922566D01*
X168970839Y-90554346D01*
X169057236Y-90120000D01*
X168970839Y-89685654D01*
X168724802Y-89317434D01*
X168356582Y-89071397D01*
X167922236Y-88985000D01*
X167877764Y-88985000D01*
X167443418Y-89071397D01*
X167075198Y-89317434D01*
X166829161Y-89685654D01*
X166742764Y-90120000D01*
X166517236Y-90120000D01*
X166430839Y-89685654D01*
X166184802Y-89317434D01*
X165816582Y-89071397D01*
X165382236Y-88985000D01*
X165337764Y-88985000D01*
X164903418Y-89071397D01*
X164535198Y-89317434D01*
X164289161Y-89685654D01*
X164202764Y-90120000D01*
X163977236Y-90120000D01*
X163890839Y-89685654D01*
X163644802Y-89317434D01*
X163276582Y-89071397D01*
X162842236Y-88985000D01*
X162797764Y-88985000D01*
X162363418Y-89071397D01*
X161995198Y-89317434D01*
X161749161Y-89685654D01*
X161662764Y-90120000D01*
X161437236Y-90120000D01*
X161350839Y-89685654D01*
X161104802Y-89317434D01*
X160736582Y-89071397D01*
X160302236Y-88985000D01*
X160257764Y-88985000D01*
X159823418Y-89071397D01*
X159455198Y-89317434D01*
X159209161Y-89685654D01*
X159122764Y-90120000D01*
X158897236Y-90120000D01*
X158810839Y-89685654D01*
X158564802Y-89317434D01*
X158196582Y-89071397D01*
X157762236Y-88985000D01*
X157717764Y-88985000D01*
X157283418Y-89071397D01*
X156915198Y-89317434D01*
X156669161Y-89685654D01*
X156582764Y-90120000D01*
X156357236Y-90120000D01*
X156270839Y-89685654D01*
X156024802Y-89317434D01*
X155656582Y-89071397D01*
X155222236Y-88985000D01*
X155177764Y-88985000D01*
X154743418Y-89071397D01*
X154495011Y-89237377D01*
X154495011Y-88900171D01*
X154762737Y-88632446D01*
X155177764Y-88715000D01*
X155222236Y-88715000D01*
X155656582Y-88628603D01*
X156024802Y-88382566D01*
X156270839Y-88014346D01*
X156357236Y-87580000D01*
X156582764Y-87580000D01*
X156669161Y-88014346D01*
X156915198Y-88382566D01*
X157283418Y-88628603D01*
X157717764Y-88715000D01*
X157762236Y-88715000D01*
X158196582Y-88628603D01*
X158564802Y-88382566D01*
X158810839Y-88014346D01*
X158897236Y-87580000D01*
X159122764Y-87580000D01*
X159209161Y-88014346D01*
X159455198Y-88382566D01*
X159823418Y-88628603D01*
X160257764Y-88715000D01*
X160302236Y-88715000D01*
X160736582Y-88628603D01*
X161104802Y-88382566D01*
X161350839Y-88014346D01*
X161437236Y-87580000D01*
X161662764Y-87580000D01*
X161749161Y-88014346D01*
X161995198Y-88382566D01*
X162363418Y-88628603D01*
X162797764Y-88715000D01*
X162842236Y-88715000D01*
X163276582Y-88628603D01*
X163644802Y-88382566D01*
X163890839Y-88014346D01*
X163977236Y-87580000D01*
X164202764Y-87580000D01*
X164289161Y-88014346D01*
X164535198Y-88382566D01*
X164903418Y-88628603D01*
X165337764Y-88715000D01*
X165382236Y-88715000D01*
X165816582Y-88628603D01*
X166184802Y-88382566D01*
X166430839Y-88014346D01*
X166517236Y-87580000D01*
X166742764Y-87580000D01*
X166829161Y-88014346D01*
X167075198Y-88382566D01*
X167443418Y-88628603D01*
X167877764Y-88715000D01*
X167922236Y-88715000D01*
X168356582Y-88628603D01*
X168724802Y-88382566D01*
X168970839Y-88014346D01*
X169057236Y-87580000D01*
X168970839Y-87145654D01*
X168724802Y-86777434D01*
X168356582Y-86531397D01*
X167922236Y-86445000D01*
X167877764Y-86445000D01*
X167443418Y-86531397D01*
X167075198Y-86777434D01*
X166829161Y-87145654D01*
X166742764Y-87580000D01*
X166517236Y-87580000D01*
X166430839Y-87145654D01*
X166184802Y-86777434D01*
X165816582Y-86531397D01*
X165382236Y-86445000D01*
X165337764Y-86445000D01*
X164903418Y-86531397D01*
X164535198Y-86777434D01*
X164289161Y-87145654D01*
X164202764Y-87580000D01*
X163977236Y-87580000D01*
X163890839Y-87145654D01*
X163644802Y-86777434D01*
X163276582Y-86531397D01*
X162842236Y-86445000D01*
X162797764Y-86445000D01*
X162363418Y-86531397D01*
X161995198Y-86777434D01*
X161749161Y-87145654D01*
X161662764Y-87580000D01*
X161437236Y-87580000D01*
X161350839Y-87145654D01*
X161104802Y-86777434D01*
X160736582Y-86531397D01*
X160302236Y-86445000D01*
X160257764Y-86445000D01*
X159823418Y-86531397D01*
X159455198Y-86777434D01*
X159209161Y-87145654D01*
X159122764Y-87580000D01*
X158897236Y-87580000D01*
X158810839Y-87145654D01*
X158564802Y-86777434D01*
X158196582Y-86531397D01*
X157762236Y-86445000D01*
X157717764Y-86445000D01*
X157283418Y-86531397D01*
X156915198Y-86777434D01*
X156669161Y-87145654D01*
X156582764Y-87580000D01*
X156357236Y-87580000D01*
X156270839Y-87145654D01*
X156024802Y-86777434D01*
X155656582Y-86531397D01*
X155222236Y-86445000D01*
X155177764Y-86445000D01*
X154743418Y-86531397D01*
X154375198Y-86777434D01*
X154129161Y-87145654D01*
X154042764Y-87580000D01*
X154129161Y-88014346D01*
X154137697Y-88027121D01*
X153930000Y-88234817D01*
X153722303Y-88027121D01*
X153730839Y-88014346D01*
X153817236Y-87580000D01*
X153730839Y-87145654D01*
X153484802Y-86777434D01*
X153116582Y-86531397D01*
X152682236Y-86445000D01*
X152637764Y-86445000D01*
X152203418Y-86531397D01*
X151835198Y-86777434D01*
X151589161Y-87145654D01*
X151502764Y-87580000D01*
X151589161Y-88014346D01*
X151835198Y-88382566D01*
X152203418Y-88628603D01*
X152637764Y-88715000D01*
X152682236Y-88715000D01*
X153097263Y-88632446D01*
X153275001Y-88810184D01*
X153275001Y-89177249D01*
X153116582Y-89071397D01*
X152682236Y-88985000D01*
X152637764Y-88985000D01*
X152203418Y-89071397D01*
X151835198Y-89317434D01*
X151715000Y-89497323D01*
X151715000Y-88740000D01*
X151700082Y-88665000D01*
X151681888Y-88573532D01*
X151587592Y-88432409D01*
X151182303Y-88027121D01*
X151190839Y-88014346D01*
X151277236Y-87580000D01*
X151190839Y-87145654D01*
X150944802Y-86777434D01*
X150576582Y-86531397D01*
X150142236Y-86445000D01*
X150097764Y-86445000D01*
X149663418Y-86531397D01*
X149295198Y-86777434D01*
X149049161Y-87145654D01*
X148962764Y-87580000D01*
X149049161Y-88014346D01*
X149295198Y-88382566D01*
X149663418Y-88628603D01*
X150097764Y-88715000D01*
X150142236Y-88715000D01*
X150557263Y-88632446D01*
X150845000Y-88920183D01*
X150845000Y-89250748D01*
X150576582Y-89071397D01*
X150142236Y-88985000D01*
X150097764Y-88985000D01*
X149663418Y-89071397D01*
X149295198Y-89317434D01*
X149049161Y-89685654D01*
X148962764Y-90120000D01*
X149049161Y-90554346D01*
X149295198Y-90922566D01*
X149663418Y-91168603D01*
X150097764Y-91255000D01*
X150142236Y-91255000D01*
X150301497Y-91223321D01*
X149821649Y-91703169D01*
X149727352Y-91844292D01*
X149727352Y-91844293D01*
X149694240Y-92010760D01*
X149694240Y-92717777D01*
X149240920Y-93171097D01*
X149151591Y-93037409D01*
X149010468Y-92943112D01*
X148844000Y-92910001D01*
X148677532Y-92943112D01*
X148536409Y-93037409D01*
X145514218Y-96059600D01*
X144856200Y-96059600D01*
X144717351Y-96087219D01*
X144689732Y-96092712D01*
X144548608Y-96187009D01*
X143329409Y-97406209D01*
X143235112Y-97547332D01*
X143235112Y-97547333D01*
X143202000Y-97713800D01*
X143202000Y-99292722D01*
X143120168Y-99374411D01*
X143027106Y-99598531D01*
X143026894Y-99841204D01*
X113323964Y-99841204D01*
X113323964Y-89067864D01*
X120579635Y-89067864D01*
X120900186Y-89843657D01*
X121493221Y-90437728D01*
X122268454Y-90759633D01*
X123107864Y-90760365D01*
X123883657Y-90439814D01*
X124204029Y-90120000D01*
X125949825Y-90120000D01*
X126047640Y-90611748D01*
X126326193Y-91028632D01*
X126743077Y-91307185D01*
X127234825Y-91405000D01*
X127285175Y-91405000D01*
X127776923Y-91307185D01*
X128193807Y-91028632D01*
X128472360Y-90611748D01*
X128530000Y-90321973D01*
X128587640Y-90611748D01*
X128866193Y-91028632D01*
X129283077Y-91307185D01*
X129774825Y-91405000D01*
X129825175Y-91405000D01*
X130316923Y-91307185D01*
X130733807Y-91028632D01*
X131012360Y-90611748D01*
X131110175Y-90120000D01*
X131182764Y-90120000D01*
X131269161Y-90554346D01*
X131515198Y-90922566D01*
X131883418Y-91168603D01*
X132317764Y-91255000D01*
X132362236Y-91255000D01*
X132796582Y-91168603D01*
X133164802Y-90922566D01*
X133410839Y-90554346D01*
X133497236Y-90120000D01*
X133722764Y-90120000D01*
X133809161Y-90554346D01*
X134055198Y-90922566D01*
X134423418Y-91168603D01*
X134857764Y-91255000D01*
X134902236Y-91255000D01*
X135336582Y-91168603D01*
X135704802Y-90922566D01*
X135950839Y-90554346D01*
X136037236Y-90120000D01*
X136262764Y-90120000D01*
X136349161Y-90554346D01*
X136595198Y-90922566D01*
X136963418Y-91168603D01*
X137397764Y-91255000D01*
X137442236Y-91255000D01*
X137876582Y-91168603D01*
X138244802Y-90922566D01*
X138490839Y-90554346D01*
X138577236Y-90120000D01*
X138802764Y-90120000D01*
X138889161Y-90554346D01*
X139135198Y-90922566D01*
X139503418Y-91168603D01*
X139937764Y-91255000D01*
X139982236Y-91255000D01*
X140416582Y-91168603D01*
X140784802Y-90922566D01*
X141030839Y-90554346D01*
X141117236Y-90120000D01*
X141342764Y-90120000D01*
X141429161Y-90554346D01*
X141675198Y-90922566D01*
X142043418Y-91168603D01*
X142477764Y-91255000D01*
X142522236Y-91255000D01*
X142956582Y-91168603D01*
X143324802Y-90922566D01*
X143570839Y-90554346D01*
X143657236Y-90120000D01*
X143882764Y-90120000D01*
X143969161Y-90554346D01*
X144215198Y-90922566D01*
X144583418Y-91168603D01*
X145017764Y-91255000D01*
X145062236Y-91255000D01*
X145496582Y-91168603D01*
X145864802Y-90922566D01*
X146110839Y-90554346D01*
X146197236Y-90120000D01*
X146422764Y-90120000D01*
X146509161Y-90554346D01*
X146755198Y-90922566D01*
X147123418Y-91168603D01*
X147557764Y-91255000D01*
X147602236Y-91255000D01*
X148036582Y-91168603D01*
X148404802Y-90922566D01*
X148650839Y-90554346D01*
X148737236Y-90120000D01*
X148650839Y-89685654D01*
X148404802Y-89317434D01*
X148036582Y-89071397D01*
X147602236Y-88985000D01*
X147557764Y-88985000D01*
X147123418Y-89071397D01*
X146755198Y-89317434D01*
X146509161Y-89685654D01*
X146422764Y-90120000D01*
X146197236Y-90120000D01*
X146110839Y-89685654D01*
X145864802Y-89317434D01*
X145496582Y-89071397D01*
X145062236Y-88985000D01*
X145017764Y-88985000D01*
X144583418Y-89071397D01*
X144215198Y-89317434D01*
X143969161Y-89685654D01*
X143882764Y-90120000D01*
X143657236Y-90120000D01*
X143570839Y-89685654D01*
X143324802Y-89317434D01*
X142956582Y-89071397D01*
X142522236Y-88985000D01*
X142477764Y-88985000D01*
X142043418Y-89071397D01*
X141675198Y-89317434D01*
X141429161Y-89685654D01*
X141342764Y-90120000D01*
X141117236Y-90120000D01*
X141030839Y-89685654D01*
X140784802Y-89317434D01*
X140416582Y-89071397D01*
X139982236Y-88985000D01*
X139937764Y-88985000D01*
X139503418Y-89071397D01*
X139135198Y-89317434D01*
X138889161Y-89685654D01*
X138802764Y-90120000D01*
X138577236Y-90120000D01*
X138490839Y-89685654D01*
X138244802Y-89317434D01*
X137876582Y-89071397D01*
X137442236Y-88985000D01*
X137397764Y-88985000D01*
X136963418Y-89071397D01*
X136595198Y-89317434D01*
X136349161Y-89685654D01*
X136262764Y-90120000D01*
X136037236Y-90120000D01*
X135950839Y-89685654D01*
X135704802Y-89317434D01*
X135336582Y-89071397D01*
X134902236Y-88985000D01*
X134857764Y-88985000D01*
X134423418Y-89071397D01*
X134055198Y-89317434D01*
X133809161Y-89685654D01*
X133722764Y-90120000D01*
X133497236Y-90120000D01*
X133410839Y-89685654D01*
X133164802Y-89317434D01*
X132796582Y-89071397D01*
X132362236Y-88985000D01*
X132317764Y-88985000D01*
X131883418Y-89071397D01*
X131515198Y-89317434D01*
X131269161Y-89685654D01*
X131182764Y-90120000D01*
X131110175Y-90120000D01*
X131012360Y-89628252D01*
X130733807Y-89211368D01*
X130316923Y-88932815D01*
X129825175Y-88835000D01*
X129774825Y-88835000D01*
X129283077Y-88932815D01*
X128866193Y-89211368D01*
X128587640Y-89628252D01*
X128530000Y-89918027D01*
X128472360Y-89628252D01*
X128193807Y-89211368D01*
X127776923Y-88932815D01*
X127285175Y-88835000D01*
X127234825Y-88835000D01*
X126743077Y-88932815D01*
X126326193Y-89211368D01*
X126047640Y-89628252D01*
X125949825Y-90120000D01*
X124204029Y-90120000D01*
X124477728Y-89846779D01*
X124799633Y-89071546D01*
X124800365Y-88232136D01*
X124600118Y-87747500D01*
X126175000Y-87747500D01*
X126175000Y-88416663D01*
X126222195Y-88530601D01*
X126309399Y-88617805D01*
X126423337Y-88665000D01*
X127092500Y-88665000D01*
X127170000Y-88587500D01*
X127170000Y-87670000D01*
X127350000Y-87670000D01*
X127350000Y-88587500D01*
X127427500Y-88665000D01*
X128096663Y-88665000D01*
X128210601Y-88617805D01*
X128297805Y-88530601D01*
X128345000Y-88416663D01*
X128345000Y-87747500D01*
X128267500Y-87670000D01*
X127350000Y-87670000D01*
X127170000Y-87670000D01*
X126252500Y-87670000D01*
X126175000Y-87747500D01*
X124600118Y-87747500D01*
X124530909Y-87580000D01*
X128642764Y-87580000D01*
X128729161Y-88014346D01*
X128975198Y-88382566D01*
X129343418Y-88628603D01*
X129777764Y-88715000D01*
X129822236Y-88715000D01*
X130256582Y-88628603D01*
X130624802Y-88382566D01*
X130870839Y-88014346D01*
X130957236Y-87580000D01*
X131182764Y-87580000D01*
X131269161Y-88014346D01*
X131515198Y-88382566D01*
X131883418Y-88628603D01*
X132317764Y-88715000D01*
X132362236Y-88715000D01*
X132796582Y-88628603D01*
X133164802Y-88382566D01*
X133410839Y-88014346D01*
X133497236Y-87580000D01*
X133722764Y-87580000D01*
X133809161Y-88014346D01*
X134055198Y-88382566D01*
X134423418Y-88628603D01*
X134857764Y-88715000D01*
X134902236Y-88715000D01*
X135336582Y-88628603D01*
X135704802Y-88382566D01*
X135950839Y-88014346D01*
X136037236Y-87580000D01*
X136262764Y-87580000D01*
X136349161Y-88014346D01*
X136595198Y-88382566D01*
X136963418Y-88628603D01*
X137397764Y-88715000D01*
X137442236Y-88715000D01*
X137876582Y-88628603D01*
X138244802Y-88382566D01*
X138490839Y-88014346D01*
X138577236Y-87580000D01*
X138802764Y-87580000D01*
X138889161Y-88014346D01*
X139135198Y-88382566D01*
X139503418Y-88628603D01*
X139937764Y-88715000D01*
X139982236Y-88715000D01*
X140416582Y-88628603D01*
X140784802Y-88382566D01*
X141030839Y-88014346D01*
X141117236Y-87580000D01*
X141342764Y-87580000D01*
X141429161Y-88014346D01*
X141675198Y-88382566D01*
X142043418Y-88628603D01*
X142477764Y-88715000D01*
X142522236Y-88715000D01*
X142956582Y-88628603D01*
X143324802Y-88382566D01*
X143570839Y-88014346D01*
X143657236Y-87580000D01*
X143882764Y-87580000D01*
X143969161Y-88014346D01*
X144215198Y-88382566D01*
X144583418Y-88628603D01*
X145017764Y-88715000D01*
X145062236Y-88715000D01*
X145496582Y-88628603D01*
X145864802Y-88382566D01*
X146110839Y-88014346D01*
X146145908Y-87838038D01*
X146526130Y-87838038D01*
X146652333Y-88142743D01*
X146938300Y-88454910D01*
X147321960Y-88633879D01*
X147490000Y-88583770D01*
X147490000Y-87670000D01*
X147670000Y-87670000D01*
X147670000Y-88583770D01*
X147838040Y-88633879D01*
X148221700Y-88454910D01*
X148507667Y-88142743D01*
X148633870Y-87838038D01*
X148583472Y-87670000D01*
X147670000Y-87670000D01*
X147490000Y-87670000D01*
X146576528Y-87670000D01*
X146526130Y-87838038D01*
X146145908Y-87838038D01*
X146197236Y-87580000D01*
X146145909Y-87321962D01*
X146526130Y-87321962D01*
X146576528Y-87490000D01*
X147490000Y-87490000D01*
X147490000Y-86576230D01*
X147670000Y-86576230D01*
X147670000Y-87490000D01*
X148583472Y-87490000D01*
X148633870Y-87321962D01*
X148507667Y-87017257D01*
X148221700Y-86705090D01*
X147838040Y-86526121D01*
X147670000Y-86576230D01*
X147490000Y-86576230D01*
X147321960Y-86526121D01*
X146938300Y-86705090D01*
X146652333Y-87017257D01*
X146526130Y-87321962D01*
X146145909Y-87321962D01*
X146110839Y-87145654D01*
X145864802Y-86777434D01*
X145496582Y-86531397D01*
X145062236Y-86445000D01*
X145017764Y-86445000D01*
X144583418Y-86531397D01*
X144215198Y-86777434D01*
X143969161Y-87145654D01*
X143882764Y-87580000D01*
X143657236Y-87580000D01*
X143570839Y-87145654D01*
X143324802Y-86777434D01*
X142956582Y-86531397D01*
X142522236Y-86445000D01*
X142477764Y-86445000D01*
X142043418Y-86531397D01*
X141675198Y-86777434D01*
X141429161Y-87145654D01*
X141342764Y-87580000D01*
X141117236Y-87580000D01*
X141030839Y-87145654D01*
X140784802Y-86777434D01*
X140416582Y-86531397D01*
X139982236Y-86445000D01*
X139937764Y-86445000D01*
X139503418Y-86531397D01*
X139135198Y-86777434D01*
X138889161Y-87145654D01*
X138802764Y-87580000D01*
X138577236Y-87580000D01*
X138490839Y-87145654D01*
X138244802Y-86777434D01*
X137876582Y-86531397D01*
X137442236Y-86445000D01*
X137397764Y-86445000D01*
X136963418Y-86531397D01*
X136595198Y-86777434D01*
X136349161Y-87145654D01*
X136262764Y-87580000D01*
X136037236Y-87580000D01*
X135950839Y-87145654D01*
X135704802Y-86777434D01*
X135336582Y-86531397D01*
X134902236Y-86445000D01*
X134857764Y-86445000D01*
X134423418Y-86531397D01*
X134055198Y-86777434D01*
X133809161Y-87145654D01*
X133722764Y-87580000D01*
X133497236Y-87580000D01*
X133410839Y-87145654D01*
X133164802Y-86777434D01*
X132796582Y-86531397D01*
X132362236Y-86445000D01*
X132317764Y-86445000D01*
X131883418Y-86531397D01*
X131515198Y-86777434D01*
X131269161Y-87145654D01*
X131182764Y-87580000D01*
X130957236Y-87580000D01*
X130870839Y-87145654D01*
X130624802Y-86777434D01*
X130256582Y-86531397D01*
X129822236Y-86445000D01*
X129777764Y-86445000D01*
X129343418Y-86531397D01*
X128975198Y-86777434D01*
X128729161Y-87145654D01*
X128642764Y-87580000D01*
X124530909Y-87580000D01*
X124479814Y-87456343D01*
X123886779Y-86862272D01*
X123600352Y-86743337D01*
X126175000Y-86743337D01*
X126175000Y-87412500D01*
X126252500Y-87490000D01*
X127170000Y-87490000D01*
X127170000Y-86572500D01*
X127350000Y-86572500D01*
X127350000Y-87490000D01*
X128267500Y-87490000D01*
X128345000Y-87412500D01*
X128345000Y-86743337D01*
X128297805Y-86629399D01*
X128210601Y-86542195D01*
X128096663Y-86495000D01*
X127427500Y-86495000D01*
X127350000Y-86572500D01*
X127170000Y-86572500D01*
X127092500Y-86495000D01*
X126423337Y-86495000D01*
X126309399Y-86542195D01*
X126222195Y-86629399D01*
X126175000Y-86743337D01*
X123600352Y-86743337D01*
X123111546Y-86540367D01*
X122272136Y-86539635D01*
X121496343Y-86860186D01*
X120902272Y-87453221D01*
X120580367Y-88228454D01*
X120579635Y-89067864D01*
X113323964Y-89067864D01*
X113323964Y-86020804D01*
X200849894Y-86020804D01*
X200942565Y-86245086D01*
X201114011Y-86416832D01*
X201338131Y-86509894D01*
X201580804Y-86510106D01*
X201805086Y-86417435D01*
X201976832Y-86245989D01*
X202069894Y-86021869D01*
X202070106Y-85779196D01*
X201977435Y-85554914D01*
X201805989Y-85383168D01*
X201581869Y-85290106D01*
X201339196Y-85289894D01*
X201114914Y-85382565D01*
X200943168Y-85554011D01*
X200850106Y-85778131D01*
X200849894Y-86020804D01*
X113323964Y-86020804D01*
X113323964Y-85055411D01*
X203503964Y-85055411D01*
X203503964Y-138255411D01*
X203503964Y-138255411D01*
G37*
X203503964Y-138255411D02*
X174323964Y-138255411D01*
X174323964Y-132718354D01*
X190079677Y-132718354D01*
X190362249Y-133402229D01*
X190885019Y-133925912D01*
X191568400Y-134209677D01*
X192308354Y-134210323D01*
X192992229Y-133927751D01*
X193515912Y-133404981D01*
X193799677Y-132721600D01*
X193800323Y-131981646D01*
X193769489Y-131907023D01*
X193864120Y-132001819D01*
X194593427Y-132304654D01*
X195383109Y-132305343D01*
X196112943Y-132003782D01*
X196667868Y-131449824D01*
X198779808Y-131449824D01*
X198948439Y-131857943D01*
X199260415Y-132170463D01*
X199668239Y-132339807D01*
X200109824Y-132340192D01*
X200517943Y-132171561D01*
X200830463Y-131859585D01*
X200999807Y-131451761D01*
X201000192Y-131010176D01*
X200831561Y-130602057D01*
X200519585Y-130289537D01*
X200111761Y-130120193D01*
X199670176Y-130119808D01*
X199262057Y-130288439D01*
X198949537Y-130600415D01*
X198780193Y-131008239D01*
X198779808Y-131449824D01*
X196667868Y-131449824D01*
X196671819Y-131445880D01*
X196974654Y-130716573D01*
X196975343Y-129926891D01*
X196673782Y-129197057D01*
X196115880Y-128638181D01*
X195386573Y-128335346D01*
X194596891Y-128334657D01*
X193867057Y-128636218D01*
X193308181Y-129194120D01*
X193005346Y-129923427D01*
X193004657Y-130713109D01*
X193054481Y-130833692D01*
X192994981Y-130774088D01*
X192311600Y-130490323D01*
X191571646Y-130489677D01*
X190887771Y-130772249D01*
X190364088Y-131295019D01*
X190080323Y-131978400D01*
X190079677Y-132718354D01*
X174323964Y-132718354D01*
X174323964Y-129264824D01*
X187529808Y-129264824D01*
X187698439Y-129672943D01*
X188010415Y-129985463D01*
X188418239Y-130154807D01*
X188859824Y-130155192D01*
X189267943Y-129986561D01*
X189580463Y-129674585D01*
X189749807Y-129266761D01*
X189750192Y-128825176D01*
X189581561Y-128417057D01*
X189269585Y-128104537D01*
X188861761Y-127935193D01*
X188420176Y-127934808D01*
X188012057Y-128103439D01*
X187699537Y-128415415D01*
X187530193Y-128823239D01*
X187529808Y-129264824D01*
X174323964Y-129264824D01*
X174323964Y-128004824D01*
X184989808Y-128004824D01*
X185158439Y-128412943D01*
X185470415Y-128725463D01*
X185878239Y-128894807D01*
X186319824Y-128895192D01*
X186727943Y-128726561D01*
X187040463Y-128414585D01*
X187209807Y-128006761D01*
X187210192Y-127565176D01*
X187041561Y-127157057D01*
X186729585Y-126844537D01*
X186441286Y-126724824D01*
X187529808Y-126724824D01*
X187698439Y-127132943D01*
X188010415Y-127445463D01*
X188418239Y-127614807D01*
X188859824Y-127615192D01*
X189267943Y-127446561D01*
X189580463Y-127134585D01*
X189749807Y-126726761D01*
X189750192Y-126285176D01*
X189581561Y-125877057D01*
X189269585Y-125564537D01*
X188861761Y-125395193D01*
X188420176Y-125394808D01*
X188012057Y-125563439D01*
X187699537Y-125875415D01*
X187530193Y-126283239D01*
X187529808Y-126724824D01*
X186441286Y-126724824D01*
X186321761Y-126675193D01*
X185880176Y-126674808D01*
X185472057Y-126843439D01*
X185159537Y-127155415D01*
X184990193Y-127563239D01*
X184989808Y-128004824D01*
X174323964Y-128004824D01*
X174323964Y-126450804D01*
X180109894Y-126450804D01*
X180202565Y-126675086D01*
X180374011Y-126846832D01*
X180598131Y-126939894D01*
X180840804Y-126940106D01*
X181065086Y-126847435D01*
X181236832Y-126675989D01*
X181329894Y-126451869D01*
X181330106Y-126209196D01*
X181237435Y-125984914D01*
X181065989Y-125813168D01*
X180841869Y-125720106D01*
X180599196Y-125719894D01*
X180374914Y-125812565D01*
X180203168Y-125984011D01*
X180110106Y-126208131D01*
X180109894Y-126450804D01*
X174323964Y-126450804D01*
X174323964Y-125464824D01*
X184989808Y-125464824D01*
X185158439Y-125872943D01*
X185470415Y-126185463D01*
X185878239Y-126354807D01*
X186319824Y-126355192D01*
X186727943Y-126186561D01*
X187040463Y-125874585D01*
X187209807Y-125466761D01*
X187210192Y-125025176D01*
X187041561Y-124617057D01*
X186729585Y-124304537D01*
X186441286Y-124184824D01*
X187529808Y-124184824D01*
X187698439Y-124592943D01*
X188010415Y-124905463D01*
X188418239Y-125074807D01*
X188859824Y-125075192D01*
X189267943Y-124906561D01*
X189580463Y-124594585D01*
X189749807Y-124186761D01*
X189750192Y-123745176D01*
X189581561Y-123337057D01*
X189269585Y-123024537D01*
X188861761Y-122855193D01*
X188420176Y-122854808D01*
X188012057Y-123023439D01*
X187699537Y-123335415D01*
X187530193Y-123743239D01*
X187529808Y-124184824D01*
X186441286Y-124184824D01*
X186321761Y-124135193D01*
X185880176Y-124134808D01*
X185472057Y-124303439D01*
X185159537Y-124615415D01*
X184990193Y-125023239D01*
X184989808Y-125464824D01*
X174323964Y-125464824D01*
X174323964Y-123460804D01*
X180139894Y-123460804D01*
X180232565Y-123685086D01*
X180404011Y-123856832D01*
X180628131Y-123949894D01*
X180870804Y-123950106D01*
X181095086Y-123857435D01*
X181266832Y-123685989D01*
X181359894Y-123461869D01*
X181360106Y-123219196D01*
X181267435Y-122994914D01*
X181197468Y-122924824D01*
X184989808Y-122924824D01*
X185158439Y-123332943D01*
X185470415Y-123645463D01*
X185878239Y-123814807D01*
X186319824Y-123815192D01*
X186727943Y-123646561D01*
X187040463Y-123334585D01*
X187209807Y-122926761D01*
X187210192Y-122485176D01*
X187041561Y-122077057D01*
X186729585Y-121764537D01*
X186441286Y-121644824D01*
X187529808Y-121644824D01*
X187698439Y-122052943D01*
X188010415Y-122365463D01*
X188418239Y-122534807D01*
X188859824Y-122535192D01*
X189267943Y-122366561D01*
X189580463Y-122054585D01*
X189749807Y-121646761D01*
X189750192Y-121205176D01*
X189581561Y-120797057D01*
X189269585Y-120484537D01*
X188861761Y-120315193D01*
X188420176Y-120314808D01*
X188012057Y-120483439D01*
X187699537Y-120795415D01*
X187530193Y-121203239D01*
X187529808Y-121644824D01*
X186441286Y-121644824D01*
X186321761Y-121595193D01*
X185880176Y-121594808D01*
X185472057Y-121763439D01*
X185159537Y-122075415D01*
X184990193Y-122483239D01*
X184989808Y-122924824D01*
X181197468Y-122924824D01*
X181095989Y-122823168D01*
X180871869Y-122730106D01*
X180629196Y-122729894D01*
X180404914Y-122822565D01*
X180233168Y-122994011D01*
X180140106Y-123218131D01*
X180139894Y-123460804D01*
X174323964Y-123460804D01*
X174323964Y-120384824D01*
X184989808Y-120384824D01*
X185158439Y-120792943D01*
X185470415Y-121105463D01*
X185878239Y-121274807D01*
X186319824Y-121275192D01*
X186727943Y-121106561D01*
X187040463Y-120794585D01*
X187209807Y-120386761D01*
X187210192Y-119945176D01*
X187041561Y-119537057D01*
X186729585Y-119224537D01*
X186321761Y-119055193D01*
X185880176Y-119054808D01*
X185472057Y-119223439D01*
X185159537Y-119535415D01*
X184990193Y-119943239D01*
X184989808Y-120384824D01*
X174323964Y-120384824D01*
X174323964Y-113445411D01*
X174316086Y-113405805D01*
X174316086Y-113365424D01*
X174011604Y-111834690D01*
X173950385Y-111686893D01*
X173950382Y-111686890D01*
X173083294Y-110389200D01*
X172970175Y-110276081D01*
X171672482Y-109408990D01*
X171524685Y-109347771D01*
X169993951Y-109043289D01*
X169953570Y-109043289D01*
X169913964Y-109035411D01*
X114954346Y-109035411D01*
X114308571Y-108906958D01*
X113795344Y-108564031D01*
X113452313Y-108050648D01*
X113323964Y-107408325D01*
X113323964Y-104081420D01*
X118273269Y-104081420D01*
X118273269Y-106113420D01*
X118308831Y-106302415D01*
X118420526Y-106475995D01*
X118590954Y-106592443D01*
X118793260Y-106633411D01*
X120520460Y-106633411D01*
X120709455Y-106597849D01*
X120883035Y-106486154D01*
X120999483Y-106315726D01*
X121040451Y-106113420D01*
X121040451Y-105420114D01*
X121161565Y-105811065D01*
X121455151Y-106164533D01*
X121861656Y-106378744D01*
X121924917Y-106391478D01*
X122106860Y-106342219D01*
X122106860Y-105187420D01*
X122286860Y-105187420D01*
X122286860Y-106342219D01*
X122468803Y-106391478D01*
X122532064Y-106378744D01*
X122938569Y-106164533D01*
X123232155Y-105811065D01*
X123368127Y-105372153D01*
X123295344Y-105187420D01*
X122286860Y-105187420D01*
X122106860Y-105187420D01*
X122086860Y-105187420D01*
X122086860Y-105007420D01*
X122106860Y-105007420D01*
X122106860Y-103852621D01*
X122286860Y-103852621D01*
X122286860Y-105007420D01*
X123295344Y-105007420D01*
X123330549Y-104918063D01*
X123513260Y-104918063D01*
X123513260Y-105276777D01*
X123606401Y-105745028D01*
X123871644Y-106141993D01*
X124268609Y-106407236D01*
X124736860Y-106500377D01*
X125205111Y-106407236D01*
X125602076Y-106141993D01*
X125867319Y-105745028D01*
X125960460Y-105276777D01*
X125960460Y-104918063D01*
X126053260Y-104918063D01*
X126053260Y-105276777D01*
X126146401Y-105745028D01*
X126411644Y-106141993D01*
X126808609Y-106407236D01*
X127276860Y-106500377D01*
X127745111Y-106407236D01*
X128142076Y-106141993D01*
X128407319Y-105745028D01*
X128500460Y-105276777D01*
X128500460Y-104918063D01*
X128593260Y-104918063D01*
X128593260Y-105276777D01*
X128686401Y-105745028D01*
X128951644Y-106141993D01*
X129348609Y-106407236D01*
X129816860Y-106500377D01*
X130285111Y-106407236D01*
X130682076Y-106141993D01*
X130947319Y-105745028D01*
X131040460Y-105276777D01*
X131040460Y-104918063D01*
X131133260Y-104918063D01*
X131133260Y-105276777D01*
X131226401Y-105745028D01*
X131491644Y-106141993D01*
X131888609Y-106407236D01*
X132356860Y-106500377D01*
X132825111Y-106407236D01*
X133222076Y-106141993D01*
X133487319Y-105745028D01*
X133580460Y-105276777D01*
X133580460Y-104918063D01*
X133673260Y-104918063D01*
X133673260Y-105276777D01*
X133766401Y-105745028D01*
X134031644Y-106141993D01*
X134428609Y-106407236D01*
X134896860Y-106500377D01*
X135365111Y-106407236D01*
X135762076Y-106141993D01*
X136027319Y-105745028D01*
X136120460Y-105276777D01*
X136120460Y-104918063D01*
X136213260Y-104918063D01*
X136213260Y-105276777D01*
X136306401Y-105745028D01*
X136571644Y-106141993D01*
X136968609Y-106407236D01*
X137436860Y-106500377D01*
X137905111Y-106407236D01*
X138302076Y-106141993D01*
X138567319Y-105745028D01*
X138660460Y-105276777D01*
X138660460Y-104921204D01*
X145058894Y-104921204D01*
X145151565Y-105145486D01*
X145323011Y-105317232D01*
X145547131Y-105410294D01*
X145789804Y-105410506D01*
X146014086Y-105317835D01*
X146185832Y-105146389D01*
X146278894Y-104922269D01*
X146279106Y-104679596D01*
X146186435Y-104455314D01*
X146014989Y-104283568D01*
X145790869Y-104190506D01*
X145548196Y-104190294D01*
X145323914Y-104282965D01*
X145152168Y-104454411D01*
X145059106Y-104678531D01*
X145058894Y-104921204D01*
X138660460Y-104921204D01*
X138660460Y-104918063D01*
X138567319Y-104449812D01*
X138356170Y-104133804D01*
X142137894Y-104133804D01*
X142230565Y-104358086D01*
X142402011Y-104529832D01*
X142626131Y-104622894D01*
X142868804Y-104623106D01*
X143093086Y-104530435D01*
X143264832Y-104358989D01*
X143357894Y-104134869D01*
X143358106Y-103892196D01*
X143265435Y-103667914D01*
X143093989Y-103496168D01*
X142869869Y-103403106D01*
X142627196Y-103402894D01*
X142402914Y-103495565D01*
X142231168Y-103667011D01*
X142138106Y-103891131D01*
X142137894Y-104133804D01*
X138356170Y-104133804D01*
X138302076Y-104052847D01*
X137905111Y-103787604D01*
X137436860Y-103694463D01*
X136968609Y-103787604D01*
X136571644Y-104052847D01*
X136306401Y-104449812D01*
X136213260Y-104918063D01*
X136120460Y-104918063D01*
X136027319Y-104449812D01*
X135762076Y-104052847D01*
X135365111Y-103787604D01*
X134896860Y-103694463D01*
X134428609Y-103787604D01*
X134031644Y-104052847D01*
X133766401Y-104449812D01*
X133673260Y-104918063D01*
X133580460Y-104918063D01*
X133487319Y-104449812D01*
X133222076Y-104052847D01*
X132825111Y-103787604D01*
X132356860Y-103694463D01*
X131888609Y-103787604D01*
X131491644Y-104052847D01*
X131226401Y-104449812D01*
X131133260Y-104918063D01*
X131040460Y-104918063D01*
X130947319Y-104449812D01*
X130682076Y-104052847D01*
X130285111Y-103787604D01*
X129816860Y-103694463D01*
X129348609Y-103787604D01*
X128951644Y-104052847D01*
X128686401Y-104449812D01*
X128593260Y-104918063D01*
X128500460Y-104918063D01*
X128407319Y-104449812D01*
X128142076Y-104052847D01*
X127745111Y-103787604D01*
X127276860Y-103694463D01*
X126808609Y-103787604D01*
X126411644Y-104052847D01*
X126146401Y-104449812D01*
X126053260Y-104918063D01*
X125960460Y-104918063D01*
X125867319Y-104449812D01*
X125602076Y-104052847D01*
X125205111Y-103787604D01*
X124736860Y-103694463D01*
X124268609Y-103787604D01*
X123871644Y-104052847D01*
X123606401Y-104449812D01*
X123513260Y-104918063D01*
X123330549Y-104918063D01*
X123368127Y-104822687D01*
X123232155Y-104383775D01*
X122938569Y-104030307D01*
X122532064Y-103816096D01*
X122468803Y-103803362D01*
X122286860Y-103852621D01*
X122106860Y-103852621D01*
X121924917Y-103803362D01*
X121861656Y-103816096D01*
X121455151Y-104030307D01*
X121161565Y-104383775D01*
X121040451Y-104774726D01*
X121040451Y-104081420D01*
X121004889Y-103892425D01*
X120893194Y-103718845D01*
X120722766Y-103602397D01*
X120520460Y-103561429D01*
X118793260Y-103561429D01*
X118604265Y-103596991D01*
X118430685Y-103708686D01*
X118314237Y-103879114D01*
X118273269Y-104081420D01*
X113323964Y-104081420D01*
X113323964Y-101466804D01*
X140613894Y-101466804D01*
X140706565Y-101691086D01*
X140878011Y-101862832D01*
X141102131Y-101955894D01*
X141344804Y-101956106D01*
X141569086Y-101863435D01*
X141740832Y-101691989D01*
X141781601Y-101593804D01*
X142772894Y-101593804D01*
X142865565Y-101818086D01*
X143037011Y-101989832D01*
X143261131Y-102082894D01*
X143503804Y-102083106D01*
X143728086Y-101990435D01*
X143899832Y-101818989D01*
X143992894Y-101594869D01*
X143993106Y-101352196D01*
X143900435Y-101127914D01*
X143728989Y-100956168D01*
X143504869Y-100863106D01*
X143262196Y-100862894D01*
X143037914Y-100955565D01*
X142866168Y-101127011D01*
X142773106Y-101351131D01*
X142772894Y-101593804D01*
X141781601Y-101593804D01*
X141833894Y-101467869D01*
X141834106Y-101225196D01*
X141741435Y-101000914D01*
X141569989Y-100829168D01*
X141345869Y-100736106D01*
X141103196Y-100735894D01*
X140878914Y-100828565D01*
X140707168Y-101000011D01*
X140614106Y-101224131D01*
X140613894Y-101466804D01*
X113323964Y-101466804D01*
X113323964Y-100577804D01*
X141629894Y-100577804D01*
X141722565Y-100802086D01*
X141894011Y-100973832D01*
X142118131Y-101066894D01*
X142360804Y-101067106D01*
X142585086Y-100974435D01*
X142756832Y-100802989D01*
X142849894Y-100578869D01*
X142850106Y-100336196D01*
X142757435Y-100111914D01*
X142585989Y-99940168D01*
X142361869Y-99847106D01*
X142119196Y-99846894D01*
X141894914Y-99939565D01*
X141723168Y-100111011D01*
X141630106Y-100335131D01*
X141629894Y-100577804D01*
X113323964Y-100577804D01*
X113323964Y-99841204D01*
X143026894Y-99841204D01*
X143119565Y-100065486D01*
X143291011Y-100237232D01*
X143515131Y-100330294D01*
X143757804Y-100330506D01*
X143982086Y-100237835D01*
X144153832Y-100066389D01*
X144246894Y-99842269D01*
X144246901Y-99834469D01*
X144308131Y-99859894D01*
X144550804Y-99860106D01*
X144563898Y-99854696D01*
X144642565Y-100045086D01*
X144780869Y-100183632D01*
X144700106Y-100378131D01*
X144699894Y-100620804D01*
X144792565Y-100845086D01*
X144964011Y-101016832D01*
X145188131Y-101109894D01*
X145304814Y-101109996D01*
X151022408Y-106827591D01*
X151075653Y-106863168D01*
X151163533Y-106921888D01*
X151330000Y-106955000D01*
X177539818Y-106955000D01*
X198860252Y-128275435D01*
X198780193Y-128468239D01*
X198779808Y-128909824D01*
X198948439Y-129317943D01*
X199260415Y-129630463D01*
X199668239Y-129799807D01*
X200109824Y-129800192D01*
X200517943Y-129631561D01*
X200830463Y-129319585D01*
X200999807Y-128911761D01*
X201000192Y-128470176D01*
X200831561Y-128062057D01*
X200519585Y-127749537D01*
X200111761Y-127580193D01*
X199670176Y-127579808D01*
X199475450Y-127660267D01*
X189043537Y-117228354D01*
X190079677Y-117228354D01*
X190362249Y-117912229D01*
X190885019Y-118435912D01*
X191568400Y-118719677D01*
X192308354Y-118720323D01*
X192992229Y-118437751D01*
X193054119Y-118375969D01*
X193005346Y-118493427D01*
X193004657Y-119283109D01*
X193306218Y-120012943D01*
X193864120Y-120571819D01*
X194593427Y-120874654D01*
X195383109Y-120875343D01*
X195711090Y-120739824D01*
X198779808Y-120739824D01*
X198948439Y-121147943D01*
X199260415Y-121460463D01*
X199668239Y-121629807D01*
X200109824Y-121630192D01*
X200517943Y-121461561D01*
X200830463Y-121149585D01*
X200999807Y-120741761D01*
X201000192Y-120300176D01*
X200831561Y-119892057D01*
X200519585Y-119579537D01*
X200111761Y-119410193D01*
X199670176Y-119409808D01*
X199262057Y-119578439D01*
X198949537Y-119890415D01*
X198780193Y-120298239D01*
X198779808Y-120739824D01*
X195711090Y-120739824D01*
X196112943Y-120573782D01*
X196671819Y-120015880D01*
X196974654Y-119286573D01*
X196975343Y-118496891D01*
X196852598Y-118199824D01*
X198779808Y-118199824D01*
X198948439Y-118607943D01*
X199260415Y-118920463D01*
X199668239Y-119089807D01*
X200109824Y-119090192D01*
X200517943Y-118921561D01*
X200830463Y-118609585D01*
X200999807Y-118201761D01*
X201000192Y-117760176D01*
X200831561Y-117352057D01*
X200519585Y-117039537D01*
X200111761Y-116870193D01*
X199670176Y-116869808D01*
X199262057Y-117038439D01*
X198949537Y-117350415D01*
X198780193Y-117758239D01*
X198779808Y-118199824D01*
X196852598Y-118199824D01*
X196673782Y-117767057D01*
X196115880Y-117208181D01*
X195386573Y-116905346D01*
X194596891Y-116904657D01*
X193867057Y-117206218D01*
X193769975Y-117303131D01*
X193799677Y-117231600D01*
X193800323Y-116491646D01*
X193517751Y-115807771D01*
X192994981Y-115284088D01*
X192311600Y-115000323D01*
X191571646Y-114999677D01*
X190887771Y-115282249D01*
X190364088Y-115805019D01*
X190080323Y-116488400D01*
X190079677Y-117228354D01*
X189043537Y-117228354D01*
X178555987Y-106740804D01*
X189259894Y-106740804D01*
X189352565Y-106965086D01*
X189397311Y-107009910D01*
X189373168Y-107034011D01*
X189280106Y-107258131D01*
X189279894Y-107500804D01*
X189372565Y-107725086D01*
X189544011Y-107896832D01*
X189768131Y-107989894D01*
X190010804Y-107990106D01*
X190235086Y-107897435D01*
X190406832Y-107725989D01*
X190499894Y-107501869D01*
X190500106Y-107259196D01*
X190407435Y-107034914D01*
X190362689Y-106990090D01*
X190386832Y-106965989D01*
X190479894Y-106741869D01*
X190480106Y-106499196D01*
X190387435Y-106274914D01*
X190219505Y-106106690D01*
X193375489Y-106106690D01*
X193718828Y-106937635D01*
X194354021Y-107573938D01*
X195184366Y-107918727D01*
X196083450Y-107919511D01*
X196914395Y-107576172D01*
X197550698Y-106940979D01*
X197895487Y-106110634D01*
X197896271Y-105211550D01*
X197552932Y-104380605D01*
X196917739Y-103744302D01*
X196087394Y-103399513D01*
X195188310Y-103398729D01*
X194357365Y-103742068D01*
X193721062Y-104377261D01*
X193376273Y-105207606D01*
X193375489Y-106106690D01*
X190219505Y-106106690D01*
X190215989Y-106103168D01*
X189991869Y-106010106D01*
X189749196Y-106009894D01*
X189524914Y-106102565D01*
X189353168Y-106274011D01*
X189260106Y-106498131D01*
X189259894Y-106740804D01*
X178555987Y-106740804D01*
X178027591Y-106212409D01*
X177886468Y-106118112D01*
X177848872Y-106110634D01*
X177720000Y-106085000D01*
X151510183Y-106085000D01*
X149812987Y-104387804D01*
X151535894Y-104387804D01*
X151628565Y-104612086D01*
X151800011Y-104783832D01*
X152024131Y-104876894D01*
X152266804Y-104877106D01*
X152491086Y-104784435D01*
X152662832Y-104612989D01*
X152755894Y-104388869D01*
X152755894Y-104387804D01*
X155091894Y-104387804D01*
X155184565Y-104612086D01*
X155356011Y-104783832D01*
X155580131Y-104876894D01*
X155822804Y-104877106D01*
X156047086Y-104784435D01*
X156218832Y-104612989D01*
X156311894Y-104388869D01*
X156312106Y-104146196D01*
X156219435Y-103921914D01*
X156047989Y-103750168D01*
X155823869Y-103657106D01*
X155581196Y-103656894D01*
X155356914Y-103749565D01*
X155185168Y-103921011D01*
X155092106Y-104145131D01*
X155091894Y-104387804D01*
X152755894Y-104387804D01*
X152756106Y-104146196D01*
X152663435Y-103921914D01*
X152491989Y-103750168D01*
X152267869Y-103657106D01*
X152025196Y-103656894D01*
X151800914Y-103749565D01*
X151629168Y-103921011D01*
X151536106Y-104145131D01*
X151535894Y-104387804D01*
X149812987Y-104387804D01*
X147845987Y-102420804D01*
X150009894Y-102420804D01*
X150102565Y-102645086D01*
X150274011Y-102816832D01*
X150498131Y-102909894D01*
X150740804Y-102910106D01*
X150965086Y-102817435D01*
X151136832Y-102645989D01*
X151151857Y-102609804D01*
X151789894Y-102609804D01*
X151882565Y-102834086D01*
X152054011Y-103005832D01*
X152278131Y-103098894D01*
X152520804Y-103099106D01*
X152745086Y-103006435D01*
X152916832Y-102834989D01*
X153009894Y-102610869D01*
X153009894Y-102609804D01*
X156869894Y-102609804D01*
X156962565Y-102834086D01*
X157134011Y-103005832D01*
X157358131Y-103098894D01*
X157600804Y-103099106D01*
X157825086Y-103006435D01*
X157996832Y-102834989D01*
X158089894Y-102610869D01*
X158090106Y-102368196D01*
X157997435Y-102143914D01*
X157825989Y-101972168D01*
X157601869Y-101879106D01*
X157359196Y-101878894D01*
X157134914Y-101971565D01*
X156963168Y-102143011D01*
X156870106Y-102367131D01*
X156869894Y-102609804D01*
X153009894Y-102609804D01*
X153010106Y-102368196D01*
X152917435Y-102143914D01*
X152745989Y-101972168D01*
X152521869Y-101879106D01*
X152279196Y-101878894D01*
X152054914Y-101971565D01*
X151883168Y-102143011D01*
X151790106Y-102367131D01*
X151789894Y-102609804D01*
X151151857Y-102609804D01*
X151229894Y-102421869D01*
X151230106Y-102179196D01*
X151137435Y-101954914D01*
X150965989Y-101783168D01*
X150741869Y-101690106D01*
X150499196Y-101689894D01*
X150274914Y-101782565D01*
X150103168Y-101954011D01*
X150010106Y-102178131D01*
X150009894Y-102420804D01*
X147845987Y-102420804D01*
X146144987Y-100719804D01*
X147202894Y-100719804D01*
X147295565Y-100944086D01*
X147467011Y-101115832D01*
X147691131Y-101208894D01*
X147933804Y-101209106D01*
X148158086Y-101116435D01*
X148329832Y-100944989D01*
X148422894Y-100720869D01*
X148422894Y-100719804D01*
X148502894Y-100719804D01*
X148595565Y-100944086D01*
X148767011Y-101115832D01*
X148991131Y-101208894D01*
X149233804Y-101209106D01*
X149458086Y-101116435D01*
X149629832Y-100944989D01*
X149722894Y-100720869D01*
X149723106Y-100478196D01*
X149630435Y-100253914D01*
X149458989Y-100082168D01*
X149306872Y-100019004D01*
X156107894Y-100019004D01*
X156200565Y-100243286D01*
X156372011Y-100415032D01*
X156596131Y-100508094D01*
X156838804Y-100508306D01*
X157063086Y-100415635D01*
X157234832Y-100244189D01*
X157327894Y-100020069D01*
X157328106Y-99777396D01*
X157235435Y-99553114D01*
X157063989Y-99381368D01*
X156839869Y-99288306D01*
X156597196Y-99288094D01*
X156372914Y-99380765D01*
X156201168Y-99552211D01*
X156108106Y-99776331D01*
X156107894Y-100019004D01*
X149306872Y-100019004D01*
X149234869Y-99989106D01*
X148992196Y-99988894D01*
X148767914Y-100081565D01*
X148596168Y-100253011D01*
X148503106Y-100477131D01*
X148502894Y-100719804D01*
X148422894Y-100719804D01*
X148423106Y-100478196D01*
X148330435Y-100253914D01*
X148158989Y-100082168D01*
X147934869Y-99989106D01*
X147692196Y-99988894D01*
X147467914Y-100081565D01*
X147296168Y-100253011D01*
X147203106Y-100477131D01*
X147202894Y-100719804D01*
X146144987Y-100719804D01*
X145920005Y-100494823D01*
X145920106Y-100379196D01*
X145827435Y-100154914D01*
X145689131Y-100016368D01*
X145769894Y-99821869D01*
X145770106Y-99579196D01*
X145704247Y-99419804D01*
X147202894Y-99419804D01*
X147295565Y-99644086D01*
X147467011Y-99815832D01*
X147691131Y-99908894D01*
X147933804Y-99909106D01*
X148158086Y-99816435D01*
X148329832Y-99644989D01*
X148422894Y-99420869D01*
X148422894Y-99419804D01*
X148502894Y-99419804D01*
X148595565Y-99644086D01*
X148767011Y-99815832D01*
X148991131Y-99908894D01*
X149233804Y-99909106D01*
X149458086Y-99816435D01*
X149629832Y-99644989D01*
X149722894Y-99420869D01*
X149723106Y-99178196D01*
X149678733Y-99070804D01*
X150809894Y-99070804D01*
X150902565Y-99295086D01*
X151074011Y-99466832D01*
X151298131Y-99559894D01*
X151540804Y-99560106D01*
X151765086Y-99467435D01*
X151936832Y-99295989D01*
X151965456Y-99227054D01*
X152016511Y-99248254D01*
X152259184Y-99248466D01*
X152483466Y-99155795D01*
X152655212Y-98984349D01*
X152748274Y-98760229D01*
X152748486Y-98517556D01*
X152671323Y-98330804D01*
X154419894Y-98330804D01*
X154512565Y-98555086D01*
X154684011Y-98726832D01*
X154908131Y-98819894D01*
X155150804Y-98820106D01*
X155375086Y-98727435D01*
X155546832Y-98555989D01*
X155639894Y-98331869D01*
X155640106Y-98089196D01*
X155547435Y-97864914D01*
X155375989Y-97693168D01*
X155151869Y-97600106D01*
X154909196Y-97599894D01*
X154684914Y-97692565D01*
X154513168Y-97864011D01*
X154420106Y-98088131D01*
X154419894Y-98330804D01*
X152671323Y-98330804D01*
X152655815Y-98293274D01*
X152484369Y-98121528D01*
X152260249Y-98028466D01*
X152017576Y-98028254D01*
X151793294Y-98120925D01*
X151621548Y-98292371D01*
X151592924Y-98361306D01*
X151541869Y-98340106D01*
X151299196Y-98339894D01*
X151074914Y-98432565D01*
X150903168Y-98604011D01*
X150810106Y-98828131D01*
X150809894Y-99070804D01*
X149678733Y-99070804D01*
X149630435Y-98953914D01*
X149458989Y-98782168D01*
X149234869Y-98689106D01*
X148992196Y-98688894D01*
X148767914Y-98781565D01*
X148596168Y-98953011D01*
X148503106Y-99177131D01*
X148502894Y-99419804D01*
X148422894Y-99419804D01*
X148423106Y-99178196D01*
X148330435Y-98953914D01*
X148158989Y-98782168D01*
X147934869Y-98689106D01*
X147692196Y-98688894D01*
X147467914Y-98781565D01*
X147296168Y-98953011D01*
X147203106Y-99177131D01*
X147202894Y-99419804D01*
X145704247Y-99419804D01*
X145677435Y-99354914D01*
X145505989Y-99183168D01*
X145281869Y-99090106D01*
X145039196Y-99089894D01*
X145026102Y-99095304D01*
X144958423Y-98931507D01*
X145065086Y-98887435D01*
X145187247Y-98765487D01*
X145199312Y-98777573D01*
X145423432Y-98870635D01*
X145666105Y-98870847D01*
X145890387Y-98778176D01*
X145972966Y-98695741D01*
X147357259Y-98695741D01*
X147496108Y-98668122D01*
X147523727Y-98662629D01*
X147664850Y-98568332D01*
X149586182Y-96647000D01*
X188722000Y-96647000D01*
X188722000Y-99593400D01*
X188770336Y-99836404D01*
X188907987Y-100042413D01*
X189665957Y-100800383D01*
X189665662Y-101138650D01*
X189857081Y-101601920D01*
X190211215Y-101956673D01*
X190674151Y-102148901D01*
X191175410Y-102149338D01*
X191638680Y-101957919D01*
X191926070Y-101671030D01*
X192211215Y-101956673D01*
X192674151Y-102148901D01*
X193175410Y-102149338D01*
X193638680Y-101957919D01*
X193993433Y-101603785D01*
X194185661Y-101140849D01*
X194185898Y-100869236D01*
X194781660Y-100395027D01*
X194805073Y-100367352D01*
X194835213Y-100347213D01*
X194884447Y-100273529D01*
X194941685Y-100205872D01*
X194952725Y-100171344D01*
X194972864Y-100141204D01*
X194990153Y-100054288D01*
X195017142Y-99969877D01*
X195014128Y-99933752D01*
X195021200Y-99898200D01*
X195021200Y-96088200D01*
X195014706Y-96055554D01*
X195017783Y-96022410D01*
X194990721Y-95934968D01*
X194972864Y-95845196D01*
X194954372Y-95817520D01*
X194944530Y-95785721D01*
X194936191Y-95775676D01*
X195184366Y-95878727D01*
X196083450Y-95879511D01*
X196914395Y-95536172D01*
X197550698Y-94900979D01*
X197895487Y-94070634D01*
X197896271Y-93171550D01*
X197552932Y-92340605D01*
X196917739Y-91704302D01*
X196087394Y-91359513D01*
X195710482Y-91359184D01*
X196824033Y-90245633D01*
X196941227Y-90070241D01*
X197346302Y-89799578D01*
X197644061Y-89353950D01*
X197645020Y-89349129D01*
X197645979Y-89353950D01*
X197943738Y-89799578D01*
X198389366Y-90097337D01*
X198915020Y-90201896D01*
X199440674Y-90097337D01*
X199886302Y-89799578D01*
X200184061Y-89353950D01*
X200288620Y-88828296D01*
X200288620Y-88463704D01*
X200184061Y-87938050D01*
X199886302Y-87492422D01*
X199440674Y-87194663D01*
X198915020Y-87090104D01*
X198389366Y-87194663D01*
X197943738Y-87492422D01*
X197645979Y-87938050D01*
X197645020Y-87942871D01*
X197644061Y-87938050D01*
X197346302Y-87492422D01*
X196900674Y-87194663D01*
X196375020Y-87090104D01*
X195849366Y-87194663D01*
X195403738Y-87492422D01*
X195105979Y-87938050D01*
X195105020Y-87942871D01*
X195104061Y-87938050D01*
X194806302Y-87492422D01*
X194360674Y-87194663D01*
X193835020Y-87090104D01*
X193309366Y-87194663D01*
X192863738Y-87492422D01*
X192678611Y-87769484D01*
X192678611Y-87630000D01*
X192643049Y-87441005D01*
X192531354Y-87267425D01*
X192360926Y-87150977D01*
X192158620Y-87110009D01*
X190431420Y-87110009D01*
X190242425Y-87145571D01*
X190068845Y-87257266D01*
X189952397Y-87427694D01*
X189911429Y-87630000D01*
X189911429Y-89662000D01*
X189946991Y-89850995D01*
X190058686Y-90024575D01*
X190229114Y-90141023D01*
X190431420Y-90181991D01*
X192158620Y-90181991D01*
X192248494Y-90165080D01*
X191447987Y-90965587D01*
X191310336Y-91171596D01*
X191262000Y-91414600D01*
X191262000Y-93843975D01*
X188907987Y-96197987D01*
X188770336Y-96403996D01*
X188722000Y-96647000D01*
X149586182Y-96647000D01*
X152004944Y-94228239D01*
X152032565Y-94295086D01*
X152204011Y-94466832D01*
X152428131Y-94559894D01*
X152670804Y-94560106D01*
X152767475Y-94520162D01*
X152802565Y-94605086D01*
X152974011Y-94776832D01*
X153198131Y-94869894D01*
X153440804Y-94870106D01*
X153665086Y-94777435D01*
X153747665Y-94695000D01*
X166300000Y-94695000D01*
X166438849Y-94667381D01*
X166466468Y-94661888D01*
X166607591Y-94567591D01*
X170002737Y-91172446D01*
X170417764Y-91255000D01*
X170462236Y-91255000D01*
X170683912Y-91210906D01*
X166299816Y-95595002D01*
X152817678Y-95595002D01*
X152735989Y-95513170D01*
X152511869Y-95420108D01*
X152269196Y-95419896D01*
X152044914Y-95512567D01*
X151873168Y-95684013D01*
X151780106Y-95908133D01*
X151779894Y-96150806D01*
X151872565Y-96375088D01*
X152044011Y-96546834D01*
X152268131Y-96639896D01*
X152510804Y-96640108D01*
X152735086Y-96547437D01*
X152817665Y-96465002D01*
X166479998Y-96465002D01*
X166618847Y-96437383D01*
X166646466Y-96431890D01*
X166787589Y-96337593D01*
X171957591Y-91167591D01*
X172051888Y-91026468D01*
X172057381Y-90998849D01*
X172085000Y-90860000D01*
X172085000Y-90817507D01*
X172155198Y-90922566D01*
X172523418Y-91168603D01*
X172957764Y-91255000D01*
X173002236Y-91255000D01*
X173436582Y-91168603D01*
X173804802Y-90922566D01*
X174050839Y-90554346D01*
X174137236Y-90120000D01*
X174362764Y-90120000D01*
X174449161Y-90554346D01*
X174695198Y-90922566D01*
X175063418Y-91168603D01*
X175497764Y-91255000D01*
X175542236Y-91255000D01*
X175976582Y-91168603D01*
X176344802Y-90922566D01*
X176590839Y-90554346D01*
X176677236Y-90120000D01*
X176590839Y-89685654D01*
X176344802Y-89317434D01*
X175976582Y-89071397D01*
X175958821Y-89067864D01*
X178579635Y-89067864D01*
X178900186Y-89843657D01*
X179493221Y-90437728D01*
X180268454Y-90759633D01*
X181107864Y-90760365D01*
X181883657Y-90439814D01*
X182477728Y-89846779D01*
X182799633Y-89071546D01*
X182800365Y-88232136D01*
X182479814Y-87456343D01*
X181886779Y-86862272D01*
X181111546Y-86540367D01*
X180272136Y-86539635D01*
X179496343Y-86860186D01*
X178902272Y-87453221D01*
X178580367Y-88228454D01*
X178579635Y-89067864D01*
X175958821Y-89067864D01*
X175542236Y-88985000D01*
X175497764Y-88985000D01*
X175063418Y-89071397D01*
X174695198Y-89317434D01*
X174449161Y-89685654D01*
X174362764Y-90120000D01*
X174137236Y-90120000D01*
X174050839Y-89685654D01*
X173804802Y-89317434D01*
X173436582Y-89071397D01*
X173002236Y-88985000D01*
X172957764Y-88985000D01*
X172523418Y-89071397D01*
X172155198Y-89317434D01*
X172085000Y-89422493D01*
X172085000Y-88790000D01*
X172051888Y-88623533D01*
X172005107Y-88553521D01*
X171957591Y-88482408D01*
X171502303Y-88027121D01*
X171510839Y-88014346D01*
X171597236Y-87580000D01*
X171822764Y-87580000D01*
X171909161Y-88014346D01*
X172155198Y-88382566D01*
X172523418Y-88628603D01*
X172957764Y-88715000D01*
X173002236Y-88715000D01*
X173436582Y-88628603D01*
X173804802Y-88382566D01*
X174050839Y-88014346D01*
X174137236Y-87580000D01*
X174362764Y-87580000D01*
X174449161Y-88014346D01*
X174695198Y-88382566D01*
X175063418Y-88628603D01*
X175497764Y-88715000D01*
X175542236Y-88715000D01*
X175976582Y-88628603D01*
X176344802Y-88382566D01*
X176590839Y-88014346D01*
X176677236Y-87580000D01*
X176590839Y-87145654D01*
X176344802Y-86777434D01*
X175976582Y-86531397D01*
X175542236Y-86445000D01*
X175497764Y-86445000D01*
X175063418Y-86531397D01*
X174695198Y-86777434D01*
X174449161Y-87145654D01*
X174362764Y-87580000D01*
X174137236Y-87580000D01*
X174050839Y-87145654D01*
X173804802Y-86777434D01*
X173436582Y-86531397D01*
X173002236Y-86445000D01*
X172957764Y-86445000D01*
X172523418Y-86531397D01*
X172155198Y-86777434D01*
X171909161Y-87145654D01*
X171822764Y-87580000D01*
X171597236Y-87580000D01*
X171510839Y-87145654D01*
X171264802Y-86777434D01*
X170896582Y-86531397D01*
X170462236Y-86445000D01*
X170417764Y-86445000D01*
X169983418Y-86531397D01*
X169615198Y-86777434D01*
X169369161Y-87145654D01*
X169282764Y-87580000D01*
X169369161Y-88014346D01*
X169615198Y-88382566D01*
X169983418Y-88628603D01*
X170417764Y-88715000D01*
X170462236Y-88715000D01*
X170877263Y-88632446D01*
X171215000Y-88970183D01*
X171215000Y-89284157D01*
X170896582Y-89071397D01*
X170462236Y-88985000D01*
X170417764Y-88985000D01*
X169983418Y-89071397D01*
X169615198Y-89317434D01*
X169369161Y-89685654D01*
X169282764Y-90120000D01*
X169369161Y-90554346D01*
X169377697Y-90567121D01*
X166119818Y-93825000D01*
X153747678Y-93825000D01*
X153665989Y-93743168D01*
X153441869Y-93650106D01*
X153199196Y-93649894D01*
X153102525Y-93689838D01*
X153067435Y-93604914D01*
X152895989Y-93433168D01*
X152780125Y-93385057D01*
X154367602Y-91797581D01*
X154461899Y-91656457D01*
X154482328Y-91553750D01*
X154495011Y-91489989D01*
X154495011Y-91002623D01*
X154743418Y-91168603D01*
X155177764Y-91255000D01*
X155222236Y-91255000D01*
X155656582Y-91168603D01*
X156024802Y-90922566D01*
X156270839Y-90554346D01*
X156357236Y-90120000D01*
X156582764Y-90120000D01*
X156669161Y-90554346D01*
X156915198Y-90922566D01*
X157283418Y-91168603D01*
X157717764Y-91255000D01*
X157762236Y-91255000D01*
X158196582Y-91168603D01*
X158564802Y-90922566D01*
X158810839Y-90554346D01*
X158897236Y-90120000D01*
X159122764Y-90120000D01*
X159209161Y-90554346D01*
X159455198Y-90922566D01*
X159823418Y-91168603D01*
X160257764Y-91255000D01*
X160302236Y-91255000D01*
X160736582Y-91168603D01*
X161104802Y-90922566D01*
X161350839Y-90554346D01*
X161437236Y-90120000D01*
X161662764Y-90120000D01*
X161749161Y-90554346D01*
X161995198Y-90922566D01*
X162363418Y-91168603D01*
X162797764Y-91255000D01*
X162842236Y-91255000D01*
X163276582Y-91168603D01*
X163644802Y-90922566D01*
X163890839Y-90554346D01*
X163977236Y-90120000D01*
X164202764Y-90120000D01*
X164289161Y-90554346D01*
X164535198Y-90922566D01*
X164903418Y-91168603D01*
X165337764Y-91255000D01*
X165382236Y-91255000D01*
X165816582Y-91168603D01*
X166184802Y-90922566D01*
X166430839Y-90554346D01*
X166517236Y-90120000D01*
X166742764Y-90120000D01*
X166829161Y-90554346D01*
X167075198Y-90922566D01*
X167443418Y-91168603D01*
X167877764Y-91255000D01*
X167922236Y-91255000D01*
X168356582Y-91168603D01*
X168724802Y-90922566D01*
X168970839Y-90554346D01*
X169057236Y-90120000D01*
X168970839Y-89685654D01*
X168724802Y-89317434D01*
X168356582Y-89071397D01*
X167922236Y-88985000D01*
X167877764Y-88985000D01*
X167443418Y-89071397D01*
X167075198Y-89317434D01*
X166829161Y-89685654D01*
X166742764Y-90120000D01*
X166517236Y-90120000D01*
X166430839Y-89685654D01*
X166184802Y-89317434D01*
X165816582Y-89071397D01*
X165382236Y-88985000D01*
X165337764Y-88985000D01*
X164903418Y-89071397D01*
X164535198Y-89317434D01*
X164289161Y-89685654D01*
X164202764Y-90120000D01*
X163977236Y-90120000D01*
X163890839Y-89685654D01*
X163644802Y-89317434D01*
X163276582Y-89071397D01*
X162842236Y-88985000D01*
X162797764Y-88985000D01*
X162363418Y-89071397D01*
X161995198Y-89317434D01*
X161749161Y-89685654D01*
X161662764Y-90120000D01*
X161437236Y-90120000D01*
X161350839Y-89685654D01*
X161104802Y-89317434D01*
X160736582Y-89071397D01*
X160302236Y-88985000D01*
X160257764Y-88985000D01*
X159823418Y-89071397D01*
X159455198Y-89317434D01*
X159209161Y-89685654D01*
X159122764Y-90120000D01*
X158897236Y-90120000D01*
X158810839Y-89685654D01*
X158564802Y-89317434D01*
X158196582Y-89071397D01*
X157762236Y-88985000D01*
X157717764Y-88985000D01*
X157283418Y-89071397D01*
X156915198Y-89317434D01*
X156669161Y-89685654D01*
X156582764Y-90120000D01*
X156357236Y-90120000D01*
X156270839Y-89685654D01*
X156024802Y-89317434D01*
X155656582Y-89071397D01*
X155222236Y-88985000D01*
X155177764Y-88985000D01*
X154743418Y-89071397D01*
X154495011Y-89237377D01*
X154495011Y-88900171D01*
X154762737Y-88632446D01*
X155177764Y-88715000D01*
X155222236Y-88715000D01*
X155656582Y-88628603D01*
X156024802Y-88382566D01*
X156270839Y-88014346D01*
X156357236Y-87580000D01*
X156582764Y-87580000D01*
X156669161Y-88014346D01*
X156915198Y-88382566D01*
X157283418Y-88628603D01*
X157717764Y-88715000D01*
X157762236Y-88715000D01*
X158196582Y-88628603D01*
X158564802Y-88382566D01*
X158810839Y-88014346D01*
X158897236Y-87580000D01*
X159122764Y-87580000D01*
X159209161Y-88014346D01*
X159455198Y-88382566D01*
X159823418Y-88628603D01*
X160257764Y-88715000D01*
X160302236Y-88715000D01*
X160736582Y-88628603D01*
X161104802Y-88382566D01*
X161350839Y-88014346D01*
X161437236Y-87580000D01*
X161662764Y-87580000D01*
X161749161Y-88014346D01*
X161995198Y-88382566D01*
X162363418Y-88628603D01*
X162797764Y-88715000D01*
X162842236Y-88715000D01*
X163276582Y-88628603D01*
X163644802Y-88382566D01*
X163890839Y-88014346D01*
X163977236Y-87580000D01*
X164202764Y-87580000D01*
X164289161Y-88014346D01*
X164535198Y-88382566D01*
X164903418Y-88628603D01*
X165337764Y-88715000D01*
X165382236Y-88715000D01*
X165816582Y-88628603D01*
X166184802Y-88382566D01*
X166430839Y-88014346D01*
X166517236Y-87580000D01*
X166742764Y-87580000D01*
X166829161Y-88014346D01*
X167075198Y-88382566D01*
X167443418Y-88628603D01*
X167877764Y-88715000D01*
X167922236Y-88715000D01*
X168356582Y-88628603D01*
X168724802Y-88382566D01*
X168970839Y-88014346D01*
X169057236Y-87580000D01*
X168970839Y-87145654D01*
X168724802Y-86777434D01*
X168356582Y-86531397D01*
X167922236Y-86445000D01*
X167877764Y-86445000D01*
X167443418Y-86531397D01*
X167075198Y-86777434D01*
X166829161Y-87145654D01*
X166742764Y-87580000D01*
X166517236Y-87580000D01*
X166430839Y-87145654D01*
X166184802Y-86777434D01*
X165816582Y-86531397D01*
X165382236Y-86445000D01*
X165337764Y-86445000D01*
X164903418Y-86531397D01*
X164535198Y-86777434D01*
X164289161Y-87145654D01*
X164202764Y-87580000D01*
X163977236Y-87580000D01*
X163890839Y-87145654D01*
X163644802Y-86777434D01*
X163276582Y-86531397D01*
X162842236Y-86445000D01*
X162797764Y-86445000D01*
X162363418Y-86531397D01*
X161995198Y-86777434D01*
X161749161Y-87145654D01*
X161662764Y-87580000D01*
X161437236Y-87580000D01*
X161350839Y-87145654D01*
X161104802Y-86777434D01*
X160736582Y-86531397D01*
X160302236Y-86445000D01*
X160257764Y-86445000D01*
X159823418Y-86531397D01*
X159455198Y-86777434D01*
X159209161Y-87145654D01*
X159122764Y-87580000D01*
X158897236Y-87580000D01*
X158810839Y-87145654D01*
X158564802Y-86777434D01*
X158196582Y-86531397D01*
X157762236Y-86445000D01*
X157717764Y-86445000D01*
X157283418Y-86531397D01*
X156915198Y-86777434D01*
X156669161Y-87145654D01*
X156582764Y-87580000D01*
X156357236Y-87580000D01*
X156270839Y-87145654D01*
X156024802Y-86777434D01*
X155656582Y-86531397D01*
X155222236Y-86445000D01*
X155177764Y-86445000D01*
X154743418Y-86531397D01*
X154375198Y-86777434D01*
X154129161Y-87145654D01*
X154042764Y-87580000D01*
X154129161Y-88014346D01*
X154137697Y-88027121D01*
X153930000Y-88234817D01*
X153722303Y-88027121D01*
X153730839Y-88014346D01*
X153817236Y-87580000D01*
X153730839Y-87145654D01*
X153484802Y-86777434D01*
X153116582Y-86531397D01*
X152682236Y-86445000D01*
X152637764Y-86445000D01*
X152203418Y-86531397D01*
X151835198Y-86777434D01*
X151589161Y-87145654D01*
X151502764Y-87580000D01*
X151589161Y-88014346D01*
X151835198Y-88382566D01*
X152203418Y-88628603D01*
X152637764Y-88715000D01*
X152682236Y-88715000D01*
X153097263Y-88632446D01*
X153275001Y-88810184D01*
X153275001Y-89177249D01*
X153116582Y-89071397D01*
X152682236Y-88985000D01*
X152637764Y-88985000D01*
X152203418Y-89071397D01*
X151835198Y-89317434D01*
X151715000Y-89497323D01*
X151715000Y-88740000D01*
X151700082Y-88665000D01*
X151681888Y-88573532D01*
X151587592Y-88432409D01*
X151182303Y-88027121D01*
X151190839Y-88014346D01*
X151277236Y-87580000D01*
X151190839Y-87145654D01*
X150944802Y-86777434D01*
X150576582Y-86531397D01*
X150142236Y-86445000D01*
X150097764Y-86445000D01*
X149663418Y-86531397D01*
X149295198Y-86777434D01*
X149049161Y-87145654D01*
X148962764Y-87580000D01*
X149049161Y-88014346D01*
X149295198Y-88382566D01*
X149663418Y-88628603D01*
X150097764Y-88715000D01*
X150142236Y-88715000D01*
X150557263Y-88632446D01*
X150845000Y-88920183D01*
X150845000Y-89250748D01*
X150576582Y-89071397D01*
X150142236Y-88985000D01*
X150097764Y-88985000D01*
X149663418Y-89071397D01*
X149295198Y-89317434D01*
X149049161Y-89685654D01*
X148962764Y-90120000D01*
X149049161Y-90554346D01*
X149295198Y-90922566D01*
X149663418Y-91168603D01*
X150097764Y-91255000D01*
X150142236Y-91255000D01*
X150301497Y-91223321D01*
X149821649Y-91703169D01*
X149727352Y-91844292D01*
X149727352Y-91844293D01*
X149694240Y-92010760D01*
X149694240Y-92717777D01*
X149240920Y-93171097D01*
X149151591Y-93037409D01*
X149010468Y-92943112D01*
X148844000Y-92910001D01*
X148677532Y-92943112D01*
X148536409Y-93037409D01*
X145514218Y-96059600D01*
X144856200Y-96059600D01*
X144717351Y-96087219D01*
X144689732Y-96092712D01*
X144548608Y-96187009D01*
X143329409Y-97406209D01*
X143235112Y-97547332D01*
X143235112Y-97547333D01*
X143202000Y-97713800D01*
X143202000Y-99292722D01*
X143120168Y-99374411D01*
X143027106Y-99598531D01*
X143026894Y-99841204D01*
X113323964Y-99841204D01*
X113323964Y-89067864D01*
X120579635Y-89067864D01*
X120900186Y-89843657D01*
X121493221Y-90437728D01*
X122268454Y-90759633D01*
X123107864Y-90760365D01*
X123883657Y-90439814D01*
X124204029Y-90120000D01*
X125949825Y-90120000D01*
X126047640Y-90611748D01*
X126326193Y-91028632D01*
X126743077Y-91307185D01*
X127234825Y-91405000D01*
X127285175Y-91405000D01*
X127776923Y-91307185D01*
X128193807Y-91028632D01*
X128472360Y-90611748D01*
X128530000Y-90321973D01*
X128587640Y-90611748D01*
X128866193Y-91028632D01*
X129283077Y-91307185D01*
X129774825Y-91405000D01*
X129825175Y-91405000D01*
X130316923Y-91307185D01*
X130733807Y-91028632D01*
X131012360Y-90611748D01*
X131110175Y-90120000D01*
X131182764Y-90120000D01*
X131269161Y-90554346D01*
X131515198Y-90922566D01*
X131883418Y-91168603D01*
X132317764Y-91255000D01*
X132362236Y-91255000D01*
X132796582Y-91168603D01*
X133164802Y-90922566D01*
X133410839Y-90554346D01*
X133497236Y-90120000D01*
X133722764Y-90120000D01*
X133809161Y-90554346D01*
X134055198Y-90922566D01*
X134423418Y-91168603D01*
X134857764Y-91255000D01*
X134902236Y-91255000D01*
X135336582Y-91168603D01*
X135704802Y-90922566D01*
X135950839Y-90554346D01*
X136037236Y-90120000D01*
X136262764Y-90120000D01*
X136349161Y-90554346D01*
X136595198Y-90922566D01*
X136963418Y-91168603D01*
X137397764Y-91255000D01*
X137442236Y-91255000D01*
X137876582Y-91168603D01*
X138244802Y-90922566D01*
X138490839Y-90554346D01*
X138577236Y-90120000D01*
X138802764Y-90120000D01*
X138889161Y-90554346D01*
X139135198Y-90922566D01*
X139503418Y-91168603D01*
X139937764Y-91255000D01*
X139982236Y-91255000D01*
X140416582Y-91168603D01*
X140784802Y-90922566D01*
X141030839Y-90554346D01*
X141117236Y-90120000D01*
X141342764Y-90120000D01*
X141429161Y-90554346D01*
X141675198Y-90922566D01*
X142043418Y-91168603D01*
X142477764Y-91255000D01*
X142522236Y-91255000D01*
X142956582Y-91168603D01*
X143324802Y-90922566D01*
X143570839Y-90554346D01*
X143657236Y-90120000D01*
X143882764Y-90120000D01*
X143969161Y-90554346D01*
X144215198Y-90922566D01*
X144583418Y-91168603D01*
X145017764Y-91255000D01*
X145062236Y-91255000D01*
X145496582Y-91168603D01*
X145864802Y-90922566D01*
X146110839Y-90554346D01*
X146197236Y-90120000D01*
X146422764Y-90120000D01*
X146509161Y-90554346D01*
X146755198Y-90922566D01*
X147123418Y-91168603D01*
X147557764Y-91255000D01*
X147602236Y-91255000D01*
X148036582Y-91168603D01*
X148404802Y-90922566D01*
X148650839Y-90554346D01*
X148737236Y-90120000D01*
X148650839Y-89685654D01*
X148404802Y-89317434D01*
X148036582Y-89071397D01*
X147602236Y-88985000D01*
X147557764Y-88985000D01*
X147123418Y-89071397D01*
X146755198Y-89317434D01*
X146509161Y-89685654D01*
X146422764Y-90120000D01*
X146197236Y-90120000D01*
X146110839Y-89685654D01*
X145864802Y-89317434D01*
X145496582Y-89071397D01*
X145062236Y-88985000D01*
X145017764Y-88985000D01*
X144583418Y-89071397D01*
X144215198Y-89317434D01*
X143969161Y-89685654D01*
X143882764Y-90120000D01*
X143657236Y-90120000D01*
X143570839Y-89685654D01*
X143324802Y-89317434D01*
X142956582Y-89071397D01*
X142522236Y-88985000D01*
X142477764Y-88985000D01*
X142043418Y-89071397D01*
X141675198Y-89317434D01*
X141429161Y-89685654D01*
X141342764Y-90120000D01*
X141117236Y-90120000D01*
X141030839Y-89685654D01*
X140784802Y-89317434D01*
X140416582Y-89071397D01*
X139982236Y-88985000D01*
X139937764Y-88985000D01*
X139503418Y-89071397D01*
X139135198Y-89317434D01*
X138889161Y-89685654D01*
X138802764Y-90120000D01*
X138577236Y-90120000D01*
X138490839Y-89685654D01*
X138244802Y-89317434D01*
X137876582Y-89071397D01*
X137442236Y-88985000D01*
X137397764Y-88985000D01*
X136963418Y-89071397D01*
X136595198Y-89317434D01*
X136349161Y-89685654D01*
X136262764Y-90120000D01*
X136037236Y-90120000D01*
X135950839Y-89685654D01*
X135704802Y-89317434D01*
X135336582Y-89071397D01*
X134902236Y-88985000D01*
X134857764Y-88985000D01*
X134423418Y-89071397D01*
X134055198Y-89317434D01*
X133809161Y-89685654D01*
X133722764Y-90120000D01*
X133497236Y-90120000D01*
X133410839Y-89685654D01*
X133164802Y-89317434D01*
X132796582Y-89071397D01*
X132362236Y-88985000D01*
X132317764Y-88985000D01*
X131883418Y-89071397D01*
X131515198Y-89317434D01*
X131269161Y-89685654D01*
X131182764Y-90120000D01*
X131110175Y-90120000D01*
X131012360Y-89628252D01*
X130733807Y-89211368D01*
X130316923Y-88932815D01*
X129825175Y-88835000D01*
X129774825Y-88835000D01*
X129283077Y-88932815D01*
X128866193Y-89211368D01*
X128587640Y-89628252D01*
X128530000Y-89918027D01*
X128472360Y-89628252D01*
X128193807Y-89211368D01*
X127776923Y-88932815D01*
X127285175Y-88835000D01*
X127234825Y-88835000D01*
X126743077Y-88932815D01*
X126326193Y-89211368D01*
X126047640Y-89628252D01*
X125949825Y-90120000D01*
X124204029Y-90120000D01*
X124477728Y-89846779D01*
X124799633Y-89071546D01*
X124800365Y-88232136D01*
X124600118Y-87747500D01*
X126175000Y-87747500D01*
X126175000Y-88416663D01*
X126222195Y-88530601D01*
X126309399Y-88617805D01*
X126423337Y-88665000D01*
X127092500Y-88665000D01*
X127170000Y-88587500D01*
X127170000Y-87670000D01*
X127350000Y-87670000D01*
X127350000Y-88587500D01*
X127427500Y-88665000D01*
X128096663Y-88665000D01*
X128210601Y-88617805D01*
X128297805Y-88530601D01*
X128345000Y-88416663D01*
X128345000Y-87747500D01*
X128267500Y-87670000D01*
X127350000Y-87670000D01*
X127170000Y-87670000D01*
X126252500Y-87670000D01*
X126175000Y-87747500D01*
X124600118Y-87747500D01*
X124530909Y-87580000D01*
X128642764Y-87580000D01*
X128729161Y-88014346D01*
X128975198Y-88382566D01*
X129343418Y-88628603D01*
X129777764Y-88715000D01*
X129822236Y-88715000D01*
X130256582Y-88628603D01*
X130624802Y-88382566D01*
X130870839Y-88014346D01*
X130957236Y-87580000D01*
X131182764Y-87580000D01*
X131269161Y-88014346D01*
X131515198Y-88382566D01*
X131883418Y-88628603D01*
X132317764Y-88715000D01*
X132362236Y-88715000D01*
X132796582Y-88628603D01*
X133164802Y-88382566D01*
X133410839Y-88014346D01*
X133497236Y-87580000D01*
X133722764Y-87580000D01*
X133809161Y-88014346D01*
X134055198Y-88382566D01*
X134423418Y-88628603D01*
X134857764Y-88715000D01*
X134902236Y-88715000D01*
X135336582Y-88628603D01*
X135704802Y-88382566D01*
X135950839Y-88014346D01*
X136037236Y-87580000D01*
X136262764Y-87580000D01*
X136349161Y-88014346D01*
X136595198Y-88382566D01*
X136963418Y-88628603D01*
X137397764Y-88715000D01*
X137442236Y-88715000D01*
X137876582Y-88628603D01*
X138244802Y-88382566D01*
X138490839Y-88014346D01*
X138577236Y-87580000D01*
X138802764Y-87580000D01*
X138889161Y-88014346D01*
X139135198Y-88382566D01*
X139503418Y-88628603D01*
X139937764Y-88715000D01*
X139982236Y-88715000D01*
X140416582Y-88628603D01*
X140784802Y-88382566D01*
X141030839Y-88014346D01*
X141117236Y-87580000D01*
X141342764Y-87580000D01*
X141429161Y-88014346D01*
X141675198Y-88382566D01*
X142043418Y-88628603D01*
X142477764Y-88715000D01*
X142522236Y-88715000D01*
X142956582Y-88628603D01*
X143324802Y-88382566D01*
X143570839Y-88014346D01*
X143657236Y-87580000D01*
X143882764Y-87580000D01*
X143969161Y-88014346D01*
X144215198Y-88382566D01*
X144583418Y-88628603D01*
X145017764Y-88715000D01*
X145062236Y-88715000D01*
X145496582Y-88628603D01*
X145864802Y-88382566D01*
X146110839Y-88014346D01*
X146145908Y-87838038D01*
X146526130Y-87838038D01*
X146652333Y-88142743D01*
X146938300Y-88454910D01*
X147321960Y-88633879D01*
X147490000Y-88583770D01*
X147490000Y-87670000D01*
X147670000Y-87670000D01*
X147670000Y-88583770D01*
X147838040Y-88633879D01*
X148221700Y-88454910D01*
X148507667Y-88142743D01*
X148633870Y-87838038D01*
X148583472Y-87670000D01*
X147670000Y-87670000D01*
X147490000Y-87670000D01*
X146576528Y-87670000D01*
X146526130Y-87838038D01*
X146145908Y-87838038D01*
X146197236Y-87580000D01*
X146145909Y-87321962D01*
X146526130Y-87321962D01*
X146576528Y-87490000D01*
X147490000Y-87490000D01*
X147490000Y-86576230D01*
X147670000Y-86576230D01*
X147670000Y-87490000D01*
X148583472Y-87490000D01*
X148633870Y-87321962D01*
X148507667Y-87017257D01*
X148221700Y-86705090D01*
X147838040Y-86526121D01*
X147670000Y-86576230D01*
X147490000Y-86576230D01*
X147321960Y-86526121D01*
X146938300Y-86705090D01*
X146652333Y-87017257D01*
X146526130Y-87321962D01*
X146145909Y-87321962D01*
X146110839Y-87145654D01*
X145864802Y-86777434D01*
X145496582Y-86531397D01*
X145062236Y-86445000D01*
X145017764Y-86445000D01*
X144583418Y-86531397D01*
X144215198Y-86777434D01*
X143969161Y-87145654D01*
X143882764Y-87580000D01*
X143657236Y-87580000D01*
X143570839Y-87145654D01*
X143324802Y-86777434D01*
X142956582Y-86531397D01*
X142522236Y-86445000D01*
X142477764Y-86445000D01*
X142043418Y-86531397D01*
X141675198Y-86777434D01*
X141429161Y-87145654D01*
X141342764Y-87580000D01*
X141117236Y-87580000D01*
X141030839Y-87145654D01*
X140784802Y-86777434D01*
X140416582Y-86531397D01*
X139982236Y-86445000D01*
X139937764Y-86445000D01*
X139503418Y-86531397D01*
X139135198Y-86777434D01*
X138889161Y-87145654D01*
X138802764Y-87580000D01*
X138577236Y-87580000D01*
X138490839Y-87145654D01*
X138244802Y-86777434D01*
X137876582Y-86531397D01*
X137442236Y-86445000D01*
X137397764Y-86445000D01*
X136963418Y-86531397D01*
X136595198Y-86777434D01*
X136349161Y-87145654D01*
X136262764Y-87580000D01*
X136037236Y-87580000D01*
X135950839Y-87145654D01*
X135704802Y-86777434D01*
X135336582Y-86531397D01*
X134902236Y-86445000D01*
X134857764Y-86445000D01*
X134423418Y-86531397D01*
X134055198Y-86777434D01*
X133809161Y-87145654D01*
X133722764Y-87580000D01*
X133497236Y-87580000D01*
X133410839Y-87145654D01*
X133164802Y-86777434D01*
X132796582Y-86531397D01*
X132362236Y-86445000D01*
X132317764Y-86445000D01*
X131883418Y-86531397D01*
X131515198Y-86777434D01*
X131269161Y-87145654D01*
X131182764Y-87580000D01*
X130957236Y-87580000D01*
X130870839Y-87145654D01*
X130624802Y-86777434D01*
X130256582Y-86531397D01*
X129822236Y-86445000D01*
X129777764Y-86445000D01*
X129343418Y-86531397D01*
X128975198Y-86777434D01*
X128729161Y-87145654D01*
X128642764Y-87580000D01*
X124530909Y-87580000D01*
X124479814Y-87456343D01*
X123886779Y-86862272D01*
X123600352Y-86743337D01*
X126175000Y-86743337D01*
X126175000Y-87412500D01*
X126252500Y-87490000D01*
X127170000Y-87490000D01*
X127170000Y-86572500D01*
X127350000Y-86572500D01*
X127350000Y-87490000D01*
X128267500Y-87490000D01*
X128345000Y-87412500D01*
X128345000Y-86743337D01*
X128297805Y-86629399D01*
X128210601Y-86542195D01*
X128096663Y-86495000D01*
X127427500Y-86495000D01*
X127350000Y-86572500D01*
X127170000Y-86572500D01*
X127092500Y-86495000D01*
X126423337Y-86495000D01*
X126309399Y-86542195D01*
X126222195Y-86629399D01*
X126175000Y-86743337D01*
X123600352Y-86743337D01*
X123111546Y-86540367D01*
X122272136Y-86539635D01*
X121496343Y-86860186D01*
X120902272Y-87453221D01*
X120580367Y-88228454D01*
X120579635Y-89067864D01*
X113323964Y-89067864D01*
X113323964Y-86020804D01*
X200849894Y-86020804D01*
X200942565Y-86245086D01*
X201114011Y-86416832D01*
X201338131Y-86509894D01*
X201580804Y-86510106D01*
X201805086Y-86417435D01*
X201976832Y-86245989D01*
X202069894Y-86021869D01*
X202070106Y-85779196D01*
X201977435Y-85554914D01*
X201805989Y-85383168D01*
X201581869Y-85290106D01*
X201339196Y-85289894D01*
X201114914Y-85382565D01*
X200943168Y-85554011D01*
X200850106Y-85778131D01*
X200849894Y-86020804D01*
X113323964Y-86020804D01*
X113323964Y-85055411D01*
X203503964Y-85055411D01*
X203503964Y-138255411D01*
M02*
