G04 #@! TF.FileFunction,Soldermask,Bot*
%FSLAX46Y46*%
G04 Gerber Fmt 4.6, Leading zero omitted, Abs format (unit mm)*
G04 Created by KiCad (PCBNEW 4.0.7) date 09/09/17 19:19:24*
%MOMM*%
%LPD*%
G01*
G04 APERTURE LIST*
%ADD10C,0.100000*%
%ADD11R,2.127200X2.432000*%
%ADD12O,2.127200X2.432000*%
%ADD13C,3.900000*%
%ADD14C,1.900000*%
%ADD15O,1.950000X1.950000*%
%ADD16R,1.950000X1.950000*%
%ADD17C,3.650000*%
%ADD18C,3.400000*%
G04 APERTURE END LIST*
D10*
D11*
X191295020Y-88646000D03*
D12*
X193835020Y-88646000D03*
X196375020Y-88646000D03*
X198915020Y-88646000D03*
D13*
X195635880Y-93619120D03*
D14*
X192925880Y-100889120D03*
D13*
X195635880Y-105659120D03*
D14*
X192925880Y-98389120D03*
X190925880Y-98389120D03*
X190925880Y-100889120D03*
D15*
X175520000Y-90120000D03*
X175520000Y-87580000D03*
D13*
X180690000Y-88650000D03*
D16*
X127260000Y-87580000D03*
D15*
X127260000Y-90120000D03*
X129800000Y-87580000D03*
X129800000Y-90120000D03*
X132340000Y-87580000D03*
X132340000Y-90120000D03*
X134880000Y-87580000D03*
X134880000Y-90120000D03*
X137420000Y-87580000D03*
X137420000Y-90120000D03*
X139960000Y-87580000D03*
X139960000Y-90120000D03*
X142500000Y-87580000D03*
X142500000Y-90120000D03*
X145040000Y-87580000D03*
X145040000Y-90120000D03*
X147580000Y-87580000D03*
X147580000Y-90120000D03*
X150120000Y-87580000D03*
X150120000Y-90120000D03*
X152660000Y-87580000D03*
X152660000Y-90120000D03*
X155200000Y-87580000D03*
X155200000Y-90120000D03*
X157740000Y-87580000D03*
X157740000Y-90120000D03*
D13*
X122690000Y-88650000D03*
D15*
X160280000Y-87580000D03*
X162820000Y-87580000D03*
X165360000Y-87580000D03*
X167900000Y-87580000D03*
X170440000Y-87580000D03*
X172980000Y-87580000D03*
X160280000Y-90120000D03*
X162820000Y-90120000D03*
X165360000Y-90120000D03*
X167900000Y-90120000D03*
X170440000Y-90120000D03*
X172980000Y-90120000D03*
D11*
X119656860Y-105097420D03*
D12*
X122196860Y-105097420D03*
X124736860Y-105097420D03*
X127276860Y-105097420D03*
X129816860Y-105097420D03*
X132356860Y-105097420D03*
X134896860Y-105097420D03*
X137436860Y-105097420D03*
D17*
X194990000Y-118890000D03*
D18*
X191940000Y-116860000D03*
D14*
X186100000Y-127785000D03*
X199890000Y-131230000D03*
X199890000Y-128690000D03*
X199890000Y-117980000D03*
X199890000Y-120520000D03*
D17*
X194990000Y-130320000D03*
D18*
X191940000Y-132350000D03*
D14*
X186100000Y-125245000D03*
X186100000Y-122705000D03*
X186100000Y-120165000D03*
X188640000Y-129045000D03*
X188640000Y-126505000D03*
X188640000Y-123965000D03*
X188640000Y-121425000D03*
M02*
