G04 #@! TF.FileFunction,Soldermask,Top*
%FSLAX46Y46*%
G04 Gerber Fmt 4.6, Leading zero omitted, Abs format (unit mm)*
G04 Created by KiCad (PCBNEW 4.0.7) date 09/09/17 19:19:24*
%MOMM*%
%LPD*%
G01*
G04 APERTURE LIST*
%ADD10C,0.100000*%
%ADD11R,1.000000X0.800000*%
%ADD12R,1.000000X0.900000*%
%ADD13R,1.200000X1.150000*%
%ADD14R,0.900000X1.000000*%
%ADD15R,0.900000X1.300000*%
%ADD16R,2.127200X2.432000*%
%ADD17O,2.127200X2.432000*%
%ADD18R,0.800000X1.000000*%
%ADD19R,1.550000X1.800000*%
%ADD20R,0.700000X1.250000*%
%ADD21R,1.250000X0.700000*%
%ADD22R,1.700000X1.700000*%
%ADD23C,3.900000*%
%ADD24C,1.900000*%
%ADD25O,1.950000X1.950000*%
%ADD26R,1.950000X1.950000*%
%ADD27C,3.650000*%
%ADD28C,3.400000*%
G04 APERTURE END LIST*
D10*
D11*
X147828000Y-96081000D03*
X147828000Y-95181000D03*
D12*
X182187400Y-124202200D03*
X181087400Y-124202200D03*
X182167400Y-125629200D03*
X181067400Y-125629200D03*
X153247000Y-97155000D03*
X154347000Y-97155000D03*
X144187000Y-100507800D03*
X143087000Y-100507800D03*
D13*
X144260000Y-103251000D03*
X142760000Y-103251000D03*
D14*
X145542000Y-103082000D03*
X145542000Y-104182000D03*
D12*
X145076000Y-101676200D03*
X143976000Y-101676200D03*
D14*
X152146000Y-100542000D03*
X152146000Y-101642000D03*
D12*
X142409000Y-101981000D03*
X141309000Y-101981000D03*
D14*
X149225000Y-96308000D03*
X149225000Y-95208000D03*
X156718000Y-101769000D03*
X156718000Y-100669000D03*
X150368000Y-96308000D03*
X150368000Y-95208000D03*
D15*
X192393000Y-107061000D03*
X190893000Y-107061000D03*
D16*
X191295020Y-88646000D03*
D17*
X193835020Y-88646000D03*
X196375020Y-88646000D03*
X198915020Y-88646000D03*
D18*
X198379000Y-113780000D03*
X197479000Y-113780000D03*
X198863400Y-135644200D03*
X197963400Y-135644200D03*
X153347000Y-98298000D03*
X154247000Y-98298000D03*
D11*
X145288000Y-95181000D03*
X145288000Y-96081000D03*
X146685000Y-103182000D03*
X146685000Y-104082000D03*
X148590000Y-93922000D03*
X148590000Y-93022000D03*
X146558000Y-96081000D03*
X146558000Y-95181000D03*
X153570000Y-95990000D03*
X153570000Y-95090000D03*
D19*
X155232000Y-102573000D03*
X153632000Y-102573000D03*
X153632000Y-100373000D03*
X155232000Y-100373000D03*
D11*
X152019000Y-97859000D03*
X152019000Y-96959000D03*
D20*
X147213000Y-101899000D03*
X147713000Y-101899000D03*
X148213000Y-101899000D03*
X148713000Y-101899000D03*
X149213000Y-101899000D03*
X149713000Y-101899000D03*
D21*
X150413000Y-101199000D03*
X150413000Y-100699000D03*
X150413000Y-100199000D03*
X150413000Y-99699000D03*
X150413000Y-99199000D03*
X150413000Y-98699000D03*
D20*
X149713000Y-97999000D03*
X149213000Y-97999000D03*
X148713000Y-97999000D03*
X148213000Y-97999000D03*
X147713000Y-97999000D03*
X147213000Y-97999000D03*
D21*
X146513000Y-98699000D03*
X146513000Y-99199000D03*
X146513000Y-99699000D03*
X146513000Y-100199000D03*
X146513000Y-100699000D03*
X146513000Y-101199000D03*
D22*
X149113000Y-99299000D03*
X147813000Y-99299000D03*
X149113000Y-100599000D03*
X147813000Y-100599000D03*
D23*
X195635880Y-93619120D03*
D24*
X192925880Y-100889120D03*
D23*
X195635880Y-105659120D03*
D24*
X192925880Y-98389120D03*
X190925880Y-98389120D03*
X190925880Y-100889120D03*
D25*
X175520000Y-90120000D03*
X175520000Y-87580000D03*
D23*
X180690000Y-88650000D03*
D26*
X127260000Y-87580000D03*
D25*
X127260000Y-90120000D03*
X129800000Y-87580000D03*
X129800000Y-90120000D03*
X132340000Y-87580000D03*
X132340000Y-90120000D03*
X134880000Y-87580000D03*
X134880000Y-90120000D03*
X137420000Y-87580000D03*
X137420000Y-90120000D03*
X139960000Y-87580000D03*
X139960000Y-90120000D03*
X142500000Y-87580000D03*
X142500000Y-90120000D03*
X145040000Y-87580000D03*
X145040000Y-90120000D03*
X147580000Y-87580000D03*
X147580000Y-90120000D03*
X150120000Y-87580000D03*
X150120000Y-90120000D03*
X152660000Y-87580000D03*
X152660000Y-90120000D03*
X155200000Y-87580000D03*
X155200000Y-90120000D03*
X157740000Y-87580000D03*
X157740000Y-90120000D03*
D23*
X122690000Y-88650000D03*
D25*
X160280000Y-87580000D03*
X162820000Y-87580000D03*
X165360000Y-87580000D03*
X167900000Y-87580000D03*
X170440000Y-87580000D03*
X172980000Y-87580000D03*
X160280000Y-90120000D03*
X162820000Y-90120000D03*
X165360000Y-90120000D03*
X167900000Y-90120000D03*
X170440000Y-90120000D03*
X172980000Y-90120000D03*
D16*
X119656860Y-105097420D03*
D17*
X122196860Y-105097420D03*
X124736860Y-105097420D03*
X127276860Y-105097420D03*
X129816860Y-105097420D03*
X132356860Y-105097420D03*
X134896860Y-105097420D03*
X137436860Y-105097420D03*
D27*
X194990000Y-118890000D03*
D28*
X191940000Y-116860000D03*
D24*
X186100000Y-127785000D03*
X199890000Y-131230000D03*
X199890000Y-128690000D03*
X199890000Y-117980000D03*
X199890000Y-120520000D03*
D27*
X194990000Y-130320000D03*
D28*
X191940000Y-132350000D03*
D24*
X186100000Y-125245000D03*
X186100000Y-122705000D03*
X186100000Y-120165000D03*
X188640000Y-129045000D03*
X188640000Y-126505000D03*
X188640000Y-123965000D03*
X188640000Y-121425000D03*
D18*
X151490000Y-94860000D03*
X152390000Y-94860000D03*
M02*
