G04 #@! TF.FileFunction,Paste,Top*
%FSLAX46Y46*%
G04 Gerber Fmt 4.6, Leading zero omitted, Abs format (unit mm)*
G04 Created by KiCad (PCBNEW 4.0.7) date 09/09/17 19:34:41*
%MOMM*%
%LPD*%
G01*
G04 APERTURE LIST*
%ADD10C,0.100000*%
%ADD11R,2.000000X2.000000*%
%ADD12R,0.600000X0.400000*%
%ADD13R,0.400000X0.600000*%
%ADD14R,1.000000X0.500000*%
%ADD15R,2.390000X1.050000*%
%ADD16R,1.200000X1.050000*%
%ADD17R,1.080000X1.050000*%
%ADD18R,0.780000X0.720000*%
%ADD19R,0.550000X2.910000*%
%ADD20R,0.500000X0.600000*%
%ADD21R,0.600000X0.500000*%
%ADD22R,0.750000X0.800000*%
%ADD23R,0.500000X0.900000*%
%ADD24R,0.700000X1.300000*%
%ADD25R,1.200000X1.200000*%
%ADD26O,1.500000X0.250000*%
%ADD27O,0.250000X1.500000*%
%ADD28R,1.400000X1.150000*%
%ADD29R,0.800000X0.750000*%
%ADD30R,0.900000X0.900000*%
%ADD31R,1.100000X0.900000*%
%ADD32R,1.900000X1.500000*%
%ADD33R,1.900000X0.900000*%
%ADD34R,1.350000X0.400000*%
%ADD35R,0.650000X1.060000*%
G04 APERTURE END LIST*
D10*
X86767232Y-135759051D02*
X86767232Y-135359051D01*
X97917232Y-135359051D02*
X97917232Y-135759051D01*
X96917232Y-136759051D02*
X87767232Y-136759051D01*
X96917232Y-136759051D02*
X97917232Y-135759051D01*
X86767232Y-135759051D02*
X87767232Y-136759051D01*
X140567232Y-135759051D02*
X140567232Y-135359051D01*
X140567232Y-135759051D02*
X141567232Y-136759051D01*
X170067232Y-136759051D02*
X141567232Y-136759051D01*
X170067232Y-136759051D02*
X171067232Y-135759051D01*
X171067232Y-135359051D02*
X171067232Y-135759051D01*
X174417232Y-91959051D02*
X174417232Y-128359051D01*
X84417232Y-128359051D02*
X84417232Y-91959051D01*
X84417232Y-91959051D02*
X174417232Y-91959051D01*
X121067232Y-129359051D02*
X121067232Y-135359051D01*
X121067232Y-129359051D02*
G75*
G02X122067232Y-128359051I1000000J0D01*
G01*
X122567232Y-128359051D02*
X122067232Y-128359051D01*
X122567232Y-128359051D02*
G75*
G02X123567232Y-129359051I0J-1000000D01*
G01*
X123567232Y-135359051D02*
X123567232Y-129359051D01*
X138067232Y-129359051D02*
X138067232Y-135359051D01*
X138067232Y-129359051D02*
G75*
G02X139067232Y-128359051I1000000J0D01*
G01*
X139567232Y-128359051D02*
X139067232Y-128359051D01*
X139567232Y-128359051D02*
G75*
G02X140567232Y-129359051I0J-1000000D01*
G01*
X140567232Y-135359051D02*
X140567232Y-129359051D01*
X171067232Y-129359051D02*
X171067232Y-135359051D01*
X171067232Y-129359051D02*
G75*
G02X172067232Y-128359051I1000000J0D01*
G01*
X172067232Y-128359051D02*
X174417232Y-128359051D01*
X85767232Y-128359051D02*
X84417232Y-128359051D01*
X85767232Y-128359051D02*
G75*
G02X86767232Y-129359051I0J-1000000D01*
G01*
X86767232Y-135359051D02*
X86767232Y-129359051D01*
X97917232Y-129359051D02*
X97917232Y-135359051D01*
X97917232Y-129359051D02*
G75*
G02X99917232Y-129359051I1000000J0D01*
G01*
X99917232Y-135359051D02*
X99917232Y-129359051D01*
X137067232Y-136759051D02*
X124567232Y-136759051D01*
X137067232Y-136759051D02*
X138067232Y-135759051D01*
X138067232Y-135359051D02*
X138067232Y-135759051D01*
X123567232Y-135759051D02*
X123567232Y-135359051D01*
X123567232Y-135759051D02*
X124567232Y-136759051D01*
X120067232Y-136759051D02*
X100917232Y-136759051D01*
X120067232Y-136759051D02*
X121067232Y-135759051D01*
X121067232Y-135359051D02*
X121067232Y-135759051D01*
X99917232Y-135759051D02*
X99917232Y-135359051D01*
X99917232Y-135759051D02*
X100917232Y-136759051D01*
D11*
X113300000Y-117390000D03*
X113300000Y-120490000D03*
D12*
X150950000Y-95830000D03*
X150950000Y-96730000D03*
D13*
X97991000Y-104521000D03*
X97091000Y-104521000D03*
D14*
X172127800Y-121602800D03*
X172127800Y-120502800D03*
X172127800Y-119402800D03*
X172127800Y-118302800D03*
X172127800Y-117202800D03*
X172127800Y-116102800D03*
X172127800Y-115002800D03*
X172127800Y-113902800D03*
D15*
X168822800Y-122652800D03*
D16*
X165637800Y-122652800D03*
X165067800Y-112327800D03*
D17*
X167677800Y-112327800D03*
D18*
X168947800Y-112542800D03*
D19*
X164392800Y-119747800D03*
X164392800Y-115557800D03*
D12*
X160780000Y-112690000D03*
X160780000Y-113590000D03*
D20*
X158877000Y-104055000D03*
X158877000Y-102955000D03*
D21*
X155914000Y-107315000D03*
X157014000Y-107315000D03*
X161078000Y-102362000D03*
X159978000Y-102362000D03*
D22*
X100076000Y-103390000D03*
X100076000Y-104890000D03*
D20*
X167005000Y-105579000D03*
X167005000Y-104479000D03*
D23*
X168300000Y-98650000D03*
X166800000Y-98650000D03*
X92341000Y-111506000D03*
X93841000Y-111506000D03*
D24*
X99502000Y-101727000D03*
X97602000Y-101727000D03*
D13*
X168217000Y-108077000D03*
X167317000Y-108077000D03*
X167698000Y-106934000D03*
X168598000Y-106934000D03*
X127570000Y-99650000D03*
X126670000Y-99650000D03*
X123883000Y-100457000D03*
X124783000Y-100457000D03*
X97091000Y-106934000D03*
X97991000Y-106934000D03*
D12*
X101473000Y-102928000D03*
X101473000Y-103828000D03*
X101473000Y-104706000D03*
X101473000Y-105606000D03*
D13*
X161714600Y-100838000D03*
X160814600Y-100838000D03*
X118941000Y-100457000D03*
X118041000Y-100457000D03*
D12*
X158877000Y-110421000D03*
X158877000Y-111321000D03*
D13*
X158640000Y-112630000D03*
X157740000Y-112630000D03*
X158630000Y-113930000D03*
X157730000Y-113930000D03*
X158640000Y-115290000D03*
X157740000Y-115290000D03*
D12*
X158242000Y-108541400D03*
X158242000Y-109441400D03*
X115062000Y-103512200D03*
X115062000Y-104412200D03*
D25*
X161937000Y-107684000D03*
X161937000Y-106184000D03*
X163437000Y-106184000D03*
D26*
X165437000Y-108684000D03*
X165437000Y-108184000D03*
X165437000Y-107684000D03*
X165437000Y-107184000D03*
X165437000Y-106684000D03*
X165437000Y-106184000D03*
X165437000Y-105684000D03*
X165437000Y-105184000D03*
D27*
X164437000Y-104184000D03*
X163937000Y-104184000D03*
X163437000Y-104184000D03*
X162937000Y-104184000D03*
X162437000Y-104184000D03*
X161937000Y-104184000D03*
X161437000Y-104184000D03*
X160937000Y-104184000D03*
D26*
X159937000Y-105184000D03*
X159937000Y-105684000D03*
X159937000Y-106184000D03*
X159937000Y-106684000D03*
X159937000Y-107184000D03*
X159937000Y-107684000D03*
X159937000Y-108184000D03*
X159937000Y-108684000D03*
D27*
X160937000Y-109684000D03*
X161437000Y-109684000D03*
X161937000Y-109684000D03*
X162437000Y-109684000D03*
X162937000Y-109684000D03*
X163437000Y-109684000D03*
X163937000Y-109684000D03*
X164437000Y-109684000D03*
D25*
X163437000Y-107684000D03*
D28*
X154983000Y-105829000D03*
X154983000Y-104229000D03*
X157183000Y-104229000D03*
X157183000Y-105829000D03*
D20*
X168148000Y-105579000D03*
X168148000Y-104479000D03*
D12*
X90810000Y-111956000D03*
X90810000Y-111056000D03*
X89413000Y-111956000D03*
X89413000Y-111056000D03*
D13*
X86611800Y-113106200D03*
X85711800Y-113106200D03*
D12*
X162260000Y-112710000D03*
X162260000Y-113610000D03*
X167390000Y-110280000D03*
X167390000Y-109380000D03*
D20*
X117440000Y-118230000D03*
X117440000Y-117130000D03*
D29*
X142099600Y-101727000D03*
X143599600Y-101727000D03*
D21*
X131440000Y-103180000D03*
X130340000Y-103180000D03*
D30*
X116000000Y-123520000D03*
D31*
X116000000Y-121120000D03*
D30*
X118973600Y-120453000D03*
D31*
X118973600Y-118053000D03*
D12*
X149700000Y-95830000D03*
X149700000Y-96730000D03*
D13*
X87180000Y-124333000D03*
X88080000Y-124333000D03*
X90594600Y-113157000D03*
X89694600Y-113157000D03*
X137051200Y-100558600D03*
X136151200Y-100558600D03*
D12*
X118491000Y-110167000D03*
X118491000Y-111067000D03*
X119761000Y-110040000D03*
X119761000Y-110940000D03*
D21*
X118576000Y-116611400D03*
X119676000Y-116611400D03*
D32*
X85984000Y-106664000D03*
D33*
X85984000Y-108414000D03*
D34*
X88684000Y-104364000D03*
X88684000Y-105014000D03*
X88684000Y-105664000D03*
X88684000Y-106314000D03*
X88684000Y-106964000D03*
D32*
X85984000Y-104664000D03*
D33*
X85984000Y-102914000D03*
D32*
X172874940Y-102657400D03*
D33*
X172874940Y-100907400D03*
D34*
X170174940Y-104957400D03*
X170174940Y-104307400D03*
X170174940Y-103657400D03*
X170174940Y-103007400D03*
X170174940Y-102357400D03*
D32*
X172874940Y-104657400D03*
D33*
X172874940Y-106407400D03*
D35*
X167440000Y-100620000D03*
X166490000Y-100620000D03*
X165540000Y-100620000D03*
X165540000Y-102820000D03*
X167440000Y-102820000D03*
X166490000Y-102820000D03*
X91257000Y-106764000D03*
X92207000Y-106764000D03*
X93157000Y-106764000D03*
X93157000Y-104564000D03*
X91257000Y-104564000D03*
X92207000Y-104564000D03*
D12*
X152200000Y-95830000D03*
X152200000Y-96730000D03*
D13*
X156180000Y-115340000D03*
X157080000Y-115340000D03*
X154260000Y-107300000D03*
X155160000Y-107300000D03*
D12*
X164120000Y-96540000D03*
X164120000Y-97440000D03*
X160230000Y-96550000D03*
X160230000Y-97450000D03*
X161560000Y-96540000D03*
X161560000Y-97440000D03*
X162840000Y-96540000D03*
X162840000Y-97440000D03*
X158870000Y-96540000D03*
X158870000Y-97440000D03*
D13*
X87210400Y-125704600D03*
X88110400Y-125704600D03*
D12*
X86873000Y-111956000D03*
X86873000Y-111056000D03*
X88016000Y-111956000D03*
X88016000Y-111056000D03*
X85730000Y-111956000D03*
X85730000Y-111056000D03*
X172220000Y-109890000D03*
X172220000Y-108990000D03*
X170950000Y-109880000D03*
X170950000Y-108980000D03*
X169670000Y-109870000D03*
X169670000Y-108970000D03*
M02*
