G04 #@! TF.FileFunction,Paste,Bot*
%FSLAX46Y46*%
G04 Gerber Fmt 4.6, Leading zero omitted, Abs format (unit mm)*
G04 Created by KiCad (PCBNEW 4.0.7) date 09/09/17 19:34:41*
%MOMM*%
%LPD*%
G01*
G04 APERTURE LIST*
%ADD10C,0.100000*%
%ADD11R,0.600000X0.400000*%
%ADD12R,0.400000X0.600000*%
%ADD13R,0.600000X0.500000*%
%ADD14R,0.650000X1.060000*%
%ADD15R,0.750000X0.800000*%
%ADD16R,0.500000X0.600000*%
%ADD17R,0.700000X1.300000*%
%ADD18R,1.000000X1.400000*%
%ADD19R,0.900000X0.900000*%
%ADD20R,0.900000X1.100000*%
%ADD21R,0.900000X0.500000*%
%ADD22R,0.300000X1.550000*%
%ADD23R,1.550000X0.300000*%
%ADD24R,1.270000X5.080000*%
%ADD25R,1.400000X1.000000*%
G04 APERTURE END LIST*
D10*
X86767232Y-135759051D02*
X86767232Y-135359051D01*
X97917232Y-135359051D02*
X97917232Y-135759051D01*
X96917232Y-136759051D02*
X87767232Y-136759051D01*
X96917232Y-136759051D02*
X97917232Y-135759051D01*
X86767232Y-135759051D02*
X87767232Y-136759051D01*
X140567232Y-135759051D02*
X140567232Y-135359051D01*
X140567232Y-135759051D02*
X141567232Y-136759051D01*
X170067232Y-136759051D02*
X141567232Y-136759051D01*
X170067232Y-136759051D02*
X171067232Y-135759051D01*
X171067232Y-135359051D02*
X171067232Y-135759051D01*
X174417232Y-91959051D02*
X174417232Y-128359051D01*
X84417232Y-128359051D02*
X84417232Y-91959051D01*
X84417232Y-91959051D02*
X174417232Y-91959051D01*
X121067232Y-129359051D02*
X121067232Y-135359051D01*
X121067232Y-129359051D02*
G75*
G02X122067232Y-128359051I1000000J0D01*
G01*
X122567232Y-128359051D02*
X122067232Y-128359051D01*
X122567232Y-128359051D02*
G75*
G02X123567232Y-129359051I0J-1000000D01*
G01*
X123567232Y-135359051D02*
X123567232Y-129359051D01*
X138067232Y-129359051D02*
X138067232Y-135359051D01*
X138067232Y-129359051D02*
G75*
G02X139067232Y-128359051I1000000J0D01*
G01*
X139567232Y-128359051D02*
X139067232Y-128359051D01*
X139567232Y-128359051D02*
G75*
G02X140567232Y-129359051I0J-1000000D01*
G01*
X140567232Y-135359051D02*
X140567232Y-129359051D01*
X171067232Y-129359051D02*
X171067232Y-135359051D01*
X171067232Y-129359051D02*
G75*
G02X172067232Y-128359051I1000000J0D01*
G01*
X172067232Y-128359051D02*
X174417232Y-128359051D01*
X85767232Y-128359051D02*
X84417232Y-128359051D01*
X85767232Y-128359051D02*
G75*
G02X86767232Y-129359051I0J-1000000D01*
G01*
X86767232Y-135359051D02*
X86767232Y-129359051D01*
X97917232Y-129359051D02*
X97917232Y-135359051D01*
X97917232Y-129359051D02*
G75*
G02X99917232Y-129359051I1000000J0D01*
G01*
X99917232Y-135359051D02*
X99917232Y-129359051D01*
X137067232Y-136759051D02*
X124567232Y-136759051D01*
X137067232Y-136759051D02*
X138067232Y-135759051D01*
X138067232Y-135359051D02*
X138067232Y-135759051D01*
X123567232Y-135759051D02*
X123567232Y-135359051D01*
X123567232Y-135759051D02*
X124567232Y-136759051D01*
X120067232Y-136759051D02*
X100917232Y-136759051D01*
X120067232Y-136759051D02*
X121067232Y-135759051D01*
X121067232Y-135359051D02*
X121067232Y-135759051D01*
X99917232Y-135759051D02*
X99917232Y-135359051D01*
X99917232Y-135759051D02*
X100917232Y-136759051D01*
D11*
X111252000Y-99880000D03*
X111252000Y-100780000D03*
D12*
X170579200Y-111988600D03*
X169679200Y-111988600D03*
D13*
X160359000Y-100330000D03*
X161459000Y-100330000D03*
D11*
X111125000Y-104579000D03*
X111125000Y-105479000D03*
X155702000Y-102177000D03*
X155702000Y-101277000D03*
D14*
X167706000Y-113581000D03*
X168656000Y-113581000D03*
X169606000Y-113581000D03*
X169606000Y-115781000D03*
X167706000Y-115781000D03*
D13*
X142248800Y-100609400D03*
X143348800Y-100609400D03*
D15*
X167106600Y-102221600D03*
X167106600Y-103721600D03*
D16*
X170434000Y-118322000D03*
X170434000Y-119422000D03*
D13*
X130979000Y-123571000D03*
X129879000Y-123571000D03*
X143399600Y-115112800D03*
X142299600Y-115112800D03*
X166640600Y-112598200D03*
X165540600Y-112598200D03*
D17*
X167193000Y-100584000D03*
X165293000Y-100584000D03*
D11*
X165684200Y-106331600D03*
X165684200Y-107231600D03*
X166776400Y-109822400D03*
X166776400Y-108922400D03*
X162941000Y-113276800D03*
X162941000Y-112376800D03*
X109728000Y-103944000D03*
X109728000Y-104844000D03*
X109982000Y-100642000D03*
X109982000Y-101542000D03*
X112522000Y-99880000D03*
X112522000Y-100780000D03*
X113792000Y-99880000D03*
X113792000Y-100780000D03*
X115062000Y-99880000D03*
X115062000Y-100780000D03*
D14*
X159065000Y-103462000D03*
X158115000Y-103462000D03*
X157165000Y-103462000D03*
X157165000Y-101262000D03*
X159065000Y-101262000D03*
D16*
X165354000Y-104182000D03*
X165354000Y-103082000D03*
D11*
X116332000Y-99880000D03*
X116332000Y-100780000D03*
D12*
X155125000Y-103505000D03*
X156025000Y-103505000D03*
D11*
X117602000Y-99880000D03*
X117602000Y-100780000D03*
X158877000Y-107754000D03*
X158877000Y-108654000D03*
D16*
X128752600Y-123605200D03*
X128752600Y-124705200D03*
D18*
X161681200Y-111386800D03*
X159781200Y-111386800D03*
X160731200Y-109186800D03*
D19*
X168535500Y-109029500D03*
D20*
X170935500Y-109029500D03*
D21*
X167513000Y-118987000D03*
X167513000Y-117487000D03*
X169037000Y-117487000D03*
X169037000Y-118987000D03*
D19*
X164217500Y-111188500D03*
D20*
X166617500Y-111188500D03*
D13*
X123486000Y-123571000D03*
X122386000Y-123571000D03*
X136948000Y-123571000D03*
X135848000Y-123571000D03*
X143425000Y-108610400D03*
X142325000Y-108610400D03*
D16*
X166243000Y-115459600D03*
X166243000Y-114359600D03*
D12*
X138956200Y-124383800D03*
X138056200Y-124383800D03*
D22*
X138671000Y-121952000D03*
X138171000Y-121952000D03*
X137671000Y-121952000D03*
X137171000Y-121952000D03*
X136671000Y-121952000D03*
X136171000Y-121952000D03*
X135671000Y-121952000D03*
X135171000Y-121952000D03*
X134671000Y-121952000D03*
X134171000Y-121952000D03*
X133671000Y-121952000D03*
X133171000Y-121952000D03*
X132671000Y-121952000D03*
X132171000Y-121952000D03*
X131671000Y-121952000D03*
X131171000Y-121952000D03*
X130671000Y-121952000D03*
X130171000Y-121952000D03*
X129671000Y-121952000D03*
X129171000Y-121952000D03*
X128671000Y-121952000D03*
X128171000Y-121952000D03*
X127671000Y-121952000D03*
X127171000Y-121952000D03*
X126671000Y-121952000D03*
X126171000Y-121952000D03*
X125671000Y-121952000D03*
X125171000Y-121952000D03*
X124671000Y-121952000D03*
X124171000Y-121952000D03*
X123671000Y-121952000D03*
X123171000Y-121952000D03*
X122671000Y-121952000D03*
X122171000Y-121952000D03*
X121671000Y-121952000D03*
X121171000Y-121952000D03*
D23*
X119221000Y-120002000D03*
X119221000Y-119502000D03*
X119221000Y-119002000D03*
X119221000Y-118502000D03*
X119221000Y-118002000D03*
X119221000Y-117502000D03*
X119221000Y-117002000D03*
X119221000Y-116502000D03*
X119221000Y-116002000D03*
X119221000Y-115502000D03*
X119221000Y-115002000D03*
X119221000Y-114502000D03*
X119221000Y-114002000D03*
X119221000Y-113502000D03*
X119221000Y-113002000D03*
X119221000Y-112502000D03*
X119221000Y-112002000D03*
X119221000Y-111502000D03*
X119221000Y-111002000D03*
X119221000Y-110502000D03*
X119221000Y-110002000D03*
X119221000Y-109502000D03*
X119221000Y-109002000D03*
X119221000Y-108502000D03*
X119221000Y-108002000D03*
X119221000Y-107502000D03*
X119221000Y-107002000D03*
X119221000Y-106502000D03*
X119221000Y-106002000D03*
X119221000Y-105502000D03*
X119221000Y-105002000D03*
X119221000Y-104502000D03*
X119221000Y-104002000D03*
X119221000Y-103502000D03*
X119221000Y-103002000D03*
X119221000Y-102502000D03*
D22*
X121171000Y-100552000D03*
X121671000Y-100552000D03*
X122171000Y-100552000D03*
X122671000Y-100552000D03*
X123171000Y-100552000D03*
X123671000Y-100552000D03*
X124171000Y-100552000D03*
X124671000Y-100552000D03*
X125171000Y-100552000D03*
X125671000Y-100552000D03*
X126171000Y-100552000D03*
X126671000Y-100552000D03*
X127171000Y-100552000D03*
X127671000Y-100552000D03*
X128171000Y-100552000D03*
X128671000Y-100552000D03*
X129171000Y-100552000D03*
X129671000Y-100552000D03*
X130171000Y-100552000D03*
X130671000Y-100552000D03*
X131171000Y-100552000D03*
X131671000Y-100552000D03*
X132171000Y-100552000D03*
X132671000Y-100552000D03*
X133171000Y-100552000D03*
X133671000Y-100552000D03*
X134171000Y-100552000D03*
X134671000Y-100552000D03*
X135171000Y-100552000D03*
X135671000Y-100552000D03*
X136171000Y-100552000D03*
X136671000Y-100552000D03*
X137171000Y-100552000D03*
X137671000Y-100552000D03*
X138171000Y-100552000D03*
X138671000Y-100552000D03*
D23*
X140621000Y-102502000D03*
X140621000Y-103002000D03*
X140621000Y-103502000D03*
X140621000Y-104002000D03*
X140621000Y-104502000D03*
X140621000Y-105002000D03*
X140621000Y-105502000D03*
X140621000Y-106002000D03*
X140621000Y-106502000D03*
X140621000Y-107002000D03*
X140621000Y-107502000D03*
X140621000Y-108002000D03*
X140621000Y-108502000D03*
X140621000Y-109002000D03*
X140621000Y-109502000D03*
X140621000Y-110002000D03*
X140621000Y-110502000D03*
X140621000Y-111002000D03*
X140621000Y-111502000D03*
X140621000Y-112002000D03*
X140621000Y-112502000D03*
X140621000Y-113002000D03*
X140621000Y-113502000D03*
X140621000Y-114002000D03*
X140621000Y-114502000D03*
X140621000Y-115002000D03*
X140621000Y-115502000D03*
X140621000Y-116002000D03*
X140621000Y-116502000D03*
X140621000Y-117002000D03*
X140621000Y-117502000D03*
X140621000Y-118002000D03*
X140621000Y-118502000D03*
X140621000Y-119002000D03*
X140621000Y-119502000D03*
X140621000Y-120002000D03*
D24*
X115086900Y-118414800D03*
X93116900Y-118414800D03*
D16*
X116890800Y-110252600D03*
X116890800Y-109152600D03*
X116967000Y-103547000D03*
X116967000Y-102447000D03*
D25*
X87200000Y-116600000D03*
X87200000Y-114700000D03*
X89400000Y-115650000D03*
D12*
X86410000Y-122470000D03*
X87310000Y-122470000D03*
X89000000Y-122470000D03*
X88100000Y-122470000D03*
D14*
X88570000Y-120680000D03*
X87620000Y-120680000D03*
X86670000Y-120680000D03*
X86670000Y-118480000D03*
X88570000Y-118480000D03*
X87620000Y-118480000D03*
M02*
