G04 #@! TF.FileFunction,Glue,Top*
%FSLAX46Y46*%
G04 Gerber Fmt 4.6, Leading zero omitted, Abs format (unit mm)*
G04 Created by KiCad (PCBNEW 4.0.7) date 09/09/17 19:34:41*
%MOMM*%
%LPD*%
G01*
G04 APERTURE LIST*
%ADD10C,0.100000*%
%ADD11R,5.000000X2.000000*%
G04 APERTURE END LIST*
D10*
X86767232Y-135759051D02*
X86767232Y-135359051D01*
X97917232Y-135359051D02*
X97917232Y-135759051D01*
X96917232Y-136759051D02*
X87767232Y-136759051D01*
X96917232Y-136759051D02*
X97917232Y-135759051D01*
X86767232Y-135759051D02*
X87767232Y-136759051D01*
X140567232Y-135759051D02*
X140567232Y-135359051D01*
X140567232Y-135759051D02*
X141567232Y-136759051D01*
X170067232Y-136759051D02*
X141567232Y-136759051D01*
X170067232Y-136759051D02*
X171067232Y-135759051D01*
X171067232Y-135359051D02*
X171067232Y-135759051D01*
X174417232Y-91959051D02*
X174417232Y-128359051D01*
X84417232Y-128359051D02*
X84417232Y-91959051D01*
X84417232Y-91959051D02*
X174417232Y-91959051D01*
X121067232Y-129359051D02*
X121067232Y-135359051D01*
X121067232Y-129359051D02*
G75*
G02X122067232Y-128359051I1000000J0D01*
G01*
X122567232Y-128359051D02*
X122067232Y-128359051D01*
X122567232Y-128359051D02*
G75*
G02X123567232Y-129359051I0J-1000000D01*
G01*
X123567232Y-135359051D02*
X123567232Y-129359051D01*
X138067232Y-129359051D02*
X138067232Y-135359051D01*
X138067232Y-129359051D02*
G75*
G02X139067232Y-128359051I1000000J0D01*
G01*
X139567232Y-128359051D02*
X139067232Y-128359051D01*
X139567232Y-128359051D02*
G75*
G02X140567232Y-129359051I0J-1000000D01*
G01*
X140567232Y-135359051D02*
X140567232Y-129359051D01*
X171067232Y-129359051D02*
X171067232Y-135359051D01*
X171067232Y-129359051D02*
G75*
G02X172067232Y-128359051I1000000J0D01*
G01*
X172067232Y-128359051D02*
X174417232Y-128359051D01*
X85767232Y-128359051D02*
X84417232Y-128359051D01*
X85767232Y-128359051D02*
G75*
G02X86767232Y-129359051I0J-1000000D01*
G01*
X86767232Y-135359051D02*
X86767232Y-129359051D01*
X97917232Y-129359051D02*
X97917232Y-135359051D01*
X97917232Y-129359051D02*
G75*
G02X99917232Y-129359051I1000000J0D01*
G01*
X99917232Y-135359051D02*
X99917232Y-129359051D01*
X137067232Y-136759051D02*
X124567232Y-136759051D01*
X137067232Y-136759051D02*
X138067232Y-135759051D01*
X138067232Y-135359051D02*
X138067232Y-135759051D01*
X123567232Y-135759051D02*
X123567232Y-135359051D01*
X123567232Y-135759051D02*
X124567232Y-136759051D01*
X120067232Y-136759051D02*
X100917232Y-136759051D01*
X120067232Y-136759051D02*
X121067232Y-135759051D01*
X121067232Y-135359051D02*
X121067232Y-135759051D01*
X99917232Y-135759051D02*
X99917232Y-135359051D01*
X99917232Y-135759051D02*
X100917232Y-136759051D01*
D11*
X105300000Y-118940000D03*
M02*
