M48
;DRILL file {KiCad 4.0.7} date 09/09/17 19:34:43
;FORMAT={-:-/ absolute / metric / decimal}
FMAT,2
METRIC,TZ
T1C0.200
T2C0.600
T3C0.850
T4C1.000
T5C1.016
%
G90
G05
M71
T1
X85.545Y-112.24
X87.49Y-121.67
X88.52Y-113.36
X88.85Y-129.755
X89.162Y-112.588
X89.375Y-123.211
X89.406Y-123.903
X89.662Y-129.667
X89.738Y-127.36
X90.403Y-127.36
X90.602Y-129.616
X90.982Y-127.203
X91.02Y-112.64
X91.16Y-118.59
X91.288Y-113.106
X91.44Y-129.972
X91.47Y-126.765
X91.8Y-129.43
X92.329Y-129.972
X92.535Y-121.48
X92.539Y-125.395
X92.65Y-122.11
X92.713Y-123.07
X92.878Y-125.89
X93.052Y-122.575
X93.345Y-130.683
X93.853Y-130.353
X93.878Y-128.6
X94.615Y-127.914
X94.84Y-125.1
X97.409Y-130.683
X99.365Y-100.
X99.949Y-106.147
X100.457Y-106.502
X100.89Y-129.5
X100.914Y-118.44
X100.99Y-119.151
X101.439Y-130.91
X101.44Y-129.06
X102.438Y-104.75
X102.56Y-128.41
X102.8Y-129.111
X103.45Y-128.71
X104.538Y-128.987
X105.409Y-130.762
X107.12Y-128.75
X107.442Y-130.683
X109.474Y-130.683
X110.007Y-100.
X110.465Y-103.445
X111.028Y-103.65
X111.28Y-99.3
X111.39Y-109.06
X111.61Y-130.59
X111.91Y-128.28
X112.57Y-99.31
X113.284Y-130.175
X113.52Y-99.3
X113.919Y-130.683
X114.15Y-103.93
X115.01Y-99.37
X115.22Y-128.15
X115.24Y-127.42
X115.357Y-102.515
X115.443Y-130.683
X115.469Y-111.477
X115.722Y-106.415
X115.945Y-101.371
X116.137Y-117.99
X116.14Y-117.39
X116.434Y-108.179
X116.71Y-115.23
X116.881Y-102.005
X117.21Y-113.06
X117.3Y-123.38
X117.38Y-125.36
X117.65Y-116.4
X117.67Y-130.36
X117.704Y-109.626
X117.869Y-118.97
X117.88Y-119.57
X118.07Y-127.53
X118.2Y-101.53
X118.7Y-123.1
X118.95Y-124.85
X119.1Y-127.62
X119.82Y-100.66
X120.05Y-123.96
X120.396Y-130.683
X120.472Y-116.51
X120.523Y-118.999
X120.625Y-117.526
X120.74Y-109.88
X120.83Y-113.68
X120.971Y-108.24
X121.14Y-107.29
X121.19Y-124.49
X121.439Y-108.712
X121.48Y-109.662
X121.513Y-107.762
X121.63Y-113.78
X121.645Y-118.39
X121.66Y-99.52
X121.738Y-124.82
X122.11Y-106.985
X122.29Y-125.175
X122.345Y-114.095
X122.358Y-123.87
X122.76Y-115.97
X122.79Y-107.395
X122.81Y-126.855
X122.82Y-102.27
X123.33Y-103.52
X123.452Y-123.56
X123.541Y-115.291
X123.985Y-117.32
X124.08Y-111.72
X124.146Y-112.316
X124.29Y-119.65
X124.32Y-107.165
X124.399Y-117.755
X124.46Y-130.175
X124.52Y-113.74
X124.545Y-126.58
X124.61Y-103.639
X124.68Y-102.265
X124.86Y-104.43
X124.88Y-113.02
X124.96Y-112.3
X125.054Y-99.367
X125.476Y-129.54
X125.68Y-103.49
X125.815Y-107.13
X125.857Y-99.345
X126.13Y-102.265
X126.305Y-113.62
X126.86Y-110.49
X127.Y-129.54
X127.09Y-103.88
X127.15Y-116.54
X127.16Y-126.42
X127.28Y-102.265
X127.381Y-130.683
X127.54Y-127.18
X127.584Y-118.948
X127.635Y-120.421
X127.66Y-118.23
X127.67Y-125.64
X127.889Y-129.921
X128.19Y-126.35
X128.22Y-103.88
X128.61Y-102.31
X128.9Y-126.98
X128.98Y-116.55
X129.09Y-103.38
X129.413Y-130.683
X129.45Y-128.04
X129.691Y-125.918
X129.76Y-99.36
X130.119Y-124.575
X130.13Y-103.72
X130.182Y-125.559
X130.27Y-102.42
X130.351Y-107.335
X130.429Y-120.777
X130.429Y-130.175
X130.933Y-106.997
X130.952Y-113.119
X131.222Y-123.984
X131.445Y-129.475
X131.54Y-106.56
X131.671Y-101.521
X131.82Y-112.625
X132.069Y-106.039
X132.126Y-102.825
X132.334Y-130.175
X132.366Y-104.125
X132.673Y-105.547
X133.35Y-130.683
X133.426Y-120.498
X134.08Y-110.93
X134.239Y-120.498
X134.37Y-129.65
X134.435Y-105.575
X134.83Y-110.97
X134.95Y-104.89
X135.284Y-110.538
X135.382Y-130.683
X135.51Y-103.62
X135.66Y-104.29
X135.78Y-110.92
X136.15Y-103.12
X136.226Y-103.815
X136.373Y-120.498
X136.4Y-115.13
X137.165Y-114.836
X137.513Y-103.33
X137.52Y-123.39
X137.68Y-99.385
X137.986Y-115.189
X138.25Y-115.91
X138.34Y-103.41
X138.71Y-102.35
X139.268Y-115.087
X139.44Y-102.97
X139.446Y-108.143
X139.546Y-101.085
X141.29Y-101.57
X141.73Y-99.55
X142.113Y-110.566
X142.63Y-116.98
X143.129Y-129.819
X143.37Y-115.75
X143.383Y-130.683
X143.58Y-116.91
X143.688Y-120.193
X144.158Y-100.909
X144.247Y-108.636
X144.247Y-119.761
X144.399Y-129.896
X144.41Y-116.87
X144.966Y-113.16
X145.22Y-111.47
X145.415Y-130.683
X145.767Y-109.978
X145.847Y-129.896
X146.2Y-111.82
X146.253Y-111.074
X146.31Y-125.605
X146.35Y-106.54
X146.355Y-108.255
X147.57Y-130.3
X147.98Y-112.522
X148.395Y-114.028
X148.6Y-129.81
X148.9Y-116.88
X149.09Y-113.09
X149.479Y-130.683
X149.68Y-105.52
X150.04Y-118.45
X150.61Y-118.11
X150.72Y-117.51
X150.95Y-104.78
X151.028Y-129.311
X151.384Y-130.683
X152.005Y-103.826
X152.121Y-113.741
X152.18Y-119.54
X152.199Y-98.451
X152.369Y-125.605
X152.603Y-115.494
X153.232Y-103.663
X153.26Y-127.86
X153.94Y-129.45
X154.035Y-107.32
X154.18Y-127.88
X154.837Y-101.991
X155.215Y-129.59
X155.321Y-108.712
X155.448Y-130.683
X155.804Y-108.737
X155.905Y-111.074
X156.11Y-127.05
X156.37Y-101.262
X156.384Y-126.006
X156.615Y-130.16
X157.14Y-114.71
X157.21Y-118.44
X157.32Y-113.92
X157.455Y-109.499
X157.48Y-130.683
X157.886Y-111.582
X158.08Y-129.67
X158.177Y-105.288
X158.62Y-128.45
X158.852Y-106.248
X158.86Y-98.2
X158.89Y-93.945
X159.791Y-109.626
X160.02Y-104.013
X160.045Y-101.219
X160.06Y-129.68
X160.23Y-93.11
X160.782Y-98.933
X160.807Y-103.149
X161.087Y-129.743
X161.417Y-130.683
X161.56Y-94.34
X161.68Y-112.15
X161.937Y-106.184
X161.937Y-107.684
X162.43Y-129.4
X162.67Y-122.268
X162.84Y-95.01
X163.246Y-129.565
X163.322Y-130.683
X163.37Y-119.95
X163.437Y-106.184
X163.437Y-107.684
X163.52Y-122.27
X163.551Y-115.24
X163.551Y-115.824
X163.673Y-123.069
X163.754Y-113.538
X163.932Y-112.293
X164.12Y-93.44
X164.37Y-102.3
X164.38Y-101.71
X164.45Y-129.38
X164.59Y-100.09
X164.729Y-100.529
X165.1Y-130.175
X165.913Y-109.677
X166.345Y-124.019
X166.397Y-104.672
X166.49Y-105.684
X166.498Y-106.334
X166.649Y-108.229
X166.98Y-129.87
X167.157Y-123.927
X167.386Y-130.683
X167.996Y-123.901
X168.529Y-111.705
X168.834Y-103.226
X168.834Y-126.975
X168.88Y-100.79
X168.88Y-101.31
X169.189Y-105.359
X169.24Y-104.978
X169.418Y-130.683
X169.977Y-107.671
X170.231Y-126.975
X170.383Y-125.857
X170.637Y-123.622
X171.044Y-125.12
X171.196Y-124.206
X171.247Y-119.355
X171.298Y-118.313
X171.323Y-116.103
X171.323Y-117.145
X171.348Y-113.919
X171.348Y-114.986
X172.085Y-112.293
X172.94Y-126.55
T3
X88.684Y-103.164
X88.684Y-108.164
X170.175Y-101.157
X170.175Y-106.157
T4
X92.801Y-94.861
X92.801Y-97.401
X95.341Y-94.861
X95.341Y-97.401
X97.881Y-94.861
X97.881Y-97.401
X100.421Y-94.861
X100.421Y-97.401
X102.961Y-94.861
X102.961Y-97.401
X105.501Y-94.861
X105.501Y-97.401
X108.041Y-94.861
X108.041Y-97.401
X110.581Y-94.861
X110.581Y-97.401
X113.121Y-94.861
X113.121Y-97.401
X115.661Y-94.861
X115.661Y-97.401
X118.201Y-94.861
X118.201Y-97.401
X120.741Y-94.861
X120.741Y-97.401
X123.281Y-94.861
X123.281Y-97.401
X125.821Y-94.861
X125.821Y-97.401
X128.361Y-94.861
X128.361Y-97.401
X130.901Y-94.861
X130.901Y-97.401
X133.441Y-94.861
X133.441Y-97.401
X135.981Y-94.861
X135.981Y-97.401
X138.521Y-94.861
X138.521Y-97.401
X141.061Y-94.861
X141.061Y-97.401
X171.074Y-93.411
X171.074Y-98.411
T5
X95.331Y-101.854
X95.331Y-104.394
X95.331Y-106.934
X95.331Y-109.474
T2
X86.334Y-102.164G85X85.634Y-102.164
G05
X86.334Y-109.164G85X85.634Y-109.164
G05
X172.525Y-100.157G85X173.225Y-100.157
G05
X172.525Y-107.157G85X173.225Y-107.157
G05
T0
M30
