G04 #@! TF.FileFunction,Paste,Bot*
%FSLAX46Y46*%
G04 Gerber Fmt 4.6, Leading zero omitted, Abs format (unit mm)*
G04 Created by KiCad (PCBNEW 4.0.7) date 09/09/17 19:36:50*
%MOMM*%
%LPD*%
G01*
G04 APERTURE LIST*
%ADD10C,0.100000*%
%ADD11R,0.400000X0.600000*%
%ADD12R,0.600000X0.500000*%
%ADD13R,0.600000X0.400000*%
%ADD14R,0.750000X0.800000*%
%ADD15R,0.500000X0.600000*%
%ADD16R,0.700000X1.300000*%
%ADD17R,1.000000X1.400000*%
%ADD18R,0.900000X0.900000*%
%ADD19R,0.900000X1.100000*%
%ADD20R,0.900000X0.500000*%
%ADD21R,1.270000X5.080000*%
%ADD22R,0.650000X1.060000*%
%ADD23R,1.400000X1.000000*%
%ADD24R,2.000000X2.000000*%
G04 APERTURE END LIST*
D10*
X86767232Y-135759051D02*
X86767232Y-135359051D01*
X97917232Y-135359051D02*
X97917232Y-135759051D01*
X96917232Y-136759051D02*
X87767232Y-136759051D01*
X96917232Y-136759051D02*
X97917232Y-135759051D01*
X86767232Y-135759051D02*
X87767232Y-136759051D01*
X155417232Y-91959051D02*
X155417232Y-128359051D01*
X84417232Y-128359051D02*
X84417232Y-91959051D01*
X84417232Y-91959051D02*
X155417232Y-91959051D01*
X121067232Y-129359051D02*
X121067232Y-135359051D01*
X121067232Y-129359051D02*
G75*
G02X122067232Y-128359051I1000000J0D01*
G01*
X122567232Y-128359051D02*
X122067232Y-128359051D01*
X122567232Y-128359051D02*
G75*
G02X123567232Y-129359051I0J-1000000D01*
G01*
X123567232Y-135359051D02*
X123567232Y-129359051D01*
X138067232Y-129359051D02*
X138067232Y-135359051D01*
X138067232Y-129359051D02*
G75*
G02X139067232Y-128359051I1000000J0D01*
G01*
X155417232Y-128359051D02*
X139067232Y-128359051D01*
X85767232Y-128359051D02*
X84417232Y-128359051D01*
X85767232Y-128359051D02*
G75*
G02X86767232Y-129359051I0J-1000000D01*
G01*
X86767232Y-135359051D02*
X86767232Y-129359051D01*
X97917232Y-129359051D02*
X97917232Y-135359051D01*
X97917232Y-129359051D02*
G75*
G02X99917232Y-129359051I1000000J0D01*
G01*
X99917232Y-135359051D02*
X99917232Y-129359051D01*
X137067232Y-136759051D02*
X124567232Y-136759051D01*
X137067232Y-136759051D02*
X138067232Y-135759051D01*
X138067232Y-135359051D02*
X138067232Y-135759051D01*
X123567232Y-135759051D02*
X123567232Y-135359051D01*
X123567232Y-135759051D02*
X124567232Y-136759051D01*
X120067232Y-136759051D02*
X100917232Y-136759051D01*
X120067232Y-136759051D02*
X121067232Y-135759051D01*
X121067232Y-135359051D02*
X121067232Y-135759051D01*
X99917232Y-135759051D02*
X99917232Y-135359051D01*
X99917232Y-135759051D02*
X100917232Y-136759051D01*
D11*
X151579200Y-111988600D03*
X150679200Y-111988600D03*
D12*
X141359000Y-100330000D03*
X142459000Y-100330000D03*
D13*
X136702000Y-102177000D03*
X136702000Y-101277000D03*
D14*
X148106600Y-102221600D03*
X148106600Y-103721600D03*
D15*
X151434000Y-118322000D03*
X151434000Y-119422000D03*
D12*
X147640600Y-112598200D03*
X146540600Y-112598200D03*
D16*
X148193000Y-100584000D03*
X146293000Y-100584000D03*
D13*
X146684200Y-106331600D03*
X146684200Y-107231600D03*
X147776400Y-109822400D03*
X147776400Y-108922400D03*
X143941000Y-113276800D03*
X143941000Y-112376800D03*
D15*
X146354000Y-104182000D03*
X146354000Y-103082000D03*
D11*
X136125000Y-103505000D03*
X137025000Y-103505000D03*
D13*
X139877000Y-107754000D03*
X139877000Y-108654000D03*
D17*
X142681200Y-111386800D03*
X140781200Y-111386800D03*
X141731200Y-109186800D03*
D18*
X149200000Y-109600000D03*
D19*
X151600000Y-109600000D03*
D20*
X148513000Y-118987000D03*
X148513000Y-117487000D03*
X150037000Y-117487000D03*
X150037000Y-118987000D03*
D18*
X145217500Y-111188500D03*
D19*
X147617500Y-111188500D03*
D15*
X147243000Y-115459600D03*
X147243000Y-114359600D03*
D13*
X113538000Y-125305400D03*
X113538000Y-126205400D03*
X112110000Y-127510000D03*
X112110000Y-128410000D03*
D21*
X115086900Y-118414800D03*
X93116900Y-118414800D03*
D13*
X138740000Y-107760000D03*
X138740000Y-108660000D03*
D11*
X130740000Y-100740000D03*
X131640000Y-100740000D03*
X130750000Y-102060000D03*
X131650000Y-102060000D03*
D22*
X140065000Y-103462000D03*
X139115000Y-103462000D03*
X138165000Y-103462000D03*
X138165000Y-101262000D03*
X140065000Y-101262000D03*
D13*
X134860000Y-101290000D03*
X134860000Y-102190000D03*
X89230000Y-123010000D03*
X89230000Y-123910000D03*
X86120000Y-123030000D03*
X86120000Y-123930000D03*
D23*
X86970000Y-117880000D03*
X86970000Y-115980000D03*
X89170000Y-116930000D03*
D24*
X133370000Y-110780000D03*
X133370000Y-107680000D03*
D22*
X88570000Y-121780000D03*
X87620000Y-121780000D03*
X86670000Y-121780000D03*
X86670000Y-119580000D03*
X88570000Y-119580000D03*
X87620000Y-119580000D03*
X148706000Y-113581000D03*
X149656000Y-113581000D03*
X150606000Y-113581000D03*
X150606000Y-115781000D03*
X148706000Y-115781000D03*
M02*
