M48
;DRILL file {KiCad 4.0.7} date 09/09/17 19:36:52
;FORMAT={-:-/ absolute / metric / decimal}
FMAT,2
METRIC,TZ
T1C0.200
T2C0.600
T3C0.850
T4C1.000
T5C1.016
%
G90
G05
M71
T1
X85.99Y-112.3
X86.11Y-124.63
X87.198Y-123.114
X88.697Y-129.692
X89.662Y-129.667
X90.602Y-129.616
X91.288Y-113.106
X91.44Y-129.972
X91.961Y-117.564
X92.329Y-129.972
X93.294Y-129.743
X93.345Y-130.683
X93.853Y-130.353
X94.31Y-127.98
X94.957Y-129.755
X95.936Y-130.759
X96.96Y-128.87
X97.409Y-130.683
X98.3Y-100.4
X98.438Y-104.61
X98.527Y-106.934
X98.9Y-100.5
X99.6Y-100.5
X99.898Y-106.553
X100.482Y-106.553
X100.914Y-118.44
X100.914Y-130.073
X100.99Y-119.151
X101.09Y-129.02
X101.473Y-130.683
X101.77Y-129.91
X102.591Y-106.197
X102.618Y-129.747
X103.151Y-130.835
X104.471Y-130.204
X105.13Y-129.
X105.37Y-131.064
X105.827Y-130.172
X107.Y-129.645
X107.365Y-130.835
X108.119Y-129.795
X108.719Y-130.145
X109.426Y-130.845
X111.007Y-130.615
X111.85Y-130.615
X112.7Y-126.565
X113.03Y-110.715
X113.413Y-126.845
X113.827Y-112.008
X114.095Y-130.615
X114.5Y-123.44
X114.55Y-124.39
X114.785Y-130.615
X115.05Y-106.8
X115.418Y-121.666
X115.443Y-130.683
X115.486Y-122.784
X115.65Y-113.37
X115.67Y-114.37
X116.323Y-111.417
X116.381Y-129.08
X116.62Y-105.4
X116.63Y-104.54
X116.637Y-114.3
X116.78Y-128.632
X117.094Y-119.939
X117.38Y-130.14
X117.5Y-120.421
X117.653Y-117.297
X117.78Y-113.741
X117.913Y-129.163
X119.634Y-130.429
X120.174Y-122.003
X120.269Y-116.357
X120.396Y-130.683
X120.43Y-115.01
X120.5Y-121.42
X120.625Y-111.633
X121.183Y-107.29
X121.316Y-119.296
X121.477Y-119.995
X121.611Y-120.786
X121.793Y-100.025
X121.89Y-121.64
X121.92Y-109.817
X122.593Y-100.609
X123.22Y-110.965
X123.38Y-125.77
X123.495Y-101.27
X124.25Y-116.66
X124.346Y-102.006
X124.46Y-120.77
X124.49Y-129.393
X124.667Y-126.847
X124.917Y-130.404
X125.095Y-109.855
X125.3Y-117.12
X125.374Y-113.409
X125.552Y-110.49
X125.882Y-105.207
X125.95Y-128.29
X126.086Y-113.36
X127.241Y-112.905
X127.279Y-129.984
X127.349Y-121.457
X127.432Y-130.835
X127.46Y-123.184
X127.51Y-126.39
X127.84Y-129.21
X127.864Y-125.654
X128.06Y-121.5
X128.35Y-129.98
X128.448Y-118.237
X128.448Y-118.948
X128.47Y-111.22
X128.74Y-102.51
X129.355Y-128.255
X129.413Y-130.797
X129.68Y-111.09
X129.731Y-130.023
X129.76Y-122.9
X129.837Y-125.705
X129.972Y-120.65
X130.48Y-112.45
X130.581Y-125.755
X130.64Y-121.44
X130.86Y-107.21
X131.394Y-119.253
X131.42Y-107.467
X131.52Y-104.63
X131.674Y-110.541
X131.75Y-126.89
X131.895Y-126.238
X132.867Y-129.984
X133.045Y-117.577
X133.058Y-119.926
X133.096Y-118.288
X133.426Y-130.785
X133.57Y-101.96
X133.618Y-101.28
X133.65Y-105.45
X133.83Y-126.42
X134.13Y-105.825
X134.99Y-129.97
X135.42Y-130.772
X135.68Y-129.47
X135.941Y-107.302
X135.992Y-107.734
X136.04Y-115.27
X136.144Y-113.005
X136.31Y-109.73
X136.732Y-124.061
X136.834Y-112.975
X136.906Y-117.983
X138.176Y-117.005
X138.68Y-115.98
X138.73Y-109.438
X138.89Y-121.35
X139.05Y-122.99
X139.247Y-105.135
X139.411Y-119.381
X139.457Y-114.897
X139.65Y-120.11
X139.852Y-106.248
X139.96Y-114.47
X140.18Y-120.78
X140.45Y-100.32
X140.894Y-109.626
X141.02Y-104.013
X141.59Y-113.02
X141.87Y-112.37
X141.884Y-103.012
X142.937Y-106.184
X142.937Y-107.684
X143.918Y-101.34
X144.437Y-106.184
X144.437Y-107.684
X144.5Y-101.57
X144.754Y-113.538
X145.16Y-112.15
X145.77Y-102.48
X145.79Y-101.95
X146.867Y-109.631
X147.399Y-104.439
X147.497Y-106.223
X147.574Y-98.933
X147.649Y-108.229
X148.15Y-105.179
X149.4Y-111.8
X149.834Y-103.226
X150.Y-101.24
X150.14Y-101.97
X150.2Y-104.84
X151.Y-107.94
X151.812Y-108.612
X152.08Y-119.41
X152.121Y-113.919
X152.121Y-115.062
X152.121Y-116.129
X152.121Y-118.288
X152.17Y-117.21
X153.085Y-112.293
T3
X88.684Y-103.164
X88.684Y-108.164
X151.175Y-101.157
X151.175Y-106.157
T4
X92.801Y-94.861
X92.801Y-97.401
X95.341Y-94.861
X95.341Y-97.401
X97.881Y-94.861
X97.881Y-97.401
X100.421Y-94.861
X100.421Y-97.401
X102.961Y-94.861
X102.961Y-97.401
X105.501Y-94.861
X105.501Y-97.401
X108.041Y-94.861
X108.041Y-97.401
X110.581Y-94.861
X110.581Y-97.401
X113.121Y-94.861
X113.121Y-97.401
X115.661Y-94.861
X115.661Y-97.401
X118.201Y-94.861
X118.201Y-97.401
X120.741Y-94.861
X120.741Y-97.401
X123.281Y-94.861
X123.281Y-97.401
X125.821Y-94.861
X125.821Y-97.401
X128.361Y-94.861
X128.361Y-97.401
X130.901Y-94.861
X130.901Y-97.401
X133.441Y-94.861
X133.441Y-97.401
X135.981Y-94.861
X135.981Y-97.401
X138.521Y-94.861
X138.521Y-97.401
X141.061Y-94.861
X141.061Y-97.401
X152.074Y-93.411
X152.074Y-98.411
T5
X95.331Y-101.854
X95.331Y-104.394
X95.331Y-106.934
X95.331Y-109.474
T2
X86.334Y-102.164G85X85.634Y-102.164
G05
X86.334Y-109.164G85X85.634Y-109.164
G05
X153.525Y-100.157G85X154.225Y-100.157
G05
X153.525Y-107.157G85X154.225Y-107.157
G05
T0
M30
