G04 #@! TF.FileFunction,Legend,Top*
%FSLAX46Y46*%
G04 Gerber Fmt 4.6, Leading zero omitted, Abs format (unit mm)*
G04 Created by KiCad (PCBNEW 4.0.7) date 09/09/17 19:36:50*
%MOMM*%
%LPD*%
G01*
G04 APERTURE LIST*
%ADD10C,0.100000*%
%ADD11C,0.150000*%
G04 APERTURE END LIST*
D10*
X86767232Y-135759051D02*
X86767232Y-135359051D01*
X97917232Y-135359051D02*
X97917232Y-135759051D01*
X96917232Y-136759051D02*
X87767232Y-136759051D01*
X96917232Y-136759051D02*
X97917232Y-135759051D01*
X86767232Y-135759051D02*
X87767232Y-136759051D01*
X155417232Y-91959051D02*
X155417232Y-128359051D01*
X84417232Y-128359051D02*
X84417232Y-91959051D01*
X84417232Y-91959051D02*
X155417232Y-91959051D01*
X121067232Y-129359051D02*
X121067232Y-135359051D01*
X121067232Y-129359051D02*
G75*
G02X122067232Y-128359051I1000000J0D01*
G01*
X122567232Y-128359051D02*
X122067232Y-128359051D01*
X122567232Y-128359051D02*
G75*
G02X123567232Y-129359051I0J-1000000D01*
G01*
X123567232Y-135359051D02*
X123567232Y-129359051D01*
X138067232Y-129359051D02*
X138067232Y-135359051D01*
X138067232Y-129359051D02*
G75*
G02X139067232Y-128359051I1000000J0D01*
G01*
X155417232Y-128359051D02*
X139067232Y-128359051D01*
X85767232Y-128359051D02*
X84417232Y-128359051D01*
X85767232Y-128359051D02*
G75*
G02X86767232Y-129359051I0J-1000000D01*
G01*
X86767232Y-135359051D02*
X86767232Y-129359051D01*
X97917232Y-129359051D02*
X97917232Y-135359051D01*
X97917232Y-129359051D02*
G75*
G02X99917232Y-129359051I1000000J0D01*
G01*
X99917232Y-135359051D02*
X99917232Y-129359051D01*
X137067232Y-136759051D02*
X124567232Y-136759051D01*
X137067232Y-136759051D02*
X138067232Y-135759051D01*
X138067232Y-135359051D02*
X138067232Y-135759051D01*
X123567232Y-135759051D02*
X123567232Y-135359051D01*
X123567232Y-135759051D02*
X124567232Y-136759051D01*
X120067232Y-136759051D02*
X100917232Y-136759051D01*
X120067232Y-136759051D02*
X121067232Y-135759051D01*
X121067232Y-135359051D02*
X121067232Y-135759051D01*
X99917232Y-135759051D02*
X99917232Y-135359051D01*
X99917232Y-135759051D02*
X100917232Y-136759051D01*
D11*
X141278000Y-102837000D02*
X141778000Y-102837000D01*
X141778000Y-101887000D02*
X141278000Y-101887000D01*
X146687000Y-109134000D02*
X146687000Y-109934000D01*
X146687000Y-109934000D02*
X145887000Y-109934000D01*
X146187000Y-109184000D02*
X145937000Y-109434000D01*
X141437000Y-109434000D02*
X141187000Y-109434000D01*
X141187000Y-109434000D02*
X141187000Y-109184000D01*
X145937000Y-104434000D02*
X146187000Y-104434000D01*
X146187000Y-104434000D02*
X146187000Y-104684000D01*
X141437000Y-104434000D02*
X141187000Y-104434000D01*
X141187000Y-104434000D02*
X141187000Y-104684000D01*
X129475000Y-105300000D02*
X129475000Y-104800000D01*
X128425000Y-104800000D02*
X128425000Y-105300000D01*
X97291000Y-105046000D02*
X97791000Y-105046000D01*
X97791000Y-103996000D02*
X97291000Y-103996000D01*
X153427800Y-122052800D02*
X153427800Y-123152800D01*
X153427800Y-123152800D02*
X151227800Y-123152800D01*
X150527800Y-112052800D02*
X153427800Y-112052800D01*
X153427800Y-112052800D02*
X153427800Y-113452800D01*
X145327800Y-113952800D02*
X145327800Y-112152800D01*
X145827800Y-123052800D02*
X145427800Y-123052800D01*
X145427800Y-123052800D02*
X145427800Y-121452800D01*
X127144000Y-103501000D02*
X127144000Y-103001000D01*
X126094000Y-103001000D02*
X126094000Y-103501000D01*
X143190000Y-115105000D02*
X142690000Y-115105000D01*
X142690000Y-116155000D02*
X143190000Y-116155000D01*
X125382000Y-106049000D02*
X125382000Y-106549000D01*
X126332000Y-106549000D02*
X126332000Y-106049000D01*
X139402000Y-103255000D02*
X139402000Y-103755000D01*
X140352000Y-103755000D02*
X140352000Y-103255000D01*
X137714000Y-106840000D02*
X137214000Y-106840000D01*
X137214000Y-107790000D02*
X137714000Y-107790000D01*
X100676000Y-103790000D02*
X100676000Y-104490000D01*
X99476000Y-104490000D02*
X99476000Y-103790000D01*
X126292800Y-126763800D02*
X126792800Y-126763800D01*
X126792800Y-125813800D02*
X126292800Y-125813800D01*
X116361400Y-115511600D02*
X116861400Y-115511600D01*
X116861400Y-114561600D02*
X116361400Y-114561600D01*
X147530000Y-104779000D02*
X147530000Y-105279000D01*
X148480000Y-105279000D02*
X148480000Y-104779000D01*
X148435000Y-99170000D02*
X148435000Y-98170000D01*
X149785000Y-98170000D02*
X149785000Y-99170000D01*
X95030000Y-112155000D02*
X94030000Y-112155000D01*
X94030000Y-110805000D02*
X95030000Y-110805000D01*
X97952000Y-100852000D02*
X99152000Y-100852000D01*
X99152000Y-102602000D02*
X97952000Y-102602000D01*
X148517000Y-108602000D02*
X149017000Y-108602000D01*
X149017000Y-107552000D02*
X148517000Y-107552000D01*
X149398000Y-106409000D02*
X148898000Y-106409000D01*
X148898000Y-107459000D02*
X149398000Y-107459000D01*
X115460000Y-108962000D02*
X115460000Y-108462000D01*
X114410000Y-108462000D02*
X114410000Y-108962000D01*
X116603000Y-108962000D02*
X116603000Y-108462000D01*
X115553000Y-108462000D02*
X115553000Y-108962000D01*
X97791000Y-106409000D02*
X97291000Y-106409000D01*
X97291000Y-107459000D02*
X97791000Y-107459000D01*
X101998000Y-103628000D02*
X101998000Y-103128000D01*
X100948000Y-103128000D02*
X100948000Y-103628000D01*
X101998000Y-105406000D02*
X101998000Y-104906000D01*
X100948000Y-104906000D02*
X100948000Y-105406000D01*
X141990000Y-101744000D02*
X142490000Y-101744000D01*
X142490000Y-100694000D02*
X141990000Y-100694000D01*
X127779000Y-105533000D02*
X127779000Y-105033000D01*
X126729000Y-105033000D02*
X126729000Y-105533000D01*
X125747000Y-103501000D02*
X125747000Y-103001000D01*
X124697000Y-103001000D02*
X124697000Y-103501000D01*
X123969000Y-103501000D02*
X123969000Y-103001000D01*
X122919000Y-103001000D02*
X122919000Y-103501000D01*
X123080000Y-105533000D02*
X123080000Y-105033000D01*
X122030000Y-105033000D02*
X122030000Y-105533000D01*
X122318000Y-103501000D02*
X122318000Y-103001000D01*
X121268000Y-103001000D02*
X121268000Y-103501000D01*
X124604000Y-105533000D02*
X124604000Y-105033000D01*
X123554000Y-105033000D02*
X123554000Y-105533000D01*
X116336000Y-114063000D02*
X116836000Y-114063000D01*
X116836000Y-113013000D02*
X116336000Y-113013000D01*
X140402000Y-111121000D02*
X140402000Y-110621000D01*
X139352000Y-110621000D02*
X139352000Y-111121000D01*
X141672000Y-112010000D02*
X141672000Y-111510000D01*
X140622000Y-111510000D02*
X140622000Y-112010000D01*
X131225000Y-105330000D02*
X131225000Y-104830000D01*
X130175000Y-104830000D02*
X130175000Y-105330000D01*
X128955000Y-103550000D02*
X128955000Y-103050000D01*
X127905000Y-103050000D02*
X127905000Y-103550000D01*
X139767000Y-109241400D02*
X139767000Y-108741400D01*
X138717000Y-108741400D02*
X138717000Y-109241400D01*
X117619000Y-116709000D02*
X117619000Y-116209000D01*
X116569000Y-116209000D02*
X116569000Y-116709000D01*
X139483000Y-103829000D02*
X139483000Y-103029000D01*
X139483000Y-103029000D02*
X138683000Y-103029000D01*
X135983000Y-106729000D02*
X134983000Y-106729000D01*
X134983000Y-106729000D02*
X134983000Y-105829000D01*
X139183000Y-104329000D02*
X139183000Y-103329000D01*
X139183000Y-103329000D02*
X138183000Y-103329000D01*
X154474080Y-93411040D02*
X155374080Y-93411040D01*
X155374080Y-93411040D02*
X155374080Y-98411040D01*
X155374080Y-98411040D02*
X154474080Y-98411040D01*
X154474080Y-92311040D02*
X150474080Y-92311040D01*
X150474080Y-92311040D02*
X150474080Y-99511040D01*
X150474080Y-99511040D02*
X154474080Y-99511040D01*
X154474080Y-99511040D02*
X154474080Y-92311040D01*
X148673000Y-104779000D02*
X148673000Y-105279000D01*
X149623000Y-105279000D02*
X149623000Y-104779000D01*
X120286000Y-105533000D02*
X120286000Y-105033000D01*
X119236000Y-105033000D02*
X119236000Y-105533000D01*
X117746000Y-108962000D02*
X117746000Y-108462000D01*
X116696000Y-108462000D02*
X116696000Y-108962000D01*
X90975000Y-111250000D02*
X90975000Y-111750000D01*
X92025000Y-111750000D02*
X92025000Y-111250000D01*
X89675000Y-111250000D02*
X89675000Y-111750000D01*
X90725000Y-111750000D02*
X90725000Y-111250000D01*
X86020000Y-113925000D02*
X86520000Y-113925000D01*
X86520000Y-112875000D02*
X86020000Y-112875000D01*
X143180000Y-113825000D02*
X142680000Y-113825000D01*
X142680000Y-114875000D02*
X143180000Y-114875000D01*
X154185000Y-109980000D02*
X154185000Y-109480000D01*
X153135000Y-109480000D02*
X153135000Y-109980000D01*
X137283000Y-116492000D02*
X136783000Y-116492000D01*
X136783000Y-117442000D02*
X137283000Y-117442000D01*
X136876600Y-108605300D02*
X136376600Y-108605300D01*
X136376600Y-109555300D02*
X136876600Y-109555300D01*
X140410000Y-116320000D02*
X140410000Y-117020000D01*
X139210000Y-117020000D02*
X139210000Y-116320000D01*
X137206800Y-118346200D02*
X136706800Y-118346200D01*
X136706800Y-119296200D02*
X137206800Y-119296200D01*
X116336000Y-123284000D02*
X116836000Y-123284000D01*
X116836000Y-122334000D02*
X116336000Y-122334000D01*
X136050000Y-111002000D02*
X136050000Y-111502000D01*
X137000000Y-111502000D02*
X137000000Y-111002000D01*
X120683000Y-105541000D02*
X120683000Y-106041000D01*
X121633000Y-106041000D02*
X121633000Y-105541000D01*
X138737900Y-111639400D02*
X137537900Y-111639400D01*
X138737900Y-112439400D02*
X137537900Y-112439400D01*
X137537900Y-112439400D02*
X138137900Y-111739400D01*
X138137900Y-111739400D02*
X138737900Y-112439400D01*
X138937900Y-114039400D02*
X138937900Y-110039400D01*
X138937900Y-110039400D02*
X137337900Y-110039400D01*
X137337900Y-110039400D02*
X137337900Y-114039400D01*
X137337900Y-114039400D02*
X138937900Y-114039400D01*
X111915500Y-110051900D02*
X110715500Y-110051900D01*
X111915500Y-110851900D02*
X110715500Y-110851900D01*
X110715500Y-110851900D02*
X111315500Y-110151900D01*
X111315500Y-110151900D02*
X111915500Y-110851900D01*
X112115500Y-112451900D02*
X112115500Y-108451900D01*
X112115500Y-108451900D02*
X110515500Y-108451900D01*
X110515500Y-108451900D02*
X110515500Y-112451900D01*
X110515500Y-112451900D02*
X112115500Y-112451900D01*
X130415000Y-103530000D02*
X130415000Y-103030000D01*
X129365000Y-103030000D02*
X129365000Y-103530000D01*
X87880000Y-123808000D02*
X87380000Y-123808000D01*
X87380000Y-124858000D02*
X87880000Y-124858000D01*
X89894600Y-113682000D02*
X90394600Y-113682000D01*
X90394600Y-112632000D02*
X89894600Y-112632000D01*
X116336000Y-122191000D02*
X116836000Y-122191000D01*
X116836000Y-121141000D02*
X116336000Y-121141000D01*
X137113200Y-122241800D02*
X137613200Y-122241800D01*
X137613200Y-121191800D02*
X137113200Y-121191800D01*
X89534000Y-101664000D02*
X89534000Y-109664000D01*
X89534000Y-109664000D02*
X84534000Y-109664000D01*
X84534000Y-109664000D02*
X84534000Y-101664000D01*
X84534000Y-101664000D02*
X89534000Y-101664000D01*
X150324940Y-107657400D02*
X150324940Y-99657400D01*
X150324940Y-99657400D02*
X155324940Y-99657400D01*
X155324940Y-99657400D02*
X155324940Y-107657400D01*
X155324940Y-107657400D02*
X150324940Y-107657400D01*
X142331440Y-93591380D02*
X91531440Y-93591380D01*
X139791440Y-98671380D02*
X91531440Y-98671380D01*
X91531440Y-93591380D02*
X91531440Y-98671380D01*
X142331440Y-93591380D02*
X142331440Y-96131380D01*
X141061440Y-98951380D02*
X142611440Y-98951380D01*
X142331440Y-96131380D02*
X139791440Y-96131380D01*
X139791440Y-96131380D02*
X139791440Y-98671380D01*
X142611440Y-98951380D02*
X142611440Y-97401380D01*
X131645000Y-103540000D02*
X131645000Y-103040000D01*
X130595000Y-103040000D02*
X130595000Y-103540000D01*
X128625000Y-101730000D02*
X128625000Y-101230000D01*
X127575000Y-101230000D02*
X127575000Y-101730000D01*
X145675000Y-100910000D02*
X145675000Y-100410000D01*
X144625000Y-100410000D02*
X144625000Y-100910000D01*
X144445000Y-100500000D02*
X144445000Y-100000000D01*
X143395000Y-100000000D02*
X143395000Y-100500000D01*
X86760400Y-125204600D02*
X86760400Y-126204600D01*
X87560400Y-125704600D02*
X87760400Y-125954600D01*
X87760400Y-125454600D02*
X87560400Y-125704600D01*
X87910400Y-125179600D02*
X86860400Y-125179600D01*
X87910400Y-126229600D02*
X86860400Y-126229600D01*
X87000000Y-112400000D02*
X88000000Y-112400000D01*
X87500000Y-111600000D02*
X87750000Y-111400000D01*
X87250000Y-111400000D02*
X87500000Y-111600000D01*
X86975000Y-111250000D02*
X86975000Y-112300000D01*
X88025000Y-111250000D02*
X88025000Y-112300000D01*
X88200000Y-112400000D02*
X89200000Y-112400000D01*
X88700000Y-111600000D02*
X88950000Y-111400000D01*
X88450000Y-111400000D02*
X88700000Y-111600000D01*
X88175000Y-111250000D02*
X88175000Y-112300000D01*
X89225000Y-111250000D02*
X89225000Y-112300000D01*
X85800000Y-112400000D02*
X86800000Y-112400000D01*
X86300000Y-111600000D02*
X86550000Y-111400000D01*
X86050000Y-111400000D02*
X86300000Y-111600000D01*
X85775000Y-111250000D02*
X85775000Y-112300000D01*
X86825000Y-111250000D02*
X86825000Y-112300000D01*
X150700000Y-110560000D02*
X151700000Y-110560000D01*
X151200000Y-109760000D02*
X151450000Y-109560000D01*
X150950000Y-109560000D02*
X151200000Y-109760000D01*
X150675000Y-109410000D02*
X150675000Y-110460000D01*
X151725000Y-109410000D02*
X151725000Y-110460000D01*
X149470000Y-110560000D02*
X150470000Y-110560000D01*
X149970000Y-109760000D02*
X150220000Y-109560000D01*
X149720000Y-109560000D02*
X149970000Y-109760000D01*
X149445000Y-109410000D02*
X149445000Y-110460000D01*
X150495000Y-109410000D02*
X150495000Y-110460000D01*
X151940000Y-110560000D02*
X152940000Y-110560000D01*
X152440000Y-109760000D02*
X152690000Y-109560000D01*
X152190000Y-109560000D02*
X152440000Y-109760000D01*
X151915000Y-109410000D02*
X151915000Y-110460000D01*
X152965000Y-109410000D02*
X152965000Y-110460000D01*
X148660000Y-103180000D02*
X150160000Y-103180000D01*
X150160000Y-103180000D02*
X150160000Y-102080000D01*
X147810000Y-102930000D02*
X148310000Y-102930000D01*
X147810000Y-100030000D02*
X147810000Y-102930000D01*
X148310000Y-100030000D02*
X147810000Y-100030000D01*
X148310000Y-102930000D02*
X148310000Y-100030000D01*
X90507000Y-106264000D02*
X90507000Y-107764000D01*
X90507000Y-107764000D02*
X91607000Y-107764000D01*
X90757000Y-105414000D02*
X90757000Y-105914000D01*
X93657000Y-105414000D02*
X90757000Y-105414000D01*
X93657000Y-105914000D02*
X93657000Y-105414000D01*
X90757000Y-105914000D02*
X93657000Y-105914000D01*
X134073000Y-124233600D02*
X134073000Y-125133600D01*
X134073000Y-125133600D02*
X135473000Y-125133600D01*
X135473000Y-123133600D02*
X135473000Y-125133600D01*
X134073000Y-124233600D02*
X135073000Y-123133600D01*
X135073000Y-123133600D02*
X135473000Y-123133600D01*
X133998000Y-123558600D02*
X133998000Y-122798600D01*
X119748000Y-123558600D02*
X119748000Y-122798600D01*
X119748000Y-109308600D02*
X119748000Y-110068600D01*
X133998000Y-109308600D02*
X133998000Y-110068600D01*
X133998000Y-123558600D02*
X133238000Y-123558600D01*
X133998000Y-109308600D02*
X133238000Y-109308600D01*
X119748000Y-109308600D02*
X120508000Y-109308600D01*
X119748000Y-123558600D02*
X120508000Y-123558600D01*
X133998000Y-122798600D02*
X135523000Y-122798600D01*
X143153334Y-102887143D02*
X143105715Y-102934762D01*
X142962858Y-102982381D01*
X142867620Y-102982381D01*
X142724762Y-102934762D01*
X142629524Y-102839524D01*
X142581905Y-102744286D01*
X142534286Y-102553810D01*
X142534286Y-102410952D01*
X142581905Y-102220476D01*
X142629524Y-102125238D01*
X142724762Y-102030000D01*
X142867620Y-101982381D01*
X142962858Y-101982381D01*
X143105715Y-102030000D01*
X143153334Y-102077619D01*
X144058096Y-101982381D02*
X143581905Y-101982381D01*
X143534286Y-102458571D01*
X143581905Y-102410952D01*
X143677143Y-102363333D01*
X143915239Y-102363333D01*
X144010477Y-102410952D01*
X144058096Y-102458571D01*
X144105715Y-102553810D01*
X144105715Y-102791905D01*
X144058096Y-102887143D01*
X144010477Y-102934762D01*
X143915239Y-102982381D01*
X143677143Y-102982381D01*
X143581905Y-102934762D01*
X143534286Y-102887143D01*
X145824054Y-110157977D02*
X145824054Y-111129406D01*
X145881197Y-111243691D01*
X145938340Y-111300834D01*
X146052626Y-111357977D01*
X146281197Y-111357977D01*
X146395483Y-111300834D01*
X146452626Y-111243691D01*
X146509769Y-111129406D01*
X146509769Y-110157977D01*
X147024054Y-110272263D02*
X147081197Y-110215120D01*
X147195483Y-110157977D01*
X147481197Y-110157977D01*
X147595483Y-110215120D01*
X147652626Y-110272263D01*
X147709769Y-110386549D01*
X147709769Y-110500834D01*
X147652626Y-110672263D01*
X146966912Y-111357977D01*
X147709769Y-111357977D01*
X129512381Y-106252857D02*
X129036190Y-106586191D01*
X129512381Y-106824286D02*
X128512381Y-106824286D01*
X128512381Y-106443333D01*
X128560000Y-106348095D01*
X128607619Y-106300476D01*
X128702857Y-106252857D01*
X128845714Y-106252857D01*
X128940952Y-106300476D01*
X128988571Y-106348095D01*
X129036190Y-106443333D01*
X129036190Y-106824286D01*
X129512381Y-105300476D02*
X129512381Y-105871905D01*
X129512381Y-105586191D02*
X128512381Y-105586191D01*
X128655238Y-105681429D01*
X128750476Y-105776667D01*
X128798095Y-105871905D01*
X128512381Y-104395714D02*
X128512381Y-104871905D01*
X128988571Y-104919524D01*
X128940952Y-104871905D01*
X128893333Y-104776667D01*
X128893333Y-104538571D01*
X128940952Y-104443333D01*
X128988571Y-104395714D01*
X129083810Y-104348095D01*
X129321905Y-104348095D01*
X129417143Y-104395714D01*
X129464762Y-104443333D01*
X129512381Y-104538571D01*
X129512381Y-104776667D01*
X129464762Y-104871905D01*
X129417143Y-104919524D01*
X97337143Y-108692381D02*
X97003809Y-108216190D01*
X96765714Y-108692381D02*
X96765714Y-107692381D01*
X97146667Y-107692381D01*
X97241905Y-107740000D01*
X97289524Y-107787619D01*
X97337143Y-107882857D01*
X97337143Y-108025714D01*
X97289524Y-108120952D01*
X97241905Y-108168571D01*
X97146667Y-108216190D01*
X96765714Y-108216190D01*
X97718095Y-107787619D02*
X97765714Y-107740000D01*
X97860952Y-107692381D01*
X98099048Y-107692381D01*
X98194286Y-107740000D01*
X98241905Y-107787619D01*
X98289524Y-107882857D01*
X98289524Y-107978095D01*
X98241905Y-108120952D01*
X97670476Y-108692381D01*
X98289524Y-108692381D01*
X98860952Y-108120952D02*
X98765714Y-108073333D01*
X98718095Y-108025714D01*
X98670476Y-107930476D01*
X98670476Y-107882857D01*
X98718095Y-107787619D01*
X98765714Y-107740000D01*
X98860952Y-107692381D01*
X99051429Y-107692381D01*
X99146667Y-107740000D01*
X99194286Y-107787619D01*
X99241905Y-107882857D01*
X99241905Y-107930476D01*
X99194286Y-108025714D01*
X99146667Y-108073333D01*
X99051429Y-108120952D01*
X98860952Y-108120952D01*
X98765714Y-108168571D01*
X98718095Y-108216190D01*
X98670476Y-108311429D01*
X98670476Y-108501905D01*
X98718095Y-108597143D01*
X98765714Y-108644762D01*
X98860952Y-108692381D01*
X99051429Y-108692381D01*
X99146667Y-108644762D01*
X99194286Y-108597143D01*
X99241905Y-108501905D01*
X99241905Y-108311429D01*
X99194286Y-108216190D01*
X99146667Y-108168571D01*
X99051429Y-108120952D01*
X153681181Y-124621135D02*
X154681181Y-123954468D01*
X153681181Y-123954468D02*
X154681181Y-124621135D01*
X154395467Y-123621135D02*
X154395467Y-123144944D01*
X154681181Y-123716373D02*
X153681181Y-123383040D01*
X154681181Y-123049706D01*
X154681181Y-122192563D02*
X154681181Y-122763992D01*
X154681181Y-122478278D02*
X153681181Y-122478278D01*
X153824038Y-122573516D01*
X153919276Y-122668754D01*
X153966895Y-122763992D01*
X127142381Y-103066666D02*
X126666190Y-103400000D01*
X127142381Y-103638095D02*
X126142381Y-103638095D01*
X126142381Y-103257142D01*
X126190000Y-103161904D01*
X126237619Y-103114285D01*
X126332857Y-103066666D01*
X126475714Y-103066666D01*
X126570952Y-103114285D01*
X126618571Y-103161904D01*
X126666190Y-103257142D01*
X126666190Y-103638095D01*
X126570952Y-102495238D02*
X126523333Y-102590476D01*
X126475714Y-102638095D01*
X126380476Y-102685714D01*
X126332857Y-102685714D01*
X126237619Y-102638095D01*
X126190000Y-102590476D01*
X126142381Y-102495238D01*
X126142381Y-102304761D01*
X126190000Y-102209523D01*
X126237619Y-102161904D01*
X126332857Y-102114285D01*
X126380476Y-102114285D01*
X126475714Y-102161904D01*
X126523333Y-102209523D01*
X126570952Y-102304761D01*
X126570952Y-102495238D01*
X126618571Y-102590476D01*
X126666190Y-102638095D01*
X126761429Y-102685714D01*
X126951905Y-102685714D01*
X127047143Y-102638095D01*
X127094762Y-102590476D01*
X127142381Y-102495238D01*
X127142381Y-102304761D01*
X127094762Y-102209523D01*
X127047143Y-102161904D01*
X126951905Y-102114285D01*
X126761429Y-102114285D01*
X126666190Y-102161904D01*
X126618571Y-102209523D01*
X126570952Y-102304761D01*
X142597143Y-117252381D02*
X142263809Y-116776190D01*
X142025714Y-117252381D02*
X142025714Y-116252381D01*
X142406667Y-116252381D01*
X142501905Y-116300000D01*
X142549524Y-116347619D01*
X142597143Y-116442857D01*
X142597143Y-116585714D01*
X142549524Y-116680952D01*
X142501905Y-116728571D01*
X142406667Y-116776190D01*
X142025714Y-116776190D01*
X142978095Y-116347619D02*
X143025714Y-116300000D01*
X143120952Y-116252381D01*
X143359048Y-116252381D01*
X143454286Y-116300000D01*
X143501905Y-116347619D01*
X143549524Y-116442857D01*
X143549524Y-116538095D01*
X143501905Y-116680952D01*
X142930476Y-117252381D01*
X143549524Y-117252381D01*
X144406667Y-116585714D02*
X144406667Y-117252381D01*
X144168571Y-116204762D02*
X143930476Y-116919048D01*
X144549524Y-116919048D01*
X126227143Y-106682857D02*
X126274762Y-106730476D01*
X126322381Y-106873333D01*
X126322381Y-106968571D01*
X126274762Y-107111429D01*
X126179524Y-107206667D01*
X126084286Y-107254286D01*
X125893810Y-107301905D01*
X125750952Y-107301905D01*
X125560476Y-107254286D01*
X125465238Y-107206667D01*
X125370000Y-107111429D01*
X125322381Y-106968571D01*
X125322381Y-106873333D01*
X125370000Y-106730476D01*
X125417619Y-106682857D01*
X126322381Y-105730476D02*
X126322381Y-106301905D01*
X126322381Y-106016191D02*
X125322381Y-106016191D01*
X125465238Y-106111429D01*
X125560476Y-106206667D01*
X125608095Y-106301905D01*
X125750952Y-105159048D02*
X125703333Y-105254286D01*
X125655714Y-105301905D01*
X125560476Y-105349524D01*
X125512857Y-105349524D01*
X125417619Y-105301905D01*
X125370000Y-105254286D01*
X125322381Y-105159048D01*
X125322381Y-104968571D01*
X125370000Y-104873333D01*
X125417619Y-104825714D01*
X125512857Y-104778095D01*
X125560476Y-104778095D01*
X125655714Y-104825714D01*
X125703333Y-104873333D01*
X125750952Y-104968571D01*
X125750952Y-105159048D01*
X125798571Y-105254286D01*
X125846190Y-105301905D01*
X125941429Y-105349524D01*
X126131905Y-105349524D01*
X126227143Y-105301905D01*
X126274762Y-105254286D01*
X126322381Y-105159048D01*
X126322381Y-104968571D01*
X126274762Y-104873333D01*
X126227143Y-104825714D01*
X126131905Y-104778095D01*
X125941429Y-104778095D01*
X125846190Y-104825714D01*
X125798571Y-104873333D01*
X125750952Y-104968571D01*
X139557143Y-102116666D02*
X139604762Y-102164285D01*
X139652381Y-102307142D01*
X139652381Y-102402380D01*
X139604762Y-102545238D01*
X139509524Y-102640476D01*
X139414286Y-102688095D01*
X139223810Y-102735714D01*
X139080952Y-102735714D01*
X138890476Y-102688095D01*
X138795238Y-102640476D01*
X138700000Y-102545238D01*
X138652381Y-102402380D01*
X138652381Y-102307142D01*
X138700000Y-102164285D01*
X138747619Y-102116666D01*
X138652381Y-101783333D02*
X138652381Y-101116666D01*
X139652381Y-101545238D01*
X137393334Y-107727143D02*
X137345715Y-107774762D01*
X137202858Y-107822381D01*
X137107620Y-107822381D01*
X136964762Y-107774762D01*
X136869524Y-107679524D01*
X136821905Y-107584286D01*
X136774286Y-107393810D01*
X136774286Y-107250952D01*
X136821905Y-107060476D01*
X136869524Y-106965238D01*
X136964762Y-106870000D01*
X137107620Y-106822381D01*
X137202858Y-106822381D01*
X137345715Y-106870000D01*
X137393334Y-106917619D01*
X137964762Y-107250952D02*
X137869524Y-107203333D01*
X137821905Y-107155714D01*
X137774286Y-107060476D01*
X137774286Y-107012857D01*
X137821905Y-106917619D01*
X137869524Y-106870000D01*
X137964762Y-106822381D01*
X138155239Y-106822381D01*
X138250477Y-106870000D01*
X138298096Y-106917619D01*
X138345715Y-107012857D01*
X138345715Y-107060476D01*
X138298096Y-107155714D01*
X138250477Y-107203333D01*
X138155239Y-107250952D01*
X137964762Y-107250952D01*
X137869524Y-107298571D01*
X137821905Y-107346190D01*
X137774286Y-107441429D01*
X137774286Y-107631905D01*
X137821905Y-107727143D01*
X137869524Y-107774762D01*
X137964762Y-107822381D01*
X138155239Y-107822381D01*
X138250477Y-107774762D01*
X138298096Y-107727143D01*
X138345715Y-107631905D01*
X138345715Y-107441429D01*
X138298096Y-107346190D01*
X138250477Y-107298571D01*
X138155239Y-107250952D01*
X100422983Y-106541866D02*
X100470602Y-106589485D01*
X100518221Y-106732342D01*
X100518221Y-106827580D01*
X100470602Y-106970438D01*
X100375364Y-107065676D01*
X100280126Y-107113295D01*
X100089650Y-107160914D01*
X99946792Y-107160914D01*
X99756316Y-107113295D01*
X99661078Y-107065676D01*
X99565840Y-106970438D01*
X99518221Y-106827580D01*
X99518221Y-106732342D01*
X99565840Y-106589485D01*
X99613459Y-106541866D01*
X100518221Y-106065676D02*
X100518221Y-105875200D01*
X100470602Y-105779961D01*
X100422983Y-105732342D01*
X100280126Y-105637104D01*
X100089650Y-105589485D01*
X99708697Y-105589485D01*
X99613459Y-105637104D01*
X99565840Y-105684723D01*
X99518221Y-105779961D01*
X99518221Y-105970438D01*
X99565840Y-106065676D01*
X99613459Y-106113295D01*
X99708697Y-106160914D01*
X99946792Y-106160914D01*
X100042030Y-106113295D01*
X100089650Y-106065676D01*
X100137269Y-105970438D01*
X100137269Y-105779961D01*
X100089650Y-105684723D01*
X100042030Y-105637104D01*
X99946792Y-105589485D01*
X125910103Y-127763543D02*
X125862484Y-127811162D01*
X125719627Y-127858781D01*
X125624389Y-127858781D01*
X125481531Y-127811162D01*
X125386293Y-127715924D01*
X125338674Y-127620686D01*
X125291055Y-127430210D01*
X125291055Y-127287352D01*
X125338674Y-127096876D01*
X125386293Y-127001638D01*
X125481531Y-126906400D01*
X125624389Y-126858781D01*
X125719627Y-126858781D01*
X125862484Y-126906400D01*
X125910103Y-126954019D01*
X126862484Y-127858781D02*
X126291055Y-127858781D01*
X126576769Y-127858781D02*
X126576769Y-126858781D01*
X126481531Y-127001638D01*
X126386293Y-127096876D01*
X126291055Y-127144495D01*
X127719627Y-127192114D02*
X127719627Y-127858781D01*
X127481531Y-126811162D02*
X127243436Y-127525448D01*
X127862484Y-127525448D01*
X113509823Y-115469943D02*
X113462204Y-115517562D01*
X113319347Y-115565181D01*
X113224109Y-115565181D01*
X113081251Y-115517562D01*
X112986013Y-115422324D01*
X112938394Y-115327086D01*
X112890775Y-115136610D01*
X112890775Y-114993752D01*
X112938394Y-114803276D01*
X112986013Y-114708038D01*
X113081251Y-114612800D01*
X113224109Y-114565181D01*
X113319347Y-114565181D01*
X113462204Y-114612800D01*
X113509823Y-114660419D01*
X114462204Y-115565181D02*
X113890775Y-115565181D01*
X114176489Y-115565181D02*
X114176489Y-114565181D01*
X114081251Y-114708038D01*
X113986013Y-114803276D01*
X113890775Y-114850895D01*
X115319347Y-114565181D02*
X115128870Y-114565181D01*
X115033632Y-114612800D01*
X114986013Y-114660419D01*
X114890775Y-114803276D01*
X114843156Y-114993752D01*
X114843156Y-115374705D01*
X114890775Y-115469943D01*
X114938394Y-115517562D01*
X115033632Y-115565181D01*
X115224109Y-115565181D01*
X115319347Y-115517562D01*
X115366966Y-115469943D01*
X115414585Y-115374705D01*
X115414585Y-115136610D01*
X115366966Y-115041371D01*
X115319347Y-114993752D01*
X115224109Y-114946133D01*
X115033632Y-114946133D01*
X114938394Y-114993752D01*
X114890775Y-115041371D01*
X114843156Y-115136610D01*
X148397143Y-105136666D02*
X148444762Y-105184285D01*
X148492381Y-105327142D01*
X148492381Y-105422380D01*
X148444762Y-105565238D01*
X148349524Y-105660476D01*
X148254286Y-105708095D01*
X148063810Y-105755714D01*
X147920952Y-105755714D01*
X147730476Y-105708095D01*
X147635238Y-105660476D01*
X147540000Y-105565238D01*
X147492381Y-105422380D01*
X147492381Y-105327142D01*
X147540000Y-105184285D01*
X147587619Y-105136666D01*
X147492381Y-104279523D02*
X147492381Y-104470000D01*
X147540000Y-104565238D01*
X147587619Y-104612857D01*
X147730476Y-104708095D01*
X147920952Y-104755714D01*
X148301905Y-104755714D01*
X148397143Y-104708095D01*
X148444762Y-104660476D01*
X148492381Y-104565238D01*
X148492381Y-104374761D01*
X148444762Y-104279523D01*
X148397143Y-104231904D01*
X148301905Y-104184285D01*
X148063810Y-104184285D01*
X147968571Y-104231904D01*
X147920952Y-104279523D01*
X147873333Y-104374761D01*
X147873333Y-104565238D01*
X147920952Y-104660476D01*
X147968571Y-104708095D01*
X148063810Y-104755714D01*
X148226341Y-98774906D02*
X148226341Y-99251097D01*
X147226341Y-99251097D01*
X148226341Y-97917763D02*
X148226341Y-98489192D01*
X148226341Y-98203478D02*
X147226341Y-98203478D01*
X147369198Y-98298716D01*
X147464436Y-98393954D01*
X147512055Y-98489192D01*
X96253334Y-111972381D02*
X95777143Y-111972381D01*
X95777143Y-110972381D01*
X96491429Y-110972381D02*
X97110477Y-110972381D01*
X96777143Y-111353333D01*
X96920001Y-111353333D01*
X97015239Y-111400952D01*
X97062858Y-111448571D01*
X97110477Y-111543810D01*
X97110477Y-111781905D01*
X97062858Y-111877143D01*
X97015239Y-111924762D01*
X96920001Y-111972381D01*
X96634286Y-111972381D01*
X96539048Y-111924762D01*
X96491429Y-111877143D01*
X97963694Y-103711001D02*
X97487503Y-103711001D01*
X97487503Y-102711001D01*
X98725599Y-103044334D02*
X98725599Y-103711001D01*
X98487503Y-102663382D02*
X98249408Y-103377668D01*
X98868456Y-103377668D01*
X148583334Y-108532381D02*
X148250000Y-108056190D01*
X148011905Y-108532381D02*
X148011905Y-107532381D01*
X148392858Y-107532381D01*
X148488096Y-107580000D01*
X148535715Y-107627619D01*
X148583334Y-107722857D01*
X148583334Y-107865714D01*
X148535715Y-107960952D01*
X148488096Y-108008571D01*
X148392858Y-108056190D01*
X148011905Y-108056190D01*
X149535715Y-108532381D02*
X148964286Y-108532381D01*
X149250000Y-108532381D02*
X149250000Y-107532381D01*
X149154762Y-107675238D01*
X149059524Y-107770476D01*
X148964286Y-107818095D01*
X149163334Y-107382381D02*
X148830000Y-106906190D01*
X148591905Y-107382381D02*
X148591905Y-106382381D01*
X148972858Y-106382381D01*
X149068096Y-106430000D01*
X149115715Y-106477619D01*
X149163334Y-106572857D01*
X149163334Y-106715714D01*
X149115715Y-106810952D01*
X149068096Y-106858571D01*
X148972858Y-106906190D01*
X148591905Y-106906190D01*
X149544286Y-106477619D02*
X149591905Y-106430000D01*
X149687143Y-106382381D01*
X149925239Y-106382381D01*
X150020477Y-106430000D01*
X150068096Y-106477619D01*
X150115715Y-106572857D01*
X150115715Y-106668095D01*
X150068096Y-106810952D01*
X149496667Y-107382381D01*
X150115715Y-107382381D01*
X115438181Y-107204806D02*
X114961990Y-107538140D01*
X115438181Y-107776235D02*
X114438181Y-107776235D01*
X114438181Y-107395282D01*
X114485800Y-107300044D01*
X114533419Y-107252425D01*
X114628657Y-107204806D01*
X114771514Y-107204806D01*
X114866752Y-107252425D01*
X114914371Y-107300044D01*
X114961990Y-107395282D01*
X114961990Y-107776235D01*
X114771514Y-106347663D02*
X115438181Y-106347663D01*
X114390562Y-106585759D02*
X115104848Y-106823854D01*
X115104848Y-106204806D01*
X116642141Y-107204806D02*
X116165950Y-107538140D01*
X116642141Y-107776235D02*
X115642141Y-107776235D01*
X115642141Y-107395282D01*
X115689760Y-107300044D01*
X115737379Y-107252425D01*
X115832617Y-107204806D01*
X115975474Y-107204806D01*
X116070712Y-107252425D01*
X116118331Y-107300044D01*
X116165950Y-107395282D01*
X116165950Y-107776235D01*
X115642141Y-106300044D02*
X115642141Y-106776235D01*
X116118331Y-106823854D01*
X116070712Y-106776235D01*
X116023093Y-106680997D01*
X116023093Y-106442901D01*
X116070712Y-106347663D01*
X116118331Y-106300044D01*
X116213570Y-106252425D01*
X116451665Y-106252425D01*
X116546903Y-106300044D01*
X116594522Y-106347663D01*
X116642141Y-106442901D01*
X116642141Y-106680997D01*
X116594522Y-106776235D01*
X116546903Y-106823854D01*
X97015063Y-106146861D02*
X96681729Y-105670670D01*
X96443634Y-106146861D02*
X96443634Y-105146861D01*
X96824587Y-105146861D01*
X96919825Y-105194480D01*
X96967444Y-105242099D01*
X97015063Y-105337337D01*
X97015063Y-105480194D01*
X96967444Y-105575432D01*
X96919825Y-105623051D01*
X96824587Y-105670670D01*
X96443634Y-105670670D01*
X97396015Y-105242099D02*
X97443634Y-105194480D01*
X97538872Y-105146861D01*
X97776968Y-105146861D01*
X97872206Y-105194480D01*
X97919825Y-105242099D01*
X97967444Y-105337337D01*
X97967444Y-105432575D01*
X97919825Y-105575432D01*
X97348396Y-106146861D01*
X97967444Y-106146861D01*
X98300777Y-105146861D02*
X98967444Y-105146861D01*
X98538872Y-106146861D01*
X102011741Y-101836457D02*
X101535550Y-102169791D01*
X102011741Y-102407886D02*
X101011741Y-102407886D01*
X101011741Y-102026933D01*
X101059360Y-101931695D01*
X101106979Y-101884076D01*
X101202217Y-101836457D01*
X101345074Y-101836457D01*
X101440312Y-101884076D01*
X101487931Y-101931695D01*
X101535550Y-102026933D01*
X101535550Y-102407886D01*
X101345074Y-100979314D02*
X102011741Y-100979314D01*
X100964122Y-101217410D02*
X101678408Y-101455505D01*
X101678408Y-100836457D01*
X101106979Y-100503124D02*
X101059360Y-100455505D01*
X101011741Y-100360267D01*
X101011741Y-100122171D01*
X101059360Y-100026933D01*
X101106979Y-99979314D01*
X101202217Y-99931695D01*
X101297455Y-99931695D01*
X101440312Y-99979314D01*
X102011741Y-100550743D01*
X102011741Y-99931695D01*
X102118421Y-108054377D02*
X101642230Y-108387711D01*
X102118421Y-108625806D02*
X101118421Y-108625806D01*
X101118421Y-108244853D01*
X101166040Y-108149615D01*
X101213659Y-108101996D01*
X101308897Y-108054377D01*
X101451754Y-108054377D01*
X101546992Y-108101996D01*
X101594611Y-108149615D01*
X101642230Y-108244853D01*
X101642230Y-108625806D01*
X101451754Y-107197234D02*
X102118421Y-107197234D01*
X101070802Y-107435330D02*
X101785088Y-107673425D01*
X101785088Y-107054377D01*
X101118421Y-106768663D02*
X101118421Y-106149615D01*
X101499373Y-106482949D01*
X101499373Y-106340091D01*
X101546992Y-106244853D01*
X101594611Y-106197234D01*
X101689850Y-106149615D01*
X101927945Y-106149615D01*
X102023183Y-106197234D01*
X102070802Y-106244853D01*
X102118421Y-106340091D01*
X102118421Y-106625806D01*
X102070802Y-106721044D01*
X102023183Y-106768663D01*
X142043334Y-101632381D02*
X141710000Y-101156190D01*
X141471905Y-101632381D02*
X141471905Y-100632381D01*
X141852858Y-100632381D01*
X141948096Y-100680000D01*
X141995715Y-100727619D01*
X142043334Y-100822857D01*
X142043334Y-100965714D01*
X141995715Y-101060952D01*
X141948096Y-101108571D01*
X141852858Y-101156190D01*
X141471905Y-101156190D01*
X142376667Y-100632381D02*
X142995715Y-100632381D01*
X142662381Y-101013333D01*
X142805239Y-101013333D01*
X142900477Y-101060952D01*
X142948096Y-101108571D01*
X142995715Y-101203810D01*
X142995715Y-101441905D01*
X142948096Y-101537143D01*
X142900477Y-101584762D01*
X142805239Y-101632381D01*
X142519524Y-101632381D01*
X142424286Y-101584762D01*
X142376667Y-101537143D01*
X127752381Y-105346666D02*
X127276190Y-105680000D01*
X127752381Y-105918095D02*
X126752381Y-105918095D01*
X126752381Y-105537142D01*
X126800000Y-105441904D01*
X126847619Y-105394285D01*
X126942857Y-105346666D01*
X127085714Y-105346666D01*
X127180952Y-105394285D01*
X127228571Y-105441904D01*
X127276190Y-105537142D01*
X127276190Y-105918095D01*
X126752381Y-104489523D02*
X126752381Y-104680000D01*
X126800000Y-104775238D01*
X126847619Y-104822857D01*
X126990476Y-104918095D01*
X127180952Y-104965714D01*
X127561905Y-104965714D01*
X127657143Y-104918095D01*
X127704762Y-104870476D01*
X127752381Y-104775238D01*
X127752381Y-104584761D01*
X127704762Y-104489523D01*
X127657143Y-104441904D01*
X127561905Y-104394285D01*
X127323810Y-104394285D01*
X127228571Y-104441904D01*
X127180952Y-104489523D01*
X127133333Y-104584761D01*
X127133333Y-104775238D01*
X127180952Y-104870476D01*
X127228571Y-104918095D01*
X127323810Y-104965714D01*
X125752381Y-103306666D02*
X125276190Y-103640000D01*
X125752381Y-103878095D02*
X124752381Y-103878095D01*
X124752381Y-103497142D01*
X124800000Y-103401904D01*
X124847619Y-103354285D01*
X124942857Y-103306666D01*
X125085714Y-103306666D01*
X125180952Y-103354285D01*
X125228571Y-103401904D01*
X125276190Y-103497142D01*
X125276190Y-103878095D01*
X124752381Y-102973333D02*
X124752381Y-102306666D01*
X125752381Y-102735238D01*
X123992381Y-103352857D02*
X123516190Y-103686191D01*
X123992381Y-103924286D02*
X122992381Y-103924286D01*
X122992381Y-103543333D01*
X123040000Y-103448095D01*
X123087619Y-103400476D01*
X123182857Y-103352857D01*
X123325714Y-103352857D01*
X123420952Y-103400476D01*
X123468571Y-103448095D01*
X123516190Y-103543333D01*
X123516190Y-103924286D01*
X123992381Y-102400476D02*
X123992381Y-102971905D01*
X123992381Y-102686191D02*
X122992381Y-102686191D01*
X123135238Y-102781429D01*
X123230476Y-102876667D01*
X123278095Y-102971905D01*
X122992381Y-101781429D02*
X122992381Y-101686190D01*
X123040000Y-101590952D01*
X123087619Y-101543333D01*
X123182857Y-101495714D01*
X123373333Y-101448095D01*
X123611429Y-101448095D01*
X123801905Y-101495714D01*
X123897143Y-101543333D01*
X123944762Y-101590952D01*
X123992381Y-101686190D01*
X123992381Y-101781429D01*
X123944762Y-101876667D01*
X123897143Y-101924286D01*
X123801905Y-101971905D01*
X123611429Y-102019524D01*
X123373333Y-102019524D01*
X123182857Y-101971905D01*
X123087619Y-101924286D01*
X123040000Y-101876667D01*
X122992381Y-101781429D01*
X123052381Y-106192857D02*
X122576190Y-106526191D01*
X123052381Y-106764286D02*
X122052381Y-106764286D01*
X122052381Y-106383333D01*
X122100000Y-106288095D01*
X122147619Y-106240476D01*
X122242857Y-106192857D01*
X122385714Y-106192857D01*
X122480952Y-106240476D01*
X122528571Y-106288095D01*
X122576190Y-106383333D01*
X122576190Y-106764286D01*
X123052381Y-105240476D02*
X123052381Y-105811905D01*
X123052381Y-105526191D02*
X122052381Y-105526191D01*
X122195238Y-105621429D01*
X122290476Y-105716667D01*
X122338095Y-105811905D01*
X123052381Y-104288095D02*
X123052381Y-104859524D01*
X123052381Y-104573810D02*
X122052381Y-104573810D01*
X122195238Y-104669048D01*
X122290476Y-104764286D01*
X122338095Y-104859524D01*
X122292381Y-103362857D02*
X121816190Y-103696191D01*
X122292381Y-103934286D02*
X121292381Y-103934286D01*
X121292381Y-103553333D01*
X121340000Y-103458095D01*
X121387619Y-103410476D01*
X121482857Y-103362857D01*
X121625714Y-103362857D01*
X121720952Y-103410476D01*
X121768571Y-103458095D01*
X121816190Y-103553333D01*
X121816190Y-103934286D01*
X122292381Y-102410476D02*
X122292381Y-102981905D01*
X122292381Y-102696191D02*
X121292381Y-102696191D01*
X121435238Y-102791429D01*
X121530476Y-102886667D01*
X121578095Y-102981905D01*
X121387619Y-102029524D02*
X121340000Y-101981905D01*
X121292381Y-101886667D01*
X121292381Y-101648571D01*
X121340000Y-101553333D01*
X121387619Y-101505714D01*
X121482857Y-101458095D01*
X121578095Y-101458095D01*
X121720952Y-101505714D01*
X122292381Y-102077143D01*
X122292381Y-101458095D01*
X124582381Y-106212857D02*
X124106190Y-106546191D01*
X124582381Y-106784286D02*
X123582381Y-106784286D01*
X123582381Y-106403333D01*
X123630000Y-106308095D01*
X123677619Y-106260476D01*
X123772857Y-106212857D01*
X123915714Y-106212857D01*
X124010952Y-106260476D01*
X124058571Y-106308095D01*
X124106190Y-106403333D01*
X124106190Y-106784286D01*
X124582381Y-105260476D02*
X124582381Y-105831905D01*
X124582381Y-105546191D02*
X123582381Y-105546191D01*
X123725238Y-105641429D01*
X123820476Y-105736667D01*
X123868095Y-105831905D01*
X123582381Y-104927143D02*
X123582381Y-104308095D01*
X123963333Y-104641429D01*
X123963333Y-104498571D01*
X124010952Y-104403333D01*
X124058571Y-104355714D01*
X124153810Y-104308095D01*
X124391905Y-104308095D01*
X124487143Y-104355714D01*
X124534762Y-104403333D01*
X124582381Y-104498571D01*
X124582381Y-104784286D01*
X124534762Y-104879524D01*
X124487143Y-104927143D01*
X113519983Y-114158021D02*
X113186649Y-113681830D01*
X112948554Y-114158021D02*
X112948554Y-113158021D01*
X113329507Y-113158021D01*
X113424745Y-113205640D01*
X113472364Y-113253259D01*
X113519983Y-113348497D01*
X113519983Y-113491354D01*
X113472364Y-113586592D01*
X113424745Y-113634211D01*
X113329507Y-113681830D01*
X112948554Y-113681830D01*
X113853316Y-113158021D02*
X114472364Y-113158021D01*
X114139030Y-113538973D01*
X114281888Y-113538973D01*
X114377126Y-113586592D01*
X114424745Y-113634211D01*
X114472364Y-113729450D01*
X114472364Y-113967545D01*
X114424745Y-114062783D01*
X114377126Y-114110402D01*
X114281888Y-114158021D01*
X113996173Y-114158021D01*
X113900935Y-114110402D01*
X113853316Y-114062783D01*
X115329507Y-113158021D02*
X115139030Y-113158021D01*
X115043792Y-113205640D01*
X114996173Y-113253259D01*
X114900935Y-113396116D01*
X114853316Y-113586592D01*
X114853316Y-113967545D01*
X114900935Y-114062783D01*
X114948554Y-114110402D01*
X115043792Y-114158021D01*
X115234269Y-114158021D01*
X115329507Y-114110402D01*
X115377126Y-114062783D01*
X115424745Y-113967545D01*
X115424745Y-113729450D01*
X115377126Y-113634211D01*
X115329507Y-113586592D01*
X115234269Y-113538973D01*
X115043792Y-113538973D01*
X114948554Y-113586592D01*
X114900935Y-113634211D01*
X114853316Y-113729450D01*
X140382381Y-111692857D02*
X139906190Y-112026191D01*
X140382381Y-112264286D02*
X139382381Y-112264286D01*
X139382381Y-111883333D01*
X139430000Y-111788095D01*
X139477619Y-111740476D01*
X139572857Y-111692857D01*
X139715714Y-111692857D01*
X139810952Y-111740476D01*
X139858571Y-111788095D01*
X139906190Y-111883333D01*
X139906190Y-112264286D01*
X139382381Y-111359524D02*
X139382381Y-110740476D01*
X139763333Y-111073810D01*
X139763333Y-110930952D01*
X139810952Y-110835714D01*
X139858571Y-110788095D01*
X139953810Y-110740476D01*
X140191905Y-110740476D01*
X140287143Y-110788095D01*
X140334762Y-110835714D01*
X140382381Y-110930952D01*
X140382381Y-111216667D01*
X140334762Y-111311905D01*
X140287143Y-111359524D01*
X140382381Y-109788095D02*
X140382381Y-110359524D01*
X140382381Y-110073810D02*
X139382381Y-110073810D01*
X139525238Y-110169048D01*
X139620476Y-110264286D01*
X139668095Y-110359524D01*
X141672381Y-112062857D02*
X141196190Y-112396191D01*
X141672381Y-112634286D02*
X140672381Y-112634286D01*
X140672381Y-112253333D01*
X140720000Y-112158095D01*
X140767619Y-112110476D01*
X140862857Y-112062857D01*
X141005714Y-112062857D01*
X141100952Y-112110476D01*
X141148571Y-112158095D01*
X141196190Y-112253333D01*
X141196190Y-112634286D01*
X140672381Y-111729524D02*
X140672381Y-111110476D01*
X141053333Y-111443810D01*
X141053333Y-111300952D01*
X141100952Y-111205714D01*
X141148571Y-111158095D01*
X141243810Y-111110476D01*
X141481905Y-111110476D01*
X141577143Y-111158095D01*
X141624762Y-111205714D01*
X141672381Y-111300952D01*
X141672381Y-111586667D01*
X141624762Y-111681905D01*
X141577143Y-111729524D01*
X140767619Y-110729524D02*
X140720000Y-110681905D01*
X140672381Y-110586667D01*
X140672381Y-110348571D01*
X140720000Y-110253333D01*
X140767619Y-110205714D01*
X140862857Y-110158095D01*
X140958095Y-110158095D01*
X141100952Y-110205714D01*
X141672381Y-110777143D01*
X141672381Y-110158095D01*
X131202381Y-106032857D02*
X130726190Y-106366191D01*
X131202381Y-106604286D02*
X130202381Y-106604286D01*
X130202381Y-106223333D01*
X130250000Y-106128095D01*
X130297619Y-106080476D01*
X130392857Y-106032857D01*
X130535714Y-106032857D01*
X130630952Y-106080476D01*
X130678571Y-106128095D01*
X130726190Y-106223333D01*
X130726190Y-106604286D01*
X130202381Y-105699524D02*
X130202381Y-105080476D01*
X130583333Y-105413810D01*
X130583333Y-105270952D01*
X130630952Y-105175714D01*
X130678571Y-105128095D01*
X130773810Y-105080476D01*
X131011905Y-105080476D01*
X131107143Y-105128095D01*
X131154762Y-105175714D01*
X131202381Y-105270952D01*
X131202381Y-105556667D01*
X131154762Y-105651905D01*
X131107143Y-105699524D01*
X130202381Y-104747143D02*
X130202381Y-104128095D01*
X130583333Y-104461429D01*
X130583333Y-104318571D01*
X130630952Y-104223333D01*
X130678571Y-104175714D01*
X130773810Y-104128095D01*
X131011905Y-104128095D01*
X131107143Y-104175714D01*
X131154762Y-104223333D01*
X131202381Y-104318571D01*
X131202381Y-104604286D01*
X131154762Y-104699524D01*
X131107143Y-104747143D01*
X130584981Y-118075417D02*
X130108790Y-118408751D01*
X130584981Y-118646846D02*
X129584981Y-118646846D01*
X129584981Y-118265893D01*
X129632600Y-118170655D01*
X129680219Y-118123036D01*
X129775457Y-118075417D01*
X129918314Y-118075417D01*
X130013552Y-118123036D01*
X130061171Y-118170655D01*
X130108790Y-118265893D01*
X130108790Y-118646846D01*
X129584981Y-117742084D02*
X129584981Y-117123036D01*
X129965933Y-117456370D01*
X129965933Y-117313512D01*
X130013552Y-117218274D01*
X130061171Y-117170655D01*
X130156410Y-117123036D01*
X130394505Y-117123036D01*
X130489743Y-117170655D01*
X130537362Y-117218274D01*
X130584981Y-117313512D01*
X130584981Y-117599227D01*
X130537362Y-117694465D01*
X130489743Y-117742084D01*
X129918314Y-116265893D02*
X130584981Y-116265893D01*
X129537362Y-116503989D02*
X130251648Y-116742084D01*
X130251648Y-116123036D01*
X139722381Y-109192857D02*
X139246190Y-109526191D01*
X139722381Y-109764286D02*
X138722381Y-109764286D01*
X138722381Y-109383333D01*
X138770000Y-109288095D01*
X138817619Y-109240476D01*
X138912857Y-109192857D01*
X139055714Y-109192857D01*
X139150952Y-109240476D01*
X139198571Y-109288095D01*
X139246190Y-109383333D01*
X139246190Y-109764286D01*
X138722381Y-108859524D02*
X138722381Y-108240476D01*
X139103333Y-108573810D01*
X139103333Y-108430952D01*
X139150952Y-108335714D01*
X139198571Y-108288095D01*
X139293810Y-108240476D01*
X139531905Y-108240476D01*
X139627143Y-108288095D01*
X139674762Y-108335714D01*
X139722381Y-108430952D01*
X139722381Y-108716667D01*
X139674762Y-108811905D01*
X139627143Y-108859524D01*
X138722381Y-107335714D02*
X138722381Y-107811905D01*
X139198571Y-107859524D01*
X139150952Y-107811905D01*
X139103333Y-107716667D01*
X139103333Y-107478571D01*
X139150952Y-107383333D01*
X139198571Y-107335714D01*
X139293810Y-107288095D01*
X139531905Y-107288095D01*
X139627143Y-107335714D01*
X139674762Y-107383333D01*
X139722381Y-107478571D01*
X139722381Y-107716667D01*
X139674762Y-107811905D01*
X139627143Y-107859524D01*
X117660681Y-119443737D02*
X117184490Y-119777071D01*
X117660681Y-120015166D02*
X116660681Y-120015166D01*
X116660681Y-119634213D01*
X116708300Y-119538975D01*
X116755919Y-119491356D01*
X116851157Y-119443737D01*
X116994014Y-119443737D01*
X117089252Y-119491356D01*
X117136871Y-119538975D01*
X117184490Y-119634213D01*
X117184490Y-120015166D01*
X116660681Y-119110404D02*
X116660681Y-118491356D01*
X117041633Y-118824690D01*
X117041633Y-118681832D01*
X117089252Y-118586594D01*
X117136871Y-118538975D01*
X117232110Y-118491356D01*
X117470205Y-118491356D01*
X117565443Y-118538975D01*
X117613062Y-118586594D01*
X117660681Y-118681832D01*
X117660681Y-118967547D01*
X117613062Y-119062785D01*
X117565443Y-119110404D01*
X116660681Y-118158023D02*
X116660681Y-117491356D01*
X117660681Y-117919928D01*
X136399329Y-102795390D02*
X136399329Y-103271581D01*
X136065996Y-102271581D02*
X136399329Y-102795390D01*
X136732663Y-102271581D01*
X137589806Y-103271581D02*
X137018377Y-103271581D01*
X137304091Y-103271581D02*
X137304091Y-102271581D01*
X137208853Y-102414438D01*
X137113615Y-102509676D01*
X137018377Y-102557295D01*
X149894762Y-94221905D02*
X149942381Y-94079048D01*
X149942381Y-93840952D01*
X149894762Y-93745714D01*
X149847143Y-93698095D01*
X149751905Y-93650476D01*
X149656667Y-93650476D01*
X149561429Y-93698095D01*
X149513810Y-93745714D01*
X149466190Y-93840952D01*
X149418571Y-94031429D01*
X149370952Y-94126667D01*
X149323333Y-94174286D01*
X149228095Y-94221905D01*
X149132857Y-94221905D01*
X149037619Y-94174286D01*
X148990000Y-94126667D01*
X148942381Y-94031429D01*
X148942381Y-93793333D01*
X148990000Y-93650476D01*
X149942381Y-92698095D02*
X149942381Y-93269524D01*
X149942381Y-92983810D02*
X148942381Y-92983810D01*
X149085238Y-93079048D01*
X149180476Y-93174286D01*
X149228095Y-93269524D01*
X149537143Y-105166666D02*
X149584762Y-105214285D01*
X149632381Y-105357142D01*
X149632381Y-105452380D01*
X149584762Y-105595238D01*
X149489524Y-105690476D01*
X149394286Y-105738095D01*
X149203810Y-105785714D01*
X149060952Y-105785714D01*
X148870476Y-105738095D01*
X148775238Y-105690476D01*
X148680000Y-105595238D01*
X148632381Y-105452380D01*
X148632381Y-105357142D01*
X148680000Y-105214285D01*
X148727619Y-105166666D01*
X148727619Y-104785714D02*
X148680000Y-104738095D01*
X148632381Y-104642857D01*
X148632381Y-104404761D01*
X148680000Y-104309523D01*
X148727619Y-104261904D01*
X148822857Y-104214285D01*
X148918095Y-104214285D01*
X149060952Y-104261904D01*
X149632381Y-104833333D01*
X149632381Y-104214285D01*
X120222381Y-105306666D02*
X119746190Y-105640000D01*
X120222381Y-105878095D02*
X119222381Y-105878095D01*
X119222381Y-105497142D01*
X119270000Y-105401904D01*
X119317619Y-105354285D01*
X119412857Y-105306666D01*
X119555714Y-105306666D01*
X119650952Y-105354285D01*
X119698571Y-105401904D01*
X119746190Y-105497142D01*
X119746190Y-105878095D01*
X120222381Y-104830476D02*
X120222381Y-104640000D01*
X120174762Y-104544761D01*
X120127143Y-104497142D01*
X119984286Y-104401904D01*
X119793810Y-104354285D01*
X119412857Y-104354285D01*
X119317619Y-104401904D01*
X119270000Y-104449523D01*
X119222381Y-104544761D01*
X119222381Y-104735238D01*
X119270000Y-104830476D01*
X119317619Y-104878095D01*
X119412857Y-104925714D01*
X119650952Y-104925714D01*
X119746190Y-104878095D01*
X119793810Y-104830476D01*
X119841429Y-104735238D01*
X119841429Y-104544761D01*
X119793810Y-104449523D01*
X119746190Y-104401904D01*
X119650952Y-104354285D01*
X117792761Y-107208557D02*
X117316570Y-107541891D01*
X117792761Y-107779986D02*
X116792761Y-107779986D01*
X116792761Y-107399033D01*
X116840380Y-107303795D01*
X116887999Y-107256176D01*
X116983237Y-107208557D01*
X117126094Y-107208557D01*
X117221332Y-107256176D01*
X117268951Y-107303795D01*
X117316570Y-107399033D01*
X117316570Y-107779986D01*
X117792761Y-106256176D02*
X117792761Y-106827605D01*
X117792761Y-106541891D02*
X116792761Y-106541891D01*
X116935618Y-106637129D01*
X117030856Y-106732367D01*
X117078475Y-106827605D01*
X116792761Y-105399033D02*
X116792761Y-105589510D01*
X116840380Y-105684748D01*
X116887999Y-105732367D01*
X117030856Y-105827605D01*
X117221332Y-105875224D01*
X117602285Y-105875224D01*
X117697523Y-105827605D01*
X117745142Y-105779986D01*
X117792761Y-105684748D01*
X117792761Y-105494271D01*
X117745142Y-105399033D01*
X117697523Y-105351414D01*
X117602285Y-105303795D01*
X117364190Y-105303795D01*
X117268951Y-105351414D01*
X117221332Y-105399033D01*
X117173713Y-105494271D01*
X117173713Y-105684748D01*
X117221332Y-105779986D01*
X117268951Y-105827605D01*
X117364190Y-105875224D01*
X91992381Y-111612857D02*
X91516190Y-111946191D01*
X91992381Y-112184286D02*
X90992381Y-112184286D01*
X90992381Y-111803333D01*
X91040000Y-111708095D01*
X91087619Y-111660476D01*
X91182857Y-111612857D01*
X91325714Y-111612857D01*
X91420952Y-111660476D01*
X91468571Y-111708095D01*
X91516190Y-111803333D01*
X91516190Y-112184286D01*
X91087619Y-111231905D02*
X91040000Y-111184286D01*
X90992381Y-111089048D01*
X90992381Y-110850952D01*
X91040000Y-110755714D01*
X91087619Y-110708095D01*
X91182857Y-110660476D01*
X91278095Y-110660476D01*
X91420952Y-110708095D01*
X91992381Y-111279524D01*
X91992381Y-110660476D01*
X90992381Y-110041429D02*
X90992381Y-109946190D01*
X91040000Y-109850952D01*
X91087619Y-109803333D01*
X91182857Y-109755714D01*
X91373333Y-109708095D01*
X91611429Y-109708095D01*
X91801905Y-109755714D01*
X91897143Y-109803333D01*
X91944762Y-109850952D01*
X91992381Y-109946190D01*
X91992381Y-110041429D01*
X91944762Y-110136667D01*
X91897143Y-110184286D01*
X91801905Y-110231905D01*
X91611429Y-110279524D01*
X91373333Y-110279524D01*
X91182857Y-110231905D01*
X91087619Y-110184286D01*
X91040000Y-110136667D01*
X90992381Y-110041429D01*
X90692381Y-111612857D02*
X90216190Y-111946191D01*
X90692381Y-112184286D02*
X89692381Y-112184286D01*
X89692381Y-111803333D01*
X89740000Y-111708095D01*
X89787619Y-111660476D01*
X89882857Y-111612857D01*
X90025714Y-111612857D01*
X90120952Y-111660476D01*
X90168571Y-111708095D01*
X90216190Y-111803333D01*
X90216190Y-112184286D01*
X89787619Y-111231905D02*
X89740000Y-111184286D01*
X89692381Y-111089048D01*
X89692381Y-110850952D01*
X89740000Y-110755714D01*
X89787619Y-110708095D01*
X89882857Y-110660476D01*
X89978095Y-110660476D01*
X90120952Y-110708095D01*
X90692381Y-111279524D01*
X90692381Y-110660476D01*
X90692381Y-109708095D02*
X90692381Y-110279524D01*
X90692381Y-109993810D02*
X89692381Y-109993810D01*
X89835238Y-110089048D01*
X89930476Y-110184286D01*
X89978095Y-110279524D01*
X85637143Y-115202381D02*
X85303809Y-114726190D01*
X85065714Y-115202381D02*
X85065714Y-114202381D01*
X85446667Y-114202381D01*
X85541905Y-114250000D01*
X85589524Y-114297619D01*
X85637143Y-114392857D01*
X85637143Y-114535714D01*
X85589524Y-114630952D01*
X85541905Y-114678571D01*
X85446667Y-114726190D01*
X85065714Y-114726190D01*
X86018095Y-114297619D02*
X86065714Y-114250000D01*
X86160952Y-114202381D01*
X86399048Y-114202381D01*
X86494286Y-114250000D01*
X86541905Y-114297619D01*
X86589524Y-114392857D01*
X86589524Y-114488095D01*
X86541905Y-114630952D01*
X85970476Y-115202381D01*
X86589524Y-115202381D01*
X86970476Y-114297619D02*
X87018095Y-114250000D01*
X87113333Y-114202381D01*
X87351429Y-114202381D01*
X87446667Y-114250000D01*
X87494286Y-114297619D01*
X87541905Y-114392857D01*
X87541905Y-114488095D01*
X87494286Y-114630952D01*
X86922857Y-115202381D01*
X87541905Y-115202381D01*
X142337143Y-113652381D02*
X142003809Y-113176190D01*
X141765714Y-113652381D02*
X141765714Y-112652381D01*
X142146667Y-112652381D01*
X142241905Y-112700000D01*
X142289524Y-112747619D01*
X142337143Y-112842857D01*
X142337143Y-112985714D01*
X142289524Y-113080952D01*
X142241905Y-113128571D01*
X142146667Y-113176190D01*
X141765714Y-113176190D01*
X142718095Y-112747619D02*
X142765714Y-112700000D01*
X142860952Y-112652381D01*
X143099048Y-112652381D01*
X143194286Y-112700000D01*
X143241905Y-112747619D01*
X143289524Y-112842857D01*
X143289524Y-112938095D01*
X143241905Y-113080952D01*
X142670476Y-113652381D01*
X143289524Y-113652381D01*
X144194286Y-112652381D02*
X143718095Y-112652381D01*
X143670476Y-113128571D01*
X143718095Y-113080952D01*
X143813333Y-113033333D01*
X144051429Y-113033333D01*
X144146667Y-113080952D01*
X144194286Y-113128571D01*
X144241905Y-113223810D01*
X144241905Y-113461905D01*
X144194286Y-113557143D01*
X144146667Y-113604762D01*
X144051429Y-113652381D01*
X143813333Y-113652381D01*
X143718095Y-113604762D01*
X143670476Y-113557143D01*
X154832381Y-112322857D02*
X154356190Y-112656191D01*
X154832381Y-112894286D02*
X153832381Y-112894286D01*
X153832381Y-112513333D01*
X153880000Y-112418095D01*
X153927619Y-112370476D01*
X154022857Y-112322857D01*
X154165714Y-112322857D01*
X154260952Y-112370476D01*
X154308571Y-112418095D01*
X154356190Y-112513333D01*
X154356190Y-112894286D01*
X153927619Y-111941905D02*
X153880000Y-111894286D01*
X153832381Y-111799048D01*
X153832381Y-111560952D01*
X153880000Y-111465714D01*
X153927619Y-111418095D01*
X154022857Y-111370476D01*
X154118095Y-111370476D01*
X154260952Y-111418095D01*
X154832381Y-111989524D01*
X154832381Y-111370476D01*
X153832381Y-110513333D02*
X153832381Y-110703810D01*
X153880000Y-110799048D01*
X153927619Y-110846667D01*
X154070476Y-110941905D01*
X154260952Y-110989524D01*
X154641905Y-110989524D01*
X154737143Y-110941905D01*
X154784762Y-110894286D01*
X154832381Y-110799048D01*
X154832381Y-110608571D01*
X154784762Y-110513333D01*
X154737143Y-110465714D01*
X154641905Y-110418095D01*
X154403810Y-110418095D01*
X154308571Y-110465714D01*
X154260952Y-110513333D01*
X154213333Y-110608571D01*
X154213333Y-110799048D01*
X154260952Y-110894286D01*
X154308571Y-110941905D01*
X154403810Y-110989524D01*
X136387143Y-117337143D02*
X136339524Y-117384762D01*
X136196667Y-117432381D01*
X136101429Y-117432381D01*
X135958571Y-117384762D01*
X135863333Y-117289524D01*
X135815714Y-117194286D01*
X135768095Y-117003810D01*
X135768095Y-116860952D01*
X135815714Y-116670476D01*
X135863333Y-116575238D01*
X135958571Y-116480000D01*
X136101429Y-116432381D01*
X136196667Y-116432381D01*
X136339524Y-116480000D01*
X136387143Y-116527619D01*
X137339524Y-117432381D02*
X136768095Y-117432381D01*
X137053809Y-117432381D02*
X137053809Y-116432381D01*
X136958571Y-116575238D01*
X136863333Y-116670476D01*
X136768095Y-116718095D01*
X138291905Y-117432381D02*
X137720476Y-117432381D01*
X138006190Y-117432381D02*
X138006190Y-116432381D01*
X137910952Y-116575238D01*
X137815714Y-116670476D01*
X137720476Y-116718095D01*
X135797143Y-109487143D02*
X135749524Y-109534762D01*
X135606667Y-109582381D01*
X135511429Y-109582381D01*
X135368571Y-109534762D01*
X135273333Y-109439524D01*
X135225714Y-109344286D01*
X135178095Y-109153810D01*
X135178095Y-109010952D01*
X135225714Y-108820476D01*
X135273333Y-108725238D01*
X135368571Y-108630000D01*
X135511429Y-108582381D01*
X135606667Y-108582381D01*
X135749524Y-108630000D01*
X135797143Y-108677619D01*
X136749524Y-109582381D02*
X136178095Y-109582381D01*
X136463809Y-109582381D02*
X136463809Y-108582381D01*
X136368571Y-108725238D01*
X136273333Y-108820476D01*
X136178095Y-108868095D01*
X137368571Y-108582381D02*
X137463810Y-108582381D01*
X137559048Y-108630000D01*
X137606667Y-108677619D01*
X137654286Y-108772857D01*
X137701905Y-108963333D01*
X137701905Y-109201429D01*
X137654286Y-109391905D01*
X137606667Y-109487143D01*
X137559048Y-109534762D01*
X137463810Y-109582381D01*
X137368571Y-109582381D01*
X137273333Y-109534762D01*
X137225714Y-109487143D01*
X137178095Y-109391905D01*
X137130476Y-109201429D01*
X137130476Y-108963333D01*
X137178095Y-108772857D01*
X137225714Y-108677619D01*
X137273333Y-108630000D01*
X137368571Y-108582381D01*
X140307143Y-119932857D02*
X140354762Y-119980476D01*
X140402381Y-120123333D01*
X140402381Y-120218571D01*
X140354762Y-120361429D01*
X140259524Y-120456667D01*
X140164286Y-120504286D01*
X139973810Y-120551905D01*
X139830952Y-120551905D01*
X139640476Y-120504286D01*
X139545238Y-120456667D01*
X139450000Y-120361429D01*
X139402381Y-120218571D01*
X139402381Y-120123333D01*
X139450000Y-119980476D01*
X139497619Y-119932857D01*
X140402381Y-118980476D02*
X140402381Y-119551905D01*
X140402381Y-119266191D02*
X139402381Y-119266191D01*
X139545238Y-119361429D01*
X139640476Y-119456667D01*
X139688095Y-119551905D01*
X139497619Y-118599524D02*
X139450000Y-118551905D01*
X139402381Y-118456667D01*
X139402381Y-118218571D01*
X139450000Y-118123333D01*
X139497619Y-118075714D01*
X139592857Y-118028095D01*
X139688095Y-118028095D01*
X139830952Y-118075714D01*
X140402381Y-118647143D01*
X140402381Y-118028095D01*
X136307143Y-119247143D02*
X136259524Y-119294762D01*
X136116667Y-119342381D01*
X136021429Y-119342381D01*
X135878571Y-119294762D01*
X135783333Y-119199524D01*
X135735714Y-119104286D01*
X135688095Y-118913810D01*
X135688095Y-118770952D01*
X135735714Y-118580476D01*
X135783333Y-118485238D01*
X135878571Y-118390000D01*
X136021429Y-118342381D01*
X136116667Y-118342381D01*
X136259524Y-118390000D01*
X136307143Y-118437619D01*
X137259524Y-119342381D02*
X136688095Y-119342381D01*
X136973809Y-119342381D02*
X136973809Y-118342381D01*
X136878571Y-118485238D01*
X136783333Y-118580476D01*
X136688095Y-118628095D01*
X137592857Y-118342381D02*
X138211905Y-118342381D01*
X137878571Y-118723333D01*
X138021429Y-118723333D01*
X138116667Y-118770952D01*
X138164286Y-118818571D01*
X138211905Y-118913810D01*
X138211905Y-119151905D01*
X138164286Y-119247143D01*
X138116667Y-119294762D01*
X138021429Y-119342381D01*
X137735714Y-119342381D01*
X137640476Y-119294762D01*
X137592857Y-119247143D01*
X113547923Y-123376963D02*
X113500304Y-123424582D01*
X113357447Y-123472201D01*
X113262209Y-123472201D01*
X113119351Y-123424582D01*
X113024113Y-123329344D01*
X112976494Y-123234106D01*
X112928875Y-123043630D01*
X112928875Y-122900772D01*
X112976494Y-122710296D01*
X113024113Y-122615058D01*
X113119351Y-122519820D01*
X113262209Y-122472201D01*
X113357447Y-122472201D01*
X113500304Y-122519820D01*
X113547923Y-122567439D01*
X114500304Y-123472201D02*
X113928875Y-123472201D01*
X114214589Y-123472201D02*
X114214589Y-122472201D01*
X114119351Y-122615058D01*
X114024113Y-122710296D01*
X113928875Y-122757915D01*
X115405066Y-122472201D02*
X114928875Y-122472201D01*
X114881256Y-122948391D01*
X114928875Y-122900772D01*
X115024113Y-122853153D01*
X115262209Y-122853153D01*
X115357447Y-122900772D01*
X115405066Y-122948391D01*
X115452685Y-123043630D01*
X115452685Y-123281725D01*
X115405066Y-123376963D01*
X115357447Y-123424582D01*
X115262209Y-123472201D01*
X115024113Y-123472201D01*
X114928875Y-123424582D01*
X114881256Y-123376963D01*
X136887143Y-111952857D02*
X136934762Y-112000476D01*
X136982381Y-112143333D01*
X136982381Y-112238571D01*
X136934762Y-112381429D01*
X136839524Y-112476667D01*
X136744286Y-112524286D01*
X136553810Y-112571905D01*
X136410952Y-112571905D01*
X136220476Y-112524286D01*
X136125238Y-112476667D01*
X136030000Y-112381429D01*
X135982381Y-112238571D01*
X135982381Y-112143333D01*
X136030000Y-112000476D01*
X136077619Y-111952857D01*
X136982381Y-111000476D02*
X136982381Y-111571905D01*
X136982381Y-111286191D02*
X135982381Y-111286191D01*
X136125238Y-111381429D01*
X136220476Y-111476667D01*
X136268095Y-111571905D01*
X135982381Y-110667143D02*
X135982381Y-110000476D01*
X136982381Y-110429048D01*
X121527143Y-106072857D02*
X121574762Y-106120476D01*
X121622381Y-106263333D01*
X121622381Y-106358571D01*
X121574762Y-106501429D01*
X121479524Y-106596667D01*
X121384286Y-106644286D01*
X121193810Y-106691905D01*
X121050952Y-106691905D01*
X120860476Y-106644286D01*
X120765238Y-106596667D01*
X120670000Y-106501429D01*
X120622381Y-106358571D01*
X120622381Y-106263333D01*
X120670000Y-106120476D01*
X120717619Y-106072857D01*
X121622381Y-105120476D02*
X121622381Y-105691905D01*
X121622381Y-105406191D02*
X120622381Y-105406191D01*
X120765238Y-105501429D01*
X120860476Y-105596667D01*
X120908095Y-105691905D01*
X121622381Y-104644286D02*
X121622381Y-104453810D01*
X121574762Y-104358571D01*
X121527143Y-104310952D01*
X121384286Y-104215714D01*
X121193810Y-104168095D01*
X120812857Y-104168095D01*
X120717619Y-104215714D01*
X120670000Y-104263333D01*
X120622381Y-104358571D01*
X120622381Y-104549048D01*
X120670000Y-104644286D01*
X120717619Y-104691905D01*
X120812857Y-104739524D01*
X121050952Y-104739524D01*
X121146190Y-104691905D01*
X121193810Y-104644286D01*
X121241429Y-104549048D01*
X121241429Y-104358571D01*
X121193810Y-104263333D01*
X121146190Y-104215714D01*
X121050952Y-104168095D01*
X137382025Y-115224821D02*
X137382025Y-114224821D01*
X137620120Y-114224821D01*
X137762978Y-114272440D01*
X137858216Y-114367678D01*
X137905835Y-114462916D01*
X137953454Y-114653392D01*
X137953454Y-114796250D01*
X137905835Y-114986726D01*
X137858216Y-115081964D01*
X137762978Y-115177202D01*
X137620120Y-115224821D01*
X137382025Y-115224821D01*
X138810597Y-114224821D02*
X138620120Y-114224821D01*
X138524882Y-114272440D01*
X138477263Y-114320059D01*
X138382025Y-114462916D01*
X138334406Y-114653392D01*
X138334406Y-115034345D01*
X138382025Y-115129583D01*
X138429644Y-115177202D01*
X138524882Y-115224821D01*
X138715359Y-115224821D01*
X138810597Y-115177202D01*
X138858216Y-115129583D01*
X138905835Y-115034345D01*
X138905835Y-114796250D01*
X138858216Y-114701011D01*
X138810597Y-114653392D01*
X138715359Y-114605773D01*
X138524882Y-114605773D01*
X138429644Y-114653392D01*
X138382025Y-114701011D01*
X138334406Y-114796250D01*
X110518985Y-113665261D02*
X110518985Y-112665261D01*
X110757080Y-112665261D01*
X110899938Y-112712880D01*
X110995176Y-112808118D01*
X111042795Y-112903356D01*
X111090414Y-113093832D01*
X111090414Y-113236690D01*
X111042795Y-113427166D01*
X110995176Y-113522404D01*
X110899938Y-113617642D01*
X110757080Y-113665261D01*
X110518985Y-113665261D01*
X111423747Y-112665261D02*
X112090414Y-112665261D01*
X111661842Y-113665261D01*
X130352381Y-103352857D02*
X129876190Y-103686191D01*
X130352381Y-103924286D02*
X129352381Y-103924286D01*
X129352381Y-103543333D01*
X129400000Y-103448095D01*
X129447619Y-103400476D01*
X129542857Y-103352857D01*
X129685714Y-103352857D01*
X129780952Y-103400476D01*
X129828571Y-103448095D01*
X129876190Y-103543333D01*
X129876190Y-103924286D01*
X130352381Y-102400476D02*
X130352381Y-102971905D01*
X130352381Y-102686191D02*
X129352381Y-102686191D01*
X129495238Y-102781429D01*
X129590476Y-102876667D01*
X129638095Y-102971905D01*
X129685714Y-101543333D02*
X130352381Y-101543333D01*
X129304762Y-101781429D02*
X130019048Y-102019524D01*
X130019048Y-101400476D01*
X89177143Y-124772381D02*
X88843809Y-124296190D01*
X88605714Y-124772381D02*
X88605714Y-123772381D01*
X88986667Y-123772381D01*
X89081905Y-123820000D01*
X89129524Y-123867619D01*
X89177143Y-123962857D01*
X89177143Y-124105714D01*
X89129524Y-124200952D01*
X89081905Y-124248571D01*
X88986667Y-124296190D01*
X88605714Y-124296190D01*
X90129524Y-124772381D02*
X89558095Y-124772381D01*
X89843809Y-124772381D02*
X89843809Y-123772381D01*
X89748571Y-123915238D01*
X89653333Y-124010476D01*
X89558095Y-124058095D01*
X90605714Y-124772381D02*
X90796190Y-124772381D01*
X90891429Y-124724762D01*
X90939048Y-124677143D01*
X91034286Y-124534286D01*
X91081905Y-124343810D01*
X91081905Y-123962857D01*
X91034286Y-123867619D01*
X90986667Y-123820000D01*
X90891429Y-123772381D01*
X90700952Y-123772381D01*
X90605714Y-123820000D01*
X90558095Y-123867619D01*
X90510476Y-123962857D01*
X90510476Y-124200952D01*
X90558095Y-124296190D01*
X90605714Y-124343810D01*
X90700952Y-124391429D01*
X90891429Y-124391429D01*
X90986667Y-124343810D01*
X91034286Y-124296190D01*
X91081905Y-124200952D01*
X89497143Y-115022381D02*
X89163809Y-114546190D01*
X88925714Y-115022381D02*
X88925714Y-114022381D01*
X89306667Y-114022381D01*
X89401905Y-114070000D01*
X89449524Y-114117619D01*
X89497143Y-114212857D01*
X89497143Y-114355714D01*
X89449524Y-114450952D01*
X89401905Y-114498571D01*
X89306667Y-114546190D01*
X88925714Y-114546190D01*
X89878095Y-114117619D02*
X89925714Y-114070000D01*
X90020952Y-114022381D01*
X90259048Y-114022381D01*
X90354286Y-114070000D01*
X90401905Y-114117619D01*
X90449524Y-114212857D01*
X90449524Y-114308095D01*
X90401905Y-114450952D01*
X89830476Y-115022381D01*
X90449524Y-115022381D01*
X90782857Y-114022381D02*
X91401905Y-114022381D01*
X91068571Y-114403333D01*
X91211429Y-114403333D01*
X91306667Y-114450952D01*
X91354286Y-114498571D01*
X91401905Y-114593810D01*
X91401905Y-114831905D01*
X91354286Y-114927143D01*
X91306667Y-114974762D01*
X91211429Y-115022381D01*
X90925714Y-115022381D01*
X90830476Y-114974762D01*
X90782857Y-114927143D01*
X113596183Y-122197121D02*
X113262849Y-121720930D01*
X113024754Y-122197121D02*
X113024754Y-121197121D01*
X113405707Y-121197121D01*
X113500945Y-121244740D01*
X113548564Y-121292359D01*
X113596183Y-121387597D01*
X113596183Y-121530454D01*
X113548564Y-121625692D01*
X113500945Y-121673311D01*
X113405707Y-121720930D01*
X113024754Y-121720930D01*
X113929516Y-121197121D02*
X114548564Y-121197121D01*
X114215230Y-121578073D01*
X114358088Y-121578073D01*
X114453326Y-121625692D01*
X114500945Y-121673311D01*
X114548564Y-121768550D01*
X114548564Y-122006645D01*
X114500945Y-122101883D01*
X114453326Y-122149502D01*
X114358088Y-122197121D01*
X114072373Y-122197121D01*
X113977135Y-122149502D01*
X113929516Y-122101883D01*
X115119992Y-121625692D02*
X115024754Y-121578073D01*
X114977135Y-121530454D01*
X114929516Y-121435216D01*
X114929516Y-121387597D01*
X114977135Y-121292359D01*
X115024754Y-121244740D01*
X115119992Y-121197121D01*
X115310469Y-121197121D01*
X115405707Y-121244740D01*
X115453326Y-121292359D01*
X115500945Y-121387597D01*
X115500945Y-121435216D01*
X115453326Y-121530454D01*
X115405707Y-121578073D01*
X115310469Y-121625692D01*
X115119992Y-121625692D01*
X115024754Y-121673311D01*
X114977135Y-121720930D01*
X114929516Y-121816169D01*
X114929516Y-122006645D01*
X114977135Y-122101883D01*
X115024754Y-122149502D01*
X115119992Y-122197121D01*
X115310469Y-122197121D01*
X115405707Y-122149502D01*
X115453326Y-122101883D01*
X115500945Y-122006645D01*
X115500945Y-121816169D01*
X115453326Y-121720930D01*
X115405707Y-121673311D01*
X115310469Y-121625692D01*
X136677143Y-122302381D02*
X136343809Y-121826190D01*
X136105714Y-122302381D02*
X136105714Y-121302381D01*
X136486667Y-121302381D01*
X136581905Y-121350000D01*
X136629524Y-121397619D01*
X136677143Y-121492857D01*
X136677143Y-121635714D01*
X136629524Y-121730952D01*
X136581905Y-121778571D01*
X136486667Y-121826190D01*
X136105714Y-121826190D01*
X137534286Y-121635714D02*
X137534286Y-122302381D01*
X137296190Y-121254762D02*
X137058095Y-121969048D01*
X137677143Y-121969048D01*
X138200952Y-121730952D02*
X138105714Y-121683333D01*
X138058095Y-121635714D01*
X138010476Y-121540476D01*
X138010476Y-121492857D01*
X138058095Y-121397619D01*
X138105714Y-121350000D01*
X138200952Y-121302381D01*
X138391429Y-121302381D01*
X138486667Y-121350000D01*
X138534286Y-121397619D01*
X138581905Y-121492857D01*
X138581905Y-121540476D01*
X138534286Y-121635714D01*
X138486667Y-121683333D01*
X138391429Y-121730952D01*
X138200952Y-121730952D01*
X138105714Y-121778571D01*
X138058095Y-121826190D01*
X138010476Y-121921429D01*
X138010476Y-122111905D01*
X138058095Y-122207143D01*
X138105714Y-122254762D01*
X138200952Y-122302381D01*
X138391429Y-122302381D01*
X138486667Y-122254762D01*
X138534286Y-122207143D01*
X138581905Y-122111905D01*
X138581905Y-121921429D01*
X138534286Y-121826190D01*
X138486667Y-121778571D01*
X138391429Y-121730952D01*
X89810341Y-102456573D02*
X90524627Y-102456573D01*
X90667484Y-102504193D01*
X90762722Y-102599431D01*
X90810341Y-102742288D01*
X90810341Y-102837526D01*
X89905579Y-102028002D02*
X89857960Y-101980383D01*
X89810341Y-101885145D01*
X89810341Y-101647049D01*
X89857960Y-101551811D01*
X89905579Y-101504192D01*
X90000817Y-101456573D01*
X90096055Y-101456573D01*
X90238912Y-101504192D01*
X90810341Y-102075621D01*
X90810341Y-101456573D01*
X154366667Y-107982381D02*
X154366667Y-108696667D01*
X154319047Y-108839524D01*
X154223809Y-108934762D01*
X154080952Y-108982381D01*
X153985714Y-108982381D01*
X155271429Y-108315714D02*
X155271429Y-108982381D01*
X155033333Y-107934762D02*
X154795238Y-108649048D01*
X155414286Y-108649048D01*
X139676667Y-99152381D02*
X139676667Y-99866667D01*
X139629047Y-100009524D01*
X139533809Y-100104762D01*
X139390952Y-100152381D01*
X139295714Y-100152381D01*
X140676667Y-100152381D02*
X140105238Y-100152381D01*
X140390952Y-100152381D02*
X140390952Y-99152381D01*
X140295714Y-99295238D01*
X140200476Y-99390476D01*
X140105238Y-99438095D01*
X131702381Y-103272857D02*
X131226190Y-103606191D01*
X131702381Y-103844286D02*
X130702381Y-103844286D01*
X130702381Y-103463333D01*
X130750000Y-103368095D01*
X130797619Y-103320476D01*
X130892857Y-103272857D01*
X131035714Y-103272857D01*
X131130952Y-103320476D01*
X131178571Y-103368095D01*
X131226190Y-103463333D01*
X131226190Y-103844286D01*
X131035714Y-102415714D02*
X131702381Y-102415714D01*
X130654762Y-102653810D02*
X131369048Y-102891905D01*
X131369048Y-102272857D01*
X131702381Y-101844286D02*
X131702381Y-101653810D01*
X131654762Y-101558571D01*
X131607143Y-101510952D01*
X131464286Y-101415714D01*
X131273810Y-101368095D01*
X130892857Y-101368095D01*
X130797619Y-101415714D01*
X130750000Y-101463333D01*
X130702381Y-101558571D01*
X130702381Y-101749048D01*
X130750000Y-101844286D01*
X130797619Y-101891905D01*
X130892857Y-101939524D01*
X131130952Y-101939524D01*
X131226190Y-101891905D01*
X131273810Y-101844286D01*
X131321429Y-101749048D01*
X131321429Y-101558571D01*
X131273810Y-101463333D01*
X131226190Y-101415714D01*
X131130952Y-101368095D01*
X128612381Y-101602857D02*
X128136190Y-101936191D01*
X128612381Y-102174286D02*
X127612381Y-102174286D01*
X127612381Y-101793333D01*
X127660000Y-101698095D01*
X127707619Y-101650476D01*
X127802857Y-101602857D01*
X127945714Y-101602857D01*
X128040952Y-101650476D01*
X128088571Y-101698095D01*
X128136190Y-101793333D01*
X128136190Y-102174286D01*
X127612381Y-100698095D02*
X127612381Y-101174286D01*
X128088571Y-101221905D01*
X128040952Y-101174286D01*
X127993333Y-101079048D01*
X127993333Y-100840952D01*
X128040952Y-100745714D01*
X128088571Y-100698095D01*
X128183810Y-100650476D01*
X128421905Y-100650476D01*
X128517143Y-100698095D01*
X128564762Y-100745714D01*
X128612381Y-100840952D01*
X128612381Y-101079048D01*
X128564762Y-101174286D01*
X128517143Y-101221905D01*
X127612381Y-100031429D02*
X127612381Y-99936190D01*
X127660000Y-99840952D01*
X127707619Y-99793333D01*
X127802857Y-99745714D01*
X127993333Y-99698095D01*
X128231429Y-99698095D01*
X128421905Y-99745714D01*
X128517143Y-99793333D01*
X128564762Y-99840952D01*
X128612381Y-99936190D01*
X128612381Y-100031429D01*
X128564762Y-100126667D01*
X128517143Y-100174286D01*
X128421905Y-100221905D01*
X128231429Y-100269524D01*
X127993333Y-100269524D01*
X127802857Y-100221905D01*
X127707619Y-100174286D01*
X127660000Y-100126667D01*
X127612381Y-100031429D01*
X145642381Y-100942857D02*
X145166190Y-101276191D01*
X145642381Y-101514286D02*
X144642381Y-101514286D01*
X144642381Y-101133333D01*
X144690000Y-101038095D01*
X144737619Y-100990476D01*
X144832857Y-100942857D01*
X144975714Y-100942857D01*
X145070952Y-100990476D01*
X145118571Y-101038095D01*
X145166190Y-101133333D01*
X145166190Y-101514286D01*
X144642381Y-100038095D02*
X144642381Y-100514286D01*
X145118571Y-100561905D01*
X145070952Y-100514286D01*
X145023333Y-100419048D01*
X145023333Y-100180952D01*
X145070952Y-100085714D01*
X145118571Y-100038095D01*
X145213810Y-99990476D01*
X145451905Y-99990476D01*
X145547143Y-100038095D01*
X145594762Y-100085714D01*
X145642381Y-100180952D01*
X145642381Y-100419048D01*
X145594762Y-100514286D01*
X145547143Y-100561905D01*
X144737619Y-99609524D02*
X144690000Y-99561905D01*
X144642381Y-99466667D01*
X144642381Y-99228571D01*
X144690000Y-99133333D01*
X144737619Y-99085714D01*
X144832857Y-99038095D01*
X144928095Y-99038095D01*
X145070952Y-99085714D01*
X145642381Y-99657143D01*
X145642381Y-99038095D01*
X144432381Y-100792857D02*
X143956190Y-101126191D01*
X144432381Y-101364286D02*
X143432381Y-101364286D01*
X143432381Y-100983333D01*
X143480000Y-100888095D01*
X143527619Y-100840476D01*
X143622857Y-100792857D01*
X143765714Y-100792857D01*
X143860952Y-100840476D01*
X143908571Y-100888095D01*
X143956190Y-100983333D01*
X143956190Y-101364286D01*
X143432381Y-99888095D02*
X143432381Y-100364286D01*
X143908571Y-100411905D01*
X143860952Y-100364286D01*
X143813333Y-100269048D01*
X143813333Y-100030952D01*
X143860952Y-99935714D01*
X143908571Y-99888095D01*
X144003810Y-99840476D01*
X144241905Y-99840476D01*
X144337143Y-99888095D01*
X144384762Y-99935714D01*
X144432381Y-100030952D01*
X144432381Y-100269048D01*
X144384762Y-100364286D01*
X144337143Y-100411905D01*
X143432381Y-99507143D02*
X143432381Y-98888095D01*
X143813333Y-99221429D01*
X143813333Y-99078571D01*
X143860952Y-98983333D01*
X143908571Y-98935714D01*
X144003810Y-98888095D01*
X144241905Y-98888095D01*
X144337143Y-98935714D01*
X144384762Y-98983333D01*
X144432381Y-99078571D01*
X144432381Y-99364286D01*
X144384762Y-99459524D01*
X144337143Y-99507143D01*
X85041905Y-126172381D02*
X85041905Y-125172381D01*
X85280000Y-125172381D01*
X85422858Y-125220000D01*
X85518096Y-125315238D01*
X85565715Y-125410476D01*
X85613334Y-125600952D01*
X85613334Y-125743810D01*
X85565715Y-125934286D01*
X85518096Y-126029524D01*
X85422858Y-126124762D01*
X85280000Y-126172381D01*
X85041905Y-126172381D01*
X85994286Y-125267619D02*
X86041905Y-125220000D01*
X86137143Y-125172381D01*
X86375239Y-125172381D01*
X86470477Y-125220000D01*
X86518096Y-125267619D01*
X86565715Y-125362857D01*
X86565715Y-125458095D01*
X86518096Y-125600952D01*
X85946667Y-126172381D01*
X86565715Y-126172381D01*
X88032381Y-111658095D02*
X87032381Y-111658095D01*
X87032381Y-111420000D01*
X87080000Y-111277142D01*
X87175238Y-111181904D01*
X87270476Y-111134285D01*
X87460952Y-111086666D01*
X87603810Y-111086666D01*
X87794286Y-111134285D01*
X87889524Y-111181904D01*
X87984762Y-111277142D01*
X88032381Y-111420000D01*
X88032381Y-111658095D01*
X87032381Y-110753333D02*
X87032381Y-110134285D01*
X87413333Y-110467619D01*
X87413333Y-110324761D01*
X87460952Y-110229523D01*
X87508571Y-110181904D01*
X87603810Y-110134285D01*
X87841905Y-110134285D01*
X87937143Y-110181904D01*
X87984762Y-110229523D01*
X88032381Y-110324761D01*
X88032381Y-110610476D01*
X87984762Y-110705714D01*
X87937143Y-110753333D01*
X89182381Y-111658095D02*
X88182381Y-111658095D01*
X88182381Y-111420000D01*
X88230000Y-111277142D01*
X88325238Y-111181904D01*
X88420476Y-111134285D01*
X88610952Y-111086666D01*
X88753810Y-111086666D01*
X88944286Y-111134285D01*
X89039524Y-111181904D01*
X89134762Y-111277142D01*
X89182381Y-111420000D01*
X89182381Y-111658095D01*
X88515714Y-110229523D02*
X89182381Y-110229523D01*
X88134762Y-110467619D02*
X88849048Y-110705714D01*
X88849048Y-110086666D01*
X86832381Y-111658095D02*
X85832381Y-111658095D01*
X85832381Y-111420000D01*
X85880000Y-111277142D01*
X85975238Y-111181904D01*
X86070476Y-111134285D01*
X86260952Y-111086666D01*
X86403810Y-111086666D01*
X86594286Y-111134285D01*
X86689524Y-111181904D01*
X86784762Y-111277142D01*
X86832381Y-111420000D01*
X86832381Y-111658095D01*
X85832381Y-110181904D02*
X85832381Y-110658095D01*
X86308571Y-110705714D01*
X86260952Y-110658095D01*
X86213333Y-110562857D01*
X86213333Y-110324761D01*
X86260952Y-110229523D01*
X86308571Y-110181904D01*
X86403810Y-110134285D01*
X86641905Y-110134285D01*
X86737143Y-110181904D01*
X86784762Y-110229523D01*
X86832381Y-110324761D01*
X86832381Y-110562857D01*
X86784762Y-110658095D01*
X86737143Y-110705714D01*
X151722381Y-110408095D02*
X150722381Y-110408095D01*
X150722381Y-110170000D01*
X150770000Y-110027142D01*
X150865238Y-109931904D01*
X150960476Y-109884285D01*
X151150952Y-109836666D01*
X151293810Y-109836666D01*
X151484286Y-109884285D01*
X151579524Y-109931904D01*
X151674762Y-110027142D01*
X151722381Y-110170000D01*
X151722381Y-110408095D01*
X151150952Y-109265238D02*
X151103333Y-109360476D01*
X151055714Y-109408095D01*
X150960476Y-109455714D01*
X150912857Y-109455714D01*
X150817619Y-109408095D01*
X150770000Y-109360476D01*
X150722381Y-109265238D01*
X150722381Y-109074761D01*
X150770000Y-108979523D01*
X150817619Y-108931904D01*
X150912857Y-108884285D01*
X150960476Y-108884285D01*
X151055714Y-108931904D01*
X151103333Y-108979523D01*
X151150952Y-109074761D01*
X151150952Y-109265238D01*
X151198571Y-109360476D01*
X151246190Y-109408095D01*
X151341429Y-109455714D01*
X151531905Y-109455714D01*
X151627143Y-109408095D01*
X151674762Y-109360476D01*
X151722381Y-109265238D01*
X151722381Y-109074761D01*
X151674762Y-108979523D01*
X151627143Y-108931904D01*
X151531905Y-108884285D01*
X151341429Y-108884285D01*
X151246190Y-108931904D01*
X151198571Y-108979523D01*
X151150952Y-109074761D01*
X150472381Y-110448095D02*
X149472381Y-110448095D01*
X149472381Y-110210000D01*
X149520000Y-110067142D01*
X149615238Y-109971904D01*
X149710476Y-109924285D01*
X149900952Y-109876666D01*
X150043810Y-109876666D01*
X150234286Y-109924285D01*
X150329524Y-109971904D01*
X150424762Y-110067142D01*
X150472381Y-110210000D01*
X150472381Y-110448095D01*
X150472381Y-109400476D02*
X150472381Y-109210000D01*
X150424762Y-109114761D01*
X150377143Y-109067142D01*
X150234286Y-108971904D01*
X150043810Y-108924285D01*
X149662857Y-108924285D01*
X149567619Y-108971904D01*
X149520000Y-109019523D01*
X149472381Y-109114761D01*
X149472381Y-109305238D01*
X149520000Y-109400476D01*
X149567619Y-109448095D01*
X149662857Y-109495714D01*
X149900952Y-109495714D01*
X149996190Y-109448095D01*
X150043810Y-109400476D01*
X150091429Y-109305238D01*
X150091429Y-109114761D01*
X150043810Y-109019523D01*
X149996190Y-108971904D01*
X149900952Y-108924285D01*
X152942381Y-110464286D02*
X151942381Y-110464286D01*
X151942381Y-110226191D01*
X151990000Y-110083333D01*
X152085238Y-109988095D01*
X152180476Y-109940476D01*
X152370952Y-109892857D01*
X152513810Y-109892857D01*
X152704286Y-109940476D01*
X152799524Y-109988095D01*
X152894762Y-110083333D01*
X152942381Y-110226191D01*
X152942381Y-110464286D01*
X152942381Y-108940476D02*
X152942381Y-109511905D01*
X152942381Y-109226191D02*
X151942381Y-109226191D01*
X152085238Y-109321429D01*
X152180476Y-109416667D01*
X152228095Y-109511905D01*
X151942381Y-108321429D02*
X151942381Y-108226190D01*
X151990000Y-108130952D01*
X152037619Y-108083333D01*
X152132857Y-108035714D01*
X152323333Y-107988095D01*
X152561429Y-107988095D01*
X152751905Y-108035714D01*
X152847143Y-108083333D01*
X152894762Y-108130952D01*
X152942381Y-108226190D01*
X152942381Y-108321429D01*
X152894762Y-108416667D01*
X152847143Y-108464286D01*
X152751905Y-108511905D01*
X152561429Y-108559524D01*
X152323333Y-108559524D01*
X152132857Y-108511905D01*
X152037619Y-108464286D01*
X151990000Y-108416667D01*
X151942381Y-108321429D01*
X148511905Y-102932381D02*
X148511905Y-101932381D01*
X148750000Y-101932381D01*
X148892858Y-101980000D01*
X148988096Y-102075238D01*
X149035715Y-102170476D01*
X149083334Y-102360952D01*
X149083334Y-102503810D01*
X149035715Y-102694286D01*
X148988096Y-102789524D01*
X148892858Y-102884762D01*
X148750000Y-102932381D01*
X148511905Y-102932381D01*
X150035715Y-102932381D02*
X149464286Y-102932381D01*
X149750000Y-102932381D02*
X149750000Y-101932381D01*
X149654762Y-102075238D01*
X149559524Y-102170476D01*
X149464286Y-102218095D01*
X90825714Y-108932381D02*
X90825714Y-107932381D01*
X91063809Y-107932381D01*
X91206667Y-107980000D01*
X91301905Y-108075238D01*
X91349524Y-108170476D01*
X91397143Y-108360952D01*
X91397143Y-108503810D01*
X91349524Y-108694286D01*
X91301905Y-108789524D01*
X91206667Y-108884762D01*
X91063809Y-108932381D01*
X90825714Y-108932381D01*
X92349524Y-108932381D02*
X91778095Y-108932381D01*
X92063809Y-108932381D02*
X92063809Y-107932381D01*
X91968571Y-108075238D01*
X91873333Y-108170476D01*
X91778095Y-108218095D01*
X93301905Y-108932381D02*
X92730476Y-108932381D01*
X93016190Y-108932381D02*
X93016190Y-107932381D01*
X92920952Y-108075238D01*
X92825714Y-108170476D01*
X92730476Y-108218095D01*
X133818095Y-125522381D02*
X133818095Y-126331905D01*
X133865714Y-126427143D01*
X133913333Y-126474762D01*
X134008571Y-126522381D01*
X134199048Y-126522381D01*
X134294286Y-126474762D01*
X134341905Y-126427143D01*
X134389524Y-126331905D01*
X134389524Y-125522381D01*
X135389524Y-126522381D02*
X134818095Y-126522381D01*
X135103809Y-126522381D02*
X135103809Y-125522381D01*
X135008571Y-125665238D01*
X134913333Y-125760476D01*
X134818095Y-125808095D01*
X91748705Y-130652781D02*
X91748705Y-129652781D01*
X92129658Y-129652781D01*
X92224896Y-129700400D01*
X92272515Y-129748019D01*
X92320134Y-129843257D01*
X92320134Y-129986114D01*
X92272515Y-130081352D01*
X92224896Y-130128971D01*
X92129658Y-130176590D01*
X91748705Y-130176590D01*
X93272515Y-130652781D02*
X92701086Y-130652781D01*
X92986800Y-130652781D02*
X92986800Y-129652781D01*
X92891562Y-129795638D01*
X92796324Y-129890876D01*
X92701086Y-129938495D01*
M02*
